G04*
G04 #@! TF.GenerationSoftware,Altium Limited,Altium Designer,19.0.4 (130)*
G04*
G04 Layer_Color=8421504*
%FSAX25Y25*%
%MOIN*%
G70*
G01*
G75*
%ADD24R,0.10200X0.07000*%
%ADD25R,0.04800X0.07000*%
%ADD26R,0.06000X0.05512*%
%ADD27R,0.13228X0.19134*%
%ADD28R,0.04000X0.03000*%
%ADD29R,0.07000X0.04500*%
%ADD30R,0.04500X0.07000*%
%ADD31R,0.04400X0.06600*%
%ADD32R,0.06600X0.04400*%
%ADD33R,0.03800X0.03500*%
%ADD34R,0.03500X0.03800*%
%ADD35R,0.06000X0.04000*%
%ADD36R,0.03200X0.03900*%
%ADD37R,0.03900X0.03200*%
%ADD38R,0.03000X0.04000*%
%ADD39R,0.04500X0.05000*%
%ADD40R,0.06500X0.11201*%
%ADD41R,0.03500X0.01201*%
%ADD42R,0.06102X0.09252*%
%ADD43R,0.08661X0.12008*%
%ADD44R,0.02441X0.07165*%
%ADD45R,0.07165X0.02441*%
%ADD46R,0.02362X0.07087*%
%ADD47R,0.07087X0.02756*%
%ADD48R,0.01181X0.07087*%
%ADD49R,0.21299X0.05236*%
%ADD50R,0.05236X0.21299*%
D24*
X0245541Y0136952D02*
D03*
D25*
X0234241D02*
D03*
D26*
X0855946Y0082244D02*
D03*
X0848174D02*
D03*
X0551831Y0082244D02*
D03*
X0544060D02*
D03*
D27*
X0852060Y0066567D02*
D03*
X0547946Y0066567D02*
D03*
D28*
X0726250Y0086866D02*
D03*
Y0092966D02*
D03*
X0423300Y0086866D02*
D03*
Y0092966D02*
D03*
X0726366Y0074724D02*
D03*
Y0080823D02*
D03*
X0423300Y0080550D02*
D03*
Y0074450D02*
D03*
X0758600Y0056250D02*
D03*
Y0062350D02*
D03*
X0454800Y0063150D02*
D03*
Y0057050D02*
D03*
X0764500Y0056350D02*
D03*
Y0062450D02*
D03*
X0460433Y0063550D02*
D03*
Y0057450D02*
D03*
D29*
X0892500Y0170951D02*
D03*
Y0179781D02*
D03*
X0867500D02*
D03*
Y0170951D02*
D03*
X0842500D02*
D03*
Y0179781D02*
D03*
X0817500D02*
D03*
Y0170951D02*
D03*
X0792500D02*
D03*
Y0179781D02*
D03*
X0767500D02*
D03*
Y0170951D02*
D03*
X0742484D02*
D03*
Y0179781D02*
D03*
X0717500D02*
D03*
Y0170951D02*
D03*
X0692500D02*
D03*
Y0179781D02*
D03*
X0667500D02*
D03*
Y0170951D02*
D03*
X0642500D02*
D03*
Y0179781D02*
D03*
X0617500D02*
D03*
Y0170951D02*
D03*
X0592500D02*
D03*
Y0179781D02*
D03*
X0567500D02*
D03*
Y0170951D02*
D03*
X0542500D02*
D03*
Y0179781D02*
D03*
X0517500D02*
D03*
Y0170951D02*
D03*
X0492500D02*
D03*
Y0179781D02*
D03*
X0467500D02*
D03*
Y0170951D02*
D03*
X0442500D02*
D03*
Y0179781D02*
D03*
X0417500D02*
D03*
Y0170951D02*
D03*
X0392500D02*
D03*
Y0179781D02*
D03*
X0367500D02*
D03*
Y0170951D02*
D03*
X0342539Y0170974D02*
D03*
Y0179805D02*
D03*
X0317500Y0179781D02*
D03*
Y0170951D02*
D03*
D30*
X0877119Y0073366D02*
D03*
X0868288D02*
D03*
X0564174Y0073366D02*
D03*
X0573004D02*
D03*
D31*
X0333342Y0185500D02*
D03*
X0326658D02*
D03*
X0351658D02*
D03*
X0358342D02*
D03*
X0383342D02*
D03*
X0376658D02*
D03*
X0401658D02*
D03*
X0408342D02*
D03*
X0432842D02*
D03*
X0426158D02*
D03*
X0452158D02*
D03*
X0458842D02*
D03*
X0483342D02*
D03*
X0476658D02*
D03*
X0501658D02*
D03*
X0508342D02*
D03*
X0533342D02*
D03*
X0526658D02*
D03*
X0551658D02*
D03*
X0558342D02*
D03*
X0583342D02*
D03*
X0576658D02*
D03*
X0601658D02*
D03*
X0608342D02*
D03*
X0633342D02*
D03*
X0626658D02*
D03*
X0651658D02*
D03*
X0658342D02*
D03*
X0683342D02*
D03*
X0676658D02*
D03*
X0701158D02*
D03*
X0707842D02*
D03*
X0733342D02*
D03*
X0726658D02*
D03*
X0751395D02*
D03*
X0758078D02*
D03*
X0783342D02*
D03*
X0776658D02*
D03*
X0801658D02*
D03*
X0808342D02*
D03*
X0833342D02*
D03*
X0826658D02*
D03*
X0851658D02*
D03*
X0858342D02*
D03*
X0883342D02*
D03*
X0876658D02*
D03*
X0901658D02*
D03*
X0908342D02*
D03*
X0592542Y0035600D02*
D03*
X0585858D02*
D03*
X0666375Y0035500D02*
D03*
X0659691D02*
D03*
X0644442Y0031579D02*
D03*
X0637758D02*
D03*
Y0039421D02*
D03*
X0644442D02*
D03*
X0214566Y0130366D02*
D03*
X0221249D02*
D03*
D32*
X0791032Y0101208D02*
D03*
Y0094524D02*
D03*
X0487000Y0094524D02*
D03*
Y0101208D02*
D03*
X0868766Y0087708D02*
D03*
Y0081024D02*
D03*
X0564652Y0081024D02*
D03*
Y0087708D02*
D03*
D33*
X0304000Y0131266D02*
D03*
Y0137466D02*
D03*
X0313760D02*
D03*
Y0131266D02*
D03*
X0321240D02*
D03*
Y0137466D02*
D03*
X0338783Y0137490D02*
D03*
Y0131290D02*
D03*
X0346264D02*
D03*
Y0137490D02*
D03*
X0363760Y0137466D02*
D03*
Y0131266D02*
D03*
X0371240D02*
D03*
Y0137466D02*
D03*
X0388760D02*
D03*
Y0131266D02*
D03*
X0396240D02*
D03*
Y0137466D02*
D03*
X0413760D02*
D03*
Y0131266D02*
D03*
X0421240D02*
D03*
Y0137466D02*
D03*
X0438760D02*
D03*
Y0131266D02*
D03*
X0446240D02*
D03*
Y0137466D02*
D03*
X0463760Y0136966D02*
D03*
Y0130766D02*
D03*
X0471240D02*
D03*
Y0136966D02*
D03*
X0488760D02*
D03*
Y0130766D02*
D03*
X0892500Y0166466D02*
D03*
Y0160266D02*
D03*
X0867500D02*
D03*
Y0166466D02*
D03*
X0842500D02*
D03*
Y0160266D02*
D03*
X0817500D02*
D03*
Y0166466D02*
D03*
X0792500D02*
D03*
Y0160266D02*
D03*
X0767500D02*
D03*
Y0166466D02*
D03*
X0742500D02*
D03*
Y0160266D02*
D03*
X0717500D02*
D03*
Y0166466D02*
D03*
X0692500D02*
D03*
Y0160266D02*
D03*
X0667500D02*
D03*
Y0166466D02*
D03*
X0642500D02*
D03*
Y0160266D02*
D03*
X0617500D02*
D03*
Y0166466D02*
D03*
X0605000Y0138766D02*
D03*
Y0144966D02*
D03*
X0896240Y0136966D02*
D03*
Y0130766D02*
D03*
X0888760D02*
D03*
Y0136966D02*
D03*
X0871240D02*
D03*
Y0130766D02*
D03*
X0863760D02*
D03*
Y0136966D02*
D03*
X0846240D02*
D03*
Y0130766D02*
D03*
X0838760D02*
D03*
Y0136966D02*
D03*
X0821240D02*
D03*
Y0130766D02*
D03*
X0813760D02*
D03*
Y0136966D02*
D03*
X0796240D02*
D03*
Y0130766D02*
D03*
X0788760D02*
D03*
Y0136966D02*
D03*
X0771240D02*
D03*
Y0130766D02*
D03*
X0763760D02*
D03*
Y0136966D02*
D03*
X0746240D02*
D03*
Y0130766D02*
D03*
X0738760D02*
D03*
Y0136966D02*
D03*
X0720240D02*
D03*
Y0130766D02*
D03*
X0712760D02*
D03*
Y0136966D02*
D03*
X0696240D02*
D03*
Y0130766D02*
D03*
X0688760D02*
D03*
Y0136966D02*
D03*
X0671240D02*
D03*
Y0130766D02*
D03*
X0663760D02*
D03*
Y0136966D02*
D03*
X0646240D02*
D03*
Y0130766D02*
D03*
X0638760D02*
D03*
Y0136966D02*
D03*
X0621240D02*
D03*
Y0130766D02*
D03*
X0613760D02*
D03*
Y0136966D02*
D03*
X0592500Y0160266D02*
D03*
Y0166466D02*
D03*
X0567500D02*
D03*
Y0160266D02*
D03*
X0542500D02*
D03*
Y0166466D02*
D03*
X0517500D02*
D03*
Y0160266D02*
D03*
X0492500D02*
D03*
Y0166466D02*
D03*
X0467500D02*
D03*
Y0160266D02*
D03*
X0442500D02*
D03*
Y0166466D02*
D03*
X0417500D02*
D03*
Y0160266D02*
D03*
X0392500D02*
D03*
Y0166466D02*
D03*
X0367500D02*
D03*
Y0160266D02*
D03*
X0342524Y0160290D02*
D03*
Y0166490D02*
D03*
X0317500Y0166466D02*
D03*
Y0160266D02*
D03*
X0296000Y0137431D02*
D03*
Y0131231D02*
D03*
X0596240Y0130766D02*
D03*
Y0136966D02*
D03*
X0588760D02*
D03*
Y0130766D02*
D03*
X0571240D02*
D03*
Y0136966D02*
D03*
X0563760D02*
D03*
Y0130766D02*
D03*
X0546240D02*
D03*
Y0136966D02*
D03*
X0538760D02*
D03*
Y0130766D02*
D03*
X0521240D02*
D03*
Y0136966D02*
D03*
X0513760D02*
D03*
Y0130766D02*
D03*
X0496240D02*
D03*
Y0136966D02*
D03*
X0790000Y0070240D02*
D03*
Y0076440D02*
D03*
X0598948Y0033100D02*
D03*
Y0026900D02*
D03*
Y0044100D02*
D03*
Y0037900D02*
D03*
X0883114Y0080966D02*
D03*
Y0074766D02*
D03*
X0579000Y0074766D02*
D03*
Y0080966D02*
D03*
X0653600Y0026900D02*
D03*
Y0033100D02*
D03*
Y0044100D02*
D03*
Y0037900D02*
D03*
X0264608Y0103302D02*
D03*
Y0097102D02*
D03*
X0260608Y0155210D02*
D03*
Y0149010D02*
D03*
X0253841D02*
D03*
Y0155210D02*
D03*
X0221150Y0161771D02*
D03*
Y0167971D02*
D03*
X0227000Y0161771D02*
D03*
Y0167971D02*
D03*
D34*
X0805108Y0100967D02*
D03*
X0798908D02*
D03*
X0494876Y0100967D02*
D03*
X0501077D02*
D03*
X0747000Y0051000D02*
D03*
X0753200D02*
D03*
X0447500D02*
D03*
X0441300D02*
D03*
X0780300Y0060500D02*
D03*
X0774100D02*
D03*
X0473400Y0057000D02*
D03*
X0479600D02*
D03*
X0792600Y0060500D02*
D03*
X0786400D02*
D03*
X0484400Y0057000D02*
D03*
X0490600D02*
D03*
X0214622Y0140752D02*
D03*
X0208422D02*
D03*
Y0156209D02*
D03*
X0214622D02*
D03*
X0208422Y0145972D02*
D03*
X0214622D02*
D03*
D35*
X0610301Y0040650D02*
D03*
Y0030350D02*
D03*
X0628899D02*
D03*
Y0040650D02*
D03*
D36*
X0890290Y0125866D02*
D03*
X0896590D02*
D03*
X0871590D02*
D03*
X0865290D02*
D03*
X0840290D02*
D03*
X0846590D02*
D03*
X0821590D02*
D03*
X0815290D02*
D03*
X0790290D02*
D03*
X0796590D02*
D03*
X0771590D02*
D03*
X0765290D02*
D03*
X0740290D02*
D03*
X0746590D02*
D03*
X0720590D02*
D03*
X0714290D02*
D03*
X0690290D02*
D03*
X0696590D02*
D03*
X0671590D02*
D03*
X0665290D02*
D03*
X0640290D02*
D03*
X0646590D02*
D03*
X0621590D02*
D03*
X0615290D02*
D03*
X0590290D02*
D03*
X0596590D02*
D03*
X0571590D02*
D03*
X0565290D02*
D03*
X0540290D02*
D03*
X0546590D02*
D03*
X0521590D02*
D03*
X0515290D02*
D03*
X0490290D02*
D03*
X0496590D02*
D03*
X0471590D02*
D03*
X0465290D02*
D03*
X0440290D02*
D03*
X0446590D02*
D03*
X0421590D02*
D03*
X0415290D02*
D03*
X0390290D02*
D03*
X0396590D02*
D03*
X0371590D02*
D03*
X0365290D02*
D03*
X0340314Y0125890D02*
D03*
X0346614D02*
D03*
X0321590Y0125866D02*
D03*
X0315290D02*
D03*
X0214672Y0151091D02*
D03*
X0208372D02*
D03*
X0208722Y0163000D02*
D03*
X0215022D02*
D03*
D37*
X0304000Y0120198D02*
D03*
Y0126498D02*
D03*
D38*
X0751350Y0056700D02*
D03*
X0745250D02*
D03*
X0441041Y0056376D02*
D03*
X0447141D02*
D03*
X0735667Y0051000D02*
D03*
X0741767D02*
D03*
X0436767D02*
D03*
X0430667D02*
D03*
X0733450Y0059500D02*
D03*
X0739550D02*
D03*
X0434550D02*
D03*
X0428450D02*
D03*
X0747714Y0062566D02*
D03*
X0753814D02*
D03*
X0449700Y0062566D02*
D03*
X0443600D02*
D03*
D39*
X0313510Y0143339D02*
D03*
X0321490D02*
D03*
X0317500Y0152394D02*
D03*
X0342524Y0152417D02*
D03*
X0346514Y0143362D02*
D03*
X0338533D02*
D03*
X0363510Y0143339D02*
D03*
X0371490D02*
D03*
X0367500Y0152394D02*
D03*
X0892500D02*
D03*
X0896490Y0143339D02*
D03*
X0888510D02*
D03*
X0863510D02*
D03*
X0871490D02*
D03*
X0867500Y0152394D02*
D03*
X0842500D02*
D03*
X0846490Y0143339D02*
D03*
X0838510D02*
D03*
X0813510D02*
D03*
X0821490D02*
D03*
X0817500Y0152394D02*
D03*
X0792500D02*
D03*
X0796490Y0143339D02*
D03*
X0788510D02*
D03*
X0763510D02*
D03*
X0771490D02*
D03*
X0767500Y0152394D02*
D03*
X0742500D02*
D03*
X0746490Y0143339D02*
D03*
X0738510D02*
D03*
X0712510D02*
D03*
X0720490D02*
D03*
X0716500Y0152394D02*
D03*
X0692500D02*
D03*
X0696490Y0143339D02*
D03*
X0688510D02*
D03*
X0663510D02*
D03*
X0671490D02*
D03*
X0667500Y0152394D02*
D03*
X0642500D02*
D03*
X0646490Y0143339D02*
D03*
X0638510D02*
D03*
X0613510D02*
D03*
X0621490D02*
D03*
X0617500Y0152394D02*
D03*
X0592500D02*
D03*
X0596490Y0143339D02*
D03*
X0588510D02*
D03*
X0563510D02*
D03*
X0571490D02*
D03*
X0567500Y0152394D02*
D03*
X0542500D02*
D03*
X0546490Y0143339D02*
D03*
X0538510D02*
D03*
X0513510D02*
D03*
X0521490D02*
D03*
X0517500Y0152394D02*
D03*
X0492500D02*
D03*
X0496490Y0143339D02*
D03*
X0488510D02*
D03*
X0463510D02*
D03*
X0471490D02*
D03*
X0467500Y0152394D02*
D03*
X0442500D02*
D03*
X0446490Y0143339D02*
D03*
X0438510D02*
D03*
X0413510D02*
D03*
X0421490D02*
D03*
X0417500Y0152394D02*
D03*
X0392500D02*
D03*
X0396490Y0143339D02*
D03*
X0388510D02*
D03*
D40*
X0233108Y0150697D02*
D03*
D41*
X0224813Y0143807D02*
D03*
Y0147744D02*
D03*
Y0151681D02*
D03*
Y0153650D02*
D03*
Y0155618D02*
D03*
Y0157587D02*
D03*
X0241404D02*
D03*
Y0155618D02*
D03*
Y0153650D02*
D03*
Y0151681D02*
D03*
Y0147744D02*
D03*
Y0143807D02*
D03*
D42*
X0275300Y0109766D02*
D03*
Y0126695D02*
D03*
D43*
X0212738Y0084555D02*
D03*
X0249352D02*
D03*
D44*
X0224207Y0112266D02*
D03*
X0211608D02*
D03*
X0224207Y0121500D02*
D03*
X0211608D02*
D03*
D45*
X0187976Y0130453D02*
D03*
Y0143051D02*
D03*
X0198659D02*
D03*
Y0130453D02*
D03*
D46*
X0111417Y0118339D02*
D03*
X0115354D02*
D03*
X0119291D02*
D03*
X0079921D02*
D03*
X0075984D02*
D03*
X0072047D02*
D03*
D47*
X0050000Y0136449D02*
D03*
Y0132512D02*
D03*
Y0128575D02*
D03*
Y0124638D02*
D03*
Y0120701D02*
D03*
Y0234874D02*
D03*
Y0230937D02*
D03*
Y0227000D02*
D03*
Y0223063D02*
D03*
Y0219126D02*
D03*
Y0215189D02*
D03*
Y0211252D02*
D03*
Y0187630D02*
D03*
Y0191567D02*
D03*
Y0195504D02*
D03*
Y0199441D02*
D03*
Y0203378D02*
D03*
Y0207315D02*
D03*
Y0164008D02*
D03*
Y0167945D02*
D03*
Y0171882D02*
D03*
Y0175819D02*
D03*
Y0179756D02*
D03*
Y0183693D02*
D03*
Y0140386D02*
D03*
Y0144323D02*
D03*
Y0148260D02*
D03*
Y0152197D02*
D03*
Y0156134D02*
D03*
Y0160071D02*
D03*
X0141339D02*
D03*
Y0156134D02*
D03*
Y0152197D02*
D03*
Y0148260D02*
D03*
Y0144323D02*
D03*
Y0140386D02*
D03*
Y0183693D02*
D03*
Y0179756D02*
D03*
Y0175819D02*
D03*
Y0171882D02*
D03*
Y0167945D02*
D03*
Y0164008D02*
D03*
Y0207315D02*
D03*
Y0203378D02*
D03*
Y0199441D02*
D03*
Y0195504D02*
D03*
Y0191567D02*
D03*
Y0187630D02*
D03*
Y0211252D02*
D03*
Y0215189D02*
D03*
Y0219126D02*
D03*
Y0223063D02*
D03*
Y0227000D02*
D03*
Y0230937D02*
D03*
Y0234874D02*
D03*
Y0120701D02*
D03*
Y0124638D02*
D03*
Y0128575D02*
D03*
Y0132512D02*
D03*
Y0136449D02*
D03*
D48*
X0478079Y0098343D02*
D03*
X0476110D02*
D03*
X0474142D02*
D03*
X0472173D02*
D03*
X0470205D02*
D03*
X0468236D02*
D03*
X0466268D02*
D03*
X0464299D02*
D03*
X0462331D02*
D03*
X0460362D02*
D03*
X0458394D02*
D03*
X0456425D02*
D03*
X0454457D02*
D03*
X0452488D02*
D03*
X0450520D02*
D03*
X0448551D02*
D03*
X0446583D02*
D03*
X0444614D02*
D03*
X0442646D02*
D03*
X0440677D02*
D03*
X0438709D02*
D03*
X0436740D02*
D03*
X0434772D02*
D03*
X0432803D02*
D03*
Y0070390D02*
D03*
X0434772D02*
D03*
X0436740D02*
D03*
X0438709D02*
D03*
X0440677D02*
D03*
X0442646D02*
D03*
X0444614D02*
D03*
X0446583D02*
D03*
X0448551D02*
D03*
X0450520D02*
D03*
X0452488D02*
D03*
X0454457D02*
D03*
X0456425D02*
D03*
X0458394D02*
D03*
X0460362D02*
D03*
X0462331D02*
D03*
X0464299D02*
D03*
X0466268D02*
D03*
X0468236D02*
D03*
X0470205D02*
D03*
X0472173D02*
D03*
X0474142D02*
D03*
X0476110D02*
D03*
X0478079D02*
D03*
X0782079D02*
D03*
X0780110D02*
D03*
X0778142D02*
D03*
X0776173D02*
D03*
X0774205D02*
D03*
X0772236D02*
D03*
X0770268D02*
D03*
X0768299D02*
D03*
X0766331D02*
D03*
X0764362D02*
D03*
X0762394D02*
D03*
X0760425D02*
D03*
X0758457D02*
D03*
X0756488D02*
D03*
X0754520D02*
D03*
X0752551D02*
D03*
X0750583D02*
D03*
X0748614D02*
D03*
X0746646D02*
D03*
X0744677D02*
D03*
X0742709D02*
D03*
X0740740D02*
D03*
X0738772D02*
D03*
X0736803D02*
D03*
Y0098343D02*
D03*
X0738772D02*
D03*
X0740740D02*
D03*
X0742709D02*
D03*
X0744677D02*
D03*
X0746646D02*
D03*
X0748614D02*
D03*
X0750583D02*
D03*
X0752551D02*
D03*
X0754520D02*
D03*
X0756488D02*
D03*
X0758457D02*
D03*
X0760425D02*
D03*
X0762394D02*
D03*
X0764362D02*
D03*
X0766331D02*
D03*
X0768299D02*
D03*
X0770268D02*
D03*
X0772236D02*
D03*
X0774205D02*
D03*
X0776173D02*
D03*
X0778142D02*
D03*
X0780110D02*
D03*
X0782079D02*
D03*
D49*
X0271634Y0068669D02*
D03*
Y0089063D02*
D03*
D50*
X0236144Y0120110D02*
D03*
X0256537D02*
D03*
M02*
