G04*
G04 #@! TF.GenerationSoftware,Altium Limited,Altium Designer,19.0.4 (130)*
G04*
G04 Layer_Physical_Order=2*
G04 Layer_Color=32768*
%FSAX25Y25*%
%MOIN*%
G70*
G01*
G75*
%ADD15C,0.01000*%
%ADD95C,0.03000*%
%ADD96C,0.04000*%
%ADD116C,0.00010*%
%ADD117C,0.07937*%
G04:AMPARAMS|DCode=118|XSize=99.37mil|YSize=99.37mil|CornerRadius=0mil|HoleSize=0mil|Usage=FLASHONLY|Rotation=0.000|XOffset=0mil|YOffset=0mil|HoleType=Round|Shape=Relief|Width=10mil|Gap=10mil|Entries=4|*
%AMTHD118*
7,0,0,0.09937,0.07937,0.01000,45*
%
%ADD118THD118*%
%ADD119C,0.07543*%
%ADD120C,0.12465*%
G04:AMPARAMS|DCode=121|XSize=95.433mil|YSize=95.433mil|CornerRadius=0mil|HoleSize=0mil|Usage=FLASHONLY|Rotation=0.000|XOffset=0mil|YOffset=0mil|HoleType=Round|Shape=Relief|Width=10mil|Gap=10mil|Entries=4|*
%AMTHD121*
7,0,0,0.09543,0.07543,0.01000,45*
%
%ADD121THD121*%
%ADD122C,0.08331*%
G04:AMPARAMS|DCode=123|XSize=103.307mil|YSize=103.307mil|CornerRadius=0mil|HoleSize=0mil|Usage=FLASHONLY|Rotation=0.000|XOffset=0mil|YOffset=0mil|HoleType=Round|Shape=Relief|Width=10mil|Gap=10mil|Entries=4|*
%AMTHD123*
7,0,0,0.10331,0.08331,0.01000,45*
%
%ADD123THD123*%
%ADD124C,0.06795*%
G04:AMPARAMS|DCode=125|XSize=87.953mil|YSize=87.953mil|CornerRadius=0mil|HoleSize=0mil|Usage=FLASHONLY|Rotation=0.000|XOffset=0mil|YOffset=0mil|HoleType=Round|Shape=Relief|Width=10mil|Gap=10mil|Entries=4|*
%AMTHD125*
7,0,0,0.08795,0.06795,0.01000,45*
%
%ADD125THD125*%
%ADD126C,0.06650*%
G04:AMPARAMS|DCode=127|XSize=86.5mil|YSize=86.5mil|CornerRadius=0mil|HoleSize=0mil|Usage=FLASHONLY|Rotation=0.000|XOffset=0mil|YOffset=0mil|HoleType=Round|Shape=Relief|Width=10mil|Gap=10mil|Entries=4|*
%AMTHD127*
7,0,0,0.08650,0.06650,0.01000,45*
%
%ADD127THD127*%
%ADD128C,0.16598*%
%ADD129C,0.06500*%
%ADD130C,0.05600*%
%ADD131C,0.06000*%
%ADD132C,0.05200*%
G36*
X0939000Y0268961D02*
X0291341D01*
Y0291000D01*
X0939000D01*
Y0268961D01*
D02*
G37*
G36*
X0142800Y0243917D02*
X0000005D01*
Y0291000D01*
X0142800D01*
Y0243917D01*
D02*
G37*
G36*
X1056000Y0186000D02*
X0948341D01*
Y0211000D01*
X1056000D01*
Y0186000D01*
D02*
G37*
G36*
X0280000Y0186000D02*
X0189000Y0186000D01*
X0189000Y0210000D01*
X0280000Y0210000D01*
X0280000Y0186000D01*
D02*
G37*
G36*
X0919396Y0190866D02*
X0920579Y0190376D01*
X0921644Y0189665D01*
X0922549Y0188760D01*
X0923260Y0187695D01*
X0923750Y0186512D01*
X0924000Y0185256D01*
Y0184616D01*
Y0183976D01*
X0923750Y0182720D01*
X0923260Y0181537D01*
X0922549Y0180473D01*
X0921644Y0179567D01*
X0920579Y0178856D01*
X0919396Y0178366D01*
X0918140Y0178116D01*
X0916860D01*
X0915604Y0178366D01*
X0914421Y0178856D01*
X0913356Y0179567D01*
X0912451Y0180473D01*
X0911740Y0181537D01*
X0911250Y0182720D01*
X0911000Y0183976D01*
Y0184616D01*
Y0185256D01*
X0911250Y0186512D01*
X0911740Y0187695D01*
X0912451Y0188760D01*
X0913356Y0189665D01*
X0914421Y0190376D01*
X0915604Y0190866D01*
X0916860Y0191116D01*
X0918140D01*
X0919396Y0190866D01*
D02*
G37*
G36*
X0894396D02*
X0895579Y0190376D01*
X0896644Y0189665D01*
X0897549Y0188760D01*
X0898260Y0187695D01*
X0898750Y0186512D01*
X0899000Y0185256D01*
Y0184616D01*
Y0183976D01*
X0898750Y0182720D01*
X0898260Y0181537D01*
X0897549Y0180473D01*
X0896644Y0179567D01*
X0895579Y0178856D01*
X0894396Y0178366D01*
X0893140Y0178116D01*
X0891860D01*
X0890604Y0178366D01*
X0889421Y0178856D01*
X0888356Y0179567D01*
X0887451Y0180473D01*
X0886740Y0181537D01*
X0886250Y0182720D01*
X0886000Y0183976D01*
Y0184616D01*
Y0185256D01*
X0886250Y0186512D01*
X0886740Y0187695D01*
X0887451Y0188760D01*
X0888356Y0189665D01*
X0889421Y0190376D01*
X0890604Y0190866D01*
X0891860Y0191116D01*
X0893140D01*
X0894396Y0190866D01*
D02*
G37*
G36*
X0869396D02*
X0870579Y0190376D01*
X0871644Y0189665D01*
X0872549Y0188760D01*
X0873260Y0187695D01*
X0873750Y0186512D01*
X0874000Y0185256D01*
Y0184616D01*
Y0183976D01*
X0873750Y0182720D01*
X0873260Y0181537D01*
X0872549Y0180473D01*
X0871644Y0179567D01*
X0870579Y0178856D01*
X0869396Y0178366D01*
X0868140Y0178116D01*
X0866860D01*
X0865604Y0178366D01*
X0864421Y0178856D01*
X0863356Y0179567D01*
X0862451Y0180473D01*
X0861740Y0181537D01*
X0861250Y0182720D01*
X0861000Y0183976D01*
Y0184616D01*
Y0185256D01*
X0861250Y0186512D01*
X0861740Y0187695D01*
X0862451Y0188760D01*
X0863356Y0189665D01*
X0864421Y0190376D01*
X0865604Y0190866D01*
X0866860Y0191116D01*
X0868140D01*
X0869396Y0190866D01*
D02*
G37*
G36*
X0844396D02*
X0845579Y0190376D01*
X0846644Y0189665D01*
X0847549Y0188760D01*
X0848260Y0187695D01*
X0848750Y0186512D01*
X0849000Y0185256D01*
Y0184616D01*
Y0183976D01*
X0848750Y0182720D01*
X0848260Y0181537D01*
X0847549Y0180473D01*
X0846644Y0179567D01*
X0845579Y0178856D01*
X0844396Y0178366D01*
X0843140Y0178116D01*
X0841860D01*
X0840604Y0178366D01*
X0839421Y0178856D01*
X0838356Y0179567D01*
X0837451Y0180473D01*
X0836740Y0181537D01*
X0836250Y0182720D01*
X0836000Y0183976D01*
Y0184616D01*
Y0185256D01*
X0836250Y0186512D01*
X0836740Y0187695D01*
X0837451Y0188760D01*
X0838356Y0189665D01*
X0839421Y0190376D01*
X0840604Y0190866D01*
X0841860Y0191116D01*
X0843140D01*
X0844396Y0190866D01*
D02*
G37*
G36*
X0819396D02*
X0820579Y0190376D01*
X0821644Y0189665D01*
X0822549Y0188760D01*
X0823260Y0187695D01*
X0823750Y0186512D01*
X0824000Y0185256D01*
Y0184616D01*
Y0183976D01*
X0823750Y0182720D01*
X0823260Y0181537D01*
X0822549Y0180473D01*
X0821644Y0179567D01*
X0820579Y0178856D01*
X0819396Y0178366D01*
X0818140Y0178116D01*
X0816860D01*
X0815604Y0178366D01*
X0814421Y0178856D01*
X0813356Y0179567D01*
X0812451Y0180473D01*
X0811740Y0181537D01*
X0811250Y0182720D01*
X0811000Y0183976D01*
Y0184616D01*
Y0185256D01*
X0811250Y0186512D01*
X0811740Y0187695D01*
X0812451Y0188760D01*
X0813356Y0189665D01*
X0814421Y0190376D01*
X0815604Y0190866D01*
X0816860Y0191116D01*
X0818140D01*
X0819396Y0190866D01*
D02*
G37*
G36*
X0794396D02*
X0795579Y0190376D01*
X0796643Y0189665D01*
X0797549Y0188760D01*
X0798260Y0187695D01*
X0798750Y0186512D01*
X0799000Y0185256D01*
Y0184616D01*
Y0183976D01*
X0798750Y0182720D01*
X0798260Y0181537D01*
X0797549Y0180473D01*
X0796643Y0179567D01*
X0795579Y0178856D01*
X0794396Y0178366D01*
X0793140Y0178116D01*
X0791860D01*
X0790604Y0178366D01*
X0789421Y0178856D01*
X0788356Y0179567D01*
X0787451Y0180473D01*
X0786740Y0181537D01*
X0786250Y0182720D01*
X0786000Y0183976D01*
Y0184616D01*
Y0185256D01*
X0786250Y0186512D01*
X0786740Y0187695D01*
X0787451Y0188760D01*
X0788356Y0189665D01*
X0789421Y0190376D01*
X0790604Y0190866D01*
X0791860Y0191116D01*
X0793140D01*
X0794396Y0190866D01*
D02*
G37*
G36*
X0769396D02*
X0770579Y0190376D01*
X0771643Y0189665D01*
X0772549Y0188760D01*
X0773260Y0187695D01*
X0773750Y0186512D01*
X0774000Y0185256D01*
Y0184616D01*
Y0183976D01*
X0773750Y0182720D01*
X0773260Y0181537D01*
X0772549Y0180473D01*
X0771643Y0179567D01*
X0770579Y0178856D01*
X0769396Y0178366D01*
X0768140Y0178116D01*
X0766860D01*
X0765604Y0178366D01*
X0764421Y0178856D01*
X0763356Y0179567D01*
X0762451Y0180473D01*
X0761740Y0181537D01*
X0761250Y0182720D01*
X0761000Y0183976D01*
Y0184616D01*
Y0185256D01*
X0761250Y0186512D01*
X0761740Y0187695D01*
X0762451Y0188760D01*
X0763356Y0189665D01*
X0764421Y0190376D01*
X0765604Y0190866D01*
X0766860Y0191116D01*
X0768140D01*
X0769396Y0190866D01*
D02*
G37*
G36*
X0744396D02*
X0745579Y0190376D01*
X0746643Y0189665D01*
X0747549Y0188760D01*
X0748260Y0187695D01*
X0748750Y0186512D01*
X0749000Y0185256D01*
Y0184616D01*
Y0183976D01*
X0748750Y0182720D01*
X0748260Y0181537D01*
X0747549Y0180473D01*
X0746643Y0179567D01*
X0745579Y0178856D01*
X0744396Y0178366D01*
X0743140Y0178116D01*
X0741860D01*
X0740604Y0178366D01*
X0739421Y0178856D01*
X0738356Y0179567D01*
X0737451Y0180473D01*
X0736740Y0181537D01*
X0736250Y0182720D01*
X0736000Y0183976D01*
Y0184616D01*
Y0185256D01*
X0736250Y0186512D01*
X0736740Y0187695D01*
X0737451Y0188760D01*
X0738356Y0189665D01*
X0739421Y0190376D01*
X0740604Y0190866D01*
X0741860Y0191116D01*
X0743140D01*
X0744396Y0190866D01*
D02*
G37*
G36*
X0719396D02*
X0720579Y0190376D01*
X0721643Y0189665D01*
X0722549Y0188760D01*
X0723260Y0187695D01*
X0723750Y0186512D01*
X0724000Y0185256D01*
Y0184616D01*
Y0183976D01*
X0723750Y0182720D01*
X0723260Y0181537D01*
X0722549Y0180473D01*
X0721643Y0179567D01*
X0720579Y0178856D01*
X0719396Y0178366D01*
X0718140Y0178116D01*
X0716860D01*
X0715604Y0178366D01*
X0714421Y0178856D01*
X0713356Y0179567D01*
X0712451Y0180473D01*
X0711740Y0181537D01*
X0711250Y0182720D01*
X0711000Y0183976D01*
Y0184616D01*
Y0185256D01*
X0711250Y0186512D01*
X0711740Y0187695D01*
X0712451Y0188760D01*
X0713356Y0189665D01*
X0714421Y0190376D01*
X0715604Y0190866D01*
X0716860Y0191116D01*
X0718140D01*
X0719396Y0190866D01*
D02*
G37*
G36*
X0694396D02*
X0695579Y0190376D01*
X0696643Y0189665D01*
X0697549Y0188760D01*
X0698260Y0187695D01*
X0698750Y0186512D01*
X0699000Y0185256D01*
Y0184616D01*
Y0183976D01*
X0698750Y0182720D01*
X0698260Y0181537D01*
X0697549Y0180473D01*
X0696643Y0179567D01*
X0695579Y0178856D01*
X0694396Y0178366D01*
X0693140Y0178116D01*
X0691860D01*
X0690604Y0178366D01*
X0689421Y0178856D01*
X0688356Y0179567D01*
X0687451Y0180473D01*
X0686740Y0181537D01*
X0686250Y0182720D01*
X0686000Y0183976D01*
Y0184616D01*
Y0185256D01*
X0686250Y0186512D01*
X0686740Y0187695D01*
X0687451Y0188760D01*
X0688356Y0189665D01*
X0689421Y0190376D01*
X0690604Y0190866D01*
X0691860Y0191116D01*
X0693140D01*
X0694396Y0190866D01*
D02*
G37*
G36*
X0669396D02*
X0670579Y0190376D01*
X0671643Y0189665D01*
X0672549Y0188760D01*
X0673260Y0187695D01*
X0673750Y0186512D01*
X0674000Y0185256D01*
Y0184616D01*
Y0183976D01*
X0673750Y0182720D01*
X0673260Y0181537D01*
X0672549Y0180473D01*
X0671643Y0179567D01*
X0670579Y0178856D01*
X0669396Y0178366D01*
X0668140Y0178116D01*
X0666860D01*
X0665604Y0178366D01*
X0664421Y0178856D01*
X0663356Y0179567D01*
X0662451Y0180473D01*
X0661740Y0181537D01*
X0661250Y0182720D01*
X0661000Y0183976D01*
Y0184616D01*
Y0185256D01*
X0661250Y0186512D01*
X0661740Y0187695D01*
X0662451Y0188760D01*
X0663356Y0189665D01*
X0664421Y0190376D01*
X0665604Y0190866D01*
X0666860Y0191116D01*
X0668140D01*
X0669396Y0190866D01*
D02*
G37*
G36*
X0644396D02*
X0645579Y0190376D01*
X0646643Y0189665D01*
X0647549Y0188760D01*
X0648260Y0187695D01*
X0648750Y0186512D01*
X0649000Y0185256D01*
Y0184616D01*
Y0183976D01*
X0648750Y0182720D01*
X0648260Y0181537D01*
X0647549Y0180473D01*
X0646643Y0179567D01*
X0645579Y0178856D01*
X0644396Y0178366D01*
X0643140Y0178116D01*
X0641860D01*
X0640604Y0178366D01*
X0639421Y0178856D01*
X0638356Y0179567D01*
X0637451Y0180473D01*
X0636740Y0181537D01*
X0636250Y0182720D01*
X0636000Y0183976D01*
Y0184616D01*
Y0185256D01*
X0636250Y0186512D01*
X0636740Y0187695D01*
X0637451Y0188760D01*
X0638356Y0189665D01*
X0639421Y0190376D01*
X0640604Y0190866D01*
X0641860Y0191116D01*
X0643140D01*
X0644396Y0190866D01*
D02*
G37*
G36*
X0619396D02*
X0620579Y0190376D01*
X0621643Y0189665D01*
X0622549Y0188760D01*
X0623260Y0187695D01*
X0623750Y0186512D01*
X0624000Y0185256D01*
Y0184616D01*
Y0183976D01*
X0623750Y0182720D01*
X0623260Y0181537D01*
X0622549Y0180473D01*
X0621643Y0179567D01*
X0620579Y0178856D01*
X0619396Y0178366D01*
X0618140Y0178116D01*
X0616860D01*
X0615604Y0178366D01*
X0614421Y0178856D01*
X0613356Y0179567D01*
X0612451Y0180473D01*
X0611740Y0181537D01*
X0611250Y0182720D01*
X0611000Y0183976D01*
Y0184616D01*
Y0185256D01*
X0611250Y0186512D01*
X0611740Y0187695D01*
X0612451Y0188760D01*
X0613356Y0189665D01*
X0614421Y0190376D01*
X0615604Y0190866D01*
X0616860Y0191116D01*
X0618140D01*
X0619396Y0190866D01*
D02*
G37*
G36*
X0344420Y0190640D02*
X0345602Y0190150D01*
X0346667Y0189439D01*
X0347572Y0188533D01*
X0348284Y0187469D01*
X0348774Y0186286D01*
X0349024Y0185030D01*
Y0184390D01*
Y0183749D01*
X0348774Y0182494D01*
X0348284Y0181311D01*
X0347572Y0180246D01*
X0346667Y0179341D01*
X0345602Y0178630D01*
X0344420Y0178139D01*
X0343164Y0177890D01*
X0341883D01*
X0340628Y0178139D01*
X0339445Y0178630D01*
X0338380Y0179341D01*
X0337475Y0180246D01*
X0336763Y0181311D01*
X0336273Y0182494D01*
X0336024Y0183749D01*
Y0184390D01*
Y0185030D01*
X0336273Y0186286D01*
X0336763Y0187469D01*
X0337475Y0188533D01*
X0338380Y0189439D01*
X0339445Y0190150D01*
X0340628Y0190640D01*
X0341883Y0190890D01*
X0343164D01*
X0344420Y0190640D01*
D02*
G37*
G36*
X0569396Y0190616D02*
X0570579Y0190126D01*
X0571643Y0189415D01*
X0572549Y0188510D01*
X0573260Y0187445D01*
X0573750Y0186262D01*
X0574000Y0185006D01*
Y0184366D01*
Y0183726D01*
X0573750Y0182470D01*
X0573260Y0181287D01*
X0572549Y0180223D01*
X0571643Y0179317D01*
X0570579Y0178606D01*
X0569396Y0178116D01*
X0568140Y0177866D01*
X0566860D01*
X0565604Y0178116D01*
X0564421Y0178606D01*
X0563356Y0179317D01*
X0562451Y0180223D01*
X0561740Y0181287D01*
X0561250Y0182470D01*
X0561000Y0183726D01*
Y0184366D01*
Y0185006D01*
X0561250Y0186262D01*
X0561740Y0187445D01*
X0562451Y0188510D01*
X0563356Y0189415D01*
X0564421Y0190126D01*
X0565604Y0190616D01*
X0566860Y0190866D01*
X0568140D01*
X0569396Y0190616D01*
D02*
G37*
G36*
X0544396D02*
X0545579Y0190126D01*
X0546643Y0189415D01*
X0547549Y0188510D01*
X0548260Y0187445D01*
X0548750Y0186262D01*
X0549000Y0185006D01*
Y0184366D01*
Y0183726D01*
X0548750Y0182470D01*
X0548260Y0181287D01*
X0547549Y0180223D01*
X0546643Y0179317D01*
X0545579Y0178606D01*
X0544396Y0178116D01*
X0543140Y0177866D01*
X0541860D01*
X0540604Y0178116D01*
X0539421Y0178606D01*
X0538356Y0179317D01*
X0537451Y0180223D01*
X0536740Y0181287D01*
X0536250Y0182470D01*
X0536000Y0183726D01*
Y0184366D01*
Y0185006D01*
X0536250Y0186262D01*
X0536740Y0187445D01*
X0537451Y0188510D01*
X0538356Y0189415D01*
X0539421Y0190126D01*
X0540604Y0190616D01*
X0541860Y0190866D01*
X0543140D01*
X0544396Y0190616D01*
D02*
G37*
G36*
X0519396D02*
X0520579Y0190126D01*
X0521643Y0189415D01*
X0522549Y0188510D01*
X0523260Y0187445D01*
X0523750Y0186262D01*
X0524000Y0185006D01*
Y0184366D01*
Y0183726D01*
X0523750Y0182470D01*
X0523260Y0181287D01*
X0522549Y0180223D01*
X0521643Y0179317D01*
X0520579Y0178606D01*
X0519396Y0178116D01*
X0518140Y0177866D01*
X0516860D01*
X0515604Y0178116D01*
X0514421Y0178606D01*
X0513356Y0179317D01*
X0512451Y0180223D01*
X0511740Y0181287D01*
X0511250Y0182470D01*
X0511000Y0183726D01*
Y0184366D01*
Y0185006D01*
X0511250Y0186262D01*
X0511740Y0187445D01*
X0512451Y0188510D01*
X0513356Y0189415D01*
X0514421Y0190126D01*
X0515604Y0190616D01*
X0516860Y0190866D01*
X0518140D01*
X0519396Y0190616D01*
D02*
G37*
G36*
X0494396D02*
X0495579Y0190126D01*
X0496643Y0189415D01*
X0497549Y0188510D01*
X0498260Y0187445D01*
X0498750Y0186262D01*
X0499000Y0185006D01*
Y0184366D01*
Y0183726D01*
X0498750Y0182470D01*
X0498260Y0181287D01*
X0497549Y0180223D01*
X0496643Y0179317D01*
X0495579Y0178606D01*
X0494396Y0178116D01*
X0493140Y0177866D01*
X0491860D01*
X0490604Y0178116D01*
X0489421Y0178606D01*
X0488356Y0179317D01*
X0487451Y0180223D01*
X0486740Y0181287D01*
X0486250Y0182470D01*
X0486000Y0183726D01*
Y0184366D01*
Y0185006D01*
X0486250Y0186262D01*
X0486740Y0187445D01*
X0487451Y0188510D01*
X0488356Y0189415D01*
X0489421Y0190126D01*
X0490604Y0190616D01*
X0491860Y0190866D01*
X0493140D01*
X0494396Y0190616D01*
D02*
G37*
G36*
X0469396D02*
X0470579Y0190126D01*
X0471643Y0189415D01*
X0472549Y0188510D01*
X0473260Y0187445D01*
X0473750Y0186262D01*
X0474000Y0185006D01*
Y0184366D01*
Y0183726D01*
X0473750Y0182470D01*
X0473260Y0181287D01*
X0472549Y0180223D01*
X0471643Y0179317D01*
X0470579Y0178606D01*
X0469396Y0178116D01*
X0468140Y0177866D01*
X0466860D01*
X0465604Y0178116D01*
X0464421Y0178606D01*
X0463356Y0179317D01*
X0462451Y0180223D01*
X0461740Y0181287D01*
X0461250Y0182470D01*
X0461000Y0183726D01*
Y0184366D01*
Y0185006D01*
X0461250Y0186262D01*
X0461740Y0187445D01*
X0462451Y0188510D01*
X0463356Y0189415D01*
X0464421Y0190126D01*
X0465604Y0190616D01*
X0466860Y0190866D01*
X0468140D01*
X0469396Y0190616D01*
D02*
G37*
G36*
X0444396D02*
X0445579Y0190126D01*
X0446643Y0189415D01*
X0447549Y0188510D01*
X0448260Y0187445D01*
X0448750Y0186262D01*
X0449000Y0185006D01*
Y0184366D01*
Y0183726D01*
X0448750Y0182470D01*
X0448260Y0181287D01*
X0447549Y0180223D01*
X0446643Y0179317D01*
X0445579Y0178606D01*
X0444396Y0178116D01*
X0443140Y0177866D01*
X0441860D01*
X0440604Y0178116D01*
X0439421Y0178606D01*
X0438356Y0179317D01*
X0437451Y0180223D01*
X0436740Y0181287D01*
X0436250Y0182470D01*
X0436000Y0183726D01*
Y0184366D01*
Y0185006D01*
X0436250Y0186262D01*
X0436740Y0187445D01*
X0437451Y0188510D01*
X0438356Y0189415D01*
X0439421Y0190126D01*
X0440604Y0190616D01*
X0441860Y0190866D01*
X0443140D01*
X0444396Y0190616D01*
D02*
G37*
G36*
X0419396D02*
X0420579Y0190126D01*
X0421643Y0189415D01*
X0422549Y0188510D01*
X0423260Y0187445D01*
X0423750Y0186262D01*
X0424000Y0185006D01*
Y0184366D01*
Y0183726D01*
X0423750Y0182470D01*
X0423260Y0181287D01*
X0422549Y0180223D01*
X0421643Y0179317D01*
X0420579Y0178606D01*
X0419396Y0178116D01*
X0418140Y0177866D01*
X0416860D01*
X0415604Y0178116D01*
X0414421Y0178606D01*
X0413356Y0179317D01*
X0412451Y0180223D01*
X0411740Y0181287D01*
X0411250Y0182470D01*
X0411000Y0183726D01*
Y0184366D01*
Y0185006D01*
X0411250Y0186262D01*
X0411740Y0187445D01*
X0412451Y0188510D01*
X0413356Y0189415D01*
X0414421Y0190126D01*
X0415604Y0190616D01*
X0416860Y0190866D01*
X0418140D01*
X0419396Y0190616D01*
D02*
G37*
G36*
X0394396D02*
X0395579Y0190126D01*
X0396643Y0189415D01*
X0397549Y0188510D01*
X0398260Y0187445D01*
X0398750Y0186262D01*
X0399000Y0185006D01*
Y0184366D01*
Y0183726D01*
X0398750Y0182470D01*
X0398260Y0181287D01*
X0397549Y0180223D01*
X0396643Y0179317D01*
X0395579Y0178606D01*
X0394396Y0178116D01*
X0393140Y0177866D01*
X0391860D01*
X0390604Y0178116D01*
X0389421Y0178606D01*
X0388356Y0179317D01*
X0387451Y0180223D01*
X0386740Y0181287D01*
X0386250Y0182470D01*
X0386000Y0183726D01*
Y0184366D01*
Y0185006D01*
X0386250Y0186262D01*
X0386740Y0187445D01*
X0387451Y0188510D01*
X0388356Y0189415D01*
X0389421Y0190126D01*
X0390604Y0190616D01*
X0391860Y0190866D01*
X0393140D01*
X0394396Y0190616D01*
D02*
G37*
G36*
X0369396D02*
X0370579Y0190126D01*
X0371643Y0189415D01*
X0372549Y0188510D01*
X0373260Y0187445D01*
X0373750Y0186262D01*
X0374000Y0185006D01*
Y0184366D01*
Y0183726D01*
X0373750Y0182470D01*
X0373260Y0181287D01*
X0372549Y0180223D01*
X0371643Y0179317D01*
X0370579Y0178606D01*
X0369396Y0178116D01*
X0368140Y0177866D01*
X0366860D01*
X0365604Y0178116D01*
X0364421Y0178606D01*
X0363356Y0179317D01*
X0362451Y0180223D01*
X0361740Y0181287D01*
X0361250Y0182470D01*
X0361000Y0183726D01*
Y0184366D01*
Y0185006D01*
X0361250Y0186262D01*
X0361740Y0187445D01*
X0362451Y0188510D01*
X0363356Y0189415D01*
X0364421Y0190126D01*
X0365604Y0190616D01*
X0366860Y0190866D01*
X0368140D01*
X0369396Y0190616D01*
D02*
G37*
G36*
X0319396D02*
X0320579Y0190126D01*
X0321643Y0189415D01*
X0322549Y0188510D01*
X0323260Y0187445D01*
X0323750Y0186262D01*
X0324000Y0185006D01*
Y0184366D01*
Y0183726D01*
X0323750Y0182470D01*
X0323260Y0181287D01*
X0322549Y0180223D01*
X0321643Y0179317D01*
X0320579Y0178606D01*
X0319396Y0178116D01*
X0318140Y0177866D01*
X0316860D01*
X0315604Y0178116D01*
X0314421Y0178606D01*
X0313356Y0179317D01*
X0312451Y0180223D01*
X0311740Y0181287D01*
X0311250Y0182470D01*
X0311000Y0183726D01*
Y0184366D01*
Y0185006D01*
X0311250Y0186262D01*
X0311740Y0187445D01*
X0312451Y0188510D01*
X0313356Y0189415D01*
X0314421Y0190126D01*
X0315604Y0190616D01*
X0316860Y0190866D01*
X0318140D01*
X0319396Y0190616D01*
D02*
G37*
G36*
X0592896Y0190250D02*
X0594079Y0189760D01*
X0595144Y0189049D01*
X0596049Y0188144D01*
X0596760Y0187079D01*
X0597250Y0185896D01*
X0597500Y0184640D01*
Y0184000D01*
Y0183360D01*
X0597250Y0182104D01*
X0596760Y0180921D01*
X0596049Y0179857D01*
X0595144Y0178951D01*
X0594079Y0178240D01*
X0592896Y0177750D01*
X0591640Y0177500D01*
X0590360D01*
X0589104Y0177750D01*
X0587921Y0178240D01*
X0586857Y0178951D01*
X0585951Y0179857D01*
X0585240Y0180921D01*
X0584750Y0182104D01*
X0584500Y0183360D01*
Y0184000D01*
Y0184640D01*
X0584750Y0185896D01*
X0585240Y0187079D01*
X0585951Y0188144D01*
X0586857Y0189049D01*
X0587921Y0189760D01*
X0589104Y0190250D01*
X0590360Y0190500D01*
X0591640D01*
X0592896Y0190250D01*
D02*
G37*
G36*
X0889987Y0163760D02*
X0891169Y0163270D01*
X0892234Y0162559D01*
X0893139Y0161653D01*
X0893851Y0160589D01*
X0894341Y0159406D01*
X0894591Y0158150D01*
Y0157510D01*
Y0156870D01*
X0894341Y0155614D01*
X0893851Y0154431D01*
X0893139Y0153366D01*
X0892234Y0152461D01*
X0891169Y0151750D01*
X0889987Y0151260D01*
X0888731Y0151010D01*
X0887450D01*
X0886195Y0151260D01*
X0885012Y0151750D01*
X0883947Y0152461D01*
X0883042Y0153366D01*
X0882330Y0154431D01*
X0881840Y0155614D01*
X0881591Y0156870D01*
Y0157510D01*
Y0158150D01*
X0881840Y0159406D01*
X0882330Y0160589D01*
X0883042Y0161653D01*
X0883947Y0162559D01*
X0885012Y0163270D01*
X0886195Y0163760D01*
X0887450Y0164010D01*
X0888731D01*
X0889987Y0163760D01*
D02*
G37*
G36*
X0864987D02*
X0866169Y0163270D01*
X0867234Y0162559D01*
X0868139Y0161653D01*
X0868851Y0160589D01*
X0869341Y0159406D01*
X0869591Y0158150D01*
Y0157510D01*
Y0156870D01*
X0869341Y0155614D01*
X0868851Y0154431D01*
X0868139Y0153366D01*
X0867234Y0152461D01*
X0866169Y0151750D01*
X0864987Y0151260D01*
X0863731Y0151010D01*
X0862450D01*
X0861195Y0151260D01*
X0860012Y0151750D01*
X0858947Y0152461D01*
X0858042Y0153366D01*
X0857330Y0154431D01*
X0856840Y0155614D01*
X0856591Y0156870D01*
Y0157510D01*
Y0158150D01*
X0856840Y0159406D01*
X0857330Y0160589D01*
X0858042Y0161653D01*
X0858947Y0162559D01*
X0860012Y0163270D01*
X0861195Y0163760D01*
X0862450Y0164010D01*
X0863731D01*
X0864987Y0163760D01*
D02*
G37*
G36*
X0839987D02*
X0841169Y0163270D01*
X0842234Y0162559D01*
X0843139Y0161653D01*
X0843851Y0160589D01*
X0844341Y0159406D01*
X0844591Y0158150D01*
Y0157510D01*
Y0156870D01*
X0844341Y0155614D01*
X0843851Y0154431D01*
X0843139Y0153366D01*
X0842234Y0152461D01*
X0841169Y0151750D01*
X0839987Y0151260D01*
X0838731Y0151010D01*
X0837450D01*
X0836195Y0151260D01*
X0835012Y0151750D01*
X0833947Y0152461D01*
X0833042Y0153366D01*
X0832330Y0154431D01*
X0831840Y0155614D01*
X0831591Y0156870D01*
Y0157510D01*
Y0158150D01*
X0831840Y0159406D01*
X0832330Y0160589D01*
X0833042Y0161653D01*
X0833947Y0162559D01*
X0835012Y0163270D01*
X0836195Y0163760D01*
X0837450Y0164010D01*
X0838731D01*
X0839987Y0163760D01*
D02*
G37*
G36*
X0814987D02*
X0816169Y0163270D01*
X0817234Y0162559D01*
X0818139Y0161653D01*
X0818851Y0160589D01*
X0819341Y0159406D01*
X0819591Y0158150D01*
Y0157510D01*
Y0156870D01*
X0819341Y0155614D01*
X0818851Y0154431D01*
X0818139Y0153366D01*
X0817234Y0152461D01*
X0816169Y0151750D01*
X0814987Y0151260D01*
X0813731Y0151010D01*
X0812450D01*
X0811195Y0151260D01*
X0810012Y0151750D01*
X0808947Y0152461D01*
X0808042Y0153366D01*
X0807330Y0154431D01*
X0806840Y0155614D01*
X0806590Y0156870D01*
Y0157510D01*
Y0158150D01*
X0806840Y0159406D01*
X0807330Y0160589D01*
X0808042Y0161653D01*
X0808947Y0162559D01*
X0810012Y0163270D01*
X0811195Y0163760D01*
X0812450Y0164010D01*
X0813731D01*
X0814987Y0163760D01*
D02*
G37*
G36*
X0789987D02*
X0791169Y0163270D01*
X0792234Y0162559D01*
X0793139Y0161653D01*
X0793851Y0160589D01*
X0794341Y0159406D01*
X0794591Y0158150D01*
Y0157510D01*
Y0156870D01*
X0794341Y0155614D01*
X0793851Y0154431D01*
X0793139Y0153366D01*
X0792234Y0152461D01*
X0791169Y0151750D01*
X0789987Y0151260D01*
X0788731Y0151010D01*
X0787450D01*
X0786195Y0151260D01*
X0785012Y0151750D01*
X0783947Y0152461D01*
X0783042Y0153366D01*
X0782330Y0154431D01*
X0781840Y0155614D01*
X0781591Y0156870D01*
Y0157510D01*
Y0158150D01*
X0781840Y0159406D01*
X0782330Y0160589D01*
X0783042Y0161653D01*
X0783947Y0162559D01*
X0785012Y0163270D01*
X0786195Y0163760D01*
X0787450Y0164010D01*
X0788731D01*
X0789987Y0163760D01*
D02*
G37*
G36*
X0739987D02*
X0741169Y0163270D01*
X0742234Y0162559D01*
X0743139Y0161653D01*
X0743851Y0160589D01*
X0744341Y0159406D01*
X0744591Y0158150D01*
Y0157510D01*
Y0156870D01*
X0744341Y0155614D01*
X0743851Y0154431D01*
X0743139Y0153366D01*
X0742234Y0152461D01*
X0741169Y0151750D01*
X0739987Y0151260D01*
X0738731Y0151010D01*
X0737450D01*
X0736195Y0151260D01*
X0735012Y0151750D01*
X0733947Y0152461D01*
X0733042Y0153366D01*
X0732330Y0154431D01*
X0731840Y0155614D01*
X0731591Y0156870D01*
Y0157510D01*
Y0158150D01*
X0731840Y0159406D01*
X0732330Y0160589D01*
X0733042Y0161653D01*
X0733947Y0162559D01*
X0735012Y0163270D01*
X0736195Y0163760D01*
X0737450Y0164010D01*
X0738731D01*
X0739987Y0163760D01*
D02*
G37*
G36*
X0715987D02*
X0717170Y0163270D01*
X0718234Y0162559D01*
X0719139Y0161653D01*
X0719851Y0160589D01*
X0720341Y0159406D01*
X0720591Y0158150D01*
Y0157510D01*
Y0156870D01*
X0720341Y0155614D01*
X0719851Y0154431D01*
X0719139Y0153366D01*
X0718234Y0152461D01*
X0717170Y0151750D01*
X0715987Y0151260D01*
X0714731Y0151010D01*
X0713450D01*
X0712195Y0151260D01*
X0711012Y0151750D01*
X0709947Y0152461D01*
X0709042Y0153366D01*
X0708330Y0154431D01*
X0707840Y0155614D01*
X0707591Y0156870D01*
Y0157510D01*
Y0158150D01*
X0707840Y0159406D01*
X0708330Y0160589D01*
X0709042Y0161653D01*
X0709947Y0162559D01*
X0711012Y0163270D01*
X0712195Y0163760D01*
X0713450Y0164010D01*
X0714731D01*
X0715987Y0163760D01*
D02*
G37*
G36*
X0689987D02*
X0691169Y0163270D01*
X0692234Y0162559D01*
X0693139Y0161653D01*
X0693851Y0160589D01*
X0694341Y0159406D01*
X0694591Y0158150D01*
Y0157510D01*
Y0156870D01*
X0694341Y0155614D01*
X0693851Y0154431D01*
X0693139Y0153366D01*
X0692234Y0152461D01*
X0691169Y0151750D01*
X0689987Y0151260D01*
X0688731Y0151010D01*
X0687450D01*
X0686195Y0151260D01*
X0685012Y0151750D01*
X0683947Y0152461D01*
X0683042Y0153366D01*
X0682330Y0154431D01*
X0681840Y0155614D01*
X0681591Y0156870D01*
Y0157510D01*
Y0158150D01*
X0681840Y0159406D01*
X0682330Y0160589D01*
X0683042Y0161653D01*
X0683947Y0162559D01*
X0685012Y0163270D01*
X0686195Y0163760D01*
X0687450Y0164010D01*
X0688731D01*
X0689987Y0163760D01*
D02*
G37*
G36*
X0664987D02*
X0666169Y0163270D01*
X0667234Y0162559D01*
X0668139Y0161653D01*
X0668851Y0160589D01*
X0669341Y0159406D01*
X0669591Y0158150D01*
Y0157510D01*
Y0156870D01*
X0669341Y0155614D01*
X0668851Y0154431D01*
X0668139Y0153366D01*
X0667234Y0152461D01*
X0666169Y0151750D01*
X0664987Y0151260D01*
X0663731Y0151010D01*
X0662450D01*
X0661195Y0151260D01*
X0660012Y0151750D01*
X0658947Y0152461D01*
X0658042Y0153366D01*
X0657330Y0154431D01*
X0656840Y0155614D01*
X0656591Y0156870D01*
Y0157510D01*
Y0158150D01*
X0656840Y0159406D01*
X0657330Y0160589D01*
X0658042Y0161653D01*
X0658947Y0162559D01*
X0660012Y0163270D01*
X0661195Y0163760D01*
X0662450Y0164010D01*
X0663731D01*
X0664987Y0163760D01*
D02*
G37*
G36*
X0639987D02*
X0641169Y0163270D01*
X0642234Y0162559D01*
X0643139Y0161653D01*
X0643851Y0160589D01*
X0644341Y0159406D01*
X0644591Y0158150D01*
Y0157510D01*
Y0156870D01*
X0644341Y0155614D01*
X0643851Y0154431D01*
X0643139Y0153366D01*
X0642234Y0152461D01*
X0641169Y0151750D01*
X0639987Y0151260D01*
X0638731Y0151010D01*
X0637450D01*
X0636195Y0151260D01*
X0635012Y0151750D01*
X0633947Y0152461D01*
X0633042Y0153366D01*
X0632330Y0154431D01*
X0631840Y0155614D01*
X0631591Y0156870D01*
Y0157510D01*
Y0158150D01*
X0631840Y0159406D01*
X0632330Y0160589D01*
X0633042Y0161653D01*
X0633947Y0162559D01*
X0635012Y0163270D01*
X0636195Y0163760D01*
X0637450Y0164010D01*
X0638731D01*
X0639987Y0163760D01*
D02*
G37*
G36*
X0614987D02*
X0616169Y0163270D01*
X0617234Y0162559D01*
X0618139Y0161653D01*
X0618851Y0160589D01*
X0619341Y0159406D01*
X0619591Y0158150D01*
Y0157510D01*
Y0156870D01*
X0619341Y0155614D01*
X0618851Y0154431D01*
X0618139Y0153366D01*
X0617234Y0152461D01*
X0616169Y0151750D01*
X0614987Y0151260D01*
X0613731Y0151010D01*
X0612450D01*
X0611195Y0151260D01*
X0610012Y0151750D01*
X0608947Y0152461D01*
X0608042Y0153366D01*
X0607330Y0154431D01*
X0606840Y0155614D01*
X0606591Y0156870D01*
Y0157510D01*
Y0158150D01*
X0606840Y0159406D01*
X0607330Y0160589D01*
X0608042Y0161653D01*
X0608947Y0162559D01*
X0610012Y0163270D01*
X0611195Y0163760D01*
X0612450Y0164010D01*
X0613731D01*
X0614987Y0163760D01*
D02*
G37*
G36*
X0764396Y0163616D02*
X0765579Y0163126D01*
X0766643Y0162415D01*
X0767549Y0161510D01*
X0768260Y0160445D01*
X0768750Y0159262D01*
X0769000Y0158006D01*
Y0157366D01*
Y0156726D01*
X0768750Y0155470D01*
X0768260Y0154287D01*
X0767549Y0153223D01*
X0766643Y0152317D01*
X0765579Y0151606D01*
X0764396Y0151116D01*
X0763140Y0150866D01*
X0761860D01*
X0760604Y0151116D01*
X0759421Y0151606D01*
X0758357Y0152317D01*
X0757451Y0153223D01*
X0756740Y0154287D01*
X0756250Y0155470D01*
X0756000Y0156726D01*
Y0157366D01*
Y0158006D01*
X0756250Y0159262D01*
X0756740Y0160445D01*
X0757451Y0161510D01*
X0758357Y0162415D01*
X0759421Y0163126D01*
X0760604Y0163616D01*
X0761860Y0163866D01*
X0763140D01*
X0764396Y0163616D01*
D02*
G37*
G36*
X0539896D02*
X0541079Y0163126D01*
X0542143Y0162415D01*
X0543049Y0161510D01*
X0543760Y0160445D01*
X0544250Y0159262D01*
X0544500Y0158006D01*
Y0157366D01*
Y0156726D01*
X0544250Y0155470D01*
X0543760Y0154287D01*
X0543049Y0153223D01*
X0542143Y0152317D01*
X0541079Y0151606D01*
X0539896Y0151116D01*
X0538640Y0150866D01*
X0537360D01*
X0536104Y0151116D01*
X0534921Y0151606D01*
X0533856Y0152317D01*
X0532951Y0153223D01*
X0532240Y0154287D01*
X0531750Y0155470D01*
X0531500Y0156726D01*
Y0157366D01*
Y0158006D01*
X0531750Y0159262D01*
X0532240Y0160445D01*
X0532951Y0161510D01*
X0533856Y0162415D01*
X0534921Y0163126D01*
X0536104Y0163616D01*
X0537360Y0163866D01*
X0538640D01*
X0539896Y0163616D01*
D02*
G37*
G36*
X0340010Y0163534D02*
X0341193Y0163044D01*
X0342258Y0162332D01*
X0343163Y0161427D01*
X0343874Y0160362D01*
X0344364Y0159179D01*
X0344614Y0157924D01*
Y0157283D01*
Y0156643D01*
X0344364Y0155387D01*
X0343874Y0154204D01*
X0343163Y0153140D01*
X0342258Y0152235D01*
X0341193Y0151523D01*
X0340010Y0151033D01*
X0338754Y0150783D01*
X0337474D01*
X0336218Y0151033D01*
X0335035Y0151523D01*
X0333971Y0152235D01*
X0333065Y0153140D01*
X0332354Y0154204D01*
X0331864Y0155387D01*
X0331614Y0156643D01*
Y0157283D01*
Y0157924D01*
X0331864Y0159179D01*
X0332354Y0160362D01*
X0333065Y0161427D01*
X0333971Y0162332D01*
X0335035Y0163044D01*
X0336218Y0163534D01*
X0337474Y0163783D01*
X0338754D01*
X0340010Y0163534D01*
D02*
G37*
G36*
X0589987Y0163510D02*
X0591169Y0163020D01*
X0592234Y0162309D01*
X0593139Y0161403D01*
X0593851Y0160339D01*
X0594341Y0159156D01*
X0594591Y0157900D01*
Y0157260D01*
Y0156620D01*
X0594341Y0155364D01*
X0593851Y0154181D01*
X0593139Y0153116D01*
X0592234Y0152211D01*
X0591169Y0151500D01*
X0589987Y0151010D01*
X0588731Y0150760D01*
X0587450D01*
X0586195Y0151010D01*
X0585012Y0151500D01*
X0583947Y0152211D01*
X0583042Y0153116D01*
X0582330Y0154181D01*
X0581840Y0155364D01*
X0581591Y0156620D01*
Y0157260D01*
Y0157900D01*
X0581840Y0159156D01*
X0582330Y0160339D01*
X0583042Y0161403D01*
X0583947Y0162309D01*
X0585012Y0163020D01*
X0586195Y0163510D01*
X0587450Y0163760D01*
X0588731D01*
X0589987Y0163510D01*
D02*
G37*
G36*
X0564987D02*
X0566169Y0163020D01*
X0567234Y0162309D01*
X0568139Y0161403D01*
X0568851Y0160339D01*
X0569341Y0159156D01*
X0569591Y0157900D01*
Y0157260D01*
Y0156620D01*
X0569341Y0155364D01*
X0568851Y0154181D01*
X0568139Y0153116D01*
X0567234Y0152211D01*
X0566169Y0151500D01*
X0564987Y0151010D01*
X0563731Y0150760D01*
X0562450D01*
X0561195Y0151010D01*
X0560012Y0151500D01*
X0558947Y0152211D01*
X0558042Y0153116D01*
X0557330Y0154181D01*
X0556840Y0155364D01*
X0556591Y0156620D01*
Y0157260D01*
Y0157900D01*
X0556840Y0159156D01*
X0557330Y0160339D01*
X0558042Y0161403D01*
X0558947Y0162309D01*
X0560012Y0163020D01*
X0561195Y0163510D01*
X0562450Y0163760D01*
X0563731D01*
X0564987Y0163510D01*
D02*
G37*
G36*
X0514987D02*
X0516169Y0163020D01*
X0517234Y0162309D01*
X0518139Y0161403D01*
X0518851Y0160339D01*
X0519341Y0159156D01*
X0519591Y0157900D01*
Y0157260D01*
Y0156620D01*
X0519341Y0155364D01*
X0518851Y0154181D01*
X0518139Y0153116D01*
X0517234Y0152211D01*
X0516169Y0151500D01*
X0514987Y0151010D01*
X0513731Y0150760D01*
X0512450D01*
X0511195Y0151010D01*
X0510012Y0151500D01*
X0508947Y0152211D01*
X0508042Y0153116D01*
X0507330Y0154181D01*
X0506840Y0155364D01*
X0506591Y0156620D01*
Y0157260D01*
Y0157900D01*
X0506840Y0159156D01*
X0507330Y0160339D01*
X0508042Y0161403D01*
X0508947Y0162309D01*
X0510012Y0163020D01*
X0511195Y0163510D01*
X0512450Y0163760D01*
X0513731D01*
X0514987Y0163510D01*
D02*
G37*
G36*
X0489987D02*
X0491169Y0163020D01*
X0492234Y0162309D01*
X0493139Y0161403D01*
X0493851Y0160339D01*
X0494341Y0159156D01*
X0494591Y0157900D01*
Y0157260D01*
Y0156620D01*
X0494341Y0155364D01*
X0493851Y0154181D01*
X0493139Y0153116D01*
X0492234Y0152211D01*
X0491169Y0151500D01*
X0489987Y0151010D01*
X0488731Y0150760D01*
X0487450D01*
X0486195Y0151010D01*
X0485012Y0151500D01*
X0483947Y0152211D01*
X0483042Y0153116D01*
X0482330Y0154181D01*
X0481840Y0155364D01*
X0481591Y0156620D01*
Y0157260D01*
Y0157900D01*
X0481840Y0159156D01*
X0482330Y0160339D01*
X0483042Y0161403D01*
X0483947Y0162309D01*
X0485012Y0163020D01*
X0486195Y0163510D01*
X0487450Y0163760D01*
X0488731D01*
X0489987Y0163510D01*
D02*
G37*
G36*
X0464987D02*
X0466169Y0163020D01*
X0467234Y0162309D01*
X0468139Y0161403D01*
X0468851Y0160339D01*
X0469341Y0159156D01*
X0469591Y0157900D01*
Y0157260D01*
Y0156620D01*
X0469341Y0155364D01*
X0468851Y0154181D01*
X0468139Y0153116D01*
X0467234Y0152211D01*
X0466169Y0151500D01*
X0464987Y0151010D01*
X0463731Y0150760D01*
X0462450D01*
X0461195Y0151010D01*
X0460012Y0151500D01*
X0458947Y0152211D01*
X0458042Y0153116D01*
X0457330Y0154181D01*
X0456840Y0155364D01*
X0456591Y0156620D01*
Y0157260D01*
Y0157900D01*
X0456840Y0159156D01*
X0457330Y0160339D01*
X0458042Y0161403D01*
X0458947Y0162309D01*
X0460012Y0163020D01*
X0461195Y0163510D01*
X0462450Y0163760D01*
X0463731D01*
X0464987Y0163510D01*
D02*
G37*
G36*
X0439987D02*
X0441169Y0163020D01*
X0442234Y0162309D01*
X0443139Y0161403D01*
X0443851Y0160339D01*
X0444341Y0159156D01*
X0444591Y0157900D01*
Y0157260D01*
Y0156620D01*
X0444341Y0155364D01*
X0443851Y0154181D01*
X0443139Y0153116D01*
X0442234Y0152211D01*
X0441169Y0151500D01*
X0439987Y0151010D01*
X0438731Y0150760D01*
X0437450D01*
X0436195Y0151010D01*
X0435012Y0151500D01*
X0433947Y0152211D01*
X0433042Y0153116D01*
X0432330Y0154181D01*
X0431840Y0155364D01*
X0431591Y0156620D01*
Y0157260D01*
Y0157900D01*
X0431840Y0159156D01*
X0432330Y0160339D01*
X0433042Y0161403D01*
X0433947Y0162309D01*
X0435012Y0163020D01*
X0436195Y0163510D01*
X0437450Y0163760D01*
X0438731D01*
X0439987Y0163510D01*
D02*
G37*
G36*
X0414987D02*
X0416169Y0163020D01*
X0417234Y0162309D01*
X0418139Y0161403D01*
X0418851Y0160339D01*
X0419341Y0159156D01*
X0419591Y0157900D01*
Y0157260D01*
Y0156620D01*
X0419341Y0155364D01*
X0418851Y0154181D01*
X0418139Y0153116D01*
X0417234Y0152211D01*
X0416169Y0151500D01*
X0414987Y0151010D01*
X0413731Y0150760D01*
X0412450D01*
X0411195Y0151010D01*
X0410012Y0151500D01*
X0408947Y0152211D01*
X0408042Y0153116D01*
X0407330Y0154181D01*
X0406840Y0155364D01*
X0406591Y0156620D01*
Y0157260D01*
Y0157900D01*
X0406840Y0159156D01*
X0407330Y0160339D01*
X0408042Y0161403D01*
X0408947Y0162309D01*
X0410012Y0163020D01*
X0411195Y0163510D01*
X0412450Y0163760D01*
X0413731D01*
X0414987Y0163510D01*
D02*
G37*
G36*
X0389986D02*
X0391170Y0163020D01*
X0392234Y0162309D01*
X0393139Y0161403D01*
X0393851Y0160339D01*
X0394341Y0159156D01*
X0394590Y0157900D01*
Y0157260D01*
Y0156620D01*
X0394341Y0155364D01*
X0393851Y0154181D01*
X0393139Y0153116D01*
X0392234Y0152211D01*
X0391170Y0151500D01*
X0389986Y0151010D01*
X0388731Y0150760D01*
X0387450D01*
X0386195Y0151010D01*
X0385012Y0151500D01*
X0383947Y0152211D01*
X0383042Y0153116D01*
X0382330Y0154181D01*
X0381840Y0155364D01*
X0381591Y0156620D01*
Y0157260D01*
Y0157900D01*
X0381840Y0159156D01*
X0382330Y0160339D01*
X0383042Y0161403D01*
X0383947Y0162309D01*
X0385012Y0163020D01*
X0386195Y0163510D01*
X0387450Y0163760D01*
X0388731D01*
X0389986Y0163510D01*
D02*
G37*
G36*
X0364986D02*
X0366170Y0163020D01*
X0367234Y0162309D01*
X0368139Y0161403D01*
X0368851Y0160339D01*
X0369341Y0159156D01*
X0369590Y0157900D01*
Y0157260D01*
Y0156620D01*
X0369341Y0155364D01*
X0368851Y0154181D01*
X0368139Y0153116D01*
X0367234Y0152211D01*
X0366170Y0151500D01*
X0364986Y0151010D01*
X0363731Y0150760D01*
X0362450D01*
X0361195Y0151010D01*
X0360012Y0151500D01*
X0358947Y0152211D01*
X0358042Y0153116D01*
X0357330Y0154181D01*
X0356840Y0155364D01*
X0356591Y0156620D01*
Y0157260D01*
Y0157900D01*
X0356840Y0159156D01*
X0357330Y0160339D01*
X0358042Y0161403D01*
X0358947Y0162309D01*
X0360012Y0163020D01*
X0361195Y0163510D01*
X0362450Y0163760D01*
X0363731D01*
X0364986Y0163510D01*
D02*
G37*
G36*
X0314986D02*
X0316170Y0163020D01*
X0317234Y0162309D01*
X0318139Y0161403D01*
X0318851Y0160339D01*
X0319341Y0159156D01*
X0319590Y0157900D01*
Y0157260D01*
Y0156620D01*
X0319341Y0155364D01*
X0318851Y0154181D01*
X0318139Y0153116D01*
X0317234Y0152211D01*
X0316170Y0151500D01*
X0314986Y0151010D01*
X0313731Y0150760D01*
X0312450D01*
X0311195Y0151010D01*
X0310012Y0151500D01*
X0308947Y0152211D01*
X0308042Y0153116D01*
X0307330Y0154181D01*
X0306840Y0155364D01*
X0306591Y0156620D01*
Y0157260D01*
Y0157900D01*
X0306840Y0159156D01*
X0307330Y0160339D01*
X0308042Y0161403D01*
X0308947Y0162309D01*
X0310012Y0163020D01*
X0311195Y0163510D01*
X0312450Y0163760D01*
X0313731D01*
X0314986Y0163510D01*
D02*
G37*
G36*
X0922721Y0129670D02*
X0923795Y0129225D01*
X0924761Y0128580D01*
X0925583Y0127758D01*
X0926229Y0126792D01*
X0926673Y0125718D01*
X0926900Y0124578D01*
X0926900Y0123997D01*
X0926900Y0123997D01*
Y0115100D01*
X0902100D01*
Y0116982D01*
X0898600D01*
X0898600Y0123997D01*
Y0124578D01*
X0898827Y0125718D01*
X0899271Y0126792D01*
X0899917Y0127758D01*
X0900739Y0128580D01*
X0901705Y0129225D01*
X0902779Y0129670D01*
X0903919Y0129897D01*
X0904500Y0129897D01*
X0904500Y0129897D01*
X0917500Y0129897D01*
X0918081Y0129897D01*
X0918081Y0129897D01*
X0921000D01*
X0921581Y0129897D01*
X0922721Y0129670D01*
D02*
G37*
G36*
X0878000Y0135300D02*
X0878000Y0135300D01*
X0882000Y0135300D01*
X0882581Y0135300D01*
X0883721Y0135073D01*
X0884795Y0134628D01*
X0885761Y0133983D01*
X0886583Y0133161D01*
X0887228Y0132195D01*
X0887673Y0131121D01*
X0887900Y0129981D01*
X0887900Y0129400D01*
X0887900Y0129400D01*
Y0123000D01*
X0872096D01*
Y0129400D01*
X0872096Y0129981D01*
X0872324Y0131121D01*
X0872769Y0132195D01*
X0873415Y0133162D01*
X0874237Y0133984D01*
X0875204Y0134629D01*
X0876278Y0135074D01*
X0877419Y0135300D01*
X0878000Y0135300D01*
D02*
G37*
G36*
X0853000Y0135300D02*
X0853000Y0135300D01*
X0857000Y0135300D01*
X0857581Y0135300D01*
X0858721Y0135073D01*
X0859795Y0134628D01*
X0860761Y0133983D01*
X0861583Y0133161D01*
X0862228Y0132195D01*
X0862673Y0131121D01*
X0862900Y0129981D01*
X0862900Y0129400D01*
X0862900Y0129400D01*
Y0123000D01*
X0847096D01*
Y0129400D01*
X0847096Y0129981D01*
X0847324Y0131121D01*
X0847769Y0132195D01*
X0848415Y0133162D01*
X0849237Y0133984D01*
X0850204Y0134629D01*
X0851278Y0135074D01*
X0852419Y0135300D01*
X0853000Y0135300D01*
D02*
G37*
G36*
X0828000D02*
X0828000Y0135300D01*
X0832000Y0135300D01*
X0832581Y0135300D01*
X0833721Y0135073D01*
X0834795Y0134628D01*
X0835761Y0133983D01*
X0836583Y0133161D01*
X0837228Y0132195D01*
X0837673Y0131121D01*
X0837900Y0129981D01*
X0837900Y0129400D01*
X0837900Y0129400D01*
Y0123000D01*
X0822096D01*
Y0129400D01*
X0822096Y0129981D01*
X0822324Y0131121D01*
X0822769Y0132195D01*
X0823415Y0133162D01*
X0824237Y0133984D01*
X0825204Y0134629D01*
X0826278Y0135074D01*
X0827419Y0135300D01*
X0828000Y0135300D01*
D02*
G37*
G36*
X0803000D02*
X0803000Y0135300D01*
X0807000Y0135300D01*
X0807581Y0135300D01*
X0808721Y0135073D01*
X0809795Y0134628D01*
X0810761Y0133983D01*
X0811583Y0133161D01*
X0812228Y0132195D01*
X0812673Y0131121D01*
X0812900Y0129981D01*
X0812900Y0129400D01*
X0812900Y0129400D01*
Y0123000D01*
X0797096D01*
Y0129400D01*
X0797096Y0129981D01*
X0797324Y0131121D01*
X0797769Y0132195D01*
X0798415Y0133162D01*
X0799237Y0133984D01*
X0800204Y0134629D01*
X0801278Y0135074D01*
X0802419Y0135300D01*
X0803000Y0135300D01*
D02*
G37*
G36*
X0778000D02*
X0778000Y0135300D01*
X0782000Y0135300D01*
X0782581Y0135300D01*
X0783721Y0135073D01*
X0784795Y0134628D01*
X0785761Y0133983D01*
X0786583Y0133161D01*
X0787228Y0132195D01*
X0787673Y0131121D01*
X0787900Y0129981D01*
X0787900Y0129400D01*
X0787900Y0129400D01*
Y0123000D01*
X0772096D01*
Y0129400D01*
X0772096Y0129981D01*
X0772324Y0131121D01*
X0772769Y0132195D01*
X0773415Y0133162D01*
X0774237Y0133984D01*
X0775204Y0134629D01*
X0776278Y0135074D01*
X0777419Y0135300D01*
X0778000Y0135300D01*
D02*
G37*
G36*
X0753000D02*
X0753000Y0135300D01*
X0757000Y0135300D01*
X0757581Y0135300D01*
X0758721Y0135073D01*
X0759795Y0134628D01*
X0760761Y0133983D01*
X0761583Y0133161D01*
X0762228Y0132195D01*
X0762673Y0131121D01*
X0762900Y0129981D01*
X0762900Y0129400D01*
X0762900Y0129400D01*
Y0123000D01*
X0747096D01*
Y0129400D01*
X0747096Y0129981D01*
X0747324Y0131121D01*
X0747769Y0132195D01*
X0748415Y0133162D01*
X0749237Y0133984D01*
X0750204Y0134629D01*
X0751278Y0135074D01*
X0752419Y0135300D01*
X0753000Y0135300D01*
D02*
G37*
G36*
X0728000D02*
X0728000Y0135300D01*
X0732000Y0135300D01*
X0732581Y0135300D01*
X0733721Y0135073D01*
X0734795Y0134628D01*
X0735761Y0133983D01*
X0736583Y0133161D01*
X0737228Y0132195D01*
X0737673Y0131121D01*
X0737900Y0129981D01*
X0737900Y0129400D01*
X0737900Y0129400D01*
Y0123000D01*
X0722096D01*
Y0129400D01*
X0722096Y0129981D01*
X0722324Y0131121D01*
X0722769Y0132195D01*
X0723415Y0133162D01*
X0724237Y0133984D01*
X0725204Y0134629D01*
X0726278Y0135074D01*
X0727419Y0135300D01*
X0728000Y0135300D01*
D02*
G37*
G36*
X0703000D02*
X0703000Y0135300D01*
X0707000Y0135300D01*
X0707581Y0135300D01*
X0708721Y0135073D01*
X0709795Y0134628D01*
X0710761Y0133983D01*
X0711583Y0133161D01*
X0712228Y0132195D01*
X0712673Y0131121D01*
X0712900Y0129981D01*
X0712900Y0129400D01*
X0712900Y0129400D01*
Y0123000D01*
X0697096D01*
Y0129400D01*
X0697096Y0129981D01*
X0697324Y0131121D01*
X0697769Y0132195D01*
X0698415Y0133162D01*
X0699237Y0133984D01*
X0700204Y0134629D01*
X0701278Y0135074D01*
X0702419Y0135300D01*
X0703000Y0135300D01*
D02*
G37*
G36*
X0678000D02*
X0678000Y0135300D01*
X0682000Y0135300D01*
X0682581Y0135300D01*
X0683721Y0135073D01*
X0684795Y0134628D01*
X0685761Y0133983D01*
X0686583Y0133161D01*
X0687228Y0132195D01*
X0687673Y0131121D01*
X0687900Y0129981D01*
X0687900Y0129400D01*
X0687900Y0129400D01*
Y0123000D01*
X0672096D01*
Y0129400D01*
X0672096Y0129981D01*
X0672324Y0131121D01*
X0672769Y0132195D01*
X0673415Y0133162D01*
X0674237Y0133984D01*
X0675204Y0134629D01*
X0676278Y0135074D01*
X0677419Y0135300D01*
X0678000Y0135300D01*
D02*
G37*
G36*
X0653000D02*
X0653000Y0135300D01*
X0657000Y0135300D01*
X0657581Y0135300D01*
X0658721Y0135073D01*
X0659795Y0134628D01*
X0660761Y0133983D01*
X0661583Y0133161D01*
X0662228Y0132195D01*
X0662673Y0131121D01*
X0662900Y0129981D01*
X0662900Y0129400D01*
X0662900Y0129400D01*
Y0123000D01*
X0647096D01*
Y0129400D01*
X0647096Y0129981D01*
X0647324Y0131121D01*
X0647769Y0132195D01*
X0648415Y0133162D01*
X0649237Y0133984D01*
X0650204Y0134629D01*
X0651278Y0135074D01*
X0652419Y0135300D01*
X0653000Y0135300D01*
D02*
G37*
G36*
X0628000D02*
X0628000Y0135300D01*
X0632000Y0135300D01*
X0632581Y0135300D01*
X0633721Y0135073D01*
X0634795Y0134628D01*
X0635761Y0133983D01*
X0636583Y0133161D01*
X0637228Y0132195D01*
X0637673Y0131121D01*
X0637900Y0129981D01*
X0637900Y0129400D01*
X0637900Y0129400D01*
Y0123000D01*
X0622096D01*
Y0129400D01*
X0622096Y0129981D01*
X0622324Y0131121D01*
X0622769Y0132195D01*
X0623415Y0133162D01*
X0624237Y0133984D01*
X0625204Y0134629D01*
X0626278Y0135074D01*
X0627419Y0135300D01*
X0628000Y0135300D01*
D02*
G37*
G36*
X0578000D02*
X0578000Y0135300D01*
X0582000Y0135300D01*
X0582581Y0135300D01*
X0583721Y0135073D01*
X0584795Y0134628D01*
X0585761Y0133983D01*
X0586583Y0133161D01*
X0587228Y0132195D01*
X0587673Y0131121D01*
X0587900Y0129981D01*
X0587900Y0129400D01*
X0587900Y0129400D01*
Y0123000D01*
X0572096D01*
Y0129400D01*
X0572096Y0129981D01*
X0572324Y0131121D01*
X0572769Y0132195D01*
X0573415Y0133162D01*
X0574237Y0133984D01*
X0575204Y0134629D01*
X0576278Y0135074D01*
X0577419Y0135300D01*
X0578000Y0135300D01*
D02*
G37*
G36*
X0553000D02*
X0553000Y0135300D01*
X0557000Y0135300D01*
X0557581Y0135300D01*
X0558721Y0135073D01*
X0559795Y0134628D01*
X0560761Y0133983D01*
X0561583Y0133161D01*
X0562228Y0132195D01*
X0562673Y0131121D01*
X0562900Y0129981D01*
X0562900Y0129400D01*
X0562900Y0129400D01*
Y0123000D01*
X0547096D01*
Y0129400D01*
X0547096Y0129981D01*
X0547324Y0131121D01*
X0547769Y0132195D01*
X0548415Y0133162D01*
X0549237Y0133984D01*
X0550204Y0134629D01*
X0551278Y0135074D01*
X0552419Y0135300D01*
X0553000Y0135300D01*
D02*
G37*
G36*
X0528000D02*
X0528000Y0135300D01*
X0532000Y0135300D01*
X0532581Y0135300D01*
X0533721Y0135073D01*
X0534795Y0134628D01*
X0535761Y0133983D01*
X0536583Y0133161D01*
X0537228Y0132195D01*
X0537673Y0131121D01*
X0537900Y0129981D01*
X0537900Y0129400D01*
X0537900Y0129400D01*
Y0123000D01*
X0522096D01*
Y0129400D01*
X0522096Y0129981D01*
X0522324Y0131121D01*
X0522769Y0132195D01*
X0523415Y0133162D01*
X0524237Y0133984D01*
X0525204Y0134629D01*
X0526278Y0135074D01*
X0527419Y0135300D01*
X0528000Y0135300D01*
D02*
G37*
G36*
X0503000D02*
X0503000Y0135300D01*
X0507000Y0135300D01*
X0507581Y0135300D01*
X0508721Y0135073D01*
X0509795Y0134628D01*
X0510761Y0133983D01*
X0511583Y0133161D01*
X0512228Y0132195D01*
X0512673Y0131121D01*
X0512900Y0129981D01*
X0512900Y0129400D01*
X0512900Y0129400D01*
Y0123000D01*
X0497096D01*
Y0129400D01*
X0497096Y0129981D01*
X0497324Y0131121D01*
X0497769Y0132195D01*
X0498415Y0133162D01*
X0499237Y0133984D01*
X0500204Y0134629D01*
X0501278Y0135074D01*
X0502419Y0135300D01*
X0503000Y0135300D01*
D02*
G37*
G36*
X0478000D02*
X0478000Y0135300D01*
X0482000Y0135300D01*
X0482581Y0135300D01*
X0483721Y0135073D01*
X0484795Y0134628D01*
X0485761Y0133983D01*
X0486583Y0133161D01*
X0487228Y0132195D01*
X0487673Y0131121D01*
X0487900Y0129981D01*
X0487900Y0129400D01*
X0487900Y0129400D01*
Y0123000D01*
X0472096D01*
Y0129400D01*
X0472096Y0129981D01*
X0472324Y0131121D01*
X0472769Y0132195D01*
X0473415Y0133162D01*
X0474237Y0133984D01*
X0475204Y0134629D01*
X0476278Y0135074D01*
X0477419Y0135300D01*
X0478000Y0135300D01*
D02*
G37*
G36*
X0453000D02*
X0453000Y0135300D01*
X0457000Y0135300D01*
X0457581Y0135300D01*
X0458721Y0135073D01*
X0459795Y0134628D01*
X0460761Y0133983D01*
X0461583Y0133161D01*
X0462228Y0132195D01*
X0462673Y0131121D01*
X0462900Y0129981D01*
X0462900Y0129400D01*
X0462900Y0129400D01*
Y0123000D01*
X0447096D01*
Y0129400D01*
X0447096Y0129981D01*
X0447324Y0131121D01*
X0447769Y0132195D01*
X0448415Y0133162D01*
X0449237Y0133984D01*
X0450204Y0134629D01*
X0451278Y0135074D01*
X0452419Y0135300D01*
X0453000Y0135300D01*
D02*
G37*
G36*
X0428000D02*
X0428000Y0135300D01*
X0432000Y0135300D01*
X0432581Y0135300D01*
X0433721Y0135073D01*
X0434795Y0134628D01*
X0435761Y0133983D01*
X0436583Y0133161D01*
X0437228Y0132195D01*
X0437673Y0131121D01*
X0437900Y0129981D01*
X0437900Y0129400D01*
X0437900Y0129400D01*
Y0123000D01*
X0422096D01*
Y0129400D01*
X0422096Y0129981D01*
X0422324Y0131121D01*
X0422769Y0132195D01*
X0423415Y0133162D01*
X0424237Y0133984D01*
X0425204Y0134629D01*
X0426278Y0135074D01*
X0427419Y0135300D01*
X0428000Y0135300D01*
D02*
G37*
G36*
X0403000D02*
X0403000Y0135300D01*
X0407000Y0135300D01*
X0407581Y0135300D01*
X0408721Y0135073D01*
X0409795Y0134628D01*
X0410761Y0133983D01*
X0411583Y0133161D01*
X0412228Y0132195D01*
X0412673Y0131121D01*
X0412900Y0129981D01*
X0412900Y0129400D01*
X0412900Y0129400D01*
Y0123000D01*
X0397096D01*
Y0129400D01*
X0397096Y0129981D01*
X0397323Y0131121D01*
X0397769Y0132195D01*
X0398415Y0133162D01*
X0399237Y0133984D01*
X0400204Y0134629D01*
X0401278Y0135074D01*
X0402419Y0135300D01*
X0403000Y0135300D01*
D02*
G37*
G36*
X0378000D02*
X0378000Y0135300D01*
X0382000Y0135300D01*
X0382581Y0135300D01*
X0383721Y0135073D01*
X0384795Y0134628D01*
X0385761Y0133983D01*
X0386583Y0133161D01*
X0387228Y0132195D01*
X0387673Y0131121D01*
X0387900Y0129981D01*
X0387900Y0129400D01*
X0387900Y0129400D01*
Y0123000D01*
X0372096D01*
Y0129400D01*
X0372096Y0129981D01*
X0372323Y0131121D01*
X0372769Y0132195D01*
X0373415Y0133162D01*
X0374237Y0133984D01*
X0375204Y0134629D01*
X0376278Y0135074D01*
X0377419Y0135300D01*
X0378000Y0135300D01*
D02*
G37*
G36*
X0353000D02*
X0353000Y0135300D01*
X0357000Y0135300D01*
X0357581Y0135300D01*
X0358721Y0135073D01*
X0359795Y0134628D01*
X0360761Y0133983D01*
X0361583Y0133161D01*
X0362228Y0132195D01*
X0362673Y0131121D01*
X0362900Y0129981D01*
X0362900Y0129400D01*
X0362900Y0129400D01*
Y0123000D01*
X0347096D01*
Y0129400D01*
X0347096Y0129981D01*
X0347323Y0131121D01*
X0347769Y0132195D01*
X0348415Y0133162D01*
X0349237Y0133984D01*
X0350204Y0134629D01*
X0351278Y0135074D01*
X0352419Y0135300D01*
X0353000Y0135300D01*
D02*
G37*
G36*
X0328000D02*
X0328000Y0135300D01*
X0332000Y0135300D01*
X0332581Y0135300D01*
X0333721Y0135073D01*
X0334795Y0134628D01*
X0335761Y0133983D01*
X0336583Y0133161D01*
X0337228Y0132195D01*
X0337673Y0131121D01*
X0337900Y0129981D01*
X0337900Y0129400D01*
X0337900Y0129400D01*
Y0123000D01*
X0322096D01*
Y0129400D01*
X0322096Y0129981D01*
X0322323Y0131121D01*
X0322769Y0132195D01*
X0323415Y0133162D01*
X0324237Y0133984D01*
X0325204Y0134629D01*
X0326278Y0135074D01*
X0327419Y0135300D01*
X0328000Y0135300D01*
D02*
G37*
G36*
X0601836Y0151200D02*
X0602040D01*
X0602469Y0151115D01*
X0602957Y0151049D01*
X0603149Y0150979D01*
X0603296Y0150950D01*
X0603750Y0150762D01*
X0604264Y0150576D01*
X0604391Y0150497D01*
X0604479Y0150460D01*
X0604933Y0150157D01*
X0605442Y0149838D01*
X0605510Y0149771D01*
X0605544Y0149749D01*
X0605968Y0149325D01*
X0606437Y0148867D01*
X0606813Y0148298D01*
X0607160Y0147779D01*
X0607166Y0147765D01*
X0607204Y0147707D01*
X0607432Y0147124D01*
X0607650Y0146596D01*
X0607664Y0146528D01*
X0607709Y0146412D01*
X0607799Y0145847D01*
X0607900Y0145340D01*
Y0145216D01*
X0607928Y0145039D01*
X0607900Y0144522D01*
Y0144060D01*
X0607865Y0143884D01*
X0607852Y0143650D01*
X0607730Y0143204D01*
X0607650Y0142804D01*
X0607561Y0142588D01*
X0607484Y0142310D01*
X0607296Y0141948D01*
X0607160Y0141621D01*
X0607000Y0141381D01*
X0606841Y0141077D01*
X0606615Y0140805D01*
X0606449Y0140557D01*
X0606207Y0140314D01*
X0605952Y0140008D01*
X0605716Y0139824D01*
X0605544Y0139651D01*
X0605213Y0139430D01*
X0604857Y0139152D01*
X0604637Y0139045D01*
X0604479Y0138940D01*
X0604017Y0138748D01*
X0603781Y0138614D01*
X0603015Y0137949D01*
X0602449Y0137106D01*
X0602123Y0136145D01*
X0602059Y0135133D01*
X0602263Y0134138D01*
X0602719Y0133232D01*
X0603396Y0132476D01*
X0603803Y0132171D01*
X0603798Y0132165D01*
X0606715Y0130008D01*
X0606715Y0130008D01*
Y0122816D01*
X0594900D01*
Y0144060D01*
Y0144700D01*
Y0145340D01*
Y0145395D01*
X0595036Y0146021D01*
X0595150Y0146596D01*
X0595171Y0146647D01*
X0595194Y0146754D01*
X0595436Y0147288D01*
X0595640Y0147779D01*
X0595701Y0147870D01*
X0595769Y0148020D01*
X0596086Y0148447D01*
X0596351Y0148844D01*
X0596467Y0148960D01*
X0596598Y0149136D01*
X0596958Y0149450D01*
X0597257Y0149749D01*
X0597439Y0149871D01*
X0597645Y0150051D01*
X0598015Y0150256D01*
X0598321Y0150460D01*
X0598574Y0150565D01*
X0598861Y0150724D01*
X0599214Y0150830D01*
X0599504Y0150950D01*
X0599826Y0151014D01*
X0600193Y0151125D01*
X0600506Y0151149D01*
X0600760Y0151200D01*
X0601143D01*
X0601579Y0151235D01*
X0601836Y0151200D01*
D02*
G37*
G36*
X0580696Y0116650D02*
X0581879Y0116160D01*
X0582943Y0115449D01*
X0583849Y0114543D01*
X0584560Y0113479D01*
X0585050Y0112296D01*
X0585300Y0111040D01*
Y0110400D01*
Y0109760D01*
X0585050Y0108504D01*
X0584560Y0107321D01*
X0583849Y0106256D01*
X0582943Y0105351D01*
X0581879Y0104640D01*
X0580696Y0104150D01*
X0579440Y0103900D01*
X0578160D01*
X0576904Y0104150D01*
X0575721Y0104640D01*
X0574656Y0105351D01*
X0573751Y0106256D01*
X0573040Y0107321D01*
X0572550Y0108504D01*
X0572300Y0109760D01*
Y0110400D01*
Y0111040D01*
X0572550Y0112296D01*
X0573040Y0113479D01*
X0573751Y0114543D01*
X0574656Y0115449D01*
X0575721Y0116160D01*
X0576904Y0116650D01*
X0578160Y0116900D01*
X0579440D01*
X0580696Y0116650D01*
D02*
G37*
G36*
X0893296Y0116150D02*
X0894479Y0115660D01*
X0895543Y0114949D01*
X0896449Y0114043D01*
X0897160Y0112979D01*
X0897650Y0111796D01*
X0897900Y0110540D01*
Y0109900D01*
Y0109260D01*
X0897650Y0108004D01*
X0897160Y0106821D01*
X0896449Y0105756D01*
X0895543Y0104851D01*
X0894479Y0104140D01*
X0893296Y0103650D01*
X0892040Y0103400D01*
X0890760D01*
X0889504Y0103650D01*
X0888321Y0104140D01*
X0887257Y0104851D01*
X0886351Y0105756D01*
X0885640Y0106821D01*
X0885150Y0108004D01*
X0884900Y0109260D01*
Y0109900D01*
Y0110540D01*
X0885150Y0111796D01*
X0885640Y0112979D01*
X0886351Y0114043D01*
X0887257Y0114949D01*
X0888321Y0115660D01*
X0889504Y0116150D01*
X0890760Y0116400D01*
X0892040D01*
X0893296Y0116150D01*
D02*
G37*
G36*
X0539896Y0107250D02*
X0541079Y0106760D01*
X0542143Y0106049D01*
X0543049Y0105143D01*
X0543760Y0104079D01*
X0544250Y0102896D01*
X0544500Y0101640D01*
Y0101000D01*
Y0100360D01*
X0544250Y0099104D01*
X0543760Y0097921D01*
X0543049Y0096856D01*
X0542143Y0095951D01*
X0541079Y0095240D01*
X0539896Y0094750D01*
X0538640Y0094500D01*
X0537360D01*
X0536104Y0094750D01*
X0534921Y0095240D01*
X0533856Y0095951D01*
X0532951Y0096856D01*
X0532240Y0097921D01*
X0531750Y0099104D01*
X0531500Y0100360D01*
Y0101000D01*
Y0101640D01*
X0531750Y0102896D01*
X0532240Y0104079D01*
X0532951Y0105143D01*
X0533856Y0106049D01*
X0534921Y0106760D01*
X0536104Y0107250D01*
X0537360Y0107500D01*
X0538640D01*
X0539896Y0107250D01*
D02*
G37*
G36*
X0610362Y0098000D02*
X0611931Y0094597D01*
Y0054610D01*
X0543000D01*
Y0071500D01*
X0554500D01*
X0558000Y0068000D01*
X0580839Y0068000D01*
X0589000Y0077000D01*
Y0098000D01*
X0610362Y0098000D01*
D02*
G37*
G36*
X0253841Y0063610D02*
X0209341D01*
Y0105110D01*
X0253841D01*
Y0063610D01*
D02*
G37*
G36*
X0863676Y0064500D02*
X0877500D01*
Y0026000D01*
X0843700D01*
X0843700Y0069500D01*
X0858576Y0069500D01*
X0863676Y0064500D01*
D02*
G37*
G36*
X0492001Y0020392D02*
X0493184Y0019903D01*
X0494249Y0019191D01*
X0495154Y0018286D01*
X0495865Y0017221D01*
X0496355Y0016038D01*
X0496605Y0014783D01*
Y0014142D01*
Y0013502D01*
X0496355Y0012246D01*
X0495865Y0011063D01*
X0495154Y0009999D01*
X0494249Y0009093D01*
X0493184Y0008382D01*
X0492001Y0007892D01*
X0490745Y0007642D01*
X0489465D01*
X0488209Y0007892D01*
X0487026Y0008382D01*
X0485962Y0009093D01*
X0485056Y0009999D01*
X0484345Y0011063D01*
X0483855Y0012246D01*
X0483605Y0013502D01*
Y0014142D01*
Y0014783D01*
X0483855Y0016038D01*
X0484345Y0017221D01*
X0485056Y0018286D01*
X0485962Y0019191D01*
X0487026Y0019903D01*
X0488209Y0020392D01*
X0489465Y0020642D01*
X0490745D01*
X0492001Y0020392D01*
D02*
G37*
D15*
X0600666Y0133598D02*
X0607000Y0127264D01*
X0600666Y0133598D02*
Y0134808D01*
X0607000Y0123460D02*
Y0127264D01*
X0606356Y0122816D02*
X0607000Y0123460D01*
X0594900Y0122816D02*
X0606356D01*
X1097889Y0000000D02*
X1097995Y0000105D01*
Y0290995D02*
X1098000Y0291000D01*
D95*
X0144800Y0243300D02*
X0144900Y0243400D01*
X0607913Y0119427D02*
Y0121400D01*
X0144900Y0291000D02*
X0605000D01*
X0000000Y0000000D02*
X0620300D01*
X0000000D02*
Y0242000D01*
X0001300Y0243300D01*
X0620300Y0000000D02*
X1097889D01*
X1097995Y0000105D02*
Y0290995D01*
X0605000Y0291000D02*
X1098000Y0291000D01*
D96*
X0598000Y0134768D02*
X0607913Y0124856D01*
Y0121400D02*
Y0124856D01*
X0902000Y0115100D02*
X0924900D01*
Y0000000D02*
Y0115100D01*
X0898000Y0121400D02*
X0902000Y0115100D01*
X0607913Y0119427D02*
Y0121400D01*
X0289300Y0175800D02*
X0291500Y0173600D01*
Y0133700D02*
Y0173600D01*
X0607913Y0121400D02*
X0898000D01*
X0144900Y0243400D02*
Y0291000D01*
X0001300Y0243300D02*
X0165100D01*
X0172800Y0235600D01*
Y0184400D02*
Y0235600D01*
Y0184400D02*
X0181400Y0175800D01*
X0289300D01*
X0291500Y0133700D02*
X0303800Y0121400D01*
X0607913D01*
X0598000Y0134768D02*
Y0172000D01*
X0605000Y0179000D02*
Y0291000D01*
X0598000Y0172000D02*
X0605000Y0179000D01*
X0607913Y0119427D02*
X0620300Y0093804D01*
Y0000000D02*
Y0093804D01*
D116*
X0000000Y0000000D02*
Y0291000D01*
X1098000D01*
Y0000000D02*
Y0291000D01*
X0000000Y0000000D02*
X1098000D01*
D117*
X0171234Y0026800D02*
D03*
Y0018926D02*
D03*
X0163360D02*
D03*
X0155486Y0026800D02*
D03*
Y0018926D02*
D03*
X0147612Y0026800D02*
D03*
Y0018926D02*
D03*
X0139737Y0026800D02*
D03*
Y0018926D02*
D03*
X0261996Y0194248D02*
D03*
X0254122D02*
D03*
X0214752D02*
D03*
X0206878D02*
D03*
Y0202909D02*
D03*
X0214752D02*
D03*
X0222626D02*
D03*
X0230500D02*
D03*
X0238374D02*
D03*
X0246248D02*
D03*
X0254122D02*
D03*
X0261996D02*
D03*
X0966795Y0194248D02*
D03*
X0982543D02*
D03*
X0974669D02*
D03*
X0966795Y0202909D02*
D03*
X0974669D02*
D03*
X0982543D02*
D03*
X0998291D02*
D03*
X0990417D02*
D03*
X1014039D02*
D03*
X1006165D02*
D03*
X1037661D02*
D03*
X1029787D02*
D03*
X1021913D02*
D03*
X1029787Y0194248D02*
D03*
X1037661D02*
D03*
X1021913D02*
D03*
X0643252Y0082626D02*
D03*
Y0090500D02*
D03*
X0651126Y0082626D02*
D03*
X0659000D02*
D03*
X0666874D02*
D03*
X0674748D02*
D03*
X0682622D02*
D03*
X0339252D02*
D03*
Y0090500D02*
D03*
X0347126Y0082626D02*
D03*
X0355000D02*
D03*
X0362874D02*
D03*
X0370748D02*
D03*
X0378622D02*
D03*
D118*
X0163360Y0026800D02*
D03*
X0651126Y0090500D02*
D03*
X0659000D02*
D03*
X0666874D02*
D03*
X0674748D02*
D03*
X0682622D02*
D03*
X0347126D02*
D03*
X0355000D02*
D03*
X0362874D02*
D03*
X0370748D02*
D03*
X0378622D02*
D03*
D119*
X0860892Y0102366D02*
D03*
X0868766D02*
D03*
X0876640D02*
D03*
X0822737Y0092000D02*
D03*
X0830611D02*
D03*
X0518737D02*
D03*
X0526611D02*
D03*
X0556778Y0102366D02*
D03*
X0564652D02*
D03*
X0572526D02*
D03*
D120*
X0273216Y0199366D02*
D03*
X0195657D02*
D03*
X1048882Y0199366D02*
D03*
X0955575D02*
D03*
D121*
X0814863Y0092000D02*
D03*
X0510863D02*
D03*
D122*
X0061700Y0016000D02*
D03*
Y0026000D02*
D03*
X0071700Y0016000D02*
D03*
Y0026000D02*
D03*
X0081700Y0016000D02*
D03*
X0091700D02*
D03*
X0101700D02*
D03*
Y0026000D02*
D03*
D123*
X0081700D02*
D03*
X0091700D02*
D03*
D124*
X0253986Y0020000D02*
D03*
X0261860D02*
D03*
X0269734D02*
D03*
X0277608D02*
D03*
X0261860Y0012126D02*
D03*
X0269734D02*
D03*
X0277608D02*
D03*
D125*
X0253986D02*
D03*
D126*
X0027500Y0116764D02*
D03*
Y0124638D02*
D03*
Y0132512D02*
D03*
Y0140386D02*
D03*
Y0148260D02*
D03*
Y0156134D02*
D03*
Y0164008D02*
D03*
Y0171882D02*
D03*
Y0179756D02*
D03*
Y0187630D02*
D03*
Y0203378D02*
D03*
Y0211252D02*
D03*
Y0219126D02*
D03*
Y0227000D02*
D03*
X0035374Y0116764D02*
D03*
Y0124638D02*
D03*
Y0132512D02*
D03*
Y0140386D02*
D03*
Y0148260D02*
D03*
Y0156134D02*
D03*
Y0171882D02*
D03*
Y0179756D02*
D03*
Y0187630D02*
D03*
Y0195504D02*
D03*
Y0203378D02*
D03*
Y0211252D02*
D03*
Y0219126D02*
D03*
Y0227000D02*
D03*
Y0234874D02*
D03*
X0162874D02*
D03*
Y0227000D02*
D03*
Y0219126D02*
D03*
Y0211252D02*
D03*
Y0203378D02*
D03*
Y0187630D02*
D03*
Y0179756D02*
D03*
Y0171882D02*
D03*
Y0164008D02*
D03*
Y0156134D02*
D03*
Y0148260D02*
D03*
Y0132512D02*
D03*
Y0124638D02*
D03*
Y0116764D02*
D03*
X0155000Y0234874D02*
D03*
Y0227000D02*
D03*
Y0219126D02*
D03*
Y0211252D02*
D03*
Y0203378D02*
D03*
Y0195504D02*
D03*
Y0187630D02*
D03*
Y0179756D02*
D03*
Y0171882D02*
D03*
Y0164008D02*
D03*
Y0156134D02*
D03*
Y0148260D02*
D03*
Y0140386D02*
D03*
Y0132512D02*
D03*
Y0116764D02*
D03*
D127*
X0027500Y0195504D02*
D03*
Y0234874D02*
D03*
X0035374Y0164008D02*
D03*
X0162874Y0195504D02*
D03*
Y0140386D02*
D03*
X0155000Y0124638D02*
D03*
D128*
X1078740Y0019685D02*
D03*
X1078740Y0271654D02*
D03*
X0019685Y0019685D02*
D03*
Y0271654D02*
D03*
D129*
X0840000Y0083600D02*
D03*
X0536615Y0082900D02*
D03*
D130*
X0891400Y0109900D02*
D03*
X0265860Y0107252D02*
D03*
X0265360Y0132752D02*
D03*
X0258360D02*
D03*
X0261860D02*
D03*
X0262360Y0107252D02*
D03*
X0258860D02*
D03*
X0385876Y0064940D02*
D03*
X0376700D02*
D03*
X0395300D02*
D03*
X0397000Y0079000D02*
D03*
X0409000Y0084300D02*
D03*
X0419400Y0084100D02*
D03*
X0701000Y0079000D02*
D03*
X0713800Y0084300D02*
D03*
X0680700Y0064940D02*
D03*
X0689876D02*
D03*
X0699300D02*
D03*
X0723000Y0084972D02*
D03*
X0135000Y0171882D02*
D03*
X0490105Y0014142D02*
D03*
X0129200Y0041800D02*
D03*
X0129300Y0055200D02*
D03*
X0437000Y0046500D02*
D03*
X0443700Y0046200D02*
D03*
X0746500Y0090016D02*
D03*
X0826129Y0080500D02*
D03*
X0749347Y0046600D02*
D03*
X0741921Y0046500D02*
D03*
X0524900Y0083000D02*
D03*
X0870000Y0061000D02*
D03*
X0873500Y0054000D02*
D03*
X0870000Y0047000D02*
D03*
X0873500Y0040000D02*
D03*
X0870000Y0033000D02*
D03*
X0863000Y0061000D02*
D03*
X0866500Y0054000D02*
D03*
X0863000Y0047000D02*
D03*
X0866500Y0040000D02*
D03*
X0863000Y0033000D02*
D03*
X0859500Y0054000D02*
D03*
X0856000Y0047000D02*
D03*
X0859500Y0040000D02*
D03*
X0856000Y0033000D02*
D03*
X0852500Y0054000D02*
D03*
X0849000Y0047000D02*
D03*
X0852500Y0040000D02*
D03*
X0849000Y0033000D02*
D03*
X0607000Y0085500D02*
D03*
Y0071500D02*
D03*
Y0057500D02*
D03*
X0600000Y0085500D02*
D03*
X0603500Y0078500D02*
D03*
X0600000Y0071500D02*
D03*
X0603500Y0064500D02*
D03*
X0600000Y0057500D02*
D03*
X0593000Y0085500D02*
D03*
X0596500Y0078500D02*
D03*
X0593000Y0071500D02*
D03*
X0596500Y0064500D02*
D03*
X0593000Y0057500D02*
D03*
X0589500Y0064500D02*
D03*
X0586000Y0057500D02*
D03*
X0582500Y0064500D02*
D03*
X0579000Y0057500D02*
D03*
X0575500Y0064500D02*
D03*
X0572000Y0057500D02*
D03*
X0568500Y0064500D02*
D03*
X0565000Y0057500D02*
D03*
X0561500Y0064500D02*
D03*
X0558000Y0057500D02*
D03*
X0434772Y0055864D02*
D03*
X0215500Y0168600D02*
D03*
X0601400Y0144700D02*
D03*
X0135137Y0223063D02*
D03*
X0134300Y0229900D02*
D03*
X0189300Y0013400D02*
D03*
X0122700Y0016000D02*
D03*
X0129417Y0019900D02*
D03*
X0277700Y0035200D02*
D03*
X0253986Y0026800D02*
D03*
X0269734Y0032300D02*
D03*
X0261860Y0029600D02*
D03*
X0128786Y0035000D02*
D03*
X0174450Y0009000D02*
D03*
X0184972D02*
D03*
X0904500Y0124638D02*
D03*
X0202159Y0122816D02*
D03*
Y0119316D02*
D03*
Y0115633D02*
D03*
Y0112133D02*
D03*
Y0108633D02*
D03*
X0210000Y0130500D02*
D03*
X0056000Y0132512D02*
D03*
X0135500Y0124638D02*
D03*
X0578800Y0110400D02*
D03*
X0739650Y0056000D02*
D03*
X0184476Y0126316D02*
D03*
X0187976D02*
D03*
X0191476D02*
D03*
X0195159D02*
D03*
X0198659D02*
D03*
X0202159D02*
D03*
X0538000Y0101000D02*
D03*
X0442500Y0090016D02*
D03*
X0219108Y0148252D02*
D03*
X0219608Y0144252D02*
D03*
X0260608Y0158110D02*
D03*
X0855682Y0091957D02*
D03*
X0217781Y0152469D02*
D03*
X0253841Y0158110D02*
D03*
X0551446Y0090866D02*
D03*
D131*
X0240000Y0013000D02*
D03*
X0761454Y0282000D02*
D03*
X0910000Y0282300D02*
D03*
X0886454Y0282000D02*
D03*
X0861500Y0281866D02*
D03*
X0836454Y0282000D02*
D03*
X0811454D02*
D03*
X0786454D02*
D03*
X0736500Y0281866D02*
D03*
X0711454Y0282000D02*
D03*
X0686454D02*
D03*
X0611454D02*
D03*
X0636454D02*
D03*
X0661454D02*
D03*
X0598545D02*
D03*
X0573091D02*
D03*
X0547636D02*
D03*
X0522182D02*
D03*
X0496727D02*
D03*
X0471273D02*
D03*
X0445818D02*
D03*
X0420341Y0281866D02*
D03*
X0394909Y0282000D02*
D03*
X0369455D02*
D03*
X0344000D02*
D03*
X0320000D02*
D03*
X0916000Y0282300D02*
D03*
X0920250D02*
D03*
X0928750D02*
D03*
X0933000D02*
D03*
X0924500D02*
D03*
X0898954Y0275500D02*
D03*
X0892455D02*
D03*
X0898954Y0282000D02*
D03*
X0892455D02*
D03*
X0895704Y0278750D02*
D03*
X0873954Y0275500D02*
D03*
X0867455D02*
D03*
X0873954Y0282000D02*
D03*
X0867455D02*
D03*
X0870704Y0278750D02*
D03*
X0848954Y0275500D02*
D03*
X0842455D02*
D03*
X0848954Y0282000D02*
D03*
X0842455D02*
D03*
X0845704Y0278750D02*
D03*
X0823954Y0275500D02*
D03*
X0817455D02*
D03*
X0823954Y0282000D02*
D03*
X0817455D02*
D03*
X0820704Y0278750D02*
D03*
X0798954Y0275500D02*
D03*
X0792454D02*
D03*
X0798954Y0282000D02*
D03*
X0792454D02*
D03*
X0795705Y0278750D02*
D03*
X0773954Y0275500D02*
D03*
X0767454D02*
D03*
X0773954Y0282000D02*
D03*
X0767454D02*
D03*
X0770705Y0278750D02*
D03*
X0748954Y0275500D02*
D03*
X0742454D02*
D03*
X0748954Y0282000D02*
D03*
X0742454D02*
D03*
X0745705Y0278750D02*
D03*
X0723954Y0275500D02*
D03*
X0717454D02*
D03*
X0723954Y0282000D02*
D03*
X0717454D02*
D03*
X0720705Y0278750D02*
D03*
X0698954Y0275500D02*
D03*
X0692454D02*
D03*
X0698954Y0282000D02*
D03*
X0692454D02*
D03*
X0695705Y0278750D02*
D03*
X0673954Y0275500D02*
D03*
X0667454D02*
D03*
X0673954Y0282000D02*
D03*
X0667454D02*
D03*
X0670705Y0278750D02*
D03*
X0648954Y0275500D02*
D03*
X0642454D02*
D03*
X0648954Y0282000D02*
D03*
X0642454D02*
D03*
X0645705Y0278750D02*
D03*
X0620705D02*
D03*
X0617454Y0282000D02*
D03*
X0623954D02*
D03*
X0617454Y0275500D02*
D03*
X0623954D02*
D03*
X0589295Y0278750D02*
D03*
X0592545Y0275500D02*
D03*
X0586045D02*
D03*
X0592545Y0282000D02*
D03*
X0586045D02*
D03*
X0563841Y0278750D02*
D03*
X0567091Y0275500D02*
D03*
X0560591D02*
D03*
X0567091Y0282000D02*
D03*
X0560591D02*
D03*
X0509682Y0275500D02*
D03*
X0512932Y0278750D02*
D03*
X0516182Y0282000D02*
D03*
X0538386Y0278750D02*
D03*
X0541636Y0275500D02*
D03*
X0535136D02*
D03*
X0541636Y0282000D02*
D03*
X0535136D02*
D03*
X0516182Y0275500D02*
D03*
X0509682Y0282000D02*
D03*
X0487477Y0278750D02*
D03*
X0490727Y0275500D02*
D03*
X0484227D02*
D03*
X0490727Y0282000D02*
D03*
X0484227D02*
D03*
X0462023Y0278750D02*
D03*
X0465273Y0275500D02*
D03*
X0458773D02*
D03*
X0465273Y0282000D02*
D03*
X0458773D02*
D03*
X0436568Y0278750D02*
D03*
X0439818Y0275500D02*
D03*
X0433318D02*
D03*
X0439818Y0282000D02*
D03*
X0433318D02*
D03*
X0407864D02*
D03*
X0414364D02*
D03*
X0407864Y0275500D02*
D03*
X0414364D02*
D03*
X0411114Y0278750D02*
D03*
X0382409Y0282000D02*
D03*
X0388909D02*
D03*
X0382409Y0275500D02*
D03*
X0388909D02*
D03*
X0385659Y0278750D02*
D03*
X0356955Y0282000D02*
D03*
X0363455D02*
D03*
X0356955Y0275500D02*
D03*
X0363455D02*
D03*
X0360205Y0278750D02*
D03*
X0334750D02*
D03*
X0338000Y0275500D02*
D03*
X0331500D02*
D03*
X0338000Y0282000D02*
D03*
X0331500D02*
D03*
X0305500D02*
D03*
X0297000D02*
D03*
X0301250D02*
D03*
X0309750D02*
D03*
X0314000D02*
D03*
X0591000Y0184000D02*
D03*
X0275300Y0102289D02*
D03*
X0867500Y0184616D02*
D03*
X0467500Y0184366D02*
D03*
X0762500Y0157366D02*
D03*
X0563091Y0157260D02*
D03*
X0892500Y0184616D02*
D03*
X0792500D02*
D03*
X0817500D02*
D03*
X0842500D02*
D03*
X0917500D02*
D03*
X0742500D02*
D03*
X0767500D02*
D03*
X0888091Y0157510D02*
D03*
X0863091D02*
D03*
X0838091D02*
D03*
X0813091D02*
D03*
X0788091D02*
D03*
X0738091D02*
D03*
X0714091D02*
D03*
X0688091D02*
D03*
X0663091D02*
D03*
X0638091D02*
D03*
X0613091D02*
D03*
X0588091Y0157260D02*
D03*
X0538000Y0157366D02*
D03*
X0513091Y0157260D02*
D03*
X0488091D02*
D03*
X0463091D02*
D03*
X0438091D02*
D03*
X0413091D02*
D03*
X0388090D02*
D03*
X0363090D02*
D03*
X0313090D02*
D03*
X0338114Y0157283D02*
D03*
X0692500Y0184616D02*
D03*
X0717500D02*
D03*
X0617500D02*
D03*
X0642500D02*
D03*
X0667500D02*
D03*
X0542500Y0184366D02*
D03*
X0567500D02*
D03*
X0442500D02*
D03*
X0492500D02*
D03*
X0517500D02*
D03*
X0417500D02*
D03*
X0392500D02*
D03*
X0367500D02*
D03*
X0342524Y0184390D02*
D03*
X0317500Y0184366D02*
D03*
D132*
X0600500Y0129000D02*
D03*
X0604500D02*
D03*
X0913500Y0123500D02*
D03*
X0917500D02*
D03*
X0878000Y0129366D02*
D03*
X0882000D02*
D03*
X0853000D02*
D03*
X0857000D02*
D03*
X0828000D02*
D03*
X0832000D02*
D03*
X0803000D02*
D03*
X0807000D02*
D03*
X0778000D02*
D03*
X0782000D02*
D03*
X0753000D02*
D03*
X0757000D02*
D03*
X0728000D02*
D03*
X0732000D02*
D03*
X0703000D02*
D03*
X0707000D02*
D03*
X0678000D02*
D03*
X0682000D02*
D03*
X0653000D02*
D03*
X0657000D02*
D03*
X0628000D02*
D03*
X0632000D02*
D03*
X0578000D02*
D03*
X0582000D02*
D03*
X0553000D02*
D03*
X0557000D02*
D03*
X0528000D02*
D03*
X0532000D02*
D03*
X0503000D02*
D03*
X0507000D02*
D03*
X0478000D02*
D03*
X0482000D02*
D03*
X0453000D02*
D03*
X0457000D02*
D03*
X0428000D02*
D03*
X0432000D02*
D03*
X0403000D02*
D03*
X0407000D02*
D03*
X0378000D02*
D03*
X0382000D02*
D03*
X0353000D02*
D03*
X0357000D02*
D03*
X0332000D02*
D03*
X0328000D02*
D03*
X0764500Y0062550D02*
D03*
X0460433Y0063650D02*
D03*
M02*
