G04*
G04 #@! TF.GenerationSoftware,Altium Limited,Altium Designer,19.0.4 (130)*
G04*
G04 Layer_Physical_Order=4*
G04 Layer_Color=16711680*
%FSAX25Y25*%
%MOIN*%
G70*
G01*
G75*
%ADD15C,0.01000*%
%ADD32R,0.06600X0.04400*%
%ADD33R,0.03800X0.03500*%
%ADD34R,0.03500X0.03800*%
%ADD36R,0.03200X0.03900*%
%ADD44R,0.02441X0.07165*%
%ADD45R,0.07165X0.02441*%
%ADD93C,0.02000*%
%ADD94C,0.01500*%
%ADD95C,0.03000*%
%ADD96C,0.04000*%
%ADD97C,0.06000*%
%ADD100C,0.02500*%
%ADD101C,0.00800*%
%ADD103C,0.05906*%
%ADD104R,0.05906X0.05906*%
%ADD105C,0.05512*%
%ADD106O,0.04724X0.07000*%
%ADD107C,0.06496*%
%ADD108R,0.06496X0.06496*%
%ADD109C,0.04331*%
%ADD110R,0.04331X0.04331*%
%ADD111C,0.04791*%
%ADD112R,0.04791X0.04791*%
%ADD113C,0.02500*%
%ADD114C,0.05000*%
%ADD115C,0.03900*%
%ADD133R,0.09700X0.11811*%
%ADD134R,0.19685X0.25720*%
%ADD135R,0.04528X0.02362*%
%ADD136R,0.13500X0.08000*%
G36*
X0322250Y0284500D02*
X0322250Y0280000D01*
X0322200D01*
X0322200Y0262100D01*
X0302700D01*
X0302700Y0280000D01*
X0294500D01*
X0294500Y0284500D01*
X0322250Y0284500D01*
D02*
G37*
G36*
X0935500Y0280000D02*
X0927250D01*
X0927250Y0262100D01*
X0907750D01*
X0907750Y0280000D01*
D01*
X0907750Y0284500D01*
X0935500D01*
X0935500Y0280000D01*
D02*
G37*
G36*
X0902255Y0262100D02*
X0882755D01*
X0882755Y0284500D01*
X0902254D01*
X0902255Y0262100D01*
D02*
G37*
G36*
X0877255D02*
X0857755D01*
X0857755Y0284500D01*
X0877254D01*
X0877255Y0262100D01*
D02*
G37*
G36*
X0852255D02*
X0832755D01*
X0832755Y0284500D01*
X0852254D01*
X0852255Y0262100D01*
D02*
G37*
G36*
X0827255D02*
X0807755D01*
X0807755Y0284500D01*
X0827254D01*
X0827255Y0262100D01*
D02*
G37*
G36*
X0802255D02*
X0782755D01*
X0782755Y0284500D01*
X0802254D01*
X0802255Y0262100D01*
D02*
G37*
G36*
X0777255D02*
X0757755D01*
X0757755Y0284500D01*
X0777254D01*
X0777255Y0262100D01*
D02*
G37*
G36*
X0752255D02*
X0732755D01*
X0732755Y0284500D01*
X0752254D01*
X0752255Y0262100D01*
D02*
G37*
G36*
X0727255D02*
X0707755D01*
X0707755Y0284500D01*
X0727254D01*
X0727255Y0262100D01*
D02*
G37*
G36*
X0702255D02*
X0682755D01*
X0682755Y0284500D01*
X0702254D01*
X0702255Y0262100D01*
D02*
G37*
G36*
X0677255D02*
X0657755D01*
X0657755Y0284500D01*
X0677254D01*
X0677255Y0262100D01*
D02*
G37*
G36*
X0652255D02*
X0632755D01*
X0632755Y0284500D01*
X0652254D01*
X0652255Y0262100D01*
D02*
G37*
G36*
X0627255D02*
X0607755D01*
X0607755Y0284500D01*
X0627254D01*
X0627255Y0262100D01*
D02*
G37*
G36*
X0602295D02*
X0582795D01*
X0582795Y0284500D01*
X0602295D01*
X0602295Y0262100D01*
D02*
G37*
G36*
X0576841D02*
X0557341D01*
X0557341Y0284500D01*
X0576841D01*
X0576841Y0262100D01*
D02*
G37*
G36*
X0551386D02*
X0531886D01*
X0531886Y0284500D01*
X0551386D01*
X0551386Y0262100D01*
D02*
G37*
G36*
X0525932D02*
X0506432D01*
X0506432Y0284500D01*
X0525932D01*
X0525932Y0262100D01*
D02*
G37*
G36*
X0500477D02*
X0480977D01*
X0480977Y0284500D01*
X0500477D01*
X0500477Y0262100D01*
D02*
G37*
G36*
X0475023D02*
X0455523D01*
X0455523Y0284500D01*
X0475023D01*
X0475023Y0262100D01*
D02*
G37*
G36*
X0449568D02*
X0430068D01*
X0430068Y0284500D01*
X0449568D01*
X0449568Y0262100D01*
D02*
G37*
G36*
X0424114D02*
X0404614D01*
X0404614Y0284500D01*
X0424114D01*
X0424114Y0262100D01*
D02*
G37*
G36*
X0398659D02*
X0379159D01*
X0379159Y0284500D01*
X0398659D01*
X0398659Y0262100D01*
D02*
G37*
G36*
X0373204D02*
X0353705D01*
X0353705Y0284500D01*
X0373204D01*
X0373204Y0262100D01*
D02*
G37*
G36*
X0347750D02*
X0328250D01*
X0328250Y0284500D01*
X0347750D01*
X0347750Y0262100D01*
D02*
G37*
G36*
X0900177Y0173616D02*
X0884823D01*
Y0191616D01*
X0900177D01*
Y0173616D01*
D02*
G37*
G36*
X0875177D02*
X0859823D01*
Y0191616D01*
X0875177D01*
Y0173616D01*
D02*
G37*
G36*
X0850177D02*
X0834823D01*
Y0191616D01*
X0850177D01*
Y0173616D01*
D02*
G37*
G36*
X0825177D02*
X0809823D01*
Y0191616D01*
X0825177D01*
Y0173616D01*
D02*
G37*
G36*
X0800177D02*
X0784823D01*
Y0191616D01*
X0800177D01*
Y0173616D01*
D02*
G37*
G36*
X0775177D02*
X0759823D01*
Y0191616D01*
X0775177D01*
Y0173616D01*
D02*
G37*
G36*
X0750177D02*
X0734823D01*
Y0191616D01*
X0750177D01*
Y0173616D01*
D02*
G37*
G36*
X0725177D02*
X0709823D01*
Y0191616D01*
X0725177D01*
Y0173616D01*
D02*
G37*
G36*
X0700177D02*
X0684823D01*
Y0191616D01*
X0700177D01*
Y0173616D01*
D02*
G37*
G36*
X0675177D02*
X0659823D01*
Y0191616D01*
X0675177D01*
Y0173616D01*
D02*
G37*
G36*
X0650177D02*
X0634823D01*
Y0191616D01*
X0650177D01*
Y0173616D01*
D02*
G37*
G36*
X0625177D02*
X0609823D01*
Y0191616D01*
X0625177D01*
Y0173616D01*
D02*
G37*
G36*
X0600177Y0173366D02*
X0584823D01*
Y0191366D01*
X0600177D01*
Y0173366D01*
D02*
G37*
G36*
X0575177D02*
X0559823D01*
Y0191366D01*
X0575177D01*
Y0173366D01*
D02*
G37*
G36*
X0550177D02*
X0534823D01*
Y0191366D01*
X0550177D01*
Y0173366D01*
D02*
G37*
G36*
X0525177D02*
X0509823D01*
Y0191366D01*
X0525177D01*
Y0173366D01*
D02*
G37*
G36*
X0500177D02*
X0484823D01*
Y0191366D01*
X0500177D01*
Y0173366D01*
D02*
G37*
G36*
X0475177D02*
X0459823D01*
Y0191366D01*
X0475177D01*
Y0173366D01*
D02*
G37*
G36*
X0450177D02*
X0434823D01*
Y0191366D01*
X0450177D01*
Y0173366D01*
D02*
G37*
G36*
X0425177D02*
X0409823D01*
Y0191366D01*
X0425177D01*
Y0173366D01*
D02*
G37*
G36*
X0400177D02*
X0384823D01*
Y0191366D01*
X0400177D01*
Y0173366D01*
D02*
G37*
G36*
X0375177D02*
X0359823D01*
Y0191366D01*
X0375177D01*
Y0173366D01*
D02*
G37*
G36*
X0349765Y0178595D02*
X0350177D01*
Y0173366D01*
X0334823D01*
Y0191366D01*
X0349765D01*
Y0178595D01*
D02*
G37*
G36*
X0324265D02*
X0325177D01*
Y0173366D01*
X0309823D01*
Y0191366D01*
X0324265D01*
Y0178595D01*
D02*
G37*
G36*
X0900177Y0143010D02*
X0884823D01*
Y0161010D01*
X0900177D01*
Y0143010D01*
D02*
G37*
G36*
X0875177D02*
X0859823D01*
Y0161010D01*
X0875177D01*
Y0143010D01*
D02*
G37*
G36*
X0850177D02*
X0834823D01*
Y0161010D01*
X0850177D01*
Y0143010D01*
D02*
G37*
G36*
X0825177D02*
X0809823D01*
Y0161010D01*
X0825177D01*
Y0143010D01*
D02*
G37*
G36*
X0800177D02*
X0784823D01*
Y0161010D01*
X0800177D01*
Y0143010D01*
D02*
G37*
G36*
X0775177D02*
X0759823D01*
Y0161010D01*
X0775177D01*
Y0143010D01*
D02*
G37*
G36*
X0750177D02*
X0734823D01*
Y0161010D01*
X0750177D01*
Y0143010D01*
D02*
G37*
G36*
X0725177D02*
X0709823D01*
Y0161010D01*
X0725177D01*
Y0143010D01*
D02*
G37*
G36*
X0700177D02*
X0684823D01*
Y0161010D01*
X0700177D01*
Y0143010D01*
D02*
G37*
G36*
X0675177D02*
X0659823D01*
Y0161010D01*
X0675177D01*
Y0143010D01*
D02*
G37*
G36*
X0650177D02*
X0634823D01*
Y0161010D01*
X0650177D01*
Y0143010D01*
D02*
G37*
G36*
X0625177D02*
X0609823D01*
Y0161010D01*
X0625177D01*
Y0143010D01*
D02*
G37*
G36*
X0600177Y0150086D02*
X0599964Y0150058D01*
X0598626Y0149504D01*
X0597477Y0148623D01*
X0596596Y0147474D01*
X0596042Y0146136D01*
X0596034Y0146079D01*
X0592715Y0142760D01*
X0584823D01*
Y0160760D01*
X0600177D01*
X0600177Y0150086D01*
D02*
G37*
G36*
X0575177Y0142760D02*
X0559823D01*
Y0160760D01*
X0575177D01*
Y0142760D01*
D02*
G37*
G36*
X0550177D02*
X0534823D01*
Y0160760D01*
X0550177D01*
Y0142760D01*
D02*
G37*
G36*
X0525177D02*
X0509823D01*
Y0160760D01*
X0525177D01*
Y0142760D01*
D02*
G37*
G36*
X0500177D02*
X0484823D01*
Y0160760D01*
X0500177D01*
Y0142760D01*
D02*
G37*
G36*
X0475177D02*
X0459823D01*
Y0160760D01*
X0475177D01*
Y0142760D01*
D02*
G37*
G36*
X0450177D02*
X0434823D01*
Y0160760D01*
X0450177D01*
Y0142760D01*
D02*
G37*
G36*
X0425177D02*
X0409823D01*
Y0160760D01*
X0425177D01*
Y0142760D01*
D02*
G37*
G36*
X0400177D02*
X0384823D01*
Y0160760D01*
X0400177D01*
Y0142760D01*
D02*
G37*
G36*
X0375177D02*
X0359823D01*
Y0160760D01*
X0375177D01*
Y0142760D01*
D02*
G37*
G36*
X0350177D02*
X0334823D01*
Y0160760D01*
X0350177D01*
Y0142760D01*
D02*
G37*
G36*
X0325177D02*
X0309823D01*
Y0160760D01*
X0325177D01*
Y0142760D01*
D02*
G37*
G36*
X0884000Y0125866D02*
X0876000D01*
Y0130881D01*
X0884000D01*
Y0125866D01*
D02*
G37*
G36*
X0859000D02*
X0851000D01*
Y0130881D01*
X0859000D01*
Y0125866D01*
D02*
G37*
G36*
X0834000D02*
X0826000D01*
Y0130881D01*
X0834000D01*
Y0125866D01*
D02*
G37*
G36*
X0809000D02*
X0801000D01*
Y0130881D01*
X0809000D01*
Y0125866D01*
D02*
G37*
G36*
X0784000D02*
X0776000D01*
Y0130881D01*
X0784000D01*
Y0125866D01*
D02*
G37*
G36*
X0759000D02*
X0751000D01*
Y0130881D01*
X0759000D01*
Y0125866D01*
D02*
G37*
G36*
X0734000D02*
X0726000D01*
Y0130881D01*
X0734000D01*
Y0125866D01*
D02*
G37*
G36*
X0709000D02*
X0701000D01*
Y0130881D01*
X0709000D01*
Y0125866D01*
D02*
G37*
G36*
X0684000D02*
X0676000D01*
Y0130881D01*
X0684000D01*
Y0125866D01*
D02*
G37*
G36*
X0659000D02*
X0651000D01*
Y0130881D01*
X0659000D01*
Y0125866D01*
D02*
G37*
G36*
X0634000D02*
X0626000D01*
Y0130881D01*
X0634000D01*
Y0125866D01*
D02*
G37*
G36*
X0584000D02*
X0576000D01*
Y0130881D01*
X0584000D01*
Y0125866D01*
D02*
G37*
G36*
X0559000D02*
X0551000D01*
Y0130881D01*
X0559000D01*
Y0125866D01*
D02*
G37*
G36*
X0534000D02*
X0526000D01*
Y0130881D01*
X0534000D01*
Y0125866D01*
D02*
G37*
G36*
X0509000D02*
X0501000D01*
Y0130881D01*
X0509000D01*
Y0125866D01*
D02*
G37*
G36*
X0484000D02*
X0476000D01*
Y0130881D01*
X0484000D01*
Y0125866D01*
D02*
G37*
G36*
X0459000D02*
X0451000D01*
Y0130881D01*
X0459000D01*
Y0125866D01*
D02*
G37*
G36*
X0434000D02*
X0426000D01*
Y0130881D01*
X0434000D01*
Y0125866D01*
D02*
G37*
G36*
X0409000D02*
X0401000D01*
Y0130881D01*
X0409000D01*
Y0125866D01*
D02*
G37*
G36*
X0384000D02*
X0376000D01*
Y0130881D01*
X0384000D01*
Y0125866D01*
D02*
G37*
G36*
X0359000D02*
X0351000D01*
Y0130881D01*
X0359000D01*
Y0125866D01*
D02*
G37*
G36*
X0334000D02*
X0326000D01*
Y0130881D01*
X0334000D01*
Y0125866D01*
D02*
G37*
G36*
X0605400Y0129700D02*
Y0125866D01*
X0599600Y0125866D01*
Y0129700D01*
X0600052Y0130100D01*
X0604948Y0130100D01*
X0605400Y0129700D01*
D02*
G37*
G36*
X0919500Y0120000D02*
X0911500D01*
Y0125014D01*
X0919500D01*
Y0120000D01*
D02*
G37*
G36*
X1095961Y0002039D02*
X0935000D01*
Y0160416D01*
X0977328D01*
X0996215Y0179303D01*
X1043000D01*
X1059000Y0194567D01*
X1059000Y0229000D01*
X1017500Y0270500D01*
X1017500Y0288961D01*
X1095961D01*
Y0002039D01*
D02*
G37*
G36*
X0614300Y0124500D02*
X0622700Y0121041D01*
Y0119508D01*
X0637300D01*
Y0121000D01*
X0647700D01*
Y0119508D01*
X0662300D01*
Y0121000D01*
X0672700D01*
Y0119508D01*
X0687300D01*
Y0121000D01*
X0697700D01*
Y0119508D01*
X0712300D01*
Y0121000D01*
X0722700D01*
Y0119508D01*
X0737300D01*
Y0121000D01*
X0747700D01*
Y0119508D01*
X0762300D01*
Y0121000D01*
X0772700D01*
Y0119508D01*
X0787300D01*
Y0121000D01*
X0797700D01*
Y0119508D01*
X0812300D01*
Y0121000D01*
X0822700D01*
Y0119508D01*
X0837300D01*
Y0121000D01*
X0847700D01*
Y0119508D01*
X0862300D01*
Y0121000D01*
X0872700D01*
Y0119508D01*
X0887300D01*
Y0119508D01*
X0889300Y0120200D01*
X0891237Y0118263D01*
X0887137Y0114163D01*
X0886387Y0113250D01*
X0885830Y0112207D01*
X0885487Y0111076D01*
X0885371Y0109900D01*
X0885487Y0108724D01*
X0885830Y0107593D01*
X0886387Y0106551D01*
X0887137Y0105637D01*
X0888050Y0104887D01*
X0889093Y0104330D01*
X0890224Y0103987D01*
X0891400Y0103871D01*
X0892576Y0103987D01*
X0893707Y0104330D01*
X0894750Y0104887D01*
X0895663Y0105637D01*
X0903636Y0113610D01*
X0923000D01*
X0923000Y0002039D01*
X0622800D01*
X0622800Y0094295D01*
X0609800Y0120896D01*
Y0129442D01*
X0611800Y0129884D01*
X0614300Y0124500D01*
D02*
G37*
G36*
X0202159Y0285000D02*
X0171234Y0252000D01*
X0171100Y0182696D01*
X0179804Y0174300D01*
X0291000D01*
Y0134400D01*
X0304000Y0121400D01*
X0322700D01*
Y0119508D01*
X0337300D01*
Y0121400D01*
X0347700D01*
Y0119508D01*
X0362300D01*
Y0121400D01*
X0372700D01*
Y0119508D01*
X0387300D01*
Y0121400D01*
X0397700D01*
Y0119508D01*
X0412300D01*
Y0121400D01*
X0422700D01*
Y0119508D01*
X0437300D01*
Y0121400D01*
X0447700D01*
Y0119508D01*
X0462300D01*
Y0121400D01*
X0472700D01*
Y0119508D01*
X0487300D01*
Y0121400D01*
X0497700D01*
Y0119508D01*
X0512300D01*
Y0121400D01*
X0522700D01*
Y0119508D01*
X0537300D01*
Y0121400D01*
X0547700D01*
Y0119508D01*
X0562300D01*
Y0121400D01*
X0572700D01*
Y0119508D01*
X0582383D01*
X0583149Y0117660D01*
X0581502Y0116014D01*
X0547700D01*
X0546264Y0115825D01*
X0544926Y0115270D01*
X0543777Y0114389D01*
X0543777Y0114389D01*
X0535082Y0105694D01*
X0534077Y0104923D01*
X0533196Y0103774D01*
X0532642Y0102436D01*
X0532452Y0101000D01*
X0532642Y0099564D01*
X0533196Y0098226D01*
X0534077Y0097077D01*
X0535226Y0096196D01*
X0536564Y0095642D01*
X0538000Y0095452D01*
X0538234D01*
X0539670Y0095642D01*
X0541008Y0096196D01*
X0542157Y0097077D01*
X0549221Y0104142D01*
X0551516Y0103755D01*
X0552054Y0102919D01*
X0551981Y0102366D01*
X0552145Y0101125D01*
X0552624Y0099968D01*
X0553386Y0098974D01*
X0554380Y0098212D01*
X0555537Y0097733D01*
X0556778Y0097569D01*
X0558020Y0097733D01*
X0559177Y0098212D01*
X0559270Y0098283D01*
X0560715Y0098785D01*
X0562161Y0098283D01*
X0562254Y0098212D01*
X0563411Y0097733D01*
X0564652Y0097569D01*
X0565894Y0097733D01*
X0567051Y0098212D01*
X0567143Y0098283D01*
X0568589Y0098785D01*
X0570035Y0098283D01*
X0570128Y0098212D01*
X0571285Y0097733D01*
X0572526Y0097569D01*
X0573768Y0097733D01*
X0574925Y0098212D01*
X0575918Y0098974D01*
X0576680Y0099968D01*
X0577160Y0101125D01*
X0577323Y0102366D01*
X0577250Y0102919D01*
X0577668Y0103856D01*
X0577998Y0104225D01*
X0578818Y0104829D01*
X0578900Y0104819D01*
X0579660Y0104919D01*
X0583800D01*
X0585236Y0105108D01*
X0586574Y0105662D01*
X0587723Y0106544D01*
X0597623Y0116444D01*
X0597623Y0116444D01*
X0598504Y0117592D01*
X0599058Y0118930D01*
X0599134Y0119508D01*
X0605067D01*
X0617500Y0093237D01*
X0617500Y0002039D01*
X0002039D01*
Y0242804D01*
X0142501Y0243101D01*
X0147800Y0248400D01*
Y0288961D01*
X0202159D01*
Y0285000D01*
D02*
G37*
%LPC*%
G36*
X1078740Y0279993D02*
X1077113Y0279833D01*
X1075549Y0279358D01*
X1074107Y0278588D01*
X1072843Y0277550D01*
X1071806Y0276287D01*
X1071035Y0274845D01*
X1070561Y0273281D01*
X1070401Y0271654D01*
X1070561Y0270027D01*
X1071035Y0268462D01*
X1071806Y0267020D01*
X1072843Y0265757D01*
X1074107Y0264720D01*
X1075549Y0263949D01*
X1077113Y0263474D01*
X1078740Y0263314D01*
X1080367Y0263474D01*
X1081931Y0263949D01*
X1083373Y0264720D01*
X1084637Y0265757D01*
X1085674Y0267020D01*
X1086445Y0268462D01*
X1086919Y0270027D01*
X1087080Y0271654D01*
X1086919Y0273281D01*
X1086445Y0274845D01*
X1085674Y0276287D01*
X1084637Y0277550D01*
X1083373Y0278588D01*
X1081931Y0279358D01*
X1080367Y0279833D01*
X1078740Y0279993D01*
D02*
G37*
G36*
X1078740Y0028024D02*
X1077113Y0027864D01*
X1075549Y0027390D01*
X1074107Y0026619D01*
X1072843Y0025582D01*
X1071806Y0024318D01*
X1071035Y0022876D01*
X1070561Y0021312D01*
X1070401Y0019685D01*
X1070561Y0018058D01*
X1071035Y0016494D01*
X1071806Y0015052D01*
X1072843Y0013788D01*
X1074107Y0012751D01*
X1075549Y0011981D01*
X1077113Y0011506D01*
X1078740Y0011346D01*
X1080367Y0011506D01*
X1081931Y0011981D01*
X1083373Y0012751D01*
X1084637Y0013788D01*
X1085674Y0015052D01*
X1086445Y0016494D01*
X1086919Y0018058D01*
X1087080Y0019685D01*
X1086919Y0021312D01*
X1086445Y0022876D01*
X1085674Y0024318D01*
X1084637Y0025582D01*
X1083373Y0026619D01*
X1081931Y0027390D01*
X1080367Y0027864D01*
X1078740Y0028024D01*
D02*
G37*
G36*
X0876640Y0107163D02*
X0875399Y0107000D01*
X0874242Y0106520D01*
X0874149Y0106449D01*
X0872703Y0105947D01*
X0871258Y0106449D01*
X0871165Y0106520D01*
X0870008Y0107000D01*
X0868766Y0107163D01*
X0867525Y0107000D01*
X0866368Y0106520D01*
X0866275Y0106449D01*
X0864829Y0105947D01*
X0863384Y0106449D01*
X0863291Y0106520D01*
X0862134Y0107000D01*
X0860892Y0107163D01*
X0859651Y0107000D01*
X0858494Y0106520D01*
X0857500Y0105758D01*
X0856738Y0104765D01*
X0856259Y0103608D01*
X0856095Y0102366D01*
X0856259Y0101125D01*
X0856738Y0099968D01*
X0857500Y0098974D01*
X0858494Y0098212D01*
X0859651Y0097733D01*
X0860892Y0097569D01*
X0862134Y0097733D01*
X0863291Y0098212D01*
X0863384Y0098283D01*
X0864829Y0098785D01*
X0866275Y0098283D01*
X0866368Y0098212D01*
X0867525Y0097733D01*
X0868766Y0097569D01*
X0870008Y0097733D01*
X0871165Y0098212D01*
X0871258Y0098283D01*
X0872703Y0098785D01*
X0874149Y0098283D01*
X0874242Y0098212D01*
X0875399Y0097733D01*
X0876640Y0097569D01*
X0877882Y0097733D01*
X0879039Y0098212D01*
X0880032Y0098974D01*
X0880795Y0099968D01*
X0881274Y0101125D01*
X0881437Y0102366D01*
X0881274Y0103608D01*
X0880795Y0104765D01*
X0880032Y0105758D01*
X0879039Y0106520D01*
X0877882Y0107000D01*
X0876640Y0107163D01*
D02*
G37*
G36*
X0830611Y0096797D02*
X0829369Y0096633D01*
X0828212Y0096154D01*
X0827219Y0095392D01*
X0826129D01*
X0825135Y0096154D01*
X0823978Y0096633D01*
X0822737Y0096797D01*
X0821495Y0096633D01*
X0820338Y0096154D01*
X0819345Y0095392D01*
X0817787Y0094776D01*
X0816811Y0095240D01*
X0816757Y0095281D01*
X0815843Y0095659D01*
X0815363Y0095723D01*
Y0092000D01*
Y0088278D01*
X0815843Y0088341D01*
X0816757Y0088719D01*
X0816811Y0088760D01*
X0817787Y0089224D01*
X0819345Y0088608D01*
X0820338Y0087846D01*
X0821495Y0087366D01*
X0822737Y0087203D01*
X0823978Y0087366D01*
X0825135Y0087846D01*
X0826129Y0088608D01*
X0827219D01*
X0828212Y0087846D01*
X0829369Y0087366D01*
X0829941Y0087291D01*
X0830713Y0085595D01*
X0830735Y0085257D01*
X0828018Y0082539D01*
X0827127D01*
X0827007Y0082619D01*
X0826129Y0082794D01*
X0825251Y0082619D01*
X0824507Y0082122D01*
X0824009Y0081378D01*
X0823835Y0080500D01*
X0824009Y0079622D01*
X0824507Y0078878D01*
X0825251Y0078381D01*
X0826129Y0078206D01*
X0827007Y0078381D01*
X0827127Y0078461D01*
X0828862D01*
X0829220Y0078532D01*
X0830283Y0077148D01*
X0830399Y0076882D01*
X0818105Y0064589D01*
X0765498D01*
X0765378Y0064669D01*
X0764500Y0064844D01*
X0763622Y0064669D01*
X0762878Y0064172D01*
X0762381Y0063428D01*
X0762206Y0062550D01*
X0762381Y0061672D01*
X0762878Y0060927D01*
X0763622Y0060430D01*
X0764500Y0060255D01*
X0765378Y0060430D01*
X0765498Y0060510D01*
X0818950D01*
X0819730Y0060666D01*
X0820391Y0061108D01*
X0839429Y0080145D01*
X0840000Y0080070D01*
X0840914Y0080190D01*
X0841765Y0080543D01*
X0842496Y0081104D01*
X0843057Y0081835D01*
X0843410Y0082686D01*
X0843530Y0083600D01*
X0843410Y0084514D01*
X0843057Y0085365D01*
X0842496Y0086096D01*
X0841765Y0086657D01*
X0841748Y0086664D01*
X0841185Y0088858D01*
X0842052Y0089917D01*
X0854684D01*
X0854804Y0089837D01*
X0855682Y0089663D01*
X0856560Y0089837D01*
X0857304Y0090334D01*
X0857801Y0091079D01*
X0857976Y0091957D01*
X0857801Y0092835D01*
X0857304Y0093579D01*
X0856560Y0094076D01*
X0855682Y0094251D01*
X0854804Y0094076D01*
X0854684Y0093996D01*
X0840319D01*
X0840319Y0093996D01*
X0839538Y0093841D01*
X0838877Y0093399D01*
X0837354Y0091876D01*
X0837016Y0091897D01*
X0835320Y0092670D01*
X0835244Y0093242D01*
X0834765Y0094398D01*
X0834003Y0095392D01*
X0833009Y0096154D01*
X0831852Y0096633D01*
X0830611Y0096797D01*
D02*
G37*
G36*
X0814363Y0095723D02*
X0813882Y0095659D01*
X0812969Y0095281D01*
X0812184Y0094679D01*
X0811582Y0093894D01*
X0811203Y0092980D01*
X0811140Y0092500D01*
X0814363D01*
Y0095723D01*
D02*
G37*
G36*
X0686575Y0094453D02*
X0683122D01*
Y0091000D01*
X0686575D01*
Y0094453D01*
D02*
G37*
G36*
X0814363Y0091500D02*
X0811140D01*
X0811203Y0091019D01*
X0811582Y0090106D01*
X0812184Y0089321D01*
X0812969Y0088719D01*
X0813882Y0088341D01*
X0814363Y0088278D01*
Y0091500D01*
D02*
G37*
G36*
X0643252Y0095495D02*
X0641959Y0095325D01*
X0640754Y0094826D01*
X0639720Y0094032D01*
X0638926Y0092998D01*
X0638427Y0091793D01*
X0638256Y0090500D01*
X0638427Y0089207D01*
X0638926Y0088002D01*
X0639545Y0086563D01*
X0638926Y0085124D01*
X0638427Y0083919D01*
X0638256Y0082626D01*
X0638427Y0081333D01*
X0638926Y0080128D01*
X0639720Y0079094D01*
X0640754Y0078300D01*
X0641959Y0077801D01*
X0643252Y0077631D01*
X0644545Y0077801D01*
X0645750Y0078300D01*
X0646784Y0079094D01*
X0647594D01*
X0648628Y0078300D01*
X0649833Y0077801D01*
X0651126Y0077631D01*
X0652419Y0077801D01*
X0653387Y0078202D01*
X0657971Y0073619D01*
X0658467Y0073287D01*
X0659052Y0073171D01*
X0696700D01*
X0697285Y0073287D01*
X0697781Y0073619D01*
X0700891Y0076728D01*
X0701000Y0076706D01*
X0701878Y0076881D01*
X0702622Y0077378D01*
X0702684Y0077471D01*
X0713500D01*
X0714085Y0077587D01*
X0714581Y0077919D01*
X0718213Y0081550D01*
X0722000D01*
Y0081550D01*
X0723492Y0082776D01*
X0723878Y0082853D01*
X0724622Y0083350D01*
X0725119Y0084095D01*
X0725294Y0084972D01*
X0725119Y0085850D01*
X0724694Y0086486D01*
X0724820Y0087082D01*
X0725391Y0088486D01*
X0744816D01*
X0744878Y0088394D01*
X0745622Y0087896D01*
X0746500Y0087722D01*
X0747378Y0087896D01*
X0748122Y0088394D01*
X0748619Y0089138D01*
X0748794Y0090016D01*
X0748619Y0090894D01*
X0748122Y0091638D01*
X0747378Y0092135D01*
X0746500Y0092310D01*
X0745622Y0092135D01*
X0744878Y0091638D01*
X0744816Y0091545D01*
X0722000D01*
Y0092450D01*
X0717000D01*
Y0091529D01*
X0710500D01*
Y0092500D01*
X0705500D01*
Y0088300D01*
X0705500Y0087800D01*
X0705429Y0085829D01*
X0701462D01*
X0700877Y0085713D01*
X0700381Y0085381D01*
X0699580Y0084581D01*
X0693281Y0078281D01*
X0688052D01*
X0687233Y0079652D01*
X0687012Y0080281D01*
X0687447Y0081333D01*
X0687617Y0082626D01*
X0687447Y0083919D01*
X0687097Y0084764D01*
X0686575Y0086547D01*
X0686575D01*
Y0090000D01*
X0682622D01*
Y0090500D01*
X0682122D01*
Y0094453D01*
X0678669D01*
X0678669Y0094453D01*
X0676741Y0093953D01*
X0675780Y0094351D01*
X0675248Y0094421D01*
Y0090500D01*
X0674248D01*
Y0094421D01*
X0673716Y0094351D01*
X0672755Y0093953D01*
X0672034Y0093400D01*
X0671882Y0093319D01*
X0669740D01*
X0669588Y0093400D01*
X0668867Y0093953D01*
X0667906Y0094351D01*
X0667374Y0094421D01*
Y0090500D01*
X0666374D01*
Y0094421D01*
X0665842Y0094351D01*
X0664881Y0093953D01*
X0664160Y0093400D01*
X0664008Y0093319D01*
X0661866D01*
X0661714Y0093400D01*
X0660993Y0093953D01*
X0660032Y0094351D01*
X0659500Y0094421D01*
Y0090500D01*
X0658500D01*
Y0094421D01*
X0657968Y0094351D01*
X0657007Y0093953D01*
X0656286Y0093400D01*
X0656134Y0093319D01*
X0653992D01*
X0653840Y0093400D01*
X0653119Y0093953D01*
X0652158Y0094351D01*
X0651626Y0094421D01*
Y0090500D01*
X0650626D01*
Y0094421D01*
X0650094Y0094351D01*
X0649132Y0093953D01*
X0648195Y0093377D01*
X0646500Y0094250D01*
X0645750Y0094826D01*
X0644545Y0095325D01*
X0643252Y0095495D01*
D02*
G37*
G36*
X0846380Y0070520D02*
X0844369D01*
X0844270Y0070500D01*
X0844170Y0070500D01*
X0844110Y0070475D01*
X0844046Y0070467D01*
X0844046Y0070467D01*
X0844014Y0070449D01*
X0843978Y0070442D01*
X0843978Y0070442D01*
X0843974Y0070439D01*
X0843813Y0070372D01*
X0843807Y0070371D01*
X0843807Y0070371D01*
X0843723Y0070315D01*
X0843631Y0070277D01*
X0843560Y0070206D01*
X0843476Y0070150D01*
X0843405Y0070079D01*
X0843405Y0070079D01*
X0843367Y0070041D01*
X0843324Y0069977D01*
X0843267Y0069925D01*
X0843048Y0069627D01*
X0843039Y0069607D01*
X0843039Y0069607D01*
X0842998Y0069551D01*
X0842965Y0069481D01*
X0842946Y0069455D01*
X0842937Y0069436D01*
X0842900Y0069387D01*
X0842893Y0069361D01*
X0842877Y0069336D01*
X0842874Y0069329D01*
X0842859Y0069255D01*
X0842829Y0069191D01*
X0842825Y0069104D01*
X0842798Y0069003D01*
X0842797Y0068977D01*
X0842797Y0068977D01*
X0842800Y0068956D01*
X0842796Y0068939D01*
X0842796Y0068939D01*
X0842798Y0068931D01*
X0842795Y0068914D01*
X0842795Y0068864D01*
X0842790Y0068841D01*
Y0026458D01*
X0842792Y0026448D01*
X0842790Y0026438D01*
X0842831Y0026253D01*
X0842868Y0026068D01*
X0842874Y0026059D01*
X0842876Y0026049D01*
X0843015Y0025730D01*
X0843118Y0025584D01*
X0843214Y0025433D01*
X0843231Y0025421D01*
X0843243Y0025404D01*
X0843394Y0025308D01*
X0843540Y0025206D01*
X0843859Y0025066D01*
X0843869Y0025064D01*
X0843878Y0025058D01*
X0844063Y0025021D01*
X0844248Y0024981D01*
X0844258Y0024982D01*
X0844268Y0024980D01*
X0849846D01*
X0874554Y0024980D01*
X0876741D01*
X0876741Y0024980D01*
X0876841Y0024980D01*
X0876940Y0025000D01*
X0877040Y0025000D01*
X0877133Y0025038D01*
X0877231Y0025058D01*
X0877236Y0025061D01*
X0877236Y0025061D01*
X0877397Y0025128D01*
X0877403Y0025129D01*
X0877486Y0025185D01*
X0877579Y0025223D01*
X0877650Y0025294D01*
X0877734Y0025350D01*
X0878050Y0025666D01*
X0878106Y0025750D01*
X0878176Y0025821D01*
X0878215Y0025914D01*
X0878271Y0025997D01*
X0878272Y0026003D01*
X0878339Y0026164D01*
X0878342Y0026169D01*
X0878362Y0026267D01*
X0878400Y0026360D01*
X0878400Y0026460D01*
X0878420Y0026559D01*
X0878420Y0064042D01*
X0878417Y0064052D01*
X0878419Y0064062D01*
X0878379Y0064247D01*
X0878342Y0064432D01*
X0878336Y0064440D01*
X0878334Y0064451D01*
X0878194Y0064770D01*
X0878092Y0064916D01*
X0877996Y0065067D01*
X0877979Y0065079D01*
X0877967Y0065096D01*
X0877816Y0065192D01*
X0877669Y0065294D01*
X0877351Y0065434D01*
X0877340Y0065436D01*
X0877332Y0065442D01*
X0877147Y0065479D01*
X0876962Y0065519D01*
X0876952Y0065518D01*
X0876941Y0065520D01*
X0864027Y0065520D01*
X0859397Y0070150D01*
X0859313Y0070206D01*
X0859242Y0070277D01*
X0859241Y0070277D01*
X0859155Y0070313D01*
X0859077Y0070366D01*
X0859077Y0070366D01*
X0859071Y0070367D01*
X0859066Y0070371D01*
X0859061Y0070372D01*
X0859060Y0070372D01*
X0858899Y0070439D01*
X0858895Y0070442D01*
X0858796Y0070462D01*
X0858703Y0070500D01*
X0858639Y0070500D01*
X0858577Y0070517D01*
X0858540Y0070512D01*
X0858504Y0070520D01*
X0855947D01*
X0846380Y0070520D01*
D02*
G37*
G36*
X0699300Y0067234D02*
X0698422Y0067060D01*
X0697678Y0066562D01*
X0697181Y0065818D01*
X0697006Y0064940D01*
X0697181Y0064062D01*
X0697678Y0063318D01*
X0698422Y0062821D01*
X0699300Y0062646D01*
X0700178Y0062821D01*
X0700922Y0063318D01*
X0701419Y0064062D01*
X0701594Y0064940D01*
X0701419Y0065818D01*
X0700922Y0066562D01*
X0700178Y0067060D01*
X0699300Y0067234D01*
D02*
G37*
G36*
X0689876D02*
X0688998Y0067060D01*
X0688254Y0066562D01*
X0687757Y0065818D01*
X0687582Y0064940D01*
X0687757Y0064062D01*
X0688254Y0063318D01*
X0688998Y0062821D01*
X0689876Y0062646D01*
X0690754Y0062821D01*
X0691498Y0063318D01*
X0691996Y0064062D01*
X0692170Y0064940D01*
X0691996Y0065818D01*
X0691498Y0066562D01*
X0690754Y0067060D01*
X0689876Y0067234D01*
D02*
G37*
G36*
X0680700D02*
X0679822Y0067060D01*
X0679078Y0066562D01*
X0678581Y0065818D01*
X0678406Y0064940D01*
X0678581Y0064062D01*
X0679078Y0063318D01*
X0679822Y0062821D01*
X0680700Y0062646D01*
X0681578Y0062821D01*
X0682322Y0063318D01*
X0682819Y0064062D01*
X0682994Y0064940D01*
X0682819Y0065818D01*
X0682322Y0066562D01*
X0681578Y0067060D01*
X0680700Y0067234D01*
D02*
G37*
G36*
X0739650Y0058294D02*
X0738772Y0058119D01*
X0738027Y0057622D01*
X0737530Y0056878D01*
X0737524Y0056845D01*
X0737150Y0055000D01*
X0737150D01*
Y0050000D01*
X0738473D01*
X0739793Y0048117D01*
X0739550Y0047011D01*
X0739550D01*
Y0042011D01*
X0743750D01*
X0744250Y0042011D01*
X0745750D01*
X0746250Y0042011D01*
X0750450D01*
Y0044631D01*
X0750970Y0044978D01*
X0751467Y0045722D01*
X0751642Y0046600D01*
X0751467Y0047478D01*
X0750970Y0048222D01*
X0750225Y0048719D01*
X0749347Y0048894D01*
X0748050Y0050301D01*
Y0055000D01*
X0743784D01*
X0742655Y0055613D01*
X0741886Y0056293D01*
X0741769Y0056878D01*
X0741272Y0057622D01*
X0740527Y0058119D01*
X0739650Y0058294D01*
D02*
G37*
%LPD*%
G36*
X0851082Y0069500D02*
X0855947Y0069500D01*
X0858504D01*
X0858504Y0069500D01*
X0858505Y0069500D01*
X0858509Y0069497D01*
X0858670Y0069430D01*
X0858675Y0069429D01*
X0858676Y0069429D01*
X0858747Y0069358D01*
X0858747Y0069358D01*
X0863306Y0064799D01*
X0863306Y0064799D01*
X0863605Y0064500D01*
X0870220Y0064500D01*
X0876850Y0064500D01*
X0876928Y0064483D01*
X0876938Y0064483D01*
X0876948Y0064479D01*
X0877025Y0064463D01*
X0877168Y0064401D01*
X0877233Y0064356D01*
X0877249Y0064349D01*
X0877256Y0064333D01*
X0877301Y0064268D01*
X0877363Y0064125D01*
X0877379Y0064048D01*
X0877383Y0064038D01*
X0877383Y0064028D01*
X0877400Y0063950D01*
X0877400Y0047150D01*
X0877400Y0026559D01*
X0877400Y0026559D01*
X0877397Y0026554D01*
X0877330Y0026393D01*
X0877329Y0026388D01*
X0877329Y0026387D01*
X0877329Y0026387D01*
X0877013Y0026071D01*
X0877013Y0026071D01*
X0877007Y0026070D01*
X0876846Y0026003D01*
X0876841Y0026000D01*
X0876841Y0026000D01*
X0876741Y0026000D01*
X0876741Y0026000D01*
X0866636D01*
X0849846Y0026000D01*
X0844359D01*
X0844282Y0026017D01*
X0844272Y0026017D01*
X0844262Y0026021D01*
X0844185Y0026037D01*
X0844041Y0026099D01*
X0843977Y0026144D01*
X0843961Y0026151D01*
X0843954Y0026167D01*
X0843909Y0026232D01*
X0843846Y0026375D01*
X0843831Y0026452D01*
X0843827Y0026462D01*
X0843827Y0026472D01*
X0843810Y0026550D01*
Y0068840D01*
X0843811Y0068843D01*
X0843811Y0068848D01*
X0843814Y0068864D01*
X0843814Y0068901D01*
X0843817Y0068942D01*
X0843819Y0068946D01*
X0843819Y0068947D01*
X0843860Y0069002D01*
X0843860Y0069003D01*
X0843860Y0069003D01*
X0843869Y0069023D01*
X0843888Y0069048D01*
D01*
X0844088Y0069320D01*
Y0069320D01*
X0844088Y0069320D01*
X0844126Y0069358D01*
X0844126Y0069358D01*
X0844197Y0069429D01*
X0844197D01*
X0844203Y0069430D01*
X0844364Y0069497D01*
X0844369Y0069500D01*
X0851082D01*
D02*
G37*
%LPC*%
G36*
X0162874Y0239308D02*
X0161726Y0239157D01*
X0161396Y0239019D01*
X0159396Y0239270D01*
Y0239270D01*
X0150604D01*
Y0230478D01*
X0150604Y0230478D01*
X0150855Y0228478D01*
X0150717Y0228148D01*
X0150566Y0227000D01*
X0150717Y0225852D01*
X0151160Y0224783D01*
X0151865Y0223865D01*
Y0222261D01*
X0151160Y0221343D01*
X0150717Y0220273D01*
X0150566Y0219126D01*
X0150717Y0217979D01*
X0151160Y0216909D01*
X0151865Y0215991D01*
Y0214387D01*
X0151160Y0213469D01*
X0150717Y0212400D01*
X0150566Y0211252D01*
X0150717Y0210104D01*
X0151160Y0209035D01*
X0151865Y0208117D01*
Y0206513D01*
X0151160Y0205595D01*
X0150717Y0204525D01*
X0150566Y0203378D01*
X0150717Y0202231D01*
X0151160Y0201161D01*
X0151865Y0200243D01*
Y0198639D01*
X0151160Y0197721D01*
X0150717Y0196651D01*
X0150566Y0195504D01*
X0150644Y0194913D01*
X0149671Y0193497D01*
X0149102Y0193029D01*
X0134034D01*
X0131950Y0195113D01*
Y0198067D01*
X0127250D01*
X0126099Y0199590D01*
Y0219040D01*
X0127250Y0220563D01*
X0128099Y0220563D01*
X0131950D01*
Y0220658D01*
X0133950Y0221150D01*
X0134259Y0220943D01*
X0135137Y0220769D01*
X0136015Y0220943D01*
X0136759Y0221441D01*
X0137257Y0222185D01*
X0137431Y0223063D01*
X0137257Y0223941D01*
X0136759Y0224685D01*
X0136015Y0225182D01*
X0135137Y0225357D01*
X0134259Y0225182D01*
X0133950Y0224976D01*
X0131950Y0225468D01*
Y0225563D01*
X0127750D01*
X0127250Y0225563D01*
X0125750D01*
X0125250Y0225563D01*
X0124655D01*
X0119568Y0230649D01*
X0118741Y0231202D01*
X0117766Y0231396D01*
X0046609D01*
X0041328Y0236676D01*
X0040501Y0237229D01*
X0039526Y0237423D01*
X0038959D01*
X0038509Y0238009D01*
X0037591Y0238714D01*
X0036522Y0239157D01*
X0035374Y0239308D01*
X0034227Y0239157D01*
X0033157Y0238714D01*
X0032819Y0238454D01*
X0030896Y0238270D01*
X0030100Y0238270D01*
X0028000D01*
Y0234874D01*
X0027500D01*
Y0234374D01*
X0024104D01*
Y0232437D01*
X0024104Y0231478D01*
X0023920Y0229555D01*
X0023660Y0229217D01*
X0023217Y0228148D01*
X0023066Y0227000D01*
X0023217Y0225852D01*
X0023660Y0224783D01*
X0024365Y0223865D01*
Y0222261D01*
X0023660Y0221343D01*
X0023217Y0220273D01*
X0023066Y0219126D01*
X0023217Y0217979D01*
X0023660Y0216909D01*
X0024365Y0215991D01*
Y0214387D01*
X0023660Y0213469D01*
X0023217Y0212400D01*
X0023066Y0211252D01*
X0023217Y0210104D01*
X0023660Y0209035D01*
X0024365Y0208117D01*
Y0206513D01*
X0023660Y0205595D01*
X0023217Y0204525D01*
X0023066Y0203378D01*
X0023217Y0202231D01*
X0023660Y0201161D01*
X0024365Y0200243D01*
X0024598Y0200064D01*
X0024989Y0198324D01*
X0024806Y0197571D01*
X0024534Y0197216D01*
X0024192Y0196390D01*
X0024141Y0196004D01*
X0027500D01*
Y0195004D01*
X0024141D01*
X0024192Y0194617D01*
X0024534Y0193791D01*
X0024806Y0193437D01*
X0024989Y0192684D01*
X0024598Y0190944D01*
X0024365Y0190765D01*
X0023660Y0189847D01*
X0023217Y0188777D01*
X0023066Y0187630D01*
X0023217Y0186482D01*
X0023660Y0185413D01*
X0024365Y0184495D01*
Y0182891D01*
X0023660Y0181973D01*
X0023217Y0180903D01*
X0023066Y0179756D01*
X0023217Y0178608D01*
X0023660Y0177539D01*
X0024365Y0176621D01*
Y0175017D01*
X0023660Y0174099D01*
X0023217Y0173029D01*
X0023066Y0171882D01*
X0023217Y0170734D01*
X0023660Y0169665D01*
X0024365Y0168747D01*
Y0167143D01*
X0023660Y0166225D01*
X0023217Y0165155D01*
X0023066Y0164008D01*
X0023217Y0162860D01*
X0023660Y0161791D01*
X0024365Y0160873D01*
Y0159269D01*
X0023660Y0158351D01*
X0023217Y0157281D01*
X0023066Y0156134D01*
X0023217Y0154986D01*
X0023660Y0153917D01*
X0024365Y0152999D01*
Y0151395D01*
X0023660Y0150477D01*
X0023217Y0149407D01*
X0023066Y0148260D01*
X0023217Y0147112D01*
X0023660Y0146043D01*
X0024365Y0145125D01*
Y0143521D01*
X0023660Y0142603D01*
X0023217Y0141533D01*
X0023066Y0140386D01*
X0023217Y0139238D01*
X0023660Y0138169D01*
X0024365Y0137251D01*
Y0135647D01*
X0023660Y0134729D01*
X0023217Y0133659D01*
X0023066Y0132512D01*
X0023217Y0131364D01*
X0023660Y0130295D01*
X0024365Y0129377D01*
Y0127773D01*
X0023660Y0126855D01*
X0023217Y0125785D01*
X0023066Y0124638D01*
X0023217Y0123490D01*
X0023660Y0122421D01*
X0024365Y0121503D01*
Y0119899D01*
X0023660Y0118981D01*
X0023217Y0117911D01*
X0023066Y0116764D01*
X0023217Y0115616D01*
X0023660Y0114547D01*
X0024365Y0113629D01*
X0025283Y0112924D01*
X0026353Y0112481D01*
X0027500Y0112330D01*
X0028648Y0112481D01*
X0029717Y0112924D01*
X0030635Y0113629D01*
X0032239D01*
X0033157Y0112924D01*
X0034227Y0112481D01*
X0035374Y0112330D01*
X0036522Y0112481D01*
X0037591Y0112924D01*
X0038509Y0113629D01*
X0039214Y0114547D01*
X0039656Y0115616D01*
X0039808Y0116764D01*
X0039656Y0117911D01*
X0039214Y0118981D01*
X0038509Y0119899D01*
Y0121503D01*
X0039214Y0122421D01*
X0039656Y0123490D01*
X0039808Y0124638D01*
X0039656Y0125785D01*
X0039214Y0126855D01*
X0038509Y0127773D01*
Y0129377D01*
X0039214Y0130295D01*
X0039656Y0131364D01*
X0039808Y0132512D01*
X0039656Y0133659D01*
X0039214Y0134729D01*
X0038509Y0135647D01*
Y0137251D01*
X0039214Y0138169D01*
X0039656Y0139238D01*
X0039808Y0140386D01*
X0039656Y0141533D01*
X0039214Y0142603D01*
X0038509Y0143521D01*
Y0145125D01*
X0039214Y0146043D01*
X0039656Y0147112D01*
X0039808Y0148260D01*
X0039656Y0149407D01*
X0039214Y0150477D01*
X0038509Y0151395D01*
Y0152999D01*
X0039214Y0153917D01*
X0039656Y0154986D01*
X0039808Y0156134D01*
X0039656Y0157281D01*
X0039214Y0158351D01*
X0038509Y0159269D01*
X0038276Y0159448D01*
X0037885Y0161188D01*
X0038068Y0161941D01*
X0038340Y0162295D01*
X0038682Y0163121D01*
X0038733Y0163508D01*
X0035374D01*
Y0164508D01*
X0038733D01*
X0038682Y0164894D01*
X0038340Y0165720D01*
X0038068Y0166075D01*
X0037885Y0166828D01*
X0038276Y0168568D01*
X0038509Y0168747D01*
X0039214Y0169665D01*
X0039656Y0170734D01*
X0039808Y0171882D01*
X0039656Y0173029D01*
X0039214Y0174099D01*
X0038509Y0175017D01*
Y0176621D01*
X0039214Y0177539D01*
X0039656Y0178608D01*
X0039808Y0179756D01*
X0039656Y0180903D01*
X0039214Y0181973D01*
X0038509Y0182891D01*
Y0184495D01*
X0039214Y0185413D01*
X0039656Y0186482D01*
X0039808Y0187630D01*
X0039656Y0188777D01*
X0039214Y0189847D01*
X0038509Y0190765D01*
Y0192369D01*
X0039214Y0193287D01*
X0039656Y0194356D01*
X0039808Y0195504D01*
X0039656Y0196651D01*
X0039214Y0197721D01*
X0038509Y0198639D01*
Y0200243D01*
X0039214Y0201161D01*
X0039656Y0202231D01*
X0039808Y0203378D01*
X0039656Y0204525D01*
X0039214Y0205595D01*
X0038509Y0206513D01*
Y0208117D01*
X0039214Y0209035D01*
X0039656Y0210104D01*
X0039808Y0211252D01*
X0039656Y0212400D01*
X0039214Y0213469D01*
X0038509Y0214387D01*
Y0215991D01*
X0039214Y0216909D01*
X0039656Y0217979D01*
X0039808Y0219126D01*
X0039656Y0220273D01*
X0039214Y0221343D01*
X0038509Y0222261D01*
Y0223865D01*
X0039214Y0224783D01*
X0039656Y0225852D01*
X0039808Y0227000D01*
X0039656Y0228148D01*
X0039542Y0228425D01*
X0041237Y0229558D01*
X0043751Y0227045D01*
X0044577Y0226492D01*
X0045553Y0226298D01*
X0116710D01*
X0121001Y0222007D01*
Y0196321D01*
X0120851Y0195567D01*
X0121001Y0194813D01*
Y0172636D01*
X0120851Y0171882D01*
X0121001Y0171128D01*
Y0125392D01*
X0120851Y0124638D01*
X0121001Y0123884D01*
Y0104999D01*
X0088000Y0104999D01*
X0087994Y0104998D01*
X0087988Y0104999D01*
X0081247Y0104968D01*
X0068599Y0117616D01*
Y0132030D01*
X0068649Y0132281D01*
Y0132512D01*
X0068455Y0133487D01*
X0068450Y0133495D01*
Y0135012D01*
X0066346D01*
X0066100Y0135061D01*
X0065854Y0135012D01*
X0064250D01*
X0063750Y0135012D01*
X0062250D01*
X0061750Y0135012D01*
X0057550D01*
Y0135012D01*
X0056000Y0134806D01*
X0055663Y0134739D01*
X0055122Y0134631D01*
X0054378Y0134134D01*
X0053881Y0133390D01*
X0053706Y0132512D01*
X0053881Y0131634D01*
X0054378Y0130890D01*
X0055122Y0130392D01*
X0055663Y0130285D01*
X0056000Y0130218D01*
X0057550Y0130012D01*
Y0130012D01*
X0061501D01*
X0062250Y0130012D01*
X0063501Y0128530D01*
Y0116560D01*
X0063695Y0115585D01*
X0064248Y0114758D01*
X0077647Y0101359D01*
Y0047504D01*
X0077841Y0046529D01*
X0078393Y0045702D01*
X0091856Y0032239D01*
X0091822Y0031810D01*
X0091066Y0030201D01*
X0090591Y0030139D01*
X0089558Y0029711D01*
X0088670Y0029030D01*
X0087989Y0028142D01*
X0087733Y0027523D01*
X0087219Y0027411D01*
X0086181D01*
X0085667Y0027523D01*
X0085411Y0028142D01*
X0084730Y0029030D01*
X0083842Y0029711D01*
X0082809Y0030139D01*
X0082200Y0030219D01*
Y0026000D01*
X0081200D01*
Y0030219D01*
X0080591Y0030139D01*
X0079558Y0029711D01*
X0078670Y0029030D01*
X0078424Y0028708D01*
X0076710Y0028659D01*
X0076612Y0028671D01*
X0076121Y0028859D01*
X0075443Y0029743D01*
X0074347Y0030584D01*
X0073070Y0031113D01*
X0071700Y0031293D01*
X0070330Y0031113D01*
X0069053Y0030584D01*
X0067957Y0029743D01*
X0067917Y0029691D01*
X0065483D01*
X0065443Y0029743D01*
X0064347Y0030584D01*
X0063070Y0031113D01*
X0061700Y0031293D01*
X0060330Y0031113D01*
X0059053Y0030584D01*
X0057957Y0029743D01*
X0057116Y0028647D01*
X0056587Y0027370D01*
X0056407Y0026000D01*
X0056587Y0024630D01*
X0057116Y0023353D01*
X0057957Y0022257D01*
X0058009Y0022217D01*
Y0019783D01*
X0057957Y0019743D01*
X0057116Y0018647D01*
X0056587Y0017370D01*
X0056407Y0016000D01*
X0056587Y0014630D01*
X0057116Y0013353D01*
X0057957Y0012257D01*
X0059053Y0011416D01*
X0060330Y0010887D01*
X0061700Y0010707D01*
X0063070Y0010887D01*
X0064347Y0011416D01*
X0065443Y0012257D01*
X0065483Y0012309D01*
X0067917D01*
X0067957Y0012257D01*
X0069053Y0011416D01*
X0070330Y0010887D01*
X0071700Y0010707D01*
X0073070Y0010887D01*
X0074347Y0011416D01*
X0075443Y0012257D01*
X0075483Y0012309D01*
X0077917D01*
X0077957Y0012257D01*
X0079053Y0011416D01*
X0080330Y0010887D01*
X0081700Y0010707D01*
X0083070Y0010887D01*
X0084347Y0011416D01*
X0085443Y0012257D01*
X0085483Y0012309D01*
X0087917D01*
X0087957Y0012257D01*
X0089053Y0011416D01*
X0090330Y0010887D01*
X0091700Y0010707D01*
X0093070Y0010887D01*
X0094347Y0011416D01*
X0095443Y0012257D01*
X0095483Y0012309D01*
X0097917D01*
X0097957Y0012257D01*
X0099053Y0011416D01*
X0100330Y0010887D01*
X0101700Y0010707D01*
X0103070Y0010887D01*
X0104347Y0011416D01*
X0105443Y0012257D01*
X0106284Y0013353D01*
X0106813Y0014630D01*
X0106993Y0016000D01*
X0106813Y0017370D01*
X0106284Y0018647D01*
X0106203Y0018752D01*
X0106948Y0020752D01*
X0106948D01*
Y0031248D01*
X0100057D01*
X0082745Y0048560D01*
Y0099877D01*
X0088005Y0099901D01*
X0123451Y0099901D01*
X0125451Y0099662D01*
Y0078483D01*
X0125645Y0077508D01*
X0126198Y0076681D01*
X0163349Y0039529D01*
X0162521Y0037529D01*
X0159057D01*
X0158472Y0037413D01*
X0157976Y0037081D01*
X0154404Y0033510D01*
X0154073Y0033013D01*
X0153956Y0032428D01*
Y0031527D01*
X0152988Y0031126D01*
X0151549Y0030507D01*
X0150109Y0031126D01*
X0148905Y0031625D01*
X0147993Y0031745D01*
X0136857Y0042881D01*
X0136361Y0043213D01*
X0135775Y0043329D01*
X0130884D01*
X0130822Y0043422D01*
X0130078Y0043920D01*
X0129200Y0044094D01*
X0128322Y0043920D01*
X0127578Y0043422D01*
X0127081Y0042678D01*
X0126906Y0041800D01*
X0127081Y0040922D01*
X0127578Y0040178D01*
X0128322Y0039680D01*
X0129200Y0039506D01*
X0130078Y0039680D01*
X0130822Y0040178D01*
X0130884Y0040271D01*
X0135142D01*
X0142035Y0033377D01*
X0141101Y0031761D01*
X0140948Y0031636D01*
X0139737Y0031795D01*
X0139000Y0031698D01*
X0134617Y0036081D01*
X0134121Y0036413D01*
X0133536Y0036529D01*
X0130470D01*
X0130408Y0036622D01*
X0129664Y0037119D01*
X0128786Y0037294D01*
X0127908Y0037119D01*
X0127163Y0036622D01*
X0126666Y0035878D01*
X0126564Y0035362D01*
X0125479Y0034770D01*
X0124540Y0034557D01*
X0122029Y0037068D01*
Y0040980D01*
X0130381Y0049332D01*
X0130713Y0049829D01*
X0130829Y0050414D01*
Y0053516D01*
X0130922Y0053578D01*
X0131420Y0054322D01*
X0131594Y0055200D01*
X0131420Y0056078D01*
X0130922Y0056822D01*
X0130178Y0057319D01*
X0129300Y0057494D01*
X0128422Y0057319D01*
X0127678Y0056822D01*
X0127181Y0056078D01*
X0127006Y0055200D01*
X0127181Y0054322D01*
X0127678Y0053578D01*
X0127771Y0053516D01*
Y0051047D01*
X0119419Y0042695D01*
X0119087Y0042199D01*
X0118971Y0041614D01*
Y0036435D01*
X0119087Y0035849D01*
X0119419Y0035353D01*
X0131003Y0023769D01*
X0129832Y0022112D01*
X0129417Y0022194D01*
X0128539Y0022019D01*
X0127795Y0021522D01*
X0127298Y0020778D01*
X0127123Y0019900D01*
X0127197Y0019529D01*
X0126343Y0018010D01*
X0126202Y0017861D01*
X0124322Y0017622D01*
X0123578Y0018120D01*
X0122700Y0018294D01*
X0121822Y0018120D01*
X0121078Y0017622D01*
X0120580Y0016878D01*
X0120406Y0016000D01*
X0120580Y0015122D01*
X0121078Y0014378D01*
X0121822Y0013881D01*
X0122700Y0013706D01*
X0123578Y0013881D01*
X0124322Y0014378D01*
X0124384Y0014471D01*
X0126967D01*
X0132660Y0008777D01*
X0133156Y0008445D01*
X0133742Y0008329D01*
X0162166D01*
X0162751Y0008445D01*
X0163248Y0008777D01*
X0168972Y0014502D01*
X0169941Y0014101D01*
X0171234Y0013930D01*
X0172527Y0014101D01*
X0172541Y0014107D01*
X0172874Y0014049D01*
X0174539Y0012976D01*
X0174583Y0011675D01*
X0174140Y0011233D01*
X0173572Y0011119D01*
X0172827Y0010622D01*
X0172330Y0009878D01*
X0172155Y0009000D01*
X0172330Y0008122D01*
X0172827Y0007378D01*
X0173572Y0006881D01*
X0174450Y0006706D01*
X0175327Y0006881D01*
X0176072Y0007378D01*
X0176569Y0008122D01*
X0176744Y0009000D01*
X0176659Y0009425D01*
X0178031Y0010797D01*
X0178363Y0011294D01*
X0178479Y0011879D01*
Y0023247D01*
X0178363Y0023832D01*
X0178031Y0024328D01*
X0176151Y0026208D01*
X0176229Y0026800D01*
X0176059Y0028093D01*
X0175560Y0029298D01*
X0174766Y0030332D01*
X0173731Y0031126D01*
X0172527Y0031625D01*
X0171234Y0031795D01*
X0169941Y0031625D01*
X0168736Y0031126D01*
X0167985Y0030550D01*
X0166290Y0029677D01*
X0165353Y0030253D01*
X0164392Y0030651D01*
X0163860Y0030721D01*
Y0026800D01*
X0162860D01*
Y0030721D01*
X0162328Y0030651D01*
X0161366Y0030253D01*
X0160429Y0029677D01*
X0158734Y0030550D01*
X0158658Y0030609D01*
X0158265Y0032646D01*
X0158357Y0033136D01*
X0159691Y0034471D01*
X0174366D01*
X0183443Y0025394D01*
Y0010684D01*
X0183350Y0010622D01*
X0182853Y0009878D01*
X0182678Y0009000D01*
X0182853Y0008122D01*
X0183350Y0007378D01*
X0184094Y0006881D01*
X0184972Y0006706D01*
X0185850Y0006881D01*
X0186594Y0007378D01*
X0187092Y0008122D01*
X0187266Y0009000D01*
X0187118Y0009747D01*
X0187765Y0010588D01*
X0187822Y0010647D01*
X0188581Y0011249D01*
X0188731Y0011219D01*
X0190500Y0010600D01*
X0190500Y0010600D01*
X0190500Y0010600D01*
X0194700D01*
X0195200Y0010600D01*
X0196700D01*
X0197200Y0010600D01*
X0201400D01*
Y0010961D01*
X0237846D01*
X0237896Y0010896D01*
X0238512Y0010423D01*
X0239230Y0010126D01*
X0240000Y0010024D01*
X0240400Y0010077D01*
X0244318Y0006159D01*
X0244318Y0006159D01*
X0244897Y0005772D01*
X0245580Y0005636D01*
X0245580Y0005636D01*
X0275600D01*
X0276283Y0005772D01*
X0276862Y0006159D01*
X0278664Y0007961D01*
X0281774D01*
Y0015835D01*
Y0024165D01*
X0279229D01*
Y0033516D01*
X0279322Y0033578D01*
X0279819Y0034322D01*
X0279994Y0035200D01*
X0279819Y0036078D01*
X0279322Y0036822D01*
X0278578Y0037319D01*
X0277700Y0037494D01*
X0276822Y0037319D01*
X0276078Y0036822D01*
X0275581Y0036078D01*
X0275406Y0035200D01*
X0275581Y0034322D01*
X0276078Y0033578D01*
X0276171Y0033516D01*
Y0024165D01*
X0273443D01*
Y0024165D01*
X0273264Y0024133D01*
X0271264Y0025801D01*
Y0030616D01*
X0271356Y0030678D01*
X0271854Y0031422D01*
X0272028Y0032300D01*
X0271854Y0033178D01*
X0271356Y0033922D01*
X0270612Y0034420D01*
X0269734Y0034594D01*
X0268856Y0034420D01*
X0268112Y0033922D01*
X0267615Y0033178D01*
X0267440Y0032300D01*
X0267615Y0031422D01*
X0268112Y0030678D01*
X0268205Y0030616D01*
Y0023875D01*
X0267634Y0023638D01*
X0267034Y0023178D01*
X0266738Y0022971D01*
X0266443D01*
X0264487Y0023235D01*
X0263961Y0023638D01*
X0263390Y0023875D01*
Y0027916D01*
X0263482Y0027978D01*
X0263980Y0028722D01*
X0264154Y0029600D01*
X0263980Y0030478D01*
X0263482Y0031222D01*
X0262738Y0031719D01*
X0261860Y0031894D01*
X0260982Y0031719D01*
X0260238Y0031222D01*
X0259741Y0030478D01*
X0259566Y0029600D01*
X0259741Y0028722D01*
X0260238Y0027978D01*
X0260331Y0027916D01*
Y0023875D01*
X0259760Y0023638D01*
X0259234Y0023235D01*
X0257923Y0023058D01*
X0256613Y0023235D01*
X0256390Y0023406D01*
X0256058Y0024158D01*
X0255973Y0025723D01*
X0256106Y0025922D01*
X0256280Y0026800D01*
X0256106Y0027678D01*
X0255608Y0028422D01*
X0254864Y0028920D01*
X0253986Y0029094D01*
X0253108Y0028920D01*
X0252364Y0028422D01*
X0251867Y0027678D01*
X0251692Y0026800D01*
X0251867Y0025922D01*
X0252000Y0025723D01*
X0251914Y0024158D01*
X0251583Y0023406D01*
X0251015Y0022971D01*
X0250348Y0022101D01*
X0249928Y0021087D01*
X0249785Y0020000D01*
X0249928Y0018913D01*
X0250348Y0017899D01*
X0251015Y0017029D01*
X0251524Y0016639D01*
X0251601Y0016484D01*
X0251775Y0014965D01*
X0251732Y0014428D01*
X0251658Y0014291D01*
X0251221Y0013722D01*
X0250902Y0012952D01*
X0250859Y0012626D01*
X0253986D01*
Y0011626D01*
X0250859D01*
X0250902Y0011300D01*
X0250942Y0011205D01*
X0250106Y0009547D01*
X0249717Y0009205D01*
X0246319D01*
X0242923Y0012600D01*
X0242975Y0013000D01*
X0242874Y0013770D01*
X0242577Y0014488D01*
X0242104Y0015104D01*
X0241488Y0015577D01*
X0240770Y0015874D01*
X0240000Y0015976D01*
X0239230Y0015874D01*
X0238512Y0015577D01*
X0237896Y0015104D01*
X0237846Y0015039D01*
X0201549D01*
Y0016536D01*
X0201355Y0017512D01*
X0200802Y0018338D01*
X0197809Y0021332D01*
X0196982Y0021884D01*
X0196007Y0022078D01*
X0192278D01*
X0190749Y0023608D01*
Y0029000D01*
X0190555Y0029976D01*
X0190002Y0030802D01*
X0178732Y0042073D01*
X0177905Y0042626D01*
X0176929Y0042820D01*
X0167268D01*
X0130549Y0079539D01*
Y0099901D01*
X0160889D01*
X0161041Y0099931D01*
X0161364D01*
X0162261Y0100110D01*
X0164183Y0100299D01*
X0164183Y0100299D01*
X0169081D01*
X0169341Y0100125D01*
X0170317Y0099931D01*
X0171187Y0097931D01*
X0170848Y0097549D01*
X0170761D01*
X0169786Y0097355D01*
X0168959Y0096802D01*
X0168945Y0096781D01*
X0167898D01*
Y0093219D01*
X0168945D01*
X0168959Y0093198D01*
X0169786Y0092645D01*
X0170761Y0092451D01*
X0173436D01*
X0174411Y0092645D01*
X0175238Y0093198D01*
X0177302Y0095262D01*
X0177855Y0096089D01*
X0178049Y0097064D01*
Y0099931D01*
X0181487D01*
X0187125Y0092038D01*
X0187148Y0092016D01*
X0187149Y0092013D01*
X0187189Y0091976D01*
X0187233Y0091909D01*
X0187258Y0091885D01*
X0187355Y0091820D01*
X0187439Y0091741D01*
X0187518Y0091711D01*
X0187589Y0091664D01*
X0187703Y0091641D01*
X0187811Y0091600D01*
X0187846Y0091594D01*
X0187926Y0091597D01*
X0187979Y0091586D01*
X0187982Y0091587D01*
X0188013Y0091580D01*
X0203400D01*
X0203498Y0091600D01*
X0203599Y0091600D01*
X0203691Y0091638D01*
X0203790Y0091658D01*
X0203802Y0091666D01*
X0203858Y0091690D01*
X0203930Y0091737D01*
X0203966Y0091752D01*
X0203979Y0091761D01*
X0204007Y0091789D01*
X0204189Y0091911D01*
X0204311Y0092093D01*
X0204339Y0092121D01*
X0204348Y0092134D01*
X0204363Y0092170D01*
X0204410Y0092242D01*
X0204434Y0092298D01*
X0204442Y0092310D01*
X0204462Y0092409D01*
X0204500Y0092501D01*
X0204500Y0092602D01*
X0204520Y0092700D01*
X0204520Y0105687D01*
X0204708Y0106633D01*
Y0108633D01*
X0204520Y0109580D01*
X0204520Y0120233D01*
X0204520Y0130541D01*
X0204500Y0130640D01*
X0204500Y0130740D01*
X0204500Y0130740D01*
X0204482Y0130833D01*
X0204482Y0130833D01*
X0204482Y0130833D01*
X0204482Y0130833D01*
X0204443Y0130926D01*
X0204442Y0130931D01*
X0204442Y0130931D01*
X0204439Y0130936D01*
X0204372Y0131097D01*
X0204371Y0131103D01*
X0204371Y0131103D01*
X0204368Y0131108D01*
X0204329Y0131200D01*
X0204277Y0131279D01*
X0204206Y0131350D01*
X0204150Y0131433D01*
X0203834Y0131750D01*
X0203750Y0131806D01*
X0203679Y0131877D01*
X0203600Y0131929D01*
X0203600Y0131929D01*
X0203508Y0131968D01*
X0203503Y0131971D01*
X0203497Y0131972D01*
X0203336Y0132039D01*
X0203331Y0132042D01*
X0203326Y0132043D01*
X0203233Y0132081D01*
X0203233Y0132082D01*
X0203233Y0132081D01*
X0203140Y0132100D01*
X0203140Y0132100D01*
X0203040Y0132100D01*
X0202941Y0132120D01*
X0185863Y0132120D01*
X0182618D01*
X0182100Y0132120D01*
X0182100Y0132120D01*
X0182002Y0132100D01*
X0181902Y0132100D01*
X0181902Y0132100D01*
X0181878Y0132090D01*
X0181853Y0132089D01*
X0181853Y0132089D01*
X0181785Y0132057D01*
X0181710Y0132042D01*
X0181698Y0132034D01*
X0181698Y0132034D01*
X0181641Y0132010D01*
X0181570Y0131963D01*
X0181534Y0131948D01*
X0181522Y0131939D01*
X0181508Y0131926D01*
X0181493Y0131919D01*
X0181475Y0131899D01*
X0181311Y0131789D01*
X0181311Y0131789D01*
X0181311Y0131789D01*
X0181188Y0131606D01*
X0181160Y0131578D01*
X0181152Y0131566D01*
X0181137Y0131529D01*
X0181090Y0131459D01*
X0181066Y0131402D01*
X0181066Y0131402D01*
X0181058Y0131390D01*
X0181038Y0131291D01*
X0181000Y0131198D01*
X0181000Y0131198D01*
X0181000Y0131098D01*
X0180980Y0131000D01*
X0180980Y0131000D01*
X0180980Y0130482D01*
Y0105029D01*
X0172132D01*
Y0109516D01*
X0171938Y0110491D01*
X0171683Y0110873D01*
Y0112266D01*
X0169579D01*
X0169333Y0112315D01*
X0169087Y0112266D01*
X0167356D01*
X0167323Y0112299D01*
X0166272Y0113971D01*
X0166714Y0114547D01*
X0167157Y0115616D01*
X0167308Y0116764D01*
X0167157Y0117911D01*
X0166714Y0118981D01*
X0166009Y0119899D01*
Y0121503D01*
X0166714Y0122421D01*
X0167157Y0123490D01*
X0167308Y0124638D01*
X0167157Y0125785D01*
X0166714Y0126855D01*
X0166009Y0127773D01*
Y0129377D01*
X0166714Y0130295D01*
X0167157Y0131364D01*
X0167308Y0132512D01*
X0167157Y0133659D01*
X0166714Y0134729D01*
X0166009Y0135647D01*
X0165776Y0135826D01*
X0165385Y0137566D01*
X0165568Y0138319D01*
X0165840Y0138673D01*
X0166182Y0139499D01*
X0166233Y0139886D01*
X0162874D01*
Y0140886D01*
X0166233D01*
X0166182Y0141272D01*
X0165840Y0142098D01*
X0165568Y0142453D01*
X0165385Y0143206D01*
X0165776Y0144946D01*
X0166009Y0145125D01*
X0166714Y0146043D01*
X0167157Y0147112D01*
X0167308Y0148260D01*
X0167157Y0149407D01*
X0166714Y0150477D01*
X0166009Y0151395D01*
Y0152999D01*
X0166714Y0153917D01*
X0167157Y0154986D01*
X0167308Y0156134D01*
X0167157Y0157281D01*
X0166714Y0158351D01*
X0166009Y0159269D01*
Y0160873D01*
X0166714Y0161791D01*
X0167157Y0162860D01*
X0167308Y0164008D01*
X0167157Y0165155D01*
X0166714Y0166225D01*
X0166009Y0167143D01*
Y0168747D01*
X0166714Y0169665D01*
X0167157Y0170734D01*
X0167308Y0171882D01*
X0167157Y0173029D01*
X0166714Y0174099D01*
X0166009Y0175017D01*
Y0176621D01*
X0166714Y0177539D01*
X0167157Y0178608D01*
X0167308Y0179756D01*
X0167157Y0180903D01*
X0166714Y0181973D01*
X0166009Y0182891D01*
Y0184495D01*
X0166714Y0185413D01*
X0167157Y0186482D01*
X0167308Y0187630D01*
X0167157Y0188777D01*
X0166714Y0189847D01*
X0166009Y0190765D01*
X0165776Y0190944D01*
X0165385Y0192684D01*
X0165568Y0193437D01*
X0165840Y0193791D01*
X0166182Y0194617D01*
X0166233Y0195004D01*
X0162874D01*
Y0196004D01*
X0166233D01*
X0166182Y0196390D01*
X0165840Y0197216D01*
X0165568Y0197571D01*
X0165385Y0198324D01*
X0165776Y0200064D01*
X0166009Y0200243D01*
X0166714Y0201161D01*
X0167157Y0202231D01*
X0167308Y0203378D01*
X0167157Y0204525D01*
X0166714Y0205595D01*
X0166009Y0206513D01*
Y0208117D01*
X0166714Y0209035D01*
X0167157Y0210104D01*
X0167308Y0211252D01*
X0167157Y0212400D01*
X0166714Y0213469D01*
X0166009Y0214387D01*
Y0215991D01*
X0166714Y0216909D01*
X0167157Y0217979D01*
X0167308Y0219126D01*
X0167157Y0220273D01*
X0166714Y0221343D01*
X0166009Y0222261D01*
Y0223865D01*
X0166714Y0224783D01*
X0167157Y0225852D01*
X0167308Y0227000D01*
X0167157Y0228148D01*
X0166714Y0229217D01*
X0166009Y0230135D01*
Y0231739D01*
X0166714Y0232657D01*
X0167157Y0233727D01*
X0167308Y0234874D01*
X0167157Y0236021D01*
X0166714Y0237091D01*
X0166009Y0238009D01*
X0165091Y0238714D01*
X0164022Y0239157D01*
X0162874Y0239308D01*
D02*
G37*
G36*
X0027000Y0238270D02*
X0024104D01*
Y0235374D01*
X0027000D01*
Y0238270D01*
D02*
G37*
G36*
X0136800Y0236350D02*
X0131800D01*
Y0231650D01*
X0131800Y0231650D01*
X0132006Y0229900D01*
X0132181Y0229022D01*
X0132678Y0228278D01*
X0133422Y0227781D01*
X0134300Y0227606D01*
X0135178Y0227781D01*
X0135922Y0228278D01*
X0136419Y0229022D01*
X0136564Y0229748D01*
X0136594Y0229900D01*
X0136800Y0231650D01*
X0136800D01*
Y0236350D01*
D02*
G37*
G36*
X0215500Y0170894D02*
X0214622Y0170720D01*
X0213878Y0170222D01*
X0213381Y0169478D01*
X0213206Y0168600D01*
X0213228Y0168491D01*
X0208919Y0164181D01*
X0208587Y0163685D01*
X0208471Y0163100D01*
Y0132184D01*
X0208378Y0132122D01*
X0207880Y0131378D01*
X0207706Y0130500D01*
X0207880Y0129622D01*
X0208378Y0128878D01*
X0209122Y0128381D01*
X0210000Y0128206D01*
X0210878Y0128381D01*
X0211622Y0128878D01*
X0212120Y0129622D01*
X0212294Y0130500D01*
X0212120Y0131378D01*
X0211622Y0132122D01*
X0211529Y0132184D01*
Y0162467D01*
X0215391Y0166328D01*
X0215500Y0166306D01*
X0216378Y0166481D01*
X0217122Y0166978D01*
X0217619Y0167722D01*
X0217794Y0168600D01*
X0217619Y0169478D01*
X0217122Y0170222D01*
X0216378Y0170720D01*
X0215500Y0170894D01*
D02*
G37*
G36*
X0260608Y0160404D02*
X0259730Y0160230D01*
X0258986Y0159732D01*
X0258489Y0158988D01*
X0258314Y0158110D01*
X0258489Y0157232D01*
X0258986Y0156488D01*
X0259730Y0155991D01*
X0260608Y0155816D01*
X0261486Y0155991D01*
X0262230Y0156488D01*
X0262728Y0157232D01*
X0262902Y0158110D01*
X0262728Y0158988D01*
X0262230Y0159732D01*
X0261486Y0160230D01*
X0260608Y0160404D01*
D02*
G37*
G36*
X0253841D02*
X0252963Y0160230D01*
X0252218Y0159732D01*
X0251721Y0158988D01*
X0251547Y0158110D01*
X0251721Y0157232D01*
X0252218Y0156488D01*
X0252963Y0155991D01*
X0253841Y0155816D01*
X0254718Y0155991D01*
X0255463Y0156488D01*
X0255960Y0157232D01*
X0256135Y0158110D01*
X0255960Y0158988D01*
X0255463Y0159732D01*
X0254718Y0160230D01*
X0253841Y0160404D01*
D02*
G37*
G36*
X0255441Y0144630D02*
X0255441Y0144630D01*
X0255343Y0144610D01*
X0255242D01*
X0255242Y0144610D01*
X0255149Y0144572D01*
X0255051Y0144552D01*
X0255038Y0144544D01*
X0254982Y0144520D01*
X0254911Y0144473D01*
X0254874Y0144458D01*
X0254862Y0144450D01*
X0254834Y0144422D01*
X0254651Y0144299D01*
X0254529Y0144116D01*
X0254501Y0144088D01*
X0254493Y0144076D01*
X0254478Y0144040D01*
X0254430Y0143969D01*
X0254407Y0143912D01*
X0254399Y0143900D01*
X0254379Y0143801D01*
X0254341Y0143709D01*
X0254341Y0143708D01*
X0254341Y0143608D01*
X0254321Y0143510D01*
X0254321Y0143510D01*
X0254321Y0142992D01*
Y0136672D01*
X0254321Y0105559D01*
X0254341Y0105460D01*
X0254341Y0105360D01*
X0254341Y0105360D01*
X0254359Y0105267D01*
X0254359Y0105267D01*
X0254359Y0105267D01*
X0254359Y0105267D01*
X0254397Y0105174D01*
X0254398Y0105169D01*
X0254399Y0105169D01*
X0254402Y0105164D01*
X0254468Y0105003D01*
X0254469Y0104997D01*
X0254470Y0104997D01*
X0254473Y0104992D01*
X0254511Y0104900D01*
X0254564Y0104821D01*
X0254635Y0104750D01*
X0254691Y0104666D01*
X0255007Y0104350D01*
X0255090Y0104294D01*
X0255161Y0104223D01*
X0255240Y0104171D01*
X0255240Y0104171D01*
X0255333Y0104132D01*
X0255338Y0104129D01*
X0255343Y0104128D01*
X0255504Y0104061D01*
X0255509Y0104058D01*
X0255515Y0104057D01*
X0255608Y0104018D01*
X0255608Y0104018D01*
X0255608Y0104018D01*
X0255700Y0104000D01*
X0255700Y0104000D01*
X0255801Y0104000D01*
X0255899Y0103980D01*
X0267567D01*
X0269271Y0102289D01*
Y0091300D01*
X0269387Y0090124D01*
X0269730Y0088993D01*
X0270287Y0087950D01*
X0271037Y0087037D01*
X0279537Y0078537D01*
X0279537Y0078537D01*
X0280451Y0077787D01*
X0281493Y0077230D01*
X0282624Y0076887D01*
X0283800Y0076771D01*
X0283800Y0076771D01*
X0305503D01*
X0310271Y0072003D01*
Y0018113D01*
X0310387Y0016936D01*
X0310730Y0015805D01*
X0311287Y0014763D01*
X0312037Y0013849D01*
X0316007Y0009879D01*
X0316007Y0009879D01*
X0316921Y0009129D01*
X0317963Y0008572D01*
X0319094Y0008229D01*
X0320270Y0008113D01*
X0490105D01*
X0491282Y0008229D01*
X0492413Y0008572D01*
X0493455Y0009129D01*
X0494369Y0009879D01*
X0495118Y0010793D01*
X0495675Y0011835D01*
X0496019Y0012966D01*
X0496134Y0014142D01*
X0496019Y0015318D01*
X0495675Y0016450D01*
X0495118Y0017492D01*
X0494369Y0018406D01*
X0493455Y0019155D01*
X0492413Y0019712D01*
X0491282Y0020055D01*
X0490105Y0020171D01*
X0322768D01*
X0322329Y0020610D01*
Y0074500D01*
X0322213Y0075676D01*
X0321870Y0076807D01*
X0321313Y0077850D01*
X0320563Y0078763D01*
X0312263Y0087063D01*
X0311350Y0087813D01*
X0310307Y0088370D01*
X0309176Y0088713D01*
X0308000Y0088829D01*
X0286297D01*
X0281329Y0093797D01*
Y0102289D01*
X0281213Y0103465D01*
X0280870Y0104596D01*
X0281230Y0105640D01*
X0281242Y0105654D01*
X0281274Y0105676D01*
X0281313Y0105715D01*
X0281364Y0105792D01*
X0281397Y0105824D01*
X0281401Y0105830D01*
X0281412Y0105857D01*
X0281486Y0105945D01*
X0281503Y0105999D01*
X0281534Y0106045D01*
X0281556Y0106157D01*
X0281570Y0106183D01*
X0281572Y0106190D01*
X0281577Y0106236D01*
X0281605Y0106325D01*
X0281611Y0106379D01*
X0281608Y0106418D01*
X0281611Y0106436D01*
X0281609Y0106446D01*
X0281620Y0106497D01*
Y0108784D01*
X0281620Y0143051D01*
X0281600Y0143150D01*
X0281600Y0143250D01*
X0281600Y0143250D01*
X0281582Y0143343D01*
X0281582Y0143343D01*
X0281581Y0143343D01*
X0281581Y0143343D01*
X0281543Y0143436D01*
X0281542Y0143442D01*
X0281542Y0143442D01*
X0281539Y0143446D01*
X0281472Y0143607D01*
X0281471Y0143613D01*
X0281471Y0143613D01*
X0281468Y0143618D01*
X0281429Y0143711D01*
X0281377Y0143789D01*
X0281306Y0143860D01*
X0281250Y0143944D01*
X0280934Y0144260D01*
X0280850Y0144316D01*
X0280779Y0144387D01*
X0280700Y0144439D01*
X0280700Y0144439D01*
X0280608Y0144478D01*
X0280603Y0144481D01*
X0280597Y0144482D01*
X0280436Y0144549D01*
X0280431Y0144552D01*
X0280426Y0144553D01*
X0280333Y0144592D01*
X0280333Y0144592D01*
X0280333Y0144592D01*
X0280240Y0144610D01*
X0280240Y0144610D01*
X0280140Y0144610D01*
X0280041Y0144630D01*
X0255959Y0144630D01*
X0255441Y0144630D01*
D02*
G37*
G36*
X0217781Y0154763D02*
X0216904Y0154588D01*
X0216159Y0154091D01*
X0215662Y0153346D01*
X0215487Y0152469D01*
X0215662Y0151591D01*
X0216159Y0150846D01*
X0216907Y0150298D01*
X0216989Y0149130D01*
X0216814Y0148252D01*
X0216989Y0147374D01*
X0217986Y0145874D01*
X0217489Y0145130D01*
X0217489Y0145130D01*
X0217314Y0144252D01*
X0217489Y0143374D01*
X0217986Y0142630D01*
X0218730Y0142132D01*
X0219608Y0141958D01*
X0220486Y0142132D01*
X0221230Y0142630D01*
X0221728Y0143374D01*
X0221902Y0144252D01*
X0221728Y0145130D01*
X0220730Y0146630D01*
X0221228Y0147374D01*
X0221228Y0147374D01*
X0221402Y0148252D01*
X0221228Y0149130D01*
X0220730Y0149874D01*
X0219983Y0150422D01*
X0219901Y0151591D01*
X0220076Y0152469D01*
X0219901Y0153346D01*
X0219404Y0154091D01*
X0218659Y0154588D01*
X0217781Y0154763D01*
D02*
G37*
G36*
X0589100Y0099020D02*
X0589100Y0099020D01*
X0589002Y0099000D01*
X0588902Y0099000D01*
X0588902Y0099000D01*
X0588878Y0098990D01*
X0588853Y0098989D01*
X0588853Y0098989D01*
X0588785Y0098957D01*
X0588710Y0098942D01*
X0588698Y0098934D01*
X0588698Y0098934D01*
X0588641Y0098910D01*
X0588570Y0098863D01*
X0588534Y0098848D01*
X0588522Y0098839D01*
X0588508Y0098826D01*
X0588493Y0098819D01*
X0588475Y0098799D01*
X0588311Y0098689D01*
X0588311Y0098689D01*
X0588311Y0098689D01*
X0588188Y0098506D01*
X0588161Y0098478D01*
X0588152Y0098466D01*
X0588137Y0098430D01*
X0588090Y0098359D01*
X0588066Y0098302D01*
X0588066Y0098302D01*
X0588058Y0098290D01*
X0588038Y0098191D01*
X0588000Y0098098D01*
X0588000Y0098098D01*
X0588000Y0097998D01*
X0587980Y0097900D01*
X0587980Y0097900D01*
X0587980Y0097382D01*
Y0077397D01*
X0580818Y0069522D01*
X0580817Y0069522D01*
X0580049Y0068677D01*
X0558765D01*
X0554792Y0072650D01*
X0554708Y0072706D01*
X0554638Y0072777D01*
X0554578Y0072801D01*
X0554527Y0072841D01*
X0554492Y0072851D01*
X0554461Y0072871D01*
X0554455Y0072872D01*
X0554294Y0072939D01*
X0554290Y0072942D01*
X0554191Y0072962D01*
X0554098Y0073000D01*
X0553998Y0073000D01*
X0553899Y0073020D01*
X0543550Y0073020D01*
X0543452Y0073000D01*
X0543352Y0073000D01*
X0543259Y0072982D01*
X0543259Y0072982D01*
X0543259Y0072982D01*
X0543259Y0072982D01*
X0543166Y0072943D01*
X0543160Y0072942D01*
X0543155Y0072939D01*
X0543086Y0072910D01*
X0542995Y0072872D01*
X0542989Y0072871D01*
X0542984Y0072868D01*
X0542891Y0072829D01*
X0542813Y0072777D01*
X0542742Y0072706D01*
X0542658Y0072650D01*
X0542549Y0072541D01*
X0542506Y0072477D01*
X0542449Y0072425D01*
X0542230Y0072127D01*
X0542220Y0072107D01*
X0542220Y0072107D01*
X0542175Y0072045D01*
X0542142Y0071975D01*
X0542128Y0071956D01*
X0542118Y0071935D01*
X0542118Y0071935D01*
X0542115Y0071922D01*
X0542054Y0071831D01*
X0542054Y0071831D01*
X0542039Y0071755D01*
X0542006Y0071685D01*
X0542006Y0071685D01*
X0542001Y0071575D01*
X0541996Y0071563D01*
X0541992Y0071540D01*
X0541992Y0071540D01*
X0541992Y0071516D01*
X0541977Y0071441D01*
Y0071364D01*
X0541972Y0071342D01*
Y0055214D01*
X0541972Y0054796D01*
X0541972Y0054796D01*
X0541972Y0054696D01*
X0541972Y0054696D01*
X0541992Y0054597D01*
X0541992Y0054497D01*
X0541992Y0054497D01*
X0542001Y0054474D01*
X0542002Y0054448D01*
X0542002Y0054448D01*
X0542035Y0054380D01*
X0542050Y0054305D01*
X0542058Y0054293D01*
X0542058Y0054293D01*
X0542081Y0054237D01*
X0542129Y0054166D01*
X0542144Y0054129D01*
X0542152Y0054117D01*
X0542165Y0054104D01*
X0542172Y0054089D01*
X0542192Y0054071D01*
X0542302Y0053906D01*
X0542302Y0053906D01*
X0542302Y0053906D01*
X0542485Y0053784D01*
X0542513Y0053756D01*
X0542526Y0053747D01*
X0542562Y0053732D01*
X0542633Y0053685D01*
X0542689Y0053662D01*
X0542689Y0053662D01*
X0542702Y0053653D01*
X0542801Y0053634D01*
X0542893Y0053595D01*
X0542893Y0053595D01*
X0542994Y0053595D01*
X0543092Y0053576D01*
X0543092Y0053576D01*
X0543610Y0053576D01*
X0611900D01*
X0611998Y0053595D01*
X0612099Y0053595D01*
X0612191Y0053634D01*
X0612290Y0053653D01*
X0612302Y0053662D01*
X0612359Y0053685D01*
X0612430Y0053732D01*
X0612466Y0053747D01*
X0612479Y0053756D01*
X0612506Y0053784D01*
X0612689Y0053906D01*
X0612812Y0054089D01*
X0612839Y0054117D01*
X0612848Y0054129D01*
X0612863Y0054166D01*
X0612910Y0054237D01*
X0612934Y0054293D01*
X0612942Y0054305D01*
X0612961Y0054404D01*
X0613000Y0054497D01*
X0613000Y0054597D01*
X0613020Y0054696D01*
X0613020Y0075841D01*
Y0094309D01*
X0613017Y0094325D01*
X0613019Y0094340D01*
X0613019Y0094341D01*
X0613003Y0094410D01*
X0613003Y0094424D01*
X0612996Y0094453D01*
X0612994Y0094538D01*
X0612980Y0094601D01*
X0612980Y0094601D01*
X0612980Y0094601D01*
X0612979Y0094603D01*
X0612979Y0094618D01*
X0612979Y0094618D01*
X0612974Y0094629D01*
Y0094629D01*
X0612964Y0094678D01*
X0612931Y0094757D01*
X0612925Y0094786D01*
X0612921Y0094796D01*
X0612908Y0094864D01*
X0612907Y0094865D01*
X0612898Y0094880D01*
X0612894Y0094897D01*
X0611394Y0098241D01*
X0611394Y0098241D01*
X0611356Y0098325D01*
X0611307Y0098394D01*
X0611307Y0098394D01*
X0611306Y0098397D01*
X0611305Y0098398D01*
X0611304Y0098401D01*
X0611304Y0098401D01*
X0611301Y0098404D01*
X0611297Y0098410D01*
X0611257Y0098499D01*
X0611208Y0098568D01*
X0611145Y0098628D01*
X0611094Y0098703D01*
X0611084Y0098710D01*
X0611076Y0098720D01*
X0611074Y0098723D01*
X0610987Y0098777D01*
X0610933Y0098831D01*
X0610925Y0098835D01*
X0610919Y0098841D01*
X0610848Y0098867D01*
X0610764Y0098924D01*
X0610760Y0098925D01*
X0610760Y0098926D01*
X0610760Y0098926D01*
X0610747Y0098928D01*
X0610737Y0098935D01*
X0610647Y0098950D01*
X0610566Y0098984D01*
X0610483Y0099000D01*
X0610386D01*
X0610370Y0099003D01*
X0610370Y0099003D01*
X0610370Y0099003D01*
X0610367D01*
X0610284Y0099020D01*
X0589618Y0099020D01*
X0589100Y0099020D01*
D02*
G37*
G36*
X0526611Y0096797D02*
X0525369Y0096633D01*
X0524212Y0096154D01*
X0524119Y0096083D01*
X0522674Y0095581D01*
X0521228Y0096083D01*
X0521135Y0096154D01*
X0519978Y0096633D01*
X0518737Y0096797D01*
X0517495Y0096633D01*
X0516338Y0096154D01*
X0515345Y0095392D01*
X0513787Y0094776D01*
X0512811Y0095240D01*
X0512757Y0095281D01*
X0511843Y0095659D01*
X0511363Y0095723D01*
Y0092000D01*
Y0088278D01*
X0511843Y0088341D01*
X0512757Y0088719D01*
X0512811Y0088760D01*
X0513787Y0089224D01*
X0515345Y0088608D01*
X0516338Y0087846D01*
X0517495Y0087366D01*
X0518737Y0087203D01*
X0519978Y0087366D01*
X0521135Y0087846D01*
X0521228Y0087917D01*
X0522674Y0088419D01*
X0523835Y0088016D01*
X0524285Y0087195D01*
X0524466Y0085576D01*
X0524130Y0085141D01*
X0524022Y0085119D01*
X0523278Y0084622D01*
X0522781Y0083878D01*
X0522606Y0083000D01*
X0522781Y0082122D01*
X0523278Y0081378D01*
X0524022Y0080881D01*
X0524900Y0080706D01*
X0525778Y0080881D01*
X0525898Y0080961D01*
X0526854D01*
X0527635Y0081116D01*
X0528296Y0081558D01*
X0530828Y0084090D01*
X0533022Y0083771D01*
X0533178Y0083612D01*
X0533084Y0082900D01*
X0533205Y0081986D01*
X0533401Y0081511D01*
X0528829Y0076939D01*
X0511142D01*
X0510362Y0076784D01*
X0509701Y0076342D01*
X0499048Y0065689D01*
X0461431D01*
X0461311Y0065769D01*
X0460433Y0065944D01*
X0459555Y0065769D01*
X0458811Y0065272D01*
X0458314Y0064527D01*
X0458139Y0063650D01*
X0458314Y0062772D01*
X0458811Y0062027D01*
X0459555Y0061530D01*
X0460433Y0061356D01*
X0461311Y0061530D01*
X0461431Y0061610D01*
X0499892D01*
X0500672Y0061766D01*
X0501334Y0062208D01*
X0511987Y0072861D01*
X0529674D01*
X0530454Y0073016D01*
X0531116Y0073458D01*
X0537090Y0079432D01*
X0537528Y0079490D01*
X0538380Y0079843D01*
X0539111Y0080404D01*
X0539672Y0081135D01*
X0540025Y0081986D01*
X0540145Y0082900D01*
X0540025Y0083814D01*
X0539672Y0084665D01*
X0539111Y0085396D01*
X0538380Y0085957D01*
X0537528Y0086310D01*
X0537472Y0086317D01*
X0536475Y0088112D01*
X0536452Y0088387D01*
X0536748Y0088827D01*
X0550448D01*
X0550568Y0088747D01*
X0551446Y0088572D01*
X0552323Y0088747D01*
X0553068Y0089244D01*
X0553565Y0089988D01*
X0553740Y0090866D01*
X0553565Y0091744D01*
X0553068Y0092488D01*
X0552323Y0092986D01*
X0551446Y0093160D01*
X0550568Y0092986D01*
X0550448Y0092905D01*
X0534720D01*
X0533940Y0092750D01*
X0533279Y0092308D01*
X0531260Y0093119D01*
X0531244Y0093242D01*
X0530765Y0094398D01*
X0530003Y0095392D01*
X0529009Y0096154D01*
X0527852Y0096633D01*
X0526611Y0096797D01*
D02*
G37*
G36*
X0510363Y0095723D02*
X0509882Y0095659D01*
X0508969Y0095281D01*
X0508184Y0094679D01*
X0507582Y0093894D01*
X0507203Y0092980D01*
X0507140Y0092500D01*
X0510363D01*
Y0095723D01*
D02*
G37*
G36*
X0382575Y0094453D02*
X0379122D01*
Y0091000D01*
X0382575D01*
Y0094453D01*
D02*
G37*
G36*
X0510363Y0091500D02*
X0507140D01*
X0507203Y0091019D01*
X0507582Y0090106D01*
X0508184Y0089321D01*
X0508969Y0088719D01*
X0509882Y0088341D01*
X0510363Y0088278D01*
Y0091500D01*
D02*
G37*
G36*
X0339252Y0095495D02*
X0337959Y0095325D01*
X0336754Y0094826D01*
X0335720Y0094032D01*
X0334926Y0092998D01*
X0334427Y0091793D01*
X0334257Y0090500D01*
X0334427Y0089207D01*
X0334926Y0088002D01*
X0335720Y0086968D01*
Y0086158D01*
X0334926Y0085124D01*
X0334427Y0083919D01*
X0334257Y0082626D01*
X0334427Y0081333D01*
X0334926Y0080128D01*
X0335720Y0079094D01*
X0336754Y0078300D01*
X0337959Y0077801D01*
X0339252Y0077631D01*
X0340545Y0077801D01*
X0341750Y0078300D01*
X0343189Y0078919D01*
X0344628Y0078300D01*
X0345833Y0077801D01*
X0347126Y0077631D01*
X0348419Y0077801D01*
X0349387Y0078202D01*
X0353971Y0073619D01*
X0354467Y0073287D01*
X0355052Y0073171D01*
X0393000D01*
X0393585Y0073287D01*
X0394081Y0073619D01*
X0397211Y0076748D01*
X0397878Y0076881D01*
X0398622Y0077378D01*
X0399119Y0078122D01*
X0399189Y0078471D01*
X0410500D01*
X0411085Y0078587D01*
X0411581Y0078919D01*
X0414181Y0081518D01*
X0417000D01*
Y0081518D01*
X0419000Y0081885D01*
X0419400Y0081806D01*
X0420278Y0081981D01*
X0421022Y0082478D01*
X0421519Y0083222D01*
X0421694Y0084100D01*
X0421519Y0084978D01*
X0421022Y0085722D01*
X0420278Y0086219D01*
X0419400Y0086394D01*
X0418963Y0086307D01*
X0418446Y0086284D01*
X0418334Y0086391D01*
X0418238Y0086644D01*
X0418239Y0086677D01*
X0419254Y0088486D01*
X0440816D01*
X0440878Y0088394D01*
X0441622Y0087896D01*
X0442500Y0087722D01*
X0443378Y0087896D01*
X0444122Y0088394D01*
X0444619Y0089138D01*
X0444794Y0090016D01*
X0444619Y0090894D01*
X0444122Y0091638D01*
X0443378Y0092135D01*
X0442500Y0092310D01*
X0441622Y0092135D01*
X0440878Y0091638D01*
X0440816Y0091545D01*
X0417000D01*
Y0092418D01*
X0412000D01*
Y0091479D01*
X0406500D01*
Y0092450D01*
X0401500D01*
Y0088250D01*
X0401500Y0087750D01*
X0401308Y0085829D01*
X0397462D01*
X0396877Y0085713D01*
X0396380Y0085381D01*
X0395581Y0084581D01*
X0389281Y0078281D01*
X0384052D01*
X0383233Y0079652D01*
X0383012Y0080281D01*
X0383447Y0081333D01*
X0383617Y0082626D01*
X0383447Y0083919D01*
X0383097Y0084764D01*
X0382575Y0086547D01*
X0382575D01*
Y0090000D01*
X0378622D01*
Y0090500D01*
X0378122D01*
Y0094453D01*
X0374669D01*
X0374669Y0094453D01*
X0372741Y0093953D01*
X0371780Y0094351D01*
X0371248Y0094421D01*
Y0090500D01*
X0370248D01*
Y0094421D01*
X0369716Y0094351D01*
X0368755Y0093953D01*
X0368034Y0093400D01*
X0367882Y0093319D01*
X0365740D01*
X0365588Y0093400D01*
X0364867Y0093953D01*
X0363906Y0094351D01*
X0363374Y0094421D01*
Y0090500D01*
X0362374D01*
Y0094421D01*
X0361842Y0094351D01*
X0360881Y0093953D01*
X0360160Y0093400D01*
X0360008Y0093319D01*
X0357866D01*
X0357714Y0093400D01*
X0356993Y0093953D01*
X0356032Y0094351D01*
X0355500Y0094421D01*
Y0090500D01*
X0354500D01*
Y0094421D01*
X0353968Y0094351D01*
X0353007Y0093953D01*
X0352286Y0093400D01*
X0352134Y0093319D01*
X0349992D01*
X0349840Y0093400D01*
X0349119Y0093953D01*
X0348158Y0094351D01*
X0347626Y0094421D01*
Y0090500D01*
X0346626D01*
Y0094421D01*
X0346094Y0094351D01*
X0345133Y0093953D01*
X0344195Y0093377D01*
X0342500Y0094250D01*
X0341750Y0094826D01*
X0340545Y0095325D01*
X0339252Y0095495D01*
D02*
G37*
G36*
X0163783Y0096781D02*
X0157656D01*
Y0089173D01*
X0157562Y0088700D01*
Y0088595D01*
X0157656Y0088122D01*
Y0086045D01*
X0163783D01*
Y0093219D01*
Y0096781D01*
D02*
G37*
G36*
X0395300Y0067234D02*
X0394422Y0067060D01*
X0393678Y0066562D01*
X0393181Y0065818D01*
X0393006Y0064940D01*
X0393181Y0064062D01*
X0393678Y0063318D01*
X0394422Y0062821D01*
X0395300Y0062646D01*
X0396178Y0062821D01*
X0396922Y0063318D01*
X0397420Y0064062D01*
X0397594Y0064940D01*
X0397420Y0065818D01*
X0396922Y0066562D01*
X0396178Y0067060D01*
X0395300Y0067234D01*
D02*
G37*
G36*
X0385876D02*
X0384998Y0067060D01*
X0384254Y0066562D01*
X0383757Y0065818D01*
X0383582Y0064940D01*
X0383757Y0064062D01*
X0384254Y0063318D01*
X0384998Y0062821D01*
X0385876Y0062646D01*
X0386754Y0062821D01*
X0387498Y0063318D01*
X0387996Y0064062D01*
X0388170Y0064940D01*
X0387996Y0065818D01*
X0387498Y0066562D01*
X0386754Y0067060D01*
X0385876Y0067234D01*
D02*
G37*
G36*
X0376700D02*
X0375822Y0067060D01*
X0375078Y0066562D01*
X0374581Y0065818D01*
X0374406Y0064940D01*
X0374581Y0064062D01*
X0375078Y0063318D01*
X0375822Y0062821D01*
X0376700Y0062646D01*
X0377578Y0062821D01*
X0378322Y0063318D01*
X0378819Y0064062D01*
X0378994Y0064940D01*
X0378819Y0065818D01*
X0378322Y0066562D01*
X0377578Y0067060D01*
X0376700Y0067234D01*
D02*
G37*
G36*
X0434772Y0058158D02*
X0433894Y0057984D01*
X0433149Y0057486D01*
X0432652Y0056742D01*
X0432478Y0055864D01*
X0432652Y0054986D01*
X0433149Y0054242D01*
X0433150Y0054242D01*
Y0050000D01*
X0434588D01*
X0435154Y0048654D01*
X0435296Y0048000D01*
X0434881Y0047378D01*
X0434706Y0046500D01*
X0434881Y0045622D01*
X0435378Y0044878D01*
X0435471Y0044816D01*
Y0044550D01*
X0435550Y0044151D01*
Y0041000D01*
X0439750D01*
X0440250Y0041000D01*
X0441750D01*
X0442250Y0041000D01*
X0446450D01*
Y0046000D01*
X0446158D01*
X0445994Y0046200D01*
X0445819Y0047078D01*
X0445322Y0047822D01*
X0444578Y0048320D01*
X0444179Y0048399D01*
Y0051400D01*
X0444063Y0051985D01*
X0444050Y0052005D01*
Y0055000D01*
X0439850D01*
X0439350Y0055000D01*
X0437775D01*
X0437066Y0055864D01*
X0436891Y0056742D01*
X0436394Y0057486D01*
X0435650Y0057984D01*
X0434772Y0058158D01*
D02*
G37*
G36*
X0019685Y0028024D02*
X0018058Y0027864D01*
X0016494Y0027390D01*
X0015052Y0026619D01*
X0013788Y0025582D01*
X0012751Y0024318D01*
X0011981Y0022876D01*
X0011506Y0021312D01*
X0011346Y0019685D01*
X0011506Y0018058D01*
X0011981Y0016494D01*
X0012751Y0015052D01*
X0013788Y0013788D01*
X0015052Y0012751D01*
X0016494Y0011981D01*
X0018058Y0011506D01*
X0019685Y0011346D01*
X0021312Y0011506D01*
X0022876Y0011981D01*
X0024318Y0012751D01*
X0025582Y0013788D01*
X0026619Y0015052D01*
X0027390Y0016494D01*
X0027864Y0018058D01*
X0028024Y0019685D01*
X0027864Y0021312D01*
X0027390Y0022876D01*
X0026619Y0024318D01*
X0025582Y0025582D01*
X0024318Y0026619D01*
X0022876Y0027390D01*
X0021312Y0027864D01*
X0019685Y0028024D01*
D02*
G37*
%LPD*%
G36*
X0132319Y0190419D02*
X0132815Y0190087D01*
X0133400Y0189971D01*
X0149047D01*
X0149479Y0189662D01*
X0150611Y0187971D01*
X0150566Y0187630D01*
X0150717Y0186482D01*
X0151160Y0185413D01*
X0151865Y0184495D01*
Y0182891D01*
X0151160Y0181973D01*
X0150717Y0180903D01*
X0150566Y0179756D01*
X0150717Y0178608D01*
X0151160Y0177539D01*
X0151865Y0176621D01*
Y0175017D01*
X0151160Y0174099D01*
X0150717Y0173029D01*
X0150566Y0171882D01*
X0150717Y0170734D01*
X0151160Y0169665D01*
X0151865Y0168747D01*
Y0167143D01*
X0151160Y0166225D01*
X0150717Y0165155D01*
X0150566Y0164008D01*
X0150717Y0162860D01*
X0151160Y0161791D01*
X0151865Y0160873D01*
Y0159269D01*
X0151160Y0158351D01*
X0150717Y0157281D01*
X0150566Y0156134D01*
X0150717Y0154986D01*
X0151160Y0153917D01*
X0151865Y0152999D01*
Y0151395D01*
X0151160Y0150477D01*
X0150717Y0149407D01*
X0150566Y0148260D01*
X0150717Y0147112D01*
X0151160Y0146043D01*
X0151865Y0145125D01*
Y0143521D01*
X0151160Y0142603D01*
X0150717Y0141533D01*
X0150566Y0140386D01*
X0150717Y0139238D01*
X0151160Y0138169D01*
X0151865Y0137251D01*
Y0135647D01*
X0151160Y0134729D01*
X0150717Y0133659D01*
X0150566Y0132512D01*
X0150717Y0131364D01*
X0151160Y0130295D01*
X0151865Y0129377D01*
X0152098Y0129198D01*
X0152489Y0127458D01*
X0152306Y0126705D01*
X0152034Y0126350D01*
X0151692Y0125524D01*
X0151641Y0125138D01*
X0155000D01*
Y0124138D01*
X0151641D01*
X0151692Y0123751D01*
X0152034Y0122925D01*
X0152306Y0122571D01*
X0152489Y0121818D01*
X0152098Y0120078D01*
X0151865Y0119899D01*
X0151160Y0118981D01*
X0150717Y0117911D01*
X0150566Y0116764D01*
X0150717Y0115616D01*
X0151160Y0114547D01*
X0151865Y0113629D01*
X0152451Y0113179D01*
Y0105487D01*
X0152025Y0105402D01*
X0151421Y0104999D01*
X0144939D01*
X0144335Y0105402D01*
X0143360Y0105596D01*
X0142384Y0105402D01*
X0141781Y0104999D01*
X0135579D01*
X0134976Y0105402D01*
X0134000Y0105596D01*
X0133025Y0105402D01*
X0132421Y0104999D01*
X0126099D01*
Y0120615D01*
X0127250Y0122138D01*
X0128099Y0122138D01*
X0131950D01*
Y0122599D01*
X0134502D01*
X0134622Y0122518D01*
X0135500Y0122344D01*
X0136378Y0122518D01*
X0137122Y0123016D01*
X0137619Y0123760D01*
X0137794Y0124638D01*
X0137619Y0125516D01*
X0137122Y0126260D01*
X0136378Y0126757D01*
X0135500Y0126932D01*
X0134622Y0126757D01*
X0134502Y0126677D01*
X0131950D01*
Y0127138D01*
X0128099D01*
X0127250Y0127138D01*
X0126099Y0128661D01*
Y0167859D01*
X0127250Y0169382D01*
X0128099Y0169382D01*
X0131950D01*
X0131950Y0169382D01*
X0133950Y0169877D01*
X0134122Y0169762D01*
X0135000Y0169588D01*
X0135878Y0169762D01*
X0136622Y0170260D01*
X0137119Y0171004D01*
X0137294Y0171882D01*
X0137119Y0172760D01*
X0136622Y0173504D01*
X0135878Y0174001D01*
X0135000Y0174176D01*
X0134122Y0174001D01*
X0133950Y0173886D01*
X0131950Y0174382D01*
Y0174382D01*
X0128099D01*
X0127250Y0174382D01*
X0126099Y0175905D01*
Y0191544D01*
X0127250Y0193067D01*
X0129670D01*
X0132319Y0190419D01*
D02*
G37*
G36*
X0202946Y0131097D02*
X0203107Y0131030D01*
X0203113Y0131029D01*
X0203429Y0130713D01*
X0203430Y0130707D01*
X0203497Y0130546D01*
X0203500Y0130541D01*
X0203500Y0130441D01*
X0203500Y0130441D01*
Y0128260D01*
X0203500Y0120233D01*
X0203500Y0109580D01*
Y0105687D01*
X0203500Y0093058D01*
X0203360Y0092740D01*
X0203042Y0092600D01*
X0188032D01*
X0187980Y0092609D01*
X0187944Y0092645D01*
X0182000Y0100967D01*
Y0130642D01*
X0182458Y0131100D01*
X0185863D01*
X0200783Y0131100D01*
X0202941D01*
X0202946Y0131097D01*
D02*
G37*
G36*
X0280046Y0143607D02*
X0280207Y0143540D01*
X0280213Y0143539D01*
X0280529Y0143223D01*
X0280530Y0143217D01*
X0280597Y0143056D01*
X0280600Y0143051D01*
X0280600Y0142951D01*
X0280600Y0142951D01*
Y0138642D01*
X0280600Y0108784D01*
Y0106497D01*
X0280600Y0106497D01*
X0280598Y0106490D01*
X0280593Y0106445D01*
X0280590Y0106437D01*
X0280585Y0106429D01*
X0280553Y0106397D01*
X0280549Y0106391D01*
X0280517Y0106358D01*
X0280511Y0106351D01*
X0280507Y0106347D01*
X0280467Y0106316D01*
X0280465Y0106313D01*
X0280461Y0106310D01*
X0280449Y0106296D01*
X0280425Y0106252D01*
X0280312Y0106210D01*
X0280066Y0106177D01*
X0279834Y0106222D01*
X0279563Y0106552D01*
X0278649Y0107302D01*
X0277607Y0107859D01*
X0276476Y0108202D01*
X0275300Y0108318D01*
X0274124Y0108202D01*
X0272993Y0107859D01*
X0271951Y0107302D01*
X0271037Y0106552D01*
X0270287Y0105639D01*
X0269946Y0105000D01*
X0255899D01*
X0255894Y0105003D01*
X0255734Y0105070D01*
X0255728Y0105071D01*
X0255412Y0105387D01*
X0255410Y0105393D01*
X0255344Y0105554D01*
X0255341Y0105559D01*
X0255341Y0105659D01*
X0255341Y0105659D01*
Y0107878D01*
X0255341Y0136672D01*
Y0143152D01*
X0255541Y0143610D01*
X0255541Y0143610D01*
X0280041D01*
X0280046Y0143607D01*
D02*
G37*
G36*
X0610367Y0097984D02*
X0610369D01*
X0610373Y0097982D01*
X0610376Y0097979D01*
X0610378Y0097975D01*
X0610426Y0097908D01*
X0610464Y0097824D01*
X0610464Y0097824D01*
X0610464Y0097824D01*
X0610464Y0097824D01*
X0611964Y0094480D01*
X0611964Y0094478D01*
X0611974Y0094430D01*
X0611975Y0094427D01*
X0611979Y0094406D01*
X0611983Y0094396D01*
X0611984Y0094396D01*
X0611984Y0094395D01*
Y0094395D01*
X0611984Y0094380D01*
X0611985Y0094378D01*
X0611985Y0094377D01*
X0611985Y0094375D01*
X0611985Y0094375D01*
X0611986Y0094374D01*
X0611986Y0094373D01*
X0612000Y0094311D01*
X0612000Y0094309D01*
X0612000Y0055054D01*
X0611860Y0054735D01*
X0611542Y0054595D01*
X0543092D01*
X0543080Y0054603D01*
X0543080Y0054603D01*
X0543052Y0054631D01*
X0543034Y0054644D01*
X0543004Y0054673D01*
X0543000Y0054683D01*
X0542992Y0054696D01*
X0542992Y0054696D01*
Y0071342D01*
X0542996Y0071364D01*
Y0071433D01*
X0542998Y0071440D01*
X0543001Y0071447D01*
X0543041Y0071502D01*
X0543042Y0071502D01*
X0543042Y0071502D01*
X0543051Y0071522D01*
X0543051Y0071522D01*
X0543051Y0071523D01*
X0543270Y0071820D01*
X0543308Y0071858D01*
X0543308Y0071858D01*
X0543379Y0071929D01*
X0543385Y0071930D01*
X0543476Y0071968D01*
X0543476Y0071968D01*
X0543476Y0071968D01*
X0543546Y0071997D01*
X0543550Y0072000D01*
X0543651Y0072000D01*
X0543651Y0072000D01*
X0552323Y0072000D01*
X0553899D01*
X0553900Y0072000D01*
X0553904Y0071997D01*
X0554065Y0071930D01*
X0554071Y0071929D01*
X0558343Y0067658D01*
X0580500D01*
X0581572Y0068836D01*
X0581572Y0068836D01*
X0589000Y0077003D01*
Y0097900D01*
X0589008Y0097912D01*
X0589008Y0097912D01*
X0589036Y0097940D01*
X0589048Y0097958D01*
X0589078Y0097987D01*
X0589088Y0097992D01*
X0589100Y0098000D01*
X0589100Y0098000D01*
X0610284D01*
X0610367Y0097984D01*
D02*
G37*
D15*
X0199050Y0013100D02*
Y0013150D01*
X0199000Y0013200D02*
X0199050Y0013150D01*
X0434772Y0053378D02*
X0435650Y0052500D01*
X0437000Y0044550D02*
X0438050Y0043500D01*
X0393000Y0074700D02*
X0397000Y0078700D01*
Y0079000D01*
X0397300D02*
X0398300Y0080000D01*
X0397000Y0079000D02*
X0397300D01*
X0414434Y0083934D02*
X0414500Y0084000D01*
X0410500Y0080000D02*
X0414434Y0083934D01*
X0398300Y0080000D02*
X0410500D01*
X0355052Y0074700D02*
X0393000D01*
X0397462Y0084300D02*
X0409000D01*
X0389914Y0076752D02*
X0396662Y0083500D01*
X0360874Y0076752D02*
X0389914D01*
X0396662Y0083500D02*
X0397462Y0084300D01*
X0404000Y0089950D02*
X0414500D01*
X0414552Y0090016D02*
X0442500D01*
X0414732Y0084100D02*
X0419400D01*
X0414500Y0083868D02*
X0414732Y0084100D01*
X0414500Y0090068D02*
X0414552Y0090016D01*
X0701000Y0079000D02*
X0713500D01*
X0696700Y0074700D02*
X0701000Y0079000D01*
X0659052Y0074700D02*
X0696700D01*
X0713500Y0079000D02*
X0718500Y0084000D01*
X0701462Y0084300D02*
X0713800D01*
X0700662Y0083500D02*
X0701462Y0084300D01*
X0720522Y0084972D02*
X0723000D01*
X0719550Y0084000D02*
X0720522Y0084972D01*
X0719500Y0084050D02*
X0719550Y0084000D01*
X0129450Y0171882D02*
X0135000D01*
X0135775Y0041800D02*
X0147612Y0029964D01*
X0129200Y0041800D02*
X0135775D01*
X0120500Y0041614D02*
X0129300Y0050414D01*
Y0055200D01*
X0443700Y0043750D02*
Y0046579D01*
Y0043750D02*
X0443950Y0043500D01*
X0437000Y0044550D02*
Y0046500D01*
X0719500Y0090016D02*
X0746500D01*
X0747950Y0044511D02*
Y0044797D01*
X0741921Y0044640D02*
Y0046500D01*
Y0044640D02*
X0742050Y0044511D01*
X0749347Y0046194D02*
Y0046600D01*
X0747950Y0044797D02*
X0749347Y0046194D01*
X0745550Y0050397D02*
X0749347Y0046600D01*
X0745550Y0050397D02*
Y0052500D01*
X0739650Y0052500D02*
Y0056000D01*
Y0052500D02*
X0739650Y0052500D01*
X0442650Y0047629D02*
X0443700Y0046579D01*
X0442650Y0047629D02*
Y0051400D01*
X0441550Y0052500D02*
X0442650Y0051400D01*
X0434772Y0053378D02*
Y0055864D01*
X0175000Y0036000D02*
X0184972Y0026028D01*
X0159057Y0036000D02*
X0175000D01*
X0184972Y0009000D02*
Y0026028D01*
X0210000Y0163100D02*
X0215500Y0168600D01*
X0210000Y0130500D02*
Y0163100D01*
X0138009Y0018926D02*
X0139737D01*
X0120500Y0036435D02*
X0138009Y0018926D01*
X0120500Y0036435D02*
Y0041614D01*
X0174450Y0009379D02*
X0176950Y0011879D01*
X0129417Y0018775D02*
Y0019900D01*
X0128786Y0035000D02*
X0133536D01*
X0056000Y0132512D02*
X0058550D01*
X0122700Y0016000D02*
X0127600D01*
X0174450Y0009000D02*
Y0009379D01*
X0130289Y0194611D02*
X0133400Y0191500D01*
X0150996D02*
X0155000Y0195504D01*
X0130289Y0194611D02*
Y0195567D01*
X0133742Y0009858D02*
X0162166D01*
X0127600Y0016000D02*
X0133742Y0009858D01*
X0136349Y0011843D02*
X0150152D01*
X0129417Y0018775D02*
X0136349Y0011843D01*
X0150152D02*
X0155486Y0017176D01*
X0147612Y0026800D02*
Y0029964D01*
X0277700Y0020092D02*
Y0035200D01*
X0277608Y0020000D02*
X0277700Y0020092D01*
X0269734Y0020000D02*
Y0032300D01*
X0253986Y0020000D02*
Y0026800D01*
X0261860Y0020000D02*
Y0029600D01*
X0133536Y0035000D02*
X0139737Y0028798D01*
Y0026800D02*
Y0028798D01*
X0176950Y0011879D02*
Y0023247D01*
X0173397Y0026800D02*
X0176950Y0023247D01*
X0171234Y0026800D02*
X0173397D01*
X0162166Y0009858D02*
X0171234Y0018926D01*
X0155486Y0032428D02*
X0159057Y0036000D01*
X0155486Y0026800D02*
Y0032428D01*
X0160074Y0094319D02*
X0160755Y0095000D01*
X0160919D01*
X0058550Y0132512D02*
X0058550Y0132512D01*
X0133400Y0191500D02*
X0150996D01*
X0651126Y0082626D02*
X0659052Y0074700D01*
X0659000Y0082626D02*
X0664874Y0076752D01*
X0693914D01*
X0700662Y0083500D01*
X0708000Y0084100D02*
X0708376Y0083724D01*
X0719450Y0090000D02*
X0719500Y0089950D01*
X0708000Y0090000D02*
X0719450D01*
X0355000Y0082626D02*
X0360874Y0076752D01*
X0347126Y0082626D02*
X0355052Y0074700D01*
X0027500Y0179500D02*
Y0179756D01*
D32*
X0330000Y0125708D02*
D03*
Y0119024D02*
D03*
X0355000D02*
D03*
Y0125708D02*
D03*
X0380000D02*
D03*
Y0119024D02*
D03*
X0405000D02*
D03*
Y0125708D02*
D03*
X0430000D02*
D03*
Y0119024D02*
D03*
X0455000D02*
D03*
Y0125708D02*
D03*
X0480000D02*
D03*
Y0119024D02*
D03*
X0505000D02*
D03*
Y0125708D02*
D03*
X0530000D02*
D03*
Y0119024D02*
D03*
X0555000D02*
D03*
Y0125708D02*
D03*
X0580000D02*
D03*
Y0119024D02*
D03*
X0602500D02*
D03*
Y0125708D02*
D03*
X0630000D02*
D03*
Y0119024D02*
D03*
X0655000D02*
D03*
Y0125708D02*
D03*
X0680000D02*
D03*
Y0119024D02*
D03*
X0705000D02*
D03*
Y0125708D02*
D03*
X0730000D02*
D03*
Y0119024D02*
D03*
X0755000D02*
D03*
Y0125708D02*
D03*
X0780000D02*
D03*
Y0119024D02*
D03*
X0805000D02*
D03*
Y0125708D02*
D03*
X0830000D02*
D03*
Y0119024D02*
D03*
X0855000D02*
D03*
Y0125708D02*
D03*
X0880000D02*
D03*
Y0119024D02*
D03*
X0915500Y0113158D02*
D03*
Y0119842D02*
D03*
D33*
X0719500Y0090100D02*
D03*
Y0083900D02*
D03*
X0708000Y0083950D02*
D03*
Y0090150D02*
D03*
X0404000Y0090100D02*
D03*
Y0083900D02*
D03*
X0134300Y0234000D02*
D03*
Y0240200D02*
D03*
X0414500Y0083868D02*
D03*
Y0090068D02*
D03*
D34*
X0741900Y0044511D02*
D03*
X0748100D02*
D03*
X0444100Y0043500D02*
D03*
X0437900D02*
D03*
X0739500Y0052500D02*
D03*
X0745700D02*
D03*
X0441700D02*
D03*
X0435500D02*
D03*
X0123400Y0124638D02*
D03*
X0129600D02*
D03*
X0066100Y0132512D02*
D03*
X0059900D02*
D03*
X0123400Y0223063D02*
D03*
X0129600D02*
D03*
Y0195567D02*
D03*
X0123400D02*
D03*
X0169333Y0109766D02*
D03*
X0163133D02*
D03*
X0192850Y0013100D02*
D03*
X0199050D02*
D03*
X0123400Y0171882D02*
D03*
X0129600D02*
D03*
D36*
X0159856Y0088595D02*
D03*
X0166156D02*
D03*
D44*
X0187844Y0120600D02*
D03*
X0175245D02*
D03*
Y0112000D02*
D03*
X0187844D02*
D03*
D45*
X0143360Y0090449D02*
D03*
Y0103047D02*
D03*
X0134000D02*
D03*
Y0090449D02*
D03*
X0153000D02*
D03*
Y0103047D02*
D03*
D93*
X0840319Y0091957D02*
X0855682D01*
X0828862Y0080500D02*
X0840319Y0091957D01*
X0826129Y0080500D02*
X0828862D01*
X0818950Y0062550D02*
X0840000Y0083600D01*
X0764500Y0062550D02*
X0818950D01*
X0534720Y0090866D02*
X0551446D01*
X0526854Y0083000D02*
X0534720Y0090866D01*
X0524900Y0083000D02*
X0526854D01*
X0536615Y0081840D02*
Y0082900D01*
X0529674Y0074900D02*
X0536615Y0081840D01*
X0198900Y0013000D02*
X0240000D01*
X0511142Y0074900D02*
X0529674D01*
X0499892Y0063650D02*
X0511142Y0074900D01*
X0460433Y0063650D02*
X0499892D01*
X0482469Y0194366D02*
X0492500D01*
X0129450Y0124638D02*
X0135500D01*
X0602000Y0126016D02*
Y0127000D01*
Y0126016D02*
X0602500Y0125516D01*
X0392000Y0194366D02*
X0392500D01*
X0917000D02*
X0917500Y0194866D01*
X0392000Y0194366D02*
X0392500Y0194866D01*
D94*
X0275600Y0007420D02*
X0277608Y0009429D01*
X0245580Y0007420D02*
X0275600D01*
X0240000Y0013000D02*
X0245580Y0007420D01*
X0277608Y0009429D02*
Y0012126D01*
X0129450Y0223063D02*
X0135137D01*
X0134300Y0229900D02*
Y0234150D01*
X0189300Y0013400D02*
X0189450Y0013250D01*
X0192850D01*
X0193000Y0013100D01*
X0129425Y0223038D02*
X0129450Y0223063D01*
D95*
X0155000Y0102450D02*
Y0116764D01*
X0153000Y0102450D02*
X0155000D01*
X0143360D02*
X0153000D01*
X0123550Y0195567D02*
Y0223063D01*
X0117766Y0228847D02*
X0123550Y0223063D01*
Y0171882D02*
Y0195567D01*
Y0124638D02*
Y0171882D01*
X0134000Y0102450D02*
X0143360D01*
X0123550D02*
Y0124638D01*
X0128000Y0102450D02*
X0134000D01*
X0161364Y0102480D02*
X0163133Y0104250D01*
X0170761Y0102480D02*
X0175500D01*
X0169583Y0103214D02*
X0170317Y0102480D01*
X0163133Y0104250D02*
Y0109766D01*
X0169583Y0103214D02*
Y0109516D01*
X0169333Y0109766D02*
X0169583Y0109516D01*
X0170317Y0102480D02*
X0170761D01*
X0066050Y0132231D02*
X0066100Y0132281D01*
Y0132512D01*
X0066050Y0116560D02*
Y0132231D01*
X0123400Y0195567D02*
X0123550D01*
X0123400Y0171882D02*
X0123550D01*
X0123400Y0124638D02*
X0123550D01*
X0123400Y0223063D02*
X0123550D01*
X0176929Y0040271D02*
X0188200Y0029000D01*
X0166213Y0040271D02*
X0176929D01*
X0128000Y0078483D02*
X0166213Y0040271D01*
X0196007Y0019529D02*
X0199000Y0016536D01*
X0191223Y0019529D02*
X0196007D01*
X0188200Y0022552D02*
X0191223Y0019529D01*
X0188200Y0022552D02*
Y0029000D01*
X0199000Y0013200D02*
Y0016536D01*
X0134000Y0102450D02*
Y0103047D01*
X0143360Y0102450D02*
Y0103047D01*
X0547700Y0110466D02*
X0579000D01*
X0593700Y0135900D02*
X0601400Y0143600D01*
X0593700Y0120366D02*
Y0135900D01*
X0583800Y0110466D02*
X0593700Y0120366D01*
X0173436Y0095000D02*
X0175500Y0097064D01*
X0170761Y0095000D02*
X0173436D01*
X0175500Y0102480D02*
X0198006D01*
X0175500Y0097064D02*
Y0102480D01*
X0198006D02*
X0202159Y0106633D01*
X0601400Y0143600D02*
Y0144700D01*
X0045553Y0228847D02*
X0117766D01*
X0039526Y0234874D02*
X0045553Y0228847D01*
X0035374Y0234874D02*
X0039526D01*
X0080196Y0047504D02*
Y0102414D01*
Y0047504D02*
X0101700Y0026000D01*
X0128000Y0078483D02*
Y0102450D01*
X0153000D02*
Y0103047D01*
X0123550Y0102450D02*
X0128000D01*
X0080196Y0102414D02*
X0088000Y0102450D01*
X0066050Y0116560D02*
X0080196Y0102414D01*
X0088000Y0102450D02*
X0123550Y0102450D01*
X0202159Y0106633D02*
Y0108633D01*
X0160919Y0102480D02*
X0161364D01*
X0160889Y0102450D02*
X0160919Y0102480D01*
X0155000Y0102450D02*
X0160889D01*
X0578800Y0110400D02*
X0578866D01*
X0578900Y0110366D01*
X0579000Y0110466D01*
X0538234Y0101000D02*
X0547700Y0110466D01*
X0538000Y0101000D02*
X0538234D01*
X0579000Y0110466D02*
X0583800D01*
D96*
X0904500Y0123000D02*
Y0124638D01*
X0891400Y0109900D02*
X0904500Y0123000D01*
X0614055Y0119217D02*
X0630000D01*
X0316300Y0018113D02*
X0320270Y0014142D01*
X0490105D01*
X0316300Y0018113D02*
Y0074500D01*
X0608573Y0132612D02*
X0610300Y0128257D01*
X0605900Y0135400D02*
X0608573Y0132612D01*
X0610240Y0128236D02*
X0614055Y0119217D01*
X0308000Y0082800D02*
X0316300Y0074500D01*
X0283800Y0082800D02*
X0308000D01*
X0275300Y0091300D02*
X0283800Y0082800D01*
X0275300Y0091300D02*
Y0102289D01*
D97*
X0917500Y0184616D02*
Y0194866D01*
X0617500Y0184616D02*
Y0213798D01*
Y0218947D01*
X0917500Y0213798D02*
Y0218947D01*
Y0194866D02*
Y0213798D01*
X0317500Y0184366D02*
Y0207354D01*
X0342500Y0184366D02*
Y0218697D01*
X0367500Y0184366D02*
Y0218697D01*
X0392500Y0194866D02*
Y0218697D01*
Y0184366D02*
Y0194366D01*
X0417500Y0184366D02*
Y0218697D01*
X0442500Y0184366D02*
Y0218697D01*
X0467500Y0184366D02*
Y0218697D01*
X0492500Y0194366D02*
Y0218697D01*
Y0184366D02*
Y0194366D01*
X0517500Y0184366D02*
Y0218697D01*
X0542500Y0184366D02*
Y0218697D01*
X0567500Y0184366D02*
Y0218697D01*
X0592500Y0184366D02*
Y0218697D01*
X0642500Y0212354D02*
Y0218947D01*
Y0184616D02*
Y0212354D01*
X0667500D02*
Y0218947D01*
Y0184616D02*
Y0212354D01*
X0692500D02*
Y0218947D01*
Y0184616D02*
Y0212354D01*
X0717500D02*
Y0218947D01*
Y0184616D02*
Y0212354D01*
X0742500D02*
Y0218947D01*
Y0184616D02*
Y0212354D01*
X0767500D02*
Y0218947D01*
Y0184616D02*
Y0212354D01*
X0792500D02*
Y0218947D01*
Y0184616D02*
Y0212354D01*
X0817500D02*
Y0218947D01*
Y0184616D02*
Y0212354D01*
X0842500D02*
Y0218947D01*
Y0184616D02*
Y0212354D01*
X0867500D02*
Y0218947D01*
Y0184616D02*
Y0212354D01*
X0892500D02*
Y0218947D01*
Y0184616D02*
Y0212354D01*
X0312500D02*
X0317500Y0207354D01*
D100*
X0159856Y0088700D02*
X0160074Y0088918D01*
X0159856Y0088595D02*
Y0088700D01*
X0160074Y0088918D02*
Y0094319D01*
D101*
X0155486Y0017176D02*
Y0018926D01*
D103*
X0171234Y0026800D02*
D03*
Y0018926D02*
D03*
X0163360Y0026800D02*
D03*
Y0018926D02*
D03*
X0155486Y0026800D02*
D03*
Y0018926D02*
D03*
X0147612Y0026800D02*
D03*
Y0018926D02*
D03*
X0139737Y0026800D02*
D03*
X0643252Y0082626D02*
D03*
Y0090500D02*
D03*
X0651126Y0082626D02*
D03*
Y0090500D02*
D03*
X0659000Y0082626D02*
D03*
Y0090500D02*
D03*
X0666874Y0082626D02*
D03*
Y0090500D02*
D03*
X0674748Y0082626D02*
D03*
Y0090500D02*
D03*
X0682622Y0082626D02*
D03*
X0339252D02*
D03*
Y0090500D02*
D03*
X0347126Y0082626D02*
D03*
Y0090500D02*
D03*
X0355000Y0082626D02*
D03*
Y0090500D02*
D03*
X0362874Y0082626D02*
D03*
Y0090500D02*
D03*
X0370748Y0082626D02*
D03*
Y0090500D02*
D03*
X0378622Y0082626D02*
D03*
D104*
X0139737Y0018926D02*
D03*
X0682622Y0090500D02*
D03*
X0378622D02*
D03*
D105*
X0860892Y0102366D02*
D03*
X0868766D02*
D03*
X0876640D02*
D03*
X0814863Y0092000D02*
D03*
X0822737D02*
D03*
X0830611D02*
D03*
X0510863D02*
D03*
X0518737D02*
D03*
X0526611D02*
D03*
X0556778Y0102366D02*
D03*
X0564652D02*
D03*
X0572526D02*
D03*
D106*
X0261996Y0194248D02*
D03*
X0254122D02*
D03*
X0214752D02*
D03*
X0206878D02*
D03*
Y0202909D02*
D03*
X0214752D02*
D03*
X0222626D02*
D03*
X0230500D02*
D03*
X0238374D02*
D03*
X0246248D02*
D03*
X0254122D02*
D03*
X0261996D02*
D03*
X0966795Y0194248D02*
D03*
X0982543D02*
D03*
X0974669D02*
D03*
X0966795Y0202909D02*
D03*
X0974669D02*
D03*
X0982543D02*
D03*
X0998291D02*
D03*
X0990417D02*
D03*
X1014039D02*
D03*
X1006165D02*
D03*
X1037661D02*
D03*
X1029787D02*
D03*
X1021913D02*
D03*
X1029787Y0194248D02*
D03*
X1037661D02*
D03*
X1021913D02*
D03*
D107*
X0061700Y0016000D02*
D03*
Y0026000D02*
D03*
X0071700Y0016000D02*
D03*
Y0026000D02*
D03*
X0081700Y0016000D02*
D03*
Y0026000D02*
D03*
X0091700Y0016000D02*
D03*
Y0026000D02*
D03*
X0101700Y0016000D02*
D03*
D108*
Y0026000D02*
D03*
D109*
X0253986Y0020000D02*
D03*
X0261860D02*
D03*
X0269734D02*
D03*
X0253986Y0012126D02*
D03*
X0261860D02*
D03*
X0269734D02*
D03*
D110*
X0277608Y0020000D02*
D03*
Y0012126D02*
D03*
D111*
X0027500Y0116764D02*
D03*
Y0124638D02*
D03*
Y0132512D02*
D03*
Y0140386D02*
D03*
Y0148260D02*
D03*
Y0156134D02*
D03*
Y0164008D02*
D03*
Y0171882D02*
D03*
Y0179756D02*
D03*
Y0187630D02*
D03*
Y0195504D02*
D03*
Y0203378D02*
D03*
Y0211252D02*
D03*
Y0219126D02*
D03*
Y0227000D02*
D03*
X0035374Y0116764D02*
D03*
Y0124638D02*
D03*
Y0132512D02*
D03*
Y0140386D02*
D03*
Y0148260D02*
D03*
Y0156134D02*
D03*
Y0164008D02*
D03*
Y0171882D02*
D03*
Y0179756D02*
D03*
Y0187630D02*
D03*
Y0195504D02*
D03*
Y0203378D02*
D03*
Y0211252D02*
D03*
Y0219126D02*
D03*
Y0227000D02*
D03*
Y0234874D02*
D03*
X0162874D02*
D03*
Y0227000D02*
D03*
Y0219126D02*
D03*
Y0211252D02*
D03*
Y0203378D02*
D03*
Y0195504D02*
D03*
Y0187630D02*
D03*
Y0179756D02*
D03*
Y0171882D02*
D03*
Y0164008D02*
D03*
Y0156134D02*
D03*
Y0148260D02*
D03*
Y0140386D02*
D03*
Y0132512D02*
D03*
Y0124638D02*
D03*
Y0116764D02*
D03*
X0155000Y0227000D02*
D03*
Y0219126D02*
D03*
Y0211252D02*
D03*
Y0203378D02*
D03*
Y0195504D02*
D03*
Y0187630D02*
D03*
Y0179756D02*
D03*
Y0171882D02*
D03*
Y0164008D02*
D03*
Y0156134D02*
D03*
Y0148260D02*
D03*
Y0140386D02*
D03*
Y0132512D02*
D03*
Y0124638D02*
D03*
Y0116764D02*
D03*
D112*
X0027500Y0234874D02*
D03*
X0155000D02*
D03*
D113*
X0920000Y0108500D02*
D03*
Y0098500D02*
D03*
Y0088500D02*
D03*
Y0078500D02*
D03*
Y0068500D02*
D03*
Y0058500D02*
D03*
Y0048500D02*
D03*
Y0038500D02*
D03*
Y0028500D02*
D03*
Y0018500D02*
D03*
Y0008500D02*
D03*
X0910000Y0108500D02*
D03*
Y0098500D02*
D03*
Y0088500D02*
D03*
Y0078500D02*
D03*
Y0068500D02*
D03*
Y0058500D02*
D03*
Y0048500D02*
D03*
Y0038500D02*
D03*
Y0028500D02*
D03*
Y0018500D02*
D03*
Y0008500D02*
D03*
X0900000Y0098500D02*
D03*
Y0088500D02*
D03*
Y0078500D02*
D03*
Y0068500D02*
D03*
Y0058500D02*
D03*
Y0048500D02*
D03*
Y0038500D02*
D03*
Y0028500D02*
D03*
Y0018500D02*
D03*
Y0008500D02*
D03*
X0890000D02*
D03*
X0880000Y0088500D02*
D03*
Y0058500D02*
D03*
Y0048500D02*
D03*
Y0038500D02*
D03*
X0860000Y0088500D02*
D03*
X0850000Y0098500D02*
D03*
Y0088500D02*
D03*
X0840000Y0108500D02*
D03*
Y0078500D02*
D03*
Y0058500D02*
D03*
Y0048500D02*
D03*
Y0038500D02*
D03*
Y0028500D02*
D03*
X0830000Y0108500D02*
D03*
Y0068500D02*
D03*
Y0058500D02*
D03*
Y0048500D02*
D03*
Y0038500D02*
D03*
Y0028500D02*
D03*
X0820000Y0068500D02*
D03*
Y0058500D02*
D03*
Y0048500D02*
D03*
Y0038500D02*
D03*
Y0028500D02*
D03*
X0810000Y0068500D02*
D03*
Y0058500D02*
D03*
Y0048500D02*
D03*
Y0038500D02*
D03*
Y0028500D02*
D03*
X0800000Y0068500D02*
D03*
Y0058500D02*
D03*
Y0048500D02*
D03*
Y0038500D02*
D03*
Y0028500D02*
D03*
X0790000Y0048500D02*
D03*
Y0038500D02*
D03*
Y0028500D02*
D03*
X0780000Y0048500D02*
D03*
Y0038500D02*
D03*
Y0028500D02*
D03*
X0770000D02*
D03*
X0517000D02*
D03*
X0507000Y0038500D02*
D03*
Y0028500D02*
D03*
X0497000Y0048500D02*
D03*
Y0038500D02*
D03*
Y0028500D02*
D03*
X0487000Y0048500D02*
D03*
Y0038500D02*
D03*
Y0028500D02*
D03*
X0307000Y0008500D02*
D03*
X0297000D02*
D03*
X0287000D02*
D03*
X0237000D02*
D03*
X0227000D02*
D03*
X0217000D02*
D03*
X0207000D02*
D03*
X0197000D02*
D03*
X0167000Y0198500D02*
D03*
X0157000Y0038500D02*
D03*
X0147000Y0188500D02*
D03*
Y0178500D02*
D03*
Y0048500D02*
D03*
Y0038500D02*
D03*
X0137000Y0058500D02*
D03*
Y0048500D02*
D03*
X0127000Y0228500D02*
D03*
Y0008500D02*
D03*
X0117000Y0218500D02*
D03*
Y0208500D02*
D03*
Y0198500D02*
D03*
Y0188500D02*
D03*
Y0178500D02*
D03*
Y0168500D02*
D03*
Y0158500D02*
D03*
Y0148500D02*
D03*
Y0138500D02*
D03*
Y0128500D02*
D03*
Y0098500D02*
D03*
Y0088500D02*
D03*
Y0078500D02*
D03*
Y0018500D02*
D03*
Y0008500D02*
D03*
X0107000Y0218500D02*
D03*
Y0208500D02*
D03*
Y0198500D02*
D03*
Y0188500D02*
D03*
Y0178500D02*
D03*
Y0168500D02*
D03*
Y0158500D02*
D03*
Y0148500D02*
D03*
Y0138500D02*
D03*
Y0128500D02*
D03*
Y0118500D02*
D03*
Y0108500D02*
D03*
Y0098500D02*
D03*
Y0088500D02*
D03*
Y0068500D02*
D03*
Y0008500D02*
D03*
X0097000Y0218500D02*
D03*
Y0208500D02*
D03*
Y0198500D02*
D03*
Y0188500D02*
D03*
Y0178500D02*
D03*
Y0168500D02*
D03*
Y0158500D02*
D03*
Y0148500D02*
D03*
Y0138500D02*
D03*
Y0128500D02*
D03*
Y0118500D02*
D03*
Y0108500D02*
D03*
Y0098500D02*
D03*
Y0088500D02*
D03*
Y0078500D02*
D03*
Y0068500D02*
D03*
Y0058500D02*
D03*
Y0038500D02*
D03*
X0087000Y0218500D02*
D03*
Y0208500D02*
D03*
Y0198500D02*
D03*
Y0188500D02*
D03*
Y0178500D02*
D03*
Y0168500D02*
D03*
Y0158500D02*
D03*
Y0148500D02*
D03*
Y0138500D02*
D03*
Y0128500D02*
D03*
Y0118500D02*
D03*
Y0108500D02*
D03*
Y0098500D02*
D03*
Y0088500D02*
D03*
Y0078500D02*
D03*
Y0068500D02*
D03*
Y0058500D02*
D03*
Y0048500D02*
D03*
X0077000Y0218500D02*
D03*
Y0208500D02*
D03*
Y0198500D02*
D03*
Y0188500D02*
D03*
Y0178500D02*
D03*
Y0168500D02*
D03*
Y0158500D02*
D03*
Y0148500D02*
D03*
Y0138500D02*
D03*
Y0128500D02*
D03*
X0067000Y0218500D02*
D03*
Y0208500D02*
D03*
Y0198500D02*
D03*
Y0188500D02*
D03*
Y0178500D02*
D03*
Y0068500D02*
D03*
Y0058500D02*
D03*
Y0038500D02*
D03*
X0057000Y0218500D02*
D03*
Y0208500D02*
D03*
Y0188500D02*
D03*
Y0178500D02*
D03*
Y0048500D02*
D03*
Y0038500D02*
D03*
Y0008500D02*
D03*
X0047000Y0108500D02*
D03*
Y0098500D02*
D03*
Y0088500D02*
D03*
Y0078500D02*
D03*
Y0068500D02*
D03*
Y0058500D02*
D03*
Y0048500D02*
D03*
Y0038500D02*
D03*
Y0018500D02*
D03*
Y0008500D02*
D03*
X0037000Y0108500D02*
D03*
Y0098500D02*
D03*
Y0088500D02*
D03*
Y0078500D02*
D03*
Y0068500D02*
D03*
Y0058500D02*
D03*
Y0048500D02*
D03*
Y0028500D02*
D03*
Y0018500D02*
D03*
Y0008500D02*
D03*
X0027000Y0108500D02*
D03*
Y0098500D02*
D03*
Y0088500D02*
D03*
Y0078500D02*
D03*
Y0068500D02*
D03*
Y0058500D02*
D03*
Y0038500D02*
D03*
X0017000Y0228500D02*
D03*
Y0218500D02*
D03*
Y0208500D02*
D03*
Y0198500D02*
D03*
Y0188500D02*
D03*
Y0178500D02*
D03*
Y0158500D02*
D03*
Y0148500D02*
D03*
Y0138500D02*
D03*
Y0128500D02*
D03*
Y0118500D02*
D03*
Y0108500D02*
D03*
Y0098500D02*
D03*
Y0088500D02*
D03*
Y0078500D02*
D03*
Y0068500D02*
D03*
Y0048500D02*
D03*
Y0038500D02*
D03*
X0007000Y0228500D02*
D03*
Y0218500D02*
D03*
Y0208500D02*
D03*
Y0198500D02*
D03*
Y0188500D02*
D03*
Y0178500D02*
D03*
Y0168500D02*
D03*
Y0158500D02*
D03*
Y0148500D02*
D03*
Y0138500D02*
D03*
Y0128500D02*
D03*
Y0118500D02*
D03*
Y0108500D02*
D03*
Y0098500D02*
D03*
Y0088500D02*
D03*
Y0078500D02*
D03*
Y0068500D02*
D03*
Y0058500D02*
D03*
Y0048500D02*
D03*
Y0038500D02*
D03*
Y0028500D02*
D03*
Y0008500D02*
D03*
X0891400Y0109900D02*
D03*
X0265860Y0107252D02*
D03*
X0265360Y0132752D02*
D03*
X0258360D02*
D03*
X0261860D02*
D03*
X0262360Y0107252D02*
D03*
X0258860D02*
D03*
X0385876Y0064940D02*
D03*
X0376700D02*
D03*
X0395300D02*
D03*
X0397000Y0079000D02*
D03*
X0409000Y0084300D02*
D03*
X0419400Y0084100D02*
D03*
X0701000Y0079000D02*
D03*
X0713800Y0084300D02*
D03*
X0680700Y0064940D02*
D03*
X0689876D02*
D03*
X0699300D02*
D03*
X0723000Y0084972D02*
D03*
X0730000Y0100000D02*
D03*
X0720000D02*
D03*
Y0060000D02*
D03*
Y0050000D02*
D03*
X0710000Y0110000D02*
D03*
Y0100000D02*
D03*
Y0060000D02*
D03*
Y0050000D02*
D03*
X0700000Y0100000D02*
D03*
Y0090000D02*
D03*
Y0070000D02*
D03*
Y0060000D02*
D03*
Y0050000D02*
D03*
X0690000Y0100000D02*
D03*
Y0090000D02*
D03*
Y0080000D02*
D03*
Y0070000D02*
D03*
Y0060000D02*
D03*
X0680000Y0110000D02*
D03*
Y0100000D02*
D03*
Y0070000D02*
D03*
Y0060000D02*
D03*
X0670000Y0110000D02*
D03*
Y0100000D02*
D03*
Y0070000D02*
D03*
Y0060000D02*
D03*
X0660000Y0110000D02*
D03*
Y0100000D02*
D03*
Y0070000D02*
D03*
Y0060000D02*
D03*
X0650000Y0110000D02*
D03*
Y0100000D02*
D03*
Y0070000D02*
D03*
Y0060000D02*
D03*
X0640000Y0110000D02*
D03*
Y0100000D02*
D03*
Y0070000D02*
D03*
Y0060000D02*
D03*
X0630000Y0110000D02*
D03*
Y0100000D02*
D03*
Y0090000D02*
D03*
Y0080000D02*
D03*
Y0070000D02*
D03*
Y0060000D02*
D03*
X0620000Y0110000D02*
D03*
X0179000Y0108500D02*
D03*
X0474000Y0048000D02*
D03*
Y0043000D02*
D03*
Y0038000D02*
D03*
Y0033000D02*
D03*
Y0028000D02*
D03*
X0469000D02*
D03*
Y0023000D02*
D03*
X0464000D02*
D03*
X0459000Y0048000D02*
D03*
Y0043000D02*
D03*
Y0023000D02*
D03*
X0454000Y0038000D02*
D03*
Y0023000D02*
D03*
X0449000Y0038000D02*
D03*
Y0023000D02*
D03*
X0444000Y0038000D02*
D03*
Y0023000D02*
D03*
X0439000Y0038000D02*
D03*
Y0023000D02*
D03*
X0434000Y0038000D02*
D03*
Y0023000D02*
D03*
X0429000Y0038000D02*
D03*
Y0023000D02*
D03*
X0424000Y0038000D02*
D03*
Y0023000D02*
D03*
X0419000Y0038000D02*
D03*
Y0023000D02*
D03*
X0414000Y0038000D02*
D03*
Y0023000D02*
D03*
X0409000Y0038000D02*
D03*
Y0023000D02*
D03*
X0404000Y0038000D02*
D03*
Y0023000D02*
D03*
X0399000Y0038000D02*
D03*
Y0023000D02*
D03*
X0394000Y0038000D02*
D03*
Y0023000D02*
D03*
X0389000Y0038000D02*
D03*
Y0023000D02*
D03*
X0384000Y0038000D02*
D03*
Y0023000D02*
D03*
X0379000Y0038000D02*
D03*
Y0023000D02*
D03*
X0374000Y0038000D02*
D03*
Y0023000D02*
D03*
X0369000Y0038000D02*
D03*
Y0023000D02*
D03*
X0364000Y0038000D02*
D03*
Y0023000D02*
D03*
X0359000Y0038000D02*
D03*
Y0023000D02*
D03*
X0354000Y0038000D02*
D03*
Y0023000D02*
D03*
X0349000Y0038000D02*
D03*
Y0023000D02*
D03*
X0344000Y0038000D02*
D03*
Y0023000D02*
D03*
X0339000Y0038000D02*
D03*
Y0023000D02*
D03*
X0334000Y0038000D02*
D03*
Y0023000D02*
D03*
X0329000Y0038000D02*
D03*
Y0023000D02*
D03*
X0324000Y0038000D02*
D03*
Y0023000D02*
D03*
X0304000Y0038000D02*
D03*
Y0023000D02*
D03*
X0299000Y0038000D02*
D03*
Y0023000D02*
D03*
X0294000Y0038000D02*
D03*
Y0023000D02*
D03*
X0289000Y0038000D02*
D03*
Y0023000D02*
D03*
X0284000Y0038000D02*
D03*
Y0023000D02*
D03*
X0274000Y0038000D02*
D03*
X0269000D02*
D03*
X0264000D02*
D03*
X0259000D02*
D03*
X0254000D02*
D03*
X0249000D02*
D03*
Y0023000D02*
D03*
X0244000Y0038000D02*
D03*
Y0023000D02*
D03*
X0239000Y0038000D02*
D03*
Y0023000D02*
D03*
X0234000Y0038000D02*
D03*
Y0023000D02*
D03*
X0229000Y0038000D02*
D03*
Y0023000D02*
D03*
X0224000Y0038000D02*
D03*
Y0023000D02*
D03*
X0219000Y0038000D02*
D03*
Y0023000D02*
D03*
X0214000Y0038000D02*
D03*
Y0023000D02*
D03*
X0209000Y0038000D02*
D03*
Y0023000D02*
D03*
X0204000Y0043000D02*
D03*
Y0023000D02*
D03*
X0199000Y0048000D02*
D03*
X0194000Y0053000D02*
D03*
X0189000Y0058000D02*
D03*
X0184000Y0063000D02*
D03*
X0179000Y0068000D02*
D03*
Y0028000D02*
D03*
X0174000Y0073000D02*
D03*
Y0033000D02*
D03*
X0169000Y0163000D02*
D03*
Y0158000D02*
D03*
Y0153000D02*
D03*
Y0148000D02*
D03*
Y0138000D02*
D03*
X0164000Y0053000D02*
D03*
X0159000Y0058000D02*
D03*
Y0053000D02*
D03*
X0154000Y0098000D02*
D03*
Y0083000D02*
D03*
Y0078000D02*
D03*
Y0073000D02*
D03*
Y0068000D02*
D03*
Y0063000D02*
D03*
Y0058000D02*
D03*
X0149000Y0143000D02*
D03*
Y0123000D02*
D03*
Y0113000D02*
D03*
Y0108000D02*
D03*
Y0098000D02*
D03*
Y0083000D02*
D03*
Y0078000D02*
D03*
Y0073000D02*
D03*
Y0068000D02*
D03*
Y0063000D02*
D03*
X0144000Y0108000D02*
D03*
Y0098000D02*
D03*
Y0083000D02*
D03*
Y0078000D02*
D03*
Y0073000D02*
D03*
Y0068000D02*
D03*
X0139000Y0108000D02*
D03*
Y0098000D02*
D03*
Y0083000D02*
D03*
Y0078000D02*
D03*
Y0073000D02*
D03*
X0134000Y0163000D02*
D03*
Y0158000D02*
D03*
Y0153000D02*
D03*
Y0148000D02*
D03*
Y0133000D02*
D03*
Y0118000D02*
D03*
Y0113000D02*
D03*
Y0108000D02*
D03*
Y0098000D02*
D03*
Y0083000D02*
D03*
Y0078000D02*
D03*
X0370000Y0058500D02*
D03*
X0240000Y0048500D02*
D03*
X0290000D02*
D03*
X0310000Y0108500D02*
D03*
X0330000Y0078500D02*
D03*
X0340000Y0048500D02*
D03*
X0330000Y0088500D02*
D03*
X0350000Y0058500D02*
D03*
X0380000Y0048500D02*
D03*
X0400000Y0068500D02*
D03*
X0300000Y0048500D02*
D03*
X0400000Y0108500D02*
D03*
X0330000Y0048500D02*
D03*
X0360000Y0108500D02*
D03*
X0380000Y0098500D02*
D03*
X0360000Y0058500D02*
D03*
X0260000Y0048500D02*
D03*
X0320000Y0088500D02*
D03*
X0340000Y0108500D02*
D03*
X0380000D02*
D03*
X0320000Y0098500D02*
D03*
X0350000Y0108500D02*
D03*
X0390000Y0098500D02*
D03*
X0410000Y0058500D02*
D03*
X0250000Y0048500D02*
D03*
X0360000D02*
D03*
X0310000Y0098500D02*
D03*
X0230000Y0048500D02*
D03*
X0340000Y0098500D02*
D03*
X0420000D02*
D03*
X0390000Y0088500D02*
D03*
X0410000Y0098500D02*
D03*
X0420000Y0058500D02*
D03*
X0330000Y0098500D02*
D03*
X0360000D02*
D03*
X0350000D02*
D03*
Y0068500D02*
D03*
X0330000D02*
D03*
X0350000Y0048500D02*
D03*
X0340000Y0058500D02*
D03*
X0360000Y0068500D02*
D03*
X0370000Y0108500D02*
D03*
X0330000D02*
D03*
Y0058500D02*
D03*
X0370000Y0048500D02*
D03*
Y0098500D02*
D03*
X0270000Y0048500D02*
D03*
X0280000D02*
D03*
X0320000Y0108500D02*
D03*
X0340000Y0068500D02*
D03*
X0210000Y0048500D02*
D03*
X0220000D02*
D03*
X0135000Y0171882D02*
D03*
X0490105Y0014142D02*
D03*
X0129200Y0041800D02*
D03*
X0129300Y0055200D02*
D03*
X0437000Y0046500D02*
D03*
X0443700Y0046200D02*
D03*
X0198424Y0057000D02*
D03*
X0191949Y0064333D02*
D03*
X0185475Y0071667D02*
D03*
X0612000Y0023000D02*
D03*
X0608000D02*
D03*
X0604000D02*
D03*
X0600000D02*
D03*
X0596000D02*
D03*
X0592000D02*
D03*
X0588000D02*
D03*
X0584000D02*
D03*
X0580000D02*
D03*
X0576000Y0031000D02*
D03*
X0578000Y0027000D02*
D03*
X0576000Y0023000D02*
D03*
X0572000Y0031000D02*
D03*
X0574000Y0027000D02*
D03*
X0572000Y0023000D02*
D03*
X0568000Y0031000D02*
D03*
X0570000Y0027000D02*
D03*
X0568000Y0023000D02*
D03*
X0564000Y0031000D02*
D03*
X0566000Y0027000D02*
D03*
X0564000Y0023000D02*
D03*
X0560000Y0031000D02*
D03*
X0562000Y0027000D02*
D03*
X0560000Y0023000D02*
D03*
X0556000Y0031000D02*
D03*
X0558000Y0027000D02*
D03*
X0556000Y0023000D02*
D03*
X0552000Y0031000D02*
D03*
X0554000Y0027000D02*
D03*
X0552000Y0023000D02*
D03*
X0548000Y0031000D02*
D03*
X0550000Y0027000D02*
D03*
X0548000Y0023000D02*
D03*
X0544000Y0031000D02*
D03*
X0546000Y0027000D02*
D03*
X0544000Y0023000D02*
D03*
X0540000Y0031000D02*
D03*
X0542000Y0027000D02*
D03*
X0540000Y0023000D02*
D03*
X0536000Y0031000D02*
D03*
X0538000Y0027000D02*
D03*
X0536000Y0023000D02*
D03*
X0532000Y0031000D02*
D03*
X0534000Y0027000D02*
D03*
X0532000Y0023000D02*
D03*
X0528000Y0031000D02*
D03*
X0530000Y0027000D02*
D03*
X0524000Y0039000D02*
D03*
X0526000Y0035000D02*
D03*
X0524000Y0031000D02*
D03*
X0520000Y0039000D02*
D03*
X0522000Y0035000D02*
D03*
X0516000Y0047000D02*
D03*
X0518000Y0043000D02*
D03*
X0516000Y0039000D02*
D03*
X0512000Y0047000D02*
D03*
X0514000Y0043000D02*
D03*
X0508000Y0055000D02*
D03*
X0510000Y0051000D02*
D03*
X0508000Y0047000D02*
D03*
X0504000Y0055000D02*
D03*
X0506000Y0051000D02*
D03*
X0502000Y0059000D02*
D03*
X0500000Y0055000D02*
D03*
X0498000Y0059000D02*
D03*
X0492000Y0071000D02*
D03*
X0494000Y0067000D02*
D03*
X0488000Y0071000D02*
D03*
X0490000Y0067000D02*
D03*
X0484000Y0071000D02*
D03*
X0486000Y0067000D02*
D03*
X0482000D02*
D03*
X0512500Y0065000D02*
D03*
X0566500Y0045000D02*
D03*
X0506500Y0077000D02*
D03*
X0542500Y0045000D02*
D03*
X0552500Y0049000D02*
D03*
X0538500Y0045000D02*
D03*
X0496500Y0081000D02*
D03*
X0484500D02*
D03*
X0562500Y0045000D02*
D03*
X0572500Y0041000D02*
D03*
X0584500Y0049000D02*
D03*
X0532500D02*
D03*
X0502500Y0077000D02*
D03*
X0548500Y0041000D02*
D03*
X0524500Y0057000D02*
D03*
X0572500Y0049000D02*
D03*
X0564500D02*
D03*
X0518500Y0061000D02*
D03*
X0514500D02*
D03*
X0592500Y0049000D02*
D03*
X0556500D02*
D03*
X0600500D02*
D03*
X0476500Y0081000D02*
D03*
X0560500Y0041000D02*
D03*
X0510500Y0069000D02*
D03*
X0588500Y0049000D02*
D03*
X0528500D02*
D03*
X0552500Y0041000D02*
D03*
X0526500Y0053000D02*
D03*
X0534500Y0045000D02*
D03*
X0554500D02*
D03*
X0578500D02*
D03*
X0580500Y0049000D02*
D03*
X0608500D02*
D03*
X0604500D02*
D03*
X0558500Y0045000D02*
D03*
X0556500Y0041000D02*
D03*
X0500500Y0081000D02*
D03*
X0546500Y0045000D02*
D03*
X0550500D02*
D03*
X0536500Y0041000D02*
D03*
X0530500Y0045000D02*
D03*
X0560500Y0049000D02*
D03*
X0516500Y0065000D02*
D03*
X0570500Y0045000D02*
D03*
X0568500Y0049000D02*
D03*
X0548500D02*
D03*
X0520500Y0057000D02*
D03*
X0540500Y0041000D02*
D03*
X0574500Y0045000D02*
D03*
X0576500Y0041000D02*
D03*
X0536500Y0049000D02*
D03*
X0544500Y0041000D02*
D03*
X0504500Y0073000D02*
D03*
X0522500Y0053000D02*
D03*
X0492500Y0081000D02*
D03*
X0540500Y0049000D02*
D03*
X0498500Y0077000D02*
D03*
X0564500Y0041000D02*
D03*
X0544500Y0049000D02*
D03*
X0530500Y0053000D02*
D03*
X0514500Y0069000D02*
D03*
X0480500Y0081000D02*
D03*
X0576500Y0049000D02*
D03*
X0568500Y0041000D02*
D03*
X0522500Y0061000D02*
D03*
X0596500Y0049000D02*
D03*
X0488500Y0081000D02*
D03*
X0774000Y0050000D02*
D03*
X0770000Y0042000D02*
D03*
X0762000Y0034000D02*
D03*
X0756000Y0030000D02*
D03*
X0752000D02*
D03*
X0748000D02*
D03*
X0744000D02*
D03*
X0740000D02*
D03*
X0736000D02*
D03*
X0732000D02*
D03*
X0728000D02*
D03*
X0724000D02*
D03*
X0720000D02*
D03*
X0716000D02*
D03*
X0712000D02*
D03*
X0708000D02*
D03*
X0704000D02*
D03*
X0700000D02*
D03*
X0696000D02*
D03*
X0692000D02*
D03*
X0688000D02*
D03*
X0690000Y0026000D02*
D03*
X0688000Y0022000D02*
D03*
X0684000Y0030000D02*
D03*
X0686000Y0026000D02*
D03*
X0684000Y0022000D02*
D03*
X0680000Y0030000D02*
D03*
X0682000Y0026000D02*
D03*
X0680000Y0022000D02*
D03*
X0676000Y0030000D02*
D03*
X0678000Y0026000D02*
D03*
X0676000Y0022000D02*
D03*
X0674000Y0026000D02*
D03*
X0672000Y0022000D02*
D03*
X0668000D02*
D03*
X0664000D02*
D03*
X0660000D02*
D03*
X0656000D02*
D03*
X0652000D02*
D03*
X0648000D02*
D03*
X0644000D02*
D03*
X0640000D02*
D03*
X0636000D02*
D03*
X0632000D02*
D03*
X0628000D02*
D03*
X0764000Y0048000D02*
D03*
X0756000Y0040000D02*
D03*
X0752000D02*
D03*
X0748000D02*
D03*
X0744000D02*
D03*
X0740000D02*
D03*
X0736000D02*
D03*
X0732000D02*
D03*
X0728000D02*
D03*
X0724000D02*
D03*
X0720000D02*
D03*
X0716000D02*
D03*
X0712000D02*
D03*
X0708000D02*
D03*
X0704000D02*
D03*
X0700000D02*
D03*
X0696000D02*
D03*
X0692000D02*
D03*
X0688000Y0048000D02*
D03*
X0690000Y0044000D02*
D03*
X0688000Y0040000D02*
D03*
X0684000Y0048000D02*
D03*
X0686000Y0044000D02*
D03*
X0684000Y0040000D02*
D03*
X0680000Y0048000D02*
D03*
X0682000Y0044000D02*
D03*
X0680000Y0040000D02*
D03*
X0676000Y0048000D02*
D03*
X0678000Y0044000D02*
D03*
X0676000Y0040000D02*
D03*
X0672000Y0048000D02*
D03*
X0674000Y0044000D02*
D03*
X0668000Y0048000D02*
D03*
X0664000D02*
D03*
X0660000D02*
D03*
X0656000D02*
D03*
X0652000D02*
D03*
X0648000D02*
D03*
X0644000D02*
D03*
X0640000D02*
D03*
X0636000D02*
D03*
X0632000D02*
D03*
X0628000D02*
D03*
X0746500Y0090016D02*
D03*
X0826129Y0080500D02*
D03*
X0747500Y0075500D02*
D03*
X0749347Y0046600D02*
D03*
X0741921Y0046500D02*
D03*
X0524900Y0083000D02*
D03*
X0600500Y0129000D02*
D03*
X0604500D02*
D03*
X0913500Y0123500D02*
D03*
X0917500D02*
D03*
X0878000Y0129366D02*
D03*
X0882000D02*
D03*
X0853000D02*
D03*
X0857000D02*
D03*
X0828000D02*
D03*
X0832000D02*
D03*
X0803000D02*
D03*
X0807000D02*
D03*
X0778000D02*
D03*
X0782000D02*
D03*
X0753000D02*
D03*
X0757000D02*
D03*
X0728000D02*
D03*
X0732000D02*
D03*
X0703000D02*
D03*
X0707000D02*
D03*
X0678000D02*
D03*
X0682000D02*
D03*
X0653000D02*
D03*
X0657000D02*
D03*
X0628000D02*
D03*
X0632000D02*
D03*
X0578000D02*
D03*
X0582000D02*
D03*
X0553000D02*
D03*
X0557000D02*
D03*
X0528000D02*
D03*
X0532000D02*
D03*
X0503000D02*
D03*
X0507000D02*
D03*
X0478000D02*
D03*
X0482000D02*
D03*
X0453000D02*
D03*
X0457000D02*
D03*
X0428000D02*
D03*
X0432000D02*
D03*
X0403000D02*
D03*
X0407000D02*
D03*
X0378000D02*
D03*
X0382000D02*
D03*
X0353000D02*
D03*
X0357000D02*
D03*
X0332000D02*
D03*
X0328000D02*
D03*
X0747546Y0060711D02*
D03*
X0764500Y0062550D02*
D03*
X0763523Y0053863D02*
D03*
X0765890D02*
D03*
X0757623Y0053763D02*
D03*
X0759990D02*
D03*
X0751450Y0056700D02*
D03*
X0443500Y0060779D02*
D03*
X0447271Y0056407D02*
D03*
X0456067Y0054500D02*
D03*
X0453700D02*
D03*
X0459200Y0055000D02*
D03*
X0461700D02*
D03*
X0460433Y0063650D02*
D03*
X0434772Y0055864D02*
D03*
X0146000Y0234874D02*
D03*
X0215500Y0168600D02*
D03*
X0601400Y0144700D02*
D03*
X0135137Y0223063D02*
D03*
X0134300Y0229900D02*
D03*
X0189300Y0013400D02*
D03*
X0122700Y0016000D02*
D03*
X0129417Y0019900D02*
D03*
X0277700Y0035200D02*
D03*
X0253986Y0026800D02*
D03*
X0269734Y0032300D02*
D03*
X0261860Y0029600D02*
D03*
X0128786Y0035000D02*
D03*
X0111417Y0111500D02*
D03*
X0174450Y0009000D02*
D03*
X0184972D02*
D03*
X0904500Y0124638D02*
D03*
X0207571Y0057000D02*
D03*
X0179000Y0079000D02*
D03*
Y0095000D02*
D03*
Y0159460D02*
D03*
X0289000Y0119407D02*
D03*
X0294997Y0113203D02*
D03*
X0301000Y0098013D02*
D03*
X0238714Y0057000D02*
D03*
X0223143D02*
D03*
X0269857D02*
D03*
X0301000D02*
D03*
X0285429D02*
D03*
X0254286D02*
D03*
X0179000Y0133980D02*
D03*
Y0146720D02*
D03*
Y0087000D02*
D03*
Y0172200D02*
D03*
Y0121240D02*
D03*
X0202159Y0122816D02*
D03*
Y0119316D02*
D03*
Y0115633D02*
D03*
Y0112133D02*
D03*
Y0108633D02*
D03*
Y0168554D02*
D03*
Y0150688D02*
D03*
Y0154188D02*
D03*
Y0157871D02*
D03*
Y0161371D02*
D03*
Y0164871D02*
D03*
X0210000Y0130500D02*
D03*
X0056000Y0132512D02*
D03*
X0670633Y0035500D02*
D03*
X0581600Y0035600D02*
D03*
X0135500Y0124638D02*
D03*
X0141339Y0114500D02*
D03*
X0056000Y0160071D02*
D03*
X0135339Y0140386D02*
D03*
X0056000Y0234874D02*
D03*
X0135339Y0195504D02*
D03*
X0056000Y0120701D02*
D03*
Y0195504D02*
D03*
X0490450Y0053000D02*
D03*
X0234050Y0172200D02*
D03*
X0215733D02*
D03*
X0270683D02*
D03*
X0197417D02*
D03*
X0252367D02*
D03*
X0301000Y0107200D02*
D03*
X0289000Y0140524D02*
D03*
Y0129965D02*
D03*
X0301000Y0066813D02*
D03*
X0289000Y0151083D02*
D03*
X0289000Y0172200D02*
D03*
X0289000Y0161641D02*
D03*
X0229337Y0124110D02*
D03*
Y0113610D02*
D03*
X0222837Y0136610D02*
D03*
X0229337Y0128110D02*
D03*
X0226837Y0132610D02*
D03*
X0229337Y0110110D02*
D03*
Y0117110D02*
D03*
Y0120610D02*
D03*
X0184476Y0147188D02*
D03*
X0187976D02*
D03*
X0191476D02*
D03*
X0195159D02*
D03*
X0198659D02*
D03*
X0202159D02*
D03*
X0578800Y0110400D02*
D03*
X0868888Y0091500D02*
D03*
X0739650Y0056000D02*
D03*
X0732500Y0051000D02*
D03*
X0730000Y0059500D02*
D03*
X0721866Y0074525D02*
D03*
X0418700Y0074252D02*
D03*
X0726250Y0095900D02*
D03*
X0425000Y0059500D02*
D03*
X0427500Y0051000D02*
D03*
X0423300Y0095900D02*
D03*
X0184476Y0126316D02*
D03*
X0187976D02*
D03*
X0191476D02*
D03*
X0195159D02*
D03*
X0198659D02*
D03*
X0202159D02*
D03*
X0538000Y0101000D02*
D03*
X0462331Y0076019D02*
D03*
X0442500Y0090016D02*
D03*
X0443500Y0075276D02*
D03*
X0792450Y0055000D02*
D03*
X0219108Y0148252D02*
D03*
X0219608Y0144252D02*
D03*
X0260608Y0158110D02*
D03*
X0234341Y0154610D02*
D03*
X0231341D02*
D03*
X0234341Y0150610D02*
D03*
X0231341Y0146610D02*
D03*
Y0150610D02*
D03*
X0234341Y0146610D02*
D03*
X0855682Y0091957D02*
D03*
X0797931Y0094717D02*
D03*
X0217781Y0152469D02*
D03*
X0253841Y0158110D02*
D03*
X0493900Y0094717D02*
D03*
X0564652Y0091366D02*
D03*
X0551446Y0090866D02*
D03*
D114*
X0840000Y0083600D02*
D03*
X0536615Y0082900D02*
D03*
X0837596Y0069874D02*
D03*
X0533196Y0069000D02*
D03*
X1070000Y0255000D02*
D03*
Y0237000D02*
D03*
Y0219000D02*
D03*
Y0201000D02*
D03*
Y0183000D02*
D03*
Y0165000D02*
D03*
Y0147000D02*
D03*
Y0129000D02*
D03*
Y0111000D02*
D03*
Y0093000D02*
D03*
Y0075000D02*
D03*
Y0057000D02*
D03*
Y0039000D02*
D03*
X1052000Y0273000D02*
D03*
Y0255000D02*
D03*
Y0183000D02*
D03*
Y0165000D02*
D03*
Y0147000D02*
D03*
Y0129000D02*
D03*
Y0111000D02*
D03*
Y0093000D02*
D03*
Y0075000D02*
D03*
Y0057000D02*
D03*
Y0039000D02*
D03*
Y0021000D02*
D03*
X1034000Y0273000D02*
D03*
Y0165000D02*
D03*
Y0147000D02*
D03*
Y0129000D02*
D03*
Y0111000D02*
D03*
Y0093000D02*
D03*
Y0075000D02*
D03*
Y0057000D02*
D03*
Y0039000D02*
D03*
Y0021000D02*
D03*
X1016000Y0165000D02*
D03*
Y0147000D02*
D03*
Y0129000D02*
D03*
Y0111000D02*
D03*
Y0093000D02*
D03*
Y0075000D02*
D03*
Y0057000D02*
D03*
Y0039000D02*
D03*
Y0021000D02*
D03*
X0998000Y0165000D02*
D03*
Y0147000D02*
D03*
Y0129000D02*
D03*
Y0111000D02*
D03*
Y0093000D02*
D03*
Y0075000D02*
D03*
Y0057000D02*
D03*
Y0039000D02*
D03*
Y0021000D02*
D03*
X0980000Y0147000D02*
D03*
Y0129000D02*
D03*
Y0111000D02*
D03*
Y0093000D02*
D03*
Y0075000D02*
D03*
Y0057000D02*
D03*
Y0039000D02*
D03*
Y0021000D02*
D03*
X0962000Y0147000D02*
D03*
Y0129000D02*
D03*
Y0111000D02*
D03*
Y0093000D02*
D03*
Y0075000D02*
D03*
Y0057000D02*
D03*
Y0039000D02*
D03*
Y0021000D02*
D03*
X0944000Y0147000D02*
D03*
Y0129000D02*
D03*
Y0111000D02*
D03*
Y0093000D02*
D03*
Y0075000D02*
D03*
Y0057000D02*
D03*
Y0039000D02*
D03*
Y0021000D02*
D03*
X0190000Y0280000D02*
D03*
X0180000D02*
D03*
Y0270000D02*
D03*
X0170000Y0280000D02*
D03*
Y0270000D02*
D03*
Y0260000D02*
D03*
X0160000Y0280000D02*
D03*
Y0270000D02*
D03*
Y0260000D02*
D03*
Y0250000D02*
D03*
X0870000Y0061000D02*
D03*
X0873500Y0054000D02*
D03*
X0870000Y0047000D02*
D03*
X0873500Y0040000D02*
D03*
X0870000Y0033000D02*
D03*
X0863000Y0061000D02*
D03*
X0866500Y0054000D02*
D03*
X0863000Y0047000D02*
D03*
X0866500Y0040000D02*
D03*
X0863000Y0033000D02*
D03*
X0859500Y0054000D02*
D03*
X0856000Y0047000D02*
D03*
X0859500Y0040000D02*
D03*
X0856000Y0033000D02*
D03*
X0852500Y0054000D02*
D03*
X0849000Y0047000D02*
D03*
X0852500Y0040000D02*
D03*
X0849000Y0033000D02*
D03*
X0607000Y0085500D02*
D03*
Y0071500D02*
D03*
Y0057500D02*
D03*
X0600000Y0085500D02*
D03*
X0603500Y0078500D02*
D03*
X0600000Y0071500D02*
D03*
X0603500Y0064500D02*
D03*
X0600000Y0057500D02*
D03*
X0593000Y0085500D02*
D03*
X0596500Y0078500D02*
D03*
X0593000Y0071500D02*
D03*
X0596500Y0064500D02*
D03*
X0593000Y0057500D02*
D03*
X0589500Y0064500D02*
D03*
X0586000Y0057500D02*
D03*
X0582500Y0064500D02*
D03*
X0579000Y0057500D02*
D03*
X0575500Y0064500D02*
D03*
X0572000Y0057500D02*
D03*
X0568500Y0064500D02*
D03*
X0565000Y0057500D02*
D03*
X0561500Y0064500D02*
D03*
X0558000Y0057500D02*
D03*
D115*
X0231500Y0018913D02*
D03*
X0240000Y0013000D02*
D03*
X0761454Y0282000D02*
D03*
X0910000Y0282300D02*
D03*
X0886454Y0282000D02*
D03*
X0861500Y0281866D02*
D03*
X0836454Y0282000D02*
D03*
X0811454D02*
D03*
X0786454D02*
D03*
X0736500Y0281866D02*
D03*
X0711454Y0282000D02*
D03*
X0686454D02*
D03*
X0611454D02*
D03*
X0636454D02*
D03*
X0661454D02*
D03*
X0598545D02*
D03*
X0573091D02*
D03*
X0547636D02*
D03*
X0522182D02*
D03*
X0496727D02*
D03*
X0471273D02*
D03*
X0445818D02*
D03*
X0420341Y0281866D02*
D03*
X0394909Y0282000D02*
D03*
X0369455D02*
D03*
X0344000D02*
D03*
X0320000D02*
D03*
X0916000Y0282300D02*
D03*
X0920250D02*
D03*
X0928750D02*
D03*
X0933000D02*
D03*
X0924500D02*
D03*
X0898954Y0275500D02*
D03*
X0892455D02*
D03*
X0898954Y0282000D02*
D03*
X0892455D02*
D03*
X0895704Y0278750D02*
D03*
X0873954Y0275500D02*
D03*
X0867455D02*
D03*
X0873954Y0282000D02*
D03*
X0867455D02*
D03*
X0870704Y0278750D02*
D03*
X0848954Y0275500D02*
D03*
X0842455D02*
D03*
X0848954Y0282000D02*
D03*
X0842455D02*
D03*
X0845704Y0278750D02*
D03*
X0823954Y0275500D02*
D03*
X0817455D02*
D03*
X0823954Y0282000D02*
D03*
X0817455D02*
D03*
X0820704Y0278750D02*
D03*
X0798954Y0275500D02*
D03*
X0792454D02*
D03*
X0798954Y0282000D02*
D03*
X0792454D02*
D03*
X0795705Y0278750D02*
D03*
X0773954Y0275500D02*
D03*
X0767454D02*
D03*
X0773954Y0282000D02*
D03*
X0767454D02*
D03*
X0770705Y0278750D02*
D03*
X0748954Y0275500D02*
D03*
X0742454D02*
D03*
X0748954Y0282000D02*
D03*
X0742454D02*
D03*
X0745705Y0278750D02*
D03*
X0723954Y0275500D02*
D03*
X0717454D02*
D03*
X0723954Y0282000D02*
D03*
X0717454D02*
D03*
X0720705Y0278750D02*
D03*
X0698954Y0275500D02*
D03*
X0692454D02*
D03*
X0698954Y0282000D02*
D03*
X0692454D02*
D03*
X0695705Y0278750D02*
D03*
X0673954Y0275500D02*
D03*
X0667454D02*
D03*
X0673954Y0282000D02*
D03*
X0667454D02*
D03*
X0670705Y0278750D02*
D03*
X0648954Y0275500D02*
D03*
X0642454D02*
D03*
X0648954Y0282000D02*
D03*
X0642454D02*
D03*
X0645705Y0278750D02*
D03*
X0620705D02*
D03*
X0617454Y0282000D02*
D03*
X0623954D02*
D03*
X0617454Y0275500D02*
D03*
X0623954D02*
D03*
X0589295Y0278750D02*
D03*
X0592545Y0275500D02*
D03*
X0586045D02*
D03*
X0592545Y0282000D02*
D03*
X0586045D02*
D03*
X0563841Y0278750D02*
D03*
X0567091Y0275500D02*
D03*
X0560591D02*
D03*
X0567091Y0282000D02*
D03*
X0560591D02*
D03*
X0509682Y0275500D02*
D03*
X0512932Y0278750D02*
D03*
X0516182Y0282000D02*
D03*
X0538386Y0278750D02*
D03*
X0541636Y0275500D02*
D03*
X0535136D02*
D03*
X0541636Y0282000D02*
D03*
X0535136D02*
D03*
X0516182Y0275500D02*
D03*
X0509682Y0282000D02*
D03*
X0487477Y0278750D02*
D03*
X0490727Y0275500D02*
D03*
X0484227D02*
D03*
X0490727Y0282000D02*
D03*
X0484227D02*
D03*
X0462023Y0278750D02*
D03*
X0465273Y0275500D02*
D03*
X0458773D02*
D03*
X0465273Y0282000D02*
D03*
X0458773D02*
D03*
X0436568Y0278750D02*
D03*
X0439818Y0275500D02*
D03*
X0433318D02*
D03*
X0439818Y0282000D02*
D03*
X0433318D02*
D03*
X0407864D02*
D03*
X0414364D02*
D03*
X0407864Y0275500D02*
D03*
X0414364D02*
D03*
X0411114Y0278750D02*
D03*
X0382409Y0282000D02*
D03*
X0388909D02*
D03*
X0382409Y0275500D02*
D03*
X0388909D02*
D03*
X0385659Y0278750D02*
D03*
X0356955Y0282000D02*
D03*
X0363455D02*
D03*
X0356955Y0275500D02*
D03*
X0363455D02*
D03*
X0360205Y0278750D02*
D03*
X0334750D02*
D03*
X0338000Y0275500D02*
D03*
X0331500D02*
D03*
X0338000Y0282000D02*
D03*
X0331500D02*
D03*
X0305500D02*
D03*
X0297000D02*
D03*
X0301250D02*
D03*
X0309750D02*
D03*
X0314000D02*
D03*
X0295500Y0126500D02*
D03*
X0605900Y0135400D02*
D03*
X0591000Y0184000D02*
D03*
X0304000Y0116384D02*
D03*
X0275300Y0102289D02*
D03*
X0867500Y0184616D02*
D03*
X0467500Y0184366D02*
D03*
X0762500Y0157366D02*
D03*
X0563091Y0157260D02*
D03*
X0892500Y0184616D02*
D03*
X0792500D02*
D03*
X0817500D02*
D03*
X0842500D02*
D03*
X0917500D02*
D03*
X0742500D02*
D03*
X0767500D02*
D03*
X0888091Y0157510D02*
D03*
X0863091D02*
D03*
X0838091D02*
D03*
X0813091D02*
D03*
X0788091D02*
D03*
X0738091D02*
D03*
X0714091D02*
D03*
X0688091D02*
D03*
X0663091D02*
D03*
X0638091D02*
D03*
X0613091D02*
D03*
X0588091Y0157260D02*
D03*
X0538000Y0157366D02*
D03*
X0513091Y0157260D02*
D03*
X0488091D02*
D03*
X0463091D02*
D03*
X0438091D02*
D03*
X0413091D02*
D03*
X0388090D02*
D03*
X0363090D02*
D03*
X0313090D02*
D03*
X0338114Y0157283D02*
D03*
X0692500Y0184616D02*
D03*
X0717500D02*
D03*
X0617500D02*
D03*
X0642500D02*
D03*
X0667500D02*
D03*
X0542500Y0184366D02*
D03*
X0567500D02*
D03*
X0442500D02*
D03*
X0492500D02*
D03*
X0517500D02*
D03*
X0417500D02*
D03*
X0392500D02*
D03*
X0367500D02*
D03*
X0342524Y0184390D02*
D03*
X0317500Y0184366D02*
D03*
D133*
X0333115Y0188500D02*
D03*
X0319885D02*
D03*
X0345385D02*
D03*
X0358615D02*
D03*
X0384115D02*
D03*
X0370885D02*
D03*
X0396385D02*
D03*
X0409615D02*
D03*
X0435615D02*
D03*
X0422385D02*
D03*
X0447385D02*
D03*
X0460615D02*
D03*
X0486115D02*
D03*
X0472885D02*
D03*
X0498385D02*
D03*
X0511615D02*
D03*
X0536615D02*
D03*
X0523385D02*
D03*
X0548385D02*
D03*
X0561615D02*
D03*
X0586615D02*
D03*
X0573385D02*
D03*
X0598385D02*
D03*
X0611615D02*
D03*
X0636615D02*
D03*
X0623385D02*
D03*
X0648385D02*
D03*
X0661615D02*
D03*
X0686615D02*
D03*
X0673385D02*
D03*
X0698385D02*
D03*
X0711615D02*
D03*
X0736615D02*
D03*
X0723385D02*
D03*
X0748385D02*
D03*
X0761615D02*
D03*
X0786615D02*
D03*
X0773385D02*
D03*
X0798385D02*
D03*
X0811615D02*
D03*
X0836615D02*
D03*
X0823385D02*
D03*
X0848385D02*
D03*
X0861615D02*
D03*
X0886615D02*
D03*
X0873385D02*
D03*
X0898385D02*
D03*
X0911615D02*
D03*
D134*
X0312500Y0251202D02*
D03*
Y0213798D02*
D03*
X0337954D02*
D03*
Y0251202D02*
D03*
X0363409D02*
D03*
Y0213798D02*
D03*
X0388864D02*
D03*
Y0251202D02*
D03*
X0414318D02*
D03*
Y0213798D02*
D03*
X0439773D02*
D03*
Y0251202D02*
D03*
X0465227D02*
D03*
Y0213798D02*
D03*
X0490682D02*
D03*
Y0251202D02*
D03*
X0516136D02*
D03*
Y0213798D02*
D03*
X0541591D02*
D03*
Y0251202D02*
D03*
X0567045D02*
D03*
Y0213798D02*
D03*
X0592500D02*
D03*
Y0251202D02*
D03*
X0617500D02*
D03*
Y0213798D02*
D03*
X0642500D02*
D03*
Y0251202D02*
D03*
X0667500D02*
D03*
Y0213798D02*
D03*
X0692500D02*
D03*
Y0251202D02*
D03*
X0717500D02*
D03*
Y0213798D02*
D03*
X0742500D02*
D03*
Y0251202D02*
D03*
X0767500D02*
D03*
Y0213798D02*
D03*
X0792500D02*
D03*
Y0251202D02*
D03*
X0817500D02*
D03*
Y0213798D02*
D03*
X0842500D02*
D03*
Y0251202D02*
D03*
X0867500D02*
D03*
Y0213798D02*
D03*
X0892500D02*
D03*
Y0251202D02*
D03*
X0917500D02*
D03*
Y0213798D02*
D03*
D135*
X0170761Y0102480D02*
D03*
Y0098740D02*
D03*
Y0095000D02*
D03*
X0160919D02*
D03*
Y0102480D02*
D03*
D136*
X0892500Y0151016D02*
D03*
Y0177717D02*
D03*
X0867500D02*
D03*
Y0151016D02*
D03*
X0842500D02*
D03*
Y0177717D02*
D03*
X0817500D02*
D03*
Y0151016D02*
D03*
X0792500D02*
D03*
Y0177717D02*
D03*
X0767500D02*
D03*
Y0151016D02*
D03*
X0742500D02*
D03*
Y0177717D02*
D03*
X0717500D02*
D03*
Y0151016D02*
D03*
X0692500D02*
D03*
Y0177717D02*
D03*
X0667500D02*
D03*
Y0151016D02*
D03*
X0642500D02*
D03*
Y0177717D02*
D03*
X0617500D02*
D03*
Y0151016D02*
D03*
X0592500D02*
D03*
Y0177717D02*
D03*
X0567500D02*
D03*
Y0151016D02*
D03*
X0542500D02*
D03*
Y0177717D02*
D03*
X0517500D02*
D03*
Y0151016D02*
D03*
X0492500D02*
D03*
Y0177717D02*
D03*
X0467500D02*
D03*
Y0151016D02*
D03*
X0442500D02*
D03*
Y0177717D02*
D03*
X0417500D02*
D03*
Y0151016D02*
D03*
X0392500D02*
D03*
Y0177717D02*
D03*
X0367500D02*
D03*
Y0151016D02*
D03*
X0342524Y0151039D02*
D03*
Y0177740D02*
D03*
X0317500Y0177717D02*
D03*
Y0151016D02*
D03*
M02*
