M48
;Layer_Color=9474304
;FILE_FORMAT=2:5
INCH,LZ
;TYPE=PLATED
T1F00S00C0.01200
T2F00S00C0.01600
T3F00S00C0.02000
T4F00S00C0.02500
T5F00S00C0.02650
T6F00S00C0.02795
T7F00S00C0.03543
T8F00S00C0.03937
T9F00S00C0.03937
T10F00S00C0.04331
T11F00S00C0.08465
T12F00S00C0.12598
%
T01
X04537Y00545
X0456067
X04592Y0055
X04617
X0757623Y0053763
X075999
X0763523Y0053863
X076589
X0853Y0129366
X0857
X0878
X0882
X09135Y01235
X09175
X0832Y0129366
X0828
X0807
X0803
X0782
X0778
X0757
X0753
X0732
X0728
X0707
X0703
X0682
X0747546Y0060711
X075145Y00567
X07645Y006255
X0678Y0129366
X0657
X0653
X0632
X0628
X06045Y0129
X06005
X0582Y0129366
X0578
X0557
X0553
X0532
X0528
X0507
X0503
X0482
X0478
X0457
X0453
X0432
X0428
X0407
X0403
X0382
X0378
X04435Y0060779
X0447271Y0056407
X0460433Y006365
X0357Y0129366
X0353
X0332
X0328
T02
X0007Y00085
Y00285
Y00385
X0017
X0027
X0047
Y00485
X0037
Y00285
Y00185
X0047
Y00085
X0037
X0017Y00485
X0007
X0057
Y00385
X0067
X0097
X0087Y00485
X01292Y00418
X0128786Y0035
X0129417Y00199
X01227Y0016
X0117Y00185
Y00085
X0127
X0107
X0057
X017445Y0009
X0184972
X01893Y00134
X0197Y00085
X0207
X0209Y0023
X0204
X0209Y0038
X0204Y0043
X0199Y0048
X0194Y0053
X021Y00485
X0164Y0053
X0159
X0157Y00385
X0147
Y00485
X0137
X01293Y00552
X0174Y0033
X0179Y0028
X0214Y0023
X0219
X0224
X0229
X0234
X0239
X0244
X0249
X0253986Y00268
X026186Y00296
X0264Y0038
X0269
X0274
X02777Y00352
X0284Y0038
X0289
X0294
X0299
X0304
X03Y00485
X029
X028
X027
X026
X025
X024
X023
X022
X0219Y0038
X0224
X0229
X0234
X0239
X0244
X0249
X0254
X0259
X0269734Y00323
X0284Y0023
X0289
X0294
X0299
X0304
X0307Y00085
X0297
X0287
X0237
X0227
X0217
X0214Y0038
X0324
X0329
X0334
X0339
X0344
X0349
X0354
X0359
X0364
X036Y00485
X035
X034
X033
X0329Y0023
X0334
X0339
X0344
X0349
X0354
X0359
X0364
X0324
X0369
X0374
X0379
X0384
X0389
X0394
X0399
X0404
X0409
X0414
X0419
X0424
X0429
X0434
X0439
X0444
X0449
X0454
X0459
X0464
X0469
Y0028
X0474
Y0033
Y0038
Y0043
Y0048
X0487Y00485
X049045Y0053
X0497Y00485
X05Y0055
X0504
X0508
X051Y0051
X0506
X0508Y0047
X0512
X0516
X0518Y0043
X0514
X0516Y0039
X052
X0524
X0522Y0035
X0524Y0031
X0517Y00285
X0507
Y00385
X0497
Y00285
X0487
Y00385
X0490105Y0014142
X0459Y0043
Y0048
X0454Y0038
X0449
X0444
X0439
X0434
X0429
X0424
X0419
X0414
X0409
X0404
X0399
X0394
X0389
X0384
X0379
X0374
X0369
X037Y00485
X038
X04275Y0051
X0434772Y0055864
X0437Y00465
X04437Y00462
X05225Y0053
X05265
X05305
X05325Y0049
X05285
X05305Y0045
X05345
X05385
X05425
X05465
X05505
X05545
X05585
X05625
X05665
X05705
X05745
X05785
X05805Y0049
X05845
X05885
X05925
X05965
X06005
X06045
X06085
X0628Y0048
X0632
X0636
X064
X0644
X0648
X0652
X0656
X066
X0664
X0668
X0672
X0676
X068
X0678Y0044
X0674
X0676Y004
X068
Y003
X0676
X0678Y0026
X0674
X0676Y0022
X068
X0672
X0668
X0664
X066
X0656
X0652
X0648
X0644
X064
X0636
X0632
X0628
X0612Y0023
X0608
X0604
X06
X0596
X0592
X0588
X0584
X058
X0576
X0572
X0568
X0564
X056
X0556
X0552
X0548
X0544
X054
X0536
X0532
X0534Y0027
X0538
X0542
X0546
X055
X0554
X0558
X0562
X0566
X057
X0574
X0578
X0576Y0031
X0572
X0568
X0564
X056
X0556
X0552
X0548
X0544
X054
X0536
X0532
X0528
X053Y0027
X0526Y0035
X05365Y0041
X05405
X05445
X05485
X05525
X05565
X05605
X05645
X05685
X05725
X05765
Y0049
X05725
X05685
X05645
X05605
X05565
X05525
X05485
X05445
X05405
X05365
X05816Y00356
X0670633Y00355
X0684Y004
X0688
X0692
X0696
X07
X0704
X0708
X0712
X0716
X072
X0724
X0728
X0732
X0736
X074
X0744
X0748
X0752
X0756
Y003
X0752
X0748
X0744
X074
X0736
X0732
X0728
X0724
X072
X0716
X0712
X0708
X0704
X07
X0696
X0692
X0688
X0684
X0686Y0026
X069
X0688Y0022
X0684
X0682Y0026
Y0044
X0686
X069
X0688Y0048
X0684
X07Y005
X071
X072
X07325Y0051
X073965Y0056
X0741921Y00465
X0749347Y00466
X0764Y0048
X0774Y005
X078Y00485
X079
X079245Y0055
X08Y00485
X081
X082
X083
Y00385
Y00285
X082
Y00385
X081
Y00285
X08
Y00385
X079
Y00285
X078
Y00385
X077Y0042
Y00285
X0762Y0034
X084Y00385
Y00485
X0849Y0047
X0856
X0863
X087
X08735Y0054
X08665
X08595
X08525
Y004
X08595
X08665
X08735
X088Y00385
Y00485
X09
X091
X092
Y00385
Y00285
Y00185
Y00085
X091
Y00185
Y00285
Y00385
X09
Y00285
Y00185
Y00085
X089
X087Y0033
X0863
X0856
X0849
X084Y00285
X0944Y0021
X0962
X098
Y0039
X0962
X0944
X0998
X1016
X1034
X1052
X107
X1052Y0021
X1034
X1016
X0998
Y0057
X1016
X1034
X1052
X107
Y0075
Y0093
Y0111
Y0129
Y0147
Y0165
Y0183
Y0201
X1052Y0183
Y0165
Y0147
Y0129
Y0111
Y0093
Y0075
X1034
Y0093
Y0111
Y0129
Y0147
Y0165
X1016
Y0147
Y0129
Y0111
Y0093
Y0075
X0998
Y0093
Y0111
Y0129
Y0147
Y0165
X098Y0147
Y0129
Y0111
Y0093
Y0075
Y0057
X0962
Y0075
Y0093
Y0111
Y0129
Y0147
X0944
Y0129
Y0111
Y0093
Y0075
Y0057
X092Y00585
Y00685
Y00785
Y00885
Y00985
Y01085
X091
Y00985
Y00885
Y00785
Y00685
Y00585
X09
Y00685
Y00785
Y00885
Y00985
X08914Y01099
X09045Y0124638
X088Y00885
X0868888Y00915
X086Y00885
X0855682Y0091957
X085Y00885
Y00985
X084Y01085
Y00785
Y00585
X0863Y0061
X087
X088Y00585
X083
Y00685
X082
Y00585
X081
Y00685
X08
Y00585
X0797931Y0094717
X0826129Y00805
X083Y01085
X07465Y0090016
X07475Y00755
X0721866Y0074525
X0723Y0084972
X07138Y00843
X0701Y0079
X07Y007
X06993Y006494
X07Y006
X071
X072
X073Y00595
X072625Y00959
X073Y01
X072
X071
Y011
X07Y01
Y009
X069
Y01
Y008
Y007
X0689876Y006494
X069Y006
X068
X06807Y006494
X068Y007
X067
Y006
X066
Y007
X065
Y006
X064
Y007
X063
Y008
Y009
Y01
X064
X065
X066
X067
X068
Y011
X067
X066
X065
X064
X063
X062
X0607Y00855
X06
X0593
X05965Y00785
X06035
X0607Y00715
X06
X0593
X05965Y00645
X06035
X0607Y00575
X06
X0593
X0586
X0579
X0572
X0565
X0558
X05615Y00645
X05685
X05755
X05825
X05895
X063Y006
X0564652Y0091366
X0551446Y0090866
X0538Y0101
X05788Y01104
X06014Y01447
X05249Y0083
X05065Y0077
X05025
X04985
X04965Y0081
X05005
X04925
X04885
X04845
X04805
X04765
X0484Y0071
X0488
X0492
X0494Y0067
X049
X0486
X0482
X0498Y0059
X0502
X05145Y0061
X05185
X05225
X05245Y0057
X05205
X05165Y0065
X05125
X05105Y0069
X05145
X05045Y0073
X04939Y0094717
X0462331Y0076019
X04435Y0075276
X04425Y0090016
X04233Y00959
X042Y00985
X041
X0409Y00843
X04194Y00841
X04187Y0074252
X042Y00585
X0425Y00595
X041Y00585
X04Y00685
X03953Y006494
X0385876
X03767
X037Y00585
Y00985
X038
Y01085
X037
X04
X039Y00985
Y00885
X0397Y0079
X036Y00685
Y00585
X035
Y00685
X034
X033
Y00785
Y00885
X032
Y00985
X031
X0301Y0098013
Y01072
X031Y01085
X032
X033
X034
X035
X036
Y00985
X035
X034
X033
Y00585
X034
X0301Y0057
X0301Y0066813
X0285429Y0057
X0269857
X0254286
X0238714
X0223143
X0229337Y011011
Y011361
Y011711
Y012061
Y012411
Y012811
X0226837Y013261
X0222837Y013661
X0219608Y0144252
X0219108Y0148252
X0217781Y0152469
X0231341Y015061
X0234341
Y015461
X0231341
Y014661
X0234341
X023405Y01722
X0215733
X02155Y01686
X0252367Y01722
X0253841Y015811
X0260608
X0270683Y01722
X0289Y01722
X0289Y0161641
Y0151083
Y0140524
Y0129965
Y0119407
X0294997Y0113203
X026586Y0107252
X026236
X025886
X025836Y0132752
X026186
X026536
X021Y01305
X0202159Y0126316
Y0122816
Y0119316
Y0115633
Y0112133
Y0108633
X0198659Y0126316
X0195159
X0191476
X0187976
X0184476
X0179Y012124
Y01085
Y0095
Y0087
Y0079
Y0068
X0184Y0063
X0191949Y0064333
X0189Y0058
X0198424Y0057
X0207571
X0185475Y0071667
X0174Y0073
X0154
Y0078
Y0083
X0149
Y0078
Y0073
Y0068
X0154
Y0063
Y0058
X0159
X0149Y0063
X0144Y0068
Y0073
Y0078
Y0083
X0139
Y0078
Y0073
X0134Y0078
Y0083
Y0098
X0139
X0144
X0149
X0154
X0149Y0108
Y0113
X0141339Y01145
X0139Y0108
X0144
X0134
Y0113
Y0118
X01355Y0124638
X0134Y0133
X0135339Y0140386
X0134Y0148
Y0153
Y0158
Y0163
X0135Y0171882
X0147Y01785
Y01885
X0135339Y0195504
X0117Y01985
Y02085
X0107
Y01985
Y01885
X0117
Y01785
Y01685
Y01585
Y01485
Y01385
Y01285
X0107
Y01385
Y01485
Y01585
Y01685
Y01785
X0097
Y01885
Y01985
Y02085
X0087
Y01985
Y01885
Y01785
Y01685
X0097
Y01585
Y01485
Y01385
Y01285
Y01185
X0107
Y01085
X0111417Y01115
X0107Y00985
X0117
Y00885
Y00785
X0107Y00885
X0097
Y00985
Y01085
X0087
Y01185
Y01285
Y01385
Y01485
Y01585
X0077
Y01685
Y01785
Y01885
Y01985
Y02085
X0067
Y01985
Y01885
Y01785
X0057
Y01885
Y02085
X0077Y01485
Y01385
Y01285
X0087Y00985
Y00885
Y00785
X0097
Y00685
X0107
X0097Y00585
X0087
Y00685
X0067
Y00585
X0137
X0149Y0123
Y0143
X0169Y0148
Y0153
Y0158
Y0163
X0179Y015946
Y014672
X0184476Y0147188
X0187976
X0191476
X0195159
X0198659
X0202159
Y0150688
Y0154188
Y0157871
Y0161371
Y0164871
Y0168554
X0197417Y01722
X0179Y01722
Y013398
X0169Y0138
X0167Y01985
X0056Y0195504
Y0160071
Y0132512
Y0120701
X0047Y01085
Y00985
Y00885
Y00785
Y00685
Y00585
X0037
Y00685
Y00785
Y00885
Y00985
Y01085
X0027
Y00985
Y00885
Y00785
Y00685
Y00585
X0017Y00685
Y00785
Y00885
Y00985
Y01085
Y01185
Y01285
Y01385
Y01485
Y01585
X0007
Y01685
Y01785
X0017
Y01885
Y01985
Y02085
X0007
Y01985
Y01885
Y01485
Y01385
Y01285
Y01185
Y01085
Y00985
Y00885
Y00785
Y00685
Y00585
Y02185
X0017
Y02285
X0007
X0056Y0234874
X0057Y02185
X0067
X0077
X0087
X0097
X0107
X0117
X0127Y02285
X01343Y02299
X0135137Y0223063
X0146Y0234874
X016Y025
Y026
X017
Y027
X018
Y028
X019
X017
X016
Y027
X1034Y0273
X1052
Y0255
X107
Y0237
Y0219
T03
X02315Y0018913
X024Y0013
X0838091Y015751
X0863091
X0888091
X08925Y0184616
X08675
X08425
X09175
X08175
X07925
X07675
X07425
X07175
X06925
X0688091Y015751
X0714091
X0738091
X07625Y0157366
X0788091Y015751
X0813091
X0663091
X0638091
X0613091
X0588091Y015726
X0563091
X0538Y0157366
X05425Y0184366
X05675
X0591Y0184
X06175Y0184616
X06425
X06675
X06059Y01354
X0513091Y015726
X0488091
X0463091
X0438091
X0413091
X038809
X03925Y0184366
X04175
X04425
X04675
X04925
X05175
X03675
X0342524Y018439
X03175Y0184366
X031309Y015726
X0338114Y0157283
X036309Y015726
X02955Y01265
X0304Y0116384
X02753Y0102289
X0297Y0282
X030125
X03055
X030975
X0314
X032
X03315
X033475Y027875
X0338Y02755
X03315
X0338Y0282
X0344
X0356955
X0363455
Y02755
X0356955
X0360205Y027875
X0369455Y0282
X0382409
X0388909
X0394909
X0388909Y02755
X0382409
X0385659Y027875
X0407864Y0282
X0414364
X0420341Y0281866
X0414364Y02755
X0407864
X0411114Y027875
X0436568
X0439818Y02755
X0433318
Y0282
X0439818
X0445818
X0458773
X0462023Y027875
X0465273Y02755
X0458773
X0465273Y0282
X0471273
X0484227
X0487477Y027875
X0490727Y02755
X0484227
X0490727Y0282
X0496727
X0509682
Y02755
X0512932Y027875
X0516182Y0282
X0522182
X0516182Y02755
X0535136
X0538386Y027875
X0541636Y02755
Y0282
X0547636
X0535136
X0560591
X0563841Y027875
X0567091Y02755
X0560591
X0567091Y0282
X0573091
X0586045
X0589295Y027875
X0592545Y02755
X0586045
X0592545Y0282
X0598545
X0611454
X0617454
X0620705Y027875
X0623954Y0282
Y02755
X0617454
X0642454
X0648954
Y0282
X0642454
X0636454
X0645705Y027875
X0661454Y0282
X0667454
Y02755
X0673954
Y0282
X0670705Y027875
X0686454Y0282
X0692454
Y02755
X0698954
Y0282
X0695705Y027875
X0711454Y0282
X0717454
Y02755
X0723954
Y0282
X0720705Y027875
X07365Y0281866
X0742454Y0282
Y02755
X0748954
Y0282
X0745705Y027875
X0761454Y0282
X0767454
Y02755
X0773954
Y0282
X0770705Y027875
X0786454Y0282
X0792454
Y02755
X0798954
Y0282
X0795705Y027875
X0811454Y0282
X0817455
Y02755
X0823954
Y0282
X0820704Y027875
X0836454Y0282
X0842455
Y02755
X0848954
Y0282
X0845704Y027875
X08615Y0281866
X0867455Y0282
Y02755
X0873954
Y0282
X0870704Y027875
X0886454Y0282
X0892455
Y02755
X0898954
Y0282
X0895704Y027875
X091Y02823
X0916
X092025
X09245
X092875
X0933
T04
X0837596Y0069874
X084Y00836
X0536615Y00829
X0533196Y0069
T05
X0155Y0116764
X0162874
Y0124638
Y0132512
Y0140386
Y014826
Y0156134
Y0164008
Y0171882
Y0179756
Y018763
Y0195504
Y0203378
Y0211252
X0155
Y0203378
Y0195504
Y018763
Y0179756
Y0171882
Y0164008
Y0156134
Y014826
Y0140386
Y0132512
Y0124638
X0035374
X00275
Y0116764
X0035374
Y0132512
Y0140386
X00275
Y0132512
Y014826
Y0156134
Y0164008
Y0171882
Y0179756
Y018763
Y0195504
Y0203378
Y0211252
X0035374
Y0203378
Y0195504
Y018763
Y0179756
Y0171882
Y0164008
Y0156134
Y014826
Y0219126
Y0227
X00275
Y0219126
Y0234874
X0035374
X0155
X0162874
Y0227
Y0219126
X0155
Y0227
T06
X0253986Y0012126
Y002
X026186
X0269734
X0277608
Y0012126
X0269734
X026186
T07
X0860892Y0102366
X0868766
X087664
X0830611Y0092
X0822737
X0814863
X0572526Y0102366
X0564652
X0556778
X0526611Y0092
X0518737
X0510863
T08
X0998291Y0202909
X1006165
X1014039
X1021913
X1029787
X1037661
Y0194248
X1029787
X1021913
X0982543
X0974669
X0966795
Y0202909
X0974669
X0982543
X0990417
X0261996Y0202909
X0254122
X0246248
X0238374
X02305
X0222626
X0214752
Y0194248
X0254122
X0261996
X0206878
Y0202909
T09
X0139737Y0018926
X0147612
X0155486
X016336
X0171234
Y00268
X016336
X0155486
X0147612
X0139737
X0682622Y0082626
Y00905
X0674748
X0666874
X0659
X0651126
X0643252
Y0082626
X0651126
X0659
X0666874
X0674748
X0378622
X0370748
Y00905
X0378622
X0362874
X0355
X0347126
X0339252
Y0082626
X0347126
X0355
X0362874
T10
X00617Y0016
Y0026
X00717
Y0016
X00817
Y0026
X00917
Y0016
X01017
Y0026
T11
X1048882Y0199366
X0955575
X0273216Y0199366
X0195657
T12
X0019685Y0019685
X107874
X0019685Y0271654
X107874
M30
