G04*
G04 #@! TF.GenerationSoftware,Altium Limited,Altium Designer,19.0.4 (130)*
G04*
G04 Layer_Color=16711935*
%FSAX25Y25*%
%MOIN*%
G70*
G01*
G75*
%ADD14C,0.00500*%
%ADD16C,0.00394*%
%ADD17C,0.00787*%
%ADD141C,0.00600*%
D14*
X0305772Y0131020D02*
Y0137713D01*
X0302228Y0131020D02*
Y0137713D01*
X0305772D01*
X0302228Y0131020D02*
X0305772D01*
X0311988D02*
X0315531D01*
X0311988Y0137713D02*
X0315531D01*
X0311988Y0131020D02*
Y0137713D01*
X0315531Y0131020D02*
Y0137713D01*
X0323012Y0131020D02*
Y0137713D01*
X0319468Y0131020D02*
Y0137713D01*
X0323012D01*
X0319468Y0131020D02*
X0323012D01*
X0337012Y0131043D02*
X0340555D01*
X0337012Y0137736D02*
X0340555D01*
X0337012Y0131043D02*
Y0137736D01*
X0340555Y0131043D02*
Y0137736D01*
X0348035Y0131043D02*
Y0137736D01*
X0344492Y0131043D02*
Y0137736D01*
X0348035D01*
X0344492Y0131043D02*
X0348035D01*
X0361988Y0131020D02*
X0365531D01*
X0361988Y0137713D02*
X0365531D01*
X0361988Y0131020D02*
Y0137713D01*
X0365531Y0131020D02*
Y0137713D01*
X0373012Y0131020D02*
Y0137713D01*
X0369468Y0131020D02*
Y0137713D01*
X0373012D01*
X0369468Y0131020D02*
X0373012D01*
X0386988D02*
X0390531D01*
X0386988Y0137713D02*
X0390531D01*
X0386988Y0131020D02*
Y0137713D01*
X0390531Y0131020D02*
Y0137713D01*
X0398012Y0131020D02*
Y0137713D01*
X0394468Y0131020D02*
Y0137713D01*
X0398012D01*
X0394468Y0131020D02*
X0398012D01*
X0411988D02*
X0415531D01*
X0411988Y0137713D02*
X0415531D01*
X0411988Y0131020D02*
Y0137713D01*
X0415531Y0131020D02*
Y0137713D01*
X0423012Y0131020D02*
Y0137713D01*
X0419468Y0131020D02*
Y0137713D01*
X0423012D01*
X0419468Y0131020D02*
X0423012D01*
X0436988D02*
X0440531D01*
X0436988Y0137713D02*
X0440531D01*
X0436988Y0131020D02*
Y0137713D01*
X0440531Y0131020D02*
Y0137713D01*
X0448012Y0131020D02*
Y0137713D01*
X0444468Y0131020D02*
Y0137713D01*
X0448012D01*
X0444468Y0131020D02*
X0448012D01*
X0461988Y0130520D02*
X0465531D01*
X0461988Y0137213D02*
X0465531D01*
X0461988Y0130520D02*
Y0137213D01*
X0465531Y0130520D02*
Y0137213D01*
X0473012Y0130520D02*
Y0137213D01*
X0469468Y0130520D02*
Y0137213D01*
X0473012D01*
X0469468Y0130520D02*
X0473012D01*
X0486988D02*
X0490531D01*
X0486988Y0137213D02*
X0490531D01*
X0486988Y0130520D02*
Y0137213D01*
X0490531Y0130520D02*
Y0137213D01*
X0890728Y0160020D02*
Y0166713D01*
X0894272Y0160020D02*
Y0166713D01*
X0890728Y0160020D02*
X0894272D01*
X0890728Y0166713D02*
X0894272D01*
X0865728D02*
X0869272D01*
X0865728Y0160020D02*
X0869272D01*
Y0166713D01*
X0865728Y0160020D02*
Y0166713D01*
X0840728Y0160020D02*
Y0166713D01*
X0844272Y0160020D02*
Y0166713D01*
X0840728Y0160020D02*
X0844272D01*
X0840728Y0166713D02*
X0844272D01*
X0815728D02*
X0819272D01*
X0815728Y0160020D02*
X0819272D01*
Y0166713D01*
X0815728Y0160020D02*
Y0166713D01*
X0790728Y0160020D02*
Y0166713D01*
X0794272Y0160020D02*
Y0166713D01*
X0790728Y0160020D02*
X0794272D01*
X0790728Y0166713D02*
X0794272D01*
X0765728D02*
X0769272D01*
X0765728Y0160020D02*
X0769272D01*
Y0166713D01*
X0765728Y0160020D02*
Y0166713D01*
X0740728Y0160020D02*
Y0166713D01*
X0744272Y0160020D02*
Y0166713D01*
X0740728Y0160020D02*
X0744272D01*
X0740728Y0166713D02*
X0744272D01*
X0715728D02*
X0719272D01*
X0715728Y0160020D02*
X0719272D01*
Y0166713D01*
X0715728Y0160020D02*
Y0166713D01*
X0690728Y0160020D02*
Y0166713D01*
X0694272Y0160020D02*
Y0166713D01*
X0690728Y0160020D02*
X0694272D01*
X0690728Y0166713D02*
X0694272D01*
X0665728D02*
X0669272D01*
X0665728Y0160020D02*
X0669272D01*
Y0166713D01*
X0665728Y0160020D02*
Y0166713D01*
X0640728Y0160020D02*
Y0166713D01*
X0644272Y0160020D02*
Y0166713D01*
X0640728Y0160020D02*
X0644272D01*
X0640728Y0166713D02*
X0644272D01*
X0615728D02*
X0619272D01*
X0615728Y0160020D02*
X0619272D01*
Y0166713D01*
X0615728Y0160020D02*
Y0166713D01*
X0606772Y0138520D02*
Y0145213D01*
X0603228Y0138520D02*
Y0145213D01*
X0606772D01*
X0603228Y0138520D02*
X0606772D01*
X0894468Y0130520D02*
X0898012D01*
X0894468Y0137213D02*
X0898012D01*
X0894468Y0130520D02*
Y0137213D01*
X0898012Y0130520D02*
Y0137213D01*
X0890532Y0130520D02*
Y0137213D01*
X0886988Y0130520D02*
Y0137213D01*
X0890532D01*
X0886988Y0130520D02*
X0890532D01*
X0869468D02*
X0873012D01*
X0869468Y0137213D02*
X0873012D01*
X0869468Y0130520D02*
Y0137213D01*
X0873012Y0130520D02*
Y0137213D01*
X0865532Y0130520D02*
Y0137213D01*
X0861988Y0130520D02*
Y0137213D01*
X0865532D01*
X0861988Y0130520D02*
X0865532D01*
X0844468D02*
X0848012D01*
X0844468Y0137213D02*
X0848012D01*
X0844468Y0130520D02*
Y0137213D01*
X0848012Y0130520D02*
Y0137213D01*
X0840532Y0130520D02*
Y0137213D01*
X0836988Y0130520D02*
Y0137213D01*
X0840532D01*
X0836988Y0130520D02*
X0840532D01*
X0819468D02*
X0823012D01*
X0819468Y0137213D02*
X0823012D01*
X0819468Y0130520D02*
Y0137213D01*
X0823012Y0130520D02*
Y0137213D01*
X0815532Y0130520D02*
Y0137213D01*
X0811988Y0130520D02*
Y0137213D01*
X0815532D01*
X0811988Y0130520D02*
X0815532D01*
X0794468D02*
X0798012D01*
X0794468Y0137213D02*
X0798012D01*
X0794468Y0130520D02*
Y0137213D01*
X0798012Y0130520D02*
Y0137213D01*
X0790531Y0130520D02*
Y0137213D01*
X0786988Y0130520D02*
Y0137213D01*
X0790531D01*
X0786988Y0130520D02*
X0790531D01*
X0769468D02*
X0773012D01*
X0769468Y0137213D02*
X0773012D01*
X0769468Y0130520D02*
Y0137213D01*
X0773012Y0130520D02*
Y0137213D01*
X0765531Y0130520D02*
Y0137213D01*
X0761988Y0130520D02*
Y0137213D01*
X0765531D01*
X0761988Y0130520D02*
X0765531D01*
X0744468D02*
X0748012D01*
X0744468Y0137213D02*
X0748012D01*
X0744468Y0130520D02*
Y0137213D01*
X0748012Y0130520D02*
Y0137213D01*
X0740531Y0130520D02*
Y0137213D01*
X0736988Y0130520D02*
Y0137213D01*
X0740531D01*
X0736988Y0130520D02*
X0740531D01*
X0718469D02*
X0722012D01*
X0718469Y0137213D02*
X0722012D01*
X0718469Y0130520D02*
Y0137213D01*
X0722012Y0130520D02*
Y0137213D01*
X0714532Y0130520D02*
Y0137213D01*
X0710988Y0130520D02*
Y0137213D01*
X0714532D01*
X0710988Y0130520D02*
X0714532D01*
X0694468D02*
X0698012D01*
X0694468Y0137213D02*
X0698012D01*
X0694468Y0130520D02*
Y0137213D01*
X0698012Y0130520D02*
Y0137213D01*
X0690531Y0130520D02*
Y0137213D01*
X0686988Y0130520D02*
Y0137213D01*
X0690531D01*
X0686988Y0130520D02*
X0690531D01*
X0669468D02*
X0673012D01*
X0669468Y0137213D02*
X0673012D01*
X0669468Y0130520D02*
Y0137213D01*
X0673012Y0130520D02*
Y0137213D01*
X0665531Y0130520D02*
Y0137213D01*
X0661988Y0130520D02*
Y0137213D01*
X0665531D01*
X0661988Y0130520D02*
X0665531D01*
X0644468D02*
X0648012D01*
X0644468Y0137213D02*
X0648012D01*
X0644468Y0130520D02*
Y0137213D01*
X0648012Y0130520D02*
Y0137213D01*
X0640531Y0130520D02*
Y0137213D01*
X0636988Y0130520D02*
Y0137213D01*
X0640531D01*
X0636988Y0130520D02*
X0640531D01*
X0619468D02*
X0623012D01*
X0619468Y0137213D02*
X0623012D01*
X0619468Y0130520D02*
Y0137213D01*
X0623012Y0130520D02*
Y0137213D01*
X0615531Y0130520D02*
Y0137213D01*
X0611988Y0130520D02*
Y0137213D01*
X0615531D01*
X0611988Y0130520D02*
X0615531D01*
X0590728Y0166713D02*
X0594272D01*
X0590728Y0160020D02*
X0594272D01*
Y0166713D01*
X0590728Y0160020D02*
Y0166713D01*
X0565728Y0160020D02*
Y0166713D01*
X0569272Y0160020D02*
Y0166713D01*
X0565728Y0160020D02*
X0569272D01*
X0565728Y0166713D02*
X0569272D01*
X0540728D02*
X0544272D01*
X0540728Y0160020D02*
X0544272D01*
Y0166713D01*
X0540728Y0160020D02*
Y0166713D01*
X0515728Y0160020D02*
Y0166713D01*
X0519272Y0160020D02*
Y0166713D01*
X0515728Y0160020D02*
X0519272D01*
X0515728Y0166713D02*
X0519272D01*
X0490728D02*
X0494272D01*
X0490728Y0160020D02*
X0494272D01*
Y0166713D01*
X0490728Y0160020D02*
Y0166713D01*
X0465728Y0160020D02*
Y0166713D01*
X0469272Y0160020D02*
Y0166713D01*
X0465728Y0160020D02*
X0469272D01*
X0465728Y0166713D02*
X0469272D01*
X0440728D02*
X0444272D01*
X0440728Y0160020D02*
X0444272D01*
Y0166713D01*
X0440728Y0160020D02*
Y0166713D01*
X0415728Y0160020D02*
Y0166713D01*
X0419272Y0160020D02*
Y0166713D01*
X0415728Y0160020D02*
X0419272D01*
X0415728Y0166713D02*
X0419272D01*
X0390728D02*
X0394272D01*
X0390728Y0160020D02*
X0394272D01*
Y0166713D01*
X0390728Y0160020D02*
Y0166713D01*
X0365728Y0160020D02*
Y0166713D01*
X0369272Y0160020D02*
Y0166713D01*
X0365728Y0160020D02*
X0369272D01*
X0365728Y0166713D02*
X0369272D01*
X0340752Y0166736D02*
X0344295D01*
X0340752Y0160043D02*
X0344295D01*
Y0166736D01*
X0340752Y0160043D02*
Y0166736D01*
X0315728Y0160020D02*
Y0166713D01*
X0319272Y0160020D02*
Y0166713D01*
X0315728Y0160020D02*
X0319272D01*
X0315728Y0166713D02*
X0319272D01*
X0294228Y0130984D02*
X0297772D01*
X0294228Y0137677D02*
X0297772D01*
X0294228Y0130984D02*
Y0137677D01*
X0297772Y0130984D02*
Y0137677D01*
X0598012Y0130520D02*
Y0137213D01*
X0594468Y0130520D02*
Y0137213D01*
X0598012D01*
X0594468Y0130520D02*
X0598012D01*
X0586988D02*
X0590531D01*
X0586988Y0137213D02*
X0590531D01*
X0586988Y0130520D02*
Y0137213D01*
X0590531Y0130520D02*
Y0137213D01*
X0573012Y0130520D02*
Y0137213D01*
X0569468Y0130520D02*
Y0137213D01*
X0573012D01*
X0569468Y0130520D02*
X0573012D01*
X0561988D02*
X0565531D01*
X0561988Y0137213D02*
X0565531D01*
X0561988Y0130520D02*
Y0137213D01*
X0565531Y0130520D02*
Y0137213D01*
X0548012Y0130520D02*
Y0137213D01*
X0544468Y0130520D02*
Y0137213D01*
X0548012D01*
X0544468Y0130520D02*
X0548012D01*
X0536988D02*
X0540531D01*
X0536988Y0137213D02*
X0540531D01*
X0536988Y0130520D02*
Y0137213D01*
X0540531Y0130520D02*
Y0137213D01*
X0523012Y0130520D02*
Y0137213D01*
X0519468Y0130520D02*
Y0137213D01*
X0523012D01*
X0519468Y0130520D02*
X0523012D01*
X0511988D02*
X0515531D01*
X0511988Y0137213D02*
X0515531D01*
X0511988Y0130520D02*
Y0137213D01*
X0515531Y0130520D02*
Y0137213D01*
X0498012Y0130520D02*
Y0137213D01*
X0494468Y0130520D02*
Y0137213D01*
X0498012D01*
X0494468Y0130520D02*
X0498012D01*
X0798662Y0099195D02*
Y0102739D01*
X0805354Y0099195D02*
Y0102739D01*
X0798662D02*
X0805354D01*
X0798662Y0099195D02*
X0805354D01*
X0494630Y0099195D02*
X0501323D01*
X0494630Y0102739D02*
X0501323D01*
Y0099195D02*
Y0102739D01*
X0494630Y0099195D02*
Y0102739D01*
X0717728Y0083653D02*
X0721272D01*
X0717728Y0090346D02*
X0721272D01*
Y0083653D02*
Y0090346D01*
X0717728Y0083653D02*
Y0090346D01*
X0706228Y0083704D02*
Y0090396D01*
X0709772Y0083704D02*
Y0090396D01*
X0706228D02*
X0709772D01*
X0706228Y0083704D02*
X0709772D01*
X0402228Y0083653D02*
X0405772D01*
X0402228Y0090346D02*
X0405772D01*
Y0083653D02*
Y0090346D01*
X0402228Y0083653D02*
Y0090346D01*
X0746754Y0049228D02*
X0753446D01*
X0746754Y0052772D02*
X0753446D01*
Y0049228D02*
Y0052772D01*
X0746754Y0049228D02*
Y0052772D01*
X0441053Y0049228D02*
Y0052772D01*
X0447747Y0049228D02*
Y0052772D01*
X0441053D02*
X0447747D01*
X0441053Y0049228D02*
X0447747D01*
X0741653Y0046282D02*
X0748347D01*
X0741653Y0042739D02*
X0748347D01*
Y0046282D01*
X0741653Y0042739D02*
Y0046282D01*
X0437653Y0041728D02*
Y0045272D01*
X0444347Y0041728D02*
Y0045272D01*
X0437653Y0041728D02*
X0444347D01*
X0437653Y0045272D02*
X0444347D01*
X0739254Y0054272D02*
X0745947D01*
X0739254Y0050728D02*
X0745947D01*
Y0054272D01*
X0739254Y0050728D02*
Y0054272D01*
X0435253Y0050728D02*
Y0054272D01*
X0441947Y0050728D02*
Y0054272D01*
X0435253Y0050728D02*
X0441947D01*
X0435253Y0054272D02*
X0441947D01*
X0791772Y0069993D02*
Y0076686D01*
X0788228Y0069993D02*
Y0076686D01*
X0791772D01*
X0788228Y0069993D02*
X0791772D01*
X0773853Y0058728D02*
Y0062272D01*
X0780547Y0058728D02*
Y0062272D01*
X0773853D02*
X0780547D01*
X0773853Y0058728D02*
X0780547D01*
X0473153Y0055228D02*
X0479846D01*
X0473153Y0058772D02*
X0479846D01*
Y0055228D02*
Y0058772D01*
X0473153Y0055228D02*
Y0058772D01*
X0786154Y0058728D02*
Y0062272D01*
X0792846Y0058728D02*
Y0062272D01*
X0786154D02*
X0792846D01*
X0786154Y0058728D02*
X0792846D01*
X0484154Y0055228D02*
X0490846D01*
X0484154Y0058772D02*
X0490846D01*
Y0055228D02*
Y0058772D01*
X0484154Y0055228D02*
Y0058772D01*
X0597176Y0026654D02*
X0600719D01*
X0597176Y0033347D02*
X0600719D01*
X0597176Y0026654D02*
Y0033347D01*
X0600719Y0026654D02*
Y0033347D01*
X0597176Y0037653D02*
Y0044346D01*
X0600719Y0037653D02*
Y0044346D01*
X0597176Y0037653D02*
X0600719D01*
X0597176Y0044346D02*
X0600719D01*
X0881343Y0074520D02*
X0884886D01*
X0881343Y0081213D02*
X0884886D01*
X0881343Y0074520D02*
Y0081213D01*
X0884886Y0074520D02*
Y0081213D01*
X0580772Y0074520D02*
Y0081213D01*
X0577228Y0074520D02*
Y0081213D01*
X0580772D01*
X0577228Y0074520D02*
X0580772D01*
X0651828Y0033347D02*
X0655372D01*
X0651828Y0026654D02*
X0655372D01*
Y0033347D01*
X0651828Y0026654D02*
Y0033347D01*
Y0037653D02*
Y0044346D01*
X0655372Y0037653D02*
Y0044346D01*
X0651828Y0037653D02*
X0655372D01*
X0651828Y0044346D02*
X0655372D01*
X0129847Y0122866D02*
Y0126409D01*
X0123153Y0122866D02*
Y0126409D01*
X0129847D01*
X0123153Y0122866D02*
X0129847D01*
X0059654Y0130740D02*
X0066347D01*
X0059654Y0134283D02*
X0066347D01*
X0059654Y0130740D02*
Y0134283D01*
X0066347Y0130740D02*
Y0134283D01*
X0262837Y0096855D02*
X0266380D01*
X0262837Y0103548D02*
X0266380D01*
X0262837Y0096855D02*
Y0103548D01*
X0266380Y0096855D02*
Y0103548D01*
X0258837Y0148764D02*
Y0155457D01*
X0262380Y0148764D02*
Y0155457D01*
X0258837Y0148764D02*
X0262380D01*
X0258837Y0155457D02*
X0262380D01*
X0208175Y0138980D02*
Y0142524D01*
X0214868Y0138980D02*
Y0142524D01*
X0208175D02*
X0214868D01*
X0208175Y0138980D02*
X0214868D01*
X0208175Y0154437D02*
X0214868D01*
X0208175Y0157980D02*
X0214868D01*
Y0154437D02*
Y0157980D01*
X0208175Y0154437D02*
Y0157980D01*
X0252069Y0155457D02*
X0255612D01*
X0252069Y0148764D02*
X0255612D01*
Y0155457D01*
X0252069Y0148764D02*
Y0155457D01*
X0208175Y0144201D02*
X0214868D01*
X0208175Y0147744D02*
X0214868D01*
Y0144201D02*
Y0147744D01*
X0208175Y0144201D02*
Y0147744D01*
X0132528Y0240446D02*
X0136072D01*
X0132528Y0233753D02*
X0136072D01*
X0132528D02*
Y0240446D01*
X0136072Y0233753D02*
Y0240446D01*
X0123153Y0224835D02*
X0129847D01*
X0123153Y0221291D02*
X0129847D01*
Y0224835D01*
X0123153Y0221291D02*
Y0224835D01*
Y0193795D02*
Y0197339D01*
X0129847Y0193795D02*
Y0197339D01*
X0123153Y0193795D02*
X0129847D01*
X0123153Y0197339D02*
X0129847D01*
X0412728Y0083621D02*
Y0090314D01*
X0416272Y0083621D02*
Y0090314D01*
X0412728D02*
X0416272D01*
X0412728Y0083621D02*
X0416272D01*
X0162887Y0107994D02*
Y0111537D01*
X0169580Y0107994D02*
Y0111537D01*
X0162887Y0107994D02*
X0169580D01*
X0162887Y0111537D02*
X0169580D01*
X0222922Y0161524D02*
Y0168217D01*
X0219378Y0161524D02*
Y0168217D01*
X0222922D01*
X0219378Y0161524D02*
X0222922D01*
X0225228Y0168217D02*
X0228772D01*
X0225228Y0161524D02*
X0228772D01*
Y0168217D01*
X0225228Y0161524D02*
Y0168217D01*
X0192604Y0014872D02*
X0199296D01*
X0192604Y0011328D02*
X0199296D01*
Y0014872D01*
X0192604Y0011328D02*
Y0014872D01*
X0129847Y0170110D02*
Y0173653D01*
X0123153Y0170110D02*
Y0173653D01*
X0129847D01*
X0123153Y0170110D02*
X0129847D01*
D16*
X0130584Y0010461D02*
X0180387D01*
Y0035265D01*
X0130584D02*
X0180387D01*
X0130584Y0010461D02*
Y0035265D01*
X0724675Y0086766D02*
Y0093065D01*
X0727825D01*
Y0086766D02*
Y0093065D01*
X0724675Y0086766D02*
X0727825D01*
X0893319Y0179303D02*
X0894961Y0177661D01*
X0890039Y0179303D02*
X0894961D01*
X0890039Y0171429D02*
Y0179303D01*
Y0171429D02*
X0894961D01*
Y0179303D01*
X0869961Y0171429D02*
Y0179303D01*
X0865039Y0171429D02*
X0869961D01*
X0865039D02*
Y0179303D01*
X0869961D01*
X0868319D02*
X0869961Y0177661D01*
X0843319Y0179303D02*
X0844961Y0177661D01*
X0840039Y0179303D02*
X0844961D01*
X0840039Y0171429D02*
Y0179303D01*
Y0171429D02*
X0844961D01*
Y0179303D01*
X0819961Y0171429D02*
Y0179303D01*
X0815039Y0171429D02*
X0819961D01*
X0815039D02*
Y0179303D01*
X0819961D01*
X0818319D02*
X0819961Y0177661D01*
X0793319Y0179303D02*
X0794961Y0177661D01*
X0790039Y0179303D02*
X0794961D01*
X0790039Y0171429D02*
Y0179303D01*
Y0171429D02*
X0794961D01*
Y0179303D01*
X0769961Y0171429D02*
Y0179303D01*
X0765039Y0171429D02*
X0769961D01*
X0765039D02*
Y0179303D01*
X0769961D01*
X0768319D02*
X0769961Y0177661D01*
X0743303Y0179303D02*
X0744945Y0177661D01*
X0740024Y0179303D02*
X0744945D01*
X0740024Y0171429D02*
Y0179303D01*
Y0171429D02*
X0744945D01*
Y0179303D01*
X0719961Y0171429D02*
Y0179303D01*
X0715039Y0171429D02*
X0719961D01*
X0715039D02*
Y0179303D01*
X0719961D01*
X0718319D02*
X0719961Y0177661D01*
X0693319Y0179303D02*
X0694961Y0177661D01*
X0690039Y0179303D02*
X0694961D01*
X0690039Y0171429D02*
Y0179303D01*
Y0171429D02*
X0694961D01*
Y0179303D01*
X0669961Y0171429D02*
Y0179303D01*
X0665039Y0171429D02*
X0669961D01*
X0665039D02*
Y0179303D01*
X0669961D01*
X0668319D02*
X0669961Y0177661D01*
X0643319Y0179303D02*
X0644961Y0177661D01*
X0640039Y0179303D02*
X0644961D01*
X0640039Y0171429D02*
Y0179303D01*
Y0171429D02*
X0644961D01*
Y0179303D01*
X0619961Y0171429D02*
Y0179303D01*
X0615039Y0171429D02*
X0619961D01*
X0615039D02*
Y0179303D01*
X0619961D01*
X0618319D02*
X0619961Y0177661D01*
X0593319Y0179303D02*
X0594961Y0177661D01*
X0590039Y0179303D02*
X0594961D01*
X0590039Y0171429D02*
Y0179303D01*
Y0171429D02*
X0594961D01*
Y0179303D01*
X0569961Y0171429D02*
Y0179303D01*
X0565039Y0171429D02*
X0569961D01*
X0565039D02*
Y0179303D01*
X0569961D01*
X0568319D02*
X0569961Y0177661D01*
X0543319Y0179303D02*
X0544961Y0177661D01*
X0540039Y0179303D02*
X0544961D01*
X0540039Y0171429D02*
Y0179303D01*
Y0171429D02*
X0544961D01*
Y0179303D01*
X0519961Y0171429D02*
Y0179303D01*
X0515039Y0171429D02*
X0519961D01*
X0515039D02*
Y0179303D01*
X0519961D01*
X0518319D02*
X0519961Y0177661D01*
X0493319Y0179303D02*
X0494961Y0177661D01*
X0490039Y0179303D02*
X0494961D01*
X0490039Y0171429D02*
Y0179303D01*
Y0171429D02*
X0494961D01*
Y0179303D01*
X0469961Y0171429D02*
Y0179303D01*
X0465039Y0171429D02*
X0469961D01*
X0465039D02*
Y0179303D01*
X0469961D01*
X0468319D02*
X0469961Y0177661D01*
X0443319Y0179303D02*
X0444961Y0177661D01*
X0440039Y0179303D02*
X0444961D01*
X0440039Y0171429D02*
Y0179303D01*
Y0171429D02*
X0444961D01*
Y0179303D01*
X0419961Y0171429D02*
Y0179303D01*
X0415039Y0171429D02*
X0419961D01*
X0415039D02*
Y0179303D01*
X0419961D01*
X0418319D02*
X0419961Y0177661D01*
X0393319Y0179303D02*
X0394961Y0177661D01*
X0390039Y0179303D02*
X0394961D01*
X0390039Y0171429D02*
Y0179303D01*
Y0171429D02*
X0394961D01*
Y0179303D01*
X0369961Y0171429D02*
Y0179303D01*
X0365039Y0171429D02*
X0369961D01*
X0365039D02*
Y0179303D01*
X0369961D01*
X0368319D02*
X0369961Y0177661D01*
X0343358Y0179327D02*
X0345000Y0177685D01*
X0340079Y0179327D02*
X0345000D01*
X0340079Y0171453D02*
Y0179327D01*
Y0171453D02*
X0345000D01*
Y0179327D01*
X0319961Y0171429D02*
Y0179303D01*
X0315039Y0171429D02*
X0319961D01*
X0315039D02*
Y0179303D01*
X0319961D01*
X0318319D02*
X0319961Y0177661D01*
X0868766Y0074185D02*
X0870408Y0075827D01*
X0868766Y0070906D02*
Y0075827D01*
Y0070906D02*
X0876640D01*
Y0075827D01*
X0868766D02*
X0876640D01*
X0564652Y0075827D02*
X0572526D01*
Y0070906D02*
Y0075827D01*
X0564652Y0070906D02*
X0572526D01*
X0564652D02*
Y0075827D01*
Y0074185D02*
X0566294Y0075827D01*
X0326063Y0183039D02*
X0333937D01*
X0326063D02*
Y0187961D01*
X0333937D01*
Y0183039D02*
Y0187961D01*
X0358937Y0183039D02*
Y0187961D01*
X0351063D02*
X0358937D01*
X0351063Y0183039D02*
Y0187961D01*
Y0183039D02*
X0358937D01*
X0376063D02*
X0383937D01*
X0376063D02*
Y0187961D01*
X0383937D01*
Y0183039D02*
Y0187961D01*
X0408937Y0183039D02*
Y0187961D01*
X0401063D02*
X0408937D01*
X0401063Y0183039D02*
Y0187961D01*
Y0183039D02*
X0408937D01*
X0425563D02*
X0433437D01*
X0425563D02*
Y0187961D01*
X0433437D01*
Y0183039D02*
Y0187961D01*
X0459437Y0183039D02*
Y0187961D01*
X0451563D02*
X0459437D01*
X0451563Y0183039D02*
Y0187961D01*
Y0183039D02*
X0459437D01*
X0476063D02*
X0483937D01*
X0476063D02*
Y0187961D01*
X0483937D01*
Y0183039D02*
Y0187961D01*
X0508937Y0183039D02*
Y0187961D01*
X0501063D02*
X0508937D01*
X0501063Y0183039D02*
Y0187961D01*
Y0183039D02*
X0508937D01*
X0526063D02*
X0533937D01*
X0526063D02*
Y0187961D01*
X0533937D01*
Y0183039D02*
Y0187961D01*
X0558937Y0183039D02*
Y0187961D01*
X0551063D02*
X0558937D01*
X0551063Y0183039D02*
Y0187961D01*
Y0183039D02*
X0558937D01*
X0576063D02*
X0583937D01*
X0576063D02*
Y0187961D01*
X0583937D01*
Y0183039D02*
Y0187961D01*
X0608937Y0183039D02*
Y0187961D01*
X0601063D02*
X0608937D01*
X0601063Y0183039D02*
Y0187961D01*
Y0183039D02*
X0608937D01*
X0626063D02*
X0633937D01*
X0626063D02*
Y0187961D01*
X0633937D01*
Y0183039D02*
Y0187961D01*
X0658937Y0183039D02*
Y0187961D01*
X0651063D02*
X0658937D01*
X0651063Y0183039D02*
Y0187961D01*
Y0183039D02*
X0658937D01*
X0676063D02*
X0683937D01*
X0676063D02*
Y0187961D01*
X0683937D01*
Y0183039D02*
Y0187961D01*
X0708437Y0183039D02*
Y0187961D01*
X0700563D02*
X0708437D01*
X0700563Y0183039D02*
Y0187961D01*
Y0183039D02*
X0708437D01*
X0726063D02*
X0733937D01*
X0726063D02*
Y0187961D01*
X0733937D01*
Y0183039D02*
Y0187961D01*
X0758673Y0183039D02*
Y0187961D01*
X0750799D02*
X0758673D01*
X0750799Y0183039D02*
Y0187961D01*
Y0183039D02*
X0758673D01*
X0776063D02*
X0783937D01*
X0776063D02*
Y0187961D01*
X0783937D01*
Y0183039D02*
Y0187961D01*
X0808937Y0183039D02*
Y0187961D01*
X0801063D02*
X0808937D01*
X0801063Y0183039D02*
Y0187961D01*
Y0183039D02*
X0808937D01*
X0826063D02*
X0833937D01*
X0826063D02*
Y0187961D01*
X0833937D01*
Y0183039D02*
Y0187961D01*
X0858937Y0183039D02*
Y0187961D01*
X0851063D02*
X0858937D01*
X0851063Y0183039D02*
Y0187961D01*
Y0183039D02*
X0858937D01*
X0876063D02*
X0883937D01*
X0876063D02*
Y0187961D01*
X0883937D01*
Y0183039D02*
Y0187961D01*
X0908937Y0183039D02*
Y0187961D01*
X0901063D02*
X0908937D01*
X0901063Y0183039D02*
Y0187961D01*
Y0183039D02*
X0908937D01*
X0327539Y0118429D02*
Y0126303D01*
Y0118429D02*
X0332461D01*
Y0126303D01*
X0327539D02*
X0332461D01*
X0352539D02*
X0357461D01*
Y0118429D02*
Y0126303D01*
X0352539Y0118429D02*
X0357461D01*
X0352539D02*
Y0126303D01*
X0377539Y0118429D02*
Y0126303D01*
Y0118429D02*
X0382461D01*
Y0126303D01*
X0377539D02*
X0382461D01*
X0402539D02*
X0407461D01*
Y0118429D02*
Y0126303D01*
X0402539Y0118429D02*
X0407461D01*
X0402539D02*
Y0126303D01*
X0427539Y0118429D02*
Y0126303D01*
Y0118429D02*
X0432461D01*
Y0126303D01*
X0427539D02*
X0432461D01*
X0452539D02*
X0457461D01*
Y0118429D02*
Y0126303D01*
X0452539Y0118429D02*
X0457461D01*
X0452539D02*
Y0126303D01*
X0477539Y0118429D02*
Y0126303D01*
Y0118429D02*
X0482461D01*
Y0126303D01*
X0477539D02*
X0482461D01*
X0502539D02*
X0507461D01*
Y0118429D02*
Y0126303D01*
X0502539Y0118429D02*
X0507461D01*
X0502539D02*
Y0126303D01*
X0527539Y0118429D02*
Y0126303D01*
Y0118429D02*
X0532461D01*
Y0126303D01*
X0527539D02*
X0532461D01*
X0552539D02*
X0557461D01*
Y0118429D02*
Y0126303D01*
X0552539Y0118429D02*
X0557461D01*
X0552539D02*
Y0126303D01*
X0577539Y0118429D02*
Y0126303D01*
Y0118429D02*
X0582461D01*
Y0126303D01*
X0577539D02*
X0582461D01*
X0600039D02*
X0604961D01*
Y0118429D02*
Y0126303D01*
X0600039Y0118429D02*
X0604961D01*
X0600039D02*
Y0126303D01*
X0627539Y0118429D02*
Y0126303D01*
Y0118429D02*
X0632461D01*
Y0126303D01*
X0627539D02*
X0632461D01*
X0652539D02*
X0657461D01*
Y0118429D02*
Y0126303D01*
X0652539Y0118429D02*
X0657461D01*
X0652539D02*
Y0126303D01*
X0677539Y0118429D02*
Y0126303D01*
Y0118429D02*
X0682461D01*
Y0126303D01*
X0677539D02*
X0682461D01*
X0702539D02*
X0707461D01*
Y0118429D02*
Y0126303D01*
X0702539Y0118429D02*
X0707461D01*
X0702539D02*
Y0126303D01*
X0727539Y0118429D02*
Y0126303D01*
Y0118429D02*
X0732461D01*
Y0126303D01*
X0727539D02*
X0732461D01*
X0752539D02*
X0757461D01*
Y0118429D02*
Y0126303D01*
X0752539Y0118429D02*
X0757461D01*
X0752539D02*
Y0126303D01*
X0777539Y0118429D02*
Y0126303D01*
Y0118429D02*
X0782461D01*
Y0126303D01*
X0777539D02*
X0782461D01*
X0802539D02*
X0807461D01*
Y0118429D02*
Y0126303D01*
X0802539Y0118429D02*
X0807461D01*
X0802539D02*
Y0126303D01*
X0827539Y0118429D02*
Y0126303D01*
Y0118429D02*
X0832461D01*
Y0126303D01*
X0827539D02*
X0832461D01*
X0852539D02*
X0857461D01*
Y0118429D02*
Y0126303D01*
X0852539Y0118429D02*
X0857461D01*
X0852539D02*
Y0126303D01*
X0877539Y0118429D02*
Y0126303D01*
Y0118429D02*
X0882461D01*
Y0126303D01*
X0877539D02*
X0882461D01*
X0913039Y0120437D02*
X0917961D01*
Y0112563D02*
Y0120437D01*
X0913039Y0112563D02*
X0917961D01*
X0913039D02*
Y0120437D01*
X0793492Y0093929D02*
Y0101803D01*
X0788571Y0093929D02*
X0793492D01*
X0788571D02*
Y0101803D01*
X0793492D01*
X0484539Y0101803D02*
X0489461D01*
X0484539Y0093929D02*
Y0101803D01*
Y0093929D02*
X0489461D01*
Y0101803D01*
X0585263Y0033139D02*
X0593137D01*
X0585263D02*
Y0038061D01*
X0593137D01*
Y0033139D02*
Y0038061D01*
X0866306Y0080429D02*
X0871227D01*
Y0088303D01*
X0866306D02*
X0871227D01*
X0866306Y0080429D02*
Y0088303D01*
X0562191Y0080429D02*
Y0088303D01*
X0567113D01*
Y0080429D02*
Y0088303D01*
X0562191Y0080429D02*
X0567113D01*
X0659096Y0033039D02*
Y0037961D01*
Y0033039D02*
X0666970D01*
Y0037961D01*
X0659096D02*
X0666970D01*
X0637163Y0029118D02*
X0645037D01*
X0637163D02*
Y0034039D01*
X0645037D01*
Y0029118D02*
Y0034039D01*
Y0036961D02*
Y0041882D01*
X0637163D02*
X0645037D01*
X0637163Y0036961D02*
Y0041882D01*
Y0036961D02*
X0645037D01*
X0213970Y0132827D02*
X0221845D01*
Y0127905D02*
Y0132827D01*
X0213970Y0127905D02*
X0221845D01*
X0213970D02*
Y0132827D01*
X0327071Y0189681D02*
X0328075Y0188677D01*
Y0187319D02*
Y0189681D01*
X0324925Y0187319D02*
X0328075D01*
X0324925D02*
Y0189681D01*
X0328075D01*
X0350425D02*
X0353575D01*
X0350425Y0187319D02*
Y0189681D01*
Y0187319D02*
X0353575D01*
Y0189681D01*
X0352571D02*
X0353575Y0188677D01*
X0378071Y0189681D02*
X0379075Y0188677D01*
Y0187319D02*
Y0189681D01*
X0375925Y0187319D02*
X0379075D01*
X0375925D02*
Y0189681D01*
X0379075D01*
X0401425D02*
X0404575D01*
X0401425Y0187319D02*
Y0189681D01*
Y0187319D02*
X0404575D01*
Y0189681D01*
X0403571D02*
X0404575Y0188677D01*
X0429571Y0189681D02*
X0430575Y0188677D01*
Y0187319D02*
Y0189681D01*
X0427425Y0187319D02*
X0430575D01*
X0427425D02*
Y0189681D01*
X0430575D01*
X0452425D02*
X0455575D01*
X0452425Y0187319D02*
Y0189681D01*
Y0187319D02*
X0455575D01*
Y0189681D01*
X0454571D02*
X0455575Y0188677D01*
X0480071Y0189681D02*
X0481075Y0188677D01*
Y0187319D02*
Y0189681D01*
X0477925Y0187319D02*
X0481075D01*
X0477925D02*
Y0189681D01*
X0481075D01*
X0503425D02*
X0506575D01*
X0503425Y0187319D02*
Y0189681D01*
Y0187319D02*
X0506575D01*
Y0189681D01*
X0505571D02*
X0506575Y0188677D01*
X0530571Y0189681D02*
X0531575Y0188677D01*
Y0187319D02*
Y0189681D01*
X0528425Y0187319D02*
X0531575D01*
X0528425D02*
Y0189681D01*
X0531575D01*
X0553425D02*
X0556575D01*
X0553425Y0187319D02*
Y0189681D01*
Y0187319D02*
X0556575D01*
Y0189681D01*
X0555571D02*
X0556575Y0188677D01*
X0580571Y0189681D02*
X0581575Y0188677D01*
Y0187319D02*
Y0189681D01*
X0578425Y0187319D02*
X0581575D01*
X0578425D02*
Y0189681D01*
X0581575D01*
X0603425D02*
X0606575D01*
X0603425Y0187319D02*
Y0189681D01*
Y0187319D02*
X0606575D01*
Y0189681D01*
X0605571D02*
X0606575Y0188677D01*
X0630571Y0189681D02*
X0631575Y0188677D01*
Y0187319D02*
Y0189681D01*
X0628425Y0187319D02*
X0631575D01*
X0628425D02*
Y0189681D01*
X0631575D01*
X0653425D02*
X0656575D01*
X0653425Y0187319D02*
Y0189681D01*
Y0187319D02*
X0656575D01*
Y0189681D01*
X0655571D02*
X0656575Y0188677D01*
X0680571Y0189681D02*
X0681575Y0188677D01*
Y0187319D02*
Y0189681D01*
X0678425Y0187319D02*
X0681575D01*
X0678425D02*
Y0189681D01*
X0681575D01*
X0703425D02*
X0706575D01*
X0703425Y0187319D02*
Y0189681D01*
Y0187319D02*
X0706575D01*
Y0189681D01*
X0705571D02*
X0706575Y0188677D01*
X0730571Y0189681D02*
X0731575Y0188677D01*
Y0187319D02*
Y0189681D01*
X0728425Y0187319D02*
X0731575D01*
X0728425D02*
Y0189681D01*
X0731575D01*
X0753425D02*
X0756575D01*
X0753425Y0187319D02*
Y0189681D01*
Y0187319D02*
X0756575D01*
Y0189681D01*
X0755571D02*
X0756575Y0188677D01*
X0780571Y0189681D02*
X0781575Y0188677D01*
Y0187319D02*
Y0189681D01*
X0778425Y0187319D02*
X0781575D01*
X0778425D02*
Y0189681D01*
X0781575D01*
X0803425D02*
X0806575D01*
X0803425Y0187319D02*
Y0189681D01*
Y0187319D02*
X0806575D01*
Y0189681D01*
X0805571D02*
X0806575Y0188677D01*
X0830571Y0189681D02*
X0831575Y0188677D01*
Y0187319D02*
Y0189681D01*
X0828425Y0187319D02*
X0831575D01*
X0828425D02*
Y0189681D01*
X0831575D01*
X0853425D02*
X0856575D01*
X0853425Y0187319D02*
Y0189681D01*
Y0187319D02*
X0856575D01*
Y0189681D01*
X0855571D02*
X0856575Y0188677D01*
X0880571Y0189681D02*
X0881575Y0188677D01*
Y0187319D02*
Y0189681D01*
X0878425Y0187319D02*
X0881575D01*
X0878425D02*
Y0189681D01*
X0881575D01*
X0903425D02*
X0906575D01*
X0903425Y0187319D02*
Y0189681D01*
Y0187319D02*
X0906575D01*
Y0189681D01*
X0905571D02*
X0906575Y0188677D01*
X0303091Y0211122D02*
Y0253878D01*
Y0211122D02*
X0321909D01*
Y0253878D01*
X0303091D02*
X0321909D01*
X0328545D02*
X0347364D01*
Y0211122D02*
Y0253878D01*
X0328545Y0211122D02*
X0347364D01*
X0328545D02*
Y0253878D01*
X0354000Y0211122D02*
Y0253878D01*
Y0211122D02*
X0372818D01*
Y0253878D01*
X0354000D02*
X0372818D01*
X0379454D02*
X0398273D01*
Y0211122D02*
Y0253878D01*
X0379454Y0211122D02*
X0398273D01*
X0379454D02*
Y0253878D01*
X0404909Y0211122D02*
Y0253878D01*
Y0211122D02*
X0423728D01*
Y0253878D01*
X0404909D02*
X0423728D01*
X0430363D02*
X0449182D01*
Y0211122D02*
Y0253878D01*
X0430363Y0211122D02*
X0449182D01*
X0430363D02*
Y0253878D01*
X0455818Y0211122D02*
Y0253878D01*
Y0211122D02*
X0474637D01*
Y0253878D01*
X0455818D02*
X0474637D01*
X0481272D02*
X0500091D01*
Y0211122D02*
Y0253878D01*
X0481272Y0211122D02*
X0500091D01*
X0481272D02*
Y0253878D01*
X0506727Y0211122D02*
Y0253878D01*
Y0211122D02*
X0525546D01*
Y0253878D01*
X0506727D02*
X0525546D01*
X0532181D02*
X0551000D01*
Y0211122D02*
Y0253878D01*
X0532181Y0211122D02*
X0551000D01*
X0532181D02*
Y0253878D01*
X0557636Y0211122D02*
Y0253878D01*
Y0211122D02*
X0576455D01*
Y0253878D01*
X0557636D02*
X0576455D01*
X0583090D02*
X0601909D01*
Y0211122D02*
Y0253878D01*
X0583090Y0211122D02*
X0601909D01*
X0583090D02*
Y0253878D01*
X0608090Y0211122D02*
Y0253878D01*
Y0211122D02*
X0626909D01*
Y0253878D01*
X0608090D02*
X0626909D01*
X0633090D02*
X0651909D01*
Y0211122D02*
Y0253878D01*
X0633090Y0211122D02*
X0651909D01*
X0633090D02*
Y0253878D01*
X0658090Y0211122D02*
Y0253878D01*
Y0211122D02*
X0676909D01*
Y0253878D01*
X0658090D02*
X0676909D01*
X0683090D02*
X0701909D01*
Y0211122D02*
Y0253878D01*
X0683090Y0211122D02*
X0701909D01*
X0683090D02*
Y0253878D01*
X0708090Y0211122D02*
Y0253878D01*
Y0211122D02*
X0726909D01*
Y0253878D01*
X0708090D02*
X0726909D01*
X0733090D02*
X0751909D01*
Y0211122D02*
Y0253878D01*
X0733090Y0211122D02*
X0751909D01*
X0733090D02*
Y0253878D01*
X0758090Y0211122D02*
Y0253878D01*
Y0211122D02*
X0776909D01*
Y0253878D01*
X0758090D02*
X0776909D01*
X0783090D02*
X0801910D01*
Y0211122D02*
Y0253878D01*
X0783090Y0211122D02*
X0801910D01*
X0783090D02*
Y0253878D01*
X0808090Y0211122D02*
Y0253878D01*
Y0211122D02*
X0826909D01*
Y0253878D01*
X0808090D02*
X0826909D01*
X0833091D02*
X0851909D01*
Y0211122D02*
Y0253878D01*
X0833091Y0211122D02*
X0851909D01*
X0833091D02*
Y0253878D01*
X0858091Y0211122D02*
Y0253878D01*
Y0211122D02*
X0876909D01*
Y0253878D01*
X0858091D02*
X0876909D01*
X0883091D02*
X0901909D01*
Y0211122D02*
Y0253878D01*
X0883091Y0211122D02*
X0901909D01*
X0883091D02*
Y0253878D01*
X0908091Y0211122D02*
Y0253878D01*
Y0211122D02*
X0926909D01*
Y0253878D01*
X0908091D02*
X0926909D01*
X0421725Y0086766D02*
Y0093065D01*
X0424875D01*
Y0086766D02*
Y0093065D01*
X0421725Y0086766D02*
X0424875D01*
X0724791Y0080923D02*
X0727941D01*
X0724791Y0074624D02*
Y0080923D01*
Y0074624D02*
X0727941D01*
Y0080923D01*
X0424875Y0074350D02*
Y0080650D01*
X0421725Y0074350D02*
X0424875D01*
X0421725D02*
Y0080650D01*
X0424875D01*
X0745150Y0055125D02*
Y0058275D01*
Y0055125D02*
X0751450D01*
Y0058275D01*
X0745150D02*
X0751450D01*
X0440941Y0057951D02*
X0447240D01*
Y0054802D02*
Y0057951D01*
X0440941Y0054802D02*
X0447240D01*
X0440941D02*
Y0057951D01*
X0741867Y0049425D02*
Y0052575D01*
X0735568D02*
X0741867D01*
X0735568Y0049425D02*
Y0052575D01*
Y0049425D02*
X0741867D01*
X0430568D02*
X0436867D01*
X0430568D02*
Y0052575D01*
X0436867D01*
Y0049425D02*
Y0052575D01*
X0739650Y0057925D02*
Y0061075D01*
X0733350D02*
X0739650D01*
X0733350Y0057925D02*
Y0061075D01*
Y0057925D02*
X0739650D01*
X0428350D02*
X0434650D01*
X0428350D02*
Y0061075D01*
X0434650D01*
Y0057925D02*
Y0061075D01*
X0753913Y0060991D02*
Y0064141D01*
X0747614D02*
X0753913D01*
X0747614Y0060991D02*
Y0064141D01*
Y0060991D02*
X0753913D01*
X0443500Y0060991D02*
X0449799D01*
X0443500D02*
Y0064141D01*
X0449799D01*
Y0060991D02*
Y0064141D01*
X0757025Y0062450D02*
X0760175D01*
X0757025Y0056150D02*
Y0062450D01*
Y0056150D02*
X0760175D01*
Y0062450D01*
X0456375Y0056950D02*
Y0063250D01*
X0453225Y0056950D02*
X0456375D01*
X0453225D02*
Y0063250D01*
X0456375D01*
X0762925Y0062550D02*
X0766075D01*
X0762925Y0056250D02*
Y0062550D01*
Y0056250D02*
X0766075D01*
Y0062550D01*
X0462008Y0057350D02*
Y0063650D01*
X0458858Y0057350D02*
X0462008D01*
X0458858D02*
Y0063650D01*
X0462008D01*
X0311791Y0145307D02*
Y0150425D01*
X0323209D01*
Y0145307D02*
Y0150425D01*
X0311791Y0145307D02*
X0323209D01*
X0311791Y0149047D02*
X0315531Y0145307D01*
X0336815Y0149071D02*
X0340555Y0145331D01*
X0336815D02*
X0348232D01*
Y0150449D01*
X0336815D02*
X0348232D01*
X0336815Y0145331D02*
Y0150449D01*
X0361791Y0145307D02*
Y0150425D01*
X0373209D01*
Y0145307D02*
Y0150425D01*
X0361791Y0145307D02*
X0373209D01*
X0361791Y0149047D02*
X0365531Y0145307D01*
X0886791Y0149047D02*
X0890532Y0145307D01*
X0886791D02*
X0898209D01*
Y0150425D01*
X0886791D02*
X0898209D01*
X0886791Y0145307D02*
Y0150425D01*
X0861791Y0145307D02*
Y0150425D01*
X0873209D01*
Y0145307D02*
Y0150425D01*
X0861791Y0145307D02*
X0873209D01*
X0861791Y0149047D02*
X0865532Y0145307D01*
X0836791Y0149047D02*
X0840532Y0145307D01*
X0836791D02*
X0848209D01*
Y0150425D01*
X0836791D02*
X0848209D01*
X0836791Y0145307D02*
Y0150425D01*
X0811791Y0145307D02*
Y0150425D01*
X0823209D01*
Y0145307D02*
Y0150425D01*
X0811791Y0145307D02*
X0823209D01*
X0811791Y0149047D02*
X0815532Y0145307D01*
X0786791Y0149047D02*
X0790531Y0145307D01*
X0786791D02*
X0798209D01*
Y0150425D01*
X0786791D02*
X0798209D01*
X0786791Y0145307D02*
Y0150425D01*
X0761791Y0145307D02*
Y0150425D01*
X0773209D01*
Y0145307D02*
Y0150425D01*
X0761791Y0145307D02*
X0773209D01*
X0761791Y0149047D02*
X0765531Y0145307D01*
X0736791Y0149047D02*
X0740531Y0145307D01*
X0736791D02*
X0748209D01*
Y0150425D01*
X0736791D02*
X0748209D01*
X0736791Y0145307D02*
Y0150425D01*
X0710791Y0145307D02*
Y0150425D01*
X0722209D01*
Y0145307D02*
Y0150425D01*
X0710791Y0145307D02*
X0722209D01*
X0710791Y0149047D02*
X0714532Y0145307D01*
X0686791Y0149047D02*
X0690531Y0145307D01*
X0686791D02*
X0698209D01*
Y0150425D01*
X0686791D02*
X0698209D01*
X0686791Y0145307D02*
Y0150425D01*
X0661791Y0145307D02*
Y0150425D01*
X0673209D01*
Y0145307D02*
Y0150425D01*
X0661791Y0145307D02*
X0673209D01*
X0661791Y0149047D02*
X0665531Y0145307D01*
X0636791Y0149047D02*
X0640531Y0145307D01*
X0636791D02*
X0648209D01*
Y0150425D01*
X0636791D02*
X0648209D01*
X0636791Y0145307D02*
Y0150425D01*
X0611791Y0145307D02*
Y0150425D01*
X0623209D01*
Y0145307D02*
Y0150425D01*
X0611791Y0145307D02*
X0623209D01*
X0611791Y0149047D02*
X0615531Y0145307D01*
X0586791Y0149047D02*
X0590531Y0145307D01*
X0586791D02*
X0598209D01*
Y0150425D01*
X0586791D02*
X0598209D01*
X0586791Y0145307D02*
Y0150425D01*
X0561791Y0145307D02*
Y0150425D01*
X0573209D01*
Y0145307D02*
Y0150425D01*
X0561791Y0145307D02*
X0573209D01*
X0561791Y0149047D02*
X0565531Y0145307D01*
X0536791Y0149047D02*
X0540531Y0145307D01*
X0536791D02*
X0548209D01*
Y0150425D01*
X0536791D02*
X0548209D01*
X0536791Y0145307D02*
Y0150425D01*
X0511791Y0145307D02*
Y0150425D01*
X0523209D01*
Y0145307D02*
Y0150425D01*
X0511791Y0145307D02*
X0523209D01*
X0511791Y0149047D02*
X0515531Y0145307D01*
X0486791Y0149047D02*
X0490531Y0145307D01*
X0486791D02*
X0498209D01*
Y0150425D01*
X0486791D02*
X0498209D01*
X0486791Y0145307D02*
Y0150425D01*
X0461791Y0145307D02*
Y0150425D01*
X0473209D01*
Y0145307D02*
Y0150425D01*
X0461791Y0145307D02*
X0473209D01*
X0461791Y0149047D02*
X0465531Y0145307D01*
X0436791Y0149047D02*
X0440531Y0145307D01*
X0436791D02*
X0448209D01*
Y0150425D01*
X0436791D02*
X0448209D01*
X0436791Y0145307D02*
Y0150425D01*
X0411791Y0145307D02*
Y0150425D01*
X0423209D01*
Y0145307D02*
Y0150425D01*
X0411791Y0145307D02*
X0423209D01*
X0411791Y0149047D02*
X0415531Y0145307D01*
X0386791Y0149047D02*
X0390531Y0145307D01*
X0386791D02*
X0398209D01*
Y0150425D01*
X0386791D02*
X0398209D01*
X0386791Y0145307D02*
Y0150425D01*
X0277379Y0128459D02*
X0280426Y0125403D01*
X0270174Y0128459D02*
X0280426D01*
X0270174Y0108002D02*
Y0128459D01*
Y0108002D02*
X0280426D01*
Y0128459D01*
X0251124Y0064870D02*
Y0104240D01*
X0210967D02*
X0251124D01*
X0210967Y0064870D02*
Y0104240D01*
Y0064870D02*
X0251124D01*
X0175245Y0123750D02*
X0187844D01*
X0175245Y0117450D02*
Y0123750D01*
Y0117450D02*
X0187844D01*
Y0123750D01*
Y0108850D02*
Y0115150D01*
X0175245Y0108850D02*
X0187844D01*
X0175245D02*
Y0115150D01*
X0187844D01*
X0041031Y0038421D02*
X0121779D01*
X0041031Y0002988D02*
Y0038421D01*
Y0002988D02*
X0121779D01*
Y0038421D01*
X0140210Y0103047D02*
X0146510D01*
Y0090449D02*
Y0103047D01*
X0140210Y0090449D02*
X0146510D01*
X0140210D02*
Y0103047D01*
X0130850Y0090449D02*
Y0103047D01*
Y0090449D02*
X0137150D01*
Y0103047D01*
X0130850D02*
X0137150D01*
X0149850D02*
X0156150D01*
Y0090449D02*
Y0103047D01*
X0149850Y0090449D02*
X0156150D01*
X0149850D02*
Y0103047D01*
X0162690Y0104449D02*
X0168990D01*
X0162690Y0093032D02*
Y0104449D01*
Y0093032D02*
X0168990D01*
Y0104449D01*
X0165250D02*
X0168990Y0100709D01*
X0211608Y0109116D02*
Y0115415D01*
Y0109116D02*
X0224207D01*
Y0115415D01*
X0211608D02*
X0224207D01*
X0211608Y0118350D02*
Y0124650D01*
Y0118350D02*
X0224207D01*
Y0124650D01*
X0211608D02*
X0224207D01*
X0184826Y0130453D02*
Y0143051D01*
X0191126D01*
Y0130453D02*
Y0143051D01*
X0184826Y0130453D02*
X0191126D01*
X0195509D02*
X0201809D01*
Y0143051D01*
X0195509D02*
X0201809D01*
X0195509Y0130453D02*
Y0143051D01*
X0898701Y0151965D02*
Y0176768D01*
X0886299D02*
X0898701D01*
X0886299Y0151965D02*
Y0176768D01*
Y0151965D02*
X0898701D01*
X0861299D02*
X0873701D01*
X0861299D02*
Y0176768D01*
X0873701D01*
Y0151965D02*
Y0176768D01*
X0848701Y0151965D02*
Y0176768D01*
X0836299D02*
X0848701D01*
X0836299Y0151965D02*
Y0176768D01*
Y0151965D02*
X0848701D01*
X0811299D02*
X0823701D01*
X0811299D02*
Y0176768D01*
X0823701D01*
Y0151965D02*
Y0176768D01*
X0798701Y0151965D02*
Y0176768D01*
X0786299D02*
X0798701D01*
X0786299Y0151965D02*
Y0176768D01*
Y0151965D02*
X0798701D01*
X0761299D02*
X0773701D01*
X0761299D02*
Y0176768D01*
X0773701D01*
Y0151965D02*
Y0176768D01*
X0748701Y0151965D02*
Y0176768D01*
X0736299D02*
X0748701D01*
X0736299Y0151965D02*
Y0176768D01*
Y0151965D02*
X0748701D01*
X0711299D02*
X0723701D01*
X0711299D02*
Y0176768D01*
X0723701D01*
Y0151965D02*
Y0176768D01*
X0698701Y0151965D02*
Y0176768D01*
X0686299D02*
X0698701D01*
X0686299Y0151965D02*
Y0176768D01*
Y0151965D02*
X0698701D01*
X0661299D02*
X0673701D01*
X0661299D02*
Y0176768D01*
X0673701D01*
Y0151965D02*
Y0176768D01*
X0648701Y0151965D02*
Y0176768D01*
X0636299D02*
X0648701D01*
X0636299Y0151965D02*
Y0176768D01*
Y0151965D02*
X0648701D01*
X0611299D02*
X0623701D01*
X0611299D02*
Y0176768D01*
X0623701D01*
Y0151965D02*
Y0176768D01*
X0598701Y0151965D02*
Y0176768D01*
X0586299D02*
X0598701D01*
X0586299Y0151965D02*
Y0176768D01*
Y0151965D02*
X0598701D01*
X0561299D02*
X0573701D01*
X0561299D02*
Y0176768D01*
X0573701D01*
Y0151965D02*
Y0176768D01*
X0548701Y0151965D02*
Y0176768D01*
X0536299D02*
X0548701D01*
X0536299Y0151965D02*
Y0176768D01*
Y0151965D02*
X0548701D01*
X0511299D02*
X0523701D01*
X0511299D02*
Y0176768D01*
X0523701D01*
Y0151965D02*
Y0176768D01*
X0498701Y0151965D02*
Y0176768D01*
X0486299D02*
X0498701D01*
X0486299Y0151965D02*
Y0176768D01*
Y0151965D02*
X0498701D01*
X0461299D02*
X0473701D01*
X0461299D02*
Y0176768D01*
X0473701D01*
Y0151965D02*
Y0176768D01*
X0448701Y0151965D02*
Y0176768D01*
X0436299D02*
X0448701D01*
X0436299Y0151965D02*
Y0176768D01*
Y0151965D02*
X0448701D01*
X0411299D02*
X0423701D01*
X0411299D02*
Y0176768D01*
X0423701D01*
Y0151965D02*
Y0176768D01*
X0398701Y0151965D02*
Y0176768D01*
X0386299D02*
X0398701D01*
X0386299Y0151965D02*
Y0176768D01*
Y0151965D02*
X0398701D01*
X0361299D02*
X0373701D01*
X0361299D02*
Y0176768D01*
X0373701D01*
Y0151965D02*
Y0176768D01*
X0348724Y0151988D02*
Y0176791D01*
X0336323D02*
X0348724D01*
X0336323Y0151988D02*
Y0176791D01*
Y0151988D02*
X0348724D01*
X0311299Y0151965D02*
X0323701D01*
X0311299D02*
Y0176768D01*
X0323701D01*
Y0151965D02*
Y0176768D01*
X0023189Y0239185D02*
X0039685D01*
X0023189Y0112453D02*
Y0239185D01*
Y0112453D02*
X0039685D01*
Y0239185D01*
X0167185Y0112453D02*
Y0239185D01*
X0150689Y0112453D02*
X0167185D01*
X0150689D02*
Y0239185D01*
X0167185D01*
X0480638Y0073933D02*
Y0094799D01*
X0430244Y0073933D02*
X0480638D01*
X0430244D02*
Y0094799D01*
X0480638D01*
X0478669D02*
X0480638Y0092831D01*
X0261791Y0090087D02*
X0281476D01*
X0261791Y0067646D02*
Y0090087D01*
Y0067646D02*
X0281476D01*
Y0090087D01*
X0257561Y0110268D02*
Y0129953D01*
X0235120D02*
X0257561D01*
X0235120Y0110268D02*
Y0129953D01*
Y0110268D02*
X0257561D01*
X0634098Y0098965D02*
X0691776D01*
X0634098Y0074161D02*
Y0098965D01*
Y0074161D02*
X0691776D01*
Y0098965D01*
X0330098D02*
X0387776D01*
X0330098Y0074161D02*
Y0098965D01*
Y0074161D02*
X0387776D01*
Y0098965D01*
X0782669Y0094799D02*
X0784638Y0092831D01*
X0734244Y0094799D02*
X0784638D01*
X0734244Y0073933D02*
Y0094799D01*
Y0073933D02*
X0784638D01*
Y0094799D01*
D17*
X0844087Y0060138D02*
X0860032D01*
X0844087D02*
Y0081594D01*
X0860032D01*
Y0060138D02*
Y0081594D01*
X0880577Y0098429D02*
Y0106303D01*
X0856955D02*
X0880577D01*
X0856955Y0098429D02*
Y0106303D01*
Y0098429D02*
X0880577D01*
X0539973Y0060138D02*
X0555918D01*
X0539973D02*
Y0081595D01*
X0555918D01*
Y0060138D02*
Y0081595D01*
X0610742Y0041799D02*
X0628458D01*
Y0029201D02*
Y0041799D01*
X0610742Y0029201D02*
X0628458D01*
X0610742D02*
Y0041799D01*
X0227203Y0142744D02*
X0239014D01*
Y0158650D01*
X0227203D02*
X0239014D01*
X0227203Y0142744D02*
Y0158650D01*
X0834548Y0088063D02*
Y0095937D01*
X0810926D02*
X0834548D01*
X0810926Y0088063D02*
Y0095937D01*
Y0088063D02*
X0834548D01*
X0281919Y0007815D02*
Y0024311D01*
X0249675D02*
X0281919D01*
X0249675Y0007815D02*
Y0024311D01*
Y0007815D02*
X0281919D01*
X0530548Y0088063D02*
Y0095937D01*
X0506926D02*
X0530548D01*
X0506926Y0088063D02*
Y0095937D01*
Y0088063D02*
X0530548D01*
X0576463Y0098429D02*
Y0106303D01*
X0552841D02*
X0576463D01*
X0552841Y0098429D02*
Y0106303D01*
Y0098429D02*
X0576463D01*
D141*
X0245141Y0138952D02*
Y0139352D01*
Y0137952D02*
Y0138952D01*
Y0135952D02*
Y0137952D01*
Y0134952D02*
Y0135952D01*
Y0134552D02*
Y0134952D01*
Y0134552D02*
X0249041D01*
Y0139352D01*
X0245141D02*
X0249041D01*
X0237541Y0134552D02*
Y0134952D01*
Y0138952D02*
Y0139352D01*
X0233641D02*
X0237541D01*
X0233641Y0134452D02*
Y0139352D01*
Y0134452D02*
X0237541Y0134552D01*
X0248241Y0136952D02*
X0251241D01*
X0249741Y0135452D02*
Y0138452D01*
X0244141Y0134952D02*
X0245141Y0135952D01*
X0244141Y0138952D02*
X0245141Y0137952D01*
X0237541Y0138952D02*
X0245141D01*
X0237541Y0134952D02*
Y0138952D01*
Y0134952D02*
X0245141D01*
Y0135952D02*
Y0137952D01*
M02*
