G04*
G04 #@! TF.GenerationSoftware,Altium Limited,Altium Designer,19.0.4 (130)*
G04*
G04 Layer_Color=128*
%FSAX25Y25*%
%MOIN*%
G70*
G01*
G75*
%ADD32R,0.06600X0.04400*%
%ADD33R,0.03800X0.03500*%
%ADD34R,0.03500X0.03800*%
%ADD36R,0.03200X0.03900*%
%ADD44R,0.02441X0.07165*%
%ADD45R,0.07165X0.02441*%
%ADD133R,0.09700X0.11811*%
%ADD134R,0.19685X0.25720*%
%ADD135R,0.04528X0.02362*%
%ADD136R,0.13500X0.08000*%
D32*
X0330000Y0125708D02*
D03*
Y0119024D02*
D03*
X0355000D02*
D03*
Y0125708D02*
D03*
X0380000D02*
D03*
Y0119024D02*
D03*
X0405000D02*
D03*
Y0125708D02*
D03*
X0430000D02*
D03*
Y0119024D02*
D03*
X0455000D02*
D03*
Y0125708D02*
D03*
X0480000D02*
D03*
Y0119024D02*
D03*
X0505000D02*
D03*
Y0125708D02*
D03*
X0530000D02*
D03*
Y0119024D02*
D03*
X0555000D02*
D03*
Y0125708D02*
D03*
X0580000D02*
D03*
Y0119024D02*
D03*
X0602500D02*
D03*
Y0125708D02*
D03*
X0630000D02*
D03*
Y0119024D02*
D03*
X0655000D02*
D03*
Y0125708D02*
D03*
X0680000D02*
D03*
Y0119024D02*
D03*
X0705000D02*
D03*
Y0125708D02*
D03*
X0730000D02*
D03*
Y0119024D02*
D03*
X0755000D02*
D03*
Y0125708D02*
D03*
X0780000D02*
D03*
Y0119024D02*
D03*
X0805000D02*
D03*
Y0125708D02*
D03*
X0830000D02*
D03*
Y0119024D02*
D03*
X0855000D02*
D03*
Y0125708D02*
D03*
X0880000D02*
D03*
Y0119024D02*
D03*
X0915500Y0113158D02*
D03*
Y0119842D02*
D03*
D33*
X0719500Y0090100D02*
D03*
Y0083900D02*
D03*
X0708000Y0083950D02*
D03*
Y0090150D02*
D03*
X0404000Y0090100D02*
D03*
Y0083900D02*
D03*
X0134300Y0234000D02*
D03*
Y0240200D02*
D03*
X0414500Y0083868D02*
D03*
Y0090068D02*
D03*
D34*
X0741900Y0044511D02*
D03*
X0748100D02*
D03*
X0444100Y0043500D02*
D03*
X0437900D02*
D03*
X0739500Y0052500D02*
D03*
X0745700D02*
D03*
X0441700D02*
D03*
X0435500D02*
D03*
X0123400Y0124638D02*
D03*
X0129600D02*
D03*
X0066100Y0132512D02*
D03*
X0059900D02*
D03*
X0123400Y0223063D02*
D03*
X0129600D02*
D03*
Y0195567D02*
D03*
X0123400D02*
D03*
X0169333Y0109766D02*
D03*
X0163133D02*
D03*
X0192850Y0013100D02*
D03*
X0199050D02*
D03*
X0123400Y0171882D02*
D03*
X0129600D02*
D03*
D36*
X0159856Y0088595D02*
D03*
X0166156D02*
D03*
D44*
X0187844Y0120600D02*
D03*
X0175245D02*
D03*
Y0112000D02*
D03*
X0187844D02*
D03*
D45*
X0143360Y0090449D02*
D03*
Y0103047D02*
D03*
X0134000D02*
D03*
Y0090449D02*
D03*
X0153000D02*
D03*
Y0103047D02*
D03*
D133*
X0333115Y0188500D02*
D03*
X0319885D02*
D03*
X0345385D02*
D03*
X0358615D02*
D03*
X0384115D02*
D03*
X0370885D02*
D03*
X0396385D02*
D03*
X0409615D02*
D03*
X0435615D02*
D03*
X0422385D02*
D03*
X0447385D02*
D03*
X0460615D02*
D03*
X0486115D02*
D03*
X0472885D02*
D03*
X0498385D02*
D03*
X0511615D02*
D03*
X0536615D02*
D03*
X0523385D02*
D03*
X0548385D02*
D03*
X0561615D02*
D03*
X0586615D02*
D03*
X0573385D02*
D03*
X0598385D02*
D03*
X0611615D02*
D03*
X0636615D02*
D03*
X0623385D02*
D03*
X0648385D02*
D03*
X0661615D02*
D03*
X0686615D02*
D03*
X0673385D02*
D03*
X0698385D02*
D03*
X0711615D02*
D03*
X0736615D02*
D03*
X0723385D02*
D03*
X0748385D02*
D03*
X0761615D02*
D03*
X0786615D02*
D03*
X0773385D02*
D03*
X0798385D02*
D03*
X0811615D02*
D03*
X0836615D02*
D03*
X0823385D02*
D03*
X0848385D02*
D03*
X0861615D02*
D03*
X0886615D02*
D03*
X0873385D02*
D03*
X0898385D02*
D03*
X0911615D02*
D03*
D134*
X0312500Y0251202D02*
D03*
Y0213798D02*
D03*
X0337954D02*
D03*
Y0251202D02*
D03*
X0363409D02*
D03*
Y0213798D02*
D03*
X0388864D02*
D03*
Y0251202D02*
D03*
X0414318D02*
D03*
Y0213798D02*
D03*
X0439773D02*
D03*
Y0251202D02*
D03*
X0465227D02*
D03*
Y0213798D02*
D03*
X0490682D02*
D03*
Y0251202D02*
D03*
X0516136D02*
D03*
Y0213798D02*
D03*
X0541591D02*
D03*
Y0251202D02*
D03*
X0567045D02*
D03*
Y0213798D02*
D03*
X0592500D02*
D03*
Y0251202D02*
D03*
X0617500D02*
D03*
Y0213798D02*
D03*
X0642500D02*
D03*
Y0251202D02*
D03*
X0667500D02*
D03*
Y0213798D02*
D03*
X0692500D02*
D03*
Y0251202D02*
D03*
X0717500D02*
D03*
Y0213798D02*
D03*
X0742500D02*
D03*
Y0251202D02*
D03*
X0767500D02*
D03*
Y0213798D02*
D03*
X0792500D02*
D03*
Y0251202D02*
D03*
X0817500D02*
D03*
Y0213798D02*
D03*
X0842500D02*
D03*
Y0251202D02*
D03*
X0867500D02*
D03*
Y0213798D02*
D03*
X0892500D02*
D03*
Y0251202D02*
D03*
X0917500D02*
D03*
Y0213798D02*
D03*
D135*
X0170761Y0102480D02*
D03*
Y0098740D02*
D03*
Y0095000D02*
D03*
X0160919D02*
D03*
Y0102480D02*
D03*
D136*
X0892500Y0151016D02*
D03*
Y0177717D02*
D03*
X0867500D02*
D03*
Y0151016D02*
D03*
X0842500D02*
D03*
Y0177717D02*
D03*
X0817500D02*
D03*
Y0151016D02*
D03*
X0792500D02*
D03*
Y0177717D02*
D03*
X0767500D02*
D03*
Y0151016D02*
D03*
X0742500D02*
D03*
Y0177717D02*
D03*
X0717500D02*
D03*
Y0151016D02*
D03*
X0692500D02*
D03*
Y0177717D02*
D03*
X0667500D02*
D03*
Y0151016D02*
D03*
X0642500D02*
D03*
Y0177717D02*
D03*
X0617500D02*
D03*
Y0151016D02*
D03*
X0592500D02*
D03*
Y0177717D02*
D03*
X0567500D02*
D03*
Y0151016D02*
D03*
X0542500D02*
D03*
Y0177717D02*
D03*
X0517500D02*
D03*
Y0151016D02*
D03*
X0492500D02*
D03*
Y0177717D02*
D03*
X0467500D02*
D03*
Y0151016D02*
D03*
X0442500D02*
D03*
Y0177717D02*
D03*
X0417500D02*
D03*
Y0151016D02*
D03*
X0392500D02*
D03*
Y0177717D02*
D03*
X0367500D02*
D03*
Y0151016D02*
D03*
X0342524Y0151039D02*
D03*
Y0177740D02*
D03*
X0317500Y0177717D02*
D03*
Y0151016D02*
D03*
M02*
