G04*
G04 #@! TF.GenerationSoftware,Altium Limited,Altium Designer,19.0.4 (130)*
G04*
G04 Layer_Color=32768*
%FSAX25Y25*%
%MOIN*%
G70*
G01*
G75*
%ADD16C,0.00394*%
%ADD142C,0.00197*%
D16*
X0842119Y0054992D02*
X0862001D01*
X0842119D02*
Y0089606D01*
X0862001D01*
Y0054992D02*
Y0089606D01*
X0884514Y0094492D02*
Y0110240D01*
X0853018D02*
X0884514D01*
X0853018Y0094492D02*
Y0110240D01*
Y0094492D02*
X0884514D01*
X0538005Y0054992D02*
X0557887D01*
X0538005D02*
Y0089606D01*
X0557887D01*
Y0054992D02*
Y0089606D01*
X0604049Y0046130D02*
X0635100D01*
Y0024870D02*
Y0046130D01*
X0604049Y0024870D02*
X0635100D01*
X0604049D02*
Y0046130D01*
X0219128Y0138807D02*
X0249053D01*
Y0162587D01*
X0219128D02*
X0249053D01*
X0219128Y0138807D02*
Y0162587D01*
X0838485Y0084126D02*
Y0099874D01*
X0806989D02*
X0838485D01*
X0806989Y0084126D02*
Y0099874D01*
Y0084126D02*
X0838485D01*
X0285856Y0003878D02*
Y0028248D01*
X0245738D02*
X0285856D01*
X0245738Y0003878D02*
Y0028248D01*
Y0003878D02*
X0285856D01*
X0019252Y0243122D02*
X0047579D01*
X0019252Y0108516D02*
Y0243122D01*
Y0108516D02*
X0047579D01*
Y0243122D01*
X0175079Y0108516D02*
Y0243122D01*
X0146752Y0108516D02*
X0175079D01*
X0146752D02*
Y0243122D01*
X0175079D01*
X0534485Y0084126D02*
Y0099874D01*
X0502989D02*
X0534485D01*
X0502989Y0084126D02*
Y0099874D01*
Y0084126D02*
X0534485D01*
X0580400Y0094492D02*
Y0110240D01*
X0548904D02*
X0580400D01*
X0548904Y0094492D02*
Y0110240D01*
Y0094492D02*
X0580400D01*
D142*
X0129600Y0009477D02*
X0181371D01*
Y0036249D01*
X0129600D02*
X0181371D01*
X0129600Y0009477D02*
Y0036249D01*
X0723809Y0085113D02*
Y0094719D01*
X0728691D01*
Y0085113D02*
Y0094719D01*
X0723809Y0085113D02*
X0728691D01*
X0887972Y0182846D02*
X0897028D01*
X0887972Y0167886D02*
Y0182846D01*
Y0167886D02*
X0897028D01*
Y0182846D01*
X0872028Y0167886D02*
Y0182846D01*
X0862972Y0167886D02*
X0872028D01*
X0862972D02*
Y0182846D01*
X0872028D01*
X0837972D02*
X0847028D01*
X0837972Y0167886D02*
Y0182846D01*
Y0167886D02*
X0847028D01*
Y0182846D01*
X0822028Y0167886D02*
Y0182846D01*
X0812972Y0167886D02*
X0822028D01*
X0812972D02*
Y0182846D01*
X0822028D01*
X0787972D02*
X0797028D01*
X0787972Y0167886D02*
Y0182846D01*
Y0167886D02*
X0797028D01*
Y0182846D01*
X0772028Y0167886D02*
Y0182846D01*
X0762972Y0167886D02*
X0772028D01*
X0762972D02*
Y0182846D01*
X0772028D01*
X0737957D02*
X0747012D01*
X0737957Y0167886D02*
Y0182846D01*
Y0167886D02*
X0747012D01*
Y0182846D01*
X0722028Y0167886D02*
Y0182846D01*
X0712972Y0167886D02*
X0722028D01*
X0712972D02*
Y0182846D01*
X0722028D01*
X0687972D02*
X0697028D01*
X0687972Y0167886D02*
Y0182846D01*
Y0167886D02*
X0697028D01*
Y0182846D01*
X0672028Y0167886D02*
Y0182846D01*
X0662972Y0167886D02*
X0672028D01*
X0662972D02*
Y0182846D01*
X0672028D01*
X0637972D02*
X0647028D01*
X0637972Y0167886D02*
Y0182846D01*
Y0167886D02*
X0647028D01*
Y0182846D01*
X0622028Y0167886D02*
Y0182846D01*
X0612972Y0167886D02*
X0622028D01*
X0612972D02*
Y0182846D01*
X0622028D01*
X0587972D02*
X0597028D01*
X0587972Y0167886D02*
Y0182846D01*
Y0167886D02*
X0597028D01*
Y0182846D01*
X0572028Y0167886D02*
Y0182846D01*
X0562972Y0167886D02*
X0572028D01*
X0562972D02*
Y0182846D01*
X0572028D01*
X0537972D02*
X0547028D01*
X0537972Y0167886D02*
Y0182846D01*
Y0167886D02*
X0547028D01*
Y0182846D01*
X0522028Y0167886D02*
Y0182846D01*
X0512972Y0167886D02*
X0522028D01*
X0512972D02*
Y0182846D01*
X0522028D01*
X0487972D02*
X0497028D01*
X0487972Y0167886D02*
Y0182846D01*
Y0167886D02*
X0497028D01*
Y0182846D01*
X0472028Y0167886D02*
Y0182846D01*
X0462972Y0167886D02*
X0472028D01*
X0462972D02*
Y0182846D01*
X0472028D01*
X0437972D02*
X0447028D01*
X0437972Y0167886D02*
Y0182846D01*
Y0167886D02*
X0447028D01*
Y0182846D01*
X0422028Y0167886D02*
Y0182846D01*
X0412972Y0167886D02*
X0422028D01*
X0412972D02*
Y0182846D01*
X0422028D01*
X0387972D02*
X0397028D01*
X0387972Y0167886D02*
Y0182846D01*
Y0167886D02*
X0397028D01*
Y0182846D01*
X0372028Y0167886D02*
Y0182846D01*
X0362972Y0167886D02*
X0372028D01*
X0362972D02*
Y0182846D01*
X0372028D01*
X0338012Y0182870D02*
X0347067D01*
X0338012Y0167909D02*
Y0182870D01*
Y0167909D02*
X0347067D01*
Y0182870D01*
X0322028Y0167886D02*
Y0182846D01*
X0312972Y0167886D02*
X0322028D01*
X0312972D02*
Y0182846D01*
X0322028D01*
X0865223Y0068839D02*
Y0077894D01*
Y0068839D02*
X0880184D01*
Y0077894D01*
X0865223D02*
X0880184D01*
X0561109Y0077894D02*
X0576069D01*
Y0068839D02*
Y0077894D01*
X0561109Y0068839D02*
X0576069D01*
X0561109D02*
Y0077894D01*
X0324252Y0181996D02*
X0335748D01*
X0324252D02*
Y0189004D01*
X0335748D01*
Y0181996D02*
Y0189004D01*
X0360748Y0181996D02*
Y0189004D01*
X0349252D02*
X0360748D01*
X0349252Y0181996D02*
Y0189004D01*
Y0181996D02*
X0360748D01*
X0374252D02*
X0385748D01*
X0374252D02*
Y0189004D01*
X0385748D01*
Y0181996D02*
Y0189004D01*
X0410748Y0181996D02*
Y0189004D01*
X0399252D02*
X0410748D01*
X0399252Y0181996D02*
Y0189004D01*
Y0181996D02*
X0410748D01*
X0423752D02*
X0435248D01*
X0423752D02*
Y0189004D01*
X0435248D01*
Y0181996D02*
Y0189004D01*
X0461248Y0181996D02*
Y0189004D01*
X0449752D02*
X0461248D01*
X0449752Y0181996D02*
Y0189004D01*
Y0181996D02*
X0461248D01*
X0474252D02*
X0485748D01*
X0474252D02*
Y0189004D01*
X0485748D01*
Y0181996D02*
Y0189004D01*
X0510748Y0181996D02*
Y0189004D01*
X0499252D02*
X0510748D01*
X0499252Y0181996D02*
Y0189004D01*
Y0181996D02*
X0510748D01*
X0524252D02*
X0535748D01*
X0524252D02*
Y0189004D01*
X0535748D01*
Y0181996D02*
Y0189004D01*
X0560748Y0181996D02*
Y0189004D01*
X0549252D02*
X0560748D01*
X0549252Y0181996D02*
Y0189004D01*
Y0181996D02*
X0560748D01*
X0574252D02*
X0585748D01*
X0574252D02*
Y0189004D01*
X0585748D01*
Y0181996D02*
Y0189004D01*
X0610748Y0181996D02*
Y0189004D01*
X0599252D02*
X0610748D01*
X0599252Y0181996D02*
Y0189004D01*
Y0181996D02*
X0610748D01*
X0624252D02*
X0635748D01*
X0624252D02*
Y0189004D01*
X0635748D01*
Y0181996D02*
Y0189004D01*
X0660748Y0181996D02*
Y0189004D01*
X0649252D02*
X0660748D01*
X0649252Y0181996D02*
Y0189004D01*
Y0181996D02*
X0660748D01*
X0674252D02*
X0685748D01*
X0674252D02*
Y0189004D01*
X0685748D01*
Y0181996D02*
Y0189004D01*
X0710248Y0181996D02*
Y0189004D01*
X0698752D02*
X0710248D01*
X0698752Y0181996D02*
Y0189004D01*
Y0181996D02*
X0710248D01*
X0724252D02*
X0735748D01*
X0724252D02*
Y0189004D01*
X0735748D01*
Y0181996D02*
Y0189004D01*
X0760484Y0181996D02*
Y0189004D01*
X0748988D02*
X0760484D01*
X0748988Y0181996D02*
Y0189004D01*
Y0181996D02*
X0760484D01*
X0774252D02*
X0785748D01*
X0774252D02*
Y0189004D01*
X0785748D01*
Y0181996D02*
Y0189004D01*
X0810748Y0181996D02*
Y0189004D01*
X0799252D02*
X0810748D01*
X0799252Y0181996D02*
Y0189004D01*
Y0181996D02*
X0810748D01*
X0824252D02*
X0835748D01*
X0824252D02*
Y0189004D01*
X0835748D01*
Y0181996D02*
Y0189004D01*
X0860748Y0181996D02*
Y0189004D01*
X0849252D02*
X0860748D01*
X0849252Y0181996D02*
Y0189004D01*
Y0181996D02*
X0860748D01*
X0874252D02*
X0885748D01*
X0874252D02*
Y0189004D01*
X0885748D01*
Y0181996D02*
Y0189004D01*
X0910748Y0181996D02*
Y0189004D01*
X0899252D02*
X0910748D01*
X0899252Y0181996D02*
Y0189004D01*
Y0181996D02*
X0910748D01*
X0326496Y0116618D02*
Y0128114D01*
Y0116618D02*
X0333504D01*
Y0128114D01*
X0326496D02*
X0333504D01*
X0351496D02*
X0358504D01*
Y0116618D02*
Y0128114D01*
X0351496Y0116618D02*
X0358504D01*
X0351496D02*
Y0128114D01*
X0376496Y0116618D02*
Y0128114D01*
Y0116618D02*
X0383504D01*
Y0128114D01*
X0376496D02*
X0383504D01*
X0401496D02*
X0408504D01*
Y0116618D02*
Y0128114D01*
X0401496Y0116618D02*
X0408504D01*
X0401496D02*
Y0128114D01*
X0426496Y0116618D02*
Y0128114D01*
Y0116618D02*
X0433504D01*
Y0128114D01*
X0426496D02*
X0433504D01*
X0451496D02*
X0458504D01*
Y0116618D02*
Y0128114D01*
X0451496Y0116618D02*
X0458504D01*
X0451496D02*
Y0128114D01*
X0476496Y0116618D02*
Y0128114D01*
Y0116618D02*
X0483504D01*
Y0128114D01*
X0476496D02*
X0483504D01*
X0501496D02*
X0508504D01*
Y0116618D02*
Y0128114D01*
X0501496Y0116618D02*
X0508504D01*
X0501496D02*
Y0128114D01*
X0526496Y0116618D02*
Y0128114D01*
Y0116618D02*
X0533504D01*
Y0128114D01*
X0526496D02*
X0533504D01*
X0551496D02*
X0558504D01*
Y0116618D02*
Y0128114D01*
X0551496Y0116618D02*
X0558504D01*
X0551496D02*
Y0128114D01*
X0576496Y0116618D02*
Y0128114D01*
Y0116618D02*
X0583504D01*
Y0128114D01*
X0576496D02*
X0583504D01*
X0598996D02*
X0606004D01*
Y0116618D02*
Y0128114D01*
X0598996Y0116618D02*
X0606004D01*
X0598996D02*
Y0128114D01*
X0626496Y0116618D02*
Y0128114D01*
Y0116618D02*
X0633504D01*
Y0128114D01*
X0626496D02*
X0633504D01*
X0651496D02*
X0658504D01*
Y0116618D02*
Y0128114D01*
X0651496Y0116618D02*
X0658504D01*
X0651496D02*
Y0128114D01*
X0676496Y0116618D02*
Y0128114D01*
Y0116618D02*
X0683504D01*
Y0128114D01*
X0676496D02*
X0683504D01*
X0701496D02*
X0708504D01*
Y0116618D02*
Y0128114D01*
X0701496Y0116618D02*
X0708504D01*
X0701496D02*
Y0128114D01*
X0726496Y0116618D02*
Y0128114D01*
Y0116618D02*
X0733504D01*
Y0128114D01*
X0726496D02*
X0733504D01*
X0751496D02*
X0758504D01*
Y0116618D02*
Y0128114D01*
X0751496Y0116618D02*
X0758504D01*
X0751496D02*
Y0128114D01*
X0776496Y0116618D02*
Y0128114D01*
Y0116618D02*
X0783504D01*
Y0128114D01*
X0776496D02*
X0783504D01*
X0801496D02*
X0808504D01*
Y0116618D02*
Y0128114D01*
X0801496Y0116618D02*
X0808504D01*
X0801496D02*
Y0128114D01*
X0826496Y0116618D02*
Y0128114D01*
Y0116618D02*
X0833504D01*
Y0128114D01*
X0826496D02*
X0833504D01*
X0851496D02*
X0858504D01*
Y0116618D02*
Y0128114D01*
X0851496Y0116618D02*
X0858504D01*
X0851496D02*
Y0128114D01*
X0876496Y0116618D02*
Y0128114D01*
Y0116618D02*
X0883504D01*
Y0128114D01*
X0876496D02*
X0883504D01*
X0911996Y0122248D02*
X0919004D01*
Y0110752D02*
Y0122248D01*
X0911996Y0110752D02*
X0919004D01*
X0911996D02*
Y0122248D01*
X0794535Y0092118D02*
Y0103614D01*
X0787528Y0092118D02*
X0794535D01*
X0787528D02*
Y0103614D01*
X0794535D01*
X0483496Y0103614D02*
X0490504D01*
X0483496Y0092118D02*
Y0103614D01*
Y0092118D02*
X0490504D01*
Y0103614D01*
X0583452Y0032096D02*
X0594948D01*
X0583452D02*
Y0039104D01*
X0594948D01*
Y0032096D02*
Y0039104D01*
X0865262Y0078618D02*
X0872270D01*
Y0090114D01*
X0865262D02*
X0872270D01*
X0865262Y0078618D02*
Y0090114D01*
X0561148Y0078618D02*
Y0090114D01*
X0568156D01*
Y0078618D02*
Y0090114D01*
X0561148Y0078618D02*
X0568156D01*
X0657285Y0031996D02*
Y0039004D01*
Y0031996D02*
X0668781D01*
Y0039004D01*
X0657285D02*
X0668781D01*
X0635352Y0028075D02*
X0646848D01*
X0635352D02*
Y0035083D01*
X0646848D01*
Y0028075D02*
Y0035083D01*
Y0035917D02*
Y0042925D01*
X0635352D02*
X0646848D01*
X0635352Y0035917D02*
Y0042925D01*
Y0035917D02*
X0646848D01*
X0212159Y0133870D02*
X0223656D01*
Y0126862D02*
Y0133870D01*
X0212159Y0126862D02*
X0223656D01*
X0212159D02*
Y0133870D01*
X0306815Y0128598D02*
Y0140134D01*
X0301185Y0128598D02*
Y0140134D01*
Y0128598D02*
X0306815D01*
X0301185Y0140134D02*
X0306815D01*
X0310945D02*
X0316575D01*
X0310945Y0128598D02*
X0316575D01*
X0310945D02*
Y0140134D01*
X0316575Y0128598D02*
Y0140134D01*
X0324055Y0128598D02*
Y0140134D01*
X0318425Y0128598D02*
Y0140134D01*
Y0128598D02*
X0324055D01*
X0318425Y0140134D02*
X0324055D01*
X0335968Y0140157D02*
X0341598D01*
X0335968Y0128622D02*
X0341598D01*
X0335968D02*
Y0140157D01*
X0341598Y0128622D02*
Y0140157D01*
X0349079Y0128622D02*
Y0140157D01*
X0343449Y0128622D02*
Y0140157D01*
Y0128622D02*
X0349079D01*
X0343449Y0140157D02*
X0349079D01*
X0360945Y0140134D02*
X0366575D01*
X0360945Y0128598D02*
X0366575D01*
X0360945D02*
Y0140134D01*
X0366575Y0128598D02*
Y0140134D01*
X0374055Y0128598D02*
Y0140134D01*
X0368425Y0128598D02*
Y0140134D01*
Y0128598D02*
X0374055D01*
X0368425Y0140134D02*
X0374055D01*
X0385945D02*
X0391575D01*
X0385945Y0128598D02*
X0391575D01*
X0385945D02*
Y0140134D01*
X0391575Y0128598D02*
Y0140134D01*
X0399055Y0128598D02*
Y0140134D01*
X0393425Y0128598D02*
Y0140134D01*
Y0128598D02*
X0399055D01*
X0393425Y0140134D02*
X0399055D01*
X0410945D02*
X0416575D01*
X0410945Y0128598D02*
X0416575D01*
X0410945D02*
Y0140134D01*
X0416575Y0128598D02*
Y0140134D01*
X0424055Y0128598D02*
Y0140134D01*
X0418425Y0128598D02*
Y0140134D01*
Y0128598D02*
X0424055D01*
X0418425Y0140134D02*
X0424055D01*
X0435945D02*
X0441575D01*
X0435945Y0128598D02*
X0441575D01*
X0435945D02*
Y0140134D01*
X0441575Y0128598D02*
Y0140134D01*
X0449055Y0128598D02*
Y0140134D01*
X0443425Y0128598D02*
Y0140134D01*
Y0128598D02*
X0449055D01*
X0443425Y0140134D02*
X0449055D01*
X0460945Y0139634D02*
X0466575D01*
X0460945Y0128098D02*
X0466575D01*
X0460945D02*
Y0139634D01*
X0466575Y0128098D02*
Y0139634D01*
X0474055Y0128098D02*
Y0139634D01*
X0468425Y0128098D02*
Y0139634D01*
Y0128098D02*
X0474055D01*
X0468425Y0139634D02*
X0474055D01*
X0485945D02*
X0491575D01*
X0485945Y0128098D02*
X0491575D01*
X0485945D02*
Y0139634D01*
X0491575Y0128098D02*
Y0139634D01*
X0889685Y0157598D02*
Y0169134D01*
X0895315Y0157598D02*
Y0169134D01*
X0889685D02*
X0895315D01*
X0889685Y0157598D02*
X0895315D01*
X0864685D02*
X0870315D01*
X0864685Y0169134D02*
X0870315D01*
Y0157598D02*
Y0169134D01*
X0864685Y0157598D02*
Y0169134D01*
X0839685Y0157598D02*
Y0169134D01*
X0845315Y0157598D02*
Y0169134D01*
X0839685D02*
X0845315D01*
X0839685Y0157598D02*
X0845315D01*
X0814685D02*
X0820315D01*
X0814685Y0169134D02*
X0820315D01*
Y0157598D02*
Y0169134D01*
X0814685Y0157598D02*
Y0169134D01*
X0789685Y0157598D02*
Y0169134D01*
X0795315Y0157598D02*
Y0169134D01*
X0789685D02*
X0795315D01*
X0789685Y0157598D02*
X0795315D01*
X0764685D02*
X0770315D01*
X0764685Y0169134D02*
X0770315D01*
Y0157598D02*
Y0169134D01*
X0764685Y0157598D02*
Y0169134D01*
X0739685Y0157598D02*
Y0169134D01*
X0745315Y0157598D02*
Y0169134D01*
X0739685D02*
X0745315D01*
X0739685Y0157598D02*
X0745315D01*
X0714685D02*
X0720315D01*
X0714685Y0169134D02*
X0720315D01*
Y0157598D02*
Y0169134D01*
X0714685Y0157598D02*
Y0169134D01*
X0689685Y0157598D02*
Y0169134D01*
X0695315Y0157598D02*
Y0169134D01*
X0689685D02*
X0695315D01*
X0689685Y0157598D02*
X0695315D01*
X0664685D02*
X0670315D01*
X0664685Y0169134D02*
X0670315D01*
Y0157598D02*
Y0169134D01*
X0664685Y0157598D02*
Y0169134D01*
X0639685Y0157598D02*
Y0169134D01*
X0645315Y0157598D02*
Y0169134D01*
X0639685D02*
X0645315D01*
X0639685Y0157598D02*
X0645315D01*
X0614685D02*
X0620315D01*
X0614685Y0169134D02*
X0620315D01*
Y0157598D02*
Y0169134D01*
X0614685Y0157598D02*
Y0169134D01*
X0607815Y0136098D02*
Y0147634D01*
X0602185Y0136098D02*
Y0147634D01*
Y0136098D02*
X0607815D01*
X0602185Y0147634D02*
X0607815D01*
X0893425Y0139634D02*
X0899055D01*
X0893425Y0128098D02*
X0899055D01*
X0893425D02*
Y0139634D01*
X0899055Y0128098D02*
Y0139634D01*
X0891575Y0128098D02*
Y0139634D01*
X0885945Y0128098D02*
Y0139634D01*
Y0128098D02*
X0891575D01*
X0885945Y0139634D02*
X0891575D01*
X0868425D02*
X0874055D01*
X0868425Y0128098D02*
X0874055D01*
X0868425D02*
Y0139634D01*
X0874055Y0128098D02*
Y0139634D01*
X0866575Y0128098D02*
Y0139634D01*
X0860945Y0128098D02*
Y0139634D01*
Y0128098D02*
X0866575D01*
X0860945Y0139634D02*
X0866575D01*
X0843425D02*
X0849055D01*
X0843425Y0128098D02*
X0849055D01*
X0843425D02*
Y0139634D01*
X0849055Y0128098D02*
Y0139634D01*
X0841575Y0128098D02*
Y0139634D01*
X0835945Y0128098D02*
Y0139634D01*
Y0128098D02*
X0841575D01*
X0835945Y0139634D02*
X0841575D01*
X0818425D02*
X0824055D01*
X0818425Y0128098D02*
X0824055D01*
X0818425D02*
Y0139634D01*
X0824055Y0128098D02*
Y0139634D01*
X0816575Y0128098D02*
Y0139634D01*
X0810945Y0128098D02*
Y0139634D01*
Y0128098D02*
X0816575D01*
X0810945Y0139634D02*
X0816575D01*
X0793425D02*
X0799055D01*
X0793425Y0128098D02*
X0799055D01*
X0793425D02*
Y0139634D01*
X0799055Y0128098D02*
Y0139634D01*
X0791575Y0128098D02*
Y0139634D01*
X0785945Y0128098D02*
Y0139634D01*
Y0128098D02*
X0791575D01*
X0785945Y0139634D02*
X0791575D01*
X0768425D02*
X0774055D01*
X0768425Y0128098D02*
X0774055D01*
X0768425D02*
Y0139634D01*
X0774055Y0128098D02*
Y0139634D01*
X0766575Y0128098D02*
Y0139634D01*
X0760945Y0128098D02*
Y0139634D01*
Y0128098D02*
X0766575D01*
X0760945Y0139634D02*
X0766575D01*
X0743425D02*
X0749055D01*
X0743425Y0128098D02*
X0749055D01*
X0743425D02*
Y0139634D01*
X0749055Y0128098D02*
Y0139634D01*
X0741575Y0128098D02*
Y0139634D01*
X0735945Y0128098D02*
Y0139634D01*
Y0128098D02*
X0741575D01*
X0735945Y0139634D02*
X0741575D01*
X0717425D02*
X0723055D01*
X0717425Y0128098D02*
X0723055D01*
X0717425D02*
Y0139634D01*
X0723055Y0128098D02*
Y0139634D01*
X0715575Y0128098D02*
Y0139634D01*
X0709945Y0128098D02*
Y0139634D01*
Y0128098D02*
X0715575D01*
X0709945Y0139634D02*
X0715575D01*
X0693425D02*
X0699055D01*
X0693425Y0128098D02*
X0699055D01*
X0693425D02*
Y0139634D01*
X0699055Y0128098D02*
Y0139634D01*
X0691575Y0128098D02*
Y0139634D01*
X0685945Y0128098D02*
Y0139634D01*
Y0128098D02*
X0691575D01*
X0685945Y0139634D02*
X0691575D01*
X0668425D02*
X0674055D01*
X0668425Y0128098D02*
X0674055D01*
X0668425D02*
Y0139634D01*
X0674055Y0128098D02*
Y0139634D01*
X0666575Y0128098D02*
Y0139634D01*
X0660945Y0128098D02*
Y0139634D01*
Y0128098D02*
X0666575D01*
X0660945Y0139634D02*
X0666575D01*
X0643425D02*
X0649055D01*
X0643425Y0128098D02*
X0649055D01*
X0643425D02*
Y0139634D01*
X0649055Y0128098D02*
Y0139634D01*
X0641575Y0128098D02*
Y0139634D01*
X0635945Y0128098D02*
Y0139634D01*
Y0128098D02*
X0641575D01*
X0635945Y0139634D02*
X0641575D01*
X0618425D02*
X0624055D01*
X0618425Y0128098D02*
X0624055D01*
X0618425D02*
Y0139634D01*
X0624055Y0128098D02*
Y0139634D01*
X0616575Y0128098D02*
Y0139634D01*
X0610945Y0128098D02*
Y0139634D01*
Y0128098D02*
X0616575D01*
X0610945Y0139634D02*
X0616575D01*
X0589685Y0157598D02*
X0595315D01*
X0589685Y0169134D02*
X0595315D01*
Y0157598D02*
Y0169134D01*
X0589685Y0157598D02*
Y0169134D01*
X0564685Y0157598D02*
Y0169134D01*
X0570315Y0157598D02*
Y0169134D01*
X0564685D02*
X0570315D01*
X0564685Y0157598D02*
X0570315D01*
X0539685D02*
X0545315D01*
X0539685Y0169134D02*
X0545315D01*
Y0157598D02*
Y0169134D01*
X0539685Y0157598D02*
Y0169134D01*
X0514685Y0157598D02*
Y0169134D01*
X0520315Y0157598D02*
Y0169134D01*
X0514685D02*
X0520315D01*
X0514685Y0157598D02*
X0520315D01*
X0489685D02*
X0495315D01*
X0489685Y0169134D02*
X0495315D01*
Y0157598D02*
Y0169134D01*
X0489685Y0157598D02*
Y0169134D01*
X0464685Y0157598D02*
Y0169134D01*
X0470315Y0157598D02*
Y0169134D01*
X0464685D02*
X0470315D01*
X0464685Y0157598D02*
X0470315D01*
X0439685D02*
X0445315D01*
X0439685Y0169134D02*
X0445315D01*
Y0157598D02*
Y0169134D01*
X0439685Y0157598D02*
Y0169134D01*
X0414685Y0157598D02*
Y0169134D01*
X0420315Y0157598D02*
Y0169134D01*
X0414685D02*
X0420315D01*
X0414685Y0157598D02*
X0420315D01*
X0389685D02*
X0395315D01*
X0389685Y0169134D02*
X0395315D01*
Y0157598D02*
Y0169134D01*
X0389685Y0157598D02*
Y0169134D01*
X0364685Y0157598D02*
Y0169134D01*
X0370315Y0157598D02*
Y0169134D01*
X0364685D02*
X0370315D01*
X0364685Y0157598D02*
X0370315D01*
X0339709Y0157622D02*
X0345339D01*
X0339709Y0169158D02*
X0345339D01*
Y0157622D02*
Y0169158D01*
X0339709Y0157622D02*
Y0169158D01*
X0314685Y0157598D02*
Y0169134D01*
X0320315Y0157598D02*
Y0169134D01*
X0314685D02*
X0320315D01*
X0314685Y0157598D02*
X0320315D01*
X0293185Y0140098D02*
X0298815D01*
X0293185Y0128563D02*
X0298815D01*
X0293185D02*
Y0140098D01*
X0298815Y0128563D02*
Y0140098D01*
X0599055Y0128098D02*
Y0139634D01*
X0593425Y0128098D02*
Y0139634D01*
Y0128098D02*
X0599055D01*
X0593425Y0139634D02*
X0599055D01*
X0585945D02*
X0591575D01*
X0585945Y0128098D02*
X0591575D01*
X0585945D02*
Y0139634D01*
X0591575Y0128098D02*
Y0139634D01*
X0574055Y0128098D02*
Y0139634D01*
X0568425Y0128098D02*
Y0139634D01*
Y0128098D02*
X0574055D01*
X0568425Y0139634D02*
X0574055D01*
X0560945D02*
X0566575D01*
X0560945Y0128098D02*
X0566575D01*
X0560945D02*
Y0139634D01*
X0566575Y0128098D02*
Y0139634D01*
X0549055Y0128098D02*
Y0139634D01*
X0543425Y0128098D02*
Y0139634D01*
Y0128098D02*
X0549055D01*
X0543425Y0139634D02*
X0549055D01*
X0535945D02*
X0541575D01*
X0535945Y0128098D02*
X0541575D01*
X0535945D02*
Y0139634D01*
X0541575Y0128098D02*
Y0139634D01*
X0524055Y0128098D02*
Y0139634D01*
X0518425Y0128098D02*
Y0139634D01*
Y0128098D02*
X0524055D01*
X0518425Y0139634D02*
X0524055D01*
X0510945D02*
X0516575D01*
X0510945Y0128098D02*
X0516575D01*
X0510945D02*
Y0139634D01*
X0516575Y0128098D02*
Y0139634D01*
X0499055Y0128098D02*
Y0139634D01*
X0493425Y0128098D02*
Y0139634D01*
Y0128098D02*
X0499055D01*
X0493425Y0139634D02*
X0499055D01*
X0807776Y0098152D02*
Y0103782D01*
X0796240Y0098152D02*
Y0103782D01*
X0807776D01*
X0796240Y0098152D02*
X0807776D01*
X0492209Y0098152D02*
X0503744D01*
X0492209Y0103782D02*
X0503744D01*
X0492209Y0098152D02*
Y0103782D01*
X0503744Y0098152D02*
Y0103782D01*
X0716685Y0092768D02*
X0722315D01*
X0716685Y0081232D02*
X0722315D01*
Y0092768D01*
X0716685Y0081232D02*
Y0092768D01*
X0705185Y0081282D02*
Y0092818D01*
X0710815Y0081282D02*
Y0092818D01*
X0705185Y0081282D02*
X0710815D01*
X0705185Y0092818D02*
X0710815D01*
X0401185Y0092768D02*
X0406815D01*
X0401185Y0081232D02*
X0406815D01*
Y0092768D01*
X0401185Y0081232D02*
Y0092768D01*
X0744332Y0048185D02*
X0755868D01*
X0744332Y0053815D02*
X0755868D01*
X0744332Y0048185D02*
Y0053815D01*
X0755868Y0048185D02*
Y0053815D01*
X0450168Y0048185D02*
Y0053815D01*
X0438632Y0048185D02*
Y0053815D01*
X0450168D01*
X0438632Y0048185D02*
X0450168D01*
X0739232Y0047326D02*
X0750768D01*
X0739232Y0041696D02*
X0750768D01*
X0739232D02*
Y0047326D01*
X0750768Y0041696D02*
Y0047326D01*
X0446768Y0040685D02*
Y0046315D01*
X0435232Y0040685D02*
Y0046315D01*
Y0040685D02*
X0446768D01*
X0435232Y0046315D02*
X0446768D01*
X0736832Y0055315D02*
X0748368D01*
X0736832Y0049685D02*
X0748368D01*
X0736832D02*
Y0055315D01*
X0748368Y0049685D02*
Y0055315D01*
X0444368Y0049685D02*
Y0055315D01*
X0432832Y0049685D02*
Y0055315D01*
Y0049685D02*
X0444368D01*
X0432832Y0055315D02*
X0444368D01*
X0792815Y0067572D02*
Y0079107D01*
X0787185Y0067572D02*
Y0079107D01*
Y0067572D02*
X0792815D01*
X0787185Y0079107D02*
X0792815D01*
X0782968Y0057685D02*
Y0063315D01*
X0771432Y0057685D02*
Y0063315D01*
X0782968D01*
X0771432Y0057685D02*
X0782968D01*
X0470732Y0054185D02*
X0482268D01*
X0470732Y0059815D02*
X0482268D01*
X0470732Y0054185D02*
Y0059815D01*
X0482268Y0054185D02*
Y0059815D01*
X0795268Y0057685D02*
Y0063315D01*
X0783732Y0057685D02*
Y0063315D01*
X0795268D01*
X0783732Y0057685D02*
X0795268D01*
X0481732Y0054185D02*
X0493268D01*
X0481732Y0059815D02*
X0493268D01*
X0481732Y0054185D02*
Y0059815D01*
X0493268Y0054185D02*
Y0059815D01*
X0596133Y0035768D02*
X0601763D01*
X0596133Y0024232D02*
X0601763D01*
X0596133D02*
Y0035768D01*
X0601763Y0024232D02*
Y0035768D01*
X0596133Y0035232D02*
Y0046768D01*
X0601763Y0035232D02*
Y0046768D01*
X0596133D02*
X0601763D01*
X0596133Y0035232D02*
X0601763D01*
X0880299Y0083634D02*
X0885929D01*
X0880299Y0072098D02*
X0885929D01*
X0880299D02*
Y0083634D01*
X0885929Y0072098D02*
Y0083634D01*
X0581815Y0072098D02*
Y0083634D01*
X0576185Y0072098D02*
Y0083634D01*
Y0072098D02*
X0581815D01*
X0576185Y0083634D02*
X0581815D01*
X0650785Y0024232D02*
X0656415D01*
X0650785Y0035768D02*
X0656415D01*
Y0024232D02*
Y0035768D01*
X0650785Y0024232D02*
Y0035768D01*
Y0035232D02*
Y0046768D01*
X0656415Y0035232D02*
Y0046768D01*
X0650785D02*
X0656415D01*
X0650785Y0035232D02*
X0656415D01*
X0120732Y0121823D02*
Y0127453D01*
X0132268Y0121823D02*
Y0127453D01*
X0120732D02*
X0132268D01*
X0120732Y0121823D02*
X0132268D01*
X0057232Y0129697D02*
X0068768D01*
X0057232Y0135327D02*
X0068768D01*
Y0129697D02*
Y0135327D01*
X0057232Y0129697D02*
Y0135327D01*
X0261793Y0105970D02*
X0267423D01*
X0261793Y0094434D02*
X0267423D01*
X0261793D02*
Y0105970D01*
X0267423Y0094434D02*
Y0105970D01*
X0257793Y0146342D02*
Y0157878D01*
X0263423Y0146342D02*
Y0157878D01*
X0257793D02*
X0263423D01*
X0257793Y0146342D02*
X0263423D01*
X0217289Y0137937D02*
Y0143567D01*
X0205754Y0137937D02*
Y0143567D01*
X0217289D01*
X0205754Y0137937D02*
X0217289D01*
X0205754Y0153394D02*
X0217289D01*
X0205754Y0159024D02*
X0217289D01*
X0205754Y0153394D02*
Y0159024D01*
X0217289Y0153394D02*
Y0159024D01*
X0251026Y0146342D02*
X0256656D01*
X0251026Y0157878D02*
X0256656D01*
Y0146342D02*
Y0157878D01*
X0251026Y0146342D02*
Y0157878D01*
X0205754Y0143157D02*
X0217289D01*
X0205754Y0148787D02*
X0217289D01*
X0205754Y0143157D02*
Y0148787D01*
X0217289Y0143157D02*
Y0148787D01*
X0131485Y0231332D02*
X0137115D01*
X0131485Y0242868D02*
X0137115D01*
X0131485Y0231332D02*
Y0242868D01*
X0137115Y0231332D02*
Y0242868D01*
X0120732Y0225878D02*
X0132268D01*
X0120732Y0220248D02*
X0132268D01*
X0120732D02*
Y0225878D01*
X0132268Y0220248D02*
Y0225878D01*
Y0192752D02*
Y0198382D01*
X0120732Y0192752D02*
Y0198382D01*
Y0192752D02*
X0132268D01*
X0120732Y0198382D02*
X0132268D01*
X0411685Y0081200D02*
Y0092735D01*
X0417315Y0081200D02*
Y0092735D01*
X0411685Y0081200D02*
X0417315D01*
X0411685Y0092735D02*
X0417315D01*
X0172001Y0106951D02*
Y0112581D01*
X0160466Y0106951D02*
Y0112581D01*
Y0106951D02*
X0172001D01*
X0160466Y0112581D02*
X0172001D01*
X0223965Y0159103D02*
Y0170638D01*
X0218335Y0159103D02*
Y0170638D01*
Y0159103D02*
X0223965D01*
X0218335Y0170638D02*
X0223965D01*
X0224185Y0159103D02*
X0229815D01*
X0224185Y0170638D02*
X0229815D01*
Y0159103D02*
Y0170638D01*
X0224185Y0159103D02*
Y0170638D01*
X0190182Y0015915D02*
X0201718D01*
X0190182Y0010285D02*
X0201718D01*
X0190182D02*
Y0015915D01*
X0201718Y0010285D02*
Y0015915D01*
X0120732Y0169067D02*
Y0174697D01*
X0132268Y0169067D02*
Y0174697D01*
X0120732D02*
X0132268D01*
X0120732Y0169067D02*
X0132268D01*
X0330063Y0186630D02*
Y0190370D01*
X0322937Y0186630D02*
X0330063D01*
X0322937D02*
Y0190370D01*
X0330063D01*
X0348437D02*
X0355563D01*
X0348437Y0186630D02*
Y0190370D01*
Y0186630D02*
X0355563D01*
Y0190370D01*
X0381063Y0186630D02*
Y0190370D01*
X0373937Y0186630D02*
X0381063D01*
X0373937D02*
Y0190370D01*
X0381063D01*
X0399437D02*
X0406563D01*
X0399437Y0186630D02*
Y0190370D01*
Y0186630D02*
X0406563D01*
Y0190370D01*
X0432563Y0186630D02*
Y0190370D01*
X0425437Y0186630D02*
X0432563D01*
X0425437D02*
Y0190370D01*
X0432563D01*
X0450437D02*
X0457563D01*
X0450437Y0186630D02*
Y0190370D01*
Y0186630D02*
X0457563D01*
Y0190370D01*
X0483063Y0186630D02*
Y0190370D01*
X0475937Y0186630D02*
X0483063D01*
X0475937D02*
Y0190370D01*
X0483063D01*
X0501437D02*
X0508563D01*
X0501437Y0186630D02*
Y0190370D01*
Y0186630D02*
X0508563D01*
Y0190370D01*
X0533563Y0186630D02*
Y0190370D01*
X0526437Y0186630D02*
X0533563D01*
X0526437D02*
Y0190370D01*
X0533563D01*
X0551437D02*
X0558563D01*
X0551437Y0186630D02*
Y0190370D01*
Y0186630D02*
X0558563D01*
Y0190370D01*
X0583563Y0186630D02*
Y0190370D01*
X0576437Y0186630D02*
X0583563D01*
X0576437D02*
Y0190370D01*
X0583563D01*
X0601437D02*
X0608563D01*
X0601437Y0186630D02*
Y0190370D01*
Y0186630D02*
X0608563D01*
Y0190370D01*
X0633563Y0186630D02*
Y0190370D01*
X0626437Y0186630D02*
X0633563D01*
X0626437D02*
Y0190370D01*
X0633563D01*
X0651437D02*
X0658563D01*
X0651437Y0186630D02*
Y0190370D01*
Y0186630D02*
X0658563D01*
Y0190370D01*
X0683563Y0186630D02*
Y0190370D01*
X0676437Y0186630D02*
X0683563D01*
X0676437D02*
Y0190370D01*
X0683563D01*
X0701437D02*
X0708563D01*
X0701437Y0186630D02*
Y0190370D01*
Y0186630D02*
X0708563D01*
Y0190370D01*
X0733563Y0186630D02*
Y0190370D01*
X0726437Y0186630D02*
X0733563D01*
X0726437D02*
Y0190370D01*
X0733563D01*
X0751437D02*
X0758563D01*
X0751437Y0186630D02*
Y0190370D01*
Y0186630D02*
X0758563D01*
Y0190370D01*
X0783563Y0186630D02*
Y0190370D01*
X0776437Y0186630D02*
X0783563D01*
X0776437D02*
Y0190370D01*
X0783563D01*
X0801437D02*
X0808563D01*
X0801437Y0186630D02*
Y0190370D01*
Y0186630D02*
X0808563D01*
Y0190370D01*
X0833563Y0186630D02*
Y0190370D01*
X0826437Y0186630D02*
X0833563D01*
X0826437D02*
Y0190370D01*
X0833563D01*
X0851437D02*
X0858563D01*
X0851437Y0186630D02*
Y0190370D01*
Y0186630D02*
X0858563D01*
Y0190370D01*
X0883563Y0186630D02*
Y0190370D01*
X0876437Y0186630D02*
X0883563D01*
X0876437D02*
Y0190370D01*
X0883563D01*
X0901437D02*
X0908563D01*
X0901437Y0186630D02*
Y0190370D01*
Y0186630D02*
X0908563D01*
Y0190370D01*
X0301850Y0208287D02*
Y0256713D01*
Y0208287D02*
X0323150D01*
Y0256713D01*
X0301850D02*
X0323150D01*
X0327305D02*
X0348604D01*
Y0208287D02*
Y0256713D01*
X0327305Y0208287D02*
X0348604D01*
X0327305D02*
Y0256713D01*
X0352760Y0208287D02*
Y0256713D01*
Y0208287D02*
X0374059D01*
Y0256713D01*
X0352760D02*
X0374059D01*
X0378214D02*
X0399513D01*
Y0208287D02*
Y0256713D01*
X0378214Y0208287D02*
X0399513D01*
X0378214D02*
Y0256713D01*
X0403668Y0208287D02*
Y0256713D01*
Y0208287D02*
X0424968D01*
Y0256713D01*
X0403668D02*
X0424968D01*
X0429123D02*
X0450422D01*
Y0208287D02*
Y0256713D01*
X0429123Y0208287D02*
X0450422D01*
X0429123D02*
Y0256713D01*
X0454578Y0208287D02*
Y0256713D01*
Y0208287D02*
X0475877D01*
Y0256713D01*
X0454578D02*
X0475877D01*
X0480032D02*
X0501331D01*
Y0208287D02*
Y0256713D01*
X0480032Y0208287D02*
X0501331D01*
X0480032D02*
Y0256713D01*
X0505487Y0208287D02*
Y0256713D01*
Y0208287D02*
X0526786D01*
Y0256713D01*
X0505487D02*
X0526786D01*
X0530941D02*
X0552240D01*
Y0208287D02*
Y0256713D01*
X0530941Y0208287D02*
X0552240D01*
X0530941D02*
Y0256713D01*
X0556396Y0208287D02*
Y0256713D01*
Y0208287D02*
X0577695D01*
Y0256713D01*
X0556396D02*
X0577695D01*
X0581850D02*
X0603149D01*
Y0208287D02*
Y0256713D01*
X0581850Y0208287D02*
X0603149D01*
X0581850D02*
Y0256713D01*
X0606850Y0208287D02*
Y0256713D01*
Y0208287D02*
X0628150D01*
Y0256713D01*
X0606850D02*
X0628150D01*
X0631850D02*
X0653150D01*
Y0208287D02*
Y0256713D01*
X0631850Y0208287D02*
X0653150D01*
X0631850D02*
Y0256713D01*
X0656850Y0208287D02*
Y0256713D01*
Y0208287D02*
X0678150D01*
Y0256713D01*
X0656850D02*
X0678150D01*
X0681850D02*
X0703150D01*
Y0208287D02*
Y0256713D01*
X0681850Y0208287D02*
X0703150D01*
X0681850D02*
Y0256713D01*
X0706850Y0208287D02*
Y0256713D01*
Y0208287D02*
X0728150D01*
Y0256713D01*
X0706850D02*
X0728150D01*
X0731850D02*
X0753150D01*
Y0208287D02*
Y0256713D01*
X0731850Y0208287D02*
X0753150D01*
X0731850D02*
Y0256713D01*
X0756850Y0208287D02*
Y0256713D01*
Y0208287D02*
X0778150D01*
Y0256713D01*
X0756850D02*
X0778150D01*
X0781850D02*
X0803150D01*
Y0208287D02*
Y0256713D01*
X0781850Y0208287D02*
X0803150D01*
X0781850D02*
Y0256713D01*
X0806850Y0208287D02*
Y0256713D01*
Y0208287D02*
X0828150D01*
Y0256713D01*
X0806850D02*
X0828150D01*
X0831850D02*
X0853150D01*
Y0208287D02*
Y0256713D01*
X0831850Y0208287D02*
X0853150D01*
X0831850D02*
Y0256713D01*
X0856850Y0208287D02*
Y0256713D01*
Y0208287D02*
X0878150D01*
Y0256713D01*
X0856850D02*
X0878150D01*
X0881850D02*
X0903150D01*
Y0208287D02*
Y0256713D01*
X0881850Y0208287D02*
X0903150D01*
X0881850D02*
Y0256713D01*
X0906850Y0208287D02*
Y0256713D01*
Y0208287D02*
X0928150D01*
Y0256713D01*
X0906850D02*
X0928150D01*
X0420859Y0085113D02*
Y0094719D01*
X0425741D01*
Y0085113D02*
Y0094719D01*
X0420859Y0085113D02*
X0425741D01*
X0723925Y0082577D02*
X0728807D01*
X0723925Y0072970D02*
Y0082577D01*
Y0072970D02*
X0728807D01*
Y0082577D01*
X0425741Y0072697D02*
Y0082303D01*
X0420859Y0072697D02*
X0425741D01*
X0420859D02*
Y0082303D01*
X0425741D01*
X0743497Y0054259D02*
Y0059141D01*
Y0054259D02*
X0753103D01*
Y0059141D01*
X0743497D02*
X0753103D01*
X0439287Y0058817D02*
X0448894D01*
Y0053935D02*
Y0058817D01*
X0439287Y0053935D02*
X0448894D01*
X0439287D02*
Y0058817D01*
X0743520Y0048559D02*
Y0053441D01*
X0733914D02*
X0743520D01*
X0733914Y0048559D02*
Y0053441D01*
Y0048559D02*
X0743520D01*
X0428914D02*
X0438520D01*
X0428914D02*
Y0053441D01*
X0438520D01*
Y0048559D02*
Y0053441D01*
X0741303Y0057059D02*
Y0061941D01*
X0731697D02*
X0741303D01*
X0731697Y0057059D02*
Y0061941D01*
Y0057059D02*
X0741303D01*
X0426697D02*
X0436303D01*
X0426697D02*
Y0061941D01*
X0436303D01*
Y0057059D02*
Y0061941D01*
X0755567Y0060125D02*
Y0065007D01*
X0745961D02*
X0755567D01*
X0745961Y0060125D02*
Y0065007D01*
Y0060125D02*
X0755567D01*
X0441847Y0060125D02*
X0451453D01*
X0441847D02*
Y0065007D01*
X0451453D01*
Y0060125D02*
Y0065007D01*
X0756159Y0064103D02*
X0761041D01*
X0756159Y0054497D02*
Y0064103D01*
Y0054497D02*
X0761041D01*
Y0064103D01*
X0457241Y0055297D02*
Y0064903D01*
X0452359Y0055297D02*
X0457241D01*
X0452359D02*
Y0064903D01*
X0457241D01*
X0762059Y0064203D02*
X0766941D01*
X0762059Y0054597D02*
Y0064203D01*
Y0054597D02*
X0766941D01*
Y0064203D01*
X0462874Y0055697D02*
Y0065303D01*
X0457992Y0055697D02*
X0462874D01*
X0457992D02*
Y0065303D01*
X0462874D01*
X0310610Y0140091D02*
Y0155642D01*
X0324390D01*
Y0140091D02*
Y0155642D01*
X0310610Y0140091D02*
X0324390D01*
X0335634Y0140114D02*
X0349413D01*
Y0155665D01*
X0335634D02*
X0349413D01*
X0335634Y0140114D02*
Y0155665D01*
X0360610Y0140091D02*
Y0155642D01*
X0374390D01*
Y0140091D02*
Y0155642D01*
X0360610Y0140091D02*
X0374390D01*
X0885610D02*
X0899390D01*
Y0155642D01*
X0885610D02*
X0899390D01*
X0885610Y0140091D02*
Y0155642D01*
X0860610Y0140091D02*
Y0155642D01*
X0874390D01*
Y0140091D02*
Y0155642D01*
X0860610Y0140091D02*
X0874390D01*
X0835610D02*
X0849390D01*
Y0155642D01*
X0835610D02*
X0849390D01*
X0835610Y0140091D02*
Y0155642D01*
X0810610Y0140091D02*
Y0155642D01*
X0824390D01*
Y0140091D02*
Y0155642D01*
X0810610Y0140091D02*
X0824390D01*
X0785610D02*
X0799390D01*
Y0155642D01*
X0785610D02*
X0799390D01*
X0785610Y0140091D02*
Y0155642D01*
X0760610Y0140091D02*
Y0155642D01*
X0774390D01*
Y0140091D02*
Y0155642D01*
X0760610Y0140091D02*
X0774390D01*
X0735610D02*
X0749390D01*
Y0155642D01*
X0735610D02*
X0749390D01*
X0735610Y0140091D02*
Y0155642D01*
X0709610Y0140091D02*
Y0155642D01*
X0723390D01*
Y0140091D02*
Y0155642D01*
X0709610Y0140091D02*
X0723390D01*
X0685610D02*
X0699390D01*
Y0155642D01*
X0685610D02*
X0699390D01*
X0685610Y0140091D02*
Y0155642D01*
X0660610Y0140091D02*
Y0155642D01*
X0674390D01*
Y0140091D02*
Y0155642D01*
X0660610Y0140091D02*
X0674390D01*
X0635610D02*
X0649390D01*
Y0155642D01*
X0635610D02*
X0649390D01*
X0635610Y0140091D02*
Y0155642D01*
X0610610Y0140091D02*
Y0155642D01*
X0624390D01*
Y0140091D02*
Y0155642D01*
X0610610Y0140091D02*
X0624390D01*
X0585610D02*
X0599390D01*
Y0155642D01*
X0585610D02*
X0599390D01*
X0585610Y0140091D02*
Y0155642D01*
X0560610Y0140091D02*
Y0155642D01*
X0574390D01*
Y0140091D02*
Y0155642D01*
X0560610Y0140091D02*
X0574390D01*
X0535610D02*
X0549390D01*
Y0155642D01*
X0535610D02*
X0549390D01*
X0535610Y0140091D02*
Y0155642D01*
X0510610Y0140091D02*
Y0155642D01*
X0524390D01*
Y0140091D02*
Y0155642D01*
X0510610Y0140091D02*
X0524390D01*
X0485610D02*
X0499390D01*
Y0155642D01*
X0485610D02*
X0499390D01*
X0485610Y0140091D02*
Y0155642D01*
X0460610Y0140091D02*
Y0155642D01*
X0474390D01*
Y0140091D02*
Y0155642D01*
X0460610Y0140091D02*
X0474390D01*
X0435610D02*
X0449390D01*
Y0155642D01*
X0435610D02*
X0449390D01*
X0435610Y0140091D02*
Y0155642D01*
X0410610Y0140091D02*
Y0155642D01*
X0424390D01*
Y0140091D02*
Y0155642D01*
X0410610Y0140091D02*
X0424390D01*
X0385610D02*
X0399390D01*
Y0155642D01*
X0385610D02*
X0399390D01*
X0385610Y0140091D02*
Y0155642D01*
X0268568Y0132305D02*
X0282032D01*
X0268568Y0104156D02*
Y0132305D01*
Y0104156D02*
X0282032D01*
Y0132305D01*
X0254667Y0063295D02*
Y0105815D01*
X0207423D02*
X0254667D01*
X0207423Y0063295D02*
Y0105815D01*
Y0063295D02*
X0254667D01*
X0173434Y0124773D02*
X0189655D01*
X0173434Y0116427D02*
Y0124773D01*
Y0116427D02*
X0189655D01*
Y0124773D01*
Y0107827D02*
Y0116173D01*
X0173434Y0107827D02*
X0189655D01*
X0173434D02*
Y0116173D01*
X0189655D01*
X0040047Y0039406D02*
X0122763D01*
X0040047Y0002004D02*
Y0039406D01*
Y0002004D02*
X0122763D01*
Y0039406D01*
X0139187Y0104858D02*
X0147533D01*
Y0088638D02*
Y0104858D01*
X0139187Y0088638D02*
X0147533D01*
X0139187D02*
Y0104858D01*
X0129827Y0088638D02*
Y0104858D01*
Y0088638D02*
X0138173D01*
Y0104858D01*
X0129827D02*
X0138173D01*
X0148827D02*
X0157173D01*
Y0088638D02*
Y0104858D01*
X0148827Y0088638D02*
X0157173D01*
X0148827D02*
Y0104858D01*
X0157671Y0105433D02*
X0174009D01*
X0157671Y0092047D02*
Y0105433D01*
Y0092047D02*
X0174009D01*
Y0105433D01*
X0209797Y0108092D02*
Y0116439D01*
Y0108092D02*
X0226018D01*
Y0116439D01*
X0209797D02*
X0226018D01*
X0209797Y0117327D02*
Y0125673D01*
Y0117327D02*
X0226018D01*
Y0125673D01*
X0209797D02*
X0226018D01*
X0183803Y0128642D02*
Y0144862D01*
X0192149D01*
Y0128642D02*
Y0144862D01*
X0183803Y0128642D02*
X0192149D01*
X0194486D02*
X0202832D01*
Y0144862D01*
X0194486D02*
X0202832D01*
X0194486Y0128642D02*
Y0144862D01*
X0900177Y0149110D02*
Y0179622D01*
X0884823D02*
X0900177D01*
X0884823Y0149110D02*
Y0179622D01*
Y0149110D02*
X0900177D01*
X0859823D02*
X0875177D01*
X0859823D02*
Y0179622D01*
X0875177D01*
Y0149110D02*
Y0179622D01*
X0850177Y0149110D02*
Y0179622D01*
X0834823D02*
X0850177D01*
X0834823Y0149110D02*
Y0179622D01*
Y0149110D02*
X0850177D01*
X0809823D02*
X0825177D01*
X0809823D02*
Y0179622D01*
X0825177D01*
Y0149110D02*
Y0179622D01*
X0800177Y0149110D02*
Y0179622D01*
X0784823D02*
X0800177D01*
X0784823Y0149110D02*
Y0179622D01*
Y0149110D02*
X0800177D01*
X0759823D02*
X0775177D01*
X0759823D02*
Y0179622D01*
X0775177D01*
Y0149110D02*
Y0179622D01*
X0750177Y0149110D02*
Y0179622D01*
X0734823D02*
X0750177D01*
X0734823Y0149110D02*
Y0179622D01*
Y0149110D02*
X0750177D01*
X0709823D02*
X0725177D01*
X0709823D02*
Y0179622D01*
X0725177D01*
Y0149110D02*
Y0179622D01*
X0700177Y0149110D02*
Y0179622D01*
X0684823D02*
X0700177D01*
X0684823Y0149110D02*
Y0179622D01*
Y0149110D02*
X0700177D01*
X0659823D02*
X0675177D01*
X0659823D02*
Y0179622D01*
X0675177D01*
Y0149110D02*
Y0179622D01*
X0650177Y0149110D02*
Y0179622D01*
X0634823D02*
X0650177D01*
X0634823Y0149110D02*
Y0179622D01*
Y0149110D02*
X0650177D01*
X0609823D02*
X0625177D01*
X0609823D02*
Y0179622D01*
X0625177D01*
Y0149110D02*
Y0179622D01*
X0600177Y0149110D02*
Y0179622D01*
X0584823D02*
X0600177D01*
X0584823Y0149110D02*
Y0179622D01*
Y0149110D02*
X0600177D01*
X0559823D02*
X0575177D01*
X0559823D02*
Y0179622D01*
X0575177D01*
Y0149110D02*
Y0179622D01*
X0550177Y0149110D02*
Y0179622D01*
X0534823D02*
X0550177D01*
X0534823Y0149110D02*
Y0179622D01*
Y0149110D02*
X0550177D01*
X0509823D02*
X0525177D01*
X0509823D02*
Y0179622D01*
X0525177D01*
Y0149110D02*
Y0179622D01*
X0500177Y0149110D02*
Y0179622D01*
X0484823D02*
X0500177D01*
X0484823Y0149110D02*
Y0179622D01*
Y0149110D02*
X0500177D01*
X0459823D02*
X0475177D01*
X0459823D02*
Y0179622D01*
X0475177D01*
Y0149110D02*
Y0179622D01*
X0450177Y0149110D02*
Y0179622D01*
X0434823D02*
X0450177D01*
X0434823Y0149110D02*
Y0179622D01*
Y0149110D02*
X0450177D01*
X0409823D02*
X0425177D01*
X0409823D02*
Y0179622D01*
X0425177D01*
Y0149110D02*
Y0179622D01*
X0400177Y0149110D02*
Y0179622D01*
X0384823D02*
X0400177D01*
X0384823Y0149110D02*
Y0179622D01*
Y0149110D02*
X0400177D01*
X0359823D02*
X0375177D01*
X0359823D02*
Y0179622D01*
X0375177D01*
Y0149110D02*
Y0179622D01*
X0350201Y0149134D02*
Y0179646D01*
X0334846D02*
X0350201D01*
X0334846Y0149134D02*
Y0179646D01*
Y0149134D02*
X0350201D01*
X0309823Y0149110D02*
X0325177D01*
X0309823D02*
Y0179622D01*
X0325177D01*
Y0149110D02*
Y0179622D01*
X0482213Y0065862D02*
Y0102870D01*
X0428669Y0065862D02*
X0482213D01*
X0428669D02*
Y0102870D01*
X0482213D01*
X0260374Y0092272D02*
X0282894D01*
X0260374Y0065461D02*
Y0092272D01*
Y0065461D02*
X0282894D01*
Y0092272D01*
X0259746Y0108850D02*
Y0131370D01*
X0232935D02*
X0259746D01*
X0232935Y0108850D02*
Y0131370D01*
Y0108850D02*
X0259746D01*
X0633114Y0099949D02*
X0692760D01*
X0633114Y0073177D02*
Y0099949D01*
Y0073177D02*
X0692760D01*
Y0099949D01*
X0329114D02*
X0388760D01*
X0329114Y0073177D02*
Y0099949D01*
Y0073177D02*
X0388760D01*
Y0099949D01*
X0732669Y0102870D02*
X0786213D01*
X0732669Y0065862D02*
Y0102870D01*
Y0065862D02*
X0786213D01*
Y0102870D01*
M02*
