G04*
G04 #@! TF.GenerationSoftware,Altium Limited,Altium Designer,19.0.4 (130)*
G04*
G04 Layer_Physical_Order=1*
G04 Layer_Color=255*
%FSAX25Y25*%
%MOIN*%
G70*
G01*
G75*
%ADD16C,0.01000*%
%ADD21C,0.02000*%
G04:AMPARAMS|DCode=22|XSize=39mil|YSize=32mil|CornerRadius=0mil|HoleSize=0mil|Usage=FLASHONLY|Rotation=45.000|XOffset=0mil|YOffset=0mil|HoleType=Round|Shape=Rectangle|*
%AMROTATEDRECTD22*
4,1,4,-0.00248,-0.02510,-0.02510,-0.00248,0.00248,0.02510,0.02510,0.00248,-0.00248,-0.02510,0.0*
%
%ADD22ROTATEDRECTD22*%

G04:AMPARAMS|DCode=23|XSize=64.96mil|YSize=29.92mil|CornerRadius=0mil|HoleSize=0mil|Usage=FLASHONLY|Rotation=225.000|XOffset=0mil|YOffset=0mil|HoleType=Round|Shape=Rectangle|*
%AMROTATEDRECTD23*
4,1,4,0.01239,0.03355,0.03355,0.01239,-0.01239,-0.03355,-0.03355,-0.01239,0.01239,0.03355,0.0*
%
%ADD23ROTATEDRECTD23*%

%ADD24R,0.01181X0.07087*%
%ADD25R,0.06496X0.02992*%
%ADD26R,0.03800X0.03500*%
%ADD27R,0.03200X0.03900*%
G04:AMPARAMS|DCode=28|XSize=39mil|YSize=32mil|CornerRadius=0mil|HoleSize=0mil|Usage=FLASHONLY|Rotation=315.000|XOffset=0mil|YOffset=0mil|HoleType=Round|Shape=Rectangle|*
%AMROTATEDRECTD28*
4,1,4,-0.02510,0.00248,-0.00248,0.02510,0.02510,-0.00248,0.00248,-0.02510,-0.02510,0.00248,0.0*
%
%ADD28ROTATEDRECTD28*%

%ADD29R,0.04400X0.06600*%
%ADD30R,0.06000X0.05512*%
%ADD31R,0.13228X0.19134*%
%ADD32R,0.04000X0.03000*%
%ADD33R,0.07000X0.04500*%
%ADD34R,0.04500X0.07000*%
%ADD35R,0.06600X0.04400*%
%ADD36R,0.03500X0.03800*%
%ADD37R,0.06000X0.04000*%
%ADD38R,0.03900X0.03200*%
%ADD39R,0.03000X0.04000*%
%ADD40R,0.04500X0.05000*%
%ADD71C,0.03000*%
%ADD72C,0.06000*%
%ADD73C,0.04000*%
%ADD74C,0.01500*%
%ADD75C,0.02500*%
%ADD76C,0.01200*%
%ADD77C,0.01400*%
%ADD78C,0.05941*%
%ADD79C,0.06555*%
%ADD80C,0.09744*%
%ADD81C,0.05512*%
%ADD82O,0.04724X0.07000*%
%ADD83C,0.05906*%
%ADD84R,0.05906X0.05906*%
%ADD85C,0.02500*%
%ADD86C,0.03900*%
%ADD87C,0.05000*%
G36*
X0268000Y0285000D02*
X0268000Y0280500D01*
X0240000Y0280500D01*
X0240000Y0285000D01*
X0268000Y0285000D01*
D02*
G37*
G36*
X0881000Y0284800D02*
X0881000Y0280300D01*
X0853000Y0280300D01*
X0853000Y0284800D01*
X0881000Y0284800D01*
D02*
G37*
G36*
X0848000Y0273000D02*
X0828045D01*
X0828045Y0285000D01*
X0848000D01*
X0848000Y0273000D01*
D02*
G37*
G36*
X0823000D02*
X0803045D01*
X0803045Y0285000D01*
X0823000D01*
X0823000Y0273000D01*
D02*
G37*
G36*
X0798000D02*
X0778046D01*
X0778046Y0285000D01*
X0798000D01*
X0798000Y0273000D01*
D02*
G37*
G36*
X0773000D02*
X0753046D01*
X0753046Y0285000D01*
X0773000D01*
X0773000Y0273000D01*
D02*
G37*
G36*
X0748000D02*
X0728046D01*
X0728046Y0285000D01*
X0748000D01*
X0748000Y0273000D01*
D02*
G37*
G36*
X0723000D02*
X0703046D01*
X0703046Y0285000D01*
X0723000D01*
X0723000Y0273000D01*
D02*
G37*
G36*
X0698000D02*
X0678046D01*
X0678046Y0285000D01*
X0698000D01*
X0698000Y0273000D01*
D02*
G37*
G36*
X0673000D02*
X0653046D01*
X0653046Y0285000D01*
X0673000D01*
X0673000Y0273000D01*
D02*
G37*
G36*
X0648000D02*
X0628046D01*
X0628046Y0285000D01*
X0648000D01*
X0648000Y0273000D01*
D02*
G37*
G36*
X0623000D02*
X0603046D01*
X0603046Y0285000D01*
X0623000D01*
X0623000Y0273000D01*
D02*
G37*
G36*
X0598000D02*
X0578046D01*
X0578046Y0285000D01*
X0598000D01*
X0598000Y0273000D01*
D02*
G37*
G36*
X0573000D02*
X0553046D01*
X0553046Y0285000D01*
X0573000D01*
X0573000Y0273000D01*
D02*
G37*
G36*
X0548000D02*
X0528045D01*
X0528045Y0285000D01*
X0548000D01*
X0548000Y0273000D01*
D02*
G37*
G36*
X0522545D02*
X0502591D01*
X0502591Y0285000D01*
X0522545D01*
X0522545Y0273000D01*
D02*
G37*
G36*
X0497091D02*
X0477136D01*
X0477136Y0285000D01*
X0497091D01*
X0497091Y0273000D01*
D02*
G37*
G36*
X0471636D02*
X0451682D01*
X0451682Y0285000D01*
X0471636D01*
X0471636Y0273000D01*
D02*
G37*
G36*
X0446182D02*
X0426227D01*
X0426227Y0285000D01*
X0446182D01*
X0446182Y0273000D01*
D02*
G37*
G36*
X0420727D02*
X0400773D01*
X0400773Y0285000D01*
X0420727D01*
X0420727Y0273000D01*
D02*
G37*
G36*
X0395273D02*
X0375318D01*
X0375318Y0285000D01*
X0395273D01*
X0395273Y0273000D01*
D02*
G37*
G36*
X0369818D02*
X0349864D01*
X0349864Y0285000D01*
X0369818D01*
X0369818Y0273000D01*
D02*
G37*
G36*
X0344364D02*
X0324409D01*
X0324409Y0285000D01*
X0344364D01*
X0344364Y0273000D01*
D02*
G37*
G36*
X0318909D02*
X0298955D01*
X0298955Y0285000D01*
X0318909D01*
X0318909Y0273000D01*
D02*
G37*
G36*
X0293455D02*
X0273500D01*
X0273500Y0285000D01*
X0293455D01*
X0293455Y0273000D01*
D02*
G37*
G36*
X0862016Y0180000D02*
X0853748D01*
Y0186241D01*
X0862016D01*
Y0180000D01*
D02*
G37*
G36*
X0837016Y0177045D02*
X0828748D01*
Y0185116D01*
X0837016D01*
Y0177045D01*
D02*
G37*
G36*
X0812016D02*
X0803748D01*
Y0186241D01*
X0812016D01*
Y0177045D01*
D02*
G37*
G36*
X0787016D02*
X0778748D01*
Y0186241D01*
X0787016D01*
Y0177045D01*
D02*
G37*
G36*
X0762016D02*
X0753748D01*
Y0186241D01*
X0762016D01*
Y0177045D01*
D02*
G37*
G36*
X0737016D02*
X0728748D01*
Y0186241D01*
X0737016D01*
Y0177045D01*
D02*
G37*
G36*
X0712016D02*
X0703748D01*
Y0186241D01*
X0712016D01*
Y0177045D01*
D02*
G37*
G36*
X0687016D02*
X0678748D01*
Y0186241D01*
X0687016D01*
Y0177045D01*
D02*
G37*
G36*
X0662016D02*
X0653748D01*
Y0186241D01*
X0662016D01*
Y0177045D01*
D02*
G37*
G36*
X0637016D02*
X0628748D01*
Y0186241D01*
X0637016D01*
Y0177045D01*
D02*
G37*
G36*
X0612016D02*
X0603748D01*
Y0186241D01*
X0612016D01*
Y0177045D01*
D02*
G37*
G36*
X0587016D02*
X0578748D01*
Y0186241D01*
X0587016D01*
Y0177045D01*
D02*
G37*
G36*
X0562016D02*
X0553748D01*
Y0186241D01*
X0562016D01*
Y0177045D01*
D02*
G37*
G36*
X0538000Y0176795D02*
X0528748D01*
Y0185991D01*
X0538000D01*
Y0176795D01*
D02*
G37*
G36*
X0513000D02*
X0503748D01*
Y0185991D01*
X0513000D01*
Y0176795D01*
D02*
G37*
G36*
X0488000D02*
X0478748D01*
Y0185991D01*
X0488000D01*
Y0176795D01*
D02*
G37*
G36*
X0463000D02*
X0453748D01*
Y0185991D01*
X0463000D01*
Y0176795D01*
D02*
G37*
G36*
X0438000D02*
X0428748D01*
Y0185991D01*
X0438000D01*
Y0176795D01*
D02*
G37*
G36*
X0413000D02*
X0403748D01*
Y0185991D01*
X0413000D01*
Y0176795D01*
D02*
G37*
G36*
X0388000D02*
X0378748D01*
Y0185991D01*
X0388000D01*
Y0176795D01*
D02*
G37*
G36*
X0363000D02*
X0353748D01*
Y0185991D01*
X0363000D01*
Y0176795D01*
D02*
G37*
G36*
X0338000D02*
X0328748D01*
Y0185991D01*
X0338000D01*
Y0176795D01*
D02*
G37*
G36*
X0313000D02*
X0303748D01*
Y0185991D01*
X0313000D01*
Y0176795D01*
D02*
G37*
G36*
X0288000D02*
X0278748D01*
Y0185991D01*
X0288000D01*
Y0176795D01*
D02*
G37*
G36*
X0262803D02*
X0247500D01*
Y0183652D01*
X0251200Y0187800D01*
X0262803D01*
Y0176795D01*
D02*
G37*
G36*
X0839591Y0150510D02*
X0831591D01*
Y0161510D01*
X0839591D01*
Y0150510D01*
D02*
G37*
G36*
X0814590D02*
X0806590D01*
Y0161510D01*
X0814590D01*
Y0150510D01*
D02*
G37*
G36*
X0789591D02*
X0781591D01*
Y0161510D01*
X0789591D01*
Y0150510D01*
D02*
G37*
G36*
X0764591D02*
X0756591D01*
Y0161510D01*
X0764591D01*
Y0150510D01*
D02*
G37*
G36*
X0739591D02*
X0731591D01*
Y0161510D01*
X0739591D01*
Y0150510D01*
D02*
G37*
G36*
X0714591D02*
X0706591D01*
Y0161510D01*
X0714591D01*
Y0150510D01*
D02*
G37*
G36*
X0689591D02*
X0681591D01*
Y0161510D01*
X0689591D01*
Y0150510D01*
D02*
G37*
G36*
X0664591D02*
X0656591D01*
Y0161510D01*
X0664591D01*
Y0150510D01*
D02*
G37*
G36*
X0639591D02*
X0631591D01*
Y0161510D01*
X0639591D01*
Y0150510D01*
D02*
G37*
G36*
X0614591D02*
X0606591D01*
Y0161510D01*
X0614591D01*
Y0150510D01*
D02*
G37*
G36*
X0589591D02*
X0581591D01*
Y0161510D01*
X0589591D01*
Y0150510D01*
D02*
G37*
G36*
X0564591D02*
X0556591D01*
Y0161510D01*
X0564591D01*
Y0150510D01*
D02*
G37*
G36*
X0489500Y0150366D02*
X0481500D01*
Y0161366D01*
X0489500D01*
Y0150366D01*
D02*
G37*
G36*
X0289614Y0150283D02*
X0281614D01*
Y0161283D01*
X0289614D01*
Y0150283D01*
D02*
G37*
G36*
X0539591Y0150260D02*
X0531591D01*
Y0161260D01*
X0539591D01*
Y0150260D01*
D02*
G37*
G36*
X0514591D02*
X0506591D01*
Y0161260D01*
X0514591D01*
Y0150260D01*
D02*
G37*
G36*
X0464591D02*
X0456591D01*
Y0161260D01*
X0464591D01*
Y0150260D01*
D02*
G37*
G36*
X0439591D02*
X0431591D01*
Y0161260D01*
X0439591D01*
Y0150260D01*
D02*
G37*
G36*
X0414591D02*
X0406591D01*
Y0161260D01*
X0414591D01*
Y0150260D01*
D02*
G37*
G36*
X0389591D02*
X0381591D01*
Y0161260D01*
X0389591D01*
Y0150260D01*
D02*
G37*
G36*
X0364591D02*
X0356591D01*
Y0161260D01*
X0364591D01*
Y0150260D01*
D02*
G37*
G36*
X0339591D02*
X0331591D01*
Y0161260D01*
X0339591D01*
Y0150260D01*
D02*
G37*
G36*
X0314591D02*
X0306591D01*
Y0161260D01*
X0314591D01*
Y0150260D01*
D02*
G37*
G36*
X0264591D02*
X0256591D01*
Y0161260D01*
X0264591D01*
Y0150260D01*
D02*
G37*
G36*
X0852400Y0140901D02*
X0843600D01*
Y0148700D01*
X0852400D01*
Y0140901D01*
D02*
G37*
G36*
X0829500Y0126366D02*
X0821500D01*
Y0131381D01*
X0829500D01*
Y0126366D01*
D02*
G37*
G36*
X0804500D02*
X0796500D01*
Y0131381D01*
X0804500D01*
Y0126366D01*
D02*
G37*
G36*
X0779500D02*
X0771500D01*
Y0131381D01*
X0779500D01*
Y0126366D01*
D02*
G37*
G36*
X0754500D02*
X0746500D01*
Y0131381D01*
X0754500D01*
Y0126366D01*
D02*
G37*
G36*
X0729500D02*
X0721500D01*
Y0131381D01*
X0729500D01*
Y0126366D01*
D02*
G37*
G36*
X0704500D02*
X0696500D01*
Y0131381D01*
X0704500D01*
Y0126366D01*
D02*
G37*
G36*
X0679500D02*
X0671500D01*
Y0131381D01*
X0679500D01*
Y0126366D01*
D02*
G37*
G36*
X0654500D02*
X0646500D01*
Y0131381D01*
X0654500D01*
Y0126366D01*
D02*
G37*
G36*
X0629500D02*
X0621500D01*
Y0131381D01*
X0629500D01*
Y0126366D01*
D02*
G37*
G36*
X0604500D02*
X0596500D01*
Y0131381D01*
X0604500D01*
Y0126366D01*
D02*
G37*
G36*
X0579500D02*
X0571500D01*
Y0131381D01*
X0579500D01*
Y0126366D01*
D02*
G37*
G36*
X0529500D02*
X0521500D01*
Y0131381D01*
X0529500D01*
Y0126366D01*
D02*
G37*
G36*
X0504500D02*
X0496500D01*
Y0131381D01*
X0504500D01*
Y0126366D01*
D02*
G37*
G36*
X0479500D02*
X0471500D01*
Y0131381D01*
X0479500D01*
Y0126366D01*
D02*
G37*
G36*
X0454500D02*
X0446500D01*
Y0131381D01*
X0454500D01*
Y0126366D01*
D02*
G37*
G36*
X0429500D02*
X0421500D01*
Y0131381D01*
X0429500D01*
Y0126366D01*
D02*
G37*
G36*
X0404500D02*
X0396500D01*
Y0131381D01*
X0404500D01*
Y0126366D01*
D02*
G37*
G36*
X0379500D02*
X0371500D01*
Y0131381D01*
X0379500D01*
Y0126366D01*
D02*
G37*
G36*
X0354500D02*
X0346500D01*
Y0131381D01*
X0354500D01*
Y0126366D01*
D02*
G37*
G36*
X0329500D02*
X0321500D01*
Y0131381D01*
X0329500D01*
Y0126366D01*
D02*
G37*
G36*
X0304500D02*
X0296500D01*
Y0131381D01*
X0304500D01*
Y0126366D01*
D02*
G37*
G36*
X0279500D02*
X0271500D01*
Y0131381D01*
X0279500D01*
Y0126366D01*
D02*
G37*
G36*
X0550900Y0130200D02*
Y0126366D01*
X0545100Y0126366D01*
Y0130200D01*
X0545552Y0130600D01*
X0550448Y0130600D01*
X0550900Y0130200D01*
D02*
G37*
G36*
X0253100Y0087500D02*
X0253100Y0049597D01*
X0270128Y0032600D01*
X0282000Y0032600D01*
X0283300Y0031300D01*
X0283300Y0028652D01*
X0285100Y0026852D01*
X0285100Y0023000D01*
X0292500D01*
X0292500Y0025946D01*
X0292853Y0026300D01*
X0303300Y0026300D01*
X0310100Y0033100D01*
X0397500Y0033100D01*
X0413500Y0049100D01*
X0413500Y0066000D01*
X0415351Y0066000D01*
X0415705Y0065646D01*
Y0042100D01*
X0388605Y0015000D01*
X0270500D01*
X0238400Y0047100D01*
X0238400Y0077100D01*
X0230900Y0084600D01*
X0212000Y0084600D01*
X0212000Y0107046D01*
X0212353Y0107400D01*
X0224400Y0107400D01*
X0226700Y0109700D01*
X0230900Y0109700D01*
X0253100Y0087500D01*
D02*
G37*
G36*
X0857849Y0112292D02*
X0852677Y0107120D01*
X0847020Y0112777D01*
X0852192Y0117949D01*
X0857849Y0112292D01*
D02*
G37*
G36*
X0557500Y0094898D02*
X0557500Y0055095D01*
X0488492D01*
Y0072500D01*
X0499500Y0072500D01*
X0503842Y0068158D01*
X0526000D01*
X0534500Y0077503D01*
Y0106500D01*
X0552297D01*
X0557500Y0094898D01*
D02*
G37*
G36*
X0407433Y0058900D02*
Y0054300D01*
X0403570Y0054300D01*
Y0058900D01*
X0407433Y0058900D01*
D02*
G37*
G36*
X0402800Y0053900D02*
X0397988Y0053900D01*
Y0058500D01*
X0402800Y0058500D01*
Y0053900D01*
D02*
G37*
G36*
X0712300Y0057863D02*
Y0053263D01*
X0707812Y0053263D01*
Y0057863D01*
X0712300Y0057863D01*
D02*
G37*
G36*
X0706723Y0053163D02*
X0701912Y0053163D01*
Y0057763D01*
X0706723Y0057763D01*
Y0053163D01*
D02*
G37*
G36*
X0481958Y0051012D02*
X0563346D01*
X0563346Y0044913D01*
X0548300Y0044913D01*
X0548300Y0047800D01*
X0540600D01*
Y0044913D01*
X0528715D01*
X0522412Y0038611D01*
X0479934D01*
X0438173Y0080371D01*
X0423070D01*
X0420536Y0077837D01*
X0415705D01*
Y0080102D01*
Y0080371D01*
X0418744Y0083471D01*
X0449500D01*
X0481958Y0051012D01*
D02*
G37*
G36*
X0804105Y0070000D02*
X0809105Y0065000D01*
X0827515Y0065000D01*
X0832515Y0070000D01*
X0837477Y0070000D01*
X0837477Y0063178D01*
X0817800Y0043500D01*
X0789310Y0043500D01*
X0789310Y0070000D01*
X0804105Y0070000D01*
D02*
G37*
G36*
X0712300Y0052243D02*
X0712354Y0051762D01*
Y0049317D01*
X0701112Y0038075D01*
X0621938Y0038075D01*
X0615581Y0044431D01*
X0615085Y0044763D01*
X0614500Y0044879D01*
X0602700D01*
Y0047200D01*
X0595500Y0047200D01*
X0595500Y0044850D01*
X0595147Y0044496D01*
X0568000Y0044496D01*
Y0051012D01*
X0634688D01*
X0643500Y0042200D01*
X0699600D01*
X0709009Y0051609D01*
X0709005Y0051888D01*
X0709356Y0052243D01*
X0712300Y0052243D01*
D02*
G37*
G36*
X0236480Y0130720D02*
X0236480Y0123084D01*
X0275381Y0086286D01*
X0275381Y0073933D01*
X0292510Y0061497D01*
X0316592Y0061529D01*
X0337660Y0041600D01*
X0391700Y0041600D01*
X0402800Y0052700D01*
X0406646Y0052700D01*
X0407000Y0052346D01*
X0407000Y0051000D01*
X0394279Y0038279D01*
X0310075D01*
X0303354Y0045000D01*
X0292500Y0045000D01*
X0292500Y0048000D01*
X0285000Y0048000D01*
Y0043300D01*
X0283700Y0042000D01*
Y0039608D01*
X0282161Y0038129D01*
X0272162D01*
X0260200Y0050091D01*
Y0091592D01*
X0232494Y0117800D01*
X0227400D01*
X0221300Y0123632D01*
X0208100Y0123632D01*
X0208100Y0134900D01*
X0232300D01*
X0236480Y0130720D01*
D02*
G37*
G36*
X0721327Y0044180D02*
X0705247Y0028100D01*
X0642614Y0028113D01*
X0635125Y0020626D01*
X0568000D01*
X0568000Y0026968D01*
X0595500Y0026968D01*
Y0024900D01*
X0602700D01*
Y0027121D01*
X0615204D01*
X0615523Y0027184D01*
X0615737D01*
X0615790Y0027237D01*
X0616286Y0027569D01*
X0621934Y0033216D01*
X0703125D01*
X0703573Y0033664D01*
X0716765Y0046856D01*
X0716765Y0046856D01*
X0717213Y0047304D01*
Y0056000D01*
X0721313D01*
X0721327Y0044180D01*
D02*
G37*
G36*
X0748100Y0077400D02*
X0786500Y0039000D01*
X0821566D01*
X0843383Y0060817D01*
X0868600Y0035600D01*
Y0031800D01*
X0864800Y0028299D01*
X0864800Y0025568D01*
X0863600Y0024368D01*
X0839400D01*
X0832634Y0031134D01*
X0832600Y0034000D01*
X0823600D01*
Y0031134D01*
X0813700D01*
X0805714Y0023929D01*
X0771199D01*
X0742572Y0052556D01*
Y0064428D01*
X0738200Y0068800D01*
X0729731D01*
X0729731Y0077400D01*
X0748100Y0077400D01*
D02*
G37*
G36*
X0477615Y0033587D02*
X0478456Y0033585D01*
X0478527Y0033571D01*
X0483930D01*
X0522394Y0033471D01*
X0528839Y0027026D01*
X0531974D01*
X0532032Y0026968D01*
X0540600Y0026968D01*
Y0024900D01*
X0548300D01*
X0548300Y0026968D01*
X0563396Y0026968D01*
Y0020626D01*
X0478490D01*
X0471500Y0027616D01*
X0438300Y0060315D01*
X0431796D01*
X0431796Y0060315D01*
X0424300Y0060315D01*
X0421171Y0063442D01*
Y0066000D01*
X0425500D01*
Y0074976D01*
X0436140Y0074989D01*
X0477615Y0033587D01*
D02*
G37*
G36*
X0737133Y0061798D02*
Y0050660D01*
X0737179Y0050429D01*
Y0049204D01*
X0758802Y0028357D01*
X0768179Y0018981D01*
X0768675Y0018649D01*
X0768923Y0018600D01*
X0769027Y0018500D01*
X0806514Y0018500D01*
X0812969Y0012000D01*
X0823500D01*
Y0009400D01*
X0832500D01*
X0832500Y0013300D01*
X0834200Y0014900D01*
X0834200Y0017530D01*
X0835808Y0019171D01*
X0865374D01*
X0867403Y0017297D01*
X0876100Y0017301D01*
X0882350Y0023550D01*
X0894700Y0012000D01*
Y0005200D01*
X0763800Y0005200D01*
X0729764Y0039236D01*
Y0062929D01*
X0729814Y0062950D01*
X0735981D01*
X0737133Y0061798D01*
D02*
G37*
D16*
X0409799Y0051521D02*
Y0070890D01*
X0395028Y0036750D02*
X0409799Y0051521D01*
X0769260Y0020062D02*
X0807800D01*
X0770228Y0022400D02*
X0807800D01*
X0738662Y0050660D02*
X0769260Y0020062D01*
X0741000Y0051628D02*
X0770228Y0022400D01*
X0738662Y0050660D02*
Y0062432D01*
X0741000Y0051628D02*
Y0063400D01*
X0736494Y0064600D02*
X0738662Y0062432D01*
X0737875Y0066525D02*
X0741000Y0063400D01*
X0727610Y0064600D02*
X0736494D01*
X0728991Y0066525D02*
X0737875D01*
X0725701Y0066509D02*
X0727610Y0064600D01*
X0727579Y0067937D02*
X0728991Y0066525D01*
X0814262Y0013600D02*
X0826850D01*
X0807800Y0020062D02*
X0814262Y0013600D01*
X0725701Y0066509D02*
Y0070799D01*
X0815000Y0029600D02*
X0826850D01*
X0807800Y0022400D02*
X0815000Y0029600D01*
X0828100Y0030850D02*
X0828250D01*
X0866459Y0026352D02*
X0877658Y0037551D01*
X0727579Y0067937D02*
Y0070890D01*
X0826850Y0029600D02*
X0828100Y0030850D01*
X0832200Y0024000D02*
X0833700Y0022500D01*
X0832200Y0024000D02*
Y0026900D01*
X0828250Y0030850D02*
X0832200Y0026900D01*
X0866459Y0023086D02*
Y0026352D01*
X0833700Y0022500D02*
X0865873D01*
X0866459Y0023086D01*
X0828100Y0012350D02*
X0828250D01*
X0873480Y0019231D02*
X0884729Y0030480D01*
X0725610Y0070890D02*
X0725701Y0070799D01*
X0826850Y0013600D02*
X0828100Y0012350D01*
X0828250D02*
X0832200Y0016300D01*
Y0019300D01*
X0833600Y0020700D01*
X0867928Y0019231D02*
X0873480D01*
X0833600Y0020700D02*
X0866459D01*
X0867928Y0019231D01*
X0589750Y0039035D02*
Y0039921D01*
X0600200Y0043350D02*
X0614500D01*
X0599100Y0044450D02*
X0600200Y0043350D01*
X0614500D02*
X0621325Y0036525D01*
X0621300Y0034746D02*
X0622100D01*
X0615204Y0028650D02*
X0621300Y0034746D01*
X0841740Y0126366D02*
X0842090D01*
X0555321Y0040921D02*
X0556143D01*
X0524577Y0036900D02*
X0531027Y0043350D01*
X0524777Y0035100D02*
X0531227Y0028650D01*
X0478527Y0035100D02*
X0524777D01*
X0555321Y0031079D02*
X0556143D01*
X0554050Y0039650D02*
X0555321Y0040921D01*
X0544448Y0044450D02*
X0549248Y0039650D01*
X0554050D01*
Y0032350D02*
X0555321Y0031079D01*
X0549248Y0032350D02*
X0554050D01*
X0544448Y0027550D02*
X0549248Y0032350D01*
X0479273Y0036900D02*
X0524577D01*
X0531027Y0043350D02*
X0543198D01*
X0544448Y0044600D01*
X0531227Y0028650D02*
X0543198D01*
X0544448Y0027400D01*
X0437446Y0078727D02*
X0479273Y0036900D01*
X0424489Y0076927D02*
X0436700D01*
X0478527Y0035100D01*
X0423743Y0078727D02*
X0437446D01*
X0421695Y0076679D02*
X0423743Y0078727D01*
X0423494Y0075933D02*
X0424489Y0076927D01*
X0423494Y0070974D02*
Y0075933D01*
X0421695Y0070974D02*
Y0076679D01*
X0421610Y0070890D02*
X0421695Y0070974D01*
X0423494Y0070974D02*
X0423579Y0070890D01*
X0136500Y0116000D02*
X0136571Y0115929D01*
X0150704D01*
X0154674Y0119900D01*
X0171148D01*
X0146500Y0111000D02*
Y0111365D01*
X0149065Y0113929D01*
X0150745D01*
X0154774Y0109900D01*
X0171148D01*
X0222778Y0119900D02*
X0226778Y0115900D01*
X0204652Y0119900D02*
X0222778D01*
X0226778Y0115900D02*
X0231228D01*
X0411768Y0070858D02*
X0411799Y0070890D01*
X0285265Y0030186D02*
Y0032435D01*
X0283100Y0034600D02*
X0285265Y0032435D01*
X0270700Y0034600D02*
X0283100D01*
X0285265Y0030186D02*
X0288551Y0026900D01*
X0285265Y0041314D02*
X0288551Y0044600D01*
X0285265Y0038865D02*
Y0041314D01*
X0283000Y0036600D02*
X0285265Y0038865D01*
X0271528Y0036600D02*
X0283000D01*
X0411768Y0050661D02*
Y0070858D01*
X0395857Y0034750D02*
X0411768Y0050661D01*
X0302128Y0028150D02*
X0308728Y0034750D01*
X0395857D01*
X0289951Y0028150D02*
X0302128D01*
X0288701Y0026900D02*
X0289951Y0028150D01*
X0204652Y0109900D02*
X0205648Y0110896D01*
X0289951Y0043350D02*
X0302128D01*
X0308728Y0036750D02*
X0395028D01*
X0302128Y0043350D02*
X0308728Y0036750D01*
X0288701Y0044600D02*
X0289951Y0043350D01*
X0288551Y0044600D02*
X0288701D01*
X0288551Y0026900D02*
X0288701D01*
X0258000Y0050128D02*
X0271528Y0036600D01*
X0256000Y0049300D02*
X0270700Y0034600D01*
X0256000Y0049300D02*
Y0088300D01*
X0258000Y0050128D02*
Y0089128D01*
X0230400Y0113900D02*
X0256000Y0088300D01*
X0231228Y0115900D02*
X0258000Y0089128D01*
X0226778Y0113900D02*
X0230400D01*
X0204652Y0109900D02*
X0222778D01*
X0226778Y0113900D01*
X0723642Y0063008D02*
Y0070890D01*
X0713980Y0081000D02*
X0771629D01*
X0707894Y0074913D02*
X0713980Y0081000D01*
X0707894Y0070890D02*
Y0074913D01*
X0702491Y0034746D02*
X0715684Y0047938D01*
X0691350Y0046606D02*
Y0051500D01*
X0689044Y0044300D02*
X0691350Y0046606D01*
X0647076Y0044300D02*
X0689044D01*
X0709933Y0087003D02*
X0765140D01*
X0768237Y0090100D02*
Y0092500D01*
X0765140Y0087003D02*
X0768237Y0090100D01*
X0703957Y0081027D02*
X0709933Y0087003D01*
X0725800Y0054600D02*
Y0061000D01*
X0715684Y0047938D02*
Y0070806D01*
X0699900Y0053050D02*
Y0062480D01*
X0698350Y0051500D02*
X0699900Y0053050D01*
X0288701Y0035750D02*
Y0038400D01*
Y0033100D02*
Y0035750D01*
X0294566D01*
X0294917Y0036100D01*
X0405933Y0064050D02*
X0406433D01*
X0407831Y0065948D02*
Y0070890D01*
X0407433Y0065550D02*
X0407831Y0065948D01*
X0407433Y0065050D02*
Y0065550D01*
X0406433Y0064050D02*
X0407433Y0065050D01*
X0411472Y0085000D02*
X0468900D01*
X0403894Y0077422D02*
X0411472Y0085000D01*
X0403894Y0070890D02*
Y0077422D01*
X0510152Y0081717D02*
X0512950D01*
X0509467Y0073181D02*
X0510152Y0073866D01*
X0322200Y0065289D02*
X0344032Y0043457D01*
X0322200Y0065289D02*
Y0065440D01*
X0322049D02*
X0322200D01*
X0308374Y0079115D02*
X0322049Y0065440D01*
X0386177Y0056876D02*
Y0070890D01*
X0386441Y0052009D02*
Y0056876D01*
Y0052009D02*
X0386950Y0051500D01*
X0386441Y0045308D02*
Y0052009D01*
X0344032Y0043457D02*
X0384590D01*
X0308374Y0079115D02*
Y0083126D01*
X0380150Y0056850D02*
Y0063458D01*
X0324122Y0082318D02*
X0350740Y0055700D01*
X0379608D02*
X0380272Y0056364D01*
X0350740Y0055700D02*
X0379608D01*
X0382867Y0051500D02*
Y0063367D01*
X0349852Y0047000D02*
X0382500D01*
X0316248Y0080603D02*
X0349852Y0047000D01*
X0316248Y0080603D02*
Y0083126D01*
X0367666Y0087366D02*
X0368900D01*
Y0087366D02*
Y0087366D01*
X0368700Y0081150D02*
X0387444D01*
X0368700Y0081050D02*
Y0081150D01*
X0354500Y0084800D02*
X0358150Y0081150D01*
X0368700D01*
X0261140Y0123226D02*
Y0126566D01*
X0337234Y0109866D02*
X0346500Y0100600D01*
Y0077500D02*
Y0100600D01*
Y0077500D02*
X0359398Y0064602D01*
X0259260Y0131916D02*
X0260310Y0130866D01*
X0338134Y0111866D02*
X0349500Y0100500D01*
Y0078500D02*
Y0100500D01*
Y0078500D02*
X0357110Y0070890D01*
X0359398Y0064602D02*
X0378236D01*
X0357110Y0070890D02*
X0378303D01*
X0333500Y0109866D02*
X0337234D01*
X0334500Y0111866D02*
X0338134D01*
X0659300Y0084224D02*
X0662150Y0081374D01*
X0659300Y0084224D02*
Y0084800D01*
X0670394Y0087366D02*
X0671366D01*
X0668500Y0085472D02*
X0670394Y0087366D01*
X0671866Y0081323D02*
Y0081374D01*
X0662150D02*
X0671866D01*
X0676000D01*
X0691444D01*
X0671750Y0087366D02*
X0689650D01*
X0671750Y0087366D02*
X0671750Y0087366D01*
X0387444Y0081150D02*
X0392083Y0076511D01*
X0368800Y0087366D02*
X0368900D01*
X0364900Y0084600D02*
X0367666Y0087366D01*
X0368900D02*
X0385650D01*
X0653150Y0047800D02*
X0686621D01*
X0620248Y0080702D02*
X0653150Y0047800D01*
X0620248Y0080702D02*
Y0083126D01*
X0628122Y0082318D02*
X0654940Y0055500D01*
X0684150D01*
X0685150Y0060000D02*
Y0062716D01*
Y0056500D02*
Y0060000D01*
X0690650Y0057200D02*
X0690942Y0057491D01*
X0690650Y0054550D02*
Y0057200D01*
X0691350Y0051500D02*
Y0053850D01*
X0612374Y0079002D02*
X0647076Y0044300D01*
X0612374Y0079002D02*
Y0083126D01*
X0687394Y0047027D02*
X0687421Y0047000D01*
X0686621Y0047800D02*
X0687394Y0047027D01*
X0384590Y0043457D02*
X0386441Y0045308D01*
X0419642Y0062808D02*
X0424950Y0057500D01*
X0419642Y0062808D02*
Y0070890D01*
X0419050Y0057500D02*
Y0059450D01*
X0417673Y0060827D02*
X0419050Y0059450D01*
X0417673Y0060827D02*
Y0070890D01*
X0692000Y0090516D02*
X0700020Y0082496D01*
Y0070890D02*
Y0082496D01*
Y0063066D02*
Y0070890D01*
X0698051Y0051201D02*
X0698500Y0050753D01*
X0468900Y0085000D02*
X0470400Y0083500D01*
X0461737Y0087600D02*
X0464237Y0090100D01*
X0406530Y0087600D02*
X0461737D01*
X0399957Y0081027D02*
X0406530Y0087600D01*
X0791740Y0123850D02*
Y0126366D01*
X0768640Y0121400D02*
X0789291D01*
X0764712Y0117472D02*
X0768640Y0121400D01*
X0743548Y0117472D02*
X0764712D01*
X0769751Y0119800D02*
X0790100D01*
X0765822Y0115872D02*
X0769751Y0119800D01*
X0744211Y0115872D02*
X0765822D01*
X0770567Y0118200D02*
X0791212D01*
X0766638Y0114272D02*
X0770567Y0118200D01*
X0744873Y0114272D02*
X0766638D01*
X0816740Y0123752D02*
Y0126366D01*
X0771543Y0116600D02*
X0792090D01*
X0767614Y0112672D02*
X0771543Y0116600D01*
X0745536Y0112672D02*
X0767614D01*
X0772500Y0115000D02*
X0793438D01*
X0768572Y0111072D02*
X0772500Y0115000D01*
X0746199Y0111072D02*
X0768572D01*
X0787179Y0130316D02*
X0789000Y0128495D01*
Y0124238D02*
Y0128495D01*
X0787762Y0123000D02*
X0789000Y0124238D01*
X0789291Y0121400D02*
X0791740Y0123850D01*
X0792100Y0121800D02*
X0811563D01*
X0790100Y0119800D02*
X0792100Y0121800D01*
X0793212Y0120200D02*
X0813188D01*
X0791212Y0118200D02*
X0793212Y0120200D01*
X0794090Y0118600D02*
X0814600D01*
X0792090Y0116600D02*
X0794090Y0118600D01*
X0795438Y0117000D02*
X0816480D01*
X0793438Y0115000D02*
X0795438Y0117000D01*
X0837179Y0130316D02*
X0839000Y0128495D01*
Y0124023D02*
Y0128495D01*
X0837477Y0122500D02*
X0839000Y0124023D01*
X0818500Y0122500D02*
X0837477D01*
X0841000Y0122857D02*
Y0125626D01*
X0838292Y0120150D02*
X0841000Y0122857D01*
X0819630Y0120150D02*
X0838292D01*
X0813188Y0120200D02*
X0816740Y0123752D01*
X0816480Y0117000D02*
X0819630Y0120150D01*
X0814600Y0118600D02*
X0818500Y0122500D01*
X0812179Y0130316D02*
X0814000Y0128495D01*
Y0124238D02*
Y0128495D01*
X0811563Y0121800D02*
X0814000Y0124238D01*
X0691350Y0051500D02*
X0692650D01*
X0699314Y0063066D02*
X0699900Y0062480D01*
X0690650Y0057200D02*
X0690750D01*
X0698350Y0051500D02*
X0698550D01*
X0698051Y0051201D02*
X0698350Y0051500D01*
X0694847Y0047100D02*
X0698500Y0050753D01*
X0516740Y0123216D02*
Y0126366D01*
X0514090Y0120566D02*
X0516740Y0123216D01*
X0492965Y0120566D02*
X0514090D01*
X0514766Y0118766D02*
X0518738Y0122738D01*
X0493711Y0118766D02*
X0514766D01*
X0518738Y0122738D02*
X0537500D01*
X0541740Y0123606D02*
Y0126366D01*
X0519838Y0120938D02*
X0539071D01*
X0515866Y0116966D02*
X0519838Y0120938D01*
X0495191Y0116966D02*
X0515866D01*
X0536679Y0130816D02*
X0539000Y0128495D01*
Y0124238D02*
Y0128495D01*
X0537500Y0122738D02*
X0539000Y0124238D01*
X0511679Y0130816D02*
X0514000Y0128495D01*
Y0124238D02*
Y0128495D01*
X0512569Y0122806D02*
X0514000Y0124238D01*
X0487179Y0130316D02*
X0489000Y0128495D01*
Y0124238D02*
Y0128495D01*
X0487629Y0122866D02*
X0489000Y0124238D01*
X0491740Y0124432D02*
Y0126366D01*
X0488374Y0121066D02*
X0491740Y0124432D01*
X0461679Y0130816D02*
X0464000Y0128495D01*
Y0124238D02*
Y0128495D01*
X0462000Y0122238D02*
X0464000Y0124238D01*
X0386679Y0130816D02*
X0389000Y0128495D01*
Y0116433D02*
Y0128495D01*
Y0116433D02*
X0396020Y0109413D01*
X0361500Y0130995D02*
X0364000Y0128495D01*
Y0122272D02*
Y0128495D01*
Y0122272D02*
X0365405Y0120866D01*
X0286300Y0123786D02*
Y0126366D01*
X0711831Y0066331D02*
Y0070890D01*
X0705925Y0066665D02*
Y0070890D01*
X0698051D02*
Y0078965D01*
X0689650Y0087366D02*
X0698051Y0078965D01*
X0704100Y0062950D02*
Y0064400D01*
X0701988Y0066512D02*
X0704100Y0064400D01*
X0701988Y0066512D02*
Y0070890D01*
X0686921Y0051054D02*
X0687394Y0050582D01*
X0688209Y0062709D02*
Y0070890D01*
X0687930Y0062430D02*
X0688209Y0062709D01*
X0687930Y0052063D02*
Y0062430D01*
X0687394Y0047027D02*
Y0050582D01*
X0687367Y0051500D02*
X0687930Y0052063D01*
X0690650Y0054550D02*
X0691350Y0053850D01*
X0690942Y0057491D02*
Y0058279D01*
X0690177Y0059043D02*
X0690942Y0058279D01*
X0395768Y0052868D02*
Y0063066D01*
X0394400Y0051500D02*
X0395768Y0052868D01*
X0395299Y0063066D02*
X0395900Y0063667D01*
Y0065000D01*
X0396020Y0065120D01*
Y0070890D01*
X0392850Y0051500D02*
X0394400D01*
X0404381Y0064713D02*
X0405370D01*
X0402016Y0067078D02*
X0404381Y0064713D01*
X0402016Y0067078D02*
Y0070799D01*
X0405370Y0064713D02*
X0405933Y0064150D01*
X0401925Y0070890D02*
X0402016Y0070799D01*
X0399033Y0064166D02*
X0399883D01*
X0397988Y0065212D02*
X0399033Y0064166D01*
X0397988Y0065212D02*
Y0070890D01*
X0399883Y0064166D02*
X0400300Y0063750D01*
X0392850Y0050350D02*
Y0051500D01*
X0389200Y0046700D02*
X0392850Y0050350D01*
X0382367Y0051500D02*
X0382867D01*
Y0047367D02*
Y0051054D01*
X0382500Y0047000D02*
X0382867Y0047367D01*
Y0063367D02*
X0384209Y0064709D01*
Y0070890D01*
X0382240Y0065548D02*
Y0070890D01*
X0380150Y0063458D02*
X0382240Y0065548D01*
X0380272Y0056364D02*
Y0056728D01*
X0380150Y0056850D02*
X0380272Y0056728D01*
X0286300Y0123786D02*
X0289268Y0120818D01*
X0288964Y0124355D02*
Y0128578D01*
X0286524Y0131018D02*
X0288964Y0128578D01*
X0284260Y0131916D02*
X0285181Y0130995D01*
X0290482Y0122618D02*
X0309964D01*
X0288850Y0124250D02*
X0290482Y0122618D01*
X0593614Y0034472D02*
X0595000Y0033087D01*
Y0031650D02*
Y0033087D01*
Y0031650D02*
X0599100Y0027550D01*
X0595000Y0040350D02*
X0599100Y0044450D01*
X0595000Y0038886D02*
Y0040350D01*
X0593642Y0037527D02*
X0595000Y0038886D01*
X0578336Y0034472D02*
X0581943D01*
X0574942Y0031079D02*
X0578336Y0034472D01*
X0578336Y0037527D02*
X0581943D01*
X0574942Y0040921D02*
X0578336Y0037527D01*
X0600200Y0028650D02*
X0615204D01*
X0621325Y0036546D02*
X0701746Y0036546D01*
X0591257Y0034472D02*
X0593614D01*
X0591257Y0037527D02*
X0593642D01*
X0701746Y0036546D02*
X0713883Y0048684D01*
X0589750Y0032965D02*
X0591257Y0034472D01*
X0589750Y0032079D02*
Y0032965D01*
X0715684Y0070806D02*
X0715768Y0070890D01*
X0622100Y0034746D02*
X0702491Y0034746D01*
X0589750Y0039035D02*
X0591257Y0037527D01*
X0713799Y0070890D02*
X0713883Y0070806D01*
Y0048684D02*
Y0070806D01*
X0599100Y0027550D02*
X0600200Y0028650D01*
X0599100Y0036000D02*
Y0038550D01*
Y0033450D02*
Y0036000D01*
X0605383D01*
X0544448Y0036100D02*
Y0038550D01*
Y0033500D02*
Y0036100D01*
X0537850D02*
X0544448D01*
X0583450Y0039035D02*
Y0039921D01*
X0581943Y0037527D02*
X0583450Y0039035D01*
X0574057Y0040921D02*
X0574942D01*
X0582551Y0032978D02*
Y0033864D01*
Y0032978D02*
X0583450Y0032079D01*
X0574057Y0031079D02*
X0574942D01*
X0581943Y0034472D02*
X0582551Y0033864D01*
X0380272Y0098843D02*
Y0103566D01*
X0374171Y0109666D02*
X0380272Y0103566D01*
X0360654Y0109666D02*
X0374171D01*
X0382240Y0098843D02*
Y0104414D01*
X0375189Y0111466D02*
X0382240Y0104414D01*
X0361400Y0111466D02*
X0375189D01*
X0384209Y0098843D02*
Y0105082D01*
X0375924Y0113366D02*
X0384209Y0105082D01*
X0362600Y0113366D02*
X0375924D01*
X0386177Y0098843D02*
Y0105823D01*
X0376834Y0115166D02*
X0386177Y0105823D01*
X0363346Y0115166D02*
X0376834D01*
X0388146Y0098843D02*
Y0106549D01*
X0377728Y0116966D02*
X0388146Y0106549D01*
X0364214Y0116966D02*
X0377728D01*
X0378734Y0118766D02*
X0390114Y0107386D01*
X0364960Y0118766D02*
X0378734D01*
X0390114Y0098843D02*
Y0107386D01*
X0379291Y0120866D02*
X0392083Y0108075D01*
X0365405Y0120866D02*
X0379291D01*
X0392083Y0098843D02*
Y0108075D01*
X0386140Y0116776D02*
X0394051Y0108865D01*
X0386140Y0116776D02*
Y0126366D01*
X0394051Y0098843D02*
Y0108865D01*
X0396020Y0098843D02*
Y0109413D01*
X0391740Y0116260D02*
X0397988Y0110012D01*
X0391740Y0116260D02*
Y0126366D01*
X0397988Y0098843D02*
Y0110012D01*
X0378303Y0098843D02*
Y0102775D01*
X0373212Y0107866D02*
X0378303Y0102775D01*
X0359300Y0107866D02*
X0373212D01*
X0403847Y0070843D02*
X0403894Y0070890D01*
X0464237Y0090100D02*
Y0092500D01*
X0684150Y0055500D02*
X0685150Y0056500D01*
X0703957Y0070890D02*
Y0081027D01*
X0776000Y0092389D02*
X0776111Y0092500D01*
X0324122Y0082318D02*
Y0083126D01*
X0690177Y0059043D02*
Y0070890D01*
X0686240Y0063806D02*
Y0070890D01*
X0685150Y0062716D02*
X0686240Y0063806D01*
X0657433Y0070890D02*
X0682303D01*
X0651616Y0076707D02*
X0657433Y0070890D01*
X0651616Y0076707D02*
Y0105384D01*
X0650000Y0075776D02*
X0662276Y0063500D01*
X0650000Y0075776D02*
Y0104400D01*
X0662276Y0063500D02*
X0682340D01*
X0691444Y0081374D02*
X0696083Y0076736D01*
X0645500Y0111500D02*
X0651616Y0105384D01*
X0636500Y0111500D02*
X0645500D01*
X0644500Y0109900D02*
X0650000Y0104400D01*
X0635300Y0109900D02*
X0644500D01*
X0696083Y0070890D02*
Y0076736D01*
X0385650Y0087366D02*
X0394051Y0078965D01*
X0378236Y0064602D02*
X0380272Y0066638D01*
X0307463Y0117264D02*
X0311361Y0113366D01*
X0287554Y0117264D02*
X0307463D01*
X0284452Y0120366D02*
X0287554Y0117264D01*
X0288348Y0119018D02*
X0308254D01*
X0284748Y0122618D02*
X0288348Y0119018D01*
X0308254D02*
X0312106Y0115166D01*
X0635376Y0123216D02*
X0640337Y0118255D01*
X0613798Y0124320D02*
X0614902Y0123216D01*
X0635376D01*
X0682340Y0063500D02*
X0684272Y0065432D01*
X0614518Y0121100D02*
X0635230D01*
X0611940Y0123678D02*
X0614518Y0121100D01*
X0611940Y0123678D02*
Y0125566D01*
X0613798Y0124320D02*
Y0128697D01*
X0613355Y0119500D02*
X0633950D01*
X0610555Y0122300D02*
X0613355Y0119500D01*
X0590818Y0122300D02*
X0610555D01*
X0609566Y0120700D02*
X0612366Y0117900D01*
X0590155Y0120700D02*
X0609566D01*
X0608903Y0119100D02*
X0611703Y0116300D01*
X0569018Y0119100D02*
X0608903D01*
X0608241Y0117500D02*
X0611041Y0114700D01*
X0568355Y0117500D02*
X0608241D01*
X0612366Y0117900D02*
X0633100D01*
X0611703Y0116300D02*
X0631700D01*
X0611041Y0114700D02*
X0630500D01*
X0612179Y0130316D02*
X0613798Y0128697D01*
X0561940Y0123915D02*
X0568355Y0117500D01*
X0561140Y0126366D02*
X0561940Y0125566D01*
Y0123915D02*
Y0125566D01*
X0630500Y0114700D02*
X0635300Y0109900D01*
X0684272Y0065432D02*
Y0070890D01*
X0689140Y0119211D02*
Y0128355D01*
Y0119211D02*
X0700020Y0108332D01*
Y0098843D02*
Y0108332D01*
X0701988Y0098843D02*
Y0108626D01*
X0691740Y0118874D02*
X0701988Y0108626D01*
X0691740Y0118874D02*
Y0126366D01*
X0698051Y0098843D02*
Y0107942D01*
X0686940Y0119053D02*
X0698051Y0107942D01*
X0686940Y0119053D02*
Y0125566D01*
X0696083Y0098843D02*
Y0107557D01*
X0681340Y0122300D02*
X0696083Y0107557D01*
X0694114Y0098843D02*
Y0107151D01*
X0680565Y0120700D02*
X0694114Y0107151D01*
X0692146Y0098843D02*
Y0106854D01*
X0679900Y0119100D02*
X0692146Y0106854D01*
X0690177Y0098843D02*
Y0106463D01*
X0679140Y0117500D02*
X0690177Y0106463D01*
X0664818Y0122300D02*
X0681340D01*
X0664155Y0120700D02*
X0680565D01*
X0663492Y0119100D02*
X0679900D01*
X0662500Y0117500D02*
X0679140D01*
X0688209Y0098843D02*
Y0105819D01*
X0678128Y0115900D02*
X0688209Y0105819D01*
X0661837Y0115900D02*
X0678128D01*
X0631700Y0116300D02*
X0636500Y0111500D01*
X0588740Y0124378D02*
X0590818Y0122300D01*
X0635230Y0121100D02*
X0639675Y0116655D01*
X0633950Y0119500D02*
X0638450Y0115000D01*
X0633100Y0117900D02*
X0637600Y0113400D01*
X0586940Y0123915D02*
X0590155Y0120700D01*
X0564140Y0123978D02*
X0569018Y0119100D01*
X0559260Y0131416D02*
X0560360Y0130316D01*
X0562179D01*
X0564140Y0128355D01*
Y0123978D02*
Y0128355D01*
X0399957Y0070890D02*
Y0081027D01*
X0388000Y0090516D02*
X0396020Y0082496D01*
Y0070890D02*
Y0082496D01*
X0389000Y0075397D02*
Y0075776D01*
X0392083Y0070890D02*
Y0076511D01*
X0658819Y0116655D02*
X0661174Y0114300D01*
X0659482Y0118255D02*
X0661837Y0115900D01*
X0711831Y0107305D02*
X0723536Y0119010D01*
X0639675Y0116655D02*
X0658819D01*
X0640337Y0118255D02*
X0659482D01*
X0738298Y0119010D02*
X0741560Y0122272D01*
X0762034D01*
X0763740Y0123978D01*
X0424950Y0057500D02*
X0430050D01*
X0713740Y0119112D02*
Y0128755D01*
X0703957Y0109328D02*
X0713740Y0119112D01*
X0703957Y0098843D02*
Y0109328D01*
X0716740Y0119240D02*
Y0126366D01*
X0705925Y0108425D02*
X0716740Y0119240D01*
X0705925Y0098843D02*
Y0108425D01*
X0707894Y0107894D02*
X0722210Y0122210D01*
X0707894Y0098843D02*
Y0107894D01*
X0709862Y0107599D02*
X0722873Y0120610D01*
X0709862Y0098843D02*
Y0107599D01*
X0711831Y0098843D02*
Y0107305D01*
X0713799Y0106799D02*
X0724410Y0117410D01*
X0713799Y0098843D02*
Y0106799D01*
X0715768Y0106505D02*
X0724763Y0115500D01*
X0715768Y0098843D02*
Y0106505D01*
X0725371Y0113845D02*
X0739921D01*
X0717736Y0106211D02*
X0725371Y0113845D01*
X0717736Y0098843D02*
Y0106211D01*
X0723536Y0119010D02*
X0738298D01*
X0722873Y0120610D02*
X0737635D01*
X0722210Y0122210D02*
X0736973D01*
X0724763Y0115500D02*
X0739314D01*
X0724410Y0117410D02*
X0738961D01*
X0726245Y0112245D02*
X0740584D01*
X0719705Y0105705D02*
X0726245Y0112245D01*
X0719705Y0098843D02*
Y0105705D01*
X0727185Y0110645D02*
X0741247D01*
X0721673Y0105134D02*
X0727185Y0110645D01*
X0721673Y0098843D02*
Y0105134D01*
X0728233Y0109045D02*
X0741910D01*
X0723642Y0104454D02*
X0728233Y0109045D01*
X0723642Y0098843D02*
Y0104454D01*
X0729764Y0107445D02*
X0742572D01*
X0725610Y0103291D02*
X0729764Y0107445D01*
X0725610Y0098843D02*
Y0103291D01*
X0739921Y0113845D02*
X0743548Y0117472D01*
X0740584Y0112245D02*
X0744211Y0115872D01*
X0741247Y0110645D02*
X0744873Y0114272D01*
X0741910Y0109045D02*
X0745536Y0112672D01*
X0742572Y0107445D02*
X0746199Y0111072D01*
X0739314Y0115500D02*
X0742885Y0119072D01*
X0736973Y0122210D02*
X0738740Y0123978D01*
X0737635Y0120610D02*
X0740340Y0123315D01*
X0738961Y0117410D02*
X0742222Y0120672D01*
X0740897Y0123872D02*
X0740940Y0123915D01*
X0738740Y0123978D02*
Y0128755D01*
X0740340Y0123589D02*
X0740623Y0123872D01*
X0740340Y0123315D02*
Y0123589D01*
X0740623Y0123872D02*
X0740897D01*
X0742885Y0119072D02*
X0763360D01*
X0742222Y0120672D02*
X0762697D01*
X0765940Y0123915D01*
X0763360Y0119072D02*
X0767288Y0123000D01*
X0765940Y0123915D02*
Y0125566D01*
X0763740Y0123978D02*
Y0128755D01*
X0767288Y0123000D02*
X0787762D01*
X0841000Y0125626D02*
X0841740Y0126366D01*
X0740940Y0125566D02*
X0741740Y0126366D01*
X0740940Y0123915D02*
Y0125566D01*
X0834260Y0131416D02*
X0835360Y0130316D01*
X0837179D01*
X0809260Y0131416D02*
X0810360Y0130316D01*
X0812179D01*
X0784260Y0131416D02*
X0785360Y0130316D01*
X0787179D01*
X0765940Y0125566D02*
X0766740Y0126366D01*
X0762179Y0130316D02*
X0763740Y0128755D01*
X0760360Y0130316D02*
X0762179D01*
X0759260Y0131416D02*
X0760360Y0130316D01*
X0737179D02*
X0738740Y0128755D01*
X0735360Y0130316D02*
X0737179D01*
X0734260Y0131416D02*
X0735360Y0130316D01*
X0709260Y0131416D02*
X0710360Y0130316D01*
X0712179D01*
X0713740Y0128755D01*
X0686240Y0098843D02*
Y0105260D01*
X0677200Y0114300D02*
X0686240Y0105260D01*
X0661174Y0114300D02*
X0677200D01*
X0684272Y0098843D02*
Y0104319D01*
X0676063Y0112528D02*
X0684272Y0104319D01*
X0660276Y0112528D02*
X0676063D01*
X0682303Y0098843D02*
Y0103697D01*
X0675238Y0110763D02*
X0682303Y0103697D01*
X0659237Y0110763D02*
X0675238D01*
X0586140Y0126366D02*
X0586940Y0125566D01*
Y0123915D02*
Y0125566D01*
X0637600Y0113400D02*
X0656600D01*
X0659237Y0110763D01*
X0657804Y0115000D02*
X0660276Y0112528D01*
X0638450Y0115000D02*
X0657804D01*
X0584260Y0131416D02*
X0585360Y0130316D01*
X0587179D01*
X0588740Y0128755D01*
Y0124378D02*
Y0128755D01*
X0686140Y0126366D02*
X0686940Y0125566D01*
X0611140Y0126366D02*
X0611940Y0125566D01*
X0609260Y0131416D02*
X0610360Y0130316D01*
X0612179D01*
X0636940Y0123915D02*
X0641000Y0119855D01*
X0660145D02*
X0662500Y0117500D01*
X0641000Y0119855D02*
X0660145D01*
X0660940Y0123915D02*
X0664155Y0120700D01*
X0663140Y0123978D02*
X0664818Y0122300D01*
X0660474Y0122118D02*
X0663492Y0119100D01*
X0636140Y0126366D02*
X0636940Y0125566D01*
Y0123915D02*
Y0125566D01*
X0663140Y0123978D02*
Y0128355D01*
X0641000Y0122118D02*
X0660474D01*
X0638740Y0124378D02*
X0641000Y0122118D01*
X0634260Y0131416D02*
X0635360Y0130316D01*
X0637179D01*
X0638740Y0128755D01*
Y0124378D02*
Y0128755D01*
X0660140Y0126366D02*
X0660940Y0125566D01*
Y0123915D02*
Y0125566D01*
X0658260Y0131416D02*
X0659360Y0130316D01*
X0661179D01*
X0663140Y0128355D01*
X0684260Y0131416D02*
X0685360Y0130316D01*
X0687179D01*
X0689140Y0128355D01*
X0721673Y0062923D02*
Y0070890D01*
X0719750Y0061000D02*
X0721673Y0062923D01*
X0723642Y0063008D02*
X0725650Y0061000D01*
X0394051Y0070890D02*
Y0078965D01*
X0311940Y0123632D02*
X0315006Y0120566D01*
X0311940Y0123632D02*
Y0125566D01*
X0315006Y0120566D02*
X0334254D01*
X0315752Y0122366D02*
X0335000D01*
X0313940Y0124178D02*
X0315752Y0122366D01*
X0313940Y0124178D02*
Y0128555D01*
X0727501Y0100000D02*
X0735016D01*
X0727501Y0099999D02*
Y0100000D01*
Y0099999D02*
X0727579Y0099921D01*
Y0098843D02*
Y0099921D01*
X0735016Y0100000D02*
X0736531Y0101516D01*
X0744509D02*
X0744558Y0101467D01*
X0736531Y0101516D02*
X0744509D01*
X0432500Y0101516D02*
X0432549Y0101467D01*
X0440526D01*
X0423579Y0098843D02*
Y0099917D01*
X0423669Y0100008D01*
X0430992D01*
X0432500Y0101516D01*
X0389000Y0075397D02*
X0389068Y0075329D01*
X0388146Y0070890D02*
X0388158Y0070902D01*
X0390024Y0070980D02*
X0390114Y0070890D01*
X0510152Y0101259D02*
Y0102866D01*
X0493446Y0067067D02*
X0499560Y0073181D01*
X0518026Y0073866D02*
X0519298Y0075138D01*
X0524222D02*
X0524500Y0075416D01*
X0442346Y0114216D02*
X0444968Y0116838D01*
X0441601Y0116016D02*
X0444222Y0118638D01*
X0403972Y0098921D02*
Y0109118D01*
X0343588Y0123226D02*
X0357954D01*
X0445124Y0108816D02*
X0447746Y0111437D01*
X0444379Y0110616D02*
X0447000Y0113238D01*
X0443379Y0112416D02*
X0446000Y0115038D01*
X0447746Y0111437D02*
X0466473D01*
X0470702Y0115666D01*
X0490611D01*
X0493711Y0118766D01*
X0447000Y0113238D02*
X0465728D01*
X0469956Y0117466D01*
X0489865D01*
X0492965Y0120566D01*
X0446000Y0115038D02*
X0464982D01*
X0469211Y0119266D01*
X0489120D01*
X0492660Y0122806D01*
X0512569D01*
X0444968Y0116838D02*
X0464237D01*
X0468465Y0121066D01*
X0488374D01*
X0357346Y0121166D02*
X0363346Y0115166D01*
X0339406Y0121166D02*
X0357346D01*
X0336940Y0123632D02*
X0339406Y0121166D01*
X0336940Y0123632D02*
Y0125566D01*
X0336140Y0126298D02*
X0336940Y0125566D01*
X0357954Y0123226D02*
X0364214Y0116966D01*
X0403972Y0109118D02*
X0418070Y0123216D01*
X0437979D01*
X0437179Y0130316D02*
X0438740Y0128755D01*
X0435360Y0130316D02*
X0437179D01*
X0434260Y0131416D02*
X0435360Y0130316D01*
X0444222Y0118638D02*
X0463491D01*
X0467720Y0122866D01*
X0487629D01*
X0485360Y0130316D02*
X0487179D01*
X0484260Y0131416D02*
X0485360Y0130316D01*
X0399957Y0098843D02*
Y0110194D01*
X0413740Y0123978D01*
X0401925Y0098843D02*
Y0109617D01*
X0415540Y0123232D01*
X0405862Y0098843D02*
Y0108463D01*
X0418815Y0121416D01*
X0407831Y0098843D02*
Y0107886D01*
X0419561Y0119616D01*
X0409799Y0098843D02*
Y0107309D01*
X0420306Y0117816D01*
X0419642Y0098843D02*
Y0104423D01*
X0424034Y0108816D01*
X0417673Y0098843D02*
Y0105001D01*
X0423289Y0110616D01*
X0415705Y0098843D02*
Y0105578D01*
X0422543Y0112416D01*
X0413736Y0098843D02*
Y0106155D01*
X0421798Y0114216D01*
X0411768Y0098843D02*
Y0106732D01*
X0421052Y0116016D01*
X0496946Y0082866D02*
X0497068Y0082744D01*
X0467871Y0109637D02*
X0472100Y0113866D01*
X0492091D01*
X0495191Y0116966D01*
X0539071Y0120938D02*
X0541740Y0123606D01*
X0448500Y0109637D02*
X0467871D01*
X0445729Y0106866D02*
X0448500Y0109637D01*
X0425110Y0106866D02*
X0445729D01*
X0421610Y0103366D02*
X0425110Y0106866D01*
X0421610Y0098843D02*
Y0103366D01*
X0437979Y0123216D02*
X0438740Y0123978D01*
X0418815Y0121416D02*
X0439050D01*
X0441650Y0124016D01*
X0419561Y0119616D02*
X0440110D01*
X0442731Y0122238D01*
X0420306Y0117816D02*
X0440855D01*
X0443476Y0120438D01*
X0421052Y0116016D02*
X0441601D01*
X0421798Y0114216D02*
X0442346D01*
X0422543Y0112416D02*
X0443379D01*
X0423289Y0110616D02*
X0444379D01*
X0424034Y0108816D02*
X0445124D01*
X0413740Y0123978D02*
Y0128755D01*
X0415540Y0123232D02*
Y0123244D01*
X0416604Y0124307D01*
Y0126230D01*
X0534260Y0131416D02*
X0534860Y0130816D01*
X0536679D01*
X0509260Y0131416D02*
X0509860Y0130816D01*
X0511679D01*
X0443476Y0120438D02*
X0462746D01*
X0466740Y0124432D01*
Y0126366D01*
X0442731Y0122238D02*
X0462000D01*
X0416604Y0126230D02*
X0416740Y0126366D01*
X0459860Y0130816D02*
X0461679D01*
X0459260Y0131416D02*
X0459860Y0130816D01*
X0441650Y0124016D02*
Y0126276D01*
X0438740Y0123978D02*
Y0128755D01*
X0441650Y0126276D02*
X0441740Y0126366D01*
X0403894Y0098843D02*
X0403972Y0098921D01*
X0409260Y0131416D02*
X0409860Y0130816D01*
X0411679D01*
X0413740Y0128755D01*
X0289268Y0120818D02*
X0309000D01*
X0312852Y0116966D01*
X0309964Y0122618D02*
X0313816Y0118766D01*
X0264000Y0120366D02*
X0284452D01*
X0261140Y0123226D02*
X0264000Y0120366D01*
X0265500Y0122618D02*
X0284748D01*
X0263940Y0124178D02*
X0265500Y0122618D01*
X0311361Y0113366D02*
X0330000D01*
X0333500Y0109866D01*
X0312106Y0115166D02*
X0331200D01*
X0334500Y0111866D01*
X0332754Y0116966D02*
X0335754Y0113966D01*
X0353200D01*
X0333500Y0118766D02*
X0336500Y0115766D01*
X0354554D01*
X0334254Y0120566D02*
X0337254Y0117566D01*
X0355300D01*
X0335000Y0122366D02*
X0338000Y0119366D01*
X0356600D01*
X0353200Y0113966D02*
X0359300Y0107866D01*
X0354554Y0115766D02*
X0360654Y0109666D01*
X0355300Y0117566D02*
X0361400Y0111466D01*
X0356600Y0119366D02*
X0362600Y0113366D01*
X0312852Y0116966D02*
X0332754D01*
X0384260Y0131916D02*
X0385360Y0130816D01*
X0386679D01*
X0309260Y0131916D02*
X0310245Y0130930D01*
X0311564D01*
X0312979Y0129516D01*
Y0129516D02*
Y0129516D01*
X0361140Y0122586D02*
X0364960Y0118766D01*
X0313816D02*
X0333500D01*
X0311140Y0126366D02*
X0311940Y0125566D01*
X0338940Y0124178D02*
X0339902Y0123216D01*
X0343579D01*
X0343588Y0123226D01*
X0360181Y0130995D02*
X0361500D01*
X0359260Y0131916D02*
X0360181Y0130995D01*
X0312979Y0129516D02*
X0313940Y0128555D01*
X0335245Y0130930D02*
X0336564D01*
X0338940Y0128555D01*
X0334260Y0131916D02*
X0335245Y0130930D01*
X0338940Y0124178D02*
Y0128555D01*
X0285205Y0131018D02*
X0286524D01*
X0361140Y0122586D02*
Y0126366D01*
X0263940Y0124178D02*
Y0128555D01*
X0260310Y0130866D02*
X0261629D01*
X0263940Y0128555D01*
X0380272Y0066638D02*
Y0070890D01*
D21*
X0841740Y0137466D02*
Y0143839D01*
Y0126366D02*
X0841915Y0126541D01*
X0841740Y0126366D02*
X0852589Y0115517D01*
X0789467Y0101467D02*
X0802600Y0114600D01*
X0839127D01*
X0841740Y0131266D02*
X0841915Y0131091D01*
Y0126541D02*
Y0131091D01*
X0693000Y0063180D02*
Y0076000D01*
X0667366Y0075075D02*
X0671817D01*
X0696950Y0056413D02*
Y0057200D01*
X0785765Y0083835D02*
X0793938D01*
X0776000Y0092389D02*
X0777211D01*
X0828100Y0018550D02*
Y0021450D01*
Y0024650D01*
X0821992Y0021450D02*
X0828100D01*
X0821842Y0021600D02*
X0821992Y0021450D01*
X0725800Y0044300D02*
Y0048400D01*
X0474100Y0092500D02*
X0482900Y0083700D01*
X0489168Y0083400D02*
X0489823Y0082744D01*
X0482600Y0083400D02*
X0489168D01*
X0510152Y0081524D02*
Y0081717D01*
Y0073866D02*
Y0081524D01*
X0785500Y0084100D02*
X0785765Y0083835D01*
X0777211Y0092389D02*
X0785500Y0084100D01*
X0482115Y0083400D02*
X0482600D01*
X0482900Y0083700D01*
X0814266Y0103957D02*
X0814388D01*
Y0074957D02*
Y0081524D01*
X0806514Y0103957D02*
X0807605Y0102866D01*
X0814388Y0081524D02*
X0817024D01*
X0841740Y0137316D02*
Y0137466D01*
X0750608Y0101467D02*
X0789467D01*
X0750458D02*
X0750608D01*
X0249500Y0126566D02*
X0261140D01*
X0249500Y0131766D02*
Y0131916D01*
Y0126998D02*
Y0131766D01*
Y0126648D02*
Y0126998D01*
X0611875Y0036000D02*
X0616133D01*
X0611683D02*
X0611875D01*
X0368604Y0074848D02*
X0368651Y0074801D01*
X0364296Y0074848D02*
X0368604D01*
X0368700Y0074950D02*
X0368800Y0074850D01*
X0364200Y0074752D02*
X0364296Y0074848D01*
X0541740Y0137466D02*
Y0143839D01*
X0524300Y0081516D02*
X0524500Y0081316D01*
X0541740Y0137316D02*
Y0137466D01*
X0791740Y0126366D02*
Y0131416D01*
X0816740Y0126366D02*
Y0131416D01*
X0810790Y0126366D02*
X0811140D01*
X0792090D02*
X0810790D01*
X0791740D02*
X0792090D01*
X0835790D02*
X0836140D01*
X0817090D02*
X0835790D01*
X0816740D02*
X0817090D01*
X0516740D02*
Y0131416D01*
X0535890Y0126366D02*
X0536140D01*
X0516990D02*
X0535890D01*
X0516740D02*
X0516990D01*
X0560890D02*
X0561140D01*
X0541990D02*
X0560890D01*
X0541740D02*
X0541990D01*
X0541740D02*
Y0131416D01*
X0510890Y0126366D02*
X0511140D01*
X0491990D02*
X0510890D01*
X0491740D02*
X0491990D01*
X0491740D02*
Y0131416D01*
X0291764Y0143839D02*
Y0143862D01*
Y0137840D02*
Y0143839D01*
X0336139Y0126216D02*
X0336139D01*
X0316740Y0126366D02*
X0336139Y0126216D01*
X0291764Y0126398D02*
X0311140D01*
X0291764D02*
Y0131940D01*
X0266740Y0126366D02*
X0286300D01*
X0693047Y0061211D02*
X0693080Y0061245D01*
Y0063032D01*
X0693114Y0063066D01*
X0405862Y0057787D02*
X0405925Y0057850D01*
X0405933D01*
X0472111Y0092500D02*
X0474100D01*
X0400176Y0057387D02*
X0400240Y0057450D01*
X0400300D01*
X0392740Y0056876D02*
X0392771Y0056907D01*
X0241000Y0127000D02*
Y0131381D01*
X0241500Y0131881D01*
X0527100Y0036100D02*
X0531550D01*
X0435950Y0053500D02*
Y0057500D01*
X0249500Y0116884D02*
Y0121048D01*
X0524300Y0081516D02*
Y0110900D01*
X0814388Y0089106D02*
Y0092000D01*
X0822262Y0075416D02*
X0828614D01*
X0814266Y0103957D02*
Y0103957D01*
Y0102866D02*
Y0103957D01*
Y0102866D02*
Y0102866D01*
Y0102472D02*
Y0102866D01*
X0807605Y0102866D02*
X0814266D01*
X0678000Y0051500D02*
X0681068D01*
X0675500Y0060000D02*
X0678850D01*
X0693000Y0063180D02*
X0693114Y0063066D01*
X0671750Y0093565D02*
Y0096400D01*
X0368800Y0093565D02*
Y0096400D01*
X0370500Y0060000D02*
X0373850D01*
X0373000Y0051500D02*
X0376068D01*
X0700000Y0126366D02*
X0711140D01*
X0796500Y0068217D02*
X0802555Y0074272D01*
X0813703D01*
X0801182Y0083835D02*
Y0092457D01*
X0743432Y0095217D02*
X0743432Y0095217D01*
X0736531Y0095217D02*
X0743432D01*
X0736531Y0095217D02*
X0736531Y0095217D01*
X0510152Y0088016D02*
Y0091866D01*
X0502278Y0102866D02*
X0510152D01*
X0499560Y0073181D02*
X0509467D01*
X0519298Y0075138D02*
X0524222D01*
X0496946Y0082866D02*
Y0091366D01*
X0838000Y0166816D02*
Y0171929D01*
X0813000Y0166816D02*
Y0171929D01*
X0788000Y0166816D02*
Y0171929D01*
X0763000Y0166816D02*
Y0171929D01*
X0738000Y0166816D02*
Y0171929D01*
X0713000Y0166816D02*
Y0171929D01*
X0687984D02*
X0687992Y0171921D01*
Y0166824D02*
Y0171921D01*
Y0166824D02*
X0688000Y0166816D01*
X0663000D02*
Y0171929D01*
X0638000Y0166816D02*
Y0171929D01*
X0613000Y0166816D02*
Y0171929D01*
X0588000Y0166816D02*
Y0171929D01*
X0563000Y0166816D02*
Y0171929D01*
X0538000Y0166816D02*
Y0171929D01*
X0513000Y0166816D02*
Y0171929D01*
X0488000Y0166816D02*
Y0171929D01*
X0463000Y0166816D02*
Y0171929D01*
X0438000Y0166816D02*
Y0171929D01*
X0413000Y0166816D02*
Y0171929D01*
X0388000Y0166816D02*
Y0171929D01*
X0363000Y0166816D02*
Y0171929D01*
X0313000Y0166816D02*
Y0171929D01*
X0338000Y0166816D02*
Y0171929D01*
X0288008Y0171850D02*
X0288016Y0171858D01*
X0288032Y0166848D02*
Y0171874D01*
X0288000Y0166816D02*
X0288008Y0166824D01*
X0288024Y0152917D02*
Y0160940D01*
X0766740Y0126366D02*
X0775500D01*
X0786140D01*
X0741740D02*
X0750500D01*
X0761140D01*
X0716740D02*
X0725500D01*
X0736140D01*
X0691740D02*
X0700000D01*
X0700423Y0126790D01*
X0665740Y0126366D02*
X0675500D01*
X0686140D01*
X0641740D02*
X0650500D01*
X0660140D01*
X0616740D02*
X0625000D01*
X0636140D01*
X0625000D02*
X0625423Y0126790D01*
X0591740Y0126366D02*
X0600000D01*
X0611140D01*
X0566740D02*
X0575000D01*
X0586140D01*
X0575000D02*
X0575423Y0126790D01*
X0466740Y0126366D02*
X0486140D01*
X0441740D02*
X0461140D01*
X0416740D02*
X0436140D01*
X0391740D02*
X0411140D01*
X0366740D02*
X0386140D01*
X0341740D02*
X0361140D01*
X0766740D02*
Y0131416D01*
X0741740Y0126366D02*
Y0131416D01*
X0716740Y0126366D02*
Y0131416D01*
X0691740Y0126366D02*
Y0131416D01*
X0665740Y0126366D02*
Y0131416D01*
X0641740Y0126366D02*
Y0131416D01*
X0616740Y0126366D02*
Y0131416D01*
X0591740Y0126366D02*
Y0131416D01*
X0566740Y0126366D02*
Y0131416D01*
X0466740Y0126366D02*
Y0131416D01*
X0441740Y0126366D02*
Y0131416D01*
X0416740Y0126366D02*
Y0131416D01*
X0391740Y0126366D02*
Y0131916D01*
X0366740Y0126366D02*
Y0131916D01*
X0341740Y0126366D02*
Y0131916D01*
X0316740Y0126366D02*
Y0131916D01*
X0266740Y0126366D02*
Y0131916D01*
X0834260Y0137316D02*
Y0143839D01*
X0816740Y0137316D02*
Y0143839D01*
X0809260Y0137316D02*
Y0143839D01*
X0791740Y0137316D02*
Y0143839D01*
X0784260Y0137316D02*
Y0143839D01*
X0766740Y0137316D02*
Y0143839D01*
X0759260Y0137316D02*
Y0143839D01*
X0741740Y0137316D02*
Y0143839D01*
X0734260Y0137316D02*
Y0143839D01*
X0716740Y0137316D02*
Y0143839D01*
X0709260Y0137316D02*
Y0143839D01*
X0691740Y0137316D02*
Y0143839D01*
X0684260Y0137316D02*
Y0143839D01*
X0665740Y0137316D02*
Y0143839D01*
X0658260Y0137316D02*
Y0143839D01*
X0641740Y0137316D02*
Y0143839D01*
X0634260Y0137316D02*
Y0143839D01*
X0616740Y0137316D02*
Y0143839D01*
X0609260Y0137316D02*
Y0143839D01*
X0591740Y0137316D02*
Y0143839D01*
X0584260Y0137316D02*
Y0143839D01*
X0566740Y0137316D02*
Y0143839D01*
X0559260Y0137316D02*
Y0143839D01*
X0534260Y0137316D02*
Y0143839D01*
X0516740Y0137316D02*
Y0143839D01*
X0509260Y0137316D02*
Y0143839D01*
X0491740Y0137316D02*
Y0143839D01*
X0484260Y0137316D02*
Y0143839D01*
X0466740Y0137316D02*
Y0143839D01*
X0459260Y0137316D02*
Y0143839D01*
X0441740Y0137316D02*
Y0143839D01*
X0434260Y0137316D02*
Y0143839D01*
X0416740Y0137316D02*
Y0143839D01*
X0409260Y0137316D02*
Y0143839D01*
X0391740Y0137816D02*
Y0143839D01*
X0384260Y0137816D02*
Y0143839D01*
X0366740Y0137816D02*
Y0143839D01*
X0359260Y0137816D02*
Y0143839D01*
X0341740Y0137816D02*
Y0143839D01*
X0334260Y0137816D02*
Y0143839D01*
X0316740Y0137816D02*
Y0143839D01*
X0309260Y0137816D02*
Y0143839D01*
X0284283Y0137840D02*
Y0143862D01*
X0266740Y0137816D02*
Y0143839D01*
X0263000Y0152894D02*
Y0160916D01*
X0259260Y0137816D02*
Y0143839D01*
X0263000Y0167508D02*
Y0171929D01*
D22*
X0914227Y0067127D02*
D03*
X0909773Y0062673D02*
D03*
D23*
X0908420Y0054171D02*
D03*
X0884729Y0030480D02*
D03*
X0881193Y0034016D02*
D03*
X0877658Y0037551D02*
D03*
X0874122Y0041087D02*
D03*
X0870587Y0044622D02*
D03*
X0867051Y0048158D02*
D03*
X0863516Y0051693D02*
D03*
X0859980Y0055229D02*
D03*
X0883671Y0078920D02*
D03*
X0887207Y0075384D02*
D03*
X0890742Y0071849D02*
D03*
X0894278Y0068313D02*
D03*
X0897813Y0064778D02*
D03*
X0901349Y0061242D02*
D03*
X0904884Y0057707D02*
D03*
D24*
X0421610Y0070890D02*
D03*
X0423579Y0098843D02*
D03*
X0421610D02*
D03*
X0419642D02*
D03*
X0417673D02*
D03*
X0415705D02*
D03*
X0413736D02*
D03*
X0411768D02*
D03*
X0409799D02*
D03*
X0407831D02*
D03*
X0405862D02*
D03*
X0403894D02*
D03*
X0401925D02*
D03*
X0399957D02*
D03*
X0397988D02*
D03*
X0396020D02*
D03*
X0394051D02*
D03*
X0392083D02*
D03*
X0390114D02*
D03*
X0388146D02*
D03*
X0386177D02*
D03*
X0384209D02*
D03*
X0382240D02*
D03*
X0380272D02*
D03*
X0378303D02*
D03*
Y0070890D02*
D03*
X0380272D02*
D03*
X0382240D02*
D03*
X0384209D02*
D03*
X0386177D02*
D03*
X0388146D02*
D03*
X0390114D02*
D03*
X0392083D02*
D03*
X0394051D02*
D03*
X0396020D02*
D03*
X0397988D02*
D03*
X0399957D02*
D03*
X0401925D02*
D03*
X0403894D02*
D03*
X0405862D02*
D03*
X0407831D02*
D03*
X0409799D02*
D03*
X0411768D02*
D03*
X0413736D02*
D03*
X0415705D02*
D03*
X0417673D02*
D03*
X0419642D02*
D03*
X0423579D02*
D03*
X0727579D02*
D03*
X0725610D02*
D03*
X0723642D02*
D03*
X0721673D02*
D03*
X0719705D02*
D03*
X0717736D02*
D03*
X0715768D02*
D03*
X0713799D02*
D03*
X0711831D02*
D03*
X0709862D02*
D03*
X0707894D02*
D03*
X0705925D02*
D03*
X0703957D02*
D03*
X0701988D02*
D03*
X0700020D02*
D03*
X0698051D02*
D03*
X0696083D02*
D03*
X0694114D02*
D03*
X0692146D02*
D03*
X0690177D02*
D03*
X0688209D02*
D03*
X0686240D02*
D03*
X0684272D02*
D03*
X0682303D02*
D03*
Y0098843D02*
D03*
X0684272D02*
D03*
X0686240D02*
D03*
X0688209D02*
D03*
X0690177D02*
D03*
X0692146D02*
D03*
X0694114D02*
D03*
X0696083D02*
D03*
X0698051D02*
D03*
X0700020D02*
D03*
X0701988D02*
D03*
X0703957D02*
D03*
X0705925D02*
D03*
X0707894D02*
D03*
X0709862D02*
D03*
X0711831D02*
D03*
X0713799D02*
D03*
X0715768D02*
D03*
X0717736D02*
D03*
X0719705D02*
D03*
X0721673D02*
D03*
X0723642D02*
D03*
X0725610D02*
D03*
X0727579D02*
D03*
D25*
X0171148Y0109900D02*
D03*
X0204652Y0119900D02*
D03*
Y0114900D02*
D03*
Y0109900D02*
D03*
Y0104900D02*
D03*
Y0099900D02*
D03*
Y0094900D02*
D03*
Y0089900D02*
D03*
Y0084900D02*
D03*
X0171148D02*
D03*
Y0089900D02*
D03*
Y0094900D02*
D03*
Y0099900D02*
D03*
Y0104900D02*
D03*
Y0114900D02*
D03*
Y0119900D02*
D03*
D26*
X0288701Y0026900D02*
D03*
X0828100Y0024650D02*
D03*
Y0030850D02*
D03*
Y0012350D02*
D03*
Y0018550D02*
D03*
X0288701Y0033100D02*
D03*
Y0038400D02*
D03*
Y0044600D02*
D03*
X0249500Y0131766D02*
D03*
Y0137966D02*
D03*
X0259260D02*
D03*
Y0131766D02*
D03*
X0266740D02*
D03*
Y0137966D02*
D03*
X0284283Y0137990D02*
D03*
Y0131790D02*
D03*
X0291764D02*
D03*
Y0137990D02*
D03*
X0309260Y0137966D02*
D03*
Y0131766D02*
D03*
X0316740D02*
D03*
Y0137966D02*
D03*
X0334260D02*
D03*
Y0131766D02*
D03*
X0341740D02*
D03*
Y0137966D02*
D03*
X0359260D02*
D03*
Y0131766D02*
D03*
X0366740D02*
D03*
Y0137966D02*
D03*
X0384260D02*
D03*
Y0131766D02*
D03*
X0391740D02*
D03*
Y0137966D02*
D03*
X0409260Y0137466D02*
D03*
Y0131266D02*
D03*
X0416740D02*
D03*
Y0137466D02*
D03*
X0434260D02*
D03*
Y0131266D02*
D03*
X0838000Y0166966D02*
D03*
Y0160766D02*
D03*
X0813000D02*
D03*
Y0166966D02*
D03*
X0788000D02*
D03*
Y0160766D02*
D03*
X0763000D02*
D03*
Y0166966D02*
D03*
X0738000D02*
D03*
Y0160766D02*
D03*
X0713000D02*
D03*
Y0166966D02*
D03*
X0688000D02*
D03*
Y0160766D02*
D03*
X0663000D02*
D03*
Y0166966D02*
D03*
X0638000D02*
D03*
Y0160766D02*
D03*
X0613000D02*
D03*
Y0166966D02*
D03*
X0588000D02*
D03*
Y0160766D02*
D03*
X0563000D02*
D03*
Y0166966D02*
D03*
X0550500Y0139266D02*
D03*
Y0145466D02*
D03*
X0841740Y0137466D02*
D03*
Y0131266D02*
D03*
X0834260D02*
D03*
Y0137466D02*
D03*
X0816740D02*
D03*
Y0131266D02*
D03*
X0809260D02*
D03*
Y0137466D02*
D03*
X0791740D02*
D03*
Y0131266D02*
D03*
X0784260D02*
D03*
Y0137466D02*
D03*
X0766740D02*
D03*
Y0131266D02*
D03*
X0759260D02*
D03*
Y0137466D02*
D03*
X0741740D02*
D03*
Y0131266D02*
D03*
X0734260D02*
D03*
Y0137466D02*
D03*
X0716740D02*
D03*
Y0131266D02*
D03*
X0709260D02*
D03*
Y0137466D02*
D03*
X0691740D02*
D03*
Y0131266D02*
D03*
X0684260D02*
D03*
Y0137466D02*
D03*
X0665740D02*
D03*
Y0131266D02*
D03*
X0658260D02*
D03*
Y0137466D02*
D03*
X0641740D02*
D03*
Y0131266D02*
D03*
X0634260D02*
D03*
Y0137466D02*
D03*
X0616740D02*
D03*
Y0131266D02*
D03*
X0609260D02*
D03*
Y0137466D02*
D03*
X0591740D02*
D03*
Y0131266D02*
D03*
X0584260D02*
D03*
Y0137466D02*
D03*
X0566740D02*
D03*
Y0131266D02*
D03*
X0559260D02*
D03*
Y0137466D02*
D03*
X0538000Y0160766D02*
D03*
Y0166966D02*
D03*
X0513000D02*
D03*
Y0160766D02*
D03*
X0488000D02*
D03*
Y0166966D02*
D03*
X0463000D02*
D03*
Y0160766D02*
D03*
X0438000D02*
D03*
Y0166966D02*
D03*
X0413000D02*
D03*
Y0160766D02*
D03*
X0388000D02*
D03*
Y0166966D02*
D03*
X0363000D02*
D03*
Y0160766D02*
D03*
X0338000D02*
D03*
Y0166966D02*
D03*
X0313000D02*
D03*
Y0160766D02*
D03*
X0288024Y0160790D02*
D03*
Y0166990D02*
D03*
X0263000Y0166966D02*
D03*
Y0160766D02*
D03*
X0241500Y0137931D02*
D03*
Y0131731D02*
D03*
X0541740Y0131266D02*
D03*
Y0137466D02*
D03*
X0534260D02*
D03*
Y0131266D02*
D03*
X0516740D02*
D03*
Y0137466D02*
D03*
X0509260D02*
D03*
Y0131266D02*
D03*
X0491740D02*
D03*
Y0137466D02*
D03*
X0484260D02*
D03*
Y0131266D02*
D03*
X0466740D02*
D03*
Y0137466D02*
D03*
X0459260D02*
D03*
Y0131266D02*
D03*
X0441740D02*
D03*
Y0137466D02*
D03*
X0725800Y0048400D02*
D03*
Y0054600D02*
D03*
X0544448Y0033600D02*
D03*
Y0027400D02*
D03*
Y0044600D02*
D03*
Y0038400D02*
D03*
X0828614Y0081466D02*
D03*
Y0075266D02*
D03*
X0524500Y0075266D02*
D03*
Y0081466D02*
D03*
X0599100Y0027400D02*
D03*
Y0033600D02*
D03*
Y0044600D02*
D03*
Y0038400D02*
D03*
D27*
X0163650Y0114900D02*
D03*
X0157350D02*
D03*
X0219650D02*
D03*
X0213350D02*
D03*
X0835790Y0126366D02*
D03*
X0842090D02*
D03*
X0817090D02*
D03*
X0810790D02*
D03*
X0785790D02*
D03*
X0792090D02*
D03*
X0767090D02*
D03*
X0760790D02*
D03*
X0735790D02*
D03*
X0742090D02*
D03*
X0717090D02*
D03*
X0710790D02*
D03*
X0685790D02*
D03*
X0692090D02*
D03*
X0666090D02*
D03*
X0659790D02*
D03*
X0635790D02*
D03*
X0642090D02*
D03*
X0617090D02*
D03*
X0610790D02*
D03*
X0585790D02*
D03*
X0592090D02*
D03*
X0567090D02*
D03*
X0560790D02*
D03*
X0535790D02*
D03*
X0542090D02*
D03*
X0517090D02*
D03*
X0510790D02*
D03*
X0485790D02*
D03*
X0492090D02*
D03*
X0467090D02*
D03*
X0460790D02*
D03*
X0435790D02*
D03*
X0442090D02*
D03*
X0417090D02*
D03*
X0410790D02*
D03*
X0385790D02*
D03*
X0392090D02*
D03*
X0367090D02*
D03*
X0360790D02*
D03*
X0335790D02*
D03*
X0342090D02*
D03*
X0317090D02*
D03*
X0310790D02*
D03*
X0285814Y0126390D02*
D03*
X0292114D02*
D03*
X0267090Y0126366D02*
D03*
X0260790D02*
D03*
D28*
X0871901Y0024673D02*
D03*
X0876356Y0029128D02*
D03*
D29*
X0815158Y0021600D02*
D03*
X0821842D02*
D03*
X0294917Y0035750D02*
D03*
X0301600D02*
D03*
X0278842Y0186000D02*
D03*
X0272158D02*
D03*
X0297158D02*
D03*
X0303842D02*
D03*
X0328842D02*
D03*
X0322158D02*
D03*
X0347158D02*
D03*
X0353842D02*
D03*
X0378342D02*
D03*
X0371658D02*
D03*
X0397658D02*
D03*
X0404342D02*
D03*
X0428842D02*
D03*
X0422158D02*
D03*
X0447158D02*
D03*
X0453842D02*
D03*
X0478842D02*
D03*
X0472158D02*
D03*
X0497158D02*
D03*
X0503842D02*
D03*
X0528842D02*
D03*
X0522158D02*
D03*
X0547158D02*
D03*
X0553842D02*
D03*
X0578842D02*
D03*
X0572158D02*
D03*
X0597158D02*
D03*
X0603842D02*
D03*
X0628842D02*
D03*
X0622158D02*
D03*
X0646658D02*
D03*
X0653342D02*
D03*
X0678842D02*
D03*
X0672158D02*
D03*
X0696895D02*
D03*
X0703578D02*
D03*
X0728842D02*
D03*
X0722158D02*
D03*
X0747158D02*
D03*
X0753842D02*
D03*
X0778842D02*
D03*
X0772158D02*
D03*
X0797158D02*
D03*
X0803842D02*
D03*
X0828842D02*
D03*
X0822158D02*
D03*
X0847158D02*
D03*
X0853842D02*
D03*
X0538042Y0036100D02*
D03*
X0531358D02*
D03*
X0611875Y0036000D02*
D03*
X0605191D02*
D03*
X0589942Y0032079D02*
D03*
X0583258D02*
D03*
Y0039921D02*
D03*
X0589942D02*
D03*
D30*
X0801446Y0082744D02*
D03*
X0793674D02*
D03*
X0497331Y0082744D02*
D03*
X0489560D02*
D03*
D31*
X0797560Y0067067D02*
D03*
X0493446Y0067067D02*
D03*
D32*
X0671750Y0087366D02*
D03*
Y0093466D02*
D03*
X0368800Y0087366D02*
D03*
Y0093466D02*
D03*
X0671866Y0075223D02*
D03*
Y0081323D02*
D03*
X0368800Y0081050D02*
D03*
Y0074950D02*
D03*
X0704100Y0056750D02*
D03*
Y0062850D02*
D03*
X0400300Y0063650D02*
D03*
Y0057550D02*
D03*
X0710000Y0056850D02*
D03*
Y0062950D02*
D03*
X0405933Y0064050D02*
D03*
Y0057950D02*
D03*
D33*
X0838000Y0171451D02*
D03*
Y0180281D02*
D03*
X0813000D02*
D03*
Y0171451D02*
D03*
X0788000D02*
D03*
Y0180281D02*
D03*
X0763000D02*
D03*
Y0171451D02*
D03*
X0738000D02*
D03*
Y0180281D02*
D03*
X0713000D02*
D03*
Y0171451D02*
D03*
X0687984D02*
D03*
Y0180281D02*
D03*
X0663000D02*
D03*
Y0171451D02*
D03*
X0638000D02*
D03*
Y0180281D02*
D03*
X0613000D02*
D03*
Y0171451D02*
D03*
X0588000D02*
D03*
Y0180281D02*
D03*
X0563000D02*
D03*
Y0171451D02*
D03*
X0538000D02*
D03*
Y0180281D02*
D03*
X0513000D02*
D03*
Y0171451D02*
D03*
X0488000D02*
D03*
Y0180281D02*
D03*
X0463000D02*
D03*
Y0171451D02*
D03*
X0438000D02*
D03*
Y0180281D02*
D03*
X0413000D02*
D03*
Y0171451D02*
D03*
X0388000D02*
D03*
Y0180281D02*
D03*
X0363000D02*
D03*
Y0171451D02*
D03*
X0338000D02*
D03*
Y0180281D02*
D03*
X0313000D02*
D03*
Y0171451D02*
D03*
X0288039Y0171474D02*
D03*
Y0180305D02*
D03*
X0263000Y0180281D02*
D03*
Y0171451D02*
D03*
D34*
X0822619Y0073866D02*
D03*
X0813788D02*
D03*
X0509674Y0073866D02*
D03*
X0518504D02*
D03*
D35*
X0736531Y0101708D02*
D03*
Y0095024D02*
D03*
X0432500Y0095024D02*
D03*
Y0101708D02*
D03*
X0814266Y0088208D02*
D03*
Y0081524D02*
D03*
X0510152Y0081524D02*
D03*
Y0088208D02*
D03*
D36*
X0750608Y0101467D02*
D03*
X0744408D02*
D03*
X0440377Y0101467D02*
D03*
X0446576D02*
D03*
X0692500Y0051500D02*
D03*
X0698700D02*
D03*
X0393000D02*
D03*
X0386800D02*
D03*
X0725800Y0061000D02*
D03*
X0719600D02*
D03*
X0418900Y0057500D02*
D03*
X0425100D02*
D03*
X0429900D02*
D03*
X0436100D02*
D03*
D37*
X0555801Y0041150D02*
D03*
Y0030850D02*
D03*
X0574399D02*
D03*
Y0041150D02*
D03*
D38*
X0249500Y0120698D02*
D03*
Y0126998D02*
D03*
D39*
X0696850Y0057200D02*
D03*
X0690750D02*
D03*
X0386541Y0056876D02*
D03*
X0392640D02*
D03*
X0681167Y0051500D02*
D03*
X0687267D02*
D03*
X0382267D02*
D03*
X0376167D02*
D03*
X0678950Y0060000D02*
D03*
X0685050D02*
D03*
X0380050D02*
D03*
X0373950D02*
D03*
X0693214Y0063066D02*
D03*
X0699314D02*
D03*
X0395200Y0063066D02*
D03*
X0389100D02*
D03*
D40*
X0259010Y0143839D02*
D03*
X0266990D02*
D03*
X0263000Y0152894D02*
D03*
X0288024Y0152917D02*
D03*
X0292014Y0143862D02*
D03*
X0284033D02*
D03*
X0309010Y0143839D02*
D03*
X0316990D02*
D03*
X0313000Y0152894D02*
D03*
X0838000D02*
D03*
X0841990Y0143839D02*
D03*
X0834010D02*
D03*
X0809010D02*
D03*
X0816990D02*
D03*
X0813000Y0152894D02*
D03*
X0788000D02*
D03*
X0791990Y0143839D02*
D03*
X0784010D02*
D03*
X0759010D02*
D03*
X0766990D02*
D03*
X0763000Y0152894D02*
D03*
X0738000D02*
D03*
X0741990Y0143839D02*
D03*
X0734010D02*
D03*
X0709010D02*
D03*
X0716990D02*
D03*
X0713000Y0152894D02*
D03*
X0688000D02*
D03*
X0691990Y0143839D02*
D03*
X0684010D02*
D03*
X0658010D02*
D03*
X0665990D02*
D03*
X0662000Y0152894D02*
D03*
X0638000D02*
D03*
X0641990Y0143839D02*
D03*
X0634010D02*
D03*
X0609010D02*
D03*
X0616990D02*
D03*
X0613000Y0152894D02*
D03*
X0588000D02*
D03*
X0591990Y0143839D02*
D03*
X0584010D02*
D03*
X0559010D02*
D03*
X0566990D02*
D03*
X0563000Y0152894D02*
D03*
X0538000D02*
D03*
X0541990Y0143839D02*
D03*
X0534010D02*
D03*
X0509010D02*
D03*
X0516990D02*
D03*
X0513000Y0152894D02*
D03*
X0488000D02*
D03*
X0491990Y0143839D02*
D03*
X0484010D02*
D03*
X0459010D02*
D03*
X0466990D02*
D03*
X0463000Y0152894D02*
D03*
X0438000D02*
D03*
X0441990Y0143839D02*
D03*
X0434010D02*
D03*
X0409010D02*
D03*
X0416990D02*
D03*
X0413000Y0152894D02*
D03*
X0388000D02*
D03*
X0391990Y0143839D02*
D03*
X0384010D02*
D03*
X0359010D02*
D03*
X0366990D02*
D03*
X0363000Y0152894D02*
D03*
X0338000D02*
D03*
X0341990Y0143839D02*
D03*
X0334010D02*
D03*
D71*
X0855000Y0187366D02*
X0857250Y0185116D01*
X0853300Y0187366D02*
X0855000D01*
X0876356Y0029128D02*
Y0029173D01*
X0881193Y0034010D01*
Y0034016D01*
X0914227Y0067127D02*
X0916570Y0069470D01*
X0904884Y0057707D02*
Y0057712D01*
X0909773Y0062600D01*
Y0062673D01*
X0163650Y0114900D02*
X0171148D01*
X0157325Y0114925D02*
X0157350Y0114900D01*
X0154063Y0114925D02*
X0157325D01*
X0154038Y0114950D02*
X0154063Y0114925D01*
X0204652Y0114900D02*
X0213350D01*
X0829784Y0081237D02*
X0833037D01*
X0571575Y0186241D02*
X0572700Y0187366D01*
X0555000D02*
X0557250Y0185116D01*
X0553300Y0187366D02*
X0555000D01*
X0446491Y0101500D02*
X0483500D01*
X0271060Y0185726D02*
X0272700Y0187366D01*
X0265860Y0185726D02*
X0271060D01*
X0265000Y0184866D02*
X0265860Y0185726D01*
X0296060D02*
X0297700Y0187366D01*
X0288000Y0184866D02*
X0288244D01*
X0279882Y0187366D02*
X0282382Y0184866D01*
X0278300Y0187366D02*
X0279882D01*
X0289103Y0185726D02*
X0296060D01*
X0288244Y0184866D02*
X0289103Y0185726D01*
X0321504Y0186170D02*
X0322700Y0187366D01*
X0303300D02*
X0305500D01*
X0314547Y0186170D02*
X0321504D01*
X0313244Y0184866D02*
X0314547Y0186170D01*
X0346334Y0186000D02*
X0347700Y0187366D01*
X0329500D02*
X0332000Y0184866D01*
X0328300Y0187366D02*
X0329500D01*
X0339377Y0186000D02*
X0346334D01*
X0338244Y0184866D02*
X0339377Y0186000D01*
X0370825Y0185991D02*
X0372200Y0187366D01*
X0353300D02*
X0355000D01*
X0357500Y0184866D01*
X0364369Y0185991D02*
X0370825D01*
X0363244Y0184866D02*
X0364369Y0185991D01*
X0396825D02*
X0398200Y0187366D01*
X0377800D02*
X0379406D01*
X0381906Y0184866D01*
X0389369Y0185991D02*
X0396825D01*
X0388244Y0184866D02*
X0389369Y0185991D01*
X0421325D02*
X0422700Y0187366D01*
X0405500D02*
X0408000Y0184866D01*
X0403800Y0187366D02*
X0405500D01*
X0414368Y0185991D02*
X0421325D01*
X0413243Y0184866D02*
X0414368Y0185991D01*
X0446334Y0186000D02*
X0447700Y0187366D01*
X0429500D02*
X0432000Y0184866D01*
X0428300Y0187366D02*
X0429500D01*
X0439377Y0186000D02*
X0446334D01*
X0438243Y0184866D02*
X0439377Y0186000D01*
X0471325Y0185991D02*
X0472700Y0187366D01*
X0453300D02*
X0455000D01*
X0457500Y0184866D01*
X0464368Y0185991D02*
X0471325D01*
X0463243Y0184866D02*
X0464368Y0185991D01*
X0496325D02*
X0497700Y0187366D01*
X0479500D02*
X0482000Y0184866D01*
X0478300Y0187366D02*
X0479500D01*
X0489368Y0185991D02*
X0496325D01*
X0488243Y0184866D02*
X0489368Y0185991D01*
X0521334Y0186000D02*
X0522700Y0187366D01*
X0503300D02*
X0505000D01*
X0507500Y0184866D01*
X0514377Y0186000D02*
X0521334D01*
X0513243Y0184866D02*
X0514377Y0186000D01*
X0546334D02*
X0547700Y0187366D01*
X0529500D02*
X0532000Y0184866D01*
X0528300Y0187366D02*
X0529500D01*
X0539377Y0186000D02*
X0546334D01*
X0538243Y0184866D02*
X0539377Y0186000D01*
X0446475Y0101516D02*
X0446491Y0101500D01*
X0564368Y0186241D02*
X0571575D01*
X0563243Y0185116D02*
X0564368Y0186241D01*
X0596504Y0186170D02*
X0597700Y0187366D01*
X0579500D02*
X0581750Y0185116D01*
X0578300Y0187366D02*
X0579500D01*
X0589297Y0186170D02*
X0596504D01*
X0588243Y0185116D02*
X0589297Y0186170D01*
X0621325Y0185991D02*
X0622700Y0187366D01*
X0603300D02*
X0605000D01*
X0607250Y0185116D01*
X0614118Y0185991D02*
X0621325D01*
X0613243Y0185116D02*
X0614118Y0185991D01*
X0645834Y0186000D02*
X0647200Y0187366D01*
X0628300D02*
X0630000D01*
X0632250Y0185116D01*
X0639127Y0186000D02*
X0645834D01*
X0638243Y0185116D02*
X0639127Y0186000D01*
X0671504Y0186170D02*
X0672700Y0187366D01*
X0652800D02*
X0655382D01*
X0664297Y0186170D02*
X0671504D01*
X0663243Y0185116D02*
X0664297Y0186170D01*
X0696070Y0186000D02*
X0697436Y0187366D01*
X0678300D02*
X0680091D01*
X0689127Y0186000D02*
X0696070D01*
X0688243Y0185116D02*
X0689127Y0186000D01*
X0721504Y0186170D02*
X0722700Y0187366D01*
X0704000D02*
X0706250Y0185116D01*
X0703036Y0187366D02*
X0704000D01*
X0714297Y0186170D02*
X0721504D01*
X0713243Y0185116D02*
X0714297Y0186170D01*
X0746834Y0186500D02*
X0747700Y0187366D01*
X0728300D02*
X0730000D01*
X0732250Y0185116D01*
X0739627Y0186500D02*
X0746834D01*
X0738243Y0185116D02*
X0739627Y0186500D01*
X0771504Y0186170D02*
X0772700Y0187366D01*
X0753300D02*
X0754634D01*
X0756884Y0185116D01*
X0764297Y0186170D02*
X0771504D01*
X0763243Y0185116D02*
X0764297Y0186170D01*
X0796504D02*
X0797700Y0187366D01*
X0779500D02*
X0781750Y0185116D01*
X0778300Y0187366D02*
X0779500D01*
X0789297Y0186170D02*
X0796504D01*
X0788243Y0185116D02*
X0789297Y0186170D01*
X0821334Y0186000D02*
X0822700Y0187366D01*
X0803300D02*
X0810507D01*
X0814127Y0186000D02*
X0821334D01*
X0813243Y0185116D02*
X0814127Y0186000D01*
X0846334D02*
X0847700Y0187366D01*
X0829250D02*
X0831500Y0185116D01*
X0828300Y0187366D02*
X0829250D01*
X0839127Y0186000D02*
X0846334D01*
X0838243Y0185116D02*
X0839127Y0186000D01*
X0241535Y0137816D02*
X0249500D01*
X0241500Y0137781D02*
X0241535Y0137816D01*
X0812757Y0185116D02*
X0813000D01*
X0810507Y0187366D02*
X0812757Y0185116D01*
X0788000D02*
X0788243D01*
X0763000D02*
X0763243D01*
X0738000D02*
X0738243D01*
X0713000D02*
X0713243D01*
X0688000D02*
X0688243D01*
X0663000D02*
X0663243D01*
X0638000D02*
X0638243D01*
X0613000D02*
X0613243D01*
X0588000D02*
X0588243D01*
X0563000D02*
X0563243D01*
X0538000Y0184866D02*
X0538243D01*
X0513000D02*
X0513243D01*
X0446426Y0101467D02*
X0446475Y0101516D01*
X0813000Y0185116D02*
X0813243D01*
X0432500Y0095217D02*
X0439400D01*
X0363000Y0184866D02*
X0363244D01*
X0388000D02*
X0388244D01*
X0838000Y0185116D02*
X0838243D01*
X0488000Y0184866D02*
X0488243D01*
X0463000D02*
X0463243D01*
X0438000D02*
X0438243D01*
X0338000D02*
X0338244D01*
X0313000D02*
X0313244D01*
X0263000D02*
X0265000D01*
X0655382Y0187366D02*
X0657632Y0185116D01*
X0680091Y0187366D02*
X0682340Y0185116D01*
X0305500Y0187366D02*
X0308000Y0184866D01*
D72*
X0847834Y0148700D02*
X0849500Y0150366D01*
Y0171616D01*
X0548800Y0170916D02*
X0563000Y0185116D01*
X0547833Y0147833D02*
X0548800Y0148800D01*
X0543839Y0143839D02*
X0547833Y0147833D01*
X0541990Y0143839D02*
X0543839D01*
X0541740D02*
X0541990D01*
X0841990D02*
X0842972D01*
X0841740D02*
X0841990D01*
X0288000Y0179819D02*
Y0184866D01*
X0273400Y0170266D02*
X0288000Y0184866D01*
X0298600Y0170466D02*
X0313000Y0184866D01*
X0291764Y0143839D02*
X0293972D01*
X0291740D02*
X0291764D01*
X0323800Y0170666D02*
X0338000Y0184866D01*
X0498700Y0170566D02*
X0513000Y0184866D01*
X0532000D02*
X0538000D01*
Y0179803D02*
Y0184866D01*
X0523800Y0170666D02*
X0538000Y0184866D01*
X0573800Y0170916D02*
X0588000Y0185116D01*
X0598700Y0170816D02*
X0613000Y0185116D01*
X0623800Y0170916D02*
X0638000Y0185116D01*
X0648700Y0170816D02*
X0663000Y0185116D01*
X0673800Y0170916D02*
X0685336Y0182452D01*
X0698700Y0170816D02*
X0713000Y0185116D01*
X0723700Y0170816D02*
X0738000Y0185116D01*
X0748800Y0170916D02*
X0763000Y0185116D01*
X0773800Y0170916D02*
X0788000Y0185116D01*
X0548800Y0148800D02*
Y0170916D01*
X0849500Y0171616D02*
X0863000Y0185116D01*
X0847834Y0147566D02*
Y0148700D01*
X0381906Y0184866D02*
X0388000D01*
X0706250Y0185116D02*
X0713000D01*
X0756884D02*
X0763000D01*
X0831500D02*
X0838000D01*
X0842972Y0143839D02*
X0847500Y0148366D01*
X0823700Y0170816D02*
X0832687Y0179803D01*
X0823700Y0149066D02*
Y0170816D01*
X0818472Y0143839D02*
X0823700Y0149066D01*
X0798600Y0170716D02*
X0806590Y0178707D01*
X0798600Y0148566D02*
Y0170716D01*
X0793872Y0143839D02*
X0798600Y0148566D01*
X0773800Y0149166D02*
Y0170916D01*
X0768472Y0143839D02*
X0773800Y0149166D01*
X0748800D02*
Y0170916D01*
X0743472Y0143839D02*
X0748800Y0149166D01*
X0723700Y0148666D02*
Y0170816D01*
X0718872Y0143839D02*
X0723700Y0148666D01*
X0698700Y0149066D02*
Y0170816D01*
X0693472Y0143839D02*
X0698700Y0149066D01*
X0673800Y0149766D02*
Y0170916D01*
X0667872Y0143839D02*
X0673800Y0149766D01*
X0648700Y0148666D02*
Y0170816D01*
X0643872Y0143839D02*
X0648700Y0148666D01*
X0623800Y0149266D02*
Y0170916D01*
X0618372Y0143839D02*
X0623800Y0149266D01*
X0598700Y0148666D02*
Y0170816D01*
X0593872Y0143839D02*
X0598700Y0148666D01*
X0573800Y0149266D02*
Y0170916D01*
X0568372Y0143839D02*
X0573800Y0149266D01*
X0523800Y0148766D02*
Y0170666D01*
X0518872Y0143839D02*
X0523800Y0148766D01*
X0498700Y0148866D02*
Y0170566D01*
X0493672Y0143839D02*
X0498700Y0148866D01*
X0473700Y0170566D02*
X0482500Y0179366D01*
X0473700Y0148866D02*
Y0170566D01*
X0468672Y0143839D02*
X0473700Y0148866D01*
X0448800Y0170666D02*
X0457882Y0179748D01*
X0448800Y0149153D02*
Y0170666D01*
X0443485Y0143839D02*
X0448800Y0149153D01*
X0423700Y0170566D02*
X0432937Y0179803D01*
X0423700Y0148666D02*
Y0170566D01*
X0418872Y0143839D02*
X0423700Y0148666D01*
X0398700Y0170566D02*
X0408500Y0180366D01*
X0398700Y0149166D02*
Y0170566D01*
X0393372Y0143839D02*
X0398700Y0149166D01*
X0373700Y0170566D02*
X0382937Y0179803D01*
X0373700Y0148853D02*
Y0170566D01*
X0368685Y0143839D02*
X0373700Y0148853D01*
X0348700Y0170566D02*
X0357937Y0179803D01*
X0348700Y0148553D02*
Y0170566D01*
X0343985Y0143839D02*
X0348700Y0148553D01*
X0323800Y0148653D02*
Y0170666D01*
X0318985Y0143839D02*
X0323800Y0148653D01*
X0298600Y0148466D02*
Y0170466D01*
X0293972Y0143839D02*
X0298600Y0148466D01*
X0273400Y0148866D02*
Y0170266D01*
X0268372Y0143839D02*
X0273400Y0148866D01*
X0665740Y0143839D02*
X0667872D01*
X0813000Y0179803D02*
Y0185116D01*
X0832687Y0179803D02*
X0838000D01*
X0806590Y0178707D02*
Y0185116D01*
X0482000Y0184866D02*
X0488000D01*
X0457500D02*
X0463000D01*
X0432000D02*
X0438000D01*
X0432937Y0179803D02*
X0438000D01*
X0413000D02*
Y0184866D01*
X0408000D02*
X0412756D01*
X0382937Y0179803D02*
X0388000D01*
X0357500Y0184866D02*
X0363000D01*
X0357937Y0179803D02*
X0363000D01*
Y0184866D01*
X0388000Y0179803D02*
Y0184866D01*
X0738000Y0179803D02*
Y0185116D01*
X0557250D02*
X0563000D01*
Y0179803D02*
Y0185116D01*
X0581750D02*
X0588000D01*
Y0179803D02*
Y0185116D01*
X0607250D02*
X0613000D01*
Y0179803D02*
Y0185116D01*
X0632250D02*
X0638000D01*
Y0179803D02*
Y0185116D01*
X0657632D02*
X0663000D01*
Y0179803D02*
Y0185116D01*
X0682340D02*
X0688000D01*
X0687984Y0179803D02*
X0688000Y0179819D01*
Y0185116D01*
X0713000Y0179803D02*
Y0185116D01*
X0732250D02*
X0738000D01*
X0763000Y0179803D02*
Y0185116D01*
X0781750D02*
X0788000D01*
Y0179803D02*
Y0185116D01*
X0838000Y0179803D02*
Y0185116D01*
X0507500Y0184866D02*
X0513000D01*
Y0179803D02*
Y0184866D01*
X0463000Y0179803D02*
Y0184866D01*
X0438000Y0179803D02*
Y0184866D01*
X0488000Y0179803D02*
Y0184866D01*
X0332000D02*
X0338000D01*
Y0179803D02*
Y0184866D01*
X0308000D02*
X0313000D01*
Y0179803D02*
Y0184866D01*
X0263000Y0179803D02*
Y0184866D01*
X0857250Y0185116D02*
X0863000D01*
X0816740Y0143839D02*
X0818472D01*
X0791740D02*
X0793872D01*
X0766740D02*
X0768472D01*
X0741740D02*
X0743472D01*
X0716740D02*
X0718872D01*
X0691740D02*
X0693472D01*
X0641740D02*
X0643872D01*
X0616740D02*
X0618372D01*
X0591740D02*
X0593872D01*
X0566740D02*
X0568372D01*
X0516740D02*
X0518872D01*
X0491740D02*
X0493672D01*
X0466740D02*
X0468672D01*
X0441740D02*
X0443485D01*
X0416740D02*
X0418872D01*
X0391740D02*
X0393372D01*
X0366740D02*
X0368685D01*
X0341740D02*
X0343985D01*
X0316740D02*
X0318985D01*
X0282382Y0184866D02*
X0288000D01*
D73*
X0839127Y0112612D02*
Y0114600D01*
X0836800Y0110284D02*
X0839127Y0112612D01*
X0836800Y0085000D02*
Y0110284D01*
X0833037Y0081237D02*
X0836800Y0085000D01*
X0563000Y0269248D02*
Y0282366D01*
X0918755Y0174300D02*
X0928043Y0183588D01*
X0889700Y0174300D02*
X0918755D01*
X0869134Y0194866D02*
X0889700Y0174300D01*
X0588000Y0270500D02*
Y0282366D01*
X0915000Y0182500D02*
X0920169Y0187669D01*
X0892000Y0182500D02*
X0915000D01*
X0872342Y0202158D02*
X0892000Y0182500D01*
X0613000Y0271000D02*
Y0282366D01*
X0908347Y0190800D02*
X0912295Y0194748D01*
X0894700Y0190800D02*
X0908347D01*
X0876500Y0209000D02*
X0894700Y0190800D01*
X0847834Y0147566D02*
X0851200Y0144200D01*
Y0126800D02*
Y0144200D01*
X0869559Y0022331D02*
X0871193Y0023965D01*
X0550500Y0139416D02*
X0551400Y0138516D01*
X0811846Y0021650D02*
X0815108D01*
X0815158Y0021600D01*
X0547833Y0147833D02*
X0550350Y0145316D01*
X0550500D01*
X0288000Y0179819D02*
X0288016Y0179803D01*
X0255250Y0282366D02*
X0263000D01*
X0164500D02*
X0255250D01*
X0153537Y0181403D02*
X0160252Y0188118D01*
X0130230Y0181403D02*
X0153537D01*
X0122000Y0189634D02*
X0130230Y0181403D01*
X0152516Y0203409D02*
Y0244382D01*
X0308955Y0272047D02*
Y0276000D01*
X0304273Y0267366D02*
X0308955Y0272047D01*
X0175500Y0267366D02*
X0304273D01*
X0359841Y0279207D02*
X0363000Y0282366D01*
X0359841Y0270593D02*
Y0279207D01*
X0341748Y0252500D02*
X0359841Y0270593D01*
X0322500Y0252500D02*
X0341748D01*
X0334386Y0278752D02*
X0338000Y0282366D01*
X0334386Y0269727D02*
Y0278752D01*
X0160390Y0203409D02*
Y0240256D01*
X0324659Y0260000D02*
X0334386Y0269727D01*
X0305500Y0260000D02*
X0324659D01*
X0385318Y0268318D02*
Y0276000D01*
X0361866Y0244866D02*
X0385318Y0268318D01*
X0191000Y0244866D02*
X0361866D01*
X0410773Y0268899D02*
Y0276000D01*
X0379240Y0237366D02*
X0410773Y0268899D01*
X0197748Y0237366D02*
X0379240D01*
X0191886Y0203409D02*
Y0217752D01*
X0436227Y0270467D02*
Y0276000D01*
X0395626Y0229866D02*
X0436227Y0270467D01*
X0204000Y0229866D02*
X0395626D01*
X0461659Y0281025D02*
X0463000Y0282366D01*
X0461659Y0267659D02*
Y0281025D01*
X0199760Y0203409D02*
Y0211630D01*
X0416366Y0222366D02*
X0461659Y0267659D01*
X0210496Y0222366D02*
X0416366D01*
X0487136Y0281502D02*
X0488000Y0282366D01*
X0487136Y0276000D02*
Y0281502D01*
Y0266136D02*
Y0276000D01*
X0435866Y0214866D02*
X0487136Y0266136D01*
X0215000Y0214866D02*
X0435866D01*
X0513000Y0269000D02*
Y0282366D01*
X0451366Y0207366D02*
X0513000Y0269000D01*
X0246000Y0207366D02*
X0451366D01*
X0535500Y0282366D02*
X0538000Y0279866D01*
Y0269000D02*
Y0279866D01*
X0468866Y0199866D02*
X0538000Y0269000D01*
X0249000Y0199866D02*
X0468866D01*
X0813000Y0272500D02*
Y0282366D01*
X0817717Y0267783D02*
X0926217D01*
X0813000Y0272500D02*
X0817717Y0267783D01*
X0959428Y0203021D02*
Y0224103D01*
X0788000Y0271500D02*
Y0282366D01*
X0799009Y0260491D02*
X0923040D01*
X0788000Y0271500D02*
X0799009Y0260491D01*
X0763000Y0272000D02*
Y0282366D01*
X0781801Y0253199D02*
X0919332D01*
X0763000Y0272000D02*
X0781801Y0253199D01*
X0943653Y0203047D02*
Y0218378D01*
X0738000Y0271500D02*
Y0282366D01*
X0763592Y0245908D02*
X0916123D01*
X0738000Y0271500D02*
X0763592Y0245908D01*
X0935779Y0202909D02*
X0935917D01*
X0935779D02*
Y0215752D01*
X0713000Y0268500D02*
Y0282366D01*
X0742884Y0238616D02*
X0912384D01*
X0713000Y0268500D02*
X0742884Y0238616D01*
X0927905Y0203047D02*
Y0212126D01*
X0688000Y0271750D02*
Y0282366D01*
X0728426Y0231324D02*
X0908707D01*
X0688000Y0271750D02*
X0728426Y0231324D01*
X0662000Y0282366D02*
X0662955Y0281412D01*
Y0276000D02*
Y0281412D01*
Y0269045D02*
Y0276000D01*
Y0269045D02*
X0707967Y0224033D01*
X0902967D01*
X0898464Y0216741D02*
X0912295Y0202909D01*
X0638000Y0271500D02*
Y0282366D01*
X0692759Y0216741D02*
X0898464D01*
X0638000Y0271500D02*
X0692759Y0216741D01*
X0674550Y0209450D02*
X0875550D01*
X0613000Y0271000D02*
X0674550Y0209450D01*
X0656342Y0202158D02*
X0872342D01*
X0588000Y0270500D02*
X0656342Y0202158D01*
X0637382Y0194866D02*
X0869134D01*
X0563000Y0269248D02*
X0637382Y0194866D01*
X0277000Y0279306D02*
Y0282500D01*
Y0279306D02*
X0281440Y0274866D01*
X0170378D02*
X0281440D01*
X0845292Y0275074D02*
X0928856D01*
X0838000Y0282366D02*
X0845292Y0275074D01*
X0975287Y0203409D02*
Y0228644D01*
Y0202909D02*
Y0203409D01*
X0928856Y0275074D02*
X0975287Y0228644D01*
X0967413Y0203409D02*
Y0226618D01*
Y0202909D02*
Y0203409D01*
X0926217Y0267783D02*
X0926500Y0267500D01*
X0926531D01*
X0967413Y0226618D01*
X0923040Y0260491D02*
X0959428Y0224103D01*
X0919332Y0253199D02*
X0951665Y0220866D01*
X0916123Y0245908D02*
X0943653Y0218378D01*
X0912384Y0238616D02*
X0912500Y0238500D01*
X0913031D01*
X0935779Y0215752D01*
X0908707Y0231324D02*
X0927905Y0212126D01*
X0902967Y0224033D02*
X0903000Y0224000D01*
X0904531D01*
X0920169Y0208362D01*
X0875550Y0209450D02*
X0876000Y0209000D01*
X0876500D01*
X0199760Y0211630D02*
X0210496Y0222366D01*
X0191886Y0217752D02*
X0204000Y0229866D01*
X0183874Y0223492D02*
X0197748Y0237366D01*
X0176000Y0229866D02*
X0191000Y0244866D01*
X0185000Y0252366D02*
X0322366D01*
X0168126Y0235492D02*
X0185000Y0252366D01*
X0180000Y0259866D02*
X0305366D01*
X0160390Y0240256D02*
X0180000Y0259866D01*
X0152516Y0244382D02*
X0175500Y0267366D01*
X0130500Y0234988D02*
X0170378Y0274866D01*
X0305366Y0259866D02*
X0305500Y0260000D01*
X0322366Y0252366D02*
X0322500Y0252500D01*
X0226644Y0188510D02*
X0246000Y0207366D01*
X0211356Y0188510D02*
X0226644D01*
X0920169Y0203409D02*
Y0208362D01*
Y0202909D02*
Y0203409D01*
X0927905Y0203047D02*
X0928043Y0202909D01*
X0943653Y0203047D02*
X0943791Y0202909D01*
X0951665Y0203409D02*
Y0220866D01*
Y0202909D02*
Y0203409D01*
X0959428Y0203021D02*
X0959539Y0202909D01*
X0551400Y0135900D02*
Y0138516D01*
X0122000Y0239866D02*
X0164500Y0282366D01*
X0122000Y0189634D02*
Y0239866D01*
X0136382Y0188866D02*
X0149000D01*
X0130500Y0194748D02*
X0136382Y0188866D01*
X0130500Y0194748D02*
Y0234988D01*
X0168126Y0203409D02*
Y0235492D01*
X0176000Y0203409D02*
Y0229866D01*
X0183874Y0203409D02*
Y0223492D01*
X0256366Y0184866D02*
X0263000D01*
X0249500Y0178000D02*
X0256366Y0184866D01*
X0249500Y0137816D02*
Y0178000D01*
X0928043Y0183588D02*
Y0194748D01*
X0920169Y0187669D02*
Y0194748D01*
X0863000Y0282366D02*
X0931464D01*
Y0282366D02*
X0983161Y0230669D01*
Y0203409D02*
Y0230669D01*
X0230000Y0180866D02*
X0249000Y0199866D01*
X0207496Y0203409D02*
Y0207362D01*
X0215000Y0214866D01*
X0191748Y0203409D02*
X0191886D01*
X0160252D02*
X0160390D01*
X0149000Y0188866D02*
X0152378Y0192244D01*
Y0194748D01*
X0160252Y0188118D02*
Y0194748D01*
X0207496Y0192370D02*
X0211356Y0188510D01*
X0207496Y0192370D02*
Y0194748D01*
X0199622Y0187244D02*
X0206000Y0180866D01*
X0199622Y0187244D02*
Y0194748D01*
X0206000Y0180866D02*
X0230000D01*
X0152378Y0203409D02*
X0152516D01*
X0266740Y0143839D02*
X0268372D01*
D74*
X0927464Y0081958D02*
Y0083188D01*
X0918275Y0072770D02*
X0927464Y0081958D01*
X0925027Y0076256D02*
X0930279Y0081508D01*
X0925014Y0076256D02*
X0925027D01*
X0930279Y0081508D02*
X0934779D01*
X0935000Y0081287D01*
X0919870Y0071111D02*
X0925014Y0076256D01*
X0919870Y0065621D02*
Y0071111D01*
X0908420Y0054171D02*
X0919870Y0065621D01*
X0925000Y0085652D02*
Y0086287D01*
Y0085652D02*
X0927464Y0083188D01*
X0912876Y0072770D02*
X0918275D01*
X0901349Y0061242D02*
X0912876Y0072770D01*
X0510152Y0101259D02*
X0515700Y0095711D01*
Y0084466D02*
Y0095711D01*
X0512950Y0081717D02*
X0515700Y0084466D01*
X0817024Y0081524D02*
X0819336Y0083836D01*
Y0097402D01*
X0822262Y0075416D02*
Y0102866D01*
X0814266Y0102472D02*
X0819336Y0097402D01*
X0518026Y0073866D02*
Y0102866D01*
D75*
X0301600Y0036100D02*
X0305414D01*
X0219650Y0114900D02*
X0223464D01*
X0389000Y0061279D02*
Y0063066D01*
X0389068Y0063134D02*
Y0075329D01*
D76*
X0710700Y0065200D02*
X0711831Y0066331D01*
X0705925Y0066665D02*
X0707390Y0065200D01*
D77*
X0710000D01*
Y0063050D02*
Y0065200D01*
X0710700D01*
D78*
X0146500Y0111000D02*
D03*
Y0081000D02*
D03*
X0136500Y0086000D02*
D03*
X0146500Y0091000D02*
D03*
X0136500Y0096000D02*
D03*
X0146500Y0101000D02*
D03*
X0136500Y0106000D02*
D03*
Y0116000D02*
D03*
X0925000Y0116287D02*
D03*
X0935000Y0111287D02*
D03*
X0925000Y0106287D02*
D03*
X0935000Y0101287D02*
D03*
X0925000Y0096287D02*
D03*
X0935000Y0091287D02*
D03*
X0925000Y0086287D02*
D03*
X0935000Y0081287D02*
D03*
D79*
X0111500Y0076000D02*
D03*
Y0121000D02*
D03*
X0960000Y0121287D02*
D03*
Y0076287D02*
D03*
D80*
X0123508Y0068008D02*
D03*
Y0128992D02*
D03*
X0947992Y0129279D02*
D03*
Y0068295D02*
D03*
D81*
X0806392Y0102866D02*
D03*
X0814266D02*
D03*
X0822140D02*
D03*
X0760363Y0092500D02*
D03*
X0768237D02*
D03*
X0776111D02*
D03*
X0456363D02*
D03*
X0464237D02*
D03*
X0472111D02*
D03*
X0502278Y0102866D02*
D03*
X0510152D02*
D03*
X0518026D02*
D03*
D82*
X0207496Y0194748D02*
D03*
X0199622D02*
D03*
X0160252D02*
D03*
X0152378D02*
D03*
Y0203409D02*
D03*
X0160252D02*
D03*
X0168126D02*
D03*
X0176000D02*
D03*
X0183874D02*
D03*
X0191748D02*
D03*
X0199622D02*
D03*
X0207496D02*
D03*
X0912295Y0194748D02*
D03*
X0928043D02*
D03*
X0920169D02*
D03*
X0912295Y0203409D02*
D03*
X0920169D02*
D03*
X0928043D02*
D03*
X0943791D02*
D03*
X0935917D02*
D03*
X0959539D02*
D03*
X0951665D02*
D03*
X0983161D02*
D03*
X0975287D02*
D03*
X0967413D02*
D03*
X0975287Y0194748D02*
D03*
X0983161D02*
D03*
X0967413D02*
D03*
D83*
X0588752Y0083126D02*
D03*
Y0091000D02*
D03*
X0596626Y0083126D02*
D03*
Y0091000D02*
D03*
X0604500Y0083126D02*
D03*
Y0091000D02*
D03*
X0612374Y0083126D02*
D03*
Y0091000D02*
D03*
X0620248Y0083126D02*
D03*
Y0091000D02*
D03*
X0628122Y0083126D02*
D03*
X0284752D02*
D03*
Y0091000D02*
D03*
X0292626Y0083126D02*
D03*
Y0091000D02*
D03*
X0300500Y0083126D02*
D03*
Y0091000D02*
D03*
X0308374Y0083126D02*
D03*
Y0091000D02*
D03*
X0316248Y0083126D02*
D03*
Y0091000D02*
D03*
X0324122Y0083126D02*
D03*
D84*
X0628122Y0091000D02*
D03*
X0324122D02*
D03*
D85*
X0889000Y0014000D02*
D03*
Y0009000D02*
D03*
X0884000Y0019000D02*
D03*
Y0014000D02*
D03*
Y0009000D02*
D03*
X0879000Y0014000D02*
D03*
Y0009000D02*
D03*
X0874000Y0014000D02*
D03*
Y0009000D02*
D03*
X0869000Y0014000D02*
D03*
Y0009000D02*
D03*
X0864000Y0014000D02*
D03*
Y0009000D02*
D03*
X0859000Y0014000D02*
D03*
Y0009000D02*
D03*
X0854000Y0014000D02*
D03*
Y0009000D02*
D03*
X0849000Y0014000D02*
D03*
Y0009000D02*
D03*
X0844000Y0014000D02*
D03*
Y0009000D02*
D03*
X0839000Y0014000D02*
D03*
Y0009000D02*
D03*
X0834000D02*
D03*
X0819000D02*
D03*
X0814000D02*
D03*
X0809000Y0014000D02*
D03*
Y0009000D02*
D03*
X0804000Y0014000D02*
D03*
Y0009000D02*
D03*
X0799000Y0014000D02*
D03*
Y0009000D02*
D03*
X0794000Y0014000D02*
D03*
Y0009000D02*
D03*
X0789000Y0014000D02*
D03*
Y0009000D02*
D03*
X0784000Y0014000D02*
D03*
Y0009000D02*
D03*
X0779000Y0014000D02*
D03*
Y0009000D02*
D03*
X0774000Y0014000D02*
D03*
Y0009000D02*
D03*
X0769000Y0014000D02*
D03*
Y0009000D02*
D03*
X0764000Y0019000D02*
D03*
Y0014000D02*
D03*
Y0009000D02*
D03*
X0759000Y0024000D02*
D03*
Y0019000D02*
D03*
Y0014000D02*
D03*
X0754000Y0029000D02*
D03*
Y0024000D02*
D03*
Y0019000D02*
D03*
X0749000Y0034000D02*
D03*
Y0029000D02*
D03*
Y0024000D02*
D03*
X0744000Y0039000D02*
D03*
Y0034000D02*
D03*
Y0029000D02*
D03*
X0739000Y0044000D02*
D03*
Y0039000D02*
D03*
Y0034000D02*
D03*
X0734000Y0054000D02*
D03*
Y0049000D02*
D03*
Y0044000D02*
D03*
Y0039000D02*
D03*
X0862000Y0039500D02*
D03*
Y0034500D02*
D03*
Y0029500D02*
D03*
X0857000Y0044500D02*
D03*
Y0039500D02*
D03*
Y0034500D02*
D03*
Y0029500D02*
D03*
X0852000Y0049500D02*
D03*
Y0044500D02*
D03*
Y0039500D02*
D03*
Y0034500D02*
D03*
Y0029500D02*
D03*
X0847000Y0054500D02*
D03*
Y0049500D02*
D03*
Y0044500D02*
D03*
Y0039500D02*
D03*
Y0034500D02*
D03*
Y0029500D02*
D03*
X0842000Y0054500D02*
D03*
Y0049500D02*
D03*
Y0044500D02*
D03*
Y0039500D02*
D03*
Y0034500D02*
D03*
Y0029500D02*
D03*
X0837000Y0049500D02*
D03*
Y0044500D02*
D03*
Y0039500D02*
D03*
Y0034500D02*
D03*
Y0029500D02*
D03*
X0832000Y0044500D02*
D03*
Y0039500D02*
D03*
X0827000D02*
D03*
X0822000Y0034500D02*
D03*
X0817000D02*
D03*
X0812000D02*
D03*
X0807000D02*
D03*
Y0029500D02*
D03*
X0802000Y0034500D02*
D03*
Y0029500D02*
D03*
X0797000Y0034500D02*
D03*
Y0029500D02*
D03*
X0792000Y0034500D02*
D03*
Y0029500D02*
D03*
X0787000Y0034500D02*
D03*
Y0029500D02*
D03*
X0782000Y0039500D02*
D03*
Y0034500D02*
D03*
Y0029500D02*
D03*
X0777000Y0044500D02*
D03*
Y0039500D02*
D03*
Y0034500D02*
D03*
Y0029500D02*
D03*
X0772000Y0049500D02*
D03*
Y0044500D02*
D03*
Y0039500D02*
D03*
Y0034500D02*
D03*
Y0029500D02*
D03*
X0767000Y0054500D02*
D03*
Y0049500D02*
D03*
Y0044500D02*
D03*
Y0039500D02*
D03*
Y0034500D02*
D03*
X0762000Y0054500D02*
D03*
Y0049500D02*
D03*
Y0044500D02*
D03*
Y0039500D02*
D03*
X0757000Y0064500D02*
D03*
Y0054500D02*
D03*
Y0049500D02*
D03*
Y0044500D02*
D03*
X0752000Y0069500D02*
D03*
Y0064500D02*
D03*
Y0054500D02*
D03*
Y0049500D02*
D03*
X0747000Y0074500D02*
D03*
Y0069500D02*
D03*
Y0064500D02*
D03*
Y0054500D02*
D03*
X0742000Y0074500D02*
D03*
Y0069500D02*
D03*
X0737000Y0074500D02*
D03*
X0732000D02*
D03*
X0839127Y0114600D02*
D03*
X0855364Y0112636D02*
D03*
X0827000Y0060000D02*
D03*
Y0055000D02*
D03*
X0822000Y0060000D02*
D03*
Y0055000D02*
D03*
Y0050000D02*
D03*
X0817000Y0060000D02*
D03*
Y0055000D02*
D03*
Y0050000D02*
D03*
Y0045000D02*
D03*
X0812000Y0060000D02*
D03*
Y0055000D02*
D03*
Y0050000D02*
D03*
Y0045000D02*
D03*
X0807000Y0065000D02*
D03*
Y0060000D02*
D03*
Y0055000D02*
D03*
Y0050000D02*
D03*
Y0045000D02*
D03*
X0802000Y0055000D02*
D03*
Y0050000D02*
D03*
Y0045000D02*
D03*
X0797000Y0055000D02*
D03*
Y0050000D02*
D03*
Y0045000D02*
D03*
X0792000Y0055000D02*
D03*
Y0050000D02*
D03*
Y0045000D02*
D03*
X0402000Y0049800D02*
D03*
X0397000Y0044800D02*
D03*
X0392000Y0039800D02*
D03*
X0387000D02*
D03*
X0382000D02*
D03*
X0377000D02*
D03*
X0372000D02*
D03*
X0367000D02*
D03*
X0362000D02*
D03*
X0357000D02*
D03*
X0352000D02*
D03*
X0347000D02*
D03*
X0342000D02*
D03*
X0337000D02*
D03*
X0332000D02*
D03*
X0327000Y0044800D02*
D03*
Y0039800D02*
D03*
X0322000Y0049800D02*
D03*
Y0044800D02*
D03*
Y0039800D02*
D03*
X0317000Y0054800D02*
D03*
Y0049800D02*
D03*
Y0044800D02*
D03*
Y0039800D02*
D03*
X0312000Y0059800D02*
D03*
Y0054800D02*
D03*
Y0049800D02*
D03*
Y0044800D02*
D03*
X0307000Y0059800D02*
D03*
Y0054800D02*
D03*
Y0049800D02*
D03*
X0302000Y0059800D02*
D03*
Y0054800D02*
D03*
Y0049800D02*
D03*
X0297000Y0059800D02*
D03*
Y0054800D02*
D03*
Y0049800D02*
D03*
X0292000Y0059800D02*
D03*
Y0054800D02*
D03*
Y0049800D02*
D03*
X0287000Y0059800D02*
D03*
Y0054800D02*
D03*
Y0049800D02*
D03*
X0282000Y0064800D02*
D03*
Y0059800D02*
D03*
Y0054800D02*
D03*
Y0049800D02*
D03*
Y0044800D02*
D03*
Y0039800D02*
D03*
X0277000Y0069800D02*
D03*
Y0064800D02*
D03*
Y0059800D02*
D03*
Y0054800D02*
D03*
Y0049800D02*
D03*
Y0044800D02*
D03*
Y0039800D02*
D03*
X0272000Y0084800D02*
D03*
Y0079800D02*
D03*
Y0074800D02*
D03*
Y0069800D02*
D03*
Y0064800D02*
D03*
Y0059800D02*
D03*
Y0054800D02*
D03*
Y0049800D02*
D03*
Y0044800D02*
D03*
X0267000Y0089800D02*
D03*
Y0084800D02*
D03*
Y0079800D02*
D03*
Y0074800D02*
D03*
Y0069800D02*
D03*
Y0064800D02*
D03*
Y0059800D02*
D03*
Y0054800D02*
D03*
Y0049800D02*
D03*
X0262000Y0094800D02*
D03*
Y0089800D02*
D03*
Y0084800D02*
D03*
Y0079800D02*
D03*
Y0074800D02*
D03*
Y0069800D02*
D03*
Y0064800D02*
D03*
Y0059800D02*
D03*
Y0054800D02*
D03*
X0257000Y0099800D02*
D03*
X0252000Y0104800D02*
D03*
X0247000Y0109800D02*
D03*
X0242000Y0114800D02*
D03*
X0237000Y0119800D02*
D03*
X0232000Y0129800D02*
D03*
Y0124800D02*
D03*
Y0119800D02*
D03*
X0227000Y0129800D02*
D03*
Y0124800D02*
D03*
X0222000Y0129800D02*
D03*
Y0124800D02*
D03*
X0217000Y0129800D02*
D03*
X0212000D02*
D03*
X0851200Y0126800D02*
D03*
X0580000Y0022000D02*
D03*
X0572000D02*
D03*
X0632000D02*
D03*
X0628000Y0030000D02*
D03*
X0640000D02*
D03*
X0620000Y0026000D02*
D03*
X0668000Y0030000D02*
D03*
X0612000Y0022000D02*
D03*
X0652000Y0030000D02*
D03*
X0596000Y0022000D02*
D03*
X0584000D02*
D03*
X0604000D02*
D03*
X0676000Y0030000D02*
D03*
X0688000D02*
D03*
X0632000Y0026000D02*
D03*
X0624000D02*
D03*
X0600000Y0022000D02*
D03*
X0656000Y0030000D02*
D03*
X0628000Y0022000D02*
D03*
X0644000Y0030000D02*
D03*
X0696000D02*
D03*
X0620000Y0022000D02*
D03*
X0672000Y0030000D02*
D03*
X0588000Y0022000D02*
D03*
X0684000Y0030000D02*
D03*
X0708000Y0034000D02*
D03*
X0632000Y0030000D02*
D03*
X0636000D02*
D03*
X0648000D02*
D03*
X0592000Y0022000D02*
D03*
X0700000Y0030000D02*
D03*
X0608000Y0022000D02*
D03*
X0712000Y0038000D02*
D03*
X0664000Y0030000D02*
D03*
X0660000D02*
D03*
X0680000D02*
D03*
X0636000Y0026000D02*
D03*
X0628000D02*
D03*
X0624000Y0030000D02*
D03*
Y0022000D02*
D03*
X0716000Y0042000D02*
D03*
X0576000Y0022000D02*
D03*
X0704000Y0030000D02*
D03*
X0616000Y0022000D02*
D03*
X0692000Y0030000D02*
D03*
X0572000Y0048000D02*
D03*
X0634000Y0044000D02*
D03*
X0604000Y0048000D02*
D03*
X0612000D02*
D03*
X0632000Y0040000D02*
D03*
X0676000D02*
D03*
X0640000D02*
D03*
X0592000Y0048000D02*
D03*
X0668000Y0040000D02*
D03*
X0708000Y0048000D02*
D03*
X0696000Y0040000D02*
D03*
X0672000D02*
D03*
X0624000D02*
D03*
X0622000Y0044000D02*
D03*
X0616000Y0048000D02*
D03*
X0684000Y0040000D02*
D03*
X0626000Y0044000D02*
D03*
X0588000Y0048000D02*
D03*
X0660000Y0040000D02*
D03*
X0644000D02*
D03*
X0630000Y0044000D02*
D03*
X0620000Y0048000D02*
D03*
X0580000D02*
D03*
X0692000Y0040000D02*
D03*
X0576000Y0048000D02*
D03*
X0688000Y0040000D02*
D03*
X0652000D02*
D03*
X0638000Y0044000D02*
D03*
X0618000D02*
D03*
X0648000Y0040000D02*
D03*
X0664000D02*
D03*
X0636000D02*
D03*
X0628000Y0048000D02*
D03*
X0656000Y0040000D02*
D03*
X0608000Y0048000D02*
D03*
X0680000Y0040000D02*
D03*
X0584000Y0048000D02*
D03*
X0700000Y0040000D02*
D03*
X0632000Y0048000D02*
D03*
X0624000D02*
D03*
X0628000Y0040000D02*
D03*
X0410000D02*
D03*
X0405000Y0035000D02*
D03*
X0400000Y0030000D02*
D03*
X0395000D02*
D03*
Y0025000D02*
D03*
X0390000Y0030000D02*
D03*
Y0025000D02*
D03*
Y0020000D02*
D03*
X0385000Y0030000D02*
D03*
Y0025000D02*
D03*
Y0020000D02*
D03*
X0380000Y0030000D02*
D03*
Y0025000D02*
D03*
Y0020000D02*
D03*
X0375000Y0030000D02*
D03*
Y0025000D02*
D03*
Y0020000D02*
D03*
X0370000Y0030000D02*
D03*
Y0025000D02*
D03*
Y0020000D02*
D03*
X0365000Y0030000D02*
D03*
Y0025000D02*
D03*
Y0020000D02*
D03*
X0360000Y0030000D02*
D03*
Y0025000D02*
D03*
Y0020000D02*
D03*
X0355000Y0030000D02*
D03*
Y0025000D02*
D03*
Y0020000D02*
D03*
X0350000Y0030000D02*
D03*
Y0025000D02*
D03*
Y0020000D02*
D03*
X0345000Y0030000D02*
D03*
Y0025000D02*
D03*
Y0020000D02*
D03*
X0340000Y0030000D02*
D03*
Y0025000D02*
D03*
Y0020000D02*
D03*
X0335000Y0030000D02*
D03*
Y0025000D02*
D03*
Y0020000D02*
D03*
X0330000Y0030000D02*
D03*
Y0025000D02*
D03*
Y0020000D02*
D03*
X0325000Y0030000D02*
D03*
Y0025000D02*
D03*
Y0020000D02*
D03*
X0320000Y0030000D02*
D03*
Y0025000D02*
D03*
Y0020000D02*
D03*
X0315000Y0030000D02*
D03*
Y0025000D02*
D03*
Y0020000D02*
D03*
X0310000Y0025000D02*
D03*
Y0020000D02*
D03*
X0305000Y0025000D02*
D03*
Y0020000D02*
D03*
X0300000Y0025000D02*
D03*
Y0020000D02*
D03*
X0295000Y0025000D02*
D03*
Y0020000D02*
D03*
X0290000D02*
D03*
X0285000D02*
D03*
X0280000Y0030000D02*
D03*
Y0025000D02*
D03*
Y0020000D02*
D03*
X0275000Y0030000D02*
D03*
Y0025000D02*
D03*
Y0020000D02*
D03*
X0270000Y0030000D02*
D03*
Y0025000D02*
D03*
Y0020000D02*
D03*
X0265000Y0035000D02*
D03*
Y0030000D02*
D03*
Y0025000D02*
D03*
X0260000Y0040000D02*
D03*
Y0035000D02*
D03*
Y0030000D02*
D03*
X0255000Y0045000D02*
D03*
Y0040000D02*
D03*
Y0035000D02*
D03*
X0250000Y0085000D02*
D03*
Y0080000D02*
D03*
Y0075000D02*
D03*
Y0070000D02*
D03*
Y0065000D02*
D03*
Y0060000D02*
D03*
Y0055000D02*
D03*
Y0050000D02*
D03*
Y0045000D02*
D03*
Y0040000D02*
D03*
X0245000Y0090000D02*
D03*
Y0085000D02*
D03*
Y0080000D02*
D03*
Y0075000D02*
D03*
Y0070000D02*
D03*
Y0065000D02*
D03*
Y0060000D02*
D03*
Y0055000D02*
D03*
Y0050000D02*
D03*
Y0045000D02*
D03*
X0240000Y0095000D02*
D03*
Y0090000D02*
D03*
Y0085000D02*
D03*
Y0080000D02*
D03*
Y0075000D02*
D03*
Y0070000D02*
D03*
Y0065000D02*
D03*
Y0060000D02*
D03*
Y0055000D02*
D03*
Y0050000D02*
D03*
X0235000Y0100000D02*
D03*
Y0095000D02*
D03*
Y0090000D02*
D03*
Y0085000D02*
D03*
X0230000Y0105000D02*
D03*
Y0100000D02*
D03*
Y0095000D02*
D03*
Y0090000D02*
D03*
X0225000Y0105000D02*
D03*
Y0100000D02*
D03*
Y0095000D02*
D03*
Y0090000D02*
D03*
X0220000Y0105000D02*
D03*
Y0100000D02*
D03*
Y0095000D02*
D03*
Y0090000D02*
D03*
X0215000Y0105000D02*
D03*
Y0100000D02*
D03*
Y0095000D02*
D03*
Y0090000D02*
D03*
X0560000Y0023000D02*
D03*
X0556000D02*
D03*
X0552000D02*
D03*
X0548000D02*
D03*
X0544000D02*
D03*
X0540000D02*
D03*
X0536000D02*
D03*
X0532000D02*
D03*
X0528000D02*
D03*
X0524000Y0027000D02*
D03*
Y0023000D02*
D03*
X0520000Y0031000D02*
D03*
Y0027000D02*
D03*
Y0023000D02*
D03*
X0516000Y0031000D02*
D03*
Y0027000D02*
D03*
Y0023000D02*
D03*
X0512000Y0031000D02*
D03*
Y0027000D02*
D03*
Y0023000D02*
D03*
X0508000Y0031000D02*
D03*
Y0027000D02*
D03*
Y0023000D02*
D03*
X0504000Y0031000D02*
D03*
Y0027000D02*
D03*
Y0023000D02*
D03*
X0500000Y0031000D02*
D03*
Y0027000D02*
D03*
Y0023000D02*
D03*
X0496000Y0031000D02*
D03*
Y0027000D02*
D03*
Y0023000D02*
D03*
X0492000Y0031000D02*
D03*
Y0027000D02*
D03*
Y0023000D02*
D03*
X0488000Y0031000D02*
D03*
Y0027000D02*
D03*
Y0023000D02*
D03*
X0484000Y0031000D02*
D03*
Y0027000D02*
D03*
Y0023000D02*
D03*
X0480000Y0031000D02*
D03*
Y0027000D02*
D03*
Y0023000D02*
D03*
X0476000Y0031000D02*
D03*
Y0027000D02*
D03*
X0472000Y0035000D02*
D03*
Y0031000D02*
D03*
X0468000Y0039000D02*
D03*
Y0035000D02*
D03*
X0464000Y0043000D02*
D03*
Y0039000D02*
D03*
X0460000Y0047000D02*
D03*
Y0043000D02*
D03*
X0456000Y0051000D02*
D03*
Y0047000D02*
D03*
X0452000Y0055000D02*
D03*
Y0051000D02*
D03*
X0448000Y0059000D02*
D03*
Y0055000D02*
D03*
X0444000Y0059000D02*
D03*
X0436000Y0071000D02*
D03*
X0432000D02*
D03*
X0428000D02*
D03*
X0556500Y0049000D02*
D03*
X0552500D02*
D03*
X0524500D02*
D03*
Y0045000D02*
D03*
X0520500Y0049000D02*
D03*
Y0045000D02*
D03*
Y0041000D02*
D03*
X0516500Y0049000D02*
D03*
Y0045000D02*
D03*
Y0041000D02*
D03*
X0512500Y0049000D02*
D03*
Y0045000D02*
D03*
Y0041000D02*
D03*
X0508500Y0049000D02*
D03*
Y0045000D02*
D03*
Y0041000D02*
D03*
X0504500Y0049000D02*
D03*
Y0045000D02*
D03*
Y0041000D02*
D03*
X0500500Y0049000D02*
D03*
Y0045000D02*
D03*
Y0041000D02*
D03*
X0496500Y0049000D02*
D03*
Y0045000D02*
D03*
Y0041000D02*
D03*
X0492500Y0049000D02*
D03*
Y0045000D02*
D03*
Y0041000D02*
D03*
X0488500Y0049000D02*
D03*
Y0045000D02*
D03*
Y0041000D02*
D03*
X0484500Y0049000D02*
D03*
Y0045000D02*
D03*
Y0041000D02*
D03*
X0480500Y0049000D02*
D03*
Y0045000D02*
D03*
Y0041000D02*
D03*
X0476500Y0053000D02*
D03*
Y0049000D02*
D03*
Y0045000D02*
D03*
X0472500Y0057000D02*
D03*
Y0053000D02*
D03*
Y0049000D02*
D03*
X0468500Y0061000D02*
D03*
Y0057000D02*
D03*
Y0053000D02*
D03*
X0464500Y0065000D02*
D03*
Y0061000D02*
D03*
Y0057000D02*
D03*
X0460500Y0069000D02*
D03*
Y0065000D02*
D03*
Y0061000D02*
D03*
X0456500Y0069000D02*
D03*
Y0065000D02*
D03*
X0452500Y0077000D02*
D03*
X0448500Y0081000D02*
D03*
Y0077000D02*
D03*
Y0073000D02*
D03*
X0444500Y0081000D02*
D03*
Y0077000D02*
D03*
X0440500Y0081000D02*
D03*
X0420500D02*
D03*
X0547000Y0095000D02*
D03*
Y0090000D02*
D03*
Y0085000D02*
D03*
Y0080000D02*
D03*
Y0075000D02*
D03*
Y0070000D02*
D03*
Y0065000D02*
D03*
Y0060000D02*
D03*
X0542000Y0095000D02*
D03*
Y0090000D02*
D03*
Y0085000D02*
D03*
Y0080000D02*
D03*
Y0075000D02*
D03*
Y0070000D02*
D03*
Y0065000D02*
D03*
Y0060000D02*
D03*
X0537000Y0095000D02*
D03*
Y0090000D02*
D03*
Y0085000D02*
D03*
Y0080000D02*
D03*
Y0075000D02*
D03*
Y0070000D02*
D03*
Y0065000D02*
D03*
Y0060000D02*
D03*
X0532000Y0070000D02*
D03*
Y0065000D02*
D03*
Y0060000D02*
D03*
X0527000Y0065000D02*
D03*
Y0060000D02*
D03*
X0522000Y0065000D02*
D03*
Y0060000D02*
D03*
X0517000Y0065000D02*
D03*
Y0060000D02*
D03*
X0512000Y0065000D02*
D03*
Y0060000D02*
D03*
X0507000Y0065000D02*
D03*
Y0060000D02*
D03*
X0502000Y0065000D02*
D03*
Y0060000D02*
D03*
X0331376Y0065440D02*
D03*
X0322200D02*
D03*
X0340800D02*
D03*
X0342500Y0079500D02*
D03*
X0354500Y0084800D02*
D03*
X0364900Y0084600D02*
D03*
X0646500Y0079500D02*
D03*
X0659300Y0084800D02*
D03*
X0626200Y0065440D02*
D03*
X0635376D02*
D03*
X0644800D02*
D03*
X0668500Y0085472D02*
D03*
X0382500Y0047000D02*
D03*
X0389200Y0046700D02*
D03*
X0692000Y0090516D02*
D03*
X0771629Y0081000D02*
D03*
X0693000Y0076000D02*
D03*
X0694847Y0047100D02*
D03*
X0687421Y0047000D02*
D03*
X0470400Y0083500D02*
D03*
X0546000Y0129500D02*
D03*
X0550000D02*
D03*
X0852536Y0115464D02*
D03*
X0823500Y0129866D02*
D03*
X0827500D02*
D03*
X0798500D02*
D03*
X0802500D02*
D03*
X0773500D02*
D03*
X0777500D02*
D03*
X0748500D02*
D03*
X0752500D02*
D03*
X0723500D02*
D03*
X0727500D02*
D03*
X0698500D02*
D03*
X0702500D02*
D03*
X0673500D02*
D03*
X0677500D02*
D03*
X0648500D02*
D03*
X0652500D02*
D03*
X0623500D02*
D03*
X0627500D02*
D03*
X0598500D02*
D03*
X0602500D02*
D03*
X0573500D02*
D03*
X0577500D02*
D03*
X0523500D02*
D03*
X0527500D02*
D03*
X0498500D02*
D03*
X0502500D02*
D03*
X0473500D02*
D03*
X0477500D02*
D03*
X0448500D02*
D03*
X0452500D02*
D03*
X0423500D02*
D03*
X0427500D02*
D03*
X0398500D02*
D03*
X0402500D02*
D03*
X0373500D02*
D03*
X0377500D02*
D03*
X0348500D02*
D03*
X0352500D02*
D03*
X0323500D02*
D03*
X0327500D02*
D03*
X0298500D02*
D03*
X0302500D02*
D03*
X0277500D02*
D03*
X0273500D02*
D03*
X0693047Y0061211D02*
D03*
X0710000Y0063050D02*
D03*
X0709024Y0054363D02*
D03*
X0711390D02*
D03*
X0703124Y0054263D02*
D03*
X0705490D02*
D03*
X0696950Y0057200D02*
D03*
X0389000Y0061279D02*
D03*
X0392771Y0056907D02*
D03*
X0401567Y0055000D02*
D03*
X0399200D02*
D03*
X0404700Y0055500D02*
D03*
X0407200D02*
D03*
X0405933Y0064150D02*
D03*
X0380272Y0056364D02*
D03*
X0546900Y0145200D02*
D03*
X0616133Y0036000D02*
D03*
X0527100Y0036100D02*
D03*
X0435950Y0053500D02*
D03*
X0524300Y0110900D02*
D03*
X0814388Y0092000D02*
D03*
X0685150Y0056500D02*
D03*
X0678000Y0051500D02*
D03*
X0675500Y0060000D02*
D03*
X0667366Y0075025D02*
D03*
X0364200Y0074752D02*
D03*
X0671750Y0096400D02*
D03*
X0370500Y0060000D02*
D03*
X0373000Y0051500D02*
D03*
X0368800Y0096400D02*
D03*
X0483500Y0101500D02*
D03*
X0388000Y0090516D02*
D03*
X0389000Y0075776D02*
D03*
X0725800Y0044300D02*
D03*
X0801182Y0092457D02*
D03*
X0743432Y0095217D02*
D03*
X0439400D02*
D03*
X0510152Y0091866D02*
D03*
X0496946Y0091366D02*
D03*
D86*
X0154038Y0114950D02*
D03*
X0916570Y0069470D02*
D03*
X0869559Y0022331D02*
D03*
X0811846Y0021650D02*
D03*
X0305414Y0035750D02*
D03*
X0223464Y0114900D02*
D03*
X0706954Y0282500D02*
D03*
X0855500Y0282800D02*
D03*
X0831954Y0282500D02*
D03*
X0807000Y0282366D02*
D03*
X0781954Y0282500D02*
D03*
X0756954D02*
D03*
X0731954D02*
D03*
X0682000Y0282366D02*
D03*
X0656954Y0282500D02*
D03*
X0631954D02*
D03*
X0556954D02*
D03*
X0581954D02*
D03*
X0606954D02*
D03*
X0544045D02*
D03*
X0518591D02*
D03*
X0493136D02*
D03*
X0467682D02*
D03*
X0442227D02*
D03*
X0416773D02*
D03*
X0391318D02*
D03*
X0365841Y0282366D02*
D03*
X0340409Y0282500D02*
D03*
X0314954D02*
D03*
X0289500D02*
D03*
X0265500D02*
D03*
X0861500Y0282800D02*
D03*
X0865750D02*
D03*
X0874250D02*
D03*
X0878500D02*
D03*
X0870000D02*
D03*
X0844454Y0276000D02*
D03*
X0837955D02*
D03*
X0844454Y0282500D02*
D03*
X0837955D02*
D03*
X0841204Y0279250D02*
D03*
X0819454Y0276000D02*
D03*
X0812955D02*
D03*
X0819454Y0282500D02*
D03*
X0812955D02*
D03*
X0816204Y0279250D02*
D03*
X0794454Y0276000D02*
D03*
X0787955D02*
D03*
X0794454Y0282500D02*
D03*
X0787955D02*
D03*
X0791205Y0279250D02*
D03*
X0769454Y0276000D02*
D03*
X0762955D02*
D03*
X0769454Y0282500D02*
D03*
X0762955D02*
D03*
X0766205Y0279250D02*
D03*
X0744454Y0276000D02*
D03*
X0737955D02*
D03*
X0744454Y0282500D02*
D03*
X0737955D02*
D03*
X0741205Y0279250D02*
D03*
X0719454Y0276000D02*
D03*
X0712955D02*
D03*
X0719454Y0282500D02*
D03*
X0712955D02*
D03*
X0716205Y0279250D02*
D03*
X0694454Y0276000D02*
D03*
X0687955D02*
D03*
X0694454Y0282500D02*
D03*
X0687955D02*
D03*
X0691205Y0279250D02*
D03*
X0669454Y0276000D02*
D03*
X0662955D02*
D03*
X0669454Y0282500D02*
D03*
X0662955D02*
D03*
X0666205Y0279250D02*
D03*
X0644454Y0276000D02*
D03*
X0637955D02*
D03*
X0644454Y0282500D02*
D03*
X0637955D02*
D03*
X0641205Y0279250D02*
D03*
X0619454Y0276000D02*
D03*
X0612955D02*
D03*
X0619454Y0282500D02*
D03*
X0612955D02*
D03*
X0616205Y0279250D02*
D03*
X0594454Y0276000D02*
D03*
X0587955D02*
D03*
X0594454Y0282500D02*
D03*
X0587955D02*
D03*
X0591205Y0279250D02*
D03*
X0566205D02*
D03*
X0562955Y0282500D02*
D03*
X0569454D02*
D03*
X0562955Y0276000D02*
D03*
X0569454D02*
D03*
X0534795Y0279250D02*
D03*
X0538045Y0276000D02*
D03*
X0531545D02*
D03*
X0538045Y0282500D02*
D03*
X0531545D02*
D03*
X0509341Y0279250D02*
D03*
X0512591Y0276000D02*
D03*
X0506091D02*
D03*
X0512591Y0282500D02*
D03*
X0506091D02*
D03*
X0455182Y0276000D02*
D03*
X0458432Y0279250D02*
D03*
X0461682Y0282500D02*
D03*
X0483886Y0279250D02*
D03*
X0487136Y0276000D02*
D03*
X0480636D02*
D03*
X0487136Y0282500D02*
D03*
X0480636D02*
D03*
X0461682Y0276000D02*
D03*
X0455182Y0282500D02*
D03*
X0432977Y0279250D02*
D03*
X0436227Y0276000D02*
D03*
X0429727D02*
D03*
X0436227Y0282500D02*
D03*
X0429727D02*
D03*
X0407523Y0279250D02*
D03*
X0410773Y0276000D02*
D03*
X0404273D02*
D03*
X0410773Y0282500D02*
D03*
X0404273D02*
D03*
X0382068Y0279250D02*
D03*
X0385318Y0276000D02*
D03*
X0378818D02*
D03*
X0385318Y0282500D02*
D03*
X0378818D02*
D03*
X0353364D02*
D03*
X0359864D02*
D03*
X0353364Y0276000D02*
D03*
X0359864D02*
D03*
X0356614Y0279250D02*
D03*
X0327909Y0282500D02*
D03*
X0334409D02*
D03*
X0327909Y0276000D02*
D03*
X0334409D02*
D03*
X0331159Y0279250D02*
D03*
X0302454Y0282500D02*
D03*
X0308955D02*
D03*
X0302454Y0276000D02*
D03*
X0308955D02*
D03*
X0305704Y0279250D02*
D03*
X0280250D02*
D03*
X0283500Y0276000D02*
D03*
X0277000D02*
D03*
X0283500Y0282500D02*
D03*
X0277000D02*
D03*
X0251000D02*
D03*
X0242500D02*
D03*
X0246750D02*
D03*
X0255250D02*
D03*
X0259500D02*
D03*
X0241000Y0127000D02*
D03*
X0551400Y0135900D02*
D03*
X0536500Y0184500D02*
D03*
X0249500Y0116884D02*
D03*
X0813000Y0185116D02*
D03*
X0413000Y0184866D02*
D03*
X0708000Y0157866D02*
D03*
X0508591Y0157760D02*
D03*
X0838000Y0185116D02*
D03*
X0738000D02*
D03*
X0763000D02*
D03*
X0788000D02*
D03*
X0863000D02*
D03*
X0688000D02*
D03*
X0713000D02*
D03*
X0833591Y0158010D02*
D03*
X0808591D02*
D03*
X0783591D02*
D03*
X0758591D02*
D03*
X0733591D02*
D03*
X0683591D02*
D03*
X0659591D02*
D03*
X0633591D02*
D03*
X0608591D02*
D03*
X0583591D02*
D03*
X0558591D02*
D03*
X0533591Y0157760D02*
D03*
X0483500Y0157866D02*
D03*
X0458591Y0157760D02*
D03*
X0433591D02*
D03*
X0408591D02*
D03*
X0383591D02*
D03*
X0358591D02*
D03*
X0333591D02*
D03*
X0308591D02*
D03*
X0258591D02*
D03*
X0283614Y0157783D02*
D03*
X0638000Y0185116D02*
D03*
X0663000D02*
D03*
X0563000D02*
D03*
X0588000D02*
D03*
X0613000D02*
D03*
X0488000Y0184866D02*
D03*
X0513000D02*
D03*
X0388000D02*
D03*
X0438000D02*
D03*
X0463000D02*
D03*
X0363000D02*
D03*
X0338000D02*
D03*
X0313000D02*
D03*
X0288024Y0184890D02*
D03*
X0263000Y0184866D02*
D03*
D87*
X0785500Y0084100D02*
D03*
X0482115Y0083400D02*
D03*
X0783096Y0070374D02*
D03*
X0478696Y0069500D02*
D03*
M02*
