G04*
G04 #@! TF.GenerationSoftware,Altium Limited,Altium Designer,19.0.4 (130)*
G04*
G04 Layer_Physical_Order=2*
G04 Layer_Color=16711680*
%FSAX25Y25*%
%MOIN*%
G70*
G01*
G75*
%ADD16C,0.01000*%
%ADD21C,0.02000*%
%ADD26R,0.03800X0.03500*%
%ADD35R,0.06600X0.04400*%
%ADD36R,0.03500X0.03800*%
%ADD71C,0.03000*%
%ADD72C,0.06000*%
%ADD73C,0.04000*%
%ADD78C,0.05941*%
%ADD79C,0.06555*%
%ADD80C,0.09744*%
%ADD81C,0.05512*%
%ADD82O,0.04724X0.07000*%
%ADD83C,0.05906*%
%ADD84R,0.05906X0.05906*%
%ADD85C,0.02500*%
%ADD86C,0.03900*%
%ADD87C,0.05000*%
G04:AMPARAMS|DCode=88|XSize=66mil|YSize=44mil|CornerRadius=0mil|HoleSize=0mil|Usage=FLASHONLY|Rotation=135.000|XOffset=0mil|YOffset=0mil|HoleType=Round|Shape=Rectangle|*
%AMROTATEDRECTD88*
4,1,4,0.03889,-0.00778,0.00778,-0.03889,-0.03889,0.00778,-0.00778,0.03889,0.03889,-0.00778,0.0*
%
%ADD88ROTATEDRECTD88*%

%ADD89R,0.09700X0.11811*%
%ADD90R,0.19685X0.25720*%
%ADD91R,0.13500X0.08000*%
G36*
X0267750Y0285000D02*
X0267750Y0280500D01*
X0267700D01*
X0267700Y0262600D01*
X0248200D01*
X0248200Y0280500D01*
X0240000D01*
X0240000Y0285000D01*
X0267750Y0285000D01*
D02*
G37*
G36*
X0881000Y0280500D02*
X0872750D01*
X0872750Y0262600D01*
X0853250D01*
X0853250Y0280500D01*
D01*
X0853250Y0285000D01*
X0881000D01*
X0881000Y0280500D01*
D02*
G37*
G36*
X0847755Y0262600D02*
X0828255D01*
X0828255Y0285000D01*
X0847754D01*
X0847755Y0262600D01*
D02*
G37*
G36*
X0822755D02*
X0803255D01*
X0803255Y0285000D01*
X0822754D01*
X0822755Y0262600D01*
D02*
G37*
G36*
X0797755D02*
X0778255D01*
X0778255Y0285000D01*
X0797754D01*
X0797755Y0262600D01*
D02*
G37*
G36*
X0772755D02*
X0753255D01*
X0753255Y0285000D01*
X0772754D01*
X0772755Y0262600D01*
D02*
G37*
G36*
X0747755D02*
X0728255D01*
X0728255Y0285000D01*
X0747754D01*
X0747755Y0262600D01*
D02*
G37*
G36*
X0722755D02*
X0703255D01*
X0703255Y0285000D01*
X0722754D01*
X0722755Y0262600D01*
D02*
G37*
G36*
X0697755D02*
X0678255D01*
X0678255Y0285000D01*
X0697754D01*
X0697755Y0262600D01*
D02*
G37*
G36*
X0672755D02*
X0653255D01*
X0653255Y0285000D01*
X0672754D01*
X0672755Y0262600D01*
D02*
G37*
G36*
X0647755D02*
X0628255D01*
X0628255Y0285000D01*
X0647754D01*
X0647755Y0262600D01*
D02*
G37*
G36*
X0622755D02*
X0603255D01*
X0603255Y0285000D01*
X0622754D01*
X0622755Y0262600D01*
D02*
G37*
G36*
X0597755D02*
X0578255D01*
X0578255Y0285000D01*
X0597754D01*
X0597755Y0262600D01*
D02*
G37*
G36*
X0572755D02*
X0553255D01*
X0553255Y0285000D01*
X0572754D01*
X0572755Y0262600D01*
D02*
G37*
G36*
X0547795D02*
X0528295D01*
X0528295Y0285000D01*
X0547795D01*
X0547795Y0262600D01*
D02*
G37*
G36*
X0522341D02*
X0502841D01*
X0502841Y0285000D01*
X0522341D01*
X0522341Y0262600D01*
D02*
G37*
G36*
X0496886D02*
X0477386D01*
X0477386Y0285000D01*
X0496886D01*
X0496886Y0262600D01*
D02*
G37*
G36*
X0471432D02*
X0451932D01*
X0451932Y0285000D01*
X0471432D01*
X0471432Y0262600D01*
D02*
G37*
G36*
X0445977D02*
X0426477D01*
X0426477Y0285000D01*
X0445977D01*
X0445977Y0262600D01*
D02*
G37*
G36*
X0420523D02*
X0401023D01*
X0401023Y0285000D01*
X0420523D01*
X0420523Y0262600D01*
D02*
G37*
G36*
X0395068D02*
X0375568D01*
X0375568Y0285000D01*
X0395068D01*
X0395068Y0262600D01*
D02*
G37*
G36*
X0369614D02*
X0350114D01*
X0350114Y0285000D01*
X0369614D01*
X0369614Y0262600D01*
D02*
G37*
G36*
X0344159D02*
X0324659D01*
X0324659Y0285000D01*
X0344159D01*
X0344159Y0262600D01*
D02*
G37*
G36*
X0318705D02*
X0299204D01*
X0299204Y0285000D01*
X0318705D01*
X0318705Y0262600D01*
D02*
G37*
G36*
X0293250D02*
X0273750D01*
X0273750Y0285000D01*
X0293250D01*
X0293250Y0262600D01*
D02*
G37*
G36*
X0845677Y0174116D02*
X0830323D01*
Y0192116D01*
X0845677D01*
Y0174116D01*
D02*
G37*
G36*
X0820677D02*
X0805323D01*
Y0192116D01*
X0820677D01*
Y0174116D01*
D02*
G37*
G36*
X0795677D02*
X0780323D01*
Y0192116D01*
X0795677D01*
Y0174116D01*
D02*
G37*
G36*
X0770677D02*
X0755323D01*
Y0192116D01*
X0770677D01*
Y0174116D01*
D02*
G37*
G36*
X0745677D02*
X0730323D01*
Y0192116D01*
X0745677D01*
Y0174116D01*
D02*
G37*
G36*
X0720677D02*
X0705323D01*
Y0192116D01*
X0720677D01*
Y0174116D01*
D02*
G37*
G36*
X0695677D02*
X0680323D01*
Y0192116D01*
X0695677D01*
Y0174116D01*
D02*
G37*
G36*
X0670677D02*
X0655323D01*
Y0192116D01*
X0670677D01*
Y0174116D01*
D02*
G37*
G36*
X0645677D02*
X0630323D01*
Y0192116D01*
X0645677D01*
Y0174116D01*
D02*
G37*
G36*
X0620677D02*
X0605323D01*
Y0192116D01*
X0620677D01*
Y0174116D01*
D02*
G37*
G36*
X0595677D02*
X0580323D01*
Y0192116D01*
X0595677D01*
Y0174116D01*
D02*
G37*
G36*
X0570677D02*
X0555323D01*
Y0192116D01*
X0570677D01*
Y0174116D01*
D02*
G37*
G36*
X0545677Y0173866D02*
X0530323D01*
Y0191866D01*
X0545677D01*
Y0173866D01*
D02*
G37*
G36*
X0520677D02*
X0505323D01*
Y0191866D01*
X0520677D01*
Y0173866D01*
D02*
G37*
G36*
X0495677D02*
X0480323D01*
Y0191866D01*
X0495677D01*
Y0173866D01*
D02*
G37*
G36*
X0470677D02*
X0455323D01*
Y0191866D01*
X0470677D01*
Y0173866D01*
D02*
G37*
G36*
X0445677D02*
X0430323D01*
Y0191866D01*
X0445677D01*
Y0173866D01*
D02*
G37*
G36*
X0420677D02*
X0405323D01*
Y0191866D01*
X0420677D01*
Y0173866D01*
D02*
G37*
G36*
X0395677D02*
X0380323D01*
Y0191866D01*
X0395677D01*
Y0173866D01*
D02*
G37*
G36*
X0370677D02*
X0355323D01*
Y0191866D01*
X0370677D01*
Y0173866D01*
D02*
G37*
G36*
X0345677D02*
X0330323D01*
Y0191866D01*
X0345677D01*
Y0173866D01*
D02*
G37*
G36*
X0320677D02*
X0305323D01*
Y0191866D01*
X0320677D01*
Y0173866D01*
D02*
G37*
G36*
X0295265Y0179095D02*
X0295677D01*
Y0173866D01*
X0280323D01*
Y0191866D01*
X0295265D01*
Y0179095D01*
D02*
G37*
G36*
X0269765D02*
X0270677D01*
Y0173866D01*
X0255323D01*
Y0191866D01*
X0269765D01*
Y0179095D01*
D02*
G37*
G36*
X0845677Y0143510D02*
X0830323D01*
Y0161510D01*
X0845677D01*
Y0143510D01*
D02*
G37*
G36*
X0820677D02*
X0805323D01*
Y0161510D01*
X0820677D01*
Y0143510D01*
D02*
G37*
G36*
X0795677D02*
X0780323D01*
Y0161510D01*
X0795677D01*
Y0143510D01*
D02*
G37*
G36*
X0770677D02*
X0755323D01*
Y0161510D01*
X0770677D01*
Y0143510D01*
D02*
G37*
G36*
X0745677D02*
X0730323D01*
Y0161510D01*
X0745677D01*
Y0143510D01*
D02*
G37*
G36*
X0720677D02*
X0705323D01*
Y0161510D01*
X0720677D01*
Y0143510D01*
D02*
G37*
G36*
X0695677D02*
X0680323D01*
Y0161510D01*
X0695677D01*
Y0143510D01*
D02*
G37*
G36*
X0670677D02*
X0655323D01*
Y0161510D01*
X0670677D01*
Y0143510D01*
D02*
G37*
G36*
X0645677D02*
X0630323D01*
Y0161510D01*
X0645677D01*
Y0143510D01*
D02*
G37*
G36*
X0620677D02*
X0605323D01*
Y0161510D01*
X0620677D01*
Y0143510D01*
D02*
G37*
G36*
X0595677D02*
X0580323D01*
Y0161510D01*
X0595677D01*
Y0143510D01*
D02*
G37*
G36*
X0570677D02*
X0555323D01*
Y0161510D01*
X0570677D01*
Y0143510D01*
D02*
G37*
G36*
X0545677Y0150586D02*
X0545464Y0150558D01*
X0544126Y0150004D01*
X0542977Y0149123D01*
X0542096Y0147974D01*
X0541542Y0146636D01*
X0541534Y0146579D01*
X0538214Y0143260D01*
X0530323D01*
Y0161260D01*
X0545677D01*
X0545677Y0150586D01*
D02*
G37*
G36*
X0520677Y0143260D02*
X0505323D01*
Y0161260D01*
X0520677D01*
Y0143260D01*
D02*
G37*
G36*
X0495677D02*
X0480323D01*
Y0161260D01*
X0495677D01*
Y0143260D01*
D02*
G37*
G36*
X0470677D02*
X0455323D01*
Y0161260D01*
X0470677D01*
Y0143260D01*
D02*
G37*
G36*
X0445677D02*
X0430323D01*
Y0161260D01*
X0445677D01*
Y0143260D01*
D02*
G37*
G36*
X0420677D02*
X0405323D01*
Y0161260D01*
X0420677D01*
Y0143260D01*
D02*
G37*
G36*
X0395677D02*
X0380323D01*
Y0161260D01*
X0395677D01*
Y0143260D01*
D02*
G37*
G36*
X0370677D02*
X0355323D01*
Y0161260D01*
X0370677D01*
Y0143260D01*
D02*
G37*
G36*
X0345677D02*
X0330323D01*
Y0161260D01*
X0345677D01*
Y0143260D01*
D02*
G37*
G36*
X0320677D02*
X0305323D01*
Y0161260D01*
X0320677D01*
Y0143260D01*
D02*
G37*
G36*
X0295677D02*
X0280323D01*
Y0161260D01*
X0295677D01*
Y0143260D01*
D02*
G37*
G36*
X0270677D02*
X0255323D01*
Y0161260D01*
X0270677D01*
Y0143260D01*
D02*
G37*
G36*
X1095961Y0002039D02*
X0946900D01*
X0946900Y0021306D01*
X0885470Y0081869D01*
X0885469Y0082369D01*
X0909200Y0106100D01*
X0909200Y0134100D01*
X0943868D01*
X0944036Y0133629D01*
X0943820Y0133452D01*
X0943086Y0132558D01*
X0942541Y0131537D01*
X0942205Y0130431D01*
X0942141Y0129780D01*
X0947992D01*
X0953843D01*
X0953779Y0130431D01*
X0953443Y0131537D01*
X0952898Y0132558D01*
X0952164Y0133452D01*
X0951948Y0133629D01*
X0952117Y0134100D01*
X1095961D01*
Y0002039D01*
D02*
G37*
G36*
X0829500Y0126366D02*
X0821500D01*
Y0131381D01*
X0829500D01*
Y0126366D01*
D02*
G37*
G36*
X0804500D02*
X0796500D01*
Y0131381D01*
X0804500D01*
Y0126366D01*
D02*
G37*
G36*
X0779500D02*
X0771500D01*
Y0131381D01*
X0779500D01*
Y0126366D01*
D02*
G37*
G36*
X0754500D02*
X0746500D01*
Y0131381D01*
X0754500D01*
Y0126366D01*
D02*
G37*
G36*
X0729500D02*
X0721500D01*
Y0131381D01*
X0729500D01*
Y0126366D01*
D02*
G37*
G36*
X0704500D02*
X0696500D01*
Y0131381D01*
X0704500D01*
Y0126366D01*
D02*
G37*
G36*
X0679500D02*
X0671500D01*
Y0131381D01*
X0679500D01*
Y0126366D01*
D02*
G37*
G36*
X0654500D02*
X0646500D01*
Y0131381D01*
X0654500D01*
Y0126366D01*
D02*
G37*
G36*
X0629500D02*
X0621500D01*
Y0131381D01*
X0629500D01*
Y0126366D01*
D02*
G37*
G36*
X0604500D02*
X0596500D01*
Y0131381D01*
X0604500D01*
Y0126366D01*
D02*
G37*
G36*
X0579500D02*
X0571500D01*
Y0131381D01*
X0579500D01*
Y0126366D01*
D02*
G37*
G36*
X0529500D02*
X0521500D01*
Y0131381D01*
X0529500D01*
Y0126366D01*
D02*
G37*
G36*
X0504500D02*
X0496500D01*
Y0131381D01*
X0504500D01*
Y0126366D01*
D02*
G37*
G36*
X0479500D02*
X0471500D01*
Y0131381D01*
X0479500D01*
Y0126366D01*
D02*
G37*
G36*
X0454500D02*
X0446500D01*
Y0131381D01*
X0454500D01*
Y0126366D01*
D02*
G37*
G36*
X0429500D02*
X0421500D01*
Y0131381D01*
X0429500D01*
Y0126366D01*
D02*
G37*
G36*
X0404500D02*
X0396500D01*
Y0131381D01*
X0404500D01*
Y0126366D01*
D02*
G37*
G36*
X0379500D02*
X0371500D01*
Y0131381D01*
X0379500D01*
Y0126366D01*
D02*
G37*
G36*
X0354500D02*
X0346500D01*
Y0131381D01*
X0354500D01*
Y0126366D01*
D02*
G37*
G36*
X0329500D02*
X0321500D01*
Y0131381D01*
X0329500D01*
Y0126366D01*
D02*
G37*
G36*
X0304500D02*
X0296500D01*
Y0131381D01*
X0304500D01*
Y0126366D01*
D02*
G37*
G36*
X0279500D02*
X0271500D01*
Y0131381D01*
X0279500D01*
Y0126366D01*
D02*
G37*
G36*
X0550900Y0130200D02*
Y0126366D01*
X0545100Y0126366D01*
Y0130200D01*
X0545552Y0130600D01*
X0550448Y0130600D01*
X0550900Y0130200D01*
D02*
G37*
G36*
X0857849Y0112292D02*
X0854303Y0108746D01*
X0848647Y0114403D01*
X0852192Y0117949D01*
X0857849Y0112292D01*
D02*
G37*
G36*
X0559800Y0125000D02*
X0568200Y0121541D01*
Y0120008D01*
X0582800D01*
Y0121500D01*
X0593200D01*
Y0120008D01*
X0607800D01*
Y0121500D01*
X0618200Y0121500D01*
Y0120008D01*
X0632800D01*
Y0121500D01*
X0643200D01*
Y0120008D01*
X0657800D01*
Y0121500D01*
X0668200D01*
Y0120008D01*
X0682800D01*
Y0121500D01*
X0693200D01*
Y0120008D01*
X0707800D01*
Y0121500D01*
X0718200D01*
Y0120008D01*
X0732800D01*
Y0121500D01*
X0743200D01*
Y0120008D01*
X0757800D01*
Y0121500D01*
X0768200D01*
Y0120008D01*
X0782800D01*
Y0121500D01*
X0793200Y0121500D01*
Y0120008D01*
X0807800D01*
Y0121500D01*
X0818200D01*
Y0120008D01*
X0830514D01*
X0833540Y0116977D01*
X0833214Y0115904D01*
X0833098Y0114727D01*
Y0114600D01*
X0833214Y0113424D01*
X0833557Y0112293D01*
X0834114Y0111250D01*
X0834864Y0110337D01*
X0835778Y0109587D01*
X0836820Y0109030D01*
X0837951Y0108687D01*
X0839127Y0108571D01*
X0840304Y0108687D01*
X0841435Y0109030D01*
X0842477Y0109587D01*
X0842776Y0109832D01*
X0844225Y0109832D01*
X0849600Y0104458D01*
X0849600Y0101900D01*
X0846947Y0099247D01*
X0846947Y0064547D01*
X0896500Y0015243D01*
X0896500Y0002039D01*
X0568300D01*
X0568300Y0094795D01*
X0555300Y0121396D01*
Y0129942D01*
X0557300Y0130384D01*
X0559800Y0125000D01*
D02*
G37*
G36*
X0255250Y0121900D02*
X0268200D01*
Y0120008D01*
X0282800D01*
Y0121900D01*
X0293200D01*
Y0120008D01*
X0307800D01*
Y0121900D01*
X0318200D01*
Y0120008D01*
X0332800D01*
Y0121900D01*
X0343200D01*
Y0120008D01*
X0357800D01*
Y0121900D01*
X0368200D01*
Y0120008D01*
X0382800D01*
Y0121900D01*
X0393200D01*
Y0120008D01*
X0407800D01*
Y0121900D01*
X0418200D01*
Y0120008D01*
X0432800D01*
Y0121900D01*
X0443200D01*
Y0120008D01*
X0457800D01*
Y0121900D01*
X0468200D01*
Y0120008D01*
X0482800D01*
Y0121900D01*
X0493200D01*
Y0120008D01*
X0507800D01*
Y0121900D01*
X0518200D01*
Y0120008D01*
X0527883D01*
X0528649Y0118160D01*
X0527002Y0116514D01*
X0493200D01*
X0491764Y0116325D01*
X0490426Y0115770D01*
X0489277Y0114889D01*
X0489277Y0114889D01*
X0480582Y0106194D01*
X0479577Y0105423D01*
X0478696Y0104274D01*
X0478142Y0102936D01*
X0477952Y0101500D01*
X0478142Y0100064D01*
X0478696Y0098726D01*
X0479577Y0097577D01*
X0480726Y0096696D01*
X0482064Y0096142D01*
X0483500Y0095952D01*
X0483734D01*
X0485170Y0096142D01*
X0486508Y0096696D01*
X0487656Y0097577D01*
X0494721Y0104642D01*
X0497016Y0104255D01*
X0497554Y0103419D01*
X0497481Y0102866D01*
X0497645Y0101625D01*
X0498124Y0100468D01*
X0498886Y0099474D01*
X0499880Y0098712D01*
X0501037Y0098233D01*
X0502278Y0098069D01*
X0503520Y0098233D01*
X0504677Y0098712D01*
X0504770Y0098783D01*
X0506215Y0099285D01*
X0507661Y0098783D01*
X0507754Y0098712D01*
X0508911Y0098233D01*
X0510152Y0098069D01*
X0511394Y0098233D01*
X0512551Y0098712D01*
X0512643Y0098783D01*
X0514089Y0099285D01*
X0515535Y0098783D01*
X0515628Y0098712D01*
X0516785Y0098233D01*
X0518026Y0098069D01*
X0519268Y0098233D01*
X0520425Y0098712D01*
X0521418Y0099474D01*
X0522180Y0100468D01*
X0522660Y0101625D01*
X0522823Y0102866D01*
X0522750Y0103419D01*
X0523168Y0104356D01*
X0523498Y0104725D01*
X0524318Y0105329D01*
X0524400Y0105319D01*
X0525160Y0105419D01*
X0529300D01*
X0530736Y0105608D01*
X0532074Y0106162D01*
X0533223Y0107044D01*
X0543123Y0116944D01*
X0543123Y0116944D01*
X0544004Y0118092D01*
X0544558Y0119430D01*
X0544634Y0120008D01*
X0550567D01*
X0563000Y0093737D01*
X0563000Y0002039D01*
X0207900D01*
X0207900Y0134900D01*
X0243500Y0134900D01*
X0255250Y0121900D01*
D02*
G37*
G36*
X0167500Y0062500D02*
X0153000Y0048000D01*
X0153000Y0002039D01*
X0002039D01*
Y0141200D01*
X0167500D01*
X0167500Y0062500D01*
D02*
G37*
%LPC*%
G36*
X0960000Y0129884D02*
X0958323Y0129719D01*
X0956710Y0129229D01*
X0955224Y0128435D01*
X0954120Y0127529D01*
X0953685Y0127819D01*
X0953779Y0128128D01*
X0953843Y0128779D01*
X0948492D01*
Y0123428D01*
X0949143Y0123493D01*
X0950250Y0123828D01*
X0951270Y0124373D01*
X0951541Y0124596D01*
X0951975Y0124305D01*
X0951569Y0122965D01*
X0951404Y0121287D01*
X0951569Y0119610D01*
X0952058Y0117998D01*
X0952852Y0116511D01*
X0953921Y0115209D01*
X0955224Y0114140D01*
X0956710Y0113345D01*
X0958323Y0112856D01*
X0960000Y0112691D01*
X0961677Y0112856D01*
X0963290Y0113345D01*
X0964776Y0114140D01*
X0966079Y0115209D01*
X0967148Y0116511D01*
X0967942Y0117998D01*
X0968431Y0119610D01*
X0968596Y0121287D01*
X0968431Y0122965D01*
X0967942Y0124577D01*
X0967148Y0126063D01*
X0966079Y0127366D01*
X0964776Y0128435D01*
X0963290Y0129229D01*
X0961677Y0129719D01*
X0960000Y0129884D01*
D02*
G37*
G36*
X0947492Y0128779D02*
X0942141D01*
X0942205Y0128128D01*
X0942541Y0127022D01*
X0943086Y0126001D01*
X0943820Y0125107D01*
X0944714Y0124373D01*
X0945734Y0123828D01*
X0946841Y0123493D01*
X0947492Y0123428D01*
Y0128779D01*
D02*
G37*
G36*
X0925000Y0121301D02*
X0923702Y0121130D01*
X0922493Y0120629D01*
X0921455Y0119832D01*
X0920658Y0118794D01*
X0920158Y0117585D01*
X0919987Y0116287D01*
X0920158Y0114990D01*
X0920658Y0113781D01*
X0921455Y0112742D01*
X0922493Y0111946D01*
X0923429Y0111558D01*
Y0111017D01*
X0922493Y0110629D01*
X0921455Y0109832D01*
X0920658Y0108794D01*
X0920158Y0107585D01*
X0919987Y0106287D01*
X0920158Y0104990D01*
X0920658Y0103781D01*
X0921455Y0102742D01*
X0922493Y0101946D01*
X0923429Y0101558D01*
Y0101017D01*
X0922493Y0100629D01*
X0921455Y0099832D01*
X0920658Y0098794D01*
X0920158Y0097585D01*
X0919987Y0096287D01*
X0920158Y0094990D01*
X0920658Y0093781D01*
X0921455Y0092742D01*
X0922493Y0091946D01*
X0923429Y0091558D01*
Y0091017D01*
X0922493Y0090629D01*
X0921455Y0089832D01*
X0920658Y0088794D01*
X0920158Y0087585D01*
X0919987Y0086287D01*
X0920158Y0084990D01*
X0920658Y0083781D01*
X0921455Y0082742D01*
X0922493Y0081946D01*
X0923702Y0081445D01*
X0925000Y0081274D01*
X0926298Y0081445D01*
X0927507Y0081946D01*
X0928545Y0082742D01*
X0929342Y0083781D01*
X0929842Y0084990D01*
X0930013Y0086287D01*
X0929842Y0087585D01*
X0929342Y0088794D01*
X0928545Y0089832D01*
X0927507Y0090629D01*
X0926571Y0091017D01*
Y0091558D01*
X0927507Y0091946D01*
X0928545Y0092742D01*
X0929342Y0093781D01*
X0929842Y0094990D01*
X0930013Y0096287D01*
X0929842Y0097585D01*
X0929342Y0098794D01*
X0928545Y0099832D01*
X0927507Y0100629D01*
X0926571Y0101017D01*
Y0101558D01*
X0927507Y0101946D01*
X0928545Y0102742D01*
X0929342Y0103781D01*
X0929842Y0104990D01*
X0930013Y0106287D01*
X0929842Y0107585D01*
X0929342Y0108794D01*
X0928545Y0109832D01*
X0927507Y0110629D01*
X0926571Y0111017D01*
Y0111558D01*
X0927507Y0111946D01*
X0928545Y0112742D01*
X0929342Y0113781D01*
X0929842Y0114990D01*
X0930013Y0116287D01*
X0929842Y0117585D01*
X0929342Y0118794D01*
X0928545Y0119832D01*
X0927507Y0120629D01*
X0926298Y0121130D01*
X0925000Y0121301D01*
D02*
G37*
G36*
X0935000Y0116301D02*
X0933702Y0116130D01*
X0932493Y0115629D01*
X0931455Y0114832D01*
X0930658Y0113794D01*
X0930157Y0112585D01*
X0929987Y0111287D01*
X0930157Y0109990D01*
X0930658Y0108781D01*
X0931455Y0107742D01*
X0932493Y0106946D01*
X0933429Y0106558D01*
Y0106017D01*
X0932493Y0105629D01*
X0931455Y0104832D01*
X0930658Y0103794D01*
X0930157Y0102585D01*
X0929987Y0101287D01*
X0930157Y0099990D01*
X0930658Y0098781D01*
X0931455Y0097742D01*
X0932493Y0096946D01*
X0933429Y0096558D01*
Y0096017D01*
X0932493Y0095629D01*
X0931455Y0094832D01*
X0930658Y0093794D01*
X0930157Y0092585D01*
X0929987Y0091287D01*
X0930157Y0089990D01*
X0930658Y0088781D01*
X0931455Y0087742D01*
X0932493Y0086946D01*
X0933429Y0086558D01*
Y0086017D01*
X0932493Y0085629D01*
X0931455Y0084832D01*
X0930658Y0083794D01*
X0930157Y0082585D01*
X0929987Y0081287D01*
X0930157Y0079990D01*
X0930658Y0078781D01*
X0931455Y0077742D01*
X0932493Y0076946D01*
X0933702Y0076445D01*
X0935000Y0076274D01*
X0936298Y0076445D01*
X0937507Y0076946D01*
X0938545Y0077742D01*
X0939342Y0078781D01*
X0939843Y0079990D01*
X0940013Y0081287D01*
X0939843Y0082585D01*
X0939342Y0083794D01*
X0938545Y0084832D01*
X0937507Y0085629D01*
X0936571Y0086017D01*
Y0086558D01*
X0937507Y0086946D01*
X0938545Y0087742D01*
X0939342Y0088781D01*
X0939843Y0089990D01*
X0940013Y0091287D01*
X0939843Y0092585D01*
X0939342Y0093794D01*
X0938545Y0094832D01*
X0937507Y0095629D01*
X0936571Y0096017D01*
Y0096558D01*
X0937507Y0096946D01*
X0938545Y0097742D01*
X0939342Y0098781D01*
X0939843Y0099990D01*
X0940013Y0101287D01*
X0939843Y0102585D01*
X0939342Y0103794D01*
X0938545Y0104832D01*
X0937507Y0105629D01*
X0936571Y0106017D01*
Y0106558D01*
X0937507Y0106946D01*
X0938545Y0107742D01*
X0939342Y0108781D01*
X0939843Y0109990D01*
X0940013Y0111287D01*
X0939843Y0112585D01*
X0939342Y0113794D01*
X0938545Y0114832D01*
X0937507Y0115629D01*
X0936298Y0116130D01*
X0935000Y0116301D01*
D02*
G37*
G36*
X0960000Y0084884D02*
X0958323Y0084719D01*
X0956710Y0084229D01*
X0955224Y0083435D01*
X0953921Y0082366D01*
X0952852Y0081063D01*
X0952058Y0079577D01*
X0951569Y0077965D01*
X0951404Y0076287D01*
X0951569Y0074610D01*
X0951975Y0073269D01*
X0951541Y0072979D01*
X0951270Y0073201D01*
X0950250Y0073747D01*
X0949143Y0074082D01*
X0948492Y0074146D01*
Y0068795D01*
X0953843D01*
X0953779Y0069446D01*
X0953685Y0069756D01*
X0954120Y0070046D01*
X0955224Y0069140D01*
X0956710Y0068345D01*
X0958323Y0067856D01*
X0960000Y0067691D01*
X0961677Y0067856D01*
X0963290Y0068345D01*
X0964776Y0069140D01*
X0966079Y0070209D01*
X0967148Y0071511D01*
X0967942Y0072998D01*
X0968431Y0074610D01*
X0968596Y0076287D01*
X0968431Y0077965D01*
X0967942Y0079577D01*
X0967148Y0081063D01*
X0966079Y0082366D01*
X0964776Y0083435D01*
X0963290Y0084229D01*
X0961677Y0084719D01*
X0960000Y0084884D01*
D02*
G37*
G36*
X0947492Y0074146D02*
X0946841Y0074082D01*
X0945734Y0073747D01*
X0944714Y0073201D01*
X0943820Y0072467D01*
X0943086Y0071573D01*
X0942541Y0070553D01*
X0942205Y0069446D01*
X0942141Y0068795D01*
X0947492D01*
Y0074146D01*
D02*
G37*
G36*
X0953843Y0067795D02*
X0948492D01*
Y0062444D01*
X0949143Y0062508D01*
X0950250Y0062844D01*
X0951270Y0063389D01*
X0952164Y0064123D01*
X0952898Y0065017D01*
X0953443Y0066037D01*
X0953779Y0067144D01*
X0953843Y0067795D01*
D02*
G37*
G36*
X0947492D02*
X0942141D01*
X0942205Y0067144D01*
X0942541Y0066037D01*
X0943086Y0065017D01*
X0943820Y0064123D01*
X0944714Y0063389D01*
X0945734Y0062844D01*
X0946841Y0062508D01*
X0947492Y0062444D01*
Y0067795D01*
D02*
G37*
G36*
X1078740Y0028024D02*
X1077113Y0027864D01*
X1075549Y0027390D01*
X1074107Y0026619D01*
X1072843Y0025582D01*
X1071806Y0024318D01*
X1071035Y0022876D01*
X1070561Y0021312D01*
X1070401Y0019685D01*
X1070561Y0018058D01*
X1071035Y0016494D01*
X1071806Y0015052D01*
X1072843Y0013788D01*
X1074107Y0012751D01*
X1075549Y0011981D01*
X1077113Y0011506D01*
X1078740Y0011346D01*
X1080367Y0011506D01*
X1081931Y0011981D01*
X1083373Y0012751D01*
X1084637Y0013788D01*
X1085674Y0015052D01*
X1086445Y0016494D01*
X1086919Y0018058D01*
X1087080Y0019685D01*
X1086919Y0021312D01*
X1086445Y0022876D01*
X1085674Y0024318D01*
X1084637Y0025582D01*
X1083373Y0026619D01*
X1081931Y0027390D01*
X1080367Y0027864D01*
X1078740Y0028024D01*
D02*
G37*
G36*
X0822140Y0107663D02*
X0820899Y0107500D01*
X0819742Y0107020D01*
X0819649Y0106949D01*
X0818203Y0106447D01*
X0816758Y0106949D01*
X0816665Y0107020D01*
X0815508Y0107500D01*
X0814266Y0107663D01*
X0813025Y0107500D01*
X0811868Y0107020D01*
X0811775Y0106949D01*
X0810329Y0106447D01*
X0808884Y0106949D01*
X0808791Y0107020D01*
X0807634Y0107500D01*
X0806392Y0107663D01*
X0805151Y0107500D01*
X0803994Y0107020D01*
X0803000Y0106258D01*
X0802238Y0105265D01*
X0801759Y0104108D01*
X0801595Y0102866D01*
X0801759Y0101625D01*
X0802238Y0100468D01*
X0803000Y0099474D01*
X0803994Y0098712D01*
X0805151Y0098233D01*
X0806392Y0098069D01*
X0807634Y0098233D01*
X0808791Y0098712D01*
X0808884Y0098783D01*
X0810329Y0099285D01*
X0811775Y0098783D01*
X0811868Y0098712D01*
X0813025Y0098233D01*
X0814266Y0098069D01*
X0815508Y0098233D01*
X0816665Y0098712D01*
X0816758Y0098783D01*
X0818203Y0099285D01*
X0819649Y0098783D01*
X0819742Y0098712D01*
X0820899Y0098233D01*
X0822140Y0098069D01*
X0823382Y0098233D01*
X0824539Y0098712D01*
X0825532Y0099474D01*
X0826295Y0100468D01*
X0826774Y0101625D01*
X0826937Y0102866D01*
X0826774Y0104108D01*
X0826295Y0105265D01*
X0825532Y0106258D01*
X0824539Y0107020D01*
X0823382Y0107500D01*
X0822140Y0107663D01*
D02*
G37*
G36*
X0776111Y0097297D02*
X0774869Y0097133D01*
X0773712Y0096654D01*
X0772719Y0095892D01*
X0771629D01*
X0770635Y0096654D01*
X0769478Y0097133D01*
X0768237Y0097297D01*
X0766995Y0097133D01*
X0765838Y0096654D01*
X0764845Y0095892D01*
X0763287Y0095276D01*
X0762311Y0095740D01*
X0762257Y0095781D01*
X0761343Y0096159D01*
X0760863Y0096223D01*
Y0092500D01*
Y0088778D01*
X0761343Y0088841D01*
X0762257Y0089219D01*
X0762311Y0089260D01*
X0763287Y0089724D01*
X0764845Y0089108D01*
X0765838Y0088346D01*
X0766995Y0087866D01*
X0768237Y0087703D01*
X0769478Y0087866D01*
X0770635Y0088346D01*
X0771629Y0089108D01*
X0772719D01*
X0773712Y0088346D01*
X0774869Y0087866D01*
X0775441Y0087791D01*
X0776214Y0086095D01*
X0776235Y0085757D01*
X0773518Y0083039D01*
X0772627D01*
X0772507Y0083119D01*
X0771629Y0083294D01*
X0770751Y0083119D01*
X0770007Y0082622D01*
X0769509Y0081878D01*
X0769335Y0081000D01*
X0769509Y0080122D01*
X0770007Y0079378D01*
X0770751Y0078881D01*
X0771629Y0078706D01*
X0772507Y0078881D01*
X0772627Y0078961D01*
X0774362D01*
X0774720Y0079032D01*
X0775783Y0077648D01*
X0775899Y0077382D01*
X0761355Y0062839D01*
X0713094D01*
X0712148Y0063786D01*
X0712119Y0063928D01*
X0711622Y0064672D01*
X0710878Y0065169D01*
X0710000Y0065344D01*
X0709122Y0065169D01*
X0708378Y0064672D01*
X0707881Y0063928D01*
X0707706Y0063050D01*
X0707881Y0062172D01*
X0708378Y0061427D01*
X0709122Y0060930D01*
X0709264Y0060902D01*
X0710808Y0059358D01*
X0711469Y0058916D01*
X0712250Y0058761D01*
X0762200D01*
X0762980Y0058916D01*
X0763642Y0059358D01*
X0784929Y0080645D01*
X0785500Y0080570D01*
X0786414Y0080690D01*
X0787265Y0081043D01*
X0787996Y0081604D01*
X0788557Y0082335D01*
X0788910Y0083186D01*
X0789030Y0084100D01*
X0788910Y0085014D01*
X0788557Y0085865D01*
X0787996Y0086596D01*
X0787265Y0087157D01*
X0787248Y0087164D01*
X0786685Y0089358D01*
X0787552Y0090417D01*
X0800184D01*
X0800304Y0090337D01*
X0801182Y0090163D01*
X0802060Y0090337D01*
X0802804Y0090834D01*
X0803301Y0091579D01*
X0803476Y0092457D01*
X0803301Y0093335D01*
X0802804Y0094079D01*
X0802060Y0094576D01*
X0801182Y0094751D01*
X0800304Y0094576D01*
X0800184Y0094496D01*
X0785819D01*
X0785819Y0094496D01*
X0785039Y0094341D01*
X0784377Y0093899D01*
X0782854Y0092376D01*
X0782516Y0092397D01*
X0780820Y0093170D01*
X0780744Y0093742D01*
X0780265Y0094898D01*
X0779503Y0095892D01*
X0778509Y0096654D01*
X0777352Y0097133D01*
X0776111Y0097297D01*
D02*
G37*
G36*
X0759863Y0096223D02*
X0759382Y0096159D01*
X0758469Y0095781D01*
X0757684Y0095179D01*
X0757082Y0094394D01*
X0756704Y0093480D01*
X0756640Y0093000D01*
X0759863D01*
Y0096223D01*
D02*
G37*
G36*
X0632075Y0094953D02*
X0628622D01*
Y0091500D01*
X0632075D01*
Y0094953D01*
D02*
G37*
G36*
X0759863Y0092000D02*
X0756640D01*
X0756704Y0091519D01*
X0757082Y0090606D01*
X0757684Y0089821D01*
X0758469Y0089219D01*
X0759382Y0088841D01*
X0759863Y0088778D01*
Y0092000D01*
D02*
G37*
G36*
X0588752Y0095995D02*
X0587459Y0095825D01*
X0586254Y0095326D01*
X0585220Y0094532D01*
X0584426Y0093498D01*
X0583927Y0092293D01*
X0583756Y0091000D01*
X0583927Y0089707D01*
X0584426Y0088502D01*
X0585045Y0087063D01*
X0584426Y0085624D01*
X0583927Y0084419D01*
X0583756Y0083126D01*
X0583927Y0081833D01*
X0584426Y0080628D01*
X0585220Y0079594D01*
X0586254Y0078800D01*
X0587459Y0078301D01*
X0588752Y0078131D01*
X0590045Y0078301D01*
X0591250Y0078800D01*
X0592689Y0079419D01*
X0594128Y0078800D01*
X0595333Y0078301D01*
X0596626Y0078131D01*
X0597919Y0078301D01*
X0598887Y0078702D01*
X0603471Y0074119D01*
X0603967Y0073787D01*
X0604552Y0073671D01*
X0642200D01*
X0642785Y0073787D01*
X0643281Y0074119D01*
X0646391Y0077228D01*
X0646500Y0077206D01*
X0647378Y0077381D01*
X0648122Y0077878D01*
X0648184Y0077971D01*
X0659000D01*
X0659585Y0078087D01*
X0660081Y0078419D01*
X0663713Y0082050D01*
X0667500D01*
Y0082050D01*
X0668992Y0083276D01*
X0669378Y0083353D01*
X0670122Y0083850D01*
X0670619Y0084595D01*
X0670794Y0085472D01*
X0670619Y0086350D01*
X0670194Y0086986D01*
X0670320Y0087582D01*
X0670891Y0088986D01*
X0690316D01*
X0690378Y0088894D01*
X0691122Y0088396D01*
X0692000Y0088222D01*
X0692878Y0088396D01*
X0693622Y0088894D01*
X0694119Y0089638D01*
X0694294Y0090516D01*
X0694119Y0091394D01*
X0693622Y0092138D01*
X0692878Y0092635D01*
X0692000Y0092810D01*
X0691122Y0092635D01*
X0690378Y0092138D01*
X0690316Y0092045D01*
X0667500D01*
Y0092950D01*
X0662500D01*
Y0092029D01*
X0656000D01*
Y0093000D01*
X0651000D01*
Y0088800D01*
X0651000Y0088300D01*
X0650929Y0086329D01*
X0646962D01*
X0646377Y0086213D01*
X0645881Y0085881D01*
X0645081Y0085081D01*
X0638780Y0078781D01*
X0633552D01*
X0632733Y0080152D01*
X0632512Y0080781D01*
X0632947Y0081833D01*
X0633117Y0083126D01*
X0632947Y0084419D01*
X0632597Y0085264D01*
X0632075Y0087047D01*
X0632075D01*
Y0090500D01*
X0628122D01*
Y0091000D01*
X0627622D01*
Y0094953D01*
X0624169D01*
X0624169Y0094953D01*
X0622241Y0094453D01*
X0621280Y0094851D01*
X0620748Y0094921D01*
Y0091000D01*
X0619748D01*
Y0094921D01*
X0619216Y0094851D01*
X0618255Y0094453D01*
X0617534Y0093900D01*
X0617382Y0093819D01*
X0615240D01*
X0615088Y0093900D01*
X0614367Y0094453D01*
X0613406Y0094851D01*
X0612874Y0094921D01*
Y0091000D01*
X0611874D01*
Y0094921D01*
X0611342Y0094851D01*
X0610381Y0094453D01*
X0609660Y0093900D01*
X0609508Y0093819D01*
X0607366D01*
X0607214Y0093900D01*
X0606493Y0094453D01*
X0605532Y0094851D01*
X0605000Y0094921D01*
Y0091000D01*
X0604000D01*
Y0094921D01*
X0603468Y0094851D01*
X0602506Y0094453D01*
X0601786Y0093900D01*
X0601634Y0093819D01*
X0599492D01*
X0599340Y0093900D01*
X0598619Y0094453D01*
X0597658Y0094851D01*
X0597126Y0094921D01*
Y0091000D01*
X0596126D01*
Y0094921D01*
X0595594Y0094851D01*
X0594632Y0094453D01*
X0593695Y0093877D01*
X0592000Y0094750D01*
X0591250Y0095326D01*
X0590045Y0095825D01*
X0588752Y0095995D01*
D02*
G37*
G36*
X0644800Y0067734D02*
X0643922Y0067560D01*
X0643178Y0067062D01*
X0642681Y0066318D01*
X0642506Y0065440D01*
X0642681Y0064562D01*
X0643178Y0063818D01*
X0643922Y0063321D01*
X0644800Y0063146D01*
X0645678Y0063321D01*
X0646422Y0063818D01*
X0646919Y0064562D01*
X0647094Y0065440D01*
X0646919Y0066318D01*
X0646422Y0067062D01*
X0645678Y0067560D01*
X0644800Y0067734D01*
D02*
G37*
G36*
X0635376D02*
X0634498Y0067560D01*
X0633754Y0067062D01*
X0633257Y0066318D01*
X0633082Y0065440D01*
X0633257Y0064562D01*
X0633754Y0063818D01*
X0634498Y0063321D01*
X0635376Y0063146D01*
X0636254Y0063321D01*
X0636998Y0063818D01*
X0637496Y0064562D01*
X0637670Y0065440D01*
X0637496Y0066318D01*
X0636998Y0067062D01*
X0636254Y0067560D01*
X0635376Y0067734D01*
D02*
G37*
G36*
X0626200D02*
X0625322Y0067560D01*
X0624578Y0067062D01*
X0624081Y0066318D01*
X0623906Y0065440D01*
X0624081Y0064562D01*
X0624578Y0063818D01*
X0625322Y0063321D01*
X0626200Y0063146D01*
X0627078Y0063321D01*
X0627822Y0063818D01*
X0628319Y0064562D01*
X0628494Y0065440D01*
X0628319Y0066318D01*
X0627822Y0067062D01*
X0627078Y0067560D01*
X0626200Y0067734D01*
D02*
G37*
G36*
X0685150Y0058794D02*
X0684272Y0058619D01*
X0683528Y0058122D01*
X0683030Y0057378D01*
X0683024Y0057345D01*
X0682650Y0055500D01*
X0682650D01*
Y0050500D01*
X0683973D01*
X0685293Y0048617D01*
X0685050Y0047511D01*
X0685050D01*
Y0042511D01*
X0689250D01*
X0689750Y0042511D01*
X0691250D01*
X0691750Y0042511D01*
X0695950D01*
Y0045131D01*
X0696470Y0045478D01*
X0696967Y0046222D01*
X0697142Y0047100D01*
X0696967Y0047978D01*
X0696470Y0048722D01*
X0695725Y0049220D01*
X0694847Y0049394D01*
X0693550Y0050801D01*
Y0055500D01*
X0689284D01*
X0688155Y0056113D01*
X0687386Y0056793D01*
X0687269Y0057378D01*
X0686772Y0058122D01*
X0686027Y0058619D01*
X0685150Y0058794D01*
D02*
G37*
G36*
X0789310Y0071020D02*
X0789310Y0071020D01*
X0788920Y0070942D01*
X0788589Y0070721D01*
X0788368Y0070390D01*
X0788290Y0070000D01*
X0788290Y0070000D01*
X0788290Y0069442D01*
X0788290Y0043500D01*
X0788368Y0043110D01*
X0788589Y0042779D01*
X0788920Y0042558D01*
X0789310Y0042480D01*
X0818000Y0042480D01*
X0818390Y0042558D01*
X0818721Y0042779D01*
X0838221Y0062279D01*
X0838442Y0062610D01*
X0838520Y0063000D01*
X0838520Y0070000D01*
X0838442Y0070390D01*
X0838221Y0070720D01*
X0838221Y0070721D01*
X0837890Y0070942D01*
X0837500Y0071019D01*
X0832500Y0071019D01*
X0832110Y0070942D01*
X0831779Y0070721D01*
X0827078Y0066020D01*
X0809527D01*
X0804826Y0070721D01*
X0804495Y0070942D01*
X0804105Y0071020D01*
X0789868Y0071020D01*
X0789310Y0071020D01*
D02*
G37*
%LPD*%
G36*
X0804105Y0070000D02*
X0809105Y0065000D01*
X0827500D01*
X0832500Y0070000D01*
X0837500Y0070000D01*
X0837500Y0063000D01*
X0818000Y0043500D01*
X0789310Y0043500D01*
X0789310Y0070000D01*
X0804105Y0070000D01*
D02*
G37*
%LPC*%
G36*
X0472111Y0097297D02*
X0470869Y0097133D01*
X0469712Y0096654D01*
X0469619Y0096583D01*
X0468174Y0096081D01*
X0466728Y0096583D01*
X0466635Y0096654D01*
X0465478Y0097133D01*
X0464237Y0097297D01*
X0462995Y0097133D01*
X0461838Y0096654D01*
X0460845Y0095892D01*
X0459287Y0095276D01*
X0458311Y0095740D01*
X0458257Y0095781D01*
X0457343Y0096159D01*
X0456863Y0096223D01*
Y0092500D01*
Y0088778D01*
X0457343Y0088841D01*
X0458257Y0089219D01*
X0458311Y0089260D01*
X0459287Y0089724D01*
X0460845Y0089108D01*
X0461838Y0088346D01*
X0462995Y0087866D01*
X0464237Y0087703D01*
X0465478Y0087866D01*
X0466635Y0088346D01*
X0466728Y0088417D01*
X0468174Y0088919D01*
X0469335Y0088516D01*
X0469785Y0087695D01*
X0469966Y0086076D01*
X0469630Y0085641D01*
X0469522Y0085619D01*
X0468778Y0085122D01*
X0468281Y0084378D01*
X0468106Y0083500D01*
X0468281Y0082622D01*
X0468778Y0081878D01*
X0469522Y0081381D01*
X0470400Y0081206D01*
X0471278Y0081381D01*
X0471398Y0081461D01*
X0472354D01*
X0473135Y0081616D01*
X0473796Y0082058D01*
X0476328Y0084590D01*
X0478522Y0084271D01*
X0478678Y0084111D01*
X0478584Y0083400D01*
X0478705Y0082486D01*
X0478901Y0082011D01*
X0474329Y0077439D01*
X0456642D01*
X0455862Y0077284D01*
X0455201Y0076842D01*
X0444548Y0066189D01*
X0406931D01*
X0406811Y0066269D01*
X0405933Y0066444D01*
X0405055Y0066269D01*
X0404311Y0065772D01*
X0403814Y0065027D01*
X0403639Y0064150D01*
X0403814Y0063272D01*
X0404311Y0062527D01*
X0405055Y0062030D01*
X0405933Y0061856D01*
X0406811Y0062030D01*
X0406931Y0062110D01*
X0445392D01*
X0446173Y0062266D01*
X0446834Y0062708D01*
X0457487Y0073361D01*
X0475174D01*
X0475954Y0073516D01*
X0476616Y0073958D01*
X0482590Y0079932D01*
X0483028Y0079990D01*
X0483880Y0080343D01*
X0484611Y0080904D01*
X0485172Y0081635D01*
X0485525Y0082486D01*
X0485645Y0083400D01*
X0485525Y0084314D01*
X0485172Y0085165D01*
X0484611Y0085896D01*
X0483880Y0086457D01*
X0483028Y0086810D01*
X0482972Y0086817D01*
X0481975Y0088612D01*
X0481952Y0088887D01*
X0482248Y0089327D01*
X0495948D01*
X0496068Y0089247D01*
X0496946Y0089072D01*
X0497823Y0089247D01*
X0498568Y0089744D01*
X0499065Y0090488D01*
X0499240Y0091366D01*
X0499065Y0092244D01*
X0498568Y0092988D01*
X0497823Y0093486D01*
X0496946Y0093660D01*
X0496068Y0093486D01*
X0495948Y0093405D01*
X0480220D01*
X0479440Y0093250D01*
X0478779Y0092808D01*
X0476760Y0093619D01*
X0476744Y0093742D01*
X0476265Y0094898D01*
X0475503Y0095892D01*
X0474509Y0096654D01*
X0473352Y0097133D01*
X0472111Y0097297D01*
D02*
G37*
G36*
X0455863Y0096223D02*
X0455382Y0096159D01*
X0454469Y0095781D01*
X0453684Y0095179D01*
X0453082Y0094394D01*
X0452704Y0093480D01*
X0452640Y0093000D01*
X0455863D01*
Y0096223D01*
D02*
G37*
G36*
X0328075Y0094953D02*
X0324622D01*
Y0091500D01*
X0328075D01*
Y0094953D01*
D02*
G37*
G36*
X0455863Y0092000D02*
X0452640D01*
X0452704Y0091519D01*
X0453082Y0090606D01*
X0453684Y0089821D01*
X0454469Y0089219D01*
X0455382Y0088841D01*
X0455863Y0088778D01*
Y0092000D01*
D02*
G37*
G36*
X0284752Y0095995D02*
X0283459Y0095825D01*
X0282254Y0095326D01*
X0281220Y0094532D01*
X0280426Y0093498D01*
X0279927Y0092293D01*
X0279756Y0091000D01*
X0279927Y0089707D01*
X0280426Y0088502D01*
X0281220Y0087468D01*
Y0086658D01*
X0280426Y0085624D01*
X0279927Y0084419D01*
X0279756Y0083126D01*
X0279927Y0081833D01*
X0280426Y0080628D01*
X0281220Y0079594D01*
X0282254Y0078800D01*
X0283459Y0078301D01*
X0284752Y0078131D01*
X0286045Y0078301D01*
X0287250Y0078800D01*
X0288689Y0079419D01*
X0290128Y0078800D01*
X0291333Y0078301D01*
X0292626Y0078131D01*
X0293919Y0078301D01*
X0294887Y0078702D01*
X0299470Y0074119D01*
X0299967Y0073787D01*
X0300552Y0073671D01*
X0338500D01*
X0339085Y0073787D01*
X0339581Y0074119D01*
X0342711Y0077248D01*
X0343378Y0077381D01*
X0344122Y0077878D01*
X0344619Y0078622D01*
X0344689Y0078971D01*
X0356000D01*
X0356585Y0079087D01*
X0357081Y0079419D01*
X0359681Y0082018D01*
X0362500D01*
Y0082018D01*
X0364500Y0082385D01*
X0364900Y0082306D01*
X0365778Y0082481D01*
X0366522Y0082978D01*
X0367020Y0083722D01*
X0367194Y0084600D01*
X0367020Y0085478D01*
X0366522Y0086222D01*
X0365778Y0086719D01*
X0364900Y0086894D01*
X0364463Y0086807D01*
X0363946Y0086784D01*
X0363834Y0086891D01*
X0363738Y0087144D01*
X0363739Y0087177D01*
X0364754Y0088986D01*
X0386316D01*
X0386378Y0088894D01*
X0387122Y0088396D01*
X0388000Y0088222D01*
X0388878Y0088396D01*
X0389622Y0088894D01*
X0390120Y0089638D01*
X0390294Y0090516D01*
X0390120Y0091394D01*
X0389622Y0092138D01*
X0388878Y0092635D01*
X0388000Y0092810D01*
X0387122Y0092635D01*
X0386378Y0092138D01*
X0386316Y0092045D01*
X0362500D01*
Y0092918D01*
X0357500D01*
Y0091979D01*
X0352000D01*
Y0092950D01*
X0347000D01*
Y0088750D01*
X0347000Y0088250D01*
X0346808Y0086329D01*
X0342962D01*
X0342377Y0086213D01*
X0341880Y0085881D01*
X0341080Y0085081D01*
X0334781Y0078781D01*
X0329552D01*
X0328733Y0080152D01*
X0328512Y0080781D01*
X0328947Y0081833D01*
X0329117Y0083126D01*
X0328947Y0084419D01*
X0328597Y0085264D01*
X0328075Y0087047D01*
X0328075D01*
Y0090500D01*
X0324122D01*
Y0091000D01*
X0323622D01*
Y0094953D01*
X0320169D01*
X0320169Y0094953D01*
X0318241Y0094453D01*
X0317280Y0094851D01*
X0316748Y0094921D01*
Y0091000D01*
X0315748D01*
Y0094921D01*
X0315216Y0094851D01*
X0314255Y0094453D01*
X0313534Y0093900D01*
X0313382Y0093819D01*
X0311240D01*
X0311088Y0093900D01*
X0310367Y0094453D01*
X0309406Y0094851D01*
X0308874Y0094921D01*
Y0091000D01*
X0307874D01*
Y0094921D01*
X0307342Y0094851D01*
X0306381Y0094453D01*
X0305660Y0093900D01*
X0305508Y0093819D01*
X0303366D01*
X0303214Y0093900D01*
X0302493Y0094453D01*
X0301532Y0094851D01*
X0301000Y0094921D01*
Y0091000D01*
X0300000D01*
Y0094921D01*
X0299468Y0094851D01*
X0298507Y0094453D01*
X0297786Y0093900D01*
X0297634Y0093819D01*
X0295492D01*
X0295340Y0093900D01*
X0294619Y0094453D01*
X0293658Y0094851D01*
X0293126Y0094921D01*
Y0091000D01*
X0292126D01*
Y0094921D01*
X0291594Y0094851D01*
X0290633Y0094453D01*
X0289695Y0093877D01*
X0288000Y0094750D01*
X0287250Y0095326D01*
X0286045Y0095825D01*
X0284752Y0095995D01*
D02*
G37*
G36*
X0555885Y0099520D02*
X0534500D01*
X0534110Y0099442D01*
X0533779Y0099221D01*
X0533558Y0098890D01*
X0533480Y0098500D01*
Y0077897D01*
X0525549Y0069177D01*
X0504265D01*
X0500221Y0073221D01*
X0500221Y0073221D01*
X0499890Y0073442D01*
X0499500Y0073520D01*
X0489050Y0073520D01*
X0488492Y0073520D01*
X0488492Y0073520D01*
X0488101Y0073442D01*
X0487771Y0073221D01*
X0487550Y0072890D01*
X0487472Y0072500D01*
X0487472Y0072500D01*
X0487472Y0071942D01*
Y0055095D01*
X0487550Y0054705D01*
X0487771Y0054374D01*
X0488101Y0054153D01*
X0488492Y0054076D01*
X0557500D01*
X0557890Y0054153D01*
X0558221Y0054374D01*
X0558442Y0054705D01*
X0558520Y0055095D01*
X0558520Y0094898D01*
X0558517Y0094913D01*
X0558519Y0094928D01*
X0558478Y0095108D01*
X0558442Y0095289D01*
X0558434Y0095301D01*
X0558430Y0095316D01*
X0556815Y0098917D01*
X0556708Y0099067D01*
X0556606Y0099221D01*
X0556593Y0099229D01*
X0556585Y0099242D01*
X0556428Y0099339D01*
X0556275Y0099442D01*
X0556260Y0099445D01*
X0556248Y0099453D01*
X0556066Y0099484D01*
X0555885Y0099520D01*
D02*
G37*
G36*
X0340800Y0067734D02*
X0339922Y0067560D01*
X0339178Y0067062D01*
X0338681Y0066318D01*
X0338506Y0065440D01*
X0338681Y0064562D01*
X0339178Y0063818D01*
X0339922Y0063321D01*
X0340800Y0063146D01*
X0341678Y0063321D01*
X0342422Y0063818D01*
X0342919Y0064562D01*
X0343094Y0065440D01*
X0342919Y0066318D01*
X0342422Y0067062D01*
X0341678Y0067560D01*
X0340800Y0067734D01*
D02*
G37*
G36*
X0331376D02*
X0330498Y0067560D01*
X0329754Y0067062D01*
X0329257Y0066318D01*
X0329082Y0065440D01*
X0329257Y0064562D01*
X0329754Y0063818D01*
X0330498Y0063321D01*
X0331376Y0063146D01*
X0332254Y0063321D01*
X0332998Y0063818D01*
X0333496Y0064562D01*
X0333670Y0065440D01*
X0333496Y0066318D01*
X0332998Y0067062D01*
X0332254Y0067560D01*
X0331376Y0067734D01*
D02*
G37*
G36*
X0322200D02*
X0321322Y0067560D01*
X0320578Y0067062D01*
X0320081Y0066318D01*
X0319906Y0065440D01*
X0320081Y0064562D01*
X0320578Y0063818D01*
X0321322Y0063321D01*
X0322200Y0063146D01*
X0323078Y0063321D01*
X0323822Y0063818D01*
X0324320Y0064562D01*
X0324494Y0065440D01*
X0324320Y0066318D01*
X0323822Y0067062D01*
X0323078Y0067560D01*
X0322200Y0067734D01*
D02*
G37*
G36*
X0380272Y0058658D02*
X0379394Y0058484D01*
X0378649Y0057986D01*
X0378152Y0057242D01*
X0377978Y0056364D01*
X0378152Y0055486D01*
X0378649Y0054742D01*
X0378650Y0054742D01*
Y0050500D01*
X0380088D01*
X0380654Y0049154D01*
X0380796Y0048500D01*
X0380381Y0047878D01*
X0380206Y0047000D01*
X0380381Y0046122D01*
X0380878Y0045378D01*
X0380971Y0045316D01*
Y0045050D01*
X0381050Y0044651D01*
Y0041500D01*
X0385250D01*
X0385750Y0041500D01*
X0387250D01*
X0387750Y0041500D01*
X0391950D01*
Y0046500D01*
X0391658D01*
X0391494Y0046700D01*
X0391319Y0047578D01*
X0390822Y0048322D01*
X0390078Y0048820D01*
X0389679Y0048899D01*
Y0051900D01*
X0389563Y0052485D01*
X0389550Y0052505D01*
Y0055500D01*
X0385350D01*
X0384850Y0055500D01*
X0383275D01*
X0382566Y0056364D01*
X0382391Y0057242D01*
X0381894Y0057986D01*
X0381150Y0058484D01*
X0380272Y0058658D01*
D02*
G37*
%LPD*%
G36*
X0557500Y0094898D02*
X0557500Y0055095D01*
X0488492D01*
Y0072500D01*
X0499500Y0072500D01*
X0503842Y0068158D01*
X0526000D01*
X0534500Y0077503D01*
Y0098500D01*
X0555885D01*
X0557500Y0094898D01*
D02*
G37*
%LPC*%
G36*
X0124008Y0134843D02*
Y0129492D01*
X0129359D01*
X0129295Y0130143D01*
X0128959Y0131250D01*
X0128414Y0132270D01*
X0127680Y0133164D01*
X0126786Y0133898D01*
X0125766Y0134443D01*
X0124659Y0134779D01*
X0124008Y0134843D01*
D02*
G37*
G36*
X0123008D02*
X0122357Y0134779D01*
X0121250Y0134443D01*
X0120230Y0133898D01*
X0119336Y0133164D01*
X0118602Y0132270D01*
X0118057Y0131250D01*
X0117721Y0130143D01*
X0117657Y0129492D01*
X0123008D01*
Y0134843D01*
D02*
G37*
G36*
X0129359Y0128492D02*
X0124008D01*
Y0123141D01*
X0124659Y0123205D01*
X0125766Y0123541D01*
X0126786Y0124086D01*
X0127680Y0124820D01*
X0128414Y0125714D01*
X0128959Y0126734D01*
X0129295Y0127841D01*
X0129359Y0128492D01*
D02*
G37*
G36*
X0111500Y0129596D02*
X0109823Y0129431D01*
X0108210Y0128942D01*
X0106724Y0128148D01*
X0105421Y0127079D01*
X0104352Y0125776D01*
X0103558Y0124290D01*
X0103069Y0122677D01*
X0102903Y0121000D01*
X0103069Y0119323D01*
X0103558Y0117710D01*
X0104352Y0116224D01*
X0105421Y0114921D01*
X0106724Y0113852D01*
X0108210Y0113058D01*
X0109823Y0112569D01*
X0111500Y0112404D01*
X0113177Y0112569D01*
X0114790Y0113058D01*
X0116276Y0113852D01*
X0117579Y0114921D01*
X0118648Y0116224D01*
X0119442Y0117710D01*
X0119931Y0119323D01*
X0120097Y0121000D01*
X0119931Y0122677D01*
X0119525Y0124018D01*
X0119959Y0124308D01*
X0120230Y0124086D01*
X0121250Y0123541D01*
X0122357Y0123205D01*
X0123008Y0123141D01*
Y0128492D01*
X0117657D01*
X0117721Y0127841D01*
X0117815Y0127532D01*
X0117380Y0127242D01*
X0116276Y0128148D01*
X0114790Y0128942D01*
X0113177Y0129431D01*
X0111500Y0129596D01*
D02*
G37*
G36*
X0136500Y0121013D02*
X0135202Y0120843D01*
X0133993Y0120342D01*
X0132955Y0119545D01*
X0132158Y0118507D01*
X0131658Y0117298D01*
X0131487Y0116000D01*
X0131658Y0114702D01*
X0132158Y0113493D01*
X0132955Y0112455D01*
X0133993Y0111658D01*
X0134929Y0111271D01*
Y0110729D01*
X0133993Y0110342D01*
X0132955Y0109545D01*
X0132158Y0108507D01*
X0131658Y0107298D01*
X0131487Y0106000D01*
X0131658Y0104702D01*
X0132158Y0103493D01*
X0132955Y0102455D01*
X0133993Y0101658D01*
X0134929Y0101271D01*
Y0100729D01*
X0133993Y0100342D01*
X0132955Y0099545D01*
X0132158Y0098507D01*
X0131658Y0097298D01*
X0131487Y0096000D01*
X0131658Y0094702D01*
X0132158Y0093493D01*
X0132955Y0092455D01*
X0133993Y0091658D01*
X0134929Y0091271D01*
Y0090729D01*
X0133993Y0090342D01*
X0132955Y0089545D01*
X0132158Y0088507D01*
X0131658Y0087298D01*
X0131487Y0086000D01*
X0131658Y0084702D01*
X0132158Y0083493D01*
X0132955Y0082455D01*
X0133993Y0081658D01*
X0135202Y0081157D01*
X0136500Y0080987D01*
X0137798Y0081157D01*
X0139007Y0081658D01*
X0140045Y0082455D01*
X0140842Y0083493D01*
X0141342Y0084702D01*
X0141513Y0086000D01*
X0141342Y0087298D01*
X0140842Y0088507D01*
X0140045Y0089545D01*
X0139007Y0090342D01*
X0138071Y0090729D01*
Y0091271D01*
X0139007Y0091658D01*
X0140045Y0092455D01*
X0140842Y0093493D01*
X0141342Y0094702D01*
X0141513Y0096000D01*
X0141342Y0097298D01*
X0140842Y0098507D01*
X0140045Y0099545D01*
X0139007Y0100342D01*
X0138071Y0100729D01*
Y0101271D01*
X0139007Y0101658D01*
X0140045Y0102455D01*
X0140842Y0103493D01*
X0141342Y0104702D01*
X0141513Y0106000D01*
X0141342Y0107298D01*
X0140842Y0108507D01*
X0140045Y0109545D01*
X0139007Y0110342D01*
X0138071Y0110729D01*
Y0111271D01*
X0139007Y0111658D01*
X0140045Y0112455D01*
X0140842Y0113493D01*
X0141342Y0114702D01*
X0141513Y0116000D01*
X0141342Y0117298D01*
X0140842Y0118507D01*
X0140045Y0119545D01*
X0139007Y0120342D01*
X0137798Y0120843D01*
X0136500Y0121013D01*
D02*
G37*
G36*
X0146500Y0116013D02*
X0145202Y0115842D01*
X0143993Y0115342D01*
X0142955Y0114545D01*
X0142158Y0113507D01*
X0141657Y0112298D01*
X0141487Y0111000D01*
X0141657Y0109702D01*
X0142158Y0108493D01*
X0142955Y0107455D01*
X0143993Y0106658D01*
X0144929Y0106271D01*
Y0105729D01*
X0143993Y0105342D01*
X0142955Y0104545D01*
X0142158Y0103507D01*
X0141657Y0102298D01*
X0141487Y0101000D01*
X0141657Y0099702D01*
X0142158Y0098493D01*
X0142955Y0097455D01*
X0143993Y0096658D01*
X0144929Y0096271D01*
Y0095729D01*
X0143993Y0095342D01*
X0142955Y0094545D01*
X0142158Y0093507D01*
X0141657Y0092298D01*
X0141487Y0091000D01*
X0141657Y0089702D01*
X0142158Y0088493D01*
X0142955Y0087455D01*
X0143993Y0086658D01*
X0144929Y0086271D01*
Y0085729D01*
X0143993Y0085342D01*
X0142955Y0084545D01*
X0142158Y0083507D01*
X0141657Y0082298D01*
X0141487Y0081000D01*
X0141657Y0079702D01*
X0142158Y0078493D01*
X0142955Y0077455D01*
X0143993Y0076658D01*
X0145202Y0076157D01*
X0146500Y0075987D01*
X0147798Y0076157D01*
X0149007Y0076658D01*
X0150045Y0077455D01*
X0150842Y0078493D01*
X0151342Y0079702D01*
X0151513Y0081000D01*
X0151342Y0082298D01*
X0150842Y0083507D01*
X0150045Y0084545D01*
X0149007Y0085342D01*
X0148071Y0085729D01*
Y0086271D01*
X0149007Y0086658D01*
X0150045Y0087455D01*
X0150842Y0088493D01*
X0151342Y0089702D01*
X0151513Y0091000D01*
X0151342Y0092298D01*
X0150842Y0093507D01*
X0150045Y0094545D01*
X0149007Y0095342D01*
X0148071Y0095729D01*
Y0096271D01*
X0149007Y0096658D01*
X0150045Y0097455D01*
X0150842Y0098493D01*
X0151342Y0099702D01*
X0151513Y0101000D01*
X0151342Y0102298D01*
X0150842Y0103507D01*
X0150045Y0104545D01*
X0149007Y0105342D01*
X0148071Y0105729D01*
Y0106271D01*
X0149007Y0106658D01*
X0150045Y0107455D01*
X0150842Y0108493D01*
X0151342Y0109702D01*
X0151513Y0111000D01*
X0151342Y0112298D01*
X0150842Y0113507D01*
X0150045Y0114545D01*
X0149007Y0115342D01*
X0147798Y0115842D01*
X0146500Y0116013D01*
D02*
G37*
G36*
X0124008Y0073859D02*
Y0068508D01*
X0129359D01*
X0129295Y0069159D01*
X0128959Y0070266D01*
X0128414Y0071286D01*
X0127680Y0072180D01*
X0126786Y0072914D01*
X0125766Y0073459D01*
X0124659Y0073795D01*
X0124008Y0073859D01*
D02*
G37*
G36*
X0111500Y0084597D02*
X0109823Y0084431D01*
X0108210Y0083942D01*
X0106724Y0083148D01*
X0105421Y0082079D01*
X0104352Y0080776D01*
X0103558Y0079290D01*
X0103069Y0077677D01*
X0102903Y0076000D01*
X0103069Y0074323D01*
X0103558Y0072710D01*
X0104352Y0071224D01*
X0105421Y0069921D01*
X0106724Y0068852D01*
X0108210Y0068058D01*
X0109823Y0067569D01*
X0111500Y0067404D01*
X0113177Y0067569D01*
X0114790Y0068058D01*
X0116276Y0068852D01*
X0117380Y0069758D01*
X0117815Y0069468D01*
X0117721Y0069159D01*
X0117657Y0068508D01*
X0123008D01*
Y0073859D01*
X0122357Y0073795D01*
X0121250Y0073459D01*
X0120230Y0072914D01*
X0119959Y0072692D01*
X0119525Y0072982D01*
X0119931Y0074323D01*
X0120097Y0076000D01*
X0119931Y0077677D01*
X0119442Y0079290D01*
X0118648Y0080776D01*
X0117579Y0082079D01*
X0116276Y0083148D01*
X0114790Y0083942D01*
X0113177Y0084431D01*
X0111500Y0084597D01*
D02*
G37*
G36*
X0129359Y0067508D02*
X0124008D01*
Y0062157D01*
X0124659Y0062221D01*
X0125766Y0062557D01*
X0126786Y0063102D01*
X0127680Y0063836D01*
X0128414Y0064730D01*
X0128959Y0065750D01*
X0129295Y0066857D01*
X0129359Y0067508D01*
D02*
G37*
G36*
X0123008D02*
X0117657D01*
X0117721Y0066857D01*
X0118057Y0065750D01*
X0118602Y0064730D01*
X0119336Y0063836D01*
X0120230Y0063102D01*
X0121250Y0062557D01*
X0122357Y0062221D01*
X0123008Y0062157D01*
Y0067508D01*
D02*
G37*
G36*
X0019685Y0028024D02*
X0018058Y0027864D01*
X0016494Y0027390D01*
X0015052Y0026619D01*
X0013788Y0025582D01*
X0012751Y0024318D01*
X0011981Y0022876D01*
X0011506Y0021312D01*
X0011346Y0019685D01*
X0011506Y0018058D01*
X0011981Y0016494D01*
X0012751Y0015052D01*
X0013788Y0013788D01*
X0015052Y0012751D01*
X0016494Y0011981D01*
X0018058Y0011506D01*
X0019685Y0011346D01*
X0021312Y0011506D01*
X0022876Y0011981D01*
X0024318Y0012751D01*
X0025582Y0013788D01*
X0026619Y0015052D01*
X0027390Y0016494D01*
X0027864Y0018058D01*
X0028024Y0019685D01*
X0027864Y0021312D01*
X0027390Y0022876D01*
X0026619Y0024318D01*
X0025582Y0025582D01*
X0024318Y0026619D01*
X0022876Y0027390D01*
X0021312Y0027864D01*
X0019685Y0028024D01*
D02*
G37*
%LPD*%
D16*
X0380272Y0053878D02*
X0381150Y0053000D01*
X0382500Y0045050D02*
X0383550Y0044000D01*
X0338500Y0075200D02*
X0342500Y0079200D01*
Y0079500D01*
X0342800D02*
X0343800Y0080500D01*
X0342500Y0079500D02*
X0342800D01*
X0359934Y0084434D02*
X0360000Y0084500D01*
X0356000Y0080500D02*
X0359934Y0084434D01*
X0343800Y0080500D02*
X0356000D01*
X0300552Y0075200D02*
X0338500D01*
X0342962Y0084800D02*
X0354500D01*
X0335414Y0077252D02*
X0342162Y0084000D01*
X0306374Y0077252D02*
X0335414D01*
X0342162Y0084000D02*
X0342962Y0084800D01*
X0349500Y0090450D02*
X0360000D01*
X0360052Y0090516D02*
X0388000D01*
X0360232Y0084600D02*
X0364900D01*
X0360000Y0084368D02*
X0360232Y0084600D01*
X0360000Y0090568D02*
X0360052Y0090516D01*
X0646500Y0079500D02*
X0659000D01*
X0642200Y0075200D02*
X0646500Y0079500D01*
X0604552Y0075200D02*
X0642200D01*
X0659000Y0079500D02*
X0664000Y0084500D01*
X0646962Y0084800D02*
X0659300D01*
X0646162Y0084000D02*
X0646962Y0084800D01*
X0666022Y0085472D02*
X0668500D01*
X0665050Y0084500D02*
X0666022Y0085472D01*
X0665000Y0084550D02*
X0665050Y0084500D01*
X0389200Y0044250D02*
Y0047079D01*
Y0044250D02*
X0389450Y0044000D01*
X0382500Y0045050D02*
Y0047000D01*
X0665000Y0090516D02*
X0692000D01*
X0693450Y0045011D02*
Y0045297D01*
X0687421Y0045140D02*
Y0047000D01*
Y0045140D02*
X0687550Y0045011D01*
X0694847Y0046694D02*
Y0047100D01*
X0693450Y0045297D02*
X0694847Y0046694D01*
X0691050Y0050898D02*
X0694847Y0047100D01*
X0691050Y0050898D02*
Y0053000D01*
X0685150Y0053000D02*
Y0056500D01*
Y0053000D02*
X0685150Y0053000D01*
X0388150Y0048129D02*
X0389200Y0047079D01*
X0388150Y0048129D02*
Y0051900D01*
X0387050Y0053000D02*
X0388150Y0051900D01*
X0380272Y0053878D02*
Y0056364D01*
X0596626Y0083126D02*
X0604552Y0075200D01*
X0604500Y0083126D02*
X0610374Y0077252D01*
X0639414D01*
X0646162Y0084000D01*
X0653500Y0084600D02*
X0653876Y0084224D01*
X0664950Y0090500D02*
X0665000Y0090450D01*
X0653500Y0090500D02*
X0664950D01*
X0300500Y0083126D02*
X0306374Y0077252D01*
X0292626Y0083126D02*
X0300552Y0075200D01*
D21*
X0762200Y0060800D02*
X0785500Y0084100D01*
X0712250Y0060800D02*
X0762200D01*
X0710000Y0063050D02*
X0712250Y0060800D01*
X0785819Y0092457D02*
X0801182D01*
X0774362Y0081000D02*
X0785819Y0092457D01*
X0771629Y0081000D02*
X0774362D01*
X0480220Y0091366D02*
X0496946D01*
X0472354Y0083500D02*
X0480220Y0091366D01*
X0470400Y0083500D02*
X0472354D01*
X0482115Y0082341D02*
Y0083400D01*
X0475174Y0075400D02*
X0482115Y0082341D01*
X0456642Y0075400D02*
X0475174D01*
X0445392Y0064150D02*
X0456642Y0075400D01*
X0405933Y0064150D02*
X0445392D01*
X0427969Y0194866D02*
X0438000D01*
X0547500Y0126516D02*
Y0127500D01*
Y0126516D02*
X0548000Y0126016D01*
X0337500Y0194866D02*
X0338000D01*
X0862500D02*
X0863000Y0195366D01*
X0337500Y0194866D02*
X0338000Y0195366D01*
D26*
X0665000Y0090600D02*
D03*
Y0084400D02*
D03*
X0653500Y0084450D02*
D03*
Y0090650D02*
D03*
X0349500Y0090600D02*
D03*
Y0084400D02*
D03*
X0360000Y0084368D02*
D03*
Y0090568D02*
D03*
D35*
X0275500Y0126208D02*
D03*
Y0119524D02*
D03*
X0300500D02*
D03*
Y0126208D02*
D03*
X0325500D02*
D03*
Y0119524D02*
D03*
X0350500D02*
D03*
Y0126208D02*
D03*
X0375500D02*
D03*
Y0119524D02*
D03*
X0400500D02*
D03*
Y0126208D02*
D03*
X0425500D02*
D03*
Y0119524D02*
D03*
X0450500D02*
D03*
Y0126208D02*
D03*
X0475500D02*
D03*
Y0119524D02*
D03*
X0500500D02*
D03*
Y0126208D02*
D03*
X0525500D02*
D03*
Y0119524D02*
D03*
X0548000D02*
D03*
Y0126208D02*
D03*
X0575500D02*
D03*
Y0119524D02*
D03*
X0600500D02*
D03*
Y0126208D02*
D03*
X0625500D02*
D03*
Y0119524D02*
D03*
X0650500D02*
D03*
Y0126208D02*
D03*
X0675500D02*
D03*
Y0119524D02*
D03*
X0700500D02*
D03*
Y0126208D02*
D03*
X0725500D02*
D03*
Y0119524D02*
D03*
X0750500D02*
D03*
Y0126208D02*
D03*
X0775500D02*
D03*
Y0119524D02*
D03*
X0800500D02*
D03*
Y0126208D02*
D03*
X0825500D02*
D03*
Y0119524D02*
D03*
D36*
X0687400Y0045011D02*
D03*
X0693600D02*
D03*
X0389600Y0044000D02*
D03*
X0383400D02*
D03*
X0685000Y0053000D02*
D03*
X0691200D02*
D03*
X0387200D02*
D03*
X0381000D02*
D03*
D71*
X0493200Y0110966D02*
X0524500D01*
X0539200Y0136400D02*
X0546900Y0144100D01*
X0539200Y0120866D02*
Y0136400D01*
X0529300Y0110966D02*
X0539200Y0120866D01*
X0546900Y0144100D02*
Y0145200D01*
X0524300Y0110900D02*
X0524366D01*
X0524400Y0110866D01*
X0524500Y0110966D01*
X0483734Y0101500D02*
X0493200Y0110966D01*
X0483500Y0101500D02*
X0483734D01*
X0524500Y0110966D02*
X0529300D01*
D72*
X0863000Y0185116D02*
Y0195366D01*
X0563000Y0185116D02*
Y0214298D01*
Y0219447D01*
X0863000Y0214298D02*
Y0219447D01*
Y0195366D02*
Y0214298D01*
X0263000Y0184866D02*
Y0207854D01*
X0288000Y0184866D02*
Y0219197D01*
X0313000Y0184866D02*
Y0219197D01*
X0338000Y0195366D02*
Y0219197D01*
Y0184866D02*
Y0194866D01*
X0363000Y0184866D02*
Y0219197D01*
X0388000Y0184866D02*
Y0219197D01*
X0413000Y0184866D02*
Y0219197D01*
X0438000Y0194866D02*
Y0219197D01*
Y0184866D02*
Y0194866D01*
X0463000Y0184866D02*
Y0219197D01*
X0488000Y0184866D02*
Y0219197D01*
X0513000Y0184866D02*
Y0219197D01*
X0538000Y0184866D02*
Y0219197D01*
X0588000Y0212854D02*
Y0219447D01*
Y0185116D02*
Y0212854D01*
X0613000D02*
Y0219447D01*
Y0185116D02*
Y0212854D01*
X0638000D02*
Y0219447D01*
Y0185116D02*
Y0212854D01*
X0663000D02*
Y0219447D01*
Y0185116D02*
Y0212854D01*
X0688000D02*
Y0219447D01*
Y0185116D02*
Y0212854D01*
X0713000D02*
Y0219447D01*
Y0185116D02*
Y0212854D01*
X0738000D02*
Y0219447D01*
Y0185116D02*
Y0212854D01*
X0763000D02*
Y0219447D01*
Y0185116D02*
Y0212854D01*
X0788000D02*
Y0219447D01*
Y0185116D02*
Y0212854D01*
X0813000D02*
Y0219447D01*
Y0185116D02*
Y0212854D01*
X0838000D02*
Y0219447D01*
Y0185116D02*
Y0212854D01*
X0258000D02*
X0263000Y0207854D01*
D73*
X0839127Y0114727D02*
X0851200Y0126800D01*
X0839127Y0114600D02*
Y0114727D01*
X0559555Y0119717D02*
X0575500D01*
X0554073Y0133112D02*
X0555800Y0128757D01*
X0551400Y0135900D02*
X0554073Y0133112D01*
X0555740Y0128736D02*
X0559555Y0119717D01*
D78*
X0146500Y0111000D02*
D03*
Y0081000D02*
D03*
X0136500Y0086000D02*
D03*
X0146500Y0091000D02*
D03*
X0136500Y0096000D02*
D03*
X0146500Y0101000D02*
D03*
X0136500Y0106000D02*
D03*
Y0116000D02*
D03*
X0925000Y0116287D02*
D03*
X0935000Y0111287D02*
D03*
X0925000Y0106287D02*
D03*
X0935000Y0101287D02*
D03*
X0925000Y0096287D02*
D03*
X0935000Y0091287D02*
D03*
X0925000Y0086287D02*
D03*
X0935000Y0081287D02*
D03*
D79*
X0111500Y0076000D02*
D03*
Y0121000D02*
D03*
X0960000Y0121287D02*
D03*
Y0076287D02*
D03*
D80*
X0123508Y0068008D02*
D03*
Y0128992D02*
D03*
X0947992Y0129279D02*
D03*
Y0068295D02*
D03*
D81*
X0806392Y0102866D02*
D03*
X0814266D02*
D03*
X0822140D02*
D03*
X0760363Y0092500D02*
D03*
X0768237D02*
D03*
X0776111D02*
D03*
X0456363D02*
D03*
X0464237D02*
D03*
X0472111D02*
D03*
X0502278Y0102866D02*
D03*
X0510152D02*
D03*
X0518026D02*
D03*
D82*
X0207496Y0194748D02*
D03*
X0199622D02*
D03*
X0160252D02*
D03*
X0152378D02*
D03*
Y0203409D02*
D03*
X0160252D02*
D03*
X0168126D02*
D03*
X0176000D02*
D03*
X0183874D02*
D03*
X0191748D02*
D03*
X0199622D02*
D03*
X0207496D02*
D03*
X0912295Y0194748D02*
D03*
X0928043D02*
D03*
X0920169D02*
D03*
X0912295Y0203409D02*
D03*
X0920169D02*
D03*
X0928043D02*
D03*
X0943791D02*
D03*
X0935917D02*
D03*
X0959539D02*
D03*
X0951665D02*
D03*
X0983161D02*
D03*
X0975287D02*
D03*
X0967413D02*
D03*
X0975287Y0194748D02*
D03*
X0983161D02*
D03*
X0967413D02*
D03*
D83*
X0588752Y0083126D02*
D03*
Y0091000D02*
D03*
X0596626Y0083126D02*
D03*
Y0091000D02*
D03*
X0604500Y0083126D02*
D03*
Y0091000D02*
D03*
X0612374Y0083126D02*
D03*
Y0091000D02*
D03*
X0620248Y0083126D02*
D03*
Y0091000D02*
D03*
X0628122Y0083126D02*
D03*
X0284752D02*
D03*
Y0091000D02*
D03*
X0292626Y0083126D02*
D03*
Y0091000D02*
D03*
X0300500Y0083126D02*
D03*
Y0091000D02*
D03*
X0308374Y0083126D02*
D03*
Y0091000D02*
D03*
X0316248Y0083126D02*
D03*
Y0091000D02*
D03*
X0324122Y0083126D02*
D03*
D84*
X0628122Y0091000D02*
D03*
X0324122D02*
D03*
D85*
X0889000Y0014000D02*
D03*
Y0009000D02*
D03*
X0884000Y0019000D02*
D03*
Y0014000D02*
D03*
Y0009000D02*
D03*
X0879000Y0014000D02*
D03*
Y0009000D02*
D03*
X0874000Y0014000D02*
D03*
Y0009000D02*
D03*
X0869000Y0014000D02*
D03*
Y0009000D02*
D03*
X0864000Y0014000D02*
D03*
Y0009000D02*
D03*
X0859000Y0014000D02*
D03*
Y0009000D02*
D03*
X0854000Y0014000D02*
D03*
Y0009000D02*
D03*
X0849000Y0014000D02*
D03*
Y0009000D02*
D03*
X0844000Y0014000D02*
D03*
Y0009000D02*
D03*
X0839000Y0014000D02*
D03*
Y0009000D02*
D03*
X0834000D02*
D03*
X0819000D02*
D03*
X0814000D02*
D03*
X0809000Y0014000D02*
D03*
Y0009000D02*
D03*
X0804000Y0014000D02*
D03*
Y0009000D02*
D03*
X0799000Y0014000D02*
D03*
Y0009000D02*
D03*
X0794000Y0014000D02*
D03*
Y0009000D02*
D03*
X0789000Y0014000D02*
D03*
Y0009000D02*
D03*
X0784000Y0014000D02*
D03*
Y0009000D02*
D03*
X0779000Y0014000D02*
D03*
Y0009000D02*
D03*
X0774000Y0014000D02*
D03*
Y0009000D02*
D03*
X0769000Y0014000D02*
D03*
Y0009000D02*
D03*
X0764000Y0019000D02*
D03*
Y0014000D02*
D03*
Y0009000D02*
D03*
X0759000Y0024000D02*
D03*
Y0019000D02*
D03*
Y0014000D02*
D03*
X0754000Y0029000D02*
D03*
Y0024000D02*
D03*
Y0019000D02*
D03*
X0749000Y0034000D02*
D03*
Y0029000D02*
D03*
Y0024000D02*
D03*
X0744000Y0039000D02*
D03*
Y0034000D02*
D03*
Y0029000D02*
D03*
X0739000Y0044000D02*
D03*
Y0039000D02*
D03*
Y0034000D02*
D03*
X0734000Y0054000D02*
D03*
Y0049000D02*
D03*
Y0044000D02*
D03*
Y0039000D02*
D03*
X0862000Y0039500D02*
D03*
Y0034500D02*
D03*
Y0029500D02*
D03*
X0857000Y0044500D02*
D03*
Y0039500D02*
D03*
Y0034500D02*
D03*
Y0029500D02*
D03*
X0852000Y0049500D02*
D03*
Y0044500D02*
D03*
Y0039500D02*
D03*
Y0034500D02*
D03*
Y0029500D02*
D03*
X0847000Y0054500D02*
D03*
Y0049500D02*
D03*
Y0044500D02*
D03*
Y0039500D02*
D03*
Y0034500D02*
D03*
Y0029500D02*
D03*
X0842000Y0054500D02*
D03*
Y0049500D02*
D03*
Y0044500D02*
D03*
Y0039500D02*
D03*
Y0034500D02*
D03*
Y0029500D02*
D03*
X0837000Y0049500D02*
D03*
Y0044500D02*
D03*
Y0039500D02*
D03*
Y0034500D02*
D03*
Y0029500D02*
D03*
X0832000Y0044500D02*
D03*
Y0039500D02*
D03*
X0827000D02*
D03*
X0822000Y0034500D02*
D03*
X0817000D02*
D03*
X0812000D02*
D03*
X0807000D02*
D03*
Y0029500D02*
D03*
X0802000Y0034500D02*
D03*
Y0029500D02*
D03*
X0797000Y0034500D02*
D03*
Y0029500D02*
D03*
X0792000Y0034500D02*
D03*
Y0029500D02*
D03*
X0787000Y0034500D02*
D03*
Y0029500D02*
D03*
X0782000Y0039500D02*
D03*
Y0034500D02*
D03*
Y0029500D02*
D03*
X0777000Y0044500D02*
D03*
Y0039500D02*
D03*
Y0034500D02*
D03*
Y0029500D02*
D03*
X0772000Y0049500D02*
D03*
Y0044500D02*
D03*
Y0039500D02*
D03*
Y0034500D02*
D03*
Y0029500D02*
D03*
X0767000Y0054500D02*
D03*
Y0049500D02*
D03*
Y0044500D02*
D03*
Y0039500D02*
D03*
Y0034500D02*
D03*
X0762000Y0054500D02*
D03*
Y0049500D02*
D03*
Y0044500D02*
D03*
Y0039500D02*
D03*
X0757000Y0064500D02*
D03*
Y0054500D02*
D03*
Y0049500D02*
D03*
Y0044500D02*
D03*
X0752000Y0069500D02*
D03*
Y0064500D02*
D03*
Y0054500D02*
D03*
Y0049500D02*
D03*
X0747000Y0074500D02*
D03*
Y0069500D02*
D03*
Y0064500D02*
D03*
Y0054500D02*
D03*
X0742000Y0074500D02*
D03*
Y0069500D02*
D03*
X0737000Y0074500D02*
D03*
X0732000D02*
D03*
X0839127Y0114600D02*
D03*
X0855364Y0112636D02*
D03*
X0827000Y0060000D02*
D03*
Y0055000D02*
D03*
X0822000Y0060000D02*
D03*
Y0055000D02*
D03*
Y0050000D02*
D03*
X0817000Y0060000D02*
D03*
Y0055000D02*
D03*
Y0050000D02*
D03*
Y0045000D02*
D03*
X0812000Y0060000D02*
D03*
Y0055000D02*
D03*
Y0050000D02*
D03*
Y0045000D02*
D03*
X0807000Y0065000D02*
D03*
Y0060000D02*
D03*
Y0055000D02*
D03*
Y0050000D02*
D03*
Y0045000D02*
D03*
X0802000Y0055000D02*
D03*
Y0050000D02*
D03*
Y0045000D02*
D03*
X0797000Y0055000D02*
D03*
Y0050000D02*
D03*
Y0045000D02*
D03*
X0792000Y0055000D02*
D03*
Y0050000D02*
D03*
Y0045000D02*
D03*
X0402000Y0049800D02*
D03*
X0397000Y0044800D02*
D03*
X0392000Y0039800D02*
D03*
X0387000D02*
D03*
X0382000D02*
D03*
X0377000D02*
D03*
X0372000D02*
D03*
X0367000D02*
D03*
X0362000D02*
D03*
X0357000D02*
D03*
X0352000D02*
D03*
X0347000D02*
D03*
X0342000D02*
D03*
X0337000D02*
D03*
X0332000D02*
D03*
X0327000Y0044800D02*
D03*
Y0039800D02*
D03*
X0322000Y0049800D02*
D03*
Y0044800D02*
D03*
Y0039800D02*
D03*
X0317000Y0054800D02*
D03*
Y0049800D02*
D03*
Y0044800D02*
D03*
Y0039800D02*
D03*
X0312000Y0059800D02*
D03*
Y0054800D02*
D03*
Y0049800D02*
D03*
Y0044800D02*
D03*
X0307000Y0059800D02*
D03*
Y0054800D02*
D03*
Y0049800D02*
D03*
X0302000Y0059800D02*
D03*
Y0054800D02*
D03*
Y0049800D02*
D03*
X0297000Y0059800D02*
D03*
Y0054800D02*
D03*
Y0049800D02*
D03*
X0292000Y0059800D02*
D03*
Y0054800D02*
D03*
Y0049800D02*
D03*
X0287000Y0059800D02*
D03*
Y0054800D02*
D03*
Y0049800D02*
D03*
X0282000Y0064800D02*
D03*
Y0059800D02*
D03*
Y0054800D02*
D03*
Y0049800D02*
D03*
Y0044800D02*
D03*
Y0039800D02*
D03*
X0277000Y0069800D02*
D03*
Y0064800D02*
D03*
Y0059800D02*
D03*
Y0054800D02*
D03*
Y0049800D02*
D03*
Y0044800D02*
D03*
Y0039800D02*
D03*
X0272000Y0084800D02*
D03*
Y0079800D02*
D03*
Y0074800D02*
D03*
Y0069800D02*
D03*
Y0064800D02*
D03*
Y0059800D02*
D03*
Y0054800D02*
D03*
Y0049800D02*
D03*
Y0044800D02*
D03*
X0267000Y0089800D02*
D03*
Y0084800D02*
D03*
Y0079800D02*
D03*
Y0074800D02*
D03*
Y0069800D02*
D03*
Y0064800D02*
D03*
Y0059800D02*
D03*
Y0054800D02*
D03*
Y0049800D02*
D03*
X0262000Y0094800D02*
D03*
Y0089800D02*
D03*
Y0084800D02*
D03*
Y0079800D02*
D03*
Y0074800D02*
D03*
Y0069800D02*
D03*
Y0064800D02*
D03*
Y0059800D02*
D03*
Y0054800D02*
D03*
X0257000Y0099800D02*
D03*
X0252000Y0104800D02*
D03*
X0247000Y0109800D02*
D03*
X0242000Y0114800D02*
D03*
X0237000Y0119800D02*
D03*
X0232000Y0129800D02*
D03*
Y0124800D02*
D03*
Y0119800D02*
D03*
X0227000Y0129800D02*
D03*
Y0124800D02*
D03*
X0222000Y0129800D02*
D03*
Y0124800D02*
D03*
X0217000Y0129800D02*
D03*
X0212000D02*
D03*
X0851200Y0126800D02*
D03*
X0580000Y0022000D02*
D03*
X0572000D02*
D03*
X0632000D02*
D03*
X0628000Y0030000D02*
D03*
X0640000D02*
D03*
X0620000Y0026000D02*
D03*
X0668000Y0030000D02*
D03*
X0612000Y0022000D02*
D03*
X0652000Y0030000D02*
D03*
X0596000Y0022000D02*
D03*
X0584000D02*
D03*
X0604000D02*
D03*
X0676000Y0030000D02*
D03*
X0688000D02*
D03*
X0632000Y0026000D02*
D03*
X0624000D02*
D03*
X0600000Y0022000D02*
D03*
X0656000Y0030000D02*
D03*
X0628000Y0022000D02*
D03*
X0644000Y0030000D02*
D03*
X0696000D02*
D03*
X0620000Y0022000D02*
D03*
X0672000Y0030000D02*
D03*
X0588000Y0022000D02*
D03*
X0684000Y0030000D02*
D03*
X0708000Y0034000D02*
D03*
X0632000Y0030000D02*
D03*
X0636000D02*
D03*
X0648000D02*
D03*
X0592000Y0022000D02*
D03*
X0700000Y0030000D02*
D03*
X0608000Y0022000D02*
D03*
X0712000Y0038000D02*
D03*
X0664000Y0030000D02*
D03*
X0660000D02*
D03*
X0680000D02*
D03*
X0636000Y0026000D02*
D03*
X0628000D02*
D03*
X0624000Y0030000D02*
D03*
Y0022000D02*
D03*
X0716000Y0042000D02*
D03*
X0576000Y0022000D02*
D03*
X0704000Y0030000D02*
D03*
X0616000Y0022000D02*
D03*
X0692000Y0030000D02*
D03*
X0572000Y0048000D02*
D03*
X0634000Y0044000D02*
D03*
X0604000Y0048000D02*
D03*
X0612000D02*
D03*
X0632000Y0040000D02*
D03*
X0676000D02*
D03*
X0640000D02*
D03*
X0592000Y0048000D02*
D03*
X0668000Y0040000D02*
D03*
X0708000Y0048000D02*
D03*
X0696000Y0040000D02*
D03*
X0672000D02*
D03*
X0624000D02*
D03*
X0622000Y0044000D02*
D03*
X0616000Y0048000D02*
D03*
X0684000Y0040000D02*
D03*
X0626000Y0044000D02*
D03*
X0588000Y0048000D02*
D03*
X0660000Y0040000D02*
D03*
X0644000D02*
D03*
X0630000Y0044000D02*
D03*
X0620000Y0048000D02*
D03*
X0580000D02*
D03*
X0692000Y0040000D02*
D03*
X0576000Y0048000D02*
D03*
X0688000Y0040000D02*
D03*
X0652000D02*
D03*
X0638000Y0044000D02*
D03*
X0618000D02*
D03*
X0648000Y0040000D02*
D03*
X0664000D02*
D03*
X0636000D02*
D03*
X0628000Y0048000D02*
D03*
X0656000Y0040000D02*
D03*
X0608000Y0048000D02*
D03*
X0680000Y0040000D02*
D03*
X0584000Y0048000D02*
D03*
X0700000Y0040000D02*
D03*
X0632000Y0048000D02*
D03*
X0624000D02*
D03*
X0628000Y0040000D02*
D03*
X0410000D02*
D03*
X0405000Y0035000D02*
D03*
X0400000Y0030000D02*
D03*
X0395000D02*
D03*
Y0025000D02*
D03*
X0390000Y0030000D02*
D03*
Y0025000D02*
D03*
Y0020000D02*
D03*
X0385000Y0030000D02*
D03*
Y0025000D02*
D03*
Y0020000D02*
D03*
X0380000Y0030000D02*
D03*
Y0025000D02*
D03*
Y0020000D02*
D03*
X0375000Y0030000D02*
D03*
Y0025000D02*
D03*
Y0020000D02*
D03*
X0370000Y0030000D02*
D03*
Y0025000D02*
D03*
Y0020000D02*
D03*
X0365000Y0030000D02*
D03*
Y0025000D02*
D03*
Y0020000D02*
D03*
X0360000Y0030000D02*
D03*
Y0025000D02*
D03*
Y0020000D02*
D03*
X0355000Y0030000D02*
D03*
Y0025000D02*
D03*
Y0020000D02*
D03*
X0350000Y0030000D02*
D03*
Y0025000D02*
D03*
Y0020000D02*
D03*
X0345000Y0030000D02*
D03*
Y0025000D02*
D03*
Y0020000D02*
D03*
X0340000Y0030000D02*
D03*
Y0025000D02*
D03*
Y0020000D02*
D03*
X0335000Y0030000D02*
D03*
Y0025000D02*
D03*
Y0020000D02*
D03*
X0330000Y0030000D02*
D03*
Y0025000D02*
D03*
Y0020000D02*
D03*
X0325000Y0030000D02*
D03*
Y0025000D02*
D03*
Y0020000D02*
D03*
X0320000Y0030000D02*
D03*
Y0025000D02*
D03*
Y0020000D02*
D03*
X0315000Y0030000D02*
D03*
Y0025000D02*
D03*
Y0020000D02*
D03*
X0310000Y0025000D02*
D03*
Y0020000D02*
D03*
X0305000Y0025000D02*
D03*
Y0020000D02*
D03*
X0300000Y0025000D02*
D03*
Y0020000D02*
D03*
X0295000Y0025000D02*
D03*
Y0020000D02*
D03*
X0290000D02*
D03*
X0285000D02*
D03*
X0280000Y0030000D02*
D03*
Y0025000D02*
D03*
Y0020000D02*
D03*
X0275000Y0030000D02*
D03*
Y0025000D02*
D03*
Y0020000D02*
D03*
X0270000Y0030000D02*
D03*
Y0025000D02*
D03*
Y0020000D02*
D03*
X0265000Y0035000D02*
D03*
Y0030000D02*
D03*
Y0025000D02*
D03*
X0260000Y0040000D02*
D03*
Y0035000D02*
D03*
Y0030000D02*
D03*
X0255000Y0045000D02*
D03*
Y0040000D02*
D03*
Y0035000D02*
D03*
X0250000Y0085000D02*
D03*
Y0080000D02*
D03*
Y0075000D02*
D03*
Y0070000D02*
D03*
Y0065000D02*
D03*
Y0060000D02*
D03*
Y0055000D02*
D03*
Y0050000D02*
D03*
Y0045000D02*
D03*
Y0040000D02*
D03*
X0245000Y0090000D02*
D03*
Y0085000D02*
D03*
Y0080000D02*
D03*
Y0075000D02*
D03*
Y0070000D02*
D03*
Y0065000D02*
D03*
Y0060000D02*
D03*
Y0055000D02*
D03*
Y0050000D02*
D03*
Y0045000D02*
D03*
X0240000Y0095000D02*
D03*
Y0090000D02*
D03*
Y0085000D02*
D03*
Y0080000D02*
D03*
Y0075000D02*
D03*
Y0070000D02*
D03*
Y0065000D02*
D03*
Y0060000D02*
D03*
Y0055000D02*
D03*
Y0050000D02*
D03*
X0235000Y0100000D02*
D03*
Y0095000D02*
D03*
Y0090000D02*
D03*
Y0085000D02*
D03*
X0230000Y0105000D02*
D03*
Y0100000D02*
D03*
Y0095000D02*
D03*
Y0090000D02*
D03*
X0225000Y0105000D02*
D03*
Y0100000D02*
D03*
Y0095000D02*
D03*
Y0090000D02*
D03*
X0220000Y0105000D02*
D03*
Y0100000D02*
D03*
Y0095000D02*
D03*
Y0090000D02*
D03*
X0215000Y0105000D02*
D03*
Y0100000D02*
D03*
Y0095000D02*
D03*
Y0090000D02*
D03*
X0560000Y0023000D02*
D03*
X0556000D02*
D03*
X0552000D02*
D03*
X0548000D02*
D03*
X0544000D02*
D03*
X0540000D02*
D03*
X0536000D02*
D03*
X0532000D02*
D03*
X0528000D02*
D03*
X0524000Y0027000D02*
D03*
Y0023000D02*
D03*
X0520000Y0031000D02*
D03*
Y0027000D02*
D03*
Y0023000D02*
D03*
X0516000Y0031000D02*
D03*
Y0027000D02*
D03*
Y0023000D02*
D03*
X0512000Y0031000D02*
D03*
Y0027000D02*
D03*
Y0023000D02*
D03*
X0508000Y0031000D02*
D03*
Y0027000D02*
D03*
Y0023000D02*
D03*
X0504000Y0031000D02*
D03*
Y0027000D02*
D03*
Y0023000D02*
D03*
X0500000Y0031000D02*
D03*
Y0027000D02*
D03*
Y0023000D02*
D03*
X0496000Y0031000D02*
D03*
Y0027000D02*
D03*
Y0023000D02*
D03*
X0492000Y0031000D02*
D03*
Y0027000D02*
D03*
Y0023000D02*
D03*
X0488000Y0031000D02*
D03*
Y0027000D02*
D03*
Y0023000D02*
D03*
X0484000Y0031000D02*
D03*
Y0027000D02*
D03*
Y0023000D02*
D03*
X0480000Y0031000D02*
D03*
Y0027000D02*
D03*
Y0023000D02*
D03*
X0476000Y0031000D02*
D03*
Y0027000D02*
D03*
X0472000Y0035000D02*
D03*
Y0031000D02*
D03*
X0468000Y0039000D02*
D03*
Y0035000D02*
D03*
X0464000Y0043000D02*
D03*
Y0039000D02*
D03*
X0460000Y0047000D02*
D03*
Y0043000D02*
D03*
X0456000Y0051000D02*
D03*
Y0047000D02*
D03*
X0452000Y0055000D02*
D03*
Y0051000D02*
D03*
X0448000Y0059000D02*
D03*
Y0055000D02*
D03*
X0444000Y0059000D02*
D03*
X0436000Y0071000D02*
D03*
X0432000D02*
D03*
X0428000D02*
D03*
X0556500Y0049000D02*
D03*
X0552500D02*
D03*
X0524500D02*
D03*
Y0045000D02*
D03*
X0520500Y0049000D02*
D03*
Y0045000D02*
D03*
Y0041000D02*
D03*
X0516500Y0049000D02*
D03*
Y0045000D02*
D03*
Y0041000D02*
D03*
X0512500Y0049000D02*
D03*
Y0045000D02*
D03*
Y0041000D02*
D03*
X0508500Y0049000D02*
D03*
Y0045000D02*
D03*
Y0041000D02*
D03*
X0504500Y0049000D02*
D03*
Y0045000D02*
D03*
Y0041000D02*
D03*
X0500500Y0049000D02*
D03*
Y0045000D02*
D03*
Y0041000D02*
D03*
X0496500Y0049000D02*
D03*
Y0045000D02*
D03*
Y0041000D02*
D03*
X0492500Y0049000D02*
D03*
Y0045000D02*
D03*
Y0041000D02*
D03*
X0488500Y0049000D02*
D03*
Y0045000D02*
D03*
Y0041000D02*
D03*
X0484500Y0049000D02*
D03*
Y0045000D02*
D03*
Y0041000D02*
D03*
X0480500Y0049000D02*
D03*
Y0045000D02*
D03*
Y0041000D02*
D03*
X0476500Y0053000D02*
D03*
Y0049000D02*
D03*
Y0045000D02*
D03*
X0472500Y0057000D02*
D03*
Y0053000D02*
D03*
Y0049000D02*
D03*
X0468500Y0061000D02*
D03*
Y0057000D02*
D03*
Y0053000D02*
D03*
X0464500Y0065000D02*
D03*
Y0061000D02*
D03*
Y0057000D02*
D03*
X0460500Y0069000D02*
D03*
Y0065000D02*
D03*
Y0061000D02*
D03*
X0456500Y0069000D02*
D03*
Y0065000D02*
D03*
X0452500Y0077000D02*
D03*
X0448500Y0081000D02*
D03*
Y0077000D02*
D03*
Y0073000D02*
D03*
X0444500Y0081000D02*
D03*
Y0077000D02*
D03*
X0440500Y0081000D02*
D03*
X0420500D02*
D03*
X0547000Y0095000D02*
D03*
Y0090000D02*
D03*
Y0085000D02*
D03*
Y0080000D02*
D03*
Y0075000D02*
D03*
Y0070000D02*
D03*
Y0065000D02*
D03*
Y0060000D02*
D03*
X0542000Y0095000D02*
D03*
Y0090000D02*
D03*
Y0085000D02*
D03*
Y0080000D02*
D03*
Y0075000D02*
D03*
Y0070000D02*
D03*
Y0065000D02*
D03*
Y0060000D02*
D03*
X0537000Y0095000D02*
D03*
Y0090000D02*
D03*
Y0085000D02*
D03*
Y0080000D02*
D03*
Y0075000D02*
D03*
Y0070000D02*
D03*
Y0065000D02*
D03*
Y0060000D02*
D03*
X0532000Y0070000D02*
D03*
Y0065000D02*
D03*
Y0060000D02*
D03*
X0527000Y0065000D02*
D03*
Y0060000D02*
D03*
X0522000Y0065000D02*
D03*
Y0060000D02*
D03*
X0517000Y0065000D02*
D03*
Y0060000D02*
D03*
X0512000Y0065000D02*
D03*
Y0060000D02*
D03*
X0507000Y0065000D02*
D03*
Y0060000D02*
D03*
X0502000Y0065000D02*
D03*
Y0060000D02*
D03*
X0331376Y0065440D02*
D03*
X0322200D02*
D03*
X0340800D02*
D03*
X0342500Y0079500D02*
D03*
X0354500Y0084800D02*
D03*
X0364900Y0084600D02*
D03*
X0646500Y0079500D02*
D03*
X0659300Y0084800D02*
D03*
X0626200Y0065440D02*
D03*
X0635376D02*
D03*
X0644800D02*
D03*
X0668500Y0085472D02*
D03*
X0382500Y0047000D02*
D03*
X0389200Y0046700D02*
D03*
X0692000Y0090516D02*
D03*
X0771629Y0081000D02*
D03*
X0693000Y0076000D02*
D03*
X0694847Y0047100D02*
D03*
X0687421Y0047000D02*
D03*
X0470400Y0083500D02*
D03*
X0546000Y0129500D02*
D03*
X0550000D02*
D03*
X0852536Y0115464D02*
D03*
X0823500Y0129866D02*
D03*
X0827500D02*
D03*
X0798500D02*
D03*
X0802500D02*
D03*
X0773500D02*
D03*
X0777500D02*
D03*
X0748500D02*
D03*
X0752500D02*
D03*
X0723500D02*
D03*
X0727500D02*
D03*
X0698500D02*
D03*
X0702500D02*
D03*
X0673500D02*
D03*
X0677500D02*
D03*
X0648500D02*
D03*
X0652500D02*
D03*
X0623500D02*
D03*
X0627500D02*
D03*
X0598500D02*
D03*
X0602500D02*
D03*
X0573500D02*
D03*
X0577500D02*
D03*
X0523500D02*
D03*
X0527500D02*
D03*
X0498500D02*
D03*
X0502500D02*
D03*
X0473500D02*
D03*
X0477500D02*
D03*
X0448500D02*
D03*
X0452500D02*
D03*
X0423500D02*
D03*
X0427500D02*
D03*
X0398500D02*
D03*
X0402500D02*
D03*
X0373500D02*
D03*
X0377500D02*
D03*
X0348500D02*
D03*
X0352500D02*
D03*
X0323500D02*
D03*
X0327500D02*
D03*
X0298500D02*
D03*
X0302500D02*
D03*
X0277500D02*
D03*
X0273500D02*
D03*
X0693047Y0061211D02*
D03*
X0710000Y0063050D02*
D03*
X0709024Y0054363D02*
D03*
X0711390D02*
D03*
X0703124Y0054263D02*
D03*
X0705490D02*
D03*
X0696950Y0057200D02*
D03*
X0389000Y0061279D02*
D03*
X0392771Y0056907D02*
D03*
X0401567Y0055000D02*
D03*
X0399200D02*
D03*
X0404700Y0055500D02*
D03*
X0407200D02*
D03*
X0405933Y0064150D02*
D03*
X0380272Y0056364D02*
D03*
X0546900Y0145200D02*
D03*
X0616133Y0036000D02*
D03*
X0527100Y0036100D02*
D03*
X0435950Y0053500D02*
D03*
X0524300Y0110900D02*
D03*
X0814388Y0092000D02*
D03*
X0685150Y0056500D02*
D03*
X0678000Y0051500D02*
D03*
X0675500Y0060000D02*
D03*
X0667366Y0075025D02*
D03*
X0364200Y0074752D02*
D03*
X0671750Y0096400D02*
D03*
X0370500Y0060000D02*
D03*
X0373000Y0051500D02*
D03*
X0368800Y0096400D02*
D03*
X0483500Y0101500D02*
D03*
X0388000Y0090516D02*
D03*
X0389000Y0075776D02*
D03*
X0725800Y0044300D02*
D03*
X0801182Y0092457D02*
D03*
X0743432Y0095217D02*
D03*
X0439400D02*
D03*
X0510152Y0091866D02*
D03*
X0496946Y0091366D02*
D03*
D86*
X0154038Y0114950D02*
D03*
X0916570Y0069470D02*
D03*
X0869559Y0022331D02*
D03*
X0811846Y0021650D02*
D03*
X0305414Y0035750D02*
D03*
X0223464Y0114900D02*
D03*
X0706954Y0282500D02*
D03*
X0855500Y0282800D02*
D03*
X0831954Y0282500D02*
D03*
X0807000Y0282366D02*
D03*
X0781954Y0282500D02*
D03*
X0756954D02*
D03*
X0731954D02*
D03*
X0682000Y0282366D02*
D03*
X0656954Y0282500D02*
D03*
X0631954D02*
D03*
X0556954D02*
D03*
X0581954D02*
D03*
X0606954D02*
D03*
X0544045D02*
D03*
X0518591D02*
D03*
X0493136D02*
D03*
X0467682D02*
D03*
X0442227D02*
D03*
X0416773D02*
D03*
X0391318D02*
D03*
X0365841Y0282366D02*
D03*
X0340409Y0282500D02*
D03*
X0314954D02*
D03*
X0289500D02*
D03*
X0265500D02*
D03*
X0861500Y0282800D02*
D03*
X0865750D02*
D03*
X0874250D02*
D03*
X0878500D02*
D03*
X0870000D02*
D03*
X0844454Y0276000D02*
D03*
X0837955D02*
D03*
X0844454Y0282500D02*
D03*
X0837955D02*
D03*
X0841204Y0279250D02*
D03*
X0819454Y0276000D02*
D03*
X0812955D02*
D03*
X0819454Y0282500D02*
D03*
X0812955D02*
D03*
X0816204Y0279250D02*
D03*
X0794454Y0276000D02*
D03*
X0787955D02*
D03*
X0794454Y0282500D02*
D03*
X0787955D02*
D03*
X0791205Y0279250D02*
D03*
X0769454Y0276000D02*
D03*
X0762955D02*
D03*
X0769454Y0282500D02*
D03*
X0762955D02*
D03*
X0766205Y0279250D02*
D03*
X0744454Y0276000D02*
D03*
X0737955D02*
D03*
X0744454Y0282500D02*
D03*
X0737955D02*
D03*
X0741205Y0279250D02*
D03*
X0719454Y0276000D02*
D03*
X0712955D02*
D03*
X0719454Y0282500D02*
D03*
X0712955D02*
D03*
X0716205Y0279250D02*
D03*
X0694454Y0276000D02*
D03*
X0687955D02*
D03*
X0694454Y0282500D02*
D03*
X0687955D02*
D03*
X0691205Y0279250D02*
D03*
X0669454Y0276000D02*
D03*
X0662955D02*
D03*
X0669454Y0282500D02*
D03*
X0662955D02*
D03*
X0666205Y0279250D02*
D03*
X0644454Y0276000D02*
D03*
X0637955D02*
D03*
X0644454Y0282500D02*
D03*
X0637955D02*
D03*
X0641205Y0279250D02*
D03*
X0619454Y0276000D02*
D03*
X0612955D02*
D03*
X0619454Y0282500D02*
D03*
X0612955D02*
D03*
X0616205Y0279250D02*
D03*
X0594454Y0276000D02*
D03*
X0587955D02*
D03*
X0594454Y0282500D02*
D03*
X0587955D02*
D03*
X0591205Y0279250D02*
D03*
X0566205D02*
D03*
X0562955Y0282500D02*
D03*
X0569454D02*
D03*
X0562955Y0276000D02*
D03*
X0569454D02*
D03*
X0534795Y0279250D02*
D03*
X0538045Y0276000D02*
D03*
X0531545D02*
D03*
X0538045Y0282500D02*
D03*
X0531545D02*
D03*
X0509341Y0279250D02*
D03*
X0512591Y0276000D02*
D03*
X0506091D02*
D03*
X0512591Y0282500D02*
D03*
X0506091D02*
D03*
X0455182Y0276000D02*
D03*
X0458432Y0279250D02*
D03*
X0461682Y0282500D02*
D03*
X0483886Y0279250D02*
D03*
X0487136Y0276000D02*
D03*
X0480636D02*
D03*
X0487136Y0282500D02*
D03*
X0480636D02*
D03*
X0461682Y0276000D02*
D03*
X0455182Y0282500D02*
D03*
X0432977Y0279250D02*
D03*
X0436227Y0276000D02*
D03*
X0429727D02*
D03*
X0436227Y0282500D02*
D03*
X0429727D02*
D03*
X0407523Y0279250D02*
D03*
X0410773Y0276000D02*
D03*
X0404273D02*
D03*
X0410773Y0282500D02*
D03*
X0404273D02*
D03*
X0382068Y0279250D02*
D03*
X0385318Y0276000D02*
D03*
X0378818D02*
D03*
X0385318Y0282500D02*
D03*
X0378818D02*
D03*
X0353364D02*
D03*
X0359864D02*
D03*
X0353364Y0276000D02*
D03*
X0359864D02*
D03*
X0356614Y0279250D02*
D03*
X0327909Y0282500D02*
D03*
X0334409D02*
D03*
X0327909Y0276000D02*
D03*
X0334409D02*
D03*
X0331159Y0279250D02*
D03*
X0302454Y0282500D02*
D03*
X0308955D02*
D03*
X0302454Y0276000D02*
D03*
X0308955D02*
D03*
X0305704Y0279250D02*
D03*
X0280250D02*
D03*
X0283500Y0276000D02*
D03*
X0277000D02*
D03*
X0283500Y0282500D02*
D03*
X0277000D02*
D03*
X0251000D02*
D03*
X0242500D02*
D03*
X0246750D02*
D03*
X0255250D02*
D03*
X0259500D02*
D03*
X0241000Y0127000D02*
D03*
X0551400Y0135900D02*
D03*
X0536500Y0184500D02*
D03*
X0249500Y0116884D02*
D03*
X0813000Y0185116D02*
D03*
X0413000Y0184866D02*
D03*
X0708000Y0157866D02*
D03*
X0508591Y0157760D02*
D03*
X0838000Y0185116D02*
D03*
X0738000D02*
D03*
X0763000D02*
D03*
X0788000D02*
D03*
X0863000D02*
D03*
X0688000D02*
D03*
X0713000D02*
D03*
X0833591Y0158010D02*
D03*
X0808591D02*
D03*
X0783591D02*
D03*
X0758591D02*
D03*
X0733591D02*
D03*
X0683591D02*
D03*
X0659591D02*
D03*
X0633591D02*
D03*
X0608591D02*
D03*
X0583591D02*
D03*
X0558591D02*
D03*
X0533591Y0157760D02*
D03*
X0483500Y0157866D02*
D03*
X0458591Y0157760D02*
D03*
X0433591D02*
D03*
X0408591D02*
D03*
X0383591D02*
D03*
X0358591D02*
D03*
X0333591D02*
D03*
X0308591D02*
D03*
X0258591D02*
D03*
X0283614Y0157783D02*
D03*
X0638000Y0185116D02*
D03*
X0663000D02*
D03*
X0563000D02*
D03*
X0588000D02*
D03*
X0613000D02*
D03*
X0488000Y0184866D02*
D03*
X0513000D02*
D03*
X0388000D02*
D03*
X0438000D02*
D03*
X0463000D02*
D03*
X0363000D02*
D03*
X0338000D02*
D03*
X0313000D02*
D03*
X0288024Y0184890D02*
D03*
X0263000Y0184866D02*
D03*
D87*
X0785500Y0084100D02*
D03*
X0482115Y0083400D02*
D03*
X0783096Y0070374D02*
D03*
X0478696Y0069500D02*
D03*
D88*
X0846637Y0106737D02*
D03*
X0851363Y0111463D02*
D03*
D89*
X0278615Y0189000D02*
D03*
X0265385D02*
D03*
X0290885D02*
D03*
X0304115D02*
D03*
X0329615D02*
D03*
X0316385D02*
D03*
X0341885D02*
D03*
X0355115D02*
D03*
X0381115D02*
D03*
X0367885D02*
D03*
X0392885D02*
D03*
X0406115D02*
D03*
X0431615D02*
D03*
X0418385D02*
D03*
X0443885D02*
D03*
X0457115D02*
D03*
X0482115D02*
D03*
X0468885D02*
D03*
X0493885D02*
D03*
X0507115D02*
D03*
X0532115D02*
D03*
X0518885D02*
D03*
X0543885D02*
D03*
X0557115D02*
D03*
X0582115D02*
D03*
X0568885D02*
D03*
X0593885D02*
D03*
X0607115D02*
D03*
X0632115D02*
D03*
X0618885D02*
D03*
X0643885D02*
D03*
X0657115D02*
D03*
X0682115D02*
D03*
X0668885D02*
D03*
X0693885D02*
D03*
X0707115D02*
D03*
X0732115D02*
D03*
X0718885D02*
D03*
X0743885D02*
D03*
X0757115D02*
D03*
X0782115D02*
D03*
X0768885D02*
D03*
X0793885D02*
D03*
X0807115D02*
D03*
X0832115D02*
D03*
X0818885D02*
D03*
X0843885D02*
D03*
X0857115D02*
D03*
D90*
X0258000Y0251702D02*
D03*
Y0214298D02*
D03*
X0283454D02*
D03*
Y0251702D02*
D03*
X0308909D02*
D03*
Y0214298D02*
D03*
X0334364D02*
D03*
Y0251702D02*
D03*
X0359818D02*
D03*
Y0214298D02*
D03*
X0385273D02*
D03*
Y0251702D02*
D03*
X0410727D02*
D03*
Y0214298D02*
D03*
X0436182D02*
D03*
Y0251702D02*
D03*
X0461636D02*
D03*
Y0214298D02*
D03*
X0487091D02*
D03*
Y0251702D02*
D03*
X0512545D02*
D03*
Y0214298D02*
D03*
X0538000D02*
D03*
Y0251702D02*
D03*
X0563000D02*
D03*
Y0214298D02*
D03*
X0588000D02*
D03*
Y0251702D02*
D03*
X0613000D02*
D03*
Y0214298D02*
D03*
X0638000D02*
D03*
Y0251702D02*
D03*
X0663000D02*
D03*
Y0214298D02*
D03*
X0688000D02*
D03*
Y0251702D02*
D03*
X0713000D02*
D03*
Y0214298D02*
D03*
X0738000D02*
D03*
Y0251702D02*
D03*
X0763000D02*
D03*
Y0214298D02*
D03*
X0788000D02*
D03*
Y0251702D02*
D03*
X0813000D02*
D03*
Y0214298D02*
D03*
X0838000D02*
D03*
Y0251702D02*
D03*
X0863000D02*
D03*
Y0214298D02*
D03*
D91*
X0838000Y0151516D02*
D03*
Y0178217D02*
D03*
X0813000D02*
D03*
Y0151516D02*
D03*
X0788000D02*
D03*
Y0178217D02*
D03*
X0763000D02*
D03*
Y0151516D02*
D03*
X0738000D02*
D03*
Y0178217D02*
D03*
X0713000D02*
D03*
Y0151516D02*
D03*
X0688000D02*
D03*
Y0178217D02*
D03*
X0663000D02*
D03*
Y0151516D02*
D03*
X0638000D02*
D03*
Y0178217D02*
D03*
X0613000D02*
D03*
Y0151516D02*
D03*
X0588000D02*
D03*
Y0178217D02*
D03*
X0563000D02*
D03*
Y0151516D02*
D03*
X0538000D02*
D03*
Y0178217D02*
D03*
X0513000D02*
D03*
Y0151516D02*
D03*
X0488000D02*
D03*
Y0178217D02*
D03*
X0463000D02*
D03*
Y0151516D02*
D03*
X0438000D02*
D03*
Y0178217D02*
D03*
X0413000D02*
D03*
Y0151516D02*
D03*
X0388000D02*
D03*
Y0178217D02*
D03*
X0363000D02*
D03*
Y0151516D02*
D03*
X0338000D02*
D03*
Y0178217D02*
D03*
X0313000D02*
D03*
Y0151516D02*
D03*
X0288024Y0151539D02*
D03*
Y0178240D02*
D03*
X0263000Y0178217D02*
D03*
Y0151516D02*
D03*
M02*
