G04*
G04 #@! TF.GenerationSoftware,Altium Limited,Altium Designer,19.0.4 (130)*
G04*
G04 Layer_Color=8388736*
%FSAX25Y25*%
%MOIN*%
G70*
G01*
G75*
G04:AMPARAMS|DCode=41|XSize=47mil|YSize=40mil|CornerRadius=0mil|HoleSize=0mil|Usage=FLASHONLY|Rotation=45.000|XOffset=0mil|YOffset=0mil|HoleType=Round|Shape=Rectangle|*
%AMROTATEDRECTD41*
4,1,4,-0.00248,-0.03076,-0.03076,-0.00248,0.00248,0.03076,0.03076,0.00248,-0.00248,-0.03076,0.0*
%
%ADD41ROTATEDRECTD41*%

G04:AMPARAMS|DCode=42|XSize=72.96mil|YSize=37.92mil|CornerRadius=0mil|HoleSize=0mil|Usage=FLASHONLY|Rotation=225.000|XOffset=0mil|YOffset=0mil|HoleType=Round|Shape=Rectangle|*
%AMROTATEDRECTD42*
4,1,4,0.01239,0.03920,0.03920,0.01239,-0.01239,-0.03920,-0.03920,-0.01239,0.01239,0.03920,0.0*
%
%ADD42ROTATEDRECTD42*%

%ADD43R,0.01981X0.07887*%
%ADD44R,0.07296X0.03792*%
%ADD45R,0.04600X0.04300*%
%ADD46R,0.04000X0.04700*%
G04:AMPARAMS|DCode=47|XSize=47mil|YSize=40mil|CornerRadius=0mil|HoleSize=0mil|Usage=FLASHONLY|Rotation=315.000|XOffset=0mil|YOffset=0mil|HoleType=Round|Shape=Rectangle|*
%AMROTATEDRECTD47*
4,1,4,-0.03076,0.00248,-0.00248,0.03076,0.03076,-0.00248,0.00248,-0.03076,-0.03076,0.00248,0.0*
%
%ADD47ROTATEDRECTD47*%

%ADD48R,0.05200X0.07400*%
%ADD49R,0.06800X0.06312*%
%ADD50R,0.14028X0.19934*%
%ADD51R,0.04800X0.03800*%
%ADD52R,0.07800X0.05300*%
%ADD53R,0.05300X0.07800*%
%ADD54R,0.07400X0.05200*%
%ADD55R,0.04300X0.04600*%
%ADD56R,0.06800X0.04800*%
%ADD57R,0.04700X0.04000*%
%ADD58R,0.03800X0.04800*%
%ADD59R,0.05300X0.05800*%
%ADD60C,0.06741*%
%ADD61C,0.07355*%
%ADD62C,0.10544*%
%ADD63C,0.06312*%
%ADD64C,0.00394*%
%ADD65O,0.05118X0.07394*%
%ADD66C,0.06706*%
%ADD67R,0.06706X0.06706*%
%ADD68C,0.05800*%
%ADD69C,0.03300*%
%ADD70C,0.04700*%
G36*
X0263000Y0280500D02*
X0268000Y0280500D01*
X0268000Y0285000D01*
X0263000Y0285000D01*
X0263000Y0280500D01*
D02*
G37*
G36*
X0286300Y0273000D02*
X0293455Y0273000D01*
X0293455Y0285000D01*
X0286300Y0285000D01*
X0286300Y0273000D01*
D02*
G37*
G36*
X0311754D02*
X0318909Y0273000D01*
X0318909Y0285000D01*
X0311754Y0285000D01*
X0311754Y0273000D01*
D02*
G37*
G36*
X0337209D02*
X0344364Y0273000D01*
X0344364Y0285000D01*
X0337209Y0285000D01*
X0337209Y0273000D01*
D02*
G37*
G36*
X0362664D02*
X0369818Y0273000D01*
X0369818Y0285000D01*
X0362664Y0285000D01*
X0362664Y0273000D01*
D02*
G37*
G36*
X0388118D02*
X0395273Y0273000D01*
X0395273Y0285000D01*
X0388118Y0285000D01*
X0388118Y0273000D01*
D02*
G37*
G36*
X0413573D02*
X0420727Y0273000D01*
X0420727Y0285000D01*
X0413573Y0285000D01*
X0413573Y0273000D01*
D02*
G37*
G36*
X0439027D02*
X0446182Y0273000D01*
X0446182Y0285000D01*
X0439027Y0285000D01*
X0439027Y0273000D01*
D02*
G37*
G36*
X0464482D02*
X0471636Y0273000D01*
X0471636Y0285000D01*
X0464482Y0285000D01*
X0464482Y0273000D01*
D02*
G37*
G36*
X0489936D02*
X0497091Y0273000D01*
X0497091Y0285000D01*
X0489936Y0285000D01*
X0489936Y0273000D01*
D02*
G37*
G36*
X0515391D02*
X0522545Y0273000D01*
X0522545Y0285000D01*
X0515391Y0285000D01*
X0515391Y0273000D01*
D02*
G37*
G36*
X0540845D02*
X0548000Y0273000D01*
X0548000Y0285000D01*
X0540845Y0285000D01*
X0540845Y0273000D01*
D02*
G37*
G36*
X0560154Y0285000D02*
X0553000Y0285000D01*
X0553000Y0273000D01*
X0560155Y0273000D01*
X0560154Y0285000D01*
D02*
G37*
G36*
X0585154D02*
X0578000Y0285000D01*
X0578000Y0273000D01*
X0585155Y0273000D01*
X0585154Y0285000D01*
D02*
G37*
G36*
X0610154D02*
X0603000Y0285000D01*
X0603000Y0273000D01*
X0610155Y0273000D01*
X0610154Y0285000D01*
D02*
G37*
G36*
X0635154D02*
X0628000Y0285000D01*
X0628000Y0273000D01*
X0635155Y0273000D01*
X0635154Y0285000D01*
D02*
G37*
G36*
X0660154D02*
X0653000Y0285000D01*
X0653000Y0273000D01*
X0660155Y0273000D01*
X0660154Y0285000D01*
D02*
G37*
G36*
X0685154D02*
X0678000Y0285000D01*
X0678000Y0273000D01*
X0685155Y0273000D01*
X0685154Y0285000D01*
D02*
G37*
G36*
X0710154D02*
X0703000Y0285000D01*
X0703000Y0273000D01*
X0710155Y0273000D01*
X0710154Y0285000D01*
D02*
G37*
G36*
X0735154D02*
X0728000Y0285000D01*
X0728000Y0273000D01*
X0735155Y0273000D01*
X0735154Y0285000D01*
D02*
G37*
G36*
X0760154D02*
X0753000Y0285000D01*
X0753000Y0273000D01*
X0760155Y0273000D01*
X0760154Y0285000D01*
D02*
G37*
G36*
X0785154D02*
X0778000Y0285000D01*
X0778000Y0273000D01*
X0785155Y0273000D01*
X0785154Y0285000D01*
D02*
G37*
G36*
X0810155D02*
X0803000Y0285000D01*
X0803000Y0273000D01*
X0810155Y0273000D01*
X0810155Y0285000D01*
D02*
G37*
G36*
X0835155D02*
X0828000Y0285000D01*
X0828000Y0273000D01*
X0835155Y0273000D01*
X0835155Y0285000D01*
D02*
G37*
G36*
X0858000Y0284800D02*
X0853000Y0284800D01*
X0853000Y0280300D01*
X0858000Y0280300D01*
X0858000Y0284800D01*
D02*
G37*
D41*
X0914227Y0067127D02*
D03*
X0909773Y0062673D02*
D03*
D42*
X0908420Y0054171D02*
D03*
X0884729Y0030480D02*
D03*
X0881193Y0034016D02*
D03*
X0877658Y0037551D02*
D03*
X0874122Y0041087D02*
D03*
X0870587Y0044622D02*
D03*
X0867051Y0048158D02*
D03*
X0863516Y0051693D02*
D03*
X0859980Y0055229D02*
D03*
X0883671Y0078920D02*
D03*
X0887207Y0075384D02*
D03*
X0890742Y0071849D02*
D03*
X0894278Y0068313D02*
D03*
X0897813Y0064778D02*
D03*
X0901349Y0061242D02*
D03*
X0904884Y0057707D02*
D03*
D43*
X0421610Y0070890D02*
D03*
X0423579Y0098843D02*
D03*
X0421610D02*
D03*
X0419642D02*
D03*
X0417673D02*
D03*
X0415705D02*
D03*
X0413736D02*
D03*
X0411768D02*
D03*
X0409799D02*
D03*
X0407831D02*
D03*
X0405862D02*
D03*
X0403894D02*
D03*
X0401925D02*
D03*
X0399957D02*
D03*
X0397988D02*
D03*
X0396020D02*
D03*
X0394051D02*
D03*
X0392083D02*
D03*
X0390114D02*
D03*
X0388146D02*
D03*
X0386177D02*
D03*
X0384209D02*
D03*
X0382240D02*
D03*
X0380272D02*
D03*
X0378303D02*
D03*
Y0070890D02*
D03*
X0380272D02*
D03*
X0382240D02*
D03*
X0384209D02*
D03*
X0386177D02*
D03*
X0388146D02*
D03*
X0390114D02*
D03*
X0392083D02*
D03*
X0394051D02*
D03*
X0396020D02*
D03*
X0397988D02*
D03*
X0399957D02*
D03*
X0401925D02*
D03*
X0403894D02*
D03*
X0405862D02*
D03*
X0407831D02*
D03*
X0409799D02*
D03*
X0411768D02*
D03*
X0413736D02*
D03*
X0415705D02*
D03*
X0417673D02*
D03*
X0419642D02*
D03*
X0423579D02*
D03*
X0727579D02*
D03*
X0725610D02*
D03*
X0723642D02*
D03*
X0721673D02*
D03*
X0719705D02*
D03*
X0717736D02*
D03*
X0715768D02*
D03*
X0713799D02*
D03*
X0711831D02*
D03*
X0709862D02*
D03*
X0707894D02*
D03*
X0705925D02*
D03*
X0703957D02*
D03*
X0701988D02*
D03*
X0700020D02*
D03*
X0698051D02*
D03*
X0696083D02*
D03*
X0694114D02*
D03*
X0692146D02*
D03*
X0690177D02*
D03*
X0688209D02*
D03*
X0686240D02*
D03*
X0684272D02*
D03*
X0682303D02*
D03*
Y0098843D02*
D03*
X0684272D02*
D03*
X0686240D02*
D03*
X0688209D02*
D03*
X0690177D02*
D03*
X0692146D02*
D03*
X0694114D02*
D03*
X0696083D02*
D03*
X0698051D02*
D03*
X0700020D02*
D03*
X0701988D02*
D03*
X0703957D02*
D03*
X0705925D02*
D03*
X0707894D02*
D03*
X0709862D02*
D03*
X0711831D02*
D03*
X0713799D02*
D03*
X0715768D02*
D03*
X0717736D02*
D03*
X0719705D02*
D03*
X0721673D02*
D03*
X0723642D02*
D03*
X0725610D02*
D03*
X0727579D02*
D03*
D44*
X0171148Y0109900D02*
D03*
X0204652Y0119900D02*
D03*
Y0114900D02*
D03*
Y0109900D02*
D03*
Y0104900D02*
D03*
Y0099900D02*
D03*
Y0094900D02*
D03*
Y0089900D02*
D03*
Y0084900D02*
D03*
X0171148D02*
D03*
Y0089900D02*
D03*
Y0094900D02*
D03*
Y0099900D02*
D03*
Y0104900D02*
D03*
Y0114900D02*
D03*
Y0119900D02*
D03*
D45*
X0288701Y0026900D02*
D03*
X0828100Y0024650D02*
D03*
Y0030850D02*
D03*
Y0012350D02*
D03*
Y0018550D02*
D03*
X0288701Y0033100D02*
D03*
Y0038400D02*
D03*
Y0044600D02*
D03*
X0249500Y0131766D02*
D03*
Y0137966D02*
D03*
X0259260D02*
D03*
Y0131766D02*
D03*
X0266740D02*
D03*
Y0137966D02*
D03*
X0284283Y0137990D02*
D03*
Y0131790D02*
D03*
X0291764D02*
D03*
Y0137990D02*
D03*
X0309260Y0137966D02*
D03*
Y0131766D02*
D03*
X0316740D02*
D03*
Y0137966D02*
D03*
X0334260D02*
D03*
Y0131766D02*
D03*
X0341740D02*
D03*
Y0137966D02*
D03*
X0359260D02*
D03*
Y0131766D02*
D03*
X0366740D02*
D03*
Y0137966D02*
D03*
X0384260D02*
D03*
Y0131766D02*
D03*
X0391740D02*
D03*
Y0137966D02*
D03*
X0409260Y0137466D02*
D03*
Y0131266D02*
D03*
X0416740D02*
D03*
Y0137466D02*
D03*
X0434260D02*
D03*
Y0131266D02*
D03*
X0838000Y0166966D02*
D03*
Y0160766D02*
D03*
X0813000D02*
D03*
Y0166966D02*
D03*
X0788000D02*
D03*
Y0160766D02*
D03*
X0763000D02*
D03*
Y0166966D02*
D03*
X0738000D02*
D03*
Y0160766D02*
D03*
X0713000D02*
D03*
Y0166966D02*
D03*
X0688000D02*
D03*
Y0160766D02*
D03*
X0663000D02*
D03*
Y0166966D02*
D03*
X0638000D02*
D03*
Y0160766D02*
D03*
X0613000D02*
D03*
Y0166966D02*
D03*
X0588000D02*
D03*
Y0160766D02*
D03*
X0563000D02*
D03*
Y0166966D02*
D03*
X0550500Y0139266D02*
D03*
Y0145466D02*
D03*
X0841740Y0137466D02*
D03*
Y0131266D02*
D03*
X0834260D02*
D03*
Y0137466D02*
D03*
X0816740D02*
D03*
Y0131266D02*
D03*
X0809260D02*
D03*
Y0137466D02*
D03*
X0791740D02*
D03*
Y0131266D02*
D03*
X0784260D02*
D03*
Y0137466D02*
D03*
X0766740D02*
D03*
Y0131266D02*
D03*
X0759260D02*
D03*
Y0137466D02*
D03*
X0741740D02*
D03*
Y0131266D02*
D03*
X0734260D02*
D03*
Y0137466D02*
D03*
X0716740D02*
D03*
Y0131266D02*
D03*
X0709260D02*
D03*
Y0137466D02*
D03*
X0691740D02*
D03*
Y0131266D02*
D03*
X0684260D02*
D03*
Y0137466D02*
D03*
X0665740D02*
D03*
Y0131266D02*
D03*
X0658260D02*
D03*
Y0137466D02*
D03*
X0641740D02*
D03*
Y0131266D02*
D03*
X0634260D02*
D03*
Y0137466D02*
D03*
X0616740D02*
D03*
Y0131266D02*
D03*
X0609260D02*
D03*
Y0137466D02*
D03*
X0591740D02*
D03*
Y0131266D02*
D03*
X0584260D02*
D03*
Y0137466D02*
D03*
X0566740D02*
D03*
Y0131266D02*
D03*
X0559260D02*
D03*
Y0137466D02*
D03*
X0538000Y0160766D02*
D03*
Y0166966D02*
D03*
X0513000D02*
D03*
Y0160766D02*
D03*
X0488000D02*
D03*
Y0166966D02*
D03*
X0463000D02*
D03*
Y0160766D02*
D03*
X0438000D02*
D03*
Y0166966D02*
D03*
X0413000D02*
D03*
Y0160766D02*
D03*
X0388000D02*
D03*
Y0166966D02*
D03*
X0363000D02*
D03*
Y0160766D02*
D03*
X0338000D02*
D03*
Y0166966D02*
D03*
X0313000D02*
D03*
Y0160766D02*
D03*
X0288024Y0160790D02*
D03*
Y0166990D02*
D03*
X0263000Y0166966D02*
D03*
Y0160766D02*
D03*
X0241500Y0137931D02*
D03*
Y0131731D02*
D03*
X0541740Y0131266D02*
D03*
Y0137466D02*
D03*
X0534260D02*
D03*
Y0131266D02*
D03*
X0516740D02*
D03*
Y0137466D02*
D03*
X0509260D02*
D03*
Y0131266D02*
D03*
X0491740D02*
D03*
Y0137466D02*
D03*
X0484260D02*
D03*
Y0131266D02*
D03*
X0466740D02*
D03*
Y0137466D02*
D03*
X0459260D02*
D03*
Y0131266D02*
D03*
X0441740D02*
D03*
Y0137466D02*
D03*
X0725800Y0048400D02*
D03*
Y0054600D02*
D03*
X0544448Y0033600D02*
D03*
Y0027400D02*
D03*
Y0044600D02*
D03*
Y0038400D02*
D03*
X0828614Y0081466D02*
D03*
Y0075266D02*
D03*
X0524500Y0075266D02*
D03*
Y0081466D02*
D03*
X0599100Y0027400D02*
D03*
Y0033600D02*
D03*
Y0044600D02*
D03*
Y0038400D02*
D03*
D46*
X0163650Y0114900D02*
D03*
X0157350D02*
D03*
X0219650D02*
D03*
X0213350D02*
D03*
X0835790Y0126366D02*
D03*
X0842090D02*
D03*
X0817090D02*
D03*
X0810790D02*
D03*
X0785790D02*
D03*
X0792090D02*
D03*
X0767090D02*
D03*
X0760790D02*
D03*
X0735790D02*
D03*
X0742090D02*
D03*
X0717090D02*
D03*
X0710790D02*
D03*
X0685790D02*
D03*
X0692090D02*
D03*
X0666090D02*
D03*
X0659790D02*
D03*
X0635790D02*
D03*
X0642090D02*
D03*
X0617090D02*
D03*
X0610790D02*
D03*
X0585790D02*
D03*
X0592090D02*
D03*
X0567090D02*
D03*
X0560790D02*
D03*
X0535790D02*
D03*
X0542090D02*
D03*
X0517090D02*
D03*
X0510790D02*
D03*
X0485790D02*
D03*
X0492090D02*
D03*
X0467090D02*
D03*
X0460790D02*
D03*
X0435790D02*
D03*
X0442090D02*
D03*
X0417090D02*
D03*
X0410790D02*
D03*
X0385790D02*
D03*
X0392090D02*
D03*
X0367090D02*
D03*
X0360790D02*
D03*
X0335790D02*
D03*
X0342090D02*
D03*
X0317090D02*
D03*
X0310790D02*
D03*
X0285814Y0126390D02*
D03*
X0292114D02*
D03*
X0267090Y0126366D02*
D03*
X0260790D02*
D03*
D47*
X0871901Y0024673D02*
D03*
X0876356Y0029128D02*
D03*
D48*
X0815158Y0021600D02*
D03*
X0821842D02*
D03*
X0294917Y0035750D02*
D03*
X0301600D02*
D03*
X0278842Y0186000D02*
D03*
X0272158D02*
D03*
X0297158D02*
D03*
X0303842D02*
D03*
X0328842D02*
D03*
X0322158D02*
D03*
X0347158D02*
D03*
X0353842D02*
D03*
X0378342D02*
D03*
X0371658D02*
D03*
X0397658D02*
D03*
X0404342D02*
D03*
X0428842D02*
D03*
X0422158D02*
D03*
X0447158D02*
D03*
X0453842D02*
D03*
X0478842D02*
D03*
X0472158D02*
D03*
X0497158D02*
D03*
X0503842D02*
D03*
X0528842D02*
D03*
X0522158D02*
D03*
X0547158D02*
D03*
X0553842D02*
D03*
X0578842D02*
D03*
X0572158D02*
D03*
X0597158D02*
D03*
X0603842D02*
D03*
X0628842D02*
D03*
X0622158D02*
D03*
X0646658D02*
D03*
X0653342D02*
D03*
X0678842D02*
D03*
X0672158D02*
D03*
X0696895D02*
D03*
X0703578D02*
D03*
X0728842D02*
D03*
X0722158D02*
D03*
X0747158D02*
D03*
X0753842D02*
D03*
X0778842D02*
D03*
X0772158D02*
D03*
X0797158D02*
D03*
X0803842D02*
D03*
X0828842D02*
D03*
X0822158D02*
D03*
X0847158D02*
D03*
X0853842D02*
D03*
X0538042Y0036100D02*
D03*
X0531358D02*
D03*
X0611875Y0036000D02*
D03*
X0605191D02*
D03*
X0589942Y0032079D02*
D03*
X0583258D02*
D03*
Y0039921D02*
D03*
X0589942D02*
D03*
D49*
X0801446Y0082744D02*
D03*
X0793674D02*
D03*
X0497331Y0082744D02*
D03*
X0489560D02*
D03*
D50*
X0797560Y0067067D02*
D03*
X0493446Y0067067D02*
D03*
D51*
X0671750Y0087366D02*
D03*
Y0093466D02*
D03*
X0368800Y0087366D02*
D03*
Y0093466D02*
D03*
X0671866Y0075223D02*
D03*
Y0081323D02*
D03*
X0368800Y0081050D02*
D03*
Y0074950D02*
D03*
X0704100Y0056750D02*
D03*
Y0062850D02*
D03*
X0400300Y0063650D02*
D03*
Y0057550D02*
D03*
X0710000Y0056850D02*
D03*
Y0062950D02*
D03*
X0405933Y0064050D02*
D03*
Y0057950D02*
D03*
D52*
X0838000Y0171451D02*
D03*
Y0180281D02*
D03*
X0813000D02*
D03*
Y0171451D02*
D03*
X0788000D02*
D03*
Y0180281D02*
D03*
X0763000D02*
D03*
Y0171451D02*
D03*
X0738000D02*
D03*
Y0180281D02*
D03*
X0713000D02*
D03*
Y0171451D02*
D03*
X0687984D02*
D03*
Y0180281D02*
D03*
X0663000D02*
D03*
Y0171451D02*
D03*
X0638000D02*
D03*
Y0180281D02*
D03*
X0613000D02*
D03*
Y0171451D02*
D03*
X0588000D02*
D03*
Y0180281D02*
D03*
X0563000D02*
D03*
Y0171451D02*
D03*
X0538000D02*
D03*
Y0180281D02*
D03*
X0513000D02*
D03*
Y0171451D02*
D03*
X0488000D02*
D03*
Y0180281D02*
D03*
X0463000D02*
D03*
Y0171451D02*
D03*
X0438000D02*
D03*
Y0180281D02*
D03*
X0413000D02*
D03*
Y0171451D02*
D03*
X0388000D02*
D03*
Y0180281D02*
D03*
X0363000D02*
D03*
Y0171451D02*
D03*
X0338000D02*
D03*
Y0180281D02*
D03*
X0313000D02*
D03*
Y0171451D02*
D03*
X0288039Y0171474D02*
D03*
Y0180305D02*
D03*
X0263000Y0180281D02*
D03*
Y0171451D02*
D03*
D53*
X0822619Y0073866D02*
D03*
X0813788D02*
D03*
X0509674Y0073866D02*
D03*
X0518504D02*
D03*
D54*
X0736531Y0101708D02*
D03*
Y0095024D02*
D03*
X0432500Y0095024D02*
D03*
Y0101708D02*
D03*
X0814266Y0088208D02*
D03*
Y0081524D02*
D03*
X0510152Y0081524D02*
D03*
Y0088208D02*
D03*
D55*
X0750608Y0101467D02*
D03*
X0744408D02*
D03*
X0440377Y0101467D02*
D03*
X0446576D02*
D03*
X0692500Y0051500D02*
D03*
X0698700D02*
D03*
X0393000D02*
D03*
X0386800D02*
D03*
X0725800Y0061000D02*
D03*
X0719600D02*
D03*
X0418900Y0057500D02*
D03*
X0425100D02*
D03*
X0429900D02*
D03*
X0436100D02*
D03*
D56*
X0555801Y0041150D02*
D03*
Y0030850D02*
D03*
X0574399D02*
D03*
Y0041150D02*
D03*
D57*
X0249500Y0120698D02*
D03*
Y0126998D02*
D03*
D58*
X0696850Y0057200D02*
D03*
X0690750D02*
D03*
X0386541Y0056876D02*
D03*
X0392640D02*
D03*
X0681167Y0051500D02*
D03*
X0687267D02*
D03*
X0382267D02*
D03*
X0376167D02*
D03*
X0678950Y0060000D02*
D03*
X0685050D02*
D03*
X0380050D02*
D03*
X0373950D02*
D03*
X0693214Y0063066D02*
D03*
X0699314D02*
D03*
X0395200Y0063066D02*
D03*
X0389100D02*
D03*
D59*
X0259010Y0143839D02*
D03*
X0266990D02*
D03*
X0263000Y0152894D02*
D03*
X0288024Y0152917D02*
D03*
X0292014Y0143862D02*
D03*
X0284033D02*
D03*
X0309010Y0143839D02*
D03*
X0316990D02*
D03*
X0313000Y0152894D02*
D03*
X0838000D02*
D03*
X0841990Y0143839D02*
D03*
X0834010D02*
D03*
X0809010D02*
D03*
X0816990D02*
D03*
X0813000Y0152894D02*
D03*
X0788000D02*
D03*
X0791990Y0143839D02*
D03*
X0784010D02*
D03*
X0759010D02*
D03*
X0766990D02*
D03*
X0763000Y0152894D02*
D03*
X0738000D02*
D03*
X0741990Y0143839D02*
D03*
X0734010D02*
D03*
X0709010D02*
D03*
X0716990D02*
D03*
X0713000Y0152894D02*
D03*
X0688000D02*
D03*
X0691990Y0143839D02*
D03*
X0684010D02*
D03*
X0658010D02*
D03*
X0665990D02*
D03*
X0662000Y0152894D02*
D03*
X0638000D02*
D03*
X0641990Y0143839D02*
D03*
X0634010D02*
D03*
X0609010D02*
D03*
X0616990D02*
D03*
X0613000Y0152894D02*
D03*
X0588000D02*
D03*
X0591990Y0143839D02*
D03*
X0584010D02*
D03*
X0559010D02*
D03*
X0566990D02*
D03*
X0563000Y0152894D02*
D03*
X0538000D02*
D03*
X0541990Y0143839D02*
D03*
X0534010D02*
D03*
X0509010D02*
D03*
X0516990D02*
D03*
X0513000Y0152894D02*
D03*
X0488000D02*
D03*
X0491990Y0143839D02*
D03*
X0484010D02*
D03*
X0459010D02*
D03*
X0466990D02*
D03*
X0463000Y0152894D02*
D03*
X0438000D02*
D03*
X0441990Y0143839D02*
D03*
X0434010D02*
D03*
X0409010D02*
D03*
X0416990D02*
D03*
X0413000Y0152894D02*
D03*
X0388000D02*
D03*
X0391990Y0143839D02*
D03*
X0384010D02*
D03*
X0359010D02*
D03*
X0366990D02*
D03*
X0363000Y0152894D02*
D03*
X0338000D02*
D03*
X0341990Y0143839D02*
D03*
X0334010D02*
D03*
D60*
X0146500Y0111000D02*
D03*
Y0081000D02*
D03*
X0136500Y0086000D02*
D03*
X0146500Y0091000D02*
D03*
X0136500Y0096000D02*
D03*
X0146500Y0101000D02*
D03*
X0136500Y0106000D02*
D03*
Y0116000D02*
D03*
X0925000Y0116287D02*
D03*
X0935000Y0111287D02*
D03*
X0925000Y0106287D02*
D03*
X0935000Y0101287D02*
D03*
X0925000Y0096287D02*
D03*
X0935000Y0091287D02*
D03*
X0925000Y0086287D02*
D03*
X0935000Y0081287D02*
D03*
D61*
X0111500Y0076000D02*
D03*
Y0121000D02*
D03*
X0960000Y0121287D02*
D03*
Y0076287D02*
D03*
D62*
X0123508Y0068008D02*
D03*
Y0128992D02*
D03*
X0947992Y0129279D02*
D03*
Y0068295D02*
D03*
D63*
X0806392Y0102866D02*
D03*
X0814266D02*
D03*
X0822140D02*
D03*
X0760363Y0092500D02*
D03*
X0768237D02*
D03*
X0776111D02*
D03*
X0456363D02*
D03*
X0464237D02*
D03*
X0472111D02*
D03*
X0502278Y0102866D02*
D03*
X0510152D02*
D03*
X0518026D02*
D03*
D64*
X0218716Y0199866D02*
D03*
X0141157D02*
D03*
X0994382Y0199866D02*
D03*
X0901075D02*
D03*
X1078740Y0019685D02*
D03*
X1078740Y0271654D02*
D03*
X0019685Y0019685D02*
D03*
Y0271654D02*
D03*
D65*
X0207496Y0194748D02*
D03*
X0199622D02*
D03*
X0160252D02*
D03*
X0152378D02*
D03*
Y0203409D02*
D03*
X0160252D02*
D03*
X0168126D02*
D03*
X0176000D02*
D03*
X0183874D02*
D03*
X0191748D02*
D03*
X0199622D02*
D03*
X0207496D02*
D03*
X0912295Y0194748D02*
D03*
X0928043D02*
D03*
X0920169D02*
D03*
X0912295Y0203409D02*
D03*
X0920169D02*
D03*
X0928043D02*
D03*
X0943791D02*
D03*
X0935917D02*
D03*
X0959539D02*
D03*
X0951665D02*
D03*
X0983161D02*
D03*
X0975287D02*
D03*
X0967413D02*
D03*
X0975287Y0194748D02*
D03*
X0983161D02*
D03*
X0967413D02*
D03*
D66*
X0588752Y0083126D02*
D03*
Y0091000D02*
D03*
X0596626Y0083126D02*
D03*
Y0091000D02*
D03*
X0604500Y0083126D02*
D03*
Y0091000D02*
D03*
X0612374Y0083126D02*
D03*
Y0091000D02*
D03*
X0620248Y0083126D02*
D03*
Y0091000D02*
D03*
X0628122Y0083126D02*
D03*
X0284752D02*
D03*
Y0091000D02*
D03*
X0292626Y0083126D02*
D03*
Y0091000D02*
D03*
X0300500Y0083126D02*
D03*
Y0091000D02*
D03*
X0308374Y0083126D02*
D03*
Y0091000D02*
D03*
X0316248Y0083126D02*
D03*
Y0091000D02*
D03*
X0324122Y0083126D02*
D03*
D67*
X0628122Y0091000D02*
D03*
X0324122D02*
D03*
D68*
X0785500Y0084100D02*
D03*
X0482115Y0083400D02*
D03*
X0783096Y0070374D02*
D03*
X0478696Y0069500D02*
D03*
D69*
X0331376Y0065440D02*
D03*
X0322200D02*
D03*
X0340800D02*
D03*
X0342500Y0079500D02*
D03*
X0354500Y0084800D02*
D03*
X0646500Y0079500D02*
D03*
X0659300Y0084800D02*
D03*
X0626200Y0065440D02*
D03*
X0635376D02*
D03*
X0644800D02*
D03*
X0801182Y0092457D02*
D03*
X0496946Y0091366D02*
D03*
D70*
X0706954Y0282500D02*
D03*
X0855500Y0282800D02*
D03*
X0831954Y0282500D02*
D03*
X0807000Y0282366D02*
D03*
X0781954Y0282500D02*
D03*
X0756954D02*
D03*
X0731954D02*
D03*
X0682000Y0282366D02*
D03*
X0656954Y0282500D02*
D03*
X0631954D02*
D03*
X0556954D02*
D03*
X0581954D02*
D03*
X0606954D02*
D03*
X0544045D02*
D03*
X0518591D02*
D03*
X0493136D02*
D03*
X0467682D02*
D03*
X0442227D02*
D03*
X0416773D02*
D03*
X0391318D02*
D03*
X0365841Y0282366D02*
D03*
X0340409Y0282500D02*
D03*
X0314954D02*
D03*
X0289500D02*
D03*
X0265500D02*
D03*
M02*
