G04*
G04 #@! TF.GenerationSoftware,Altium Limited,Altium Designer,19.0.4 (130)*
G04*
G04 Layer_Color=128*
%FSAX25Y25*%
%MOIN*%
G70*
G01*
G75*
%ADD26R,0.03800X0.03500*%
%ADD35R,0.06600X0.04400*%
%ADD36R,0.03500X0.03800*%
G04:AMPARAMS|DCode=88|XSize=66mil|YSize=44mil|CornerRadius=0mil|HoleSize=0mil|Usage=FLASHONLY|Rotation=135.000|XOffset=0mil|YOffset=0mil|HoleType=Round|Shape=Rectangle|*
%AMROTATEDRECTD88*
4,1,4,0.03889,-0.00778,0.00778,-0.03889,-0.03889,0.00778,-0.00778,0.03889,0.03889,-0.00778,0.0*
%
%ADD88ROTATEDRECTD88*%

%ADD89R,0.09700X0.11811*%
%ADD90R,0.19685X0.25720*%
%ADD91R,0.13500X0.08000*%
D26*
X0665000Y0090600D02*
D03*
Y0084400D02*
D03*
X0653500Y0084450D02*
D03*
Y0090650D02*
D03*
X0349500Y0090600D02*
D03*
Y0084400D02*
D03*
X0360000Y0084368D02*
D03*
Y0090568D02*
D03*
D35*
X0275500Y0126208D02*
D03*
Y0119524D02*
D03*
X0300500D02*
D03*
Y0126208D02*
D03*
X0325500D02*
D03*
Y0119524D02*
D03*
X0350500D02*
D03*
Y0126208D02*
D03*
X0375500D02*
D03*
Y0119524D02*
D03*
X0400500D02*
D03*
Y0126208D02*
D03*
X0425500D02*
D03*
Y0119524D02*
D03*
X0450500D02*
D03*
Y0126208D02*
D03*
X0475500D02*
D03*
Y0119524D02*
D03*
X0500500D02*
D03*
Y0126208D02*
D03*
X0525500D02*
D03*
Y0119524D02*
D03*
X0548000D02*
D03*
Y0126208D02*
D03*
X0575500D02*
D03*
Y0119524D02*
D03*
X0600500D02*
D03*
Y0126208D02*
D03*
X0625500D02*
D03*
Y0119524D02*
D03*
X0650500D02*
D03*
Y0126208D02*
D03*
X0675500D02*
D03*
Y0119524D02*
D03*
X0700500D02*
D03*
Y0126208D02*
D03*
X0725500D02*
D03*
Y0119524D02*
D03*
X0750500D02*
D03*
Y0126208D02*
D03*
X0775500D02*
D03*
Y0119524D02*
D03*
X0800500D02*
D03*
Y0126208D02*
D03*
X0825500D02*
D03*
Y0119524D02*
D03*
D36*
X0687400Y0045011D02*
D03*
X0693600D02*
D03*
X0389600Y0044000D02*
D03*
X0383400D02*
D03*
X0685000Y0053000D02*
D03*
X0691200D02*
D03*
X0387200D02*
D03*
X0381000D02*
D03*
D88*
X0846637Y0106737D02*
D03*
X0851363Y0111463D02*
D03*
D89*
X0278615Y0189000D02*
D03*
X0265385D02*
D03*
X0290885D02*
D03*
X0304115D02*
D03*
X0329615D02*
D03*
X0316385D02*
D03*
X0341885D02*
D03*
X0355115D02*
D03*
X0381115D02*
D03*
X0367885D02*
D03*
X0392885D02*
D03*
X0406115D02*
D03*
X0431615D02*
D03*
X0418385D02*
D03*
X0443885D02*
D03*
X0457115D02*
D03*
X0482115D02*
D03*
X0468885D02*
D03*
X0493885D02*
D03*
X0507115D02*
D03*
X0532115D02*
D03*
X0518885D02*
D03*
X0543885D02*
D03*
X0557115D02*
D03*
X0582115D02*
D03*
X0568885D02*
D03*
X0593885D02*
D03*
X0607115D02*
D03*
X0632115D02*
D03*
X0618885D02*
D03*
X0643885D02*
D03*
X0657115D02*
D03*
X0682115D02*
D03*
X0668885D02*
D03*
X0693885D02*
D03*
X0707115D02*
D03*
X0732115D02*
D03*
X0718885D02*
D03*
X0743885D02*
D03*
X0757115D02*
D03*
X0782115D02*
D03*
X0768885D02*
D03*
X0793885D02*
D03*
X0807115D02*
D03*
X0832115D02*
D03*
X0818885D02*
D03*
X0843885D02*
D03*
X0857115D02*
D03*
D90*
X0258000Y0251702D02*
D03*
Y0214298D02*
D03*
X0283454D02*
D03*
Y0251702D02*
D03*
X0308909D02*
D03*
Y0214298D02*
D03*
X0334364D02*
D03*
Y0251702D02*
D03*
X0359818D02*
D03*
Y0214298D02*
D03*
X0385273D02*
D03*
Y0251702D02*
D03*
X0410727D02*
D03*
Y0214298D02*
D03*
X0436182D02*
D03*
Y0251702D02*
D03*
X0461636D02*
D03*
Y0214298D02*
D03*
X0487091D02*
D03*
Y0251702D02*
D03*
X0512545D02*
D03*
Y0214298D02*
D03*
X0538000D02*
D03*
Y0251702D02*
D03*
X0563000D02*
D03*
Y0214298D02*
D03*
X0588000D02*
D03*
Y0251702D02*
D03*
X0613000D02*
D03*
Y0214298D02*
D03*
X0638000D02*
D03*
Y0251702D02*
D03*
X0663000D02*
D03*
Y0214298D02*
D03*
X0688000D02*
D03*
Y0251702D02*
D03*
X0713000D02*
D03*
Y0214298D02*
D03*
X0738000D02*
D03*
Y0251702D02*
D03*
X0763000D02*
D03*
Y0214298D02*
D03*
X0788000D02*
D03*
Y0251702D02*
D03*
X0813000D02*
D03*
Y0214298D02*
D03*
X0838000D02*
D03*
Y0251702D02*
D03*
X0863000D02*
D03*
Y0214298D02*
D03*
D91*
X0838000Y0151516D02*
D03*
Y0178217D02*
D03*
X0813000D02*
D03*
Y0151516D02*
D03*
X0788000D02*
D03*
Y0178217D02*
D03*
X0763000D02*
D03*
Y0151516D02*
D03*
X0738000D02*
D03*
Y0178217D02*
D03*
X0713000D02*
D03*
Y0151516D02*
D03*
X0688000D02*
D03*
Y0178217D02*
D03*
X0663000D02*
D03*
Y0151516D02*
D03*
X0638000D02*
D03*
Y0178217D02*
D03*
X0613000D02*
D03*
Y0151516D02*
D03*
X0588000D02*
D03*
Y0178217D02*
D03*
X0563000D02*
D03*
Y0151516D02*
D03*
X0538000D02*
D03*
Y0178217D02*
D03*
X0513000D02*
D03*
Y0151516D02*
D03*
X0488000D02*
D03*
Y0178217D02*
D03*
X0463000D02*
D03*
Y0151516D02*
D03*
X0438000D02*
D03*
Y0178217D02*
D03*
X0413000D02*
D03*
Y0151516D02*
D03*
X0388000D02*
D03*
Y0178217D02*
D03*
X0363000D02*
D03*
Y0151516D02*
D03*
X0338000D02*
D03*
Y0178217D02*
D03*
X0313000D02*
D03*
Y0151516D02*
D03*
X0288024Y0151539D02*
D03*
Y0178240D02*
D03*
X0263000Y0178217D02*
D03*
Y0151516D02*
D03*
M02*
