G04*
G04 #@! TF.GenerationSoftware,Altium Limited,Altium Designer,19.0.4 (130)*
G04*
G04 Layer_Color=32768*
%FSAX25Y25*%
%MOIN*%
G70*
G01*
G75*
%ADD17C,0.00394*%
%ADD97C,0.00197*%
D17*
X0887735Y0017312D02*
X0921588Y0051165D01*
X0880665Y0092088D02*
X0921588Y0051165D01*
X0846812Y0058236D02*
X0880665Y0092088D01*
X0846812Y0058236D02*
X0887735Y0017312D01*
X0163963Y0131337D02*
X0211837D01*
X0163963Y0073463D02*
Y0131337D01*
Y0073463D02*
X0211837D01*
Y0131337D01*
X0062642Y0140303D02*
X0158311D01*
X0062642Y0056984D02*
Y0140303D01*
Y0056984D02*
X0158311D01*
Y0140303D01*
X0913189Y0056984D02*
X1008858D01*
Y0140303D01*
X0913189D02*
X1008858D01*
X0913189Y0056984D02*
Y0140303D01*
X0787619Y0055492D02*
X0807501D01*
X0787619D02*
Y0090106D01*
X0807501D01*
Y0055492D02*
Y0090106D01*
X0830014Y0094992D02*
Y0110740D01*
X0798518D02*
X0830014D01*
X0798518Y0094992D02*
Y0110740D01*
Y0094992D02*
X0830014D01*
X0483505Y0055492D02*
X0503386D01*
X0483505D02*
Y0090106D01*
X0503386D01*
Y0055492D02*
Y0090106D01*
X0549549Y0046630D02*
X0580600D01*
Y0025370D02*
Y0046630D01*
X0549549Y0025370D02*
X0580600D01*
X0549549D02*
Y0046630D01*
X0783985Y0084626D02*
Y0100374D01*
X0752489D02*
X0783985D01*
X0752489Y0084626D02*
Y0100374D01*
Y0084626D02*
X0783985D01*
X0479985D02*
Y0100374D01*
X0448489D02*
X0479985D01*
X0448489Y0084626D02*
Y0100374D01*
Y0084626D02*
X0479985D01*
X0525900Y0094992D02*
Y0110740D01*
X0494404D02*
X0525900D01*
X0494404Y0094992D02*
Y0110740D01*
Y0094992D02*
X0525900D01*
D97*
X0825285Y0021983D02*
X0830915D01*
X0825285Y0033518D02*
X0830915D01*
Y0021983D02*
Y0033518D01*
X0825285Y0021983D02*
Y0033518D01*
Y0009683D02*
X0830915D01*
X0825285Y0021218D02*
X0830915D01*
Y0009683D02*
Y0021218D01*
X0825285Y0009683D02*
Y0021218D01*
X0824248Y0018096D02*
Y0025104D01*
X0812752D02*
X0824248D01*
X0812752Y0018096D02*
Y0025104D01*
Y0018096D02*
X0824248D01*
X0291516Y0024232D02*
Y0035768D01*
X0285886Y0024232D02*
Y0035768D01*
Y0024232D02*
X0291516D01*
X0285886Y0035768D02*
X0291516D01*
Y0035732D02*
Y0047268D01*
X0285886Y0035732D02*
Y0047268D01*
Y0035732D02*
X0291516D01*
X0285886Y0047268D02*
X0291516D01*
X0292510Y0039254D02*
X0304006D01*
Y0032246D02*
Y0039254D01*
X0292510Y0032246D02*
X0304006D01*
X0292510D02*
Y0039254D01*
X0669309Y0085613D02*
Y0095219D01*
X0674191D01*
Y0085613D02*
Y0095219D01*
X0669309Y0085613D02*
X0674191D01*
X0833472Y0183346D02*
X0842528D01*
X0833472Y0168386D02*
Y0183346D01*
Y0168386D02*
X0842528D01*
Y0183346D01*
X0817528Y0168386D02*
Y0183346D01*
X0808472Y0168386D02*
X0817528D01*
X0808472D02*
Y0183346D01*
X0817528D01*
X0783472D02*
X0792528D01*
X0783472Y0168386D02*
Y0183346D01*
Y0168386D02*
X0792528D01*
Y0183346D01*
X0767528Y0168386D02*
Y0183346D01*
X0758472Y0168386D02*
X0767528D01*
X0758472D02*
Y0183346D01*
X0767528D01*
X0733472D02*
X0742528D01*
X0733472Y0168386D02*
Y0183346D01*
Y0168386D02*
X0742528D01*
Y0183346D01*
X0717528Y0168386D02*
Y0183346D01*
X0708472Y0168386D02*
X0717528D01*
X0708472D02*
Y0183346D01*
X0717528D01*
X0683457D02*
X0692512D01*
X0683457Y0168386D02*
Y0183346D01*
Y0168386D02*
X0692512D01*
Y0183346D01*
X0667528Y0168386D02*
Y0183346D01*
X0658472Y0168386D02*
X0667528D01*
X0658472D02*
Y0183346D01*
X0667528D01*
X0633472D02*
X0642528D01*
X0633472Y0168386D02*
Y0183346D01*
Y0168386D02*
X0642528D01*
Y0183346D01*
X0617528Y0168386D02*
Y0183346D01*
X0608472Y0168386D02*
X0617528D01*
X0608472D02*
Y0183346D01*
X0617528D01*
X0583472D02*
X0592528D01*
X0583472Y0168386D02*
Y0183346D01*
Y0168386D02*
X0592528D01*
Y0183346D01*
X0567528Y0168386D02*
Y0183346D01*
X0558472Y0168386D02*
X0567528D01*
X0558472D02*
Y0183346D01*
X0567528D01*
X0533472D02*
X0542528D01*
X0533472Y0168386D02*
Y0183346D01*
Y0168386D02*
X0542528D01*
Y0183346D01*
X0517528Y0168386D02*
Y0183346D01*
X0508472Y0168386D02*
X0517528D01*
X0508472D02*
Y0183346D01*
X0517528D01*
X0483472D02*
X0492528D01*
X0483472Y0168386D02*
Y0183346D01*
Y0168386D02*
X0492528D01*
Y0183346D01*
X0467528Y0168386D02*
Y0183346D01*
X0458472Y0168386D02*
X0467528D01*
X0458472D02*
Y0183346D01*
X0467528D01*
X0433472D02*
X0442528D01*
X0433472Y0168386D02*
Y0183346D01*
Y0168386D02*
X0442528D01*
Y0183346D01*
X0417528Y0168386D02*
Y0183346D01*
X0408472Y0168386D02*
X0417528D01*
X0408472D02*
Y0183346D01*
X0417528D01*
X0383472D02*
X0392528D01*
X0383472Y0168386D02*
Y0183346D01*
Y0168386D02*
X0392528D01*
Y0183346D01*
X0367528Y0168386D02*
Y0183346D01*
X0358472Y0168386D02*
X0367528D01*
X0358472D02*
Y0183346D01*
X0367528D01*
X0333472D02*
X0342528D01*
X0333472Y0168386D02*
Y0183346D01*
Y0168386D02*
X0342528D01*
Y0183346D01*
X0317528Y0168386D02*
Y0183346D01*
X0308472Y0168386D02*
X0317528D01*
X0308472D02*
Y0183346D01*
X0317528D01*
X0283512Y0183370D02*
X0292567D01*
X0283512Y0168409D02*
Y0183370D01*
Y0168409D02*
X0292567D01*
Y0183370D01*
X0267528Y0168386D02*
Y0183346D01*
X0258472Y0168386D02*
X0267528D01*
X0258472D02*
Y0183346D01*
X0267528D01*
X0810723Y0069339D02*
Y0078394D01*
Y0069339D02*
X0825684D01*
Y0078394D01*
X0810723D02*
X0825684D01*
X0506609Y0078394D02*
X0521569D01*
Y0069339D02*
Y0078394D01*
X0506609Y0069339D02*
X0521569D01*
X0506609D02*
Y0078394D01*
X0269752Y0182496D02*
X0281248D01*
X0269752D02*
Y0189504D01*
X0281248D01*
Y0182496D02*
Y0189504D01*
X0306248Y0182496D02*
Y0189504D01*
X0294752D02*
X0306248D01*
X0294752Y0182496D02*
Y0189504D01*
Y0182496D02*
X0306248D01*
X0319752D02*
X0331248D01*
X0319752D02*
Y0189504D01*
X0331248D01*
Y0182496D02*
Y0189504D01*
X0356248Y0182496D02*
Y0189504D01*
X0344752D02*
X0356248D01*
X0344752Y0182496D02*
Y0189504D01*
Y0182496D02*
X0356248D01*
X0369252D02*
X0380748D01*
X0369252D02*
Y0189504D01*
X0380748D01*
Y0182496D02*
Y0189504D01*
X0406748Y0182496D02*
Y0189504D01*
X0395252D02*
X0406748D01*
X0395252Y0182496D02*
Y0189504D01*
Y0182496D02*
X0406748D01*
X0419752D02*
X0431248D01*
X0419752D02*
Y0189504D01*
X0431248D01*
Y0182496D02*
Y0189504D01*
X0456248Y0182496D02*
Y0189504D01*
X0444752D02*
X0456248D01*
X0444752Y0182496D02*
Y0189504D01*
Y0182496D02*
X0456248D01*
X0469752D02*
X0481248D01*
X0469752D02*
Y0189504D01*
X0481248D01*
Y0182496D02*
Y0189504D01*
X0506248Y0182496D02*
Y0189504D01*
X0494752D02*
X0506248D01*
X0494752Y0182496D02*
Y0189504D01*
Y0182496D02*
X0506248D01*
X0519752D02*
X0531248D01*
X0519752D02*
Y0189504D01*
X0531248D01*
Y0182496D02*
Y0189504D01*
X0556248Y0182496D02*
Y0189504D01*
X0544752D02*
X0556248D01*
X0544752Y0182496D02*
Y0189504D01*
Y0182496D02*
X0556248D01*
X0569752D02*
X0581248D01*
X0569752D02*
Y0189504D01*
X0581248D01*
Y0182496D02*
Y0189504D01*
X0606248Y0182496D02*
Y0189504D01*
X0594752D02*
X0606248D01*
X0594752Y0182496D02*
Y0189504D01*
Y0182496D02*
X0606248D01*
X0619752D02*
X0631248D01*
X0619752D02*
Y0189504D01*
X0631248D01*
Y0182496D02*
Y0189504D01*
X0655748Y0182496D02*
Y0189504D01*
X0644252D02*
X0655748D01*
X0644252Y0182496D02*
Y0189504D01*
Y0182496D02*
X0655748D01*
X0669752D02*
X0681248D01*
X0669752D02*
Y0189504D01*
X0681248D01*
Y0182496D02*
Y0189504D01*
X0705984Y0182496D02*
Y0189504D01*
X0694488D02*
X0705984D01*
X0694488Y0182496D02*
Y0189504D01*
Y0182496D02*
X0705984D01*
X0719752D02*
X0731248D01*
X0719752D02*
Y0189504D01*
X0731248D01*
Y0182496D02*
Y0189504D01*
X0756248Y0182496D02*
Y0189504D01*
X0744752D02*
X0756248D01*
X0744752Y0182496D02*
Y0189504D01*
Y0182496D02*
X0756248D01*
X0769752D02*
X0781248D01*
X0769752D02*
Y0189504D01*
X0781248D01*
Y0182496D02*
Y0189504D01*
X0806248Y0182496D02*
Y0189504D01*
X0794752D02*
X0806248D01*
X0794752Y0182496D02*
Y0189504D01*
Y0182496D02*
X0806248D01*
X0819752D02*
X0831248D01*
X0819752D02*
Y0189504D01*
X0831248D01*
Y0182496D02*
Y0189504D01*
X0856248Y0182496D02*
Y0189504D01*
X0844752D02*
X0856248D01*
X0844752Y0182496D02*
Y0189504D01*
Y0182496D02*
X0856248D01*
X0271996Y0117118D02*
Y0128614D01*
Y0117118D02*
X0279004D01*
Y0128614D01*
X0271996D02*
X0279004D01*
X0296996D02*
X0304004D01*
Y0117118D02*
Y0128614D01*
X0296996Y0117118D02*
X0304004D01*
X0296996D02*
Y0128614D01*
X0321996Y0117118D02*
Y0128614D01*
Y0117118D02*
X0329004D01*
Y0128614D01*
X0321996D02*
X0329004D01*
X0346996D02*
X0354004D01*
Y0117118D02*
Y0128614D01*
X0346996Y0117118D02*
X0354004D01*
X0346996D02*
Y0128614D01*
X0371996Y0117118D02*
Y0128614D01*
Y0117118D02*
X0379004D01*
Y0128614D01*
X0371996D02*
X0379004D01*
X0396996D02*
X0404004D01*
Y0117118D02*
Y0128614D01*
X0396996Y0117118D02*
X0404004D01*
X0396996D02*
Y0128614D01*
X0421996Y0117118D02*
Y0128614D01*
Y0117118D02*
X0429004D01*
Y0128614D01*
X0421996D02*
X0429004D01*
X0446996D02*
X0454004D01*
Y0117118D02*
Y0128614D01*
X0446996Y0117118D02*
X0454004D01*
X0446996D02*
Y0128614D01*
X0471996Y0117118D02*
Y0128614D01*
Y0117118D02*
X0479004D01*
Y0128614D01*
X0471996D02*
X0479004D01*
X0496996D02*
X0504004D01*
Y0117118D02*
Y0128614D01*
X0496996Y0117118D02*
X0504004D01*
X0496996D02*
Y0128614D01*
X0521996Y0117118D02*
Y0128614D01*
Y0117118D02*
X0529004D01*
Y0128614D01*
X0521996D02*
X0529004D01*
X0544496D02*
X0551504D01*
Y0117118D02*
Y0128614D01*
X0544496Y0117118D02*
X0551504D01*
X0544496D02*
Y0128614D01*
X0571996Y0117118D02*
Y0128614D01*
Y0117118D02*
X0579004D01*
Y0128614D01*
X0571996D02*
X0579004D01*
X0596996D02*
X0604004D01*
Y0117118D02*
Y0128614D01*
X0596996Y0117118D02*
X0604004D01*
X0596996D02*
Y0128614D01*
X0621996Y0117118D02*
Y0128614D01*
Y0117118D02*
X0629004D01*
Y0128614D01*
X0621996D02*
X0629004D01*
X0646996D02*
X0654004D01*
Y0117118D02*
Y0128614D01*
X0646996Y0117118D02*
X0654004D01*
X0646996D02*
Y0128614D01*
X0671996Y0117118D02*
Y0128614D01*
Y0117118D02*
X0679004D01*
Y0128614D01*
X0671996D02*
X0679004D01*
X0696996D02*
X0704004D01*
Y0117118D02*
Y0128614D01*
X0696996Y0117118D02*
X0704004D01*
X0696996D02*
Y0128614D01*
X0721996Y0117118D02*
Y0128614D01*
Y0117118D02*
X0729004D01*
Y0128614D01*
X0721996D02*
X0729004D01*
X0746996D02*
X0754004D01*
Y0117118D02*
Y0128614D01*
X0746996Y0117118D02*
X0754004D01*
X0746996D02*
Y0128614D01*
X0771996Y0117118D02*
Y0128614D01*
Y0117118D02*
X0779004D01*
Y0128614D01*
X0771996D02*
X0779004D01*
X0796996D02*
X0804004D01*
Y0117118D02*
Y0128614D01*
X0796996Y0117118D02*
X0804004D01*
X0796996D02*
Y0128614D01*
X0821996Y0117118D02*
Y0128614D01*
Y0117118D02*
X0829004D01*
Y0128614D01*
X0821996D02*
X0829004D01*
X0850587Y0115642D02*
X0855542Y0110687D01*
X0847413Y0102558D02*
X0855542Y0110687D01*
X0842458Y0107513D02*
X0847413Y0102558D01*
X0842458Y0107513D02*
X0850587Y0115642D01*
X0740035Y0092618D02*
Y0104114D01*
X0733028Y0092618D02*
X0740035D01*
X0733028D02*
Y0104114D01*
X0740035D01*
X0428996Y0104114D02*
X0436004D01*
X0428996Y0092618D02*
Y0104114D01*
Y0092618D02*
X0436004D01*
Y0104114D01*
X0528952Y0032596D02*
X0540448D01*
X0528952D02*
Y0039604D01*
X0540448D01*
Y0032596D02*
Y0039604D01*
X0810762Y0079118D02*
X0817770D01*
Y0090614D01*
X0810762D02*
X0817770D01*
X0810762Y0079118D02*
Y0090614D01*
X0506648Y0079118D02*
Y0090614D01*
X0513656D01*
Y0079118D02*
Y0090614D01*
X0506648Y0079118D02*
X0513656D01*
X0602785Y0032496D02*
Y0039504D01*
Y0032496D02*
X0614281D01*
Y0039504D01*
X0602785D02*
X0614281D01*
X0580852Y0028575D02*
X0592348D01*
X0580852D02*
Y0035583D01*
X0592348D01*
Y0028575D02*
Y0035583D01*
Y0036417D02*
Y0043425D01*
X0580852D02*
X0592348D01*
X0580852Y0036417D02*
Y0043425D01*
Y0036417D02*
X0592348D01*
X0252315Y0129098D02*
Y0140634D01*
X0246685Y0129098D02*
Y0140634D01*
Y0129098D02*
X0252315D01*
X0246685Y0140634D02*
X0252315D01*
X0256445D02*
X0262075D01*
X0256445Y0129098D02*
X0262075D01*
X0256445D02*
Y0140634D01*
X0262075Y0129098D02*
Y0140634D01*
X0269555Y0129098D02*
Y0140634D01*
X0263925Y0129098D02*
Y0140634D01*
Y0129098D02*
X0269555D01*
X0263925Y0140634D02*
X0269555D01*
X0281469Y0140657D02*
X0287098D01*
X0281469Y0129122D02*
X0287098D01*
X0281469D02*
Y0140657D01*
X0287098Y0129122D02*
Y0140657D01*
X0294579Y0129122D02*
Y0140657D01*
X0288949Y0129122D02*
Y0140657D01*
Y0129122D02*
X0294579D01*
X0288949Y0140657D02*
X0294579D01*
X0306445Y0140634D02*
X0312075D01*
X0306445Y0129098D02*
X0312075D01*
X0306445D02*
Y0140634D01*
X0312075Y0129098D02*
Y0140634D01*
X0319555Y0129098D02*
Y0140634D01*
X0313925Y0129098D02*
Y0140634D01*
Y0129098D02*
X0319555D01*
X0313925Y0140634D02*
X0319555D01*
X0331445D02*
X0337075D01*
X0331445Y0129098D02*
X0337075D01*
X0331445D02*
Y0140634D01*
X0337075Y0129098D02*
Y0140634D01*
X0344555Y0129098D02*
Y0140634D01*
X0338925Y0129098D02*
Y0140634D01*
Y0129098D02*
X0344555D01*
X0338925Y0140634D02*
X0344555D01*
X0356445D02*
X0362075D01*
X0356445Y0129098D02*
X0362075D01*
X0356445D02*
Y0140634D01*
X0362075Y0129098D02*
Y0140634D01*
X0369555Y0129098D02*
Y0140634D01*
X0363925Y0129098D02*
Y0140634D01*
Y0129098D02*
X0369555D01*
X0363925Y0140634D02*
X0369555D01*
X0381445D02*
X0387075D01*
X0381445Y0129098D02*
X0387075D01*
X0381445D02*
Y0140634D01*
X0387075Y0129098D02*
Y0140634D01*
X0394555Y0129098D02*
Y0140634D01*
X0388925Y0129098D02*
Y0140634D01*
Y0129098D02*
X0394555D01*
X0388925Y0140634D02*
X0394555D01*
X0406445Y0140134D02*
X0412075D01*
X0406445Y0128598D02*
X0412075D01*
X0406445D02*
Y0140134D01*
X0412075Y0128598D02*
Y0140134D01*
X0419555Y0128598D02*
Y0140134D01*
X0413925Y0128598D02*
Y0140134D01*
Y0128598D02*
X0419555D01*
X0413925Y0140134D02*
X0419555D01*
X0431445D02*
X0437075D01*
X0431445Y0128598D02*
X0437075D01*
X0431445D02*
Y0140134D01*
X0437075Y0128598D02*
Y0140134D01*
X0835185Y0158098D02*
Y0169634D01*
X0840815Y0158098D02*
Y0169634D01*
X0835185D02*
X0840815D01*
X0835185Y0158098D02*
X0840815D01*
X0810185D02*
X0815815D01*
X0810185Y0169634D02*
X0815815D01*
Y0158098D02*
Y0169634D01*
X0810185Y0158098D02*
Y0169634D01*
X0785185Y0158098D02*
Y0169634D01*
X0790815Y0158098D02*
Y0169634D01*
X0785185D02*
X0790815D01*
X0785185Y0158098D02*
X0790815D01*
X0760185D02*
X0765815D01*
X0760185Y0169634D02*
X0765815D01*
Y0158098D02*
Y0169634D01*
X0760185Y0158098D02*
Y0169634D01*
X0735185Y0158098D02*
Y0169634D01*
X0740815Y0158098D02*
Y0169634D01*
X0735185D02*
X0740815D01*
X0735185Y0158098D02*
X0740815D01*
X0710185D02*
X0715815D01*
X0710185Y0169634D02*
X0715815D01*
Y0158098D02*
Y0169634D01*
X0710185Y0158098D02*
Y0169634D01*
X0685185Y0158098D02*
Y0169634D01*
X0690815Y0158098D02*
Y0169634D01*
X0685185D02*
X0690815D01*
X0685185Y0158098D02*
X0690815D01*
X0660185D02*
X0665815D01*
X0660185Y0169634D02*
X0665815D01*
Y0158098D02*
Y0169634D01*
X0660185Y0158098D02*
Y0169634D01*
X0635185Y0158098D02*
Y0169634D01*
X0640815Y0158098D02*
Y0169634D01*
X0635185D02*
X0640815D01*
X0635185Y0158098D02*
X0640815D01*
X0610185D02*
X0615815D01*
X0610185Y0169634D02*
X0615815D01*
Y0158098D02*
Y0169634D01*
X0610185Y0158098D02*
Y0169634D01*
X0585185Y0158098D02*
Y0169634D01*
X0590815Y0158098D02*
Y0169634D01*
X0585185D02*
X0590815D01*
X0585185Y0158098D02*
X0590815D01*
X0560185D02*
X0565815D01*
X0560185Y0169634D02*
X0565815D01*
Y0158098D02*
Y0169634D01*
X0560185Y0158098D02*
Y0169634D01*
X0553315Y0136598D02*
Y0148134D01*
X0547685Y0136598D02*
Y0148134D01*
Y0136598D02*
X0553315D01*
X0547685Y0148134D02*
X0553315D01*
X0838925Y0140134D02*
X0844555D01*
X0838925Y0128598D02*
X0844555D01*
X0838925D02*
Y0140134D01*
X0844555Y0128598D02*
Y0140134D01*
X0837075Y0128598D02*
Y0140134D01*
X0831445Y0128598D02*
Y0140134D01*
Y0128598D02*
X0837075D01*
X0831445Y0140134D02*
X0837075D01*
X0813925D02*
X0819555D01*
X0813925Y0128598D02*
X0819555D01*
X0813925D02*
Y0140134D01*
X0819555Y0128598D02*
Y0140134D01*
X0812075Y0128598D02*
Y0140134D01*
X0806445Y0128598D02*
Y0140134D01*
Y0128598D02*
X0812075D01*
X0806445Y0140134D02*
X0812075D01*
X0788925D02*
X0794555D01*
X0788925Y0128598D02*
X0794555D01*
X0788925D02*
Y0140134D01*
X0794555Y0128598D02*
Y0140134D01*
X0787075Y0128598D02*
Y0140134D01*
X0781445Y0128598D02*
Y0140134D01*
Y0128598D02*
X0787075D01*
X0781445Y0140134D02*
X0787075D01*
X0763925D02*
X0769555D01*
X0763925Y0128598D02*
X0769555D01*
X0763925D02*
Y0140134D01*
X0769555Y0128598D02*
Y0140134D01*
X0762075Y0128598D02*
Y0140134D01*
X0756445Y0128598D02*
Y0140134D01*
Y0128598D02*
X0762075D01*
X0756445Y0140134D02*
X0762075D01*
X0738925D02*
X0744555D01*
X0738925Y0128598D02*
X0744555D01*
X0738925D02*
Y0140134D01*
X0744555Y0128598D02*
Y0140134D01*
X0737075Y0128598D02*
Y0140134D01*
X0731445Y0128598D02*
Y0140134D01*
Y0128598D02*
X0737075D01*
X0731445Y0140134D02*
X0737075D01*
X0713925D02*
X0719555D01*
X0713925Y0128598D02*
X0719555D01*
X0713925D02*
Y0140134D01*
X0719555Y0128598D02*
Y0140134D01*
X0712075Y0128598D02*
Y0140134D01*
X0706445Y0128598D02*
Y0140134D01*
Y0128598D02*
X0712075D01*
X0706445Y0140134D02*
X0712075D01*
X0688925D02*
X0694555D01*
X0688925Y0128598D02*
X0694555D01*
X0688925D02*
Y0140134D01*
X0694555Y0128598D02*
Y0140134D01*
X0687075Y0128598D02*
Y0140134D01*
X0681445Y0128598D02*
Y0140134D01*
Y0128598D02*
X0687075D01*
X0681445Y0140134D02*
X0687075D01*
X0662925D02*
X0668555D01*
X0662925Y0128598D02*
X0668555D01*
X0662925D02*
Y0140134D01*
X0668555Y0128598D02*
Y0140134D01*
X0661075Y0128598D02*
Y0140134D01*
X0655445Y0128598D02*
Y0140134D01*
Y0128598D02*
X0661075D01*
X0655445Y0140134D02*
X0661075D01*
X0638925D02*
X0644555D01*
X0638925Y0128598D02*
X0644555D01*
X0638925D02*
Y0140134D01*
X0644555Y0128598D02*
Y0140134D01*
X0637075Y0128598D02*
Y0140134D01*
X0631445Y0128598D02*
Y0140134D01*
Y0128598D02*
X0637075D01*
X0631445Y0140134D02*
X0637075D01*
X0613925D02*
X0619555D01*
X0613925Y0128598D02*
X0619555D01*
X0613925D02*
Y0140134D01*
X0619555Y0128598D02*
Y0140134D01*
X0612075Y0128598D02*
Y0140134D01*
X0606445Y0128598D02*
Y0140134D01*
Y0128598D02*
X0612075D01*
X0606445Y0140134D02*
X0612075D01*
X0588925D02*
X0594555D01*
X0588925Y0128598D02*
X0594555D01*
X0588925D02*
Y0140134D01*
X0594555Y0128598D02*
Y0140134D01*
X0587075Y0128598D02*
Y0140134D01*
X0581445Y0128598D02*
Y0140134D01*
Y0128598D02*
X0587075D01*
X0581445Y0140134D02*
X0587075D01*
X0563925D02*
X0569555D01*
X0563925Y0128598D02*
X0569555D01*
X0563925D02*
Y0140134D01*
X0569555Y0128598D02*
Y0140134D01*
X0562075Y0128598D02*
Y0140134D01*
X0556445Y0128598D02*
Y0140134D01*
Y0128598D02*
X0562075D01*
X0556445Y0140134D02*
X0562075D01*
X0535185Y0158098D02*
X0540815D01*
X0535185Y0169634D02*
X0540815D01*
Y0158098D02*
Y0169634D01*
X0535185Y0158098D02*
Y0169634D01*
X0510185Y0158098D02*
Y0169634D01*
X0515815Y0158098D02*
Y0169634D01*
X0510185D02*
X0515815D01*
X0510185Y0158098D02*
X0515815D01*
X0485185D02*
X0490815D01*
X0485185Y0169634D02*
X0490815D01*
Y0158098D02*
Y0169634D01*
X0485185Y0158098D02*
Y0169634D01*
X0460185Y0158098D02*
Y0169634D01*
X0465815Y0158098D02*
Y0169634D01*
X0460185D02*
X0465815D01*
X0460185Y0158098D02*
X0465815D01*
X0435185D02*
X0440815D01*
X0435185Y0169634D02*
X0440815D01*
Y0158098D02*
Y0169634D01*
X0435185Y0158098D02*
Y0169634D01*
X0410185Y0158098D02*
Y0169634D01*
X0415815Y0158098D02*
Y0169634D01*
X0410185D02*
X0415815D01*
X0410185Y0158098D02*
X0415815D01*
X0385185D02*
X0390815D01*
X0385185Y0169634D02*
X0390815D01*
Y0158098D02*
Y0169634D01*
X0385185Y0158098D02*
Y0169634D01*
X0360185Y0158098D02*
Y0169634D01*
X0365815Y0158098D02*
Y0169634D01*
X0360185D02*
X0365815D01*
X0360185Y0158098D02*
X0365815D01*
X0335185D02*
X0340815D01*
X0335185Y0169634D02*
X0340815D01*
Y0158098D02*
Y0169634D01*
X0335185Y0158098D02*
Y0169634D01*
X0310185Y0158098D02*
Y0169634D01*
X0315815Y0158098D02*
Y0169634D01*
X0310185D02*
X0315815D01*
X0310185Y0158098D02*
X0315815D01*
X0285209Y0158122D02*
X0290839D01*
X0285209Y0169658D02*
X0290839D01*
Y0158122D02*
Y0169658D01*
X0285209Y0158122D02*
Y0169658D01*
X0260185Y0158098D02*
Y0169634D01*
X0265815Y0158098D02*
Y0169634D01*
X0260185D02*
X0265815D01*
X0260185Y0158098D02*
X0265815D01*
X0238685Y0140598D02*
X0244315D01*
X0238685Y0129063D02*
X0244315D01*
X0238685D02*
Y0140598D01*
X0244315Y0129063D02*
Y0140598D01*
X0544555Y0128598D02*
Y0140134D01*
X0538925Y0128598D02*
Y0140134D01*
Y0128598D02*
X0544555D01*
X0538925Y0140134D02*
X0544555D01*
X0531445D02*
X0537075D01*
X0531445Y0128598D02*
X0537075D01*
X0531445D02*
Y0140134D01*
X0537075Y0128598D02*
Y0140134D01*
X0519555Y0128598D02*
Y0140134D01*
X0513925Y0128598D02*
Y0140134D01*
Y0128598D02*
X0519555D01*
X0513925Y0140134D02*
X0519555D01*
X0506445D02*
X0512075D01*
X0506445Y0128598D02*
X0512075D01*
X0506445D02*
Y0140134D01*
X0512075Y0128598D02*
Y0140134D01*
X0494555Y0128598D02*
Y0140134D01*
X0488925Y0128598D02*
Y0140134D01*
Y0128598D02*
X0494555D01*
X0488925Y0140134D02*
X0494555D01*
X0481445D02*
X0487075D01*
X0481445Y0128598D02*
X0487075D01*
X0481445D02*
Y0140134D01*
X0487075Y0128598D02*
Y0140134D01*
X0469555Y0128598D02*
Y0140134D01*
X0463925Y0128598D02*
Y0140134D01*
Y0128598D02*
X0469555D01*
X0463925Y0140134D02*
X0469555D01*
X0456445D02*
X0462075D01*
X0456445Y0128598D02*
X0462075D01*
X0456445D02*
Y0140134D01*
X0462075Y0128598D02*
Y0140134D01*
X0444555Y0128598D02*
Y0140134D01*
X0438925Y0128598D02*
Y0140134D01*
Y0128598D02*
X0444555D01*
X0438925Y0140134D02*
X0444555D01*
X0753276Y0098652D02*
Y0104282D01*
X0741740Y0098652D02*
Y0104282D01*
X0753276D01*
X0741740Y0098652D02*
X0753276D01*
X0437709Y0098652D02*
X0449244D01*
X0437709Y0104282D02*
X0449244D01*
X0437709Y0098652D02*
Y0104282D01*
X0449244Y0098652D02*
Y0104282D01*
X0662185Y0093268D02*
X0667815D01*
X0662185Y0081732D02*
X0667815D01*
Y0093268D01*
X0662185Y0081732D02*
Y0093268D01*
X0650685Y0081782D02*
Y0093318D01*
X0656315Y0081782D02*
Y0093318D01*
X0650685Y0081782D02*
X0656315D01*
X0650685Y0093318D02*
X0656315D01*
X0346685Y0093268D02*
X0352315D01*
X0346685Y0081732D02*
X0352315D01*
Y0093268D01*
X0346685Y0081732D02*
Y0093268D01*
X0689832Y0048685D02*
X0701368D01*
X0689832Y0054315D02*
X0701368D01*
X0689832Y0048685D02*
Y0054315D01*
X0701368Y0048685D02*
Y0054315D01*
X0395668Y0048685D02*
Y0054315D01*
X0384132Y0048685D02*
Y0054315D01*
X0395668D01*
X0384132Y0048685D02*
X0395668D01*
X0684732Y0047826D02*
X0696268D01*
X0684732Y0042196D02*
X0696268D01*
X0684732D02*
Y0047826D01*
X0696268Y0042196D02*
Y0047826D01*
X0392268Y0041185D02*
Y0046815D01*
X0380732Y0041185D02*
Y0046815D01*
Y0041185D02*
X0392268D01*
X0380732Y0046815D02*
X0392268D01*
X0682332Y0055815D02*
X0693868D01*
X0682332Y0050185D02*
X0693868D01*
X0682332D02*
Y0055815D01*
X0693868Y0050185D02*
Y0055815D01*
X0389868Y0050185D02*
Y0055815D01*
X0378332Y0050185D02*
Y0055815D01*
Y0050185D02*
X0389868D01*
X0378332Y0055815D02*
X0389868D01*
X0728468Y0058185D02*
Y0063815D01*
X0716932Y0058185D02*
Y0063815D01*
X0728468D01*
X0716932Y0058185D02*
X0728468D01*
X0416232Y0054685D02*
X0427768D01*
X0416232Y0060315D02*
X0427768D01*
X0416232Y0054685D02*
Y0060315D01*
X0427768Y0054685D02*
Y0060315D01*
X0722985Y0045732D02*
X0728615D01*
X0722985Y0057268D02*
X0728615D01*
Y0045732D02*
Y0057268D01*
X0722985Y0045732D02*
Y0057268D01*
X0427232Y0054685D02*
X0438768D01*
X0427232Y0060315D02*
X0438768D01*
X0427232Y0054685D02*
Y0060315D01*
X0438768Y0054685D02*
Y0060315D01*
X0541633Y0036268D02*
X0547263D01*
X0541633Y0024732D02*
X0547263D01*
X0541633D02*
Y0036268D01*
X0547263Y0024732D02*
Y0036268D01*
X0541633Y0035732D02*
Y0047268D01*
X0547263Y0035732D02*
Y0047268D01*
X0541633D02*
X0547263D01*
X0541633Y0035732D02*
X0547263D01*
X0825799Y0084134D02*
X0831429D01*
X0825799Y0072598D02*
X0831429D01*
X0825799D02*
Y0084134D01*
X0831429Y0072598D02*
Y0084134D01*
X0527315Y0072598D02*
Y0084134D01*
X0521685Y0072598D02*
Y0084134D01*
Y0072598D02*
X0527315D01*
X0521685Y0084134D02*
X0527315D01*
X0596285Y0024732D02*
X0601915D01*
X0596285Y0036268D02*
X0601915D01*
Y0024732D02*
Y0036268D01*
X0596285Y0024732D02*
Y0036268D01*
Y0035732D02*
Y0047268D01*
X0601915Y0035732D02*
Y0047268D01*
X0596285D02*
X0601915D01*
X0596285Y0035732D02*
X0601915D01*
X0357185Y0081700D02*
Y0093235D01*
X0362815Y0081700D02*
Y0093235D01*
X0357185Y0081700D02*
X0362815D01*
X0357185Y0093235D02*
X0362815D01*
X0275563Y0187130D02*
Y0190870D01*
X0268437Y0187130D02*
X0275563D01*
X0268437D02*
Y0190870D01*
X0275563D01*
X0293937D02*
X0301063D01*
X0293937Y0187130D02*
Y0190870D01*
Y0187130D02*
X0301063D01*
Y0190870D01*
X0326563Y0187130D02*
Y0190870D01*
X0319437Y0187130D02*
X0326563D01*
X0319437D02*
Y0190870D01*
X0326563D01*
X0344937D02*
X0352063D01*
X0344937Y0187130D02*
Y0190870D01*
Y0187130D02*
X0352063D01*
Y0190870D01*
X0378063Y0187130D02*
Y0190870D01*
X0370937Y0187130D02*
X0378063D01*
X0370937D02*
Y0190870D01*
X0378063D01*
X0395937D02*
X0403063D01*
X0395937Y0187130D02*
Y0190870D01*
Y0187130D02*
X0403063D01*
Y0190870D01*
X0428563Y0187130D02*
Y0190870D01*
X0421437Y0187130D02*
X0428563D01*
X0421437D02*
Y0190870D01*
X0428563D01*
X0446937D02*
X0454063D01*
X0446937Y0187130D02*
Y0190870D01*
Y0187130D02*
X0454063D01*
Y0190870D01*
X0479063Y0187130D02*
Y0190870D01*
X0471937Y0187130D02*
X0479063D01*
X0471937D02*
Y0190870D01*
X0479063D01*
X0496937D02*
X0504063D01*
X0496937Y0187130D02*
Y0190870D01*
Y0187130D02*
X0504063D01*
Y0190870D01*
X0529063Y0187130D02*
Y0190870D01*
X0521937Y0187130D02*
X0529063D01*
X0521937D02*
Y0190870D01*
X0529063D01*
X0546937D02*
X0554063D01*
X0546937Y0187130D02*
Y0190870D01*
Y0187130D02*
X0554063D01*
Y0190870D01*
X0579063Y0187130D02*
Y0190870D01*
X0571937Y0187130D02*
X0579063D01*
X0571937D02*
Y0190870D01*
X0579063D01*
X0596937D02*
X0604063D01*
X0596937Y0187130D02*
Y0190870D01*
Y0187130D02*
X0604063D01*
Y0190870D01*
X0629063Y0187130D02*
Y0190870D01*
X0621937Y0187130D02*
X0629063D01*
X0621937D02*
Y0190870D01*
X0629063D01*
X0646937D02*
X0654063D01*
X0646937Y0187130D02*
Y0190870D01*
Y0187130D02*
X0654063D01*
Y0190870D01*
X0679063Y0187130D02*
Y0190870D01*
X0671937Y0187130D02*
X0679063D01*
X0671937D02*
Y0190870D01*
X0679063D01*
X0696937D02*
X0704063D01*
X0696937Y0187130D02*
Y0190870D01*
Y0187130D02*
X0704063D01*
Y0190870D01*
X0729063Y0187130D02*
Y0190870D01*
X0721937Y0187130D02*
X0729063D01*
X0721937D02*
Y0190870D01*
X0729063D01*
X0746937D02*
X0754063D01*
X0746937Y0187130D02*
Y0190870D01*
Y0187130D02*
X0754063D01*
Y0190870D01*
X0779063Y0187130D02*
Y0190870D01*
X0771937Y0187130D02*
X0779063D01*
X0771937D02*
Y0190870D01*
X0779063D01*
X0796937D02*
X0804063D01*
X0796937Y0187130D02*
Y0190870D01*
Y0187130D02*
X0804063D01*
Y0190870D01*
X0829063Y0187130D02*
Y0190870D01*
X0821937Y0187130D02*
X0829063D01*
X0821937D02*
Y0190870D01*
X0829063D01*
X0846937D02*
X0854063D01*
X0846937Y0187130D02*
Y0190870D01*
Y0187130D02*
X0854063D01*
Y0190870D01*
X0247350Y0208787D02*
Y0257213D01*
Y0208787D02*
X0268650D01*
Y0257213D01*
X0247350D02*
X0268650D01*
X0272805D02*
X0294104D01*
Y0208787D02*
Y0257213D01*
X0272805Y0208787D02*
X0294104D01*
X0272805D02*
Y0257213D01*
X0298259Y0208787D02*
Y0257213D01*
Y0208787D02*
X0319559D01*
Y0257213D01*
X0298259D02*
X0319559D01*
X0323714D02*
X0345013D01*
Y0208787D02*
Y0257213D01*
X0323714Y0208787D02*
X0345013D01*
X0323714D02*
Y0257213D01*
X0349168Y0208787D02*
Y0257213D01*
Y0208787D02*
X0370468D01*
Y0257213D01*
X0349168D02*
X0370468D01*
X0374623D02*
X0395922D01*
Y0208787D02*
Y0257213D01*
X0374623Y0208787D02*
X0395922D01*
X0374623D02*
Y0257213D01*
X0400078Y0208787D02*
Y0257213D01*
Y0208787D02*
X0421377D01*
Y0257213D01*
X0400078D02*
X0421377D01*
X0425532D02*
X0446831D01*
Y0208787D02*
Y0257213D01*
X0425532Y0208787D02*
X0446831D01*
X0425532D02*
Y0257213D01*
X0450987Y0208787D02*
Y0257213D01*
Y0208787D02*
X0472286D01*
Y0257213D01*
X0450987D02*
X0472286D01*
X0476441D02*
X0497740D01*
Y0208787D02*
Y0257213D01*
X0476441Y0208787D02*
X0497740D01*
X0476441D02*
Y0257213D01*
X0501896Y0208787D02*
Y0257213D01*
Y0208787D02*
X0523195D01*
Y0257213D01*
X0501896D02*
X0523195D01*
X0527350D02*
X0548649D01*
Y0208787D02*
Y0257213D01*
X0527350Y0208787D02*
X0548649D01*
X0527350D02*
Y0257213D01*
X0552350Y0208787D02*
Y0257213D01*
Y0208787D02*
X0573650D01*
Y0257213D01*
X0552350D02*
X0573650D01*
X0577350D02*
X0598650D01*
Y0208787D02*
Y0257213D01*
X0577350Y0208787D02*
X0598650D01*
X0577350D02*
Y0257213D01*
X0602350Y0208787D02*
Y0257213D01*
Y0208787D02*
X0623650D01*
Y0257213D01*
X0602350D02*
X0623650D01*
X0627350D02*
X0648650D01*
Y0208787D02*
Y0257213D01*
X0627350Y0208787D02*
X0648650D01*
X0627350D02*
Y0257213D01*
X0652350Y0208787D02*
Y0257213D01*
Y0208787D02*
X0673650D01*
Y0257213D01*
X0652350D02*
X0673650D01*
X0677350D02*
X0698650D01*
Y0208787D02*
Y0257213D01*
X0677350Y0208787D02*
X0698650D01*
X0677350D02*
Y0257213D01*
X0702350Y0208787D02*
Y0257213D01*
Y0208787D02*
X0723650D01*
Y0257213D01*
X0702350D02*
X0723650D01*
X0727350D02*
X0748650D01*
Y0208787D02*
Y0257213D01*
X0727350Y0208787D02*
X0748650D01*
X0727350D02*
Y0257213D01*
X0752350Y0208787D02*
Y0257213D01*
Y0208787D02*
X0773650D01*
Y0257213D01*
X0752350D02*
X0773650D01*
X0777350D02*
X0798650D01*
Y0208787D02*
Y0257213D01*
X0777350Y0208787D02*
X0798650D01*
X0777350D02*
Y0257213D01*
X0802350Y0208787D02*
Y0257213D01*
Y0208787D02*
X0823650D01*
Y0257213D01*
X0802350D02*
X0823650D01*
X0827350D02*
X0848650D01*
Y0208787D02*
Y0257213D01*
X0827350Y0208787D02*
X0848650D01*
X0827350D02*
Y0257213D01*
X0852350Y0208787D02*
Y0257213D01*
Y0208787D02*
X0873650D01*
Y0257213D01*
X0852350D02*
X0873650D01*
X0366359Y0085613D02*
Y0095219D01*
X0371241D01*
Y0085613D02*
Y0095219D01*
X0366359Y0085613D02*
X0371241D01*
X0669425Y0083077D02*
X0674307D01*
X0669425Y0073470D02*
Y0083077D01*
Y0073470D02*
X0674307D01*
Y0083077D01*
X0371241Y0073197D02*
Y0082803D01*
X0366359Y0073197D02*
X0371241D01*
X0366359D02*
Y0082803D01*
X0371241D01*
X0688997Y0054759D02*
Y0059641D01*
Y0054759D02*
X0698603D01*
Y0059641D01*
X0688997D02*
X0698603D01*
X0384787Y0059317D02*
X0394394D01*
Y0054435D02*
Y0059317D01*
X0384787Y0054435D02*
X0394394D01*
X0384787D02*
Y0059317D01*
X0689020Y0049059D02*
Y0053941D01*
X0679414D02*
X0689020D01*
X0679414Y0049059D02*
Y0053941D01*
Y0049059D02*
X0689020D01*
X0374414D02*
X0384020D01*
X0374414D02*
Y0053941D01*
X0384020D01*
Y0049059D02*
Y0053941D01*
X0686803Y0057559D02*
Y0062441D01*
X0677197D02*
X0686803D01*
X0677197Y0057559D02*
Y0062441D01*
Y0057559D02*
X0686803D01*
X0372197D02*
X0381803D01*
X0372197D02*
Y0062441D01*
X0381803D01*
Y0057559D02*
Y0062441D01*
X0701067Y0060625D02*
Y0065507D01*
X0691461D02*
X0701067D01*
X0691461Y0060625D02*
Y0065507D01*
Y0060625D02*
X0701067D01*
X0387347Y0060625D02*
X0396953D01*
X0387347D02*
Y0065507D01*
X0396953D01*
Y0060625D02*
Y0065507D01*
X0701659Y0064603D02*
X0706541D01*
X0701659Y0054997D02*
Y0064603D01*
Y0054997D02*
X0706541D01*
Y0064603D01*
X0402741Y0055797D02*
Y0065403D01*
X0397859Y0055797D02*
X0402741D01*
X0397859D02*
Y0065403D01*
X0402741D01*
X0707559Y0064703D02*
X0712441D01*
X0707559Y0055097D02*
Y0064703D01*
Y0055097D02*
X0712441D01*
Y0064703D01*
X0408374Y0056197D02*
Y0065803D01*
X0403492Y0056197D02*
X0408374D01*
X0403492D02*
Y0065803D01*
X0408374D01*
X0256110Y0140591D02*
Y0156142D01*
X0269890D01*
Y0140591D02*
Y0156142D01*
X0256110Y0140591D02*
X0269890D01*
X0281134Y0140614D02*
X0294913D01*
Y0156165D01*
X0281134D02*
X0294913D01*
X0281134Y0140614D02*
Y0156165D01*
X0306110Y0140591D02*
Y0156142D01*
X0319890D01*
Y0140591D02*
Y0156142D01*
X0306110Y0140591D02*
X0319890D01*
X0831110D02*
X0844890D01*
Y0156142D01*
X0831110D02*
X0844890D01*
X0831110Y0140591D02*
Y0156142D01*
X0806110Y0140591D02*
Y0156142D01*
X0819890D01*
Y0140591D02*
Y0156142D01*
X0806110Y0140591D02*
X0819890D01*
X0781110D02*
X0794890D01*
Y0156142D01*
X0781110D02*
X0794890D01*
X0781110Y0140591D02*
Y0156142D01*
X0756110Y0140591D02*
Y0156142D01*
X0769890D01*
Y0140591D02*
Y0156142D01*
X0756110Y0140591D02*
X0769890D01*
X0731110D02*
X0744890D01*
Y0156142D01*
X0731110D02*
X0744890D01*
X0731110Y0140591D02*
Y0156142D01*
X0706110Y0140591D02*
Y0156142D01*
X0719890D01*
Y0140591D02*
Y0156142D01*
X0706110Y0140591D02*
X0719890D01*
X0681110D02*
X0694890D01*
Y0156142D01*
X0681110D02*
X0694890D01*
X0681110Y0140591D02*
Y0156142D01*
X0655110Y0140591D02*
Y0156142D01*
X0668890D01*
Y0140591D02*
Y0156142D01*
X0655110Y0140591D02*
X0668890D01*
X0631110D02*
X0644890D01*
Y0156142D01*
X0631110D02*
X0644890D01*
X0631110Y0140591D02*
Y0156142D01*
X0606110Y0140591D02*
Y0156142D01*
X0619890D01*
Y0140591D02*
Y0156142D01*
X0606110Y0140591D02*
X0619890D01*
X0581110D02*
X0594890D01*
Y0156142D01*
X0581110D02*
X0594890D01*
X0581110Y0140591D02*
Y0156142D01*
X0556110Y0140591D02*
Y0156142D01*
X0569890D01*
Y0140591D02*
Y0156142D01*
X0556110Y0140591D02*
X0569890D01*
X0531110D02*
X0544890D01*
Y0156142D01*
X0531110D02*
X0544890D01*
X0531110Y0140591D02*
Y0156142D01*
X0506110Y0140591D02*
Y0156142D01*
X0519890D01*
Y0140591D02*
Y0156142D01*
X0506110Y0140591D02*
X0519890D01*
X0481110D02*
X0494890D01*
Y0156142D01*
X0481110D02*
X0494890D01*
X0481110Y0140591D02*
Y0156142D01*
X0456110Y0140591D02*
Y0156142D01*
X0469890D01*
Y0140591D02*
Y0156142D01*
X0456110Y0140591D02*
X0469890D01*
X0431110D02*
X0444890D01*
Y0156142D01*
X0431110D02*
X0444890D01*
X0431110Y0140591D02*
Y0156142D01*
X0406110Y0140591D02*
Y0156142D01*
X0419890D01*
Y0140591D02*
Y0156142D01*
X0406110Y0140591D02*
X0419890D01*
X0381110D02*
X0394890D01*
Y0156142D01*
X0381110D02*
X0394890D01*
X0381110Y0140591D02*
Y0156142D01*
X0356110Y0140591D02*
Y0156142D01*
X0369890D01*
Y0140591D02*
Y0156142D01*
X0356110Y0140591D02*
X0369890D01*
X0331110D02*
X0344890D01*
Y0156142D01*
X0331110D02*
X0344890D01*
X0331110Y0140591D02*
Y0156142D01*
X0845677Y0149610D02*
Y0180122D01*
X0830323D02*
X0845677D01*
X0830323Y0149610D02*
Y0180122D01*
Y0149610D02*
X0845677D01*
X0805323D02*
X0820677D01*
X0805323D02*
Y0180122D01*
X0820677D01*
Y0149610D02*
Y0180122D01*
X0795677Y0149610D02*
Y0180122D01*
X0780323D02*
X0795677D01*
X0780323Y0149610D02*
Y0180122D01*
Y0149610D02*
X0795677D01*
X0755323D02*
X0770677D01*
X0755323D02*
Y0180122D01*
X0770677D01*
Y0149610D02*
Y0180122D01*
X0745677Y0149610D02*
Y0180122D01*
X0730323D02*
X0745677D01*
X0730323Y0149610D02*
Y0180122D01*
Y0149610D02*
X0745677D01*
X0705323D02*
X0720677D01*
X0705323D02*
Y0180122D01*
X0720677D01*
Y0149610D02*
Y0180122D01*
X0695677Y0149610D02*
Y0180122D01*
X0680323D02*
X0695677D01*
X0680323Y0149610D02*
Y0180122D01*
Y0149610D02*
X0695677D01*
X0655323D02*
X0670677D01*
X0655323D02*
Y0180122D01*
X0670677D01*
Y0149610D02*
Y0180122D01*
X0645677Y0149610D02*
Y0180122D01*
X0630323D02*
X0645677D01*
X0630323Y0149610D02*
Y0180122D01*
Y0149610D02*
X0645677D01*
X0605323D02*
X0620677D01*
X0605323D02*
Y0180122D01*
X0620677D01*
Y0149610D02*
Y0180122D01*
X0595677Y0149610D02*
Y0180122D01*
X0580323D02*
X0595677D01*
X0580323Y0149610D02*
Y0180122D01*
Y0149610D02*
X0595677D01*
X0555323D02*
X0570677D01*
X0555323D02*
Y0180122D01*
X0570677D01*
Y0149610D02*
Y0180122D01*
X0545677Y0149610D02*
Y0180122D01*
X0530323D02*
X0545677D01*
X0530323Y0149610D02*
Y0180122D01*
Y0149610D02*
X0545677D01*
X0505323D02*
X0520677D01*
X0505323D02*
Y0180122D01*
X0520677D01*
Y0149610D02*
Y0180122D01*
X0495677Y0149610D02*
Y0180122D01*
X0480323D02*
X0495677D01*
X0480323Y0149610D02*
Y0180122D01*
Y0149610D02*
X0495677D01*
X0455323D02*
X0470677D01*
X0455323D02*
Y0180122D01*
X0470677D01*
Y0149610D02*
Y0180122D01*
X0445677Y0149610D02*
Y0180122D01*
X0430323D02*
X0445677D01*
X0430323Y0149610D02*
Y0180122D01*
Y0149610D02*
X0445677D01*
X0405323D02*
X0420677D01*
X0405323D02*
Y0180122D01*
X0420677D01*
Y0149610D02*
Y0180122D01*
X0395677Y0149610D02*
Y0180122D01*
X0380323D02*
X0395677D01*
X0380323Y0149610D02*
Y0180122D01*
Y0149610D02*
X0395677D01*
X0355323D02*
X0370677D01*
X0355323D02*
Y0180122D01*
X0370677D01*
Y0149610D02*
Y0180122D01*
X0345677Y0149610D02*
Y0180122D01*
X0330323D02*
X0345677D01*
X0330323Y0149610D02*
Y0180122D01*
Y0149610D02*
X0345677D01*
X0305323D02*
X0320677D01*
X0305323D02*
Y0180122D01*
X0320677D01*
Y0149610D02*
Y0180122D01*
X0295701Y0149634D02*
Y0180146D01*
X0280346D02*
X0295701D01*
X0280346Y0149634D02*
Y0180146D01*
Y0149634D02*
X0295701D01*
X0255323Y0149610D02*
X0270677D01*
X0255323D02*
Y0180122D01*
X0270677D01*
Y0149610D02*
Y0180122D01*
X0427713Y0066362D02*
Y0103370D01*
X0374169Y0066362D02*
X0427713D01*
X0374169D02*
Y0103370D01*
X0427713D01*
X0578614Y0100449D02*
X0638260D01*
X0578614Y0073677D02*
Y0100449D01*
Y0073677D02*
X0638260D01*
Y0100449D01*
X0274614D02*
X0334260D01*
X0274614Y0073677D02*
Y0100449D01*
Y0073677D02*
X0334260D01*
Y0100449D01*
X0678169Y0103370D02*
X0731713D01*
X0678169Y0066362D02*
Y0103370D01*
Y0066362D02*
X0731713D01*
Y0103370D01*
M02*
