M48
;Layer_Color=9474304
;FILE_FORMAT=2:5
INCH,LZ
;TYPE=PLATED
T1F00S00C0.01200
T2F00S00C0.01600
T3F00S00C0.02000
T4F00S00C0.02500
T5F00S00C0.03543
T6F00S00C0.03819
T7F00S00C0.03937
T8F00S00C0.03937
T9F00S00C0.06496
T10F00S00C0.08465
T11F00S00C0.12598
;TYPE=NON_PLATED
T12F00S00C0.13110
%
T01
X03992Y0055
X0401567
X04047Y00555
X04072
X0703124Y0054263
X070549
X0709024Y0054363
X071139
X0855364Y0112636
X0852536Y0115464
X08275Y0129866
X08235
X08025
X07985
X07775
X07735
X07525
X07485
X07275
X07235
X07025
X06985
X0693047Y0061211
X069695Y00572
X071Y006305
X06775Y0129866
X06735
X06525
X06485
X06275
X06235
X06025
X05985
X05775
X05735
X055Y01295
X0546
X05275Y0129866
X05235
X05025
X04985
X04775
X04735
X04525
X04485
X04275
X04235
X04025
X03985
X03775
X03735
X0389Y0061279
X0392771Y0056907
X0405933Y006415
X03525Y0129866
X03485
X03275
X03235
X03025
X02985
X02775
X02735
T02
X027Y002
X0275
X028
X0285
X029
X0295
X03
X0305
X031
X0315
X032
X0325
X033
X0335
X034
X0345
X035
X0355
X036
X0365
Y0025
Y003
X036
Y0025
X0355
Y003
X035
Y0025
X0345
Y003
X034
Y0025
X0335
Y003
X033
Y0025
X0325
Y003
X032
Y0025
X0315
Y003
X031Y0025
X0305
X03
X0295
X028
Y003
X0275
Y0025
X027
Y003
X0265
Y0035
X026
Y004
X0255
Y0045
X025
Y005
Y0055
X0245
Y005
Y0045
X025Y004
X0255Y0035
X026Y003
X0265Y0025
X0277Y00398
X0282
Y00448
Y00498
X0287
X0292
X0297
X0302
X0307
X0312
X0317
X0322
Y00448
X0327
Y00398
X0332
X0337
X0342
X0347
X0352
X0357
X0362
X0367
X0322
X0317
Y00448
X0312
Y00548
X0317
X0307
X0302
X0297
X0292
X0287
X0282
X0277
Y00498
Y00448
X0272
Y00498
Y00548
X0267
Y00498
X0262Y00548
X024Y0055
Y005
X0373Y00515
X0372Y00398
X0377
X0382
X0387
X0392
X03892Y00467
X03825Y0047
X0397Y00448
X0402Y00498
X041Y004
X0405Y0035
X04Y003
X0395
Y0025
X039
Y003
X0385
Y0025
Y002
X039
X038
Y0025
Y003
X0375
Y0025
Y002
X037
Y0025
Y003
X043595Y00535
X0448Y0055
X0452
Y0051
X0456
Y0047
X046
Y0043
X0464
Y0039
X0468
Y0035
X0472
Y0031
X0476
X048
X0484
X0488
X0492
X0496
X05
X0504
X0508
X0512
X0516
X052
Y0027
X0524
Y0023
X052
X0516
Y0027
X0512
Y0023
X0508
Y0027
X0504
Y0023
X05
Y0027
X0496
Y0023
X0492
Y0027
X0488
Y0023
X0484
Y0027
X048
Y0023
X0476Y0027
X04805Y0041
X04845
X04885
X04925
X04965
X05005
X05045
X05085
X05125
X05165
X05205
Y0045
X05245
Y0049
X05205
X05165
Y0045
X05125
Y0049
X05085
Y0045
X05045
Y0049
X05005
Y0045
X04965
Y0049
X04925
Y0045
X04885
Y0049
X04845
Y0045
X04805
Y0049
X04765
Y0053
X04725
Y0049
X04765Y0045
X04685Y0053
X05271Y00361
X0528Y0023
X0532
X0536
X054
X0544
X0548
X0552
X0556
X056
X0572Y0022
X0576
X058
X0584
X0588
X0592
X0596
X06
X0604
X0608
X0612
X0616
X062
Y0026
X0624
X0628
Y003
X0632
Y0026
Y0022
X0628
X0624
Y003
Y004
X0628
X0632
X0636
X064
X0644
X0648
X0652
X0656
X066
X0664
X0668
X0672
X0676
X068
Y003
X0676
X0672
X0668
X0664
X066
X0656
X0652
X0648
X0644
X064
X0636
Y0026
X0634Y0044
X063
X0626
X0622
X0618
X0616Y0048
X0612
X0608
X0604
X0592
X0588
X0584
X058
X0576
X0572
X05565Y0049
X05525
X062Y0048
X0624
X0628
X0632
X0638Y0044
X0616133Y0036
X0678Y00515
X0687421Y0047
X0694847Y00471
X0696Y004
X0692
X0688
X0684
Y003
X0688
X0692
X0696
X07
X0704
X0708Y0034
X0712Y0038
X0716Y0042
X07258Y00443
X0734Y0044
X0739
Y0039
X0744
Y0034
X0749
Y0029
X0754
Y0024
X0759
Y0019
X0764
Y0014
X0769
X0774
X0779
X0784
X0789
X0794
X0799
X0804
X0809
Y0009
X0814
X0819
X0834
X0837Y00295
Y00345
Y00395
Y00445
Y00495
X0832Y00445
Y00395
X0827
X0822Y00345
X0817
X0812
X0807
Y00295
X0802
Y00345
X0797
Y00295
X0792
Y00345
X0787
Y00295
X0782
Y00345
Y00395
X0777
Y00445
X0772
Y00495
X0767
Y00545
X0762
Y00495
Y00445
X0767
Y00395
X0772
Y00345
X0777
Y00295
X0772
X0767Y00345
X0762Y00395
X0757Y00445
Y00495
Y00545
X0752
Y00495
X0747Y00545
X0734Y0054
Y0049
Y0039
X0739Y0034
X0744Y0029
X0749Y0024
X0754Y0019
X0759Y0014
X0764Y0009
X0769
X0774
X0779
X0784
X0789
X0794
X0799
X0804
X0802Y0045
X0807
X0812
X0817
Y005
X0822
Y0055
X0827
X0817
X0812
Y005
X0807
Y0055
X0802
Y005
X0797
Y0055
X0792
Y005
Y0045
X0797
X0708Y0048
X07Y004
X0842Y00395
X0847
X0852
X0857
X0862
Y00345
Y00295
X0857
Y00345
X0852
Y00295
X0847
Y00345
X0842
Y00295
Y00445
X0847
X0852
X0857
X0852Y00495
X0847
Y00545
X0842
Y00495
X0844Y0014
X0849
X0854
X0859
X0864
X0869
X0874
X0879
X0884
X0889
Y0009
X0884
X0879
X0874
X0869
X0864
X0859
X0854
X0849
X0844
X0839
Y0014
X0884Y0019
X0839127Y01146
X08512Y01268
X0814388Y0092
X0801182Y0092457
X0807Y0065
Y006
X0812
X0817
X0822
X0827
X0757Y00645
X0752
Y00695
X0747
Y00745
X0742
Y00695
X0747Y00645
X0737Y00745
X0732
X0743432Y0095217
X0771629Y0081
X0693Y0076
X0692Y0090516
X068515Y00565
X06755Y006
X0667366Y0075025
X06685Y0085472
X06593Y00848
X06465Y00795
X06448Y006544
X0635376
X06262
X067175Y00964
X0547Y0095
Y009
Y0085
Y008
Y0075
Y007
Y0065
Y006
X0542
Y0065
Y007
Y0075
Y008
Y0085
Y009
Y0095
X0537
Y009
Y0085
Y008
Y0075
Y007
Y0065
Y006
X0532
Y0065
Y007
X0527Y0065
Y006
X05469Y01452
X05243Y01109
X0510152Y0091866
X0496946Y0091366
X04835Y01015
X04704Y00835
X04685Y0061
Y0057
X04725
X04645
Y0061
Y0065
X04605
Y0069
X04565
Y0065
X04605Y0061
X0448Y0059
X0444
X04485Y0073
Y0077
X04525
X04485Y0081
X04445
Y0077
X04405Y0081
X0436Y0071
X0432
X0428
X04205Y0081
X04394Y0095217
X0388Y0090516
X0389Y0075776
X0380272Y0056364
X03705Y006
X03688Y00964
X0502Y0065
X0507
X0512
X0517
X0522
Y006
X0517
X0512
X0507
X0502
X03642Y0074752
X03649Y00846
X03545Y00848
X03425Y00795
X03408Y006544
X0331376
X03222
X0312Y00598
X0307
X0302
X0297
X0292
X0287
X0282
Y00648
X0277
Y00698
X0272
Y00748
Y00798
Y00848
X0267
Y00898
X0262
Y00948
Y00848
Y00798
X0267
Y00748
Y00698
Y00648
X0272
Y00598
X0277
X0267
X0262
Y00648
Y00698
Y00748
X025Y0075
Y008
Y0085
X0245
Y009
X024
Y0095
X0235
Y01
X023
Y0105
X0225
Y01
Y0095
X023
Y009
X0235
Y0085
X024
Y008
X0245
Y0075
Y007
X025
Y0065
Y006
X0245
Y0065
X024
Y007
Y0075
Y006
X0225Y009
X022
Y0095
Y01
Y0105
X0215
Y01
Y0095
Y009
X0222Y01248
X0227
X0232
Y01298
X0227
X0222
X0217
X0232Y01198
X0237
X0242Y01148
X0247Y01098
X0252Y01048
X0257Y00998
X0212Y01298
T03
X0305414Y003575
X0811846Y002165
X0869559Y0022331
X091657Y006947
X0863Y0185116
X0838
X0813
X0788
X0763
X0738
X0713
X0688
X0683591Y015801
X0708Y0157866
X0733591Y015801
X0758591
X0783591
X0808591
X0833591
X0659591
X0633591
X0608591
X0583591
X0558591
X0533591Y015776
X05365Y01845
X0563Y0185116
X0588
X0613
X0638
X0663
X05514Y01359
X0508591Y015776
X04835Y0157866
X0458591Y015776
X0433591
X0408591
X0383591
X0388Y0184866
X0413
X0438
X0463
X0488
X0513
X0363
X0338
X0313
X0288024Y018489
X0263Y0184866
X0258591Y015776
X0283614Y0157783
X0308591Y015776
X0333591
X0358591
X0241Y0127
X02495Y0116884
X0223464Y01149
X0154038Y011495
X02425Y02825
X024675
X0251
X025525
X02595
X02655
X0277
X028025Y027925
X02835Y0276
X0277
X02835Y02825
X02895
X0302454
X0308955
X0314954
X0308955Y0276
X0302454
X0305704Y027925
X0327909Y02825
X0334409
X0340409
X0334409Y0276
X0327909
X0331159Y027925
X0353364Y02825
X0359864
X0365841Y0282366
X0359864Y0276
X0353364
X0356614Y027925
X0382068
X0385318Y0276
X0378818
Y02825
X0385318
X0391318
X0404273
X0407523Y027925
X0410773Y0276
X0404273
X0410773Y02825
X0416773
X0429727
X0432977Y027925
X0436227Y0276
X0429727
X0436227Y02825
X0442227
X0455182
Y0276
X0458432Y027925
X0461682Y02825
X0467682
X0461682Y0276
X0480636
X0483886Y027925
X0487136Y0276
Y02825
X0493136
X0480636
X0506091
X0509341Y027925
X0512591Y0276
X0506091
X0512591Y02825
X0518591
X0531545
X0534795Y027925
X0538045Y0276
X0531545
X0538045Y02825
X0544045
X0556954
X0562955
X0566205Y027925
X0569454Y02825
Y0276
X0562955
X0587955
X0594454
Y02825
X0587955
X0581954
X0591205Y027925
X0606954Y02825
X0612955
Y0276
X0619454
Y02825
X0616205Y027925
X0631954Y02825
X0637955
Y0276
X0644454
Y02825
X0641205Y027925
X0656954Y02825
X0662955
Y0276
X0669454
Y02825
X0666205Y027925
X0682Y0282366
X0687955Y02825
Y0276
X0694454
Y02825
X0691205Y027925
X0706954Y02825
X0712955
Y0276
X0719454
Y02825
X0716205Y027925
X0731954Y02825
X0737955
Y0276
X0744454
Y02825
X0741205Y027925
X0756954Y02825
X0762955
Y0276
X0769454
Y02825
X0766205Y027925
X0781954Y02825
X0787955
Y0276
X0794454
Y02825
X0791205Y027925
X0807Y0282366
X0812955Y02825
Y0276
X0819454
Y02825
X0816204Y027925
X0831954Y02825
X0837955
Y0276
X0844454
Y02825
X0841204Y027925
X08555Y02828
X08615
X086575
X087
X087425
X08785
T04
X0783096Y0070374
X07855Y00841
X0482115Y00834
X0478696Y00695
T05
X0760363Y00925
X0768237
X0776111
X0806392Y0102866
X0814266
X082214
X0518026Y0102866
X0510152
X0502278
X0472111Y00925
X0464237
X0456363
T06
X0925Y0086287
Y0096287
Y0106287
Y0116287
X0935Y0111287
Y0101287
Y0091287
Y0081287
X01465Y0081
Y0091
Y0101
Y0111
X01365Y0106
Y0096
Y0086
Y0116
T07
X0912295Y0194748
X0920169
X0928043
Y0203409
X0920169
X0912295
X0935917
X0943791
X0951665
X0959539
X0967413
X0975287
X0983161
Y0194748
X0975287
X0967413
X0207496Y0194748
X0199622
Y0203409
X0191748
X0183874
X0176
X0168126
X0160252
X0152378
Y0194748
X0160252
X0207496Y0203409
T08
X0588752Y0083126
Y0091
X0596626
X06045
Y0083126
X0596626
X0612374
X0620248
Y0091
X0612374
X0628122
Y0083126
X0324122
X0316248
X0308374
X03005
X0292626
X0284752
Y0091
X0292626
X03005
X0308374
X0316248
X0324122
T09
X0947992Y0068295
Y0129279
X0123508Y0128992
Y0068008
T10
X0994382Y0199866
X0901075
X0218716Y0199866
X0141157
T11
X0019685Y0019685
X107874
X0019685Y0271654
X107874
T12
X096Y0076287
Y0121287
X01115Y0121
Y0076
M30
